<?xml version="1.0" encoding="utf-8"?>
<!-- Generated by IcoMoon.io -->
<!DOCTYPE svg PUBLIC "-//W3C//DTD SVG 1.1//EN" "http://www.w3.org/Graphics/SVG/1.1/DTD/svg11.dtd">
<svg version="1.1" xmlns="http://www.w3.org/2000/svg" xmlns:xlink="http://www.w3.org/1999/xlink" width="36" height="36" viewBox="0 0 36 36">
<path fill="#444" d="M15.915 2.918c0 1.051-0.851 1.906-1.902 1.906-1.053 0-1.906-0.855-1.906-1.906 0-1.050 0.853-1.903 1.906-1.903 1.051 0 1.902 0.853 1.902 1.903z"></path>
<path fill="#444" d="M22.711 2.918c0 0.632-0.513 1.142-1.142 1.142-0.633 0-1.142-0.51-1.142-1.142 0-0.631 0.509-1.142 1.142-1.142 0.629 0 1.142 0.511 1.142 1.142z"></path>
<path fill="#444" d="M31.026 2.918c0 1.051-0.85 1.906-1.902 1.906-1.053 0-1.906-0.855-1.906-1.906 0-1.050 0.853-1.903 1.906-1.903 1.051 0 1.902 0.853 1.902 1.903z"></path>
<path fill="#444" d="M18.047 30.484h-10.445c-0.704 0-1.273 0.576-1.273 1.286v2.317c0 0.712 0.569 1.286 1.273 1.286h10.445c0.704 0 1.275-0.574 1.275-1.286v-2.317c0-0.71-0.571-1.286-1.275-1.286z"></path>
<path fill="#444" d="M21.159 14.705c-0.039-0.065-0.087-0.123-0.135-0.182-0.031-0.040-0.060-0.077-0.093-0.115-0.046-0.049-0.093-0.093-0.145-0.138-0.043-0.040-0.087-0.078-0.134-0.112-0.048-0.038-0.097-0.072-0.149-0.104-0.056-0.035-0.118-0.067-0.18-0.097-0.050-0.025-0.095-0.049-0.145-0.067-0.079-0.032-0.153-0.054-0.234-0.074-0.043-0.010-0.085-0.026-0.126-0.034-0.128-0.025-0.257-0.038-0.389-0.038s-0.263 0.014-0.389 0.038c-0.043 0.008-0.083 0.024-0.126 0.034-0.081 0.021-0.159 0.042-0.234 0.074-0.050 0.019-0.099 0.042-0.145 0.067-0.062 0.030-0.124 0.062-0.18 0.097-0.052 0.032-0.101 0.066-0.151 0.102-0.045 0.036-0.091 0.074-0.136 0.114-0.048 0.044-0.095 0.089-0.143 0.138-0.031 0.038-0.060 0.077-0.091 0.115-0.047 0.059-0.095 0.117-0.139 0.182-0.008 0.020-0.019 0.038-0.029 0.059-0.182 0.309-0.298 0.668-0.298 1.058v-1.415c0-1.146-0.919-2.079-2.057-2.079s-2.059 0.932-2.059 2.079v-2.030c0-1.148-0.921-2.079-2.057-2.079s-2.059 0.93-2.059 2.079v-9.67c0-1.146-0.921-2.079-2.059-2.079-1.136 0-2.057 0.932-2.057 2.079v18.053c0 0-0.002 0.006-0.002 0.020-0.002 0.051-0.025 0.402-0.037 0.938v0.006c-0.033 1.565 0.031 4.63 0.954 6.118 0.54 0.822 1.461 1.36 2.506 1.36h10.157c0.203 0 0.401-0.021 0.592-0.061 1.202-0.252 2.127-1.26 2.277-2.511 0.012-0.114 0.021-0.229 0.021-0.346v-10.462c0-0.389-0.112-0.748-0.296-1.062-0.010-0.017-0.019-0.035-0.031-0.055z"></path>
</svg>
