<?xml version="1.0" encoding="utf-8"?>
<!-- Generated by IcoMoon.io -->
<!DOCTYPE svg PUBLIC "-//W3C//DTD SVG 1.1//EN" "http://www.w3.org/Graphics/SVG/1.1/DTD/svg11.dtd">
<svg version="1.1" xmlns="http://www.w3.org/2000/svg" xmlns:xlink="http://www.w3.org/1999/xlink" width="36" height="36" viewBox="0 0 36 36">
<path fill="#444" d="M35.438 8.002c0-1.541-1.249-2.79-2.79-2.79h-29.295c-1.541 0-2.79 1.249-2.79 2.79v20.46c0 1.541 1.249 2.79 2.79 2.79h29.295c1.541 0 2.79-1.249 2.79-2.79v-20.46zM23.447 23.813h-4.284v3.492c0 0.731-0.666 1.325-1.394 1.325-0.731-0.001-1.396-0.594-1.396-1.325v-3.491h-3.299c-0.729 0-1.324-0.433-1.323-1.162-0-0.731 0.593-1.163 1.323-1.163h3.299v-4.555c0-0.73 0.665-1.323 1.395-1.324 0.728 0 1.395 0.594 1.395 1.324v4.555h4.284c0.729 0 1.323 0.432 1.324 1.162-0.001 0.729-0.595 1.162-1.324 1.162zM32.648 14.048h-12.967c-0.636 0-1.388-0.591-1.674-1.161l-0.51-1.037c-0.284-0.569-1.036-1.056-1.673-1.056h-12.471v-1.954c0-0.636 0.819-0.836 1.455-0.836h26.976c0.636 0 0.864 0.199 0.864 0.836v5.209z"></path>
</svg>
