<?xml version="1.0" encoding="utf-8"?>
<!-- Generated by IcoMoon.io -->
<!DOCTYPE svg PUBLIC "-//W3C//DTD SVG 1.1//EN" "http://www.w3.org/Graphics/SVG/1.1/DTD/svg11.dtd">
<svg version="1.1" xmlns="http://www.w3.org/2000/svg" xmlns:xlink="http://www.w3.org/1999/xlink" width="36" height="36" viewBox="0 0 36 36">
<path fill="#444" d="M11.514 15.275c3.708 0 6.724-3.091 6.724-6.891s-3.016-6.892-6.724-6.892c-3.707 0-6.725 3.092-6.725 6.892s3.019 6.891 6.725 6.891z"></path>
<path fill="#444" d="M19.385 16.318l-2.302-0.613c-1.496 1.317-3.438 2.119-5.564 2.124-2.124-0.005-4.066-0.807-5.564-2.124l-2.303 0.613c-2.458 0.684-3.261 1.717-3.061 3.061l1.837 11.871c0.271 1.829 1.369 3.258 3.060 3.258h12.061c1.692 0 2.79-1.428 3.061-3.258l1.835-11.772c0.203-1.344-0.601-2.475-3.061-3.16z"></path>
<path fill="#444" d="M27.532 16.082v-3.895h-4.192c-0.755 0-1.368-0.64-1.368-1.395s0.614-1.395 1.368-1.395h4.192v-4.042c0-0.755 0.408-1.369 1.162-1.369s1.162 0.614 1.162 1.369v4.042h4.211c0.756 0 1.369 0.64 1.369 1.395s-0.614 1.395-1.37 1.395h-4.21v3.895c0 0.755-0.408 1.369-1.162 1.369-0.756 0-1.163-0.614-1.163-1.369z"></path>
</svg>
