<?xml version="1.0" encoding="utf-8"?>
<!-- Generated by IcoMoon.io -->
<!DOCTYPE svg PUBLIC "-//W3C//DTD SVG 1.1//EN" "http://www.w3.org/Graphics/SVG/1.1/DTD/svg11.dtd">
<svg version="1.1" xmlns="http://www.w3.org/2000/svg" xmlns:xlink="http://www.w3.org/1999/xlink" width="36" height="36" viewBox="0 0 36 36">
<path fill="#444" d="M34.269 4.239h-7.397c-0.93 0-1.683 0.753-1.683 1.683v7.398c0 0.928 0.754 1.681 1.683 1.681h7.397c0.928 0 1.681-0.753 1.681-1.681v-7.398c0-0.93-0.754-1.683-1.681-1.683zM33.401 10.15h-2.3v2.303c0 0.292-0.237 0.529-0.531 0.529-0.292 0-0.531-0.236-0.531-0.529v-2.303h-2.303c-0.292 0-0.529-0.239-0.529-0.531s0.237-0.529 0.529-0.529h2.303v-2.303c0-0.292 0.239-0.531 0.531-0.531 0.294 0 0.531 0.239 0.531 0.531v2.303h2.3c0.297 0 0.533 0.236 0.533 0.529s-0.237 0.531-0.533 0.531z"></path>
<path fill="#444" d="M29.719 15.98v10.609c0 0.698-0.566 1.266-1.252 1.266h-25.624c-0.686 0-1.248-0.568-1.248-1.266v-14.698c0-0.696 0.561-1.264 1.248-1.264h21.376v-1.387h-23.087c-0.598 0-1.081 0.501-1.081 1.12v18.197c0 0.617 0.482 1.12 1.081 1.12h12.754v0.763h-6.614c-0.355 0-0.64 0.294-0.64 0.661 0 0.362 0.285 0.659 0.64 0.659h16.942c0.355 0 0.64-0.297 0.64-0.659 0-0.366-0.285-0.661-0.64-0.661h-6.797v-0.763h12.766c0.596 0 1.081-0.503 1.081-1.12v-12.578h-1.544z"></path>
<path fill="#444" d="M26.164 15.98c-1.074 0-1.946-0.856-1.946-1.913v-2.087h-21.318v14.521h25.511v-10.521h-2.247z"></path>
</svg>
