<?xml version="1.0" encoding="utf-8"?>
<!-- Generated by IcoMoon.io -->
<!DOCTYPE svg PUBLIC "-//W3C//DTD SVG 1.1//EN" "http://www.w3.org/Graphics/SVG/1.1/DTD/svg11.dtd">
<svg version="1.1" xmlns="http://www.w3.org/2000/svg" xmlns:xlink="http://www.w3.org/1999/xlink" width="36" height="36" viewBox="0 0 36 36">
<path fill="#444" d="M18.19 8.508l-0.227-0.031c-0.807 0-1.474 0.66-1.474 1.472v10.282l-4.177 5.815c-0.471 0.662-0.312 1.599 0.346 2.063l0.17 0.156c0.658 0.466 1.577 0.294 2.050-0.37l4.465-6.216c0.145-0.207 0.225-0.435 0.254-0.669 0.031-0.123 0.054-0.248 0.054-0.379v-10.65c0-0.812-0.651-1.472-1.459-1.472z"></path>
<path fill="#444" d="M18 4.351c-8.558 0-15.519 6.963-15.519 15.519 0 8.56 6.961 15.519 15.519 15.519 8.556 0 15.519-6.959 15.519-15.519 0-8.556-6.963-15.519-15.519-15.519zM18 32.828c-7.144 0-12.956-5.812-12.956-12.958 0-7.142 5.812-12.954 12.956-12.954s12.956 5.812 12.956 12.954c0 7.146-5.812 12.958-12.956 12.958z"></path>
<path fill="#444" d="M12.451 2.691c-1.396-2.106-4.046-2.685-6.236-1.405l-0.72 0.417c-2.088 1.385-2.681 4.244-1.282 6.341l8.239-5.353z"></path>
<path fill="#444" d="M30.691 1.703l-0.718-0.417c-2.19-1.28-4.838-0.7-6.236 1.405l8.239 5.355c1.394-2.099 0.803-4.958-1.285-6.343z"></path>
</svg>
