<?xml version="1.0" encoding="utf-8"?>
<!-- Generated by IcoMoon.io -->
<!DOCTYPE svg PUBLIC "-//W3C//DTD SVG 1.1//EN" "http://www.w3.org/Graphics/SVG/1.1/DTD/svg11.dtd">
<svg version="1.1" xmlns="http://www.w3.org/2000/svg" xmlns:xlink="http://www.w3.org/1999/xlink" width="36" height="36" viewBox="0 0 36 36">
<path fill="#444" d="M34.845 28.105l-13.775-23.862c-0.63-1.095-1.81-1.773-3.074-1.773s-2.441 0.679-3.074 1.773l-13.885 24.050c-0.633 1.097-0.632 2.439-0.001 3.528 0.632 1.096 1.809 1.756 3.074 1.756h27.778c1.958 0 3.549-1.574 3.549-3.531 0.001-0.701-0.204-1.356-0.592-1.942zM15.908 11.661v0c0-1.008 0.916-1.794 1.923-1.794 1.010 0 1.814 0.926 1.814 1.856h-0.016v11.086c0 1.008-0.852 1.826-1.862 1.826-1.007 0-1.858-0.817-1.858-1.826v-11.147zM17.93 30.135c-1.108 0-2.006-0.899-2.006-2.007s0.898-2.007 2.006-2.007c1.11 0 2.009 0.899 2.009 2.007s-0.9 2.007-2.009 2.007z"></path>
</svg>
