<?xml version="1.0" encoding="utf-8"?>
<!-- Generated by IcoMoon.io -->
<!DOCTYPE svg PUBLIC "-//W3C//DTD SVG 1.1//EN" "http://www.w3.org/Graphics/SVG/1.1/DTD/svg11.dtd">
<svg version="1.1" xmlns="http://www.w3.org/2000/svg" xmlns:xlink="http://www.w3.org/1999/xlink" width="36" height="36" viewBox="0 0 36 36">
<path fill="#444" d="M15.506 12.305h3.919v15.623h4.411v-20.124l-8.33 0.786z"></path>
<path fill="#444" d="M6.522 7.87c-1.866 0-3.442 0.678-4.682 2.012-1.22 1.324-1.839 3.017-1.839 5.031 0 2.096 0.557 3.785 1.658 5.021 1.122 1.249 2.677 1.884 4.612 1.884 0.791 0 1.529-0.172 2.194-0.503 0.18-0.088 0.355-0.189 0.523-0.304-0.037 1.075-0.314 1.911-0.823 2.491-0.539 0.609-1.226 0.905-2.098 0.905-0.635 0-1.198-0.049-1.675-0.147-0.464-0.092-0.959-0.254-1.467-0.481l-0.752-0.331-0.772 3.668 0.489 0.219c0.625 0.28 1.313 0.495 2.051 0.645 0.718 0.144 1.435 0.216 2.126 0.216 2.119 0 3.889-0.682 5.266-2.024 1.37-1.347 2.070-3.2 2.070-5.516v-5.235c0-2.341-0.64-4.202-1.903-5.531-1.272-1.34-2.946-2.020-4.977-2.020zM8.99 16.895c-0.218 0.338-0.505 0.605-0.876 0.827-0.426 0.248-0.932 0.369-1.553 0.369-0.698 0-1.193-0.243-1.553-0.766-0.407-0.587-0.613-1.397-0.613-2.411 0-0.981 0.228-1.79 0.678-2.407 0.416-0.571 0.893-0.837 1.501-0.837 0.757 0 1.33 0.247 1.747 0.762 0.445 0.546 0.669 1.375 0.669 2.455v2.009z"></path>
<path fill="#444" d="M27.675 8.589v3.715h3.915v15.625h4.409v-20.126z"></path>
</svg>
