<?xml version="1.0" encoding="utf-8"?>
<!-- Generated by IcoMoon.io -->
<!DOCTYPE svg PUBLIC "-//W3C//DTD SVG 1.1//EN" "http://www.w3.org/Graphics/SVG/1.1/DTD/svg11.dtd">
<svg version="1.1" xmlns="http://www.w3.org/2000/svg" xmlns:xlink="http://www.w3.org/1999/xlink" width="36" height="36" viewBox="0 0 36 36">
<path fill="#444" d="M18.001 0.626c-9.596 0-17.374 7.779-17.374 17.374s7.777 17.374 17.374 17.374c9.594 0 17.372-7.779 17.372-17.374s-7.777-17.374-17.372-17.374zM19.043 33.249v-4.652c0-0.577-0.467-1.042-1.042-1.042s-1.044 0.465-1.044 1.042v4.652c-7.6-0.517-13.693-6.605-14.205-14.207h3.493c0.575 0 1.042-0.467 1.042-1.042 0-0.577-0.467-1.042-1.042-1.042h-3.493c0.513-7.602 6.605-13.69 14.205-14.207v4.768c0 0.577 0.469 1.040 1.044 1.040s1.042-0.463 1.042-1.040v-4.768c7.6 0.517 13.691 6.605 14.203 14.207h-3.491c-0.577 0-1.044 0.465-1.044 1.042 0 0.575 0.467 1.042 1.044 1.042h3.491c-0.513 7.602-6.603 13.691-14.203 14.207z"></path>
<path fill="#444" d="M22.717 16.041c1.825-2.001 3.051-2.567 3.051-2.567 1.732-0.81 2.726-0.335 2.212 1.052-0.517 1.389-0.794 3.119-0.794 3.319s0.389 1.595 0.866 3.104c0.477 1.505-0.552 2.077-2.284 1.271 0 0-1.226-0.573-3.051-2.567 0 0-3.067 4.225-7.325 4.225-4.696 0-7.209-4.082-7.209-6.514 0-3.214 3.91-6.428 7.469-6.428 4.696 0 7.064 5.105 7.064 5.105zM12.789 15.408c-0.728 0-1.317 0.591-1.317 1.317 0 0.729 0.589 1.318 1.317 1.318s1.319-0.589 1.319-1.318c0-0.725-0.591-1.317-1.319-1.317z"></path>
</svg>
