<?xml version="1.0" encoding="utf-8"?>
<!-- Generated by IcoMoon.io -->
<!DOCTYPE svg PUBLIC "-//W3C//DTD SVG 1.1//EN" "http://www.w3.org/Graphics/SVG/1.1/DTD/svg11.dtd">
<svg version="1.1" xmlns="http://www.w3.org/2000/svg" xmlns:xlink="http://www.w3.org/1999/xlink" width="36" height="36" viewBox="0 0 36 36">
<path fill="#444" d="M18.001 0.627c-9.596 0-17.373 7.777-17.373 17.371 0 9.595 7.777 17.374 17.373 17.374 9.593 0 17.372-7.779 17.372-17.374 0-9.594-7.779-17.371-17.372-17.371zM19.042 33.248v-4.654c0-0.574-0.467-1.042-1.042-1.042-0.577 0-1.044 0.467-1.044 1.042v4.654c-7.6-0.517-13.69-6.605-14.205-14.208h3.493c0.577 0 1.044-0.467 1.044-1.042s-0.467-1.042-1.044-1.042h-3.493c0.515-7.6 6.605-13.69 14.205-14.207v4.768c0 0.577 0.467 1.042 1.044 1.042 0.575 0 1.042-0.465 1.042-1.042v-4.768c7.6 0.517 13.689 6.607 14.206 14.207h-3.493c-0.575 0-1.042 0.467-1.042 1.042s0.467 1.042 1.042 1.042h3.493c-0.517 7.603-6.605 13.691-14.206 14.208z"></path>
<path fill="#444" d="M27.602 16.783c-3.009-3.58-6.237-5.394-9.585-5.394-5.159 0-8.856 4.369-9.71 5.475-0.169 0.167-0.279 0.376-0.316 0.605-0.008 0.047-0.014 0.095-0.014 0.145-0.008 0.138 0.010 0.281 0.056 0.409 0.070 0.198 0.196 0.372 0.364 0.5 3.013 3.581 6.237 5.395 9.586 5.395 5.16 0 8.855-4.369 9.711-5.478 0.169-0.165 0.281-0.376 0.318-0.612 0.008-0.043 0.012-0.091 0.012-0.134 0.008-0.139-0.008-0.277-0.054-0.407-0.070-0.203-0.198-0.376-0.368-0.504zM17.982 21.831c-2.571 0-5.128-1.414-7.606-4.205 1.162-1.356 4.001-4.15 7.641-4.15 2.57 0 5.129 1.414 7.609 4.204-1.166 1.356-4.001 4.151-7.644 4.151z"></path>
<path fill="#444" d="M17.918 14.365c-1.767 0-3.201 1.453-3.201 3.245 0 1.795 1.434 3.246 3.201 3.246 1.768 0 3.203-1.451 3.203-3.246 0-1.792-1.434-3.245-3.203-3.245z"></path>
</svg>
