<?xml version="1.0" encoding="utf-8"?>
<!-- Generated by IcoMoon.io -->
<!DOCTYPE svg PUBLIC "-//W3C//DTD SVG 1.1//EN" "http://www.w3.org/Graphics/SVG/1.1/DTD/svg11.dtd">
<svg version="1.1" xmlns="http://www.w3.org/2000/svg" xmlns:xlink="http://www.w3.org/1999/xlink" width="36" height="36" viewBox="0 0 36 36">
<path fill="#444" d="M18.001 0.627c-9.596 0-17.374 7.777-17.374 17.372s7.777 17.374 17.374 17.374c9.594 0 17.372-7.78 17.372-17.374s-7.777-17.372-17.372-17.372zM19.043 33.248v-4.652c0-0.577-0.467-1.044-1.042-1.044-0.579 0-1.044 0.467-1.044 1.044v4.652c-7.6-0.515-13.693-6.606-14.205-14.207h3.493c0.575 0 1.042-0.467 1.042-1.042s-0.467-1.042-1.042-1.042h-3.493c0.513-7.6 6.606-13.691 14.205-14.207v4.768c0 0.577 0.465 1.042 1.044 1.042 0.575 0 1.042-0.465 1.042-1.042v-4.768c7.6 0.517 13.691 6.608 14.203 14.207h-3.491c-0.577 0-1.044 0.467-1.044 1.042s0.467 1.042 1.044 1.042h3.491c-0.513 7.602-6.603 13.693-14.203 14.207z"></path>
<path fill="#444" d="M26.733 15.587c-0.136-0.068-0.223-0.006-0.415 0.043l-0.43 0.157-7.31 2.625c-0.112 0.041-0.372 0.108-0.541 0.108-0.172 0-0.337-0.029-0.494-0.083l-7.788-2.807c-0.19-0.050-0.279-0.112-0.413-0.043-0.13 0.062-0.207 0.192-0.213 0.335v6.169c0 0.984 0.798 1.782 1.784 1.782h14.253c0.984 0 1.78-0.798 1.78-1.782v-6.169c-0.004-0.143-0.083-0.273-0.211-0.335z"></path>
<path fill="#444" d="M26.055 12.29h-16.036c-0.492 0-0.891 0.401-0.891 0.893v0.738c0 0.651 0.060 0.606 1.015 0.951 0.033 0.012 0.971 0.345 0.971 0.345l6.329 2.296c0.192 0.056 0.401 0.134 0.593 0.139 0.192-0.004 0.403-0.083 0.593-0.139l6.333-2.296c0 0 0.936-0.333 0.971-0.345 0.953-0.345 1.013-0.3 1.013-0.951v-0.738c0-0.492-0.401-0.893-0.891-0.893z"></path>
</svg>
