<?xml version="1.0" encoding="utf-8"?>
<!-- Generated by IcoMoon.io -->
<!DOCTYPE svg PUBLIC "-//W3C//DTD SVG 1.1//EN" "http://www.w3.org/Graphics/SVG/1.1/DTD/svg11.dtd">
<svg version="1.1" xmlns="http://www.w3.org/2000/svg" xmlns:xlink="http://www.w3.org/1999/xlink" width="36" height="36" viewBox="0 0 36 36">
<path fill="#444" d="M31.288 0.563h-19.55c-2.16 0-3.882 1.556-3.882 3.716v1.619h16.284c3.334 0 6.135 2.581 6.135 5.915v16.152h1.012c2.158 0 3.971-1.974 3.971-4.134v-19.552c0-2.16-1.812-3.716-3.971-3.716z"></path>
<path fill="#444" d="M24.143 8.035h-19.553c-2.158 0-3.849 1.617-3.849 3.778v19.552c0 2.156 1.69 4.073 3.849 4.073h19.553c2.156 0 3.998-1.916 3.998-4.073v-19.552c0-2.16-1.842-3.778-3.998-3.778zM21.083 23.336h-5.040v4.968c0 0.947-0.834 1.717-1.781 1.717-0.945 0-1.779-0.77-1.779-1.717v-4.968h-4.836c-0.945 0-1.715-0.656-1.715-1.602 0-0.944 0.769-1.6 1.715-1.6h4.837v-5.263c0-0.947 0.834-1.715 1.779-1.715 0.947 0 1.781 0.768 1.781 1.715v5.263h5.040c0.947 0 1.715 0.656 1.715 1.6 0 0.947-0.768 1.602-1.715 1.602z"></path>
</svg>
