<?xml version="1.0" encoding="utf-8"?>
<!-- Generated by IcoMoon.io -->
<!DOCTYPE svg PUBLIC "-//W3C//DTD SVG 1.1//EN" "http://www.w3.org/Graphics/SVG/1.1/DTD/svg11.dtd">
<svg version="1.1" xmlns="http://www.w3.org/2000/svg" xmlns:xlink="http://www.w3.org/1999/xlink" width="36" height="36" viewBox="0 0 36 36">
<path fill="#444" d="M31.499 16.847c0.639 0 1.153 0.517 1.153 1.153s-0.515 1.153-1.153 1.153c-0.643 0-1.157-0.517-1.157-1.153s0.515-1.153 1.157-1.153z"></path>
<path fill="#444" d="M0.627 8.146v19.709c0 1.31 1.062 2.373 2.373 2.373h29.998c1.31 0 2.375-1.062 2.375-2.373v-19.709c0-1.31-1.062-2.373-2.373-2.373h-29.998c-1.31 0-2.375 1.062-2.375 2.373zM32.998 7.67c0.262 0 0.473 0.215 0.473 0.475v19.709c0 0.26-0.211 0.475-0.473 0.475h-29.996c-0.262 0-0.475-0.215-0.475-0.475v-19.709c0-0.261 0.213-0.475 0.475-0.475h29.996z"></path>
<path fill="#444" d="M4.48 23.837v2.119c0 0.027 0.004 0.051 0.008 0.078 0 0.004 0 0.010 0 0.017 0.010 0.047 0.031 0.093 0.054 0.134 0.081 0.144 0.236 0.244 0.411 0.244h12.821v-2.592h-13.294z"></path>
<path fill="#444" d="M28.78 14.433v-4.39c0-0.025-0.004-0.050-0.008-0.075 0-0.008 0-0.012 0-0.021-0.010-0.044-0.027-0.083-0.047-0.124-0.078-0.149-0.236-0.254-0.415-0.254h-9.561v4.863h10.032z"></path>
<path fill="#444" d="M18.747 26.431h9.561c0.26 0 0.471-0.213 0.471-0.473v-4.714h-10.032v5.188z"></path>
<path fill="#444" d="M18.747 15.404h10.034v4.865h-10.034v-4.865z"></path>
<path fill="#444" d="M17.774 9.572h-12.82c-0.26 0-0.473 0.211-0.473 0.471v12.82h13.294v-13.292zM13.648 15.16v0l-3.208 3.21-0.688-0.688-1.147-1.145c-0.19-0.192-0.19-0.5 0-0.69 0.188-0.19 0.498-0.19 0.688 0v0.004l1.147 1.145 2.519-2.524c0.192-0.19 0.5-0.19 0.688 0 0.19 0.19 0.19 0.498 0 0.688z"></path>
</svg>
