<?xml version="1.0" encoding="utf-8"?>
<!-- Generated by IcoMoon.io -->
<!DOCTYPE svg PUBLIC "-//W3C//DTD SVG 1.1//EN" "http://www.w3.org/Graphics/SVG/1.1/DTD/svg11.dtd">
<svg version="1.1" xmlns="http://www.w3.org/2000/svg" xmlns:xlink="http://www.w3.org/1999/xlink" width="36" height="36" viewBox="0 0 36 36">
<path fill="#444" d="M34.331 16.355c-0.575 0-1.042-0.465-1.042-1.042 0-6.325-5.145-11.467-11.467-11.467-0.575 0-1.042-0.465-1.042-1.042 0-0.575 0.467-1.042 1.042-1.042 7.474 0 13.551 6.077 13.551 13.551 0 0.577-0.465 1.042-1.042 1.042z"></path>
<path fill="#444" d="M30.162 16.355c-0.577 0-1.042-0.465-1.042-1.042 0-4.022-3.274-7.296-7.298-7.296-0.575 0-1.040-0.467-1.040-1.042 0-0.579 0.465-1.044 1.040-1.044 5.174 0 9.382 4.21 9.382 9.382-0 0.577-0.465 1.042-1.042 1.042z"></path>
<path fill="#444" d="M25.993 16.355c-0.577 0-1.042-0.465-1.042-1.042 0-1.724-1.404-3.127-3.129-3.127-0.575 0-1.042-0.465-1.042-1.042s0.467-1.044 1.042-1.044c2.875 0 5.211 2.34 5.211 5.213 0 0.577-0.465 1.042-1.040 1.042z"></path>
<path fill="#444" d="M11.624 22.2v12.021l9.175-5.019c0.42-0.229 0.761-0.808 0.761-1.285v-11.362l-9.936 5.645z"></path>
<path fill="#444" d="M0.627 27.934c0 0.478 0.343 1.054 0.761 1.285l9.177 5.019v-12.021l-9.938-5.659v11.376z"></path>
<path fill="#444" d="M4.834 13.031l-3.396 1.928c-0.415 0.238-0.415 0.622 0 0.858l9.644 5.492 4.758-2.702-10.424-5.907-0.583 0.331z"></path>
<path fill="#444" d="M20.757 14.954l-8.888-5.062c-0.413-0.238-1.093-0.238-1.509 0l-3.888 2.207 10.424 5.907 3.861-2.193c0.416-0.236 0.416-0.62 0-0.86z"></path>
</svg>
