<?xml version="1.0" encoding="utf-8"?>
<!-- Generated by IcoMoon.io -->
<!DOCTYPE svg PUBLIC "-//W3C//DTD SVG 1.1//EN" "http://www.w3.org/Graphics/SVG/1.1/DTD/svg11.dtd">
<svg version="1.1" xmlns="http://www.w3.org/2000/svg" xmlns:xlink="http://www.w3.org/1999/xlink" width="36" height="36" viewBox="0 0 36 36">
<path fill="#444" d="M2.093 21.514h13.651c-0.535-0.347-1.040-0.748-1.507-1.203-1.618-1.579-2.6-3.621-2.823-5.824h-9.322c-0.808-0-1.465 0.659-1.465 1.465v4.098c0 0.806 0.657 1.463 1.465 1.463zM4.141 16.537c0.808 0 1.463 0.655 1.463 1.463 0 0.81-0.655 1.463-1.463 1.463s-1.465-0.653-1.465-1.463c0-0.808 0.657-1.463 1.465-1.463z"></path>
<path fill="#444" d="M2.093 12.729h9.309c0.186-2.269 1.178-4.373 2.838-5.998 0.391-0.38 0.81-0.723 1.25-1.029h-13.397c-0.808 0-1.465 0.66-1.465 1.463v4.101c0 0.804 0.657 1.463 1.465 1.463zM4.141 7.753c0.808 0 1.463 0.657 1.463 1.463 0 0.81-0.655 1.463-1.463 1.463s-1.465-0.653-1.465-1.463c0-0.806 0.657-1.463 1.465-1.463z"></path>
<path fill="#444" d="M34.697 23.502l-6.676-5.628c-0.047-0.048-0.107-0.064-0.157-0.101 2.013-3.030 1.662-7.131-1.058-9.784-1.563-1.521-3.617-2.286-5.669-2.286s-4.107 0.765-5.669 2.286c-3.125 3.055-3.125 8.015 0 11.064 1.563 1.523 3.615 2.286 5.667 2.286 1.517 0 3.036-0.415 4.357-1.251 0.041 0.046 0.058 0.107 0.103 0.149l5.775 6.515c0.451 0.442 1.044 0.659 1.637 0.659 0.591 0 1.186-0.221 1.639-0.659l0.050-0.052c0.903-0.882 0.903-2.313 0.002-3.197zM25.247 17.531c-1.133 1.106-2.621 1.656-4.111 1.656-1.488 0-2.978-0.55-4.109-1.658-2.265-2.208-2.265-5.808 0-8.017 1.131-1.106 2.619-1.658 4.109-1.658 1.488 0 2.978 0.552 4.111 1.658 2.263 2.209 2.263 5.81 0 8.019z"></path>
<path fill="#444" d="M21.269 23.271h-19.176c-0.808 0-1.465 0.657-1.465 1.463v4.101c0 0.804 0.657 1.463 1.465 1.463h19.176c0.806 0 1.465-0.659 1.465-1.463v-4.101c0-0.806-0.659-1.463-1.465-1.463zM4.141 28.247c-0.808 0-1.465-0.653-1.465-1.463 0-0.808 0.657-1.463 1.465-1.463s1.463 0.655 1.463 1.463c0 0.81-0.655 1.463-1.463 1.463z"></path>
</svg>
