<?xml version="1.0" encoding="utf-8"?>
<!-- Generated by IcoMoon.io -->
<!DOCTYPE svg PUBLIC "-//W3C//DTD SVG 1.1//EN" "http://www.w3.org/Graphics/SVG/1.1/DTD/svg11.dtd">
<svg version="1.1" xmlns="http://www.w3.org/2000/svg" xmlns:xlink="http://www.w3.org/1999/xlink" width="36" height="36" viewBox="0 0 36 36">
<path fill="#444" d="M9.121 35.438c-1.047 0-2.095-0.403-2.892-1.209l-2.6-2.625c-1.586-1.599-1.611-4.229-0.058-5.861l13.559-14.242c0.764-0.803 1.788-1.251 2.884-1.263 1.059-0 2.089 0.406 2.851 1.173 0.765 0.773 1.182 1.806 1.172 2.91-0.009 1.096-0.436 2.125-1.203 2.9l-9.25 9.338c-0.532 0.537-1.396 0.537-1.929 0-0.532-0.539-0.532-1.411 0-1.948l9.25-9.336c0.258-0.261 0.402-0.608 0.404-0.977 0.004-0.359-0.128-0.693-0.374-0.939-0.238-0.24-0.553-0.356-0.894-0.366-0.357 0.003-0.691 0.152-0.944 0.418l-13.558 14.242c-0.522 0.55-0.513 1.467 0.020 2.006l2.6 2.625c0.532 0.536 1.397 0.536 1.929 0l20.365-20.561c0.257-0.258 0.398-0.603 0.398-0.973s-0.142-0.716-0.397-0.974l-6.018-6.075c-0.25-0.252-0.581-0.379-0.928-0.385-0.349 0.005-0.673 0.152-0.917 0.411l-15.055 16.094c-0.517 0.552-1.38 0.577-1.928 0.056-0.547-0.523-0.572-1.395-0.055-1.947l15.054-16.093c0.753-0.805 1.77-1.258 2.862-1.273 1.094-0.022 2.121 0.406 2.895 1.19l6.019 6.076c0.77 0.777 1.196 1.814 1.196 2.921 0 1.105-0.425 2.142-1.196 2.92l-20.367 20.559c-0.797 0.806-1.846 1.209-2.894 1.209z"></path>
</svg>
