<?xml version="1.0" encoding="utf-8"?>
<!-- Generated by IcoMoon.io -->
<!DOCTYPE svg PUBLIC "-//W3C//DTD SVG 1.1//EN" "http://www.w3.org/Graphics/SVG/1.1/DTD/svg11.dtd">
<svg version="1.1" xmlns="http://www.w3.org/2000/svg" xmlns:xlink="http://www.w3.org/1999/xlink" width="36" height="36" viewBox="0 0 36 36">
<path fill="#444" d="M33.636 25.782h-1.058c-0.083-3.061-1.893-5.69-4.498-6.941v-7.304c0.794-0.86 1.286-2.009 1.286-3.272 0-2.668-2.158-4.826-4.824-4.826-0.24 0-0.475 0.023-0.707 0.058v-0.008l-19.547 2.532c-0.031 0.004-0.060 0.008-0.091 0.012l-0.085 0.010 0.002 0.002c-1.007 0.178-1.771 1.054-1.771 2.11 0 0.701 0.335 1.323 0.856 1.713v3.437c-0.521 0.391-0.856 1.011-0.856 1.713l-1.715 1.718v1.713l1.715 2.573h0.856v-1.294c-0.517-0.393-0.856-1.009-0.856-1.709 0-1.182 0.959-2.143 2.143-2.143s2.143 0.961 2.143 2.143c0 0.701-0.339 1.317-0.856 1.709v1.294h0.856l1.707-2.573v-1.713l-1.707-1.718c0-0.703-0.335-1.323-0.856-1.713v-3.437c0.161-0.122 0.304-0.265 0.426-0.426h13.667c0.223 0.897 0.699 1.695 1.348 2.313v7.085c-2.601 1.25-4.416 3.88-4.496 6.941h-14.354c-0.957 0-1.736 0.781-1.736 1.738v3.303c0 0.957 0.779 1.738 1.736 1.738h31.273c0.955 0 1.736-0.781 1.736-1.738v-3.303c-0-0.957-0.781-1.738-1.736-1.738zM24.65 6.012c1.182 0 2.141 0.959 2.141 2.143 0 1.186-0.959 2.145-2.141 2.145-1.186 0-2.145-0.959-2.145-2.145 0-1.184 0.959-2.143 2.145-2.143zM20.359 25.782c0-2.371 1.918-4.289 4.291-4.289 2.369 0 4.287 1.918 4.287 4.289h-8.578z"></path>
</svg>
