<?xml version="1.0" encoding="utf-8"?>
<!-- Generated by IcoMoon.io -->
<!DOCTYPE svg PUBLIC "-//W3C//DTD SVG 1.1//EN" "http://www.w3.org/Graphics/SVG/1.1/DTD/svg11.dtd">
<svg version="1.1" xmlns="http://www.w3.org/2000/svg" xmlns:xlink="http://www.w3.org/1999/xlink" width="36" height="36" viewBox="0 0 36 36">
<path fill="#444" d="M16.709 6.476l1.359 6.131c0.031 0.129-1.474 1.393-1.718 1.547-0.47 0.3 2.171 7.655 2.728 7.585 0.286-0.037 2.244-0.016 2.307 0.1l2.853 5.596c0.559 1.041-4.588 3.825-6.886-0.144-2.945-5.085-4.866-10.537-5.866-16.322-0.779-4.534 4.995-5.643 5.223-4.493z"></path>
<path fill="#444" d="M35.373 12.48l-5.452-3.653-0.436 6.547 1.629-0.801c0.28 1.115 0.42 2.263 0.42 3.427 0 7.749-6.302 14.049-14.051 14.049-7.746 0-14.050-6.301-14.050-14.049 0-7.746 6.304-14.051 14.050-14.051 2.732 0 5.384 0.785 7.661 2.27 0.647 0.424 1.518 0.242 1.939-0.408 0.424-0.647 0.24-1.518-0.407-1.938-2.737-1.785-5.914-2.728-9.193-2.728-9.295 0-16.856 7.561-16.856 16.855s7.561 16.854 16.856 16.854c9.293 0 16.854-7.56 16.854-16.854 0-1.596-0.222-3.169-0.66-4.687l1.696-0.833z"></path>
</svg>
