<?xml version="1.0" encoding="utf-8"?>
<!-- Generated by IcoMoon.io -->
<!DOCTYPE svg PUBLIC "-//W3C//DTD SVG 1.1//EN" "http://www.w3.org/Graphics/SVG/1.1/DTD/svg11.dtd">
<svg version="1.1" xmlns="http://www.w3.org/2000/svg" xmlns:xlink="http://www.w3.org/1999/xlink" width="36" height="36" viewBox="0 0 36 36">
<path fill="#444" d="M17.998 0.627c-9.596 0-17.37 7.779-17.37 17.373s7.775 17.373 17.37 17.373c9.596 0 17.375-7.779 17.375-17.373s-7.779-17.373-17.375-17.373zM18.576 23.905c-0.157 0.087-0.327 0.126-0.497 0.126-0.369 0-0.725-0.197-0.916-0.545l-4.519-8.318-4.66 8.328c-0.282 0.504-0.916 0.682-1.417 0.404-0.504-0.284-0.682-0.92-0.402-1.421l5.584-9.979c0.185-0.327 0.533-0.53 0.91-0.53h0.008c0.379 0 0.725 0.209 0.908 0.543l5.421 9.979c0.276 0.503 0.089 1.14-0.419 1.413zM29.832 13.52l-5.586 9.977c-0.182 0.329-0.53 0.535-0.91 0.535h-0.006c-0.379-0.002-0.727-0.213-0.91-0.545l-5.419-9.977c-0.278-0.506-0.091-1.14 0.416-1.413 0.506-0.273 1.14-0.087 1.413 0.416l4.519 8.318 4.662-8.33c0.28-0.499 0.916-0.677 1.417-0.398 0.503 0.28 0.684 0.914 0.402 1.418z"></path>
</svg>
