<?xml version="1.0" encoding="utf-8"?>
<!-- Generated by IcoMoon.io -->
<!DOCTYPE svg PUBLIC "-//W3C//DTD SVG 1.1//EN" "http://www.w3.org/Graphics/SVG/1.1/DTD/svg11.dtd">
<svg version="1.1" xmlns="http://www.w3.org/2000/svg" xmlns:xlink="http://www.w3.org/1999/xlink" width="36" height="36" viewBox="0 0 36 36">
<path fill="#444" d="M29.854 12.142c-0.041-0.83-0.078-1.689-0.074-2.62 0.033-3.916-5.33-7.511-10.144-8.114l-0.283-0.037v-0.744h-2.467v0.769l-0.279 0.037c-5.48 0.713-10.363 4.498-10.449 8.098-0.047 1.857 0.027 3.901 0.207 6.078l0.029 0.346 0.156 1.624 0.041 0.229c0.029 0.256 0.078 0.486 0.135 0.683 0.25-1.316 0.994-3.040 3.054-4.241 2.501-1.458 5.371-2.228 8.299-2.228s5.792 0.771 8.293 2.228c1.911 1.115 2.694 2.677 2.993 3.95l0.455-2.216 0.029-0.379c0.111-1.123 0.057-2.259 0.004-3.463z"></path>
<path fill="#444" d="M30.539 15.474l-0.016 0.209-0.307 1.958c0.123 0.004 0.225 0.008 0.291 0.012 0.029 0.164 0.053 0.48 0.053 1.076 0 2.846-0.459 3.609-0.582 3.765-0.197-0.021-0.394-0.119-0.586-0.287l-0.771-0.701c-0.139 0.139-0.291 0.258-0.459 0.357-0.152 0.098-0.307 0.18-0.463 0.258l-0.115 0.722c-0.8 4.978-4.727 10.345-9.671 10.345-3.879 0-8.487-3.866-9.496-10.332l-0.098-0.636c-0.23-0.107-0.455-0.234-0.676-0.377-0.123-0.070-0.238-0.16-0.344-0.254l-0.691 0.619c-0.199 0.18-0.404 0.275-0.603 0.287-0.109-0.123-0.56-0.804-0.56-3.546 0-0.783 0.041-1.132 0.084-1.281 0.064-0.014 0.182-0.027 0.377-0.031l-0.266-2.165c-2.185 0.135-2.382 1.652-2.382 3.477 0 1.418 0 5.735 2.704 5.735 0.199 0 0.394-0.021 0.59-0.061 1.382 5.506 5.738 10.75 11.361 10.75 4.538 0 9.864-3.989 11.537-10.75 0.193 0.041 0.394 0.061 0.595 0.061 2.702 0 2.702-4.481 2.702-5.954 0-2.048-0.348-3.106-2.206-3.255z"></path>
<path fill="#444" d="M7.241 19.883c0.004 0.644 0.223 1.136 0.601 1.353 1.501 0.976 2.975 0.882 4.424-0.168 0.209-0.148 0.422-0.287 0.642-0.418 0.65-0.39 1.339-0.701 2.052-0.931 0.004 0 0.008-0.004 0.012-0.004 0.976-0.316 2.005-0.476 3.059-0.476 1.569 0 3.082 0.361 4.456 1.046 0.016 0.008 0.037 0.016 0.053 0.029 0.205 0.103 0.41 0.213 0.611 0.332 0.217 0.131 0.43 0.271 0.64 0.418 1.46 1.058 2.968 1.119 4.391 0.193 0.414-0.238 0.636-0.73 0.64-1.373 0.008-1.299-0.873-3.132-2.854-4.286-2.39-1.394-5.137-2.13-7.937-2.13-2.8 0-5.547 0.736-7.942 2.13-1.896 1.109-2.774 2.831-2.833 4.118-0.004 0.057-0.014 0.115-0.014 0.168z"></path>
<path fill="#444" d="M9.932 22.076v0c-0.726 0-1.458-0.238-2.177-0.705-0.42-0.238-0.67-0.783-0.676-1.488 0-0.037 0.004-0.074 0.008-0.115l0.006-0.062c0.055-1.208 0.855-3.047 2.917-4.249 2.417-1.408 5.191-2.155 8.020-2.155 2.828 0 5.604 0.746 8.019 2.155 2.038 1.187 2.94 3.077 2.932 4.425-0.004 0.713-0.258 1.25-0.718 1.513-1.46 0.951-3.063 0.89-4.567-0.205-0.197-0.135-0.406-0.275-0.632-0.406-0.193-0.119-0.394-0.225-0.594-0.328l0.016-0.176-0.074 0.148c-1.361-0.681-2.837-1.025-4.382-1.025-1.029 0-2.042 0.156-3.010 0.463-0.718 0.234-1.398 0.541-2.034 0.923-0.209 0.123-0.422 0.262-0.629 0.41-0.802 0.582-1.618 0.877-2.425 0.877zM18.030 13.627c-2.772 0-5.49 0.73-7.858 2.112-1.95 1.136-2.704 2.856-2.757 3.984 0 0.029-0.004 0.053-0.008 0.082 0 0.025-0.004 0.049-0.004 0.074 0.004 0.586 0.195 1.029 0.521 1.214 0.672 0.439 1.347 0.66 2.009 0.66 0.738 0 1.492-0.275 2.237-0.816 0.215-0.152 0.437-0.295 0.654-0.426 0.654-0.394 1.357-0.709 2.087-0.943 1.011-0.328 2.056-0.488 3.12-0.488 1.594 0 3.119 0.357 4.53 1.058l0.037 0.021c0.225 0.115 0.435 0.23 0.636 0.348 0.23 0.135 0.447 0.279 0.652 0.422 1.398 1.017 2.846 1.082 4.211 0.193 0.361-0.209 0.558-0.648 0.562-1.242 0.008-1.25-0.845-3.021-2.768-4.14-2.37-1.382-5.084-2.112-7.859-2.112z"></path>
</svg>
