<?xml version="1.0" encoding="utf-8"?>
<!-- Generated by IcoMoon.io -->
<!DOCTYPE svg PUBLIC "-//W3C//DTD SVG 1.1//EN" "http://www.w3.org/Graphics/SVG/1.1/DTD/svg11.dtd">
<svg version="1.1" xmlns="http://www.w3.org/2000/svg" xmlns:xlink="http://www.w3.org/1999/xlink" width="36" height="36" viewBox="0 0 36 36">
<path fill="#444" d="M18.001 0.626c-9.596 0-17.374 7.779-17.374 17.374s7.777 17.374 17.374 17.374c9.595 0 17.372-7.779 17.372-17.374s-7.777-17.374-17.372-17.374zM13.716 12.757c0.282 0.261 0.298 0.7 0.037 0.982l-1.964 2.124-2.578-1.287c-0.344-0.174-0.481-0.589-0.311-0.932s0.589-0.485 0.932-0.313l1.645 0.823 1.258-1.359c0.261-0.282 0.7-0.299 0.98-0.037zM12.211 8.46c0.338 0.18 0.464 0.603 0.282 0.941l-1.366 2.549-2.818-0.597c-0.375-0.079-0.615-0.448-0.537-0.825 0.079-0.373 0.45-0.613 0.823-0.535l1.801 0.381 0.875-1.633c0.182-0.336 0.601-0.464 0.941-0.282zM7.142 6.785l1.832 0.166 0.678-1.724c0.139-0.356 0.543-0.535 0.899-0.394 0.359 0.141 0.537 0.543 0.396 0.904l-1.057 2.692-2.872-0.259c-0.381-0.033-0.663-0.373-0.628-0.754 0.035-0.383 0.375-0.667 0.752-0.63zM10.168 29.982l-2.893 0.079-0.881-2.744c-0.116-0.367 0.085-0.759 0.45-0.875 0.365-0.118 0.758 0.083 0.875 0.448l0.56 1.753 1.853-0.050c0.385-0.021 0.705 0.292 0.713 0.676s-0.292 0.704-0.676 0.713zM12.423 26.335l-2.785 0.785-1.529-2.443c-0.203-0.323-0.104-0.752 0.22-0.955 0.325-0.205 0.754-0.106 0.957 0.22l0.976 1.558 1.782-0.504c0.371-0.103 0.752 0.112 0.858 0.481 0.104 0.369-0.11 0.752-0.479 0.858zM13.475 22.329l-2.584 1.306-1.967-2.103c-0.263-0.28-0.249-0.721 0.033-0.982 0.282-0.263 0.721-0.249 0.982 0.031l1.256 1.345 1.652-0.837c0.342-0.172 0.76-0.037 0.934 0.307 0.17 0.344 0.035 0.761-0.307 0.935zM13.861 17.967l-2.333 1.712-2.288-1.753c-0.303-0.232-0.361-0.671-0.126-0.974 0.234-0.307 0.669-0.363 0.974-0.128l1.461 1.119 1.492-1.096c0.309-0.226 0.744-0.162 0.97 0.147 0.228 0.311 0.16 0.746-0.149 0.974zM25.241 4.833c0.361-0.141 0.76 0.038 0.899 0.394l0.678 1.724 1.832-0.166c0.392-0.035 0.719 0.247 0.756 0.63 0.033 0.381-0.249 0.721-0.63 0.754l-2.87 0.259-1.057-2.692c-0.139-0.36 0.035-0.763 0.392-0.904zM23.584 8.46c0.34-0.182 0.758-0.054 0.941 0.282l0.877 1.633 1.797-0.381c0.375-0.083 0.746 0.162 0.825 0.535 0.081 0.377-0.16 0.746-0.535 0.825l-2.818 0.597-1.368-2.549c-0.182-0.338-0.056-0.76 0.282-0.941zM22.079 12.757c0.28-0.261 0.719-0.245 0.982 0.037l1.256 1.359 1.645-0.823c0.344-0.172 0.76-0.031 0.933 0.313 0.17 0.344 0.033 0.758-0.311 0.932l-2.578 1.287-1.967-2.124c-0.261-0.282-0.243-0.721 0.039-0.982zM21.785 16.993c0.226-0.309 0.663-0.377 0.97-0.147l1.494 1.096 1.457-1.119c0.307-0.234 0.742-0.178 0.974 0.128 0.236 0.303 0.178 0.742-0.126 0.974l-2.286 1.753-2.333-1.712c-0.311-0.228-0.375-0.663-0.149-0.974zM22.013 21.394c0.174-0.344 0.593-0.479 0.937-0.307l1.649 0.837 1.256-1.345c0.265-0.28 0.705-0.292 0.982-0.031 0.282 0.261 0.296 0.702 0.033 0.982l-1.969 2.103-2.582-1.306c-0.34-0.174-0.479-0.591-0.307-0.935zM22.894 25.477c0.104-0.369 0.487-0.584 0.856-0.481l1.782 0.504 0.978-1.558c0.203-0.325 0.632-0.425 0.957-0.22 0.323 0.203 0.423 0.632 0.22 0.955l-1.529 2.443-2.785-0.785c-0.369-0.106-0.584-0.489-0.479-0.858zM29.398 27.317l-0.879 2.744-2.893-0.079c-0.381-0.008-0.686-0.329-0.676-0.713s0.325-0.701 0.713-0.676l1.851 0.050 0.562-1.753c0.116-0.365 0.508-0.566 0.875-0.448 0.365 0.116 0.566 0.508 0.448 0.875z"></path>
</svg>
