<?xml version="1.0" encoding="utf-8"?>
<!-- Generated by IcoMoon.io -->
<!DOCTYPE svg PUBLIC "-//W3C//DTD SVG 1.1//EN" "http://www.w3.org/Graphics/SVG/1.1/DTD/svg11.dtd">
<svg version="1.1" xmlns="http://www.w3.org/2000/svg" xmlns:xlink="http://www.w3.org/1999/xlink" width="36" height="36" viewBox="0 0 36 36">
<path fill="#444" d="M4.609 34.266l0.262 0.266-0.839 0.841-3.344-3.342 0.841-0.843 0.221 0.223 7.448-7.45 2.857 2.859-7.446 7.446zM13.085 19.48c-1.804 2.123-3.402 3.993-3.402 3.993l2.859 2.857 4.349-3.654c-1.65-1.401-3.088-2.612-3.806-3.197zM19.006 12.55c2.903-2.907 11.156-11.148 11.716-11.712 0.708-0.705 2.298 0.945 2.298 0.945l1.215 1.217c0 0 1.736 1.498 0.941 2.293-0.691 0.693-9.781 9.781-12.099 12.099l-4.070-4.842z"></path>
<path fill="#444" d="M26.772 23.956l-2.857 2.859 7.448 7.448-0.221 0.219 0.841 0.843 3.342-3.344-0.839-0.841-0.266 0.264z"></path>
<path fill="#444" d="M2.952 1.778l-1.215 1.215c0 0-1.652 1.59-0.945 2.295 0.703 0.703 13.548 13.564 12.682 12.682s9.952 8.358 9.952 8.358l2.859-2.859-8.399-9.995c0 0-11.845-11.843-12.638-12.638s-2.295 0.943-2.295 0.943z"></path>
</svg>
