<?xml version="1.0" encoding="utf-8"?>
<!-- Generated by IcoMoon.io -->
<!DOCTYPE svg PUBLIC "-//W3C//DTD SVG 1.1//EN" "http://www.w3.org/Graphics/SVG/1.1/DTD/svg11.dtd">
<svg version="1.1" xmlns="http://www.w3.org/2000/svg" xmlns:xlink="http://www.w3.org/1999/xlink" width="36" height="36" viewBox="0 0 36 36">
<path fill="#444" d="M31.664 7.845h-24.654c-2.043 0-3.699 1.642-3.699 3.672v2.338h-1.769c-0.523 0-0.947 0.44-0.947 0.965v6.359c0 0.531 0.424 0.963 0.947 0.963h1.769v2.3c0 2.026 1.657 3.712 3.704 3.712h24.646c2.051 0 3.745-1.686 3.745-3.712v-12.925c0-2.030-1.694-3.672-3.741-3.672zM32.877 24.443c0 0.631-0.567 1.183-1.217 1.183h-24.646c-0.639 0-1.179-0.544-1.179-1.183v-12.925c0-0.631 0.527-1.146 1.175-1.146h24.654c0.656 0 1.212 0.523 1.212 1.146v12.925z"></path>
<path fill="#444" d="M29.127 12.9h-3.841v10.197h3.836c0.648 0 1.217-0.552 1.217-1.183v-7.87c0-0.623-0.556-1.144-1.212-1.144z"></path>
</svg>
