<?xml version="1.0" encoding="utf-8"?>
<!-- Generated by IcoMoon.io -->
<!DOCTYPE svg PUBLIC "-//W3C//DTD SVG 1.1//EN" "http://www.w3.org/Graphics/SVG/1.1/DTD/svg11.dtd">
<svg version="1.1" xmlns="http://www.w3.org/2000/svg" xmlns:xlink="http://www.w3.org/1999/xlink" width="36" height="36" viewBox="0 0 36 36">
<path fill="#444" d="M31.664 7.846h-24.652c-2.043 0-3.702 1.642-3.702 3.672v2.338h-1.769c-0.519 0-0.947 0.44-0.947 0.963v6.361c0 0.531 0.428 0.961 0.947 0.961h1.769v2.3c0 2.028 1.659 3.712 3.702 3.712h24.648c2.049 0 3.745-1.684 3.745-3.712v-12.923c-0-2.030-1.696-3.672-3.741-3.672zM32.879 24.442c0 0.633-0.569 1.185-1.219 1.185h-24.648c-0.635 0-1.175-0.544-1.175-1.185v-12.923c0-0.631 0.527-1.146 1.175-1.146h24.652c0.658 0 1.214 0.523 1.214 1.146v12.923z"></path>
<path fill="#444" d="M29.129 12.899h-1.304v10.199h1.3c0.648 0 1.217-0.552 1.217-1.183v-7.87c0-0.621-0.556-1.146-1.212-1.146z"></path>
</svg>
