<?xml version="1.0" encoding="utf-8"?>
<!-- Generated by IcoMoon.io -->
<!DOCTYPE svg PUBLIC "-//W3C//DTD SVG 1.1//EN" "http://www.w3.org/Graphics/SVG/1.1/DTD/svg11.dtd">
<svg version="1.1" xmlns="http://www.w3.org/2000/svg" xmlns:xlink="http://www.w3.org/1999/xlink" width="36" height="36" viewBox="0 0 36 36">
<path fill="#444" d="M31.664 7.846h-24.652c-2.043 0-3.704 1.642-3.704 3.672v2.338h-1.767c-0.521-0-0.947 0.44-0.947 0.963v6.361c0 0.531 0.426 0.963 0.947 0.963h1.767v2.298c0 2.028 1.661 3.712 3.706 3.712h24.646c2.051 0 3.745-1.684 3.745-3.712v-12.923c-0-2.030-1.694-3.672-3.741-3.672zM32.879 24.442c0 0.633-0.571 1.185-1.219 1.185h-24.646c-0.639 0-1.179-0.544-1.179-1.185v-12.923c0-0.631 0.527-1.146 1.177-1.146h24.652c0.656 0 1.214 0.523 1.214 1.146v12.923z"></path>
<path fill="#444" d="M9.543 23.099c-0.639 0-1.179-0.542-1.179-1.183v-7.87c0-0.631 0.527-1.146 1.177-1.146h19.587c0.66 0 1.212 0.525 1.212 1.146v7.87c0 0.631-0.567 1.183-1.214 1.183h-19.583z"></path>
</svg>
