<?xml version="1.0" encoding="utf-8"?>
<!-- Generated by IcoMoon.io -->
<!DOCTYPE svg PUBLIC "-//W3C//DTD SVG 1.1//EN" "http://www.w3.org/Graphics/SVG/1.1/DTD/svg11.dtd">
<svg version="1.1" xmlns="http://www.w3.org/2000/svg" xmlns:xlink="http://www.w3.org/1999/xlink" width="36" height="36" viewBox="0 0 36 36">
<path fill="#444" d="M31.662 7.845h-24.652c-2.043 0-3.704 1.642-3.704 3.672v2.338h-1.767c-0.519 0-0.945 0.44-0.945 0.965v6.359c0 0.531 0.426 0.963 0.945 0.963h1.767v2.3c0 2.026 1.661 3.712 3.706 3.712h24.646c2.053 0 3.747-1.686 3.747-3.712v-12.925c0-2.030-1.694-3.672-3.743-3.672zM32.877 24.443c0 0.631-0.569 1.183-1.219 1.183h-24.646c-0.637 0-1.177-0.544-1.177-1.183v-12.925c0-0.631 0.527-1.146 1.175-1.146h24.652c0.658 0 1.215 0.523 1.215 1.146v12.925z"></path>
<path fill="#444" d="M29.127 12.9h-11.127v10.197h11.121c0.65 0 1.219-0.552 1.219-1.183v-7.87c-0-0.623-0.556-1.144-1.212-1.144z"></path>
</svg>
