<?xml version="1.0" encoding="utf-8"?>
<!-- Generated by IcoMoon.io -->
<!DOCTYPE svg PUBLIC "-//W3C//DTD SVG 1.1//EN" "http://www.w3.org/Graphics/SVG/1.1/DTD/svg11.dtd">
<svg version="1.1" xmlns="http://www.w3.org/2000/svg" xmlns:xlink="http://www.w3.org/1999/xlink" width="36" height="36" viewBox="0 0 36 36">
<path fill="#444" d="M31.662 7.846h-24.65c-2.045 0-3.704 1.642-3.704 3.672v2.338h-1.767c-0.521-0-0.947 0.44-0.947 0.963v6.361c0 0.531 0.426 0.963 0.947 0.963h1.767v2.298c0 2.028 1.659 3.712 3.706 3.712h24.644c2.051 0 3.747-1.684 3.747-3.712v-12.923c-0-2.030-1.696-3.672-3.743-3.672zM32.877 24.442c0 0.633-0.567 1.185-1.219 1.185h-24.644c-0.637 0-1.179-0.544-1.179-1.185v-12.923c0-0.631 0.529-1.146 1.177-1.146h24.65c0.66 0 1.214 0.523 1.214 1.146v12.923z"></path>
<path fill="#444" d="M29.127 12.901h-15.998v10.197h15.993c0.648 0 1.217-0.552 1.217-1.183v-7.87c0-0.623-0.556-1.144-1.212-1.144z"></path>
</svg>
