<?xml version="1.0" encoding="utf-8"?>
<!-- Generated by IcoMoon.io -->
<!DOCTYPE svg PUBLIC "-//W3C//DTD SVG 1.1//EN" "http://www.w3.org/Graphics/SVG/1.1/DTD/svg11.dtd">
<svg version="1.1" xmlns="http://www.w3.org/2000/svg" xmlns:xlink="http://www.w3.org/1999/xlink" width="36" height="36" viewBox="0 0 36 36">
<path fill="#444" d="M34.052 3.336c0 0-5.485-1.254-16.497-1.076-11.009 0.178-15.597 1.118-15.597 1.118-0.957 0.195-1.548 1.131-1.311 2.078 0 0 1.459 5.86 6.076 13.849 4.617 7.993 10.073 13.921 10.073 13.921 0.661 0.718 1.733 0.707 2.379-0.023 0 0 6.504-7.358 10.1-13.72 4.617-8.167 6.076-14.027 6.076-14.027 0.237-0.947-0.349-1.9-1.3-2.12zM18.777 24.324v1.703c0 0.851-0.667 1.538-1.516 1.538s-1.517-0.686-1.517-1.538v-1.597h-2.025c-0.849 0-1.538-0.669-1.538-1.516s0.688-1.516 1.538-1.516h3.687c2.628 0 3.363-0.375 3.363-1.805 0-1.432-0.811-1.847-2.889-2.101-4.223-0.529-5.843-1.822-5.843-4.939 0-2.071 1.279-5.1 5.526-5.308v-1.644c0-0.851 0.667-1.542 1.514-1.542 0.849 0 1.519 0.69 1.519 1.542v1.847h1.309c0.854 0 1.538 0.669 1.538 1.519 0 0.847-0.684 1.514-1.538 1.514l-3.736 0.072c-2.425 0.004-2.823 0.852-2.823 2.025 0 1.406 1.152 1.593 3.135 1.847 3.713 0.483 5.668 1.639 5.668 5.121-0 2.503-1.127 4.456-5.371 4.778z"></path>
</svg>
