<?xml version="1.0" encoding="utf-8"?>
<!-- Generated by IcoMoon.io -->
<!DOCTYPE svg PUBLIC "-//W3C//DTD SVG 1.1//EN" "http://www.w3.org/Graphics/SVG/1.1/DTD/svg11.dtd">
<svg version="1.1" xmlns="http://www.w3.org/2000/svg" xmlns:xlink="http://www.w3.org/1999/xlink" width="36" height="36" viewBox="0 0 36 36">
<path fill="#444" d="M23.573 9.477h5.637l-7.657-7.047 0.019 5.076c0 1.102 0.9 1.971 2.002 1.971z"></path>
<path fill="#444" d="M19.574 7.59v-6.962h-11.487c-1.923 0-3.479 1.556-3.479 3.479v27.787c0 1.923 1.556 3.479 3.479 3.479h19.827c1.923 0 3.479-1.556 3.479-3.479v-20.304h-7.819c-2.209 0-4-1.794-4-4zM12.427 27.186v0.981c0 0.488-0.38 0.884-0.869 0.884-0.486 0-0.867-0.396-0.867-0.884v-0.919h-1.164c-0.486 0-0.882-0.382-0.882-0.867 0-0.487 0.396-0.869 0.882-0.869h2.116c1.508 0 1.929-0.218 1.929-1.037s-0.465-1.058-1.658-1.205c-2.421-0.303-3.35-1.046-3.35-2.83 0-1.189 0.734-2.929 3.168-3.048v-0.944c0-0.485 0.384-0.88 0.869-0.88 0.49 0 0.871 0.394 0.871 0.88v1.062h0.751c0.49 0 0.882 0.382 0.882 0.869s-0.392 0.869-0.882 0.869h-2.143v-0.106c-1.39 0.002-1.62 0.635-1.62 1.309 0 0.805 0.662 0.913 1.799 1.058 2.131 0.278 3.251 0.94 3.251 2.94 0 1.434-0.645 2.554-3.083 2.736zM26.33 28.188h-8.182c-0.579 0-1.046-0.467-1.046-1.043s0.467-1.041 1.046-1.041h8.182c0.577 0 1.044 0.465 1.044 1.041s-0.467 1.043-1.044 1.043zM26.33 23.352h-8.182c-0.579 0-1.046-0.469-1.046-1.046s0.467-1.041 1.046-1.041h8.182c0.577 0 1.044 0.465 1.044 1.041s-0.467 1.046-1.044 1.046zM27.374 17.471c0 0.575-0.467 1.044-1.044 1.044h-8.182c-0.579 0-1.046-0.469-1.046-1.044 0-0.579 0.467-1.043 1.046-1.043h8.182c0.577-0 1.044 0.465 1.044 1.043z"></path>
</svg>
