<?xml version="1.0" encoding="utf-8"?>
<!-- Generated by IcoMoon.io -->
<!DOCTYPE svg PUBLIC "-//W3C//DTD SVG 1.1//EN" "http://www.w3.org/Graphics/SVG/1.1/DTD/svg11.dtd">
<svg version="1.1" xmlns="http://www.w3.org/2000/svg" xmlns:xlink="http://www.w3.org/1999/xlink" width="36" height="36" viewBox="0 0 36 36">
<path fill="#444" d="M28.58 24.272l-7.738-6.345 7.74-6.355c0.031-0.025 0.054-0.055 0.081-0.083 0.029-0.025 0.060-0.047 0.087-0.076 0.012-0.013 0.023-0.030 0.033-0.042 0.039-0.047 0.072-0.093 0.105-0.14 0.031-0.044 0.062-0.087 0.089-0.133 0.025-0.049 0.045-0.098 0.070-0.149 0.021-0.051 0.043-0.099 0.060-0.152 0.017-0.049 0.029-0.099 0.039-0.151 0.012-0.055 0.025-0.108 0.031-0.162 0.006-0.051 0.006-0.104 0.008-0.155 0.002-0.055 0.004-0.108 0-0.164-0.002-0.053-0.012-0.106-0.021-0.158s-0.017-0.107-0.029-0.159c-0.017-0.051-0.027-0.103-0.054-0.15-0.074-0.125-0.306-0.447-0.511-0.651l-8.713-7.972c-0.49-0.454-1.372-0.572-1.98-0.305-0.611 0.267-1.349 0.868-1.349 1.534v12.654l-7.14-6.131c-0.714-0.587-1.428-0.483-2.018 0.233-0.586 0.717-0.484 1.773 0.23 2.359l7.934 6.51-8.096 6.629c-0.716 0.588-0.863 1.645-0.275 2.359 0.329 0.403 0.724 0.613 1.211 0.613 0.375 0 0.577-0.125 0.89-0.382l7.264-6.245v12.797c0 0.666 0.731 1.268 1.341 1.535s1.484 0.149 1.972-0.305l0.089-0.078c0.035-0.028 0.070-0.050 0.106-0.079l1.693-1.563 0.551-0.496v-0.004l6.384-5.911c0.356-0.328 0.546-0.795 0.534-1.28-0.014-0.483-0.242-0.939-0.619-1.246zM20.188 6.132l4.402 4.069-4.402 3.611v-7.68zM20.19 29.709v-7.674l4.398 3.607-4.398 4.067z"></path>
</svg>
