<?xml version="1.0" encoding="utf-8"?>
<!-- Generated by IcoMoon.io -->
<!DOCTYPE svg PUBLIC "-//W3C//DTD SVG 1.1//EN" "http://www.w3.org/Graphics/SVG/1.1/DTD/svg11.dtd">
<svg version="1.1" xmlns="http://www.w3.org/2000/svg" xmlns:xlink="http://www.w3.org/1999/xlink" width="36" height="36" viewBox="0 0 36 36">
<path fill="#444" d="M28.472 0.563h-20.979c-2.095 0-3.675 1.751-3.675 3.861v31.014l14.183-6.611 14.183 6.603v-31.005c0-2.107-1.622-3.861-3.711-3.861zM24.584 17.303h-4.957v4.973c0 0.926-0.7 1.681-1.628 1.681-0.926 0-1.628-0.754-1.628-1.681v-4.973h-4.956c-0.926 0-1.681-0.7-1.681-1.628s0.755-1.628 1.681-1.628h4.956v-4.939c0-0.927 0.702-1.681 1.628-1.681 0.927 0 1.627 0.754 1.627 1.681v4.939h4.957c0.927 0 1.682 0.701 1.682 1.628s-0.755 1.628-1.682 1.628z"></path>
</svg>
