<?xml version="1.0" encoding="utf-8"?>
<!-- Generated by IcoMoon.io -->
<!DOCTYPE svg PUBLIC "-//W3C//DTD SVG 1.1//EN" "http://www.w3.org/Graphics/SVG/1.1/DTD/svg11.dtd">
<svg version="1.1" xmlns="http://www.w3.org/2000/svg" xmlns:xlink="http://www.w3.org/1999/xlink" width="36" height="36" viewBox="0 0 36 36">
<path fill="#444" d="M31.884 27.383l-0.078-21.93c0-2.309-2.002-4.826-6.208-4.826h-14.245c-0.097 0-0.195 0.004-0.29 0.017-0.065-0.004-0.13-0.009-0.192-0.009-3.73 0-6.755 3.021-6.755 6.75 0 0.242 0.009 1.053 0.009 1.228l0.080 22.574c0 2.309 1.524 4.184 3.408 4.184h17.043c1.71 0 3.088-1.542 3.334-3.553 0.009-0.212 0.011-0.42 0.011-0.621l-0.047-22.576c0-2.547-0.694-4.182-3.41-4.182l-15.034-0.013c-0.523 0-0.947-0.426-0.947-0.951 0-0.528 0.419-0.954 0.938-0.958h13.726c0 0 0.009 0 0.011 0h1.741c2.802 0 4.831 1.875 4.831 4.184l0.080 22.574c0 0.744 0.013 1.867-0.158 2.13 1.382-0.536 2.153-2.151 2.153-4.024zM22.597 25.102h-13.127c-0.521 0-0.947-0.586-0.947-1.109 0-0.525 0.426-1.109 0.947-1.109h13.127c0.521 0 0.945 0.584 0.945 1.109 0 0.523-0.424 1.109-0.945 1.109zM22.597 20.712h-13.127c-0.521 0-0.947-0.586-0.947-1.109s0.426-1.109 0.947-1.109h13.127c0.521 0 0.945 0.586 0.945 1.109s-0.424 1.109-0.945 1.109zM9.47 14.105h13.127c0.521 0 0.945 0.586 0.945 1.109s-0.424 1.109-0.945 1.109h-13.127c-0.521 0-0.947-0.586-0.947-1.109s0.426-1.109 0.947-1.109z"></path>
</svg>
