<?xml version="1.0" encoding="utf-8"?>
<!-- Generated by IcoMoon.io -->
<!DOCTYPE svg PUBLIC "-//W3C//DTD SVG 1.1//EN" "http://www.w3.org/Graphics/SVG/1.1/DTD/svg11.dtd">
<svg version="1.1" xmlns="http://www.w3.org/2000/svg" xmlns:xlink="http://www.w3.org/1999/xlink" width="36" height="36" viewBox="0 0 36 36">
<path fill="#444" d="M8.905 8.385l7.932-2.771v4.828l0.908 0.217 0.952-0.262v-4.766l7.533 2.501 2.835-0.841-10.695-3.474h-1.538l-10.91 3.811z"></path>
<path fill="#444" d="M24.522 19.922l-0.792 0.327-0.488-0.625-4.544-4.95v17.342l9.222-3.611c2.863-1.345 3.74-1.748 3.74-3.861l0.175-7.632-7.312 3.010z"></path>
<path fill="#444" d="M16.838 16.006l-2.325 4.1-0.493 0.86-0.952-0.275-8.781-2.56 0.183 7.606c0 2.112 1.743 2.93 3.848 3.862l8.519 2.444v-16.037z"></path>
<path fill="#444" d="M30.502 8.129l4.936 5.944-11.389 4.704-6.402-6.831 12.855-3.818zM4.518 8.531l13.129 3.416-4.238 7.553-12.847-3.746 3.955-7.224z"></path>
</svg>
