<?xml version="1.0" encoding="utf-8"?>
<!-- Generated by IcoMoon.io -->
<!DOCTYPE svg PUBLIC "-//W3C//DTD SVG 1.1//EN" "http://www.w3.org/Graphics/SVG/1.1/DTD/svg11.dtd">
<svg version="1.1" xmlns="http://www.w3.org/2000/svg" xmlns:xlink="http://www.w3.org/1999/xlink" width="36" height="36" viewBox="0 0 36 36">
<path fill="#444" d="M31.761 9.351h-5.829v-1.353c0-2.903-2.36-5.265-5.265-5.265h-5.336c-2.903 0-5.267 2.362-5.267 5.265v1.353h-5.827c-1.994 0-3.609 1.618-3.609 3.609v16.695c0 1.994 1.615 3.611 3.609 3.611h27.525c1.994 0 3.611-1.617 3.611-3.611v-16.695c-0-1.992-1.617-3.609-3.611-3.609zM13.376 7.998c0-1.078 0.875-1.957 1.955-1.957h5.336c1.080 0 1.957 0.879 1.957 1.957v1.353h-9.249v-1.353z"></path>
</svg>
