<?xml version="1.0" encoding="utf-8"?>
<!-- Generated by IcoMoon.io -->
<!DOCTYPE svg PUBLIC "-//W3C//DTD SVG 1.1//EN" "http://www.w3.org/Graphics/SVG/1.1/DTD/svg11.dtd">
<svg version="1.1" xmlns="http://www.w3.org/2000/svg" xmlns:xlink="http://www.w3.org/1999/xlink" width="36" height="36" viewBox="0 0 36 36">
<path fill="#444" d="M34.47 13.091c-0.5 0-0.903-0.404-0.903-0.903 0-5.483-4.459-9.939-9.942-9.939-0.497 0-0.903-0.404-0.903-0.903s0.406-0.905 0.903-0.905c6.478-0 11.747 5.269 11.747 11.747 0 0.5-0.406 0.903-0.903 0.903z"></path>
<path fill="#444" d="M30.855 13.091c-0.5 0-0.903-0.404-0.903-0.903 0-3.487-2.839-6.325-6.325-6.325-0.5 0-0.903-0.403-0.903-0.903s0.403-0.903 0.903-0.903c4.484 0 8.131 3.647 8.131 8.131 0 0.5-0.406 0.903-0.903 0.903z"></path>
<path fill="#444" d="M27.241 13.091c-0.5 0-0.903-0.404-0.903-0.903 0-1.495-1.217-2.711-2.713-2.711-0.497 0-0.903-0.406-0.903-0.903 0-0.5 0.406-0.905 0.903-0.905 2.492 0 4.519 2.028 4.519 4.519 0 0.5-0.405 0.903-0.903 0.903z"></path>
<path fill="#444" d="M24.108 32.817h-0.023v-20.040c0-0.629-0.514-1.146-1.143-1.146h-8.1c-0.629 0-1.145-0.303-1.145-0.675 0-0.376-0.512-0.679-1.141-0.679h-5.715c-0.631 0-1.143 0.303-1.143 0.679 0 0.372-0.516 0.675-1.145 0.675h-1.411c-0.629 0-1.143 0.516-1.143 1.146v20.040c-0.757 0-1.369 0.615-1.369 1.371 0 0.249 0.069 0.477 0.184 0.677 0.236 0.412 0.677 0.694 1.187 0.694h22.109c0.493 0 0.922-0.259 1.162-0.648 0.132-0.209 0.211-0.456 0.211-0.723-0-0.757-0.614-1.371-1.373-1.371zM8.418 32.533c0 0.155-0.128 0.284-0.286 0.284h-2.703c-0.159 0-0.291-0.13-0.291-0.284v-3.42c0-0.155 0.132-0.282 0.291-0.282h2.703c0.159 0 0.286 0.128 0.286 0.282v3.42zM8.418 26.057c0 0.155-0.128 0.28-0.286 0.28h-2.703c-0.159 0-0.291-0.125-0.291-0.28v-3.424c0-0.155 0.132-0.284 0.291-0.284h2.703c0.159 0 0.286 0.13 0.286 0.284v3.424zM8.418 19.577c0 0.157-0.128 0.284-0.286 0.284h-2.703c-0.159 0-0.291-0.128-0.291-0.284v-3.424c0-0.153 0.132-0.28 0.291-0.28h2.703c0.159 0 0.286 0.128 0.286 0.28v3.424zM14.679 32.537c0 0.155-0.128 0.28-0.288 0.28h-2.701c-0.159 0-0.289-0.125-0.289-0.28v-3.424c0-0.155 0.13-0.282 0.289-0.282h2.701c0.161 0 0.288 0.128 0.288 0.282v3.424zM14.679 26.057c0 0.155-0.128 0.28-0.288 0.28h-2.701c-0.159 0-0.289-0.125-0.289-0.28v-3.424c0-0.155 0.13-0.284 0.289-0.284h2.701c0.161 0 0.288 0.13 0.288 0.284v3.424zM14.679 19.577c0 0.157-0.128 0.284-0.288 0.284h-2.701c-0.159 0-0.289-0.128-0.289-0.284v-3.424c0-0.153 0.13-0.28 0.289-0.28h2.701c0.161 0 0.288 0.128 0.288 0.28v3.424zM20.943 32.533c0 0.155-0.134 0.284-0.291 0.284h-2.703c-0.159 0-0.286-0.13-0.286-0.284v-3.42c0-0.155 0.128-0.282 0.286-0.282h2.703c0.157 0 0.291 0.128 0.291 0.282v3.42zM20.943 26.057c0 0.155-0.134 0.28-0.291 0.28h-2.703c-0.159 0-0.286-0.125-0.286-0.28v-3.424c0-0.155 0.128-0.284 0.286-0.284h2.703c0.157 0 0.291 0.13 0.291 0.284v3.424zM20.943 19.577c0 0.157-0.134 0.284-0.291 0.284h-2.703c-0.159 0-0.286-0.128-0.286-0.284v-3.424c0-0.153 0.128-0.28 0.286-0.28h2.703c0.157 0 0.291 0.128 0.291 0.28v3.424z"></path>
</svg>
