<?xml version="1.0" encoding="utf-8"?>
<!-- Generated by IcoMoon.io -->
<!DOCTYPE svg PUBLIC "-//W3C//DTD SVG 1.1//EN" "http://www.w3.org/Graphics/SVG/1.1/DTD/svg11.dtd">
<svg version="1.1" xmlns="http://www.w3.org/2000/svg" xmlns:xlink="http://www.w3.org/1999/xlink" width="36" height="36" viewBox="0 0 36 36">
<path fill="#444" d="M33.697 2.672h-21.962c0.268 0.522 0.422 1.114 0.422 1.74v27.176c0 0.626-0.154 1.219-0.422 1.741h21.962c0.958 0 1.741-0.783 1.741-1.741v-27.176c0-0.957-0.783-1.74-1.741-1.74zM16.108 22.344c0-0.382 0.313-0.696 0.696-0.696h2.736c0.382 0 0.696 0.313 0.696 0.696v1.78c0 0.382-0.313 0.696-0.696 0.696h-2.736c-0.382 0-0.696-0.313-0.696-0.696v-1.78zM20.235 28.956c0 0.382-0.313 0.696-0.696 0.696h-2.736c-0.382 0-0.696-0.313-0.696-0.696v-1.781c0-0.382 0.313-0.698 0.696-0.698h2.736c0.382 0 0.696 0.316 0.696 0.698v1.781zM20.235 19.292c0 0.382-0.313 0.696-0.696 0.696h-2.736c-0.382 0-0.696-0.313-0.696-0.696v-1.781c0-0.383 0.313-0.696 0.696-0.696h2.736c0.382 0 0.696 0.313 0.696 0.696v1.781zM25.879 28.956c0 0.382-0.313 0.696-0.696 0.696h-2.736c-0.382 0-0.696-0.313-0.696-0.696v-1.781c0-0.382 0.313-0.698 0.696-0.698h2.736c0.382 0 0.696 0.316 0.696 0.698v1.781zM21.752 24.123v-1.78c0-0.382 0.313-0.696 0.696-0.696h2.736c0.382 0 0.696 0.313 0.696 0.696v1.78c0 0.382-0.313 0.696-0.696 0.696h-2.736c-0.382 0-0.696-0.313-0.696-0.696zM25.879 19.292c0 0.382-0.313 0.696-0.696 0.696h-2.736c-0.382 0-0.696-0.313-0.696-0.696v-1.781c0-0.383 0.313-0.696 0.696-0.696h2.736c0.382 0 0.696 0.313 0.696 0.696v1.781zM31.523 28.956c0 0.382-0.313 0.696-0.696 0.696h-2.736c-0.382 0-0.697-0.313-0.697-0.696v-1.781c0-0.382 0.314-0.698 0.697-0.698h2.736c0.382 0 0.696 0.316 0.696 0.698v1.781zM27.394 24.123v-1.78c0-0.382 0.314-0.696 0.697-0.696h2.735c0.384 0 0.697 0.313 0.697 0.696v1.78c0 0.382-0.313 0.696-0.697 0.696h-2.735c-0.382 0-0.697-0.313-0.697-0.696zM31.523 19.292c0 0.382-0.313 0.696-0.696 0.696h-2.736c-0.382 0-0.697-0.313-0.697-0.696v-1.781c0-0.383 0.314-0.696 0.697-0.696h2.736c0.382 0 0.696 0.313 0.696 0.696v1.781zM31.523 12.283c0 0.574-0.47 1.045-1.044 1.045h-13.327c-0.574 0-1.044-0.47-1.044-1.045v-4.889c0-0.575 0.47-1.045 1.044-1.045h13.327c0.574 0 1.044 0.47 1.044 1.045v4.889z"></path>
<path fill="#444" d="M10.086 31.588c0 0.957-0.783 1.741-1.742 1.741h-6.039c-0.958 0-1.742-0.784-1.742-1.741v-27.175c0-0.958 0.784-1.741 1.742-1.741h6.039c0.959 0 1.742 0.784 1.742 1.741v27.175z"></path>
</svg>
