<?xml version="1.0" encoding="utf-8"?>
<!-- Generated by IcoMoon.io -->
<!DOCTYPE svg PUBLIC "-//W3C//DTD SVG 1.1//EN" "http://www.w3.org/Graphics/SVG/1.1/DTD/svg11.dtd">
<svg version="1.1" xmlns="http://www.w3.org/2000/svg" xmlns:xlink="http://www.w3.org/1999/xlink" width="36" height="36" viewBox="0 0 36 36">
<path fill="#444" d="M31.924 3.206h-27.847c-1.922 0-3.481 1.557-3.481 3.479v22.628c0 1.922 1.559 3.481 3.481 3.481h27.847c1.922 0 3.481-1.559 3.481-3.481v-22.628c-0-1.922-1.559-3.479-3.481-3.479zM9.644 30.009c0 0.193-0.154 0.349-0.349 0.349h-5.915c-0.193 0-0.349-0.156-0.349-0.349v-4.526c0-0.191 0.156-0.349 0.349-0.349h5.914c0.195 0 0.349 0.158 0.349 0.349v4.526zM9.644 23.743c0 0.193-0.154 0.347-0.349 0.347h-5.915c-0.193 0-0.349-0.154-0.349-0.347v-4.528c0-0.191 0.156-0.349 0.349-0.349h5.914c0.195 0 0.349 0.158 0.349 0.349v4.528zM9.644 17.476c0 0.191-0.154 0.349-0.349 0.349h-5.915c-0.193 0-0.349-0.158-0.349-0.349v-4.526c0-0.191 0.156-0.344 0.349-0.344h5.914c0.195 0 0.349 0.154 0.349 0.344v4.526zM8.916 7.617c0-0.961 0.779-1.742 1.742-1.742s1.74 0.781 1.74 1.742-0.776 1.742-1.74 1.742c-0.963 0-1.742-0.781-1.742-1.742zM17.653 30.009c0 0.193-0.158 0.349-0.349 0.349h-5.917c-0.195 0-0.349-0.156-0.349-0.349v-4.526c0-0.191 0.154-0.349 0.349-0.349h5.917c0.191 0 0.349 0.158 0.349 0.349v4.526zM17.653 23.743c0 0.193-0.158 0.347-0.349 0.347h-5.917c-0.195 0-0.349-0.154-0.349-0.347v-4.528c0-0.191 0.154-0.349 0.349-0.349h5.917c0.191 0 0.349 0.158 0.349 0.349v4.528zM17.653 17.476c0 0.191-0.158 0.349-0.349 0.349h-5.917c-0.195 0-0.349-0.158-0.349-0.349v-4.526c0-0.191 0.154-0.344 0.349-0.344h5.917c0.191 0 0.349 0.154 0.349 0.344v4.526zM25.31 30.009c0 0.193-0.154 0.349-0.349 0.349h-5.917c-0.191 0-0.349-0.156-0.349-0.349v-4.526c0-0.191 0.158-0.349 0.349-0.349h5.916c0.195 0 0.349 0.158 0.349 0.349v4.526zM25.31 23.743c0 0.193-0.154 0.347-0.349 0.347h-5.917c-0.191 0-0.349-0.154-0.349-0.347v-4.528c0-0.191 0.158-0.349 0.349-0.349h5.916c0.195 0 0.349 0.158 0.349 0.349v4.528zM25.31 17.476c0 0.191-0.154 0.349-0.349 0.349h-5.917c-0.191 0-0.349-0.158-0.349-0.349v-4.526c0-0.191 0.158-0.344 0.349-0.344h5.916c0.195 0 0.349 0.154 0.349 0.344v4.526zM23.651 7.617c0-0.961 0.779-1.742 1.738-1.742 0.963 0 1.742 0.781 1.742 1.742s-0.779 1.742-1.742 1.742c-0.959 0-1.738-0.781-1.738-1.742zM32.968 30.009c0 0.193-0.156 0.349-0.349 0.349h-5.918c-0.191 0-0.345-0.156-0.345-0.349v-4.526c0-0.191 0.154-0.349 0.345-0.349h5.919c0.193 0 0.349 0.158 0.349 0.349v4.526zM32.968 23.743c0 0.193-0.156 0.347-0.349 0.347h-5.918c-0.191 0-0.345-0.154-0.345-0.347v-4.528c0-0.191 0.154-0.349 0.345-0.349h5.919c0.193 0 0.349 0.158 0.349 0.349v4.528zM32.968 17.476c0 0.191-0.156 0.349-0.349 0.349h-5.918c-0.191 0-0.345-0.158-0.345-0.349v-4.526c0-0.191 0.154-0.344 0.345-0.344h5.919c0.193 0 0.349 0.154 0.349 0.344v4.526z"></path>
</svg>
