<?xml version="1.0" encoding="utf-8"?>
<!-- Generated by IcoMoon.io -->
<!DOCTYPE svg PUBLIC "-//W3C//DTD SVG 1.1//EN" "http://www.w3.org/Graphics/SVG/1.1/DTD/svg11.dtd">
<svg version="1.1" xmlns="http://www.w3.org/2000/svg" xmlns:xlink="http://www.w3.org/1999/xlink" width="36" height="36" viewBox="0 0 36 36">
<path fill="#444" d="M21.622 22.271c1.103 0 1.522-0.885 1.522-1.491 0-0.638-0.264-1.491-1.522-1.491s-1.522 0.854-1.522 1.491c0 0.604 0.419 1.491 1.522 1.491z"></path>
<path fill="#444" d="M21.622 24.196c-1.211 0-1.849 0.698-1.849 1.693 0 0.699 0.404 1.662 1.849 1.662s1.849-0.963 1.849-1.662c0-0.995-0.637-1.693-1.849-1.693z"></path>
<path fill="#444" d="M0.563 13.582v16.624c0 1.926 1.561 3.371 3.487 3.371h27.9c1.926 0 3.488-1.445 3.488-3.371v-16.624h-34.875zM16.485 28.927h-5.944c-0.554 0-1.004-0.363-1.004-0.918 0-0.272 0.109-0.475 0.284-0.657l4.499-5.511c0.331-0.405 0.467-0.696 0.467-1.087 0-0.707-0.271-1.303-1.64-1.303-0.773 0-0.948-0.102-2.039 0.333-0.151 0.106-0.332 0.17-0.53 0.17-0.511 0-0.926-0.414-0.926-0.925 0-0.359 0.207-0.669 0.507-0.821l-0.006-0.016c0.783-0.345 1.79-0.617 2.978-0.617 3.218 0 3.67 1.881 3.67 3.188 0 1.023-0.496 1.842-1.368 2.804l-3.204 3.499h4.14c0.038 0 0.075 0.042 0.115 0.042 0.535 0 0.968 0.376 0.968 0.91s-0.433 0.908-0.968 0.908zM21.622 29.493c-2.936 0-3.961-1.74-3.961-3.604 0-0.963 0.404-2.252 1.259-2.812-0.544-0.543-0.917-1.538-0.917-2.298 0-1.725 0.917-3.433 3.619-3.433s3.62 1.708 3.62 3.433c0 0.762-0.374 1.754-0.917 2.298 0.855 0.56 1.258 1.849 1.258 2.812 0.001 1.865-1.024 3.604-3.96 3.604z"></path>
<path fill="#444" d="M31.95 2.422h-27.9c-1.926 0-3.487 1.445-3.487 3.371v4.999h34.875v-4.999c0-1.926-1.561-3.371-3.487-3.371zM10.608 8.601c-1.005 0.005-1.825-0.806-1.83-1.812s0.806-1.826 1.812-1.831c1.006-0.006 1.826 0.805 1.831 1.812s-0.805 1.825-1.813 1.831zM25.899 8.523c-1.006 0.005-1.827-0.806-1.831-1.812s0.806-1.825 1.812-1.831c1.006-0.005 1.826 0.806 1.831 1.812s-0.806 1.825-1.812 1.83z"></path>
</svg>
