<?xml version="1.0" encoding="utf-8"?>
<!-- Generated by IcoMoon.io -->
<!DOCTYPE svg PUBLIC "-//W3C//DTD SVG 1.1//EN" "http://www.w3.org/Graphics/SVG/1.1/DTD/svg11.dtd">
<svg version="1.1" xmlns="http://www.w3.org/2000/svg" xmlns:xlink="http://www.w3.org/1999/xlink" width="36" height="36" viewBox="0 0 36 36">
<path fill="#444" d="M12.558 8.998l-2.568-7.15c0 0-0.405-1.051-1.823-1.043l-1.947 0.265c0 0-6.408 0.831-5.586 8.599 0 0 2.977 18.643 23.705 24.948 0 0 8.241 2.778 10.52-3.831 0 0 0.27-1.29 0.558-2.857 0 0 0.227-0.826-0.847-1.545l-6.372-3.652c0 0-1.080-0.812-1.987 0.065 0 0-1.389 1.129-2.815 2.813l-0.615 0.801c0 0-0.359 0.454-1.328 0.104 0 0-6.239-2.003-11.916-11.452 0 0-0.498-0.718 0.487-1.676 0 0 1.068-0.858 2.343-2.287 0 0 0.705-0.553 0.308-1.695l-0.118-0.404z"></path>
<path fill="#444" d="M30.659 5.625c-1.401-1.402-3.265-2.173-5.249-2.173-1.981 0-3.844 0.772-5.247 2.173-1.401 1.402-2.172 3.265-2.172 5.248s0.772 3.846 2.172 5.247c1.402 1.402 3.265 2.175 5.248 2.175s3.847-0.773 5.248-2.175c2.893-2.892 2.893-7.601-0-10.495zM27.829 6.649l-6.642 6.642c-1.084-1.888-0.784-4.294 0.782-5.859 0.918-0.918 2.14-1.425 3.44-1.425 0.857-0 1.686 0.22 2.42 0.642zM28.854 14.315c-0.92 0.918-2.14 1.425-3.441 1.425-0.858 0-1.686-0.222-2.42-0.642l6.642-6.642c1.086 1.889 0.783 4.294-0.781 5.859z"></path>
</svg>
