<?xml version="1.0" encoding="utf-8"?>
<!-- Generated by IcoMoon.io -->
<!DOCTYPE svg PUBLIC "-//W3C//DTD SVG 1.1//EN" "http://www.w3.org/Graphics/SVG/1.1/DTD/svg11.dtd">
<svg version="1.1" xmlns="http://www.w3.org/2000/svg" xmlns:xlink="http://www.w3.org/1999/xlink" width="36" height="36" viewBox="0 0 36 36">
<path fill="#444" d="M25.084 26.707c0 0.513-0.4 0.927-0.898 0.927s-0.898-0.415-0.898-0.927c0-0.508 0.4-0.923 0.898-0.923s0.898 0.415 0.898 0.923z"></path>
<path fill="#444" d="M4.659 35.122c-0.667 0.452-1.573 0.275-2.023-0.39-0.1-0.146-0.167-0.304-0.208-0.465-0.142-0.575 0.077-1.206 0.6-1.563l5.234-3.525 1.633 2.415-5.236 3.527z"></path>
<path fill="#444" d="M27.222 15.922c-2.019-2.021-4.805-3.271-7.88-3.271-3.073 0-5.861 1.25-7.878 3.271-2.021 2.019-3.271 4.805-3.271 7.878 0 3.075 1.25 5.861 3.271 7.882 2.017 2.019 4.805 3.269 7.878 3.269 3.075 0 5.861-1.25 7.88-3.269 2.021-2.021 3.271-4.807 3.271-7.882 0-3.073-1.25-5.859-3.271-7.878zM19.342 32.499c-4.796 0-8.699-3.9-8.699-8.699 0-4.794 3.903-8.697 8.699-8.697s8.699 3.902 8.699 8.697c0 4.798-3.902 8.699-8.699 8.699z"></path>
<path fill="#444" d="M19.284 12.126c2.021 0 3.923 0.517 5.582 1.423h2.569c0.44 0 0.794 0.365 0.794 0.819 0 0.452-0.354 0.819-0.794 0.819h-0.279c1.388 1.269 2.469 2.867 3.117 4.669v-14.706c0-0.629-0.5-1.144-1.113-1.144l-9.93 0.002c-0.612 0-1.129 0.529-1.129 1.154v7.024c0.39-0.040 0.786-0.060 1.183-0.060zM20.938 9.38h6.496c0.44 0 0.794 0.369 0.794 0.819 0 0.452-0.354 0.819-0.794 0.819h-6.496c-0.44 0-0.796-0.367-0.796-0.819-0-0.45 0.356-0.819 0.796-0.819z"></path>
<path fill="#444" d="M26.136 19.354h-5.198c-0.44 0-0.794-0.367-0.794-0.817 0-0.452 0.354-0.819 0.794-0.819h3.796c-1.446-1.3-3.359-2.088-5.448-2.088-0.404 0-0.798 0.029-1.188 0.085v7.867c0 0.631 0.5 1.146 1.113 1.146h8.192c0.035-0.306 0.054-0.615 0.054-0.929-0-1.638-0.488-3.165-1.321-4.446z"></path>
<path fill="#444" d="M14.875 16.964v10.691c0 1.577 1.256 2.861 2.802 2.861h6.319c0.713-0.498 1.344-1.1 1.867-1.794h-8.186c-0.556 0-1.010-0.479-1.010-1.067v-11.574c-0.636 0.221-1.238 0.519-1.792 0.883z"></path>
<path fill="#444" d="M30.808 0.627l-13.11 0.004c-1.556 0-2.823 1.286-2.823 2.867v9.518c0.575-0.238 1.175-0.433 1.792-0.575v-8.942c0-0.581 0.471-1.075 1.031-1.075l13.11-0.002c0.558 0 1.010 0.477 1.010 1.067v24.167c0 0.59-0.452 1.067-1.010 1.067h-0.881c-0.294 0.631-0.644 1.231-1.042 1.794h1.923c1.546 0 2.806-1.283 2.806-2.861v-24.167c0-1.577-1.26-2.861-2.806-2.861z"></path>
</svg>
