<?xml version="1.0" encoding="utf-8"?>
<!-- Generated by IcoMoon.io -->
<!DOCTYPE svg PUBLIC "-//W3C//DTD SVG 1.1//EN" "http://www.w3.org/Graphics/SVG/1.1/DTD/svg11.dtd">
<svg version="1.1" xmlns="http://www.w3.org/2000/svg" xmlns:xlink="http://www.w3.org/1999/xlink" width="36" height="36" viewBox="0 0 36 36">
<path fill="#444" d="M12.559 8.872l-2.568-7.251c0 0-0.406-1.066-1.822-1.058l-1.948 0.27c0 0-6.407 0.844-5.585 8.72 0 0 2.976 18.905 23.705 25.298 0 0 8.241 2.817 10.52-3.885 0 0 0.269-1.308 0.557-2.897 0 0 0.227-0.838-0.845-1.566l-6.373-3.705c0 0-1.081-0.824-1.987 0.066 0 0-1.389 1.144-2.816 2.852l-0.615 0.812c0 0-0.359 0.461-1.328 0.106 0 0-6.239-2.029-11.916-11.612 0 0-0.497-0.727 0.487-1.701 0 0 1.067-0.869 2.343-2.319 0 0 0.706-0.56 0.309-1.718l-0.118-0.412z"></path>
</svg>
