<?xml version="1.0" encoding="utf-8"?>
<!-- Generated by IcoMoon.io -->
<!DOCTYPE svg PUBLIC "-//W3C//DTD SVG 1.1//EN" "http://www.w3.org/Graphics/SVG/1.1/DTD/svg11.dtd">
<svg version="1.1" xmlns="http://www.w3.org/2000/svg" xmlns:xlink="http://www.w3.org/1999/xlink" width="36" height="36" viewBox="0 0 36 36">
<path fill="#444" d="M8.767 4.636c0 2.214-1.794 4.010-4.008 4.010s-4.009-1.796-4.009-4.010c0-2.214 1.794-4.009 4.009-4.009s4.008 1.795 4.008 4.009z"></path>
<path fill="#444" d="M35.251 4.636c0 2.214-1.794 4.010-4.009 4.010s-4.009-1.796-4.009-4.010c0-2.214 1.794-4.009 4.009-4.009s4.009 1.795 4.009 4.009z"></path>
<path fill="#444" d="M8.767 31.363c0 2.214-1.794 4.010-4.008 4.010s-4.009-1.796-4.009-4.010c0-2.214 1.794-4.010 4.009-4.010s4.008 1.796 4.008 4.010z"></path>
<path fill="#444" d="M35.251 31.363c0 2.214-1.794 4.010-4.009 4.010s-4.009-1.796-4.009-4.010c0-2.214 1.794-4.010 4.009-4.010s4.009 1.796 4.009 4.010z"></path>
<path fill="#444" d="M23.066 7.241h-10.132c-1.527 0-2.763-1.238-2.763-2.763 0-1.526 1.235-2.764 2.763-2.764h10.132c1.527 0 2.763 1.237 2.763 2.764 0 1.525-1.235 2.763-2.763 2.763z"></path>
<path fill="#444" d="M22.999 34.354h-10.137c-1.523 0-2.76-1.238-2.76-2.762 0-1.527 1.237-2.765 2.76-2.765h10.137c1.527 0 2.763 1.238 2.763 2.765 0 1.524-1.235 2.762-2.763 2.762z"></path>
<path fill="#444" d="M4.671 25.603c-1.523 0-2.763-1.236-2.763-2.762v-9.684c0-1.525 1.24-2.763 2.763-2.763 1.527 0 2.762 1.237 2.762 2.763v9.684c0 1.525-1.235 2.762-2.762 2.762z"></path>
<path fill="#444" d="M31.398 25.744c-1.525 0-2.76-1.236-2.76-2.762v-9.685c0-1.525 1.235-2.764 2.76-2.764s2.763 1.239 2.763 2.764v9.685c0 1.525-1.237 2.762-2.763 2.762z"></path>
</svg>
