<?xml version="1.0" encoding="utf-8"?>
<!-- Generated by IcoMoon.io -->
<!DOCTYPE svg PUBLIC "-//W3C//DTD SVG 1.1//EN" "http://www.w3.org/Graphics/SVG/1.1/DTD/svg11.dtd">
<svg version="1.1" xmlns="http://www.w3.org/2000/svg" xmlns:xlink="http://www.w3.org/1999/xlink" width="36" height="36" viewBox="0 0 36 36">
<path fill="#444" d="M22.817 10.252c-0.341 0.163-0.541 0.5-0.547 0.853v3.159l-5.608-0.001c-0.912 0.074-1.637 0.839-1.637 1.768v2.663c0 0.929 0.724 1.697 1.634 1.767h5.611v3.155c0.006 0.352 0.206 0.69 0.547 0.853 0.377 0.179 0.811 0.094 1.093-0.184l5.569-5.56c0.751-0.752 0.754-1.97 0.001-2.721l-5.57-5.567c-0.282-0.278-0.716-0.365-1.093-0.184z"></path>
<path fill="#444" d="M19.972 32.188l-1.553-5.719c0 0-0.152-1.080-1.17-1.098 0 0-1.436-0.148-3.21 0l-0.808 0.106c0 0-0.464 0.055-0.817-0.698 0 0-2.418-4.701-0.265-13.329 0 0 0.126-0.692 1.235-0.678 0 0 1.097 0.119 2.641 0.032 0 0 0.718 0.088 1.142-0.79l0.164-0.297 2.613-5.545c0 0 0.367-0.83-0.445-1.633l-1.262-0.961c0 0-4.129-3.18-8.090 1.72 0 0-8.937 12.332-0.71 27.75 0 0 3.117 6.285 8.188 3.816 0 0 0.889-0.583 1.946-1.313 0 0 0.602-0.34 0.4-1.362z"></path>
</svg>
