<?xml version="1.0" encoding="utf-8"?>
<!-- Generated by IcoMoon.io -->
<!DOCTYPE svg PUBLIC "-//W3C//DTD SVG 1.1//EN" "http://www.w3.org/Graphics/SVG/1.1/DTD/svg11.dtd">
<svg version="1.1" xmlns="http://www.w3.org/2000/svg" xmlns:xlink="http://www.w3.org/1999/xlink" width="36" height="36" viewBox="0 0 36 36">
<path fill="#444" d="M28.738 3.379l-6.662-0.058c-2.255-0.018-4.107 1.801-4.126 4.058l-0.057 6.662c-0.019 2.256 1.8 4.106 4.058 4.126l6.661 0.056c2.256 0.020 4.107-1.799 4.126-4.055l0.057-6.664c0.018-2.256-1.801-4.107-4.057-4.126zM27.77 5.85c0.742-0.001 1.252 0.472 1.247 1.158-0.010 0.675-0.643 1.312-1.284 1.289-0.627-0.022-1.232-0.704-1.216-1.375 0.010-0.604 0.555-1.071 1.252-1.072zM23.143 5.819c0.73-0.021 1.324 0.476 1.312 1.1-0.011 0.677-0.623 1.339-1.25 1.349-0.636 0.008-1.256-0.645-1.254-1.321 0.004-0.64 0.498-1.109 1.192-1.129zM21.132 11.954c-0.666-0.013-1.247-0.635-1.222-1.311 0.023-0.62 0.649-1.167 1.298-1.134 0.62 0.031 1.199 0.596 1.192 1.165-0.012 0.675-0.623 1.291-1.268 1.28zM23.265 15.699c-0.613-0.011-1.223-0.684-1.218-1.347 0.005-0.6 0.543-1.085 1.216-1.095 0.715-0.012 1.268 0.489 1.26 1.141-0.007 0.667-0.632 1.314-1.257 1.301zM25.372 11.983c-0.671 0.017-1.31-0.655-1.284-1.35 0.022-0.546 0.655-1.094 1.262-1.092 0.643 0.002 1.246 0.592 1.228 1.206-0.018 0.653-0.572 1.22-1.206 1.237zM27.856 15.727c-0.63-0.005-1.203-0.633-1.212-1.329-0.010-0.609 0.514-1.092 1.192-1.106 0.707-0.015 1.269 0.489 1.258 1.129-0.008 0.69-0.599 1.312-1.238 1.306zM29.496 12.015c-0.678-0.025-1.224-0.636-1.193-1.336 0.024-0.566 0.63-1.105 1.24-1.106 0.656-0.001 1.269 0.59 1.233 1.194-0.042 0.738-0.592 1.273-1.28 1.249z"></path>
<path fill="#444" d="M12.482 8.872l-2.604-7.251c0 0-0.411-1.065-1.848-1.058l-1.974 0.269c0 0-6.498 0.842-5.664 8.72 0 0 3.019 18.905 24.037 25.298 0 0 8.358 2.818 10.669-3.885 0 0 0.274-1.308 0.564-2.896 0 0 0.23-0.838-0.857-1.567l-6.462-3.705c0 0-1.095-0.823-2.015 0.065 0 0-1.407 1.146-2.853 2.853l-0.625 0.811c0 0-0.364 0.46-1.347 0.107 0 0-6.326-2.031-12.083-11.614 0 0-0.505-0.728 0.494-1.7 0 0 1.083-0.87 2.376-2.319 0 0 0.716-0.561 0.312-1.719l-0.119-0.409z"></path>
</svg>
