<?xml version="1.0" encoding="utf-8"?>
<!-- Generated by IcoMoon.io -->
<!DOCTYPE svg PUBLIC "-//W3C//DTD SVG 1.1//EN" "http://www.w3.org/Graphics/SVG/1.1/DTD/svg11.dtd">
<svg version="1.1" xmlns="http://www.w3.org/2000/svg" xmlns:xlink="http://www.w3.org/1999/xlink" width="36" height="36" viewBox="0 0 36 36">
<path fill="#444" d="M12.559 8.998l-2.568-7.151c0 0-0.405-1.051-1.822-1.044l-1.947 0.265c0 0-6.407 0.831-5.585 8.599 0 0 2.977 18.644 23.704 24.948 0 0 8.242 2.778 10.521-3.833 0 0 0.27-1.29 0.557-2.856 0 0 0.228-0.826-0.846-1.545l-6.372-3.653c0 0-1.080-0.812-1.987 0.066 0 0-1.389 1.129-2.815 2.813l-0.616 0.801c0 0-0.358 0.454-1.328 0.104 0 0-6.238-2.003-11.915-11.452 0 0-0.497-0.718 0.487-1.677 0 0 1.067-0.858 2.343-2.287 0 0 0.705-0.553 0.308-1.695l-0.118-0.404z"></path>
<path fill="#444" d="M25.242 3.477c-4.085 0-7.395 3.312-7.395 7.395 0 4.086 3.311 7.397 7.395 7.397 4.086 0 7.397-3.311 7.397-7.397 0-4.083-3.311-7.395-7.397-7.395zM28.999 12.238h-7.511c-0.751 0-1.365-0.615-1.365-1.366 0-0.75 0.614-1.365 1.365-1.365h7.511c0.75 0 1.364 0.614 1.364 1.365s-0.614 1.366-1.364 1.366z"></path>
</svg>
