<?xml version="1.0" encoding="utf-8"?>
<!-- Generated by IcoMoon.io -->
<!DOCTYPE svg PUBLIC "-//W3C//DTD SVG 1.1//EN" "http://www.w3.org/Graphics/SVG/1.1/DTD/svg11.dtd">
<svg version="1.1" xmlns="http://www.w3.org/2000/svg" xmlns:xlink="http://www.w3.org/1999/xlink" width="36" height="36" viewBox="0 0 36 36">
<path fill="#444" d="M12.559 8.998l-2.569-7.151c0 0-0.405-1.051-1.823-1.043l-1.947 0.265c0 0-6.408 0.831-5.585 8.599 0 0 2.976 18.643 23.704 24.948 0 0 8.241 2.778 10.52-3.831 0 0 0.271-1.29 0.558-2.857 0 0 0.228-0.827-0.846-1.546l-6.372-3.652c0 0-1.081-0.812-1.987 0.065 0 0-1.39 1.129-2.816 2.813l-0.615 0.801c0 0-0.359 0.454-1.328 0.104 0 0-6.238-2.003-11.916-11.453 0 0-0.497-0.718 0.487-1.676 0 0 1.068-0.858 2.343-2.287 0 0 0.706-0.553 0.308-1.695l-0.117-0.404z"></path>
<path fill="#444" d="M30.677 10.503c-0.696 0-1.26 0.564-1.26 1.26 0 2.302-1.873 4.175-4.174 4.175-2.303 0-4.174-1.873-4.174-4.175 0-2.29 1.854-4.153 4.137-4.172v1.894c0.004 0.179 0.105 0.35 0.277 0.432 0.19 0.091 0.41 0.048 0.551-0.093l0.001 0.003 2.81-2.809c0.377-0.379 0.377-0.993 0-1.372l-2.81-2.813v0.004c-0.142-0.14-0.362-0.183-0.552-0.093-0.172 0.082-0.273 0.252-0.277 0.43v1.896c-3.674 0.020-6.657 3.013-6.657 6.693 0 3.692 3.003 6.694 6.694 6.694 3.691 0 6.693-3.003 6.693-6.694 0-0.696-0.564-1.26-1.259-1.26z"></path>
</svg>
