<?xml version="1.0" encoding="utf-8"?>
<!-- Generated by IcoMoon.io -->
<!DOCTYPE svg PUBLIC "-//W3C//DTD SVG 1.1//EN" "http://www.w3.org/Graphics/SVG/1.1/DTD/svg11.dtd">
<svg version="1.1" xmlns="http://www.w3.org/2000/svg" xmlns:xlink="http://www.w3.org/1999/xlink" width="36" height="36" viewBox="0 0 36 36">
<path fill="#444" d="M33.192 7.306l-3.488 0.002 0.763-3.584c0.154-0.662-0.259-1.327-0.922-1.481-0.093-0.021-0.188-0.033-0.28-0.033-0.576 0-1.069 0.392-1.201 0.954l-0.893 4.147-2.041 0.001 0.063-0.411 0.675-3.179c0.155-0.662-0.258-1.327-0.92-1.481-0.093-0.021-0.188-0.033-0.28-0.033-0.576 0-1.071 0.392-1.201 0.954v0.005l-0.787 3.649-0.105 0.494h0.023v0.005l-3.695 0.005c-0.329 0-0.639 0.128-0.872 0.361-0.232 0.233-0.36 0.543-0.36 0.873 0 0.678 0.555 1.231 1.234 1.231l3.119-0.003-0.463 1.987-4.066 0.004c-0.33 0-0.639 0.128-0.872 0.362-0.232 0.233-0.36 0.543-0.36 0.871 0 0.68 0.554 1.232 1.234 1.232l3.487-0.002-0.735 3.762c-0.155 0.662 0.258 1.327 0.92 1.481 0.093 0.022 0.188 0.032 0.28 0.032 0.577 0 1.071-0.392 1.201-0.954l0.15-0.745 0.666-3.328 0.053-0.251h2.076l-0.494 2.237-0.159 0.771c-0.005 0.022-0.006 0.045-0.010 0.067-0.004 0.030-0.011 0.058-0.013 0.088l-0.119 0.601c-0.154 0.662 0.259 1.327 0.922 1.481 0.093 0.022 0.188 0.032 0.28 0.032 0.005 0 0.010-0.001 0.013-0.001s0.006 0.001 0.010 0.001c0.575 0 1.069-0.392 1.2-0.954l0.867-4.324h-0.002l0.001-0.007 3.695-0.004c0.329 0 0.638-0.129 0.872-0.362 0.232-0.233 0.36-0.543 0.36-0.871-0.002-0.68-0.556-1.232-1.234-1.232l-3.117 0.002 0.463-1.987 4.065-0.002c0.329 0 0.639-0.129 0.872-0.362s0.361-0.543 0.361-0.873c-0.003-0.678-0.555-1.231-1.235-1.231zM26.133 11.765l-2.042 0.002 0.463-1.988 2.043-0.001-0.464 1.987z"></path>
<path fill="#444" d="M12.482 8.872l-2.604-7.252c0 0-0.411-1.065-1.848-1.058l-1.974 0.269c0 0-6.498 0.842-5.664 8.719 0 0 3.019 18.906 24.037 25.298 0 0 8.358 2.817 10.669-3.885 0 0 0.274-1.308 0.566-2.896 0 0 0.23-0.839-0.859-1.568l-6.461-3.704c0 0-1.095-0.824-2.015 0.065 0 0-1.409 1.146-2.855 2.853l-0.624 0.811c0 0-0.365 0.46-1.347 0.105 0 0-6.326-2.030-12.083-11.613 0 0-0.505-0.728 0.494-1.7 0 0 1.083-0.87 2.376-2.319 0 0 0.716-0.56 0.312-1.719l-0.119-0.409z"></path>
</svg>
