<?xml version="1.0" encoding="utf-8"?>
<!-- Generated by IcoMoon.io -->
<!DOCTYPE svg PUBLIC "-//W3C//DTD SVG 1.1//EN" "http://www.w3.org/Graphics/SVG/1.1/DTD/svg11.dtd">
<svg version="1.1" xmlns="http://www.w3.org/2000/svg" xmlns:xlink="http://www.w3.org/1999/xlink" width="36" height="36" viewBox="0 0 36 36">
<path fill="#444" d="M12.482 8.872l-2.604-7.252c0 0-0.411-1.065-1.848-1.058l-1.975 0.269c0 0-6.497 0.842-5.664 8.719 0 0 3.019 18.906 24.037 25.298 0 0 8.357 2.817 10.667-3.885 0 0 0.274-1.308 0.566-2.896 0 0 0.231-0.839-0.859-1.568l-6.46-3.704c0 0-1.096-0.824-2.015 0.065 0 0-1.41 1.146-2.856 2.853l-0.624 0.811c0 0-0.365 0.46-1.347 0.105 0 0-6.326-2.030-12.083-11.613 0 0-0.504-0.728 0.494-1.7 0 0 1.083-0.87 2.376-2.319 0 0 0.716-0.56 0.312-1.719l-0.119-0.409z"></path>
<path fill="#444" d="M32.731 12.504c-0.356-0.363-0.98-0.366-1.339-0.011l-2.704 2.681v-11.183c0-0.524-0.426-0.95-0.95-0.95s-0.947 0.426-0.947 0.95v4.952c0 0.272-0.223 0.496-0.494 0.496-0.274 0-0.497-0.223-0.497-0.496v-5.916c0-0.523-0.424-0.95-0.947-0.95s-0.948 0.427-0.948 0.95v5.916c0 0.272-0.222 0.496-0.495 0.496-0.272 0-0.494-0.223-0.494-0.496v-4.952c0-0.524-0.426-0.95-0.947-0.95-0.523 0-0.95 0.426-0.95 0.95v5.917c-0.001 0.273-0.223 0.495-0.494 0.495-0.274 0-0.495-0.222-0.495-0.495v-3.518c0-0.524-0.425-0.95-0.948-0.95s-0.947 0.426-0.947 0.95v10.191c0 1.657 1.344 3.005 2.998 3.005h4.556c0.782 0 1.526-0.305 2.093-0.861l0.151-0.148 0.008 0.009 4.781-4.737c0.372-0.37 0.377-0.973 0.008-1.345z"></path>
</svg>
