<?xml version="1.0" encoding="utf-8"?>
<!-- Generated by IcoMoon.io -->
<!DOCTYPE svg PUBLIC "-//W3C//DTD SVG 1.1//EN" "http://www.w3.org/Graphics/SVG/1.1/DTD/svg11.dtd">
<svg version="1.1" xmlns="http://www.w3.org/2000/svg" xmlns:xlink="http://www.w3.org/1999/xlink" width="36" height="36" viewBox="0 0 36 36">
<path fill="#444" d="M31.885 8.532h-5.496c-0.476-1.359-1.772-2.342-3.287-2.342h-10.204c-1.518 0-2.811 0.984-3.29 2.342h-5.496c-1.915 0-3.485 1.569-3.485 3.487v14.303c0 1.918 1.57 3.487 3.485 3.487h27.773c1.919 0 3.487-1.569 3.487-3.487v-14.303c0-1.918-1.568-3.487-3.487-3.487zM18.026 27.717c-4.816 0-8.717-3.903-8.717-8.717s3.901-8.718 8.717-8.718c4.814 0 8.717 3.905 8.717 8.718s-3.903 8.717-8.717 8.717z"></path>
<path fill="#444" d="M18.18 26.211c-3.976 0-7.209-3.235-7.209-7.21 0-3.975 3.234-7.209 7.209-7.209s7.211 3.235 7.211 7.209c0 3.976-3.236 7.21-7.211 7.21zM18.18 13.185c-3.207 0-5.814 2.609-5.814 5.815s2.608 5.815 5.814 5.815c3.206 0 5.814-2.609 5.814-5.815s-2.608-5.815-5.814-5.815z"></path>
</svg>
