<?xml version="1.0" encoding="utf-8"?>
<!-- Generated by IcoMoon.io -->
<!DOCTYPE svg PUBLIC "-//W3C//DTD SVG 1.1//EN" "http://www.w3.org/Graphics/SVG/1.1/DTD/svg11.dtd">
<svg version="1.1" xmlns="http://www.w3.org/2000/svg" xmlns:xlink="http://www.w3.org/1999/xlink" width="36" height="36" viewBox="0 0 36 36">
<path fill="#444" d="M28.154 20.388c-1.524 0-2.766 1.24-2.766 2.765 0.016 1.536 1.255 2.765 2.766 2.765 1.51 0 2.751-1.229 2.763-2.741l0.001-0.024 0.001-0.032c0-1.493-1.242-2.734-2.765-2.734z"></path>
<path fill="#444" d="M7.861 20.388c-1.525 0-2.765 1.24-2.765 2.765 0.015 1.536 1.255 2.765 2.765 2.765s2.751-1.229 2.763-2.741l0.001-0.024 0.002-0.032c-0.001-1.493-1.243-2.734-2.767-2.734z"></path>
<path fill="#444" d="M34.821 21.215c-0.539-2.22-0.574-4.316-2.454-4.928-4.711-1.534-6.486-1.856-6.486-1.856s-2.122-2.13-2.961-2.842c-0.359-0.306-1.164-0.808-2.467-1.161-1.618-0.437-7.112-0.335-7.112-0.335-2.544 0-10.741 4.856-10.741 4.856-1.005 0.61-1.434 0.853-1.434 1.581l-0.015 4.702c-0.393 0.18-0.651 0.601-0.576 1.077 0.078 0.496 0.538 0.844 1.041 0.844h2.291c0.018-2.201 1.783-3.958 3.953-3.958 2.183 0 3.959 1.777 3.959 3.958h12.379c0.018-2.201 1.784-3.958 3.956-3.958 2.183 0 3.957 1.777 3.957 3.958h2.269c0.507 0 0.972-0.353 1.046-0.855 0.072-0.483-0.199-0.911-0.604-1.084zM14.096 14.692l-6.227-0.016 0.536-0.52c0 0 1.724-1.606 2.305-1.97 1.381-0.863 3.392-0.989 3.392-0.989l-0.006 3.495zM15.239 14.692l-0.007-3.491c0 0 3.739-0.052 5.254 0.487 1.345 0.479 3.248 2.429 3.248 2.429l0.595 0.575h-9.090z"></path>
</svg>
