<?xml version="1.0" encoding="utf-8"?>
<!-- Generated by IcoMoon.io -->
<!DOCTYPE svg PUBLIC "-//W3C//DTD SVG 1.1//EN" "http://www.w3.org/Graphics/SVG/1.1/DTD/svg11.dtd">
<svg version="1.1" xmlns="http://www.w3.org/2000/svg" xmlns:xlink="http://www.w3.org/1999/xlink" width="36" height="36" viewBox="0 0 36 36">
<path fill="#444" d="M14.533 25.050c-1.862 0-3.379 1.519-3.379 3.379 0 1.862 1.517 3.379 3.379 3.379 1.867 0 3.381-1.517 3.381-3.379-0-1.86-1.515-3.379-3.381-3.379z"></path>
<path fill="#444" d="M27.757 25.050c-1.868 0-3.383 1.519-3.383 3.379 0 1.862 1.515 3.381 3.383 3.381 1.864 0 3.381-1.519 3.381-3.381 0-1.86-1.517-3.379-3.381-3.379z"></path>
<path fill="#444" d="M31.54 24.482h-19.51c-0.422 0-0.801-0.262-0.949-0.658l-6.625-17.606h-2.815c-0.56 0-1.013-0.454-1.013-1.014 0-0.562 0.454-1.015 1.013-1.015h3.517c0.422 0 0.799 0.262 0.949 0.657l6.625 17.606h18.808c0.56 0 1.015 0.454 1.015 1.013-0 0.562-0.456 1.016-1.015 1.016z"></path>
<path fill="#444" d="M33.837 7.009h-25.128c0 0 4.555 12.15 4.632 12.379 0.343 1.015 0.801 1.23 1.658 1.23h16.813c0 0 1.6-5.627 3.379-11.012 0.060-0.177 0.181-0.791 0.181-0.951 0-0.872-0.662-1.646-1.536-1.646zM29.151 11.3l-9.050 6.683c-0.256 0.187-0.566 0.233-0.851 0.158-0.025-0.006-0.050-0.010-0.075-0.019-0.019-0.006-0.035-0.016-0.052-0.023-0.158-0.060-0.304-0.158-0.42-0.3l-2.091-2.462c-0.354-0.433-0.287-1.072 0.143-1.425 0.435-0.354 1.072-0.287 1.425 0.148l1.461 1.743 8.319-6.144c0.452-0.329 1.084-0.229 1.415 0.225 0.327 0.452 0.229 1.084-0.225 1.415z"></path>
</svg>
