<?xml version="1.0" encoding="utf-8"?>
<!-- Generated by IcoMoon.io -->
<!DOCTYPE svg PUBLIC "-//W3C//DTD SVG 1.1//EN" "http://www.w3.org/Graphics/SVG/1.1/DTD/svg11.dtd">
<svg version="1.1" xmlns="http://www.w3.org/2000/svg" xmlns:xlink="http://www.w3.org/1999/xlink" width="36" height="36" viewBox="0 0 36 36">
<path fill="#444" d="M14.533 25.049c-1.863 0-3.38 1.519-3.38 3.38 0 1.863 1.517 3.379 3.38 3.379 1.867 0 3.382-1.517 3.382-3.379 0-1.861-1.515-3.38-3.382-3.38z"></path>
<path fill="#444" d="M27.757 25.049c-1.867 0-3.386 1.519-3.386 3.38 0 1.863 1.519 3.382 3.386 3.382 1.865 0 3.38-1.519 3.38-3.382 0-1.861-1.515-3.38-3.38-3.38z"></path>
<path fill="#444" d="M31.541 24.482h-19.512c-0.421 0-0.8-0.263-0.948-0.656l-6.628-17.606h-2.813c-0.56 0-1.013-0.456-1.013-1.017 0-0.558 0.452-1.013 1.013-1.013h3.515c0.423 0 0.8 0.263 0.95 0.656l6.626 17.606h18.81c0.558 0 1.013 0.454 1.013 1.017 0 0.558-0.454 1.013-1.012 1.013z"></path>
<path fill="#444" d="M35.373 8.782c0 0.158-0.121 0.7-0.179 0.879-1.782 5.386-3.382 11.068-3.382 11.068h-16.814c-0.856 0-1.315-0.171-1.656-1.186-0.079-0.229-4.634-12.337-4.634-12.337h25.128c0.875-0 1.538 0.702 1.538 1.575zM19.004 11.776c0.181 0.188 0.404 0.279 0.669 0.279 0.45 0 0.756-0.267 0.915-0.8 0.171-0.51 0.381-0.898 0.625-1.161 0.246-0.262 0.631-0.394 1.15-0.394 0.444 0 0.808 0.129 1.090 0.39s0.421 0.581 0.421 0.958c0 0.194-0.044 0.373-0.137 0.54-0.092 0.167-0.204 0.317-0.34 0.45-0.133 0.135-0.354 0.335-0.656 0.6-0.346 0.302-0.621 0.565-0.825 0.785-0.202 0.219-0.367 0.475-0.488 0.765-0.123 0.292-0.186 0.638-0.186 1.033 0 0.319 0.085 0.556 0.252 0.717 0.169 0.16 0.375 0.242 0.621 0.242 0.473 0 0.754-0.246 0.844-0.738 0.052-0.231 0.092-0.394 0.117-0.488 0.027-0.092 0.065-0.183 0.113-0.275 0.046-0.094 0.119-0.194 0.215-0.306s0.227-0.24 0.385-0.387c0.583-0.521 0.988-0.89 1.21-1.108 0.227-0.223 0.421-0.483 0.583-0.786 0.165-0.304 0.244-0.656 0.244-1.056 0-0.513-0.142-0.986-0.427-1.421-0.288-0.436-0.694-0.779-1.219-1.033-0.525-0.252-1.131-0.379-1.817-0.379-0.738 0-1.384 0.152-1.936 0.454-0.556 0.304-0.975 0.685-1.265 1.146s-0.431 0.917-0.431 1.367c-0 0.219 0.089 0.421 0.273 0.606zM22.932 19.365c0.213-0.19 0.319-0.45 0.319-0.781 0-0.3-0.102-0.548-0.306-0.754-0.202-0.202-0.452-0.302-0.75-0.302-0.304 0-0.56 0.1-0.767 0.302-0.208 0.206-0.315 0.454-0.315 0.754 0 0.338 0.11 0.598 0.325 0.786 0.215 0.185 0.467 0.279 0.756 0.279 0.279 0 0.525-0.094 0.738-0.283z"></path>
</svg>
