<?xml version="1.0" encoding="utf-8"?>
<!-- Generated by IcoMoon.io -->
<!DOCTYPE svg PUBLIC "-//W3C//DTD SVG 1.1//EN" "http://www.w3.org/Graphics/SVG/1.1/DTD/svg11.dtd">
<svg version="1.1" xmlns="http://www.w3.org/2000/svg" xmlns:xlink="http://www.w3.org/1999/xlink" width="36" height="36" viewBox="0 0 36 36">
<path fill="#444" d="M14.527 25.063c-1.866 0-3.386 1.52-3.386 3.386 0 1.864 1.52 3.384 3.386 3.384 1.87 0 3.388-1.52 3.388-3.384 0-1.866-1.518-3.386-3.388-3.386z"></path>
<path fill="#444" d="M27.773 25.063c-1.868 0-3.388 1.52-3.388 3.386s1.52 3.386 3.388 3.386c1.87 0 3.388-1.519 3.388-3.386s-1.517-3.386-3.388-3.386z"></path>
<path fill="#444" d="M31.564 24.494h-19.545c-0.424 0-0.801-0.262-0.951-0.658l-6.639-17.639h-2.817c-0.563 0-1.017-0.454-1.017-1.017 0-0.561 0.455-1.015 1.017-1.015h3.519c0.426 0 0.803 0.262 0.953 0.658l6.639 17.637h18.841c0.563 0 1.017 0.457 1.017 1.017s-0.455 1.017-1.017 1.017z"></path>
<path fill="#444" d="M33.866 7.187h-25.175c0 0 4.563 12.13 4.64 12.358 0.345 1.017 0.801 1.187 1.661 1.187h16.846c0 0 1.603-5.69 3.388-11.085 0.058-0.181 0.178-0.722 0.178-0.882-0-0.874-0.662-1.578-1.538-1.578z"></path>
</svg>
