<?xml version="1.0" encoding="utf-8"?>
<!-- Generated by IcoMoon.io -->
<!DOCTYPE svg PUBLIC "-//W3C//DTD SVG 1.1//EN" "http://www.w3.org/Graphics/SVG/1.1/DTD/svg11.dtd">
<svg version="1.1" xmlns="http://www.w3.org/2000/svg" xmlns:xlink="http://www.w3.org/1999/xlink" width="36" height="36" viewBox="0 0 36 36">
<path fill="#444" d="M32.443 2.396h-14.796c-1.635 0-2.959 1.626-2.959 3.633v1.583h13.507c1.632 0 2.96 1.626 2.96 3.631v16.576h1.288c1.635 0 2.962-1.624 2.962-3.631v-18.159c0-2.007-1.328-3.633-2.962-3.633z"></path>
<path fill="#444" d="M26.601 9.566h-14.797c-1.635 0-2.96 1.627-2.96 3.631v18.161c0 2.005 1.325 3.634 2.96 3.634h14.797c1.635 0 2.96-1.629 2.96-3.634v-18.161c0-2.004-1.325-3.631-2.96-3.631zM13.396 16.74c0-0.361 0.239-0.653 0.533-0.653h7.433c0.296 0 0.533 0.293 0.533 0.653v1.954c0 0.361-0.237 0.652-0.533 0.652h-7.434c-0.295 0-0.533-0.291-0.533-0.652v-1.954zM18.176 29.124c0 0.361-0.237 0.652-0.529 0.652h-3.717c-0.295 0-0.533-0.291-0.533-0.652v-1.955c0-0.361 0.239-0.653 0.533-0.653h3.717c0.293 0 0.529 0.293 0.529 0.653v1.955zM25.614 23.909c0 0.36-0.239 0.651-0.53 0.651h-11.155c-0.295 0-0.533-0.291-0.533-0.651v-1.956c0-0.36 0.239-0.652 0.533-0.652h11.155c0.292 0 0.53 0.292 0.53 0.652v1.956z"></path>
<path fill="#444" d="M5.082 25.194c-3.95-3.206-5.537-9.45-3.769-14.849 0.929-2.828 2.678-5.121 4.885-6.454l-0.12-0.34-0.887-2.543 7.067 1.558-3.964 7.347-0.939-2.689c-1.495 0.951-2.676 2.531-3.308 4.468-1.246 3.814-0.129 8.221 2.661 10.484 0.589 0.484 0.807 1.402 0.553 2.182-0.038 0.111-0.085 0.22-0.138 0.324-0.449 0.83-1.364 1.062-2.040 0.511z"></path>
</svg>
