<?xml version="1.0" encoding="utf-8"?>
<!-- Generated by IcoMoon.io -->
<!DOCTYPE svg PUBLIC "-//W3C//DTD SVG 1.1//EN" "http://www.w3.org/Graphics/SVG/1.1/DTD/svg11.dtd">
<svg version="1.1" xmlns="http://www.w3.org/2000/svg" xmlns:xlink="http://www.w3.org/1999/xlink" width="36" height="36" viewBox="0 0 36 36">
<path fill="#444" d="M31.95 4.124h-27.9c-1.928 0-3.487 1.561-3.487 3.488v15.694c0 1.926 1.56 3.488 3.487 3.488h2.040v5.083l14.020-5.083h11.84c1.926 0 3.488-1.561 3.488-3.488v-15.694c0-1.926-1.562-3.488-3.488-3.488zM19.354 19.362h-11.694c-0.735 0-1.332-0.596-1.332-1.33s0.597-1.332 1.332-1.332h11.694c0.734 0 1.33 0.598 1.33 1.332s-0.596 1.33-1.33 1.33zM28.077 13.719h-20.418c-0.735 0-1.332-0.597-1.332-1.333 0-0.731 0.597-1.328 1.332-1.328h20.418c0.735 0 1.332 0.597 1.332 1.328 0 0.736-0.597 1.333-1.332 1.333z"></path>
</svg>
