<?xml version="1.0" encoding="utf-8"?>
<!-- Generated by IcoMoon.io -->
<!DOCTYPE svg PUBLIC "-//W3C//DTD SVG 1.1//EN" "http://www.w3.org/Graphics/SVG/1.1/DTD/svg11.dtd">
<svg version="1.1" xmlns="http://www.w3.org/2000/svg" xmlns:xlink="http://www.w3.org/1999/xlink" width="36" height="36" viewBox="0 0 36 36">
<path fill="#444" d="M14.519 25.087c-1.87 0-3.391 1.524-3.391 3.392 0 1.869 1.521 3.392 3.391 3.392 1.874 0 3.394-1.522 3.394-3.392-0-1.867-1.521-3.392-3.394-3.392z"></path>
<path fill="#444" d="M27.792 25.087c-1.873 0-3.394 1.524-3.394 3.392 0 1.87 1.521 3.394 3.394 3.394s3.394-1.524 3.394-3.394c-0-1.867-1.522-3.392-3.394-3.392z"></path>
<path fill="#444" d="M31.59 24.742h-19.582c-0.425 0-0.804-0.397-0.954-0.794l-6.65-17.806h-2.825c-0.562 0-1.017-0.367-1.017-0.93s0.455-0.93 1.017-0.93h3.527c0.425 0 0.804 0.397 0.952 0.794l6.651 17.806h18.879c0.563 0 1.018 0.367 1.018 0.93s-0.454 0.93-1.017 0.93z"></path>
<path fill="#444" d="M33.896 7.073h-25.224c0 0 4.573 12.342 4.65 12.57 0.345 1.021 0.803 1.38 1.664 1.38h16.878c0 0 1.606-5.839 3.394-11.245 0.059-0.179 0.18-0.844 0.18-1.004 0-0.875-0.665-1.701-1.541-1.701zM29.193 11.285l-9.083 6.71c-0.256 0.187-0.57 0.232-0.854 0.158-0.027-0.007-0.051-0.011-0.076-0.020-0.019-0.006-0.035-0.015-0.053-0.021-0.158-0.061-0.306-0.16-0.42-0.302l-2.1-2.469c-0.355-0.436-0.29-1.076 0.146-1.43 0.434-0.355 1.075-0.29 1.431 0.146l1.466 1.754 8.347-6.17c0.455-0.33 1.090-0.23 1.421 0.224s0.23 1.090-0.225 1.421z"></path>
</svg>
