<?xml version="1.0" encoding="utf-8"?>
<!-- Generated by IcoMoon.io -->
<!DOCTYPE svg PUBLIC "-//W3C//DTD SVG 1.1//EN" "http://www.w3.org/Graphics/SVG/1.1/DTD/svg11.dtd">
<svg version="1.1" xmlns="http://www.w3.org/2000/svg" xmlns:xlink="http://www.w3.org/1999/xlink" width="36" height="36" viewBox="0 0 36 36">
<path fill="#444" d="M27.705 11.816c-0.746-0.745-1.955-0.745-2.701 0l-9.894 9.897-4.504-4.496c0-0.002 0-0.002 0-0.006-0.732-0.745-1.944-0.745-2.692 0-0.747 0.748-0.76 1.956 0.007 2.701v0.003l7.194 7.195 12.591-12.596c0.743-0.732 0.742-1.951-0.001-2.697z"></path>
<path fill="#444" d="M18.001 0.563c-9.617 0-17.438 7.822-17.438 17.438 0 9.614 7.821 17.438 17.438 17.438 9.615 0 17.437-7.823 17.437-17.438 0-9.616-7.821-17.438-17.437-17.438zM18.001 31.899c-7.665 0-13.9-6.233-13.9-13.899 0-7.663 6.235-13.899 13.9-13.899 7.663 0 13.898 6.235 13.898 13.899 0 7.665-6.235 13.899-13.898 13.899z"></path>
</svg>
