<?xml version="1.0" encoding="utf-8"?>
<!-- Generated by IcoMoon.io -->
<!DOCTYPE svg PUBLIC "-//W3C//DTD SVG 1.1//EN" "http://www.w3.org/Graphics/SVG/1.1/DTD/svg11.dtd">
<svg version="1.1" xmlns="http://www.w3.org/2000/svg" xmlns:xlink="http://www.w3.org/1999/xlink" width="36" height="36" viewBox="0 0 36 36">
<path fill="#444" d="M34.307 6.402c-0.731-0.73-1.7-1.133-2.733-1.133s-2.003 0.403-2.73 1.129l-15.133 14.969-6.559-6.614c-0.729-0.731-1.699-1.134-2.732-1.134s-2.004 0.403-2.733 1.133c-0.442 0.441-0.76 0.969-0.946 1.564-0.109 0.346-0.168 0.706-0.178 1.070-0.010 0.423 0.050 0.845 0.177 1.255 0.188 0.603 0.505 1.135 0.946 1.577l9.515 9.563c0.707 0.611 1.605 0.949 2.528 0.949 0.060 0 0.121-0.002 0.178-0.004 0.838-0.039 1.631-0.351 2.291-0.904l18.108-17.955c1.507-1.508 1.507-3.958 0-5.466z"></path>
</svg>
