<?xml version="1.0" encoding="utf-8"?>
<!-- Generated by IcoMoon.io -->
<!DOCTYPE svg PUBLIC "-//W3C//DTD SVG 1.1//EN" "http://www.w3.org/Graphics/SVG/1.1/DTD/svg11.dtd">
<svg version="1.1" xmlns="http://www.w3.org/2000/svg" xmlns:xlink="http://www.w3.org/1999/xlink" width="36" height="36" viewBox="0 0 36 36">
<path fill="#444" d="M24.853 29.738h-20.173v-12.235l-0.944-0.946c-1.031-1.028-1.576-2.404-1.542-3.876 0.036-1.364 0.584-2.643 1.542-3.599 0.997-0.999 2.324-1.547 3.739-1.547 1.412 0 2.74 0.548 3.744 1.554l0.473 0.473h8.759l4.098-4.050h-23.921v28.28h28.28v-17.706l-4.055 4.019v9.633z"></path>
<path fill="#444" d="M34.512 3.066c-0.574-0.572-1.325-0.859-2.076-0.859s-1.504 0.287-2.076 0.859l-14.351 14.194-6.459-6.517c-0.574-0.574-1.323-0.862-2.076-0.862s-1.504 0.287-2.078 0.862c-0.345 0.343-0.582 0.753-0.717 1.185-0.082 0.266-0.128 0.541-0.135 0.813-0.007 0.323 0.039 0.647 0.135 0.956 0.135 0.439 0.372 0.852 0.717 1.197l8.713 8.761c0.519 0.451 1.19 0.722 1.921 0.722 0.046 0 0.089 0 0.135-0.003 0.666-0.031 1.265-0.292 1.74-0.685l0.367-0.369 16.239-16.101c1.146-1.149 1.146-3.007 0-4.154z"></path>
</svg>
