<?xml version="1.0" encoding="utf-8"?>
<!-- Generated by IcoMoon.io -->
<!DOCTYPE svg PUBLIC "-//W3C//DTD SVG 1.1//EN" "http://www.w3.org/Graphics/SVG/1.1/DTD/svg11.dtd">
<svg version="1.1" xmlns="http://www.w3.org/2000/svg" xmlns:xlink="http://www.w3.org/1999/xlink" width="36" height="36" viewBox="0 0 36 36">
<path fill="#444" d="M23.585 9.461h5.646l-7.671-7.059 0.020 5.083c0 1.104 0.899 1.975 2.005 1.975z"></path>
<path fill="#444" d="M23.585 11.576c-2.214 0-4.009-1.795-4.009-4.008v-6.973h-11.508c-1.925 0-3.486 1.56-3.486 3.485v27.84c0 1.926 1.561 3.486 3.486 3.486h19.865c1.925 0 3.485-1.56 3.485-3.486v-20.344h-7.833zM24.159 26.159l-9.039 6.677c-0.255 0.186-0.567 0.23-0.85 0.156-0.026-0.006-0.051-0.011-0.076-0.020-0.018-0.006-0.035-0.014-0.052-0.021-0.158-0.061-0.304-0.159-0.418-0.3l-2.090-2.457c-0.354-0.434-0.288-1.070 0.146-1.423s1.070-0.289 1.423 0.145l1.459 1.744 8.307-6.139c0.453-0.329 1.086-0.229 1.414 0.223s0.23 1.085-0.224 1.414zM26.346 21.835h-17.286c-0.577 0-1.046-0.468-1.046-1.046 0-0.579 0.469-1.046 1.046-1.046h17.286c0.579 0 1.046 0.467 1.046 1.046 0 0.577-0.468 1.046-1.046 1.046zM26.346 16.988h-17.286c-0.577 0-1.046-0.468-1.046-1.046s0.469-1.046 1.046-1.046h17.286c0.579 0 1.046 0.468 1.046 1.046s-0.468 1.046-1.046 1.046z"></path>
</svg>
