<?xml version="1.0" encoding="utf-8"?>
<!-- Generated by IcoMoon.io -->
<!DOCTYPE svg PUBLIC "-//W3C//DTD SVG 1.1//EN" "http://www.w3.org/Graphics/SVG/1.1/DTD/svg11.dtd">
<svg version="1.1" xmlns="http://www.w3.org/2000/svg" xmlns:xlink="http://www.w3.org/1999/xlink" width="36" height="36" viewBox="0 0 36 36">
<path fill="#444" d="M18 0.563c-9.631 0-17.438 7.807-17.438 17.437s7.807 17.438 17.438 17.438c9.631 0 17.438-7.808 17.438-17.438s-7.807-17.437-17.438-17.437zM27.706 14.513h-0.003l-12.588 12.596-7.199-7.198c-0.747-0.745-0.747-1.952 0-2.701 0.748-0.745 1.956-0.745 2.699 0 0 0.005 0 0.005 0 0.006l4.499 4.496 9.891-9.897c0.746-0.745 1.954-0.745 2.7 0 0.743 0.746 0.743 1.954 0 2.697z"></path>
</svg>
