<?xml version="1.0" encoding="utf-8"?>
<!-- Generated by IcoMoon.io -->
<!DOCTYPE svg PUBLIC "-//W3C//DTD SVG 1.1//EN" "http://www.w3.org/Graphics/SVG/1.1/DTD/svg11.dtd">
<svg version="1.1" xmlns="http://www.w3.org/2000/svg" xmlns:xlink="http://www.w3.org/1999/xlink" width="36" height="36" viewBox="0 0 36 36">
<path fill="#444" d="M27.242 8.601c0.109 0.361 0.166 0.75 0.166 1.165v2.337h-18.773v-2.337c0-0.413 0.083-0.818 0.23-1.207-1.010 0.392-1.732 1.373-1.732 2.523v21.582c0 1.497 1.215 2.709 2.709 2.709h16.317c1.495 0 2.709-1.213 2.709-2.709v-21.582c-0-1.109-0.669-2.064-1.626-2.481z"></path>
<path fill="#444" d="M26.483 9.765c0-0.514-0.12-0.988-0.341-1.39-0.422-0.769-1.227-1.279-2.368-1.318-1.738-0.057-2.143-1.677-2.143-2.82 0-1.992-1.616-3.611-3.609-3.611-1.994 0-3.611 1.618-3.611 3.611 0 1.137-0.883 2.82-2.121 2.82-0.007 0-0.015 0-0.020 0h-0.031c-0.817 0-1.714 0.533-2.236 1.318-0.269 0.407-0.442 0.883-0.442 1.39v1.412h16.923v-1.412zM18.021 2.716c0.531 0 0.958 0.429 0.958 0.958 0 0.531-0.428 0.958-0.958 0.958s-0.958-0.428-0.958-0.958c0-0.529 0.428-0.958 0.958-0.958z"></path>
</svg>
