<?xml version="1.0" encoding="utf-8"?>
<!-- Generated by IcoMoon.io -->
<!DOCTYPE svg PUBLIC "-//W3C//DTD SVG 1.1//EN" "http://www.w3.org/Graphics/SVG/1.1/DTD/svg11.dtd">
<svg version="1.1" xmlns="http://www.w3.org/2000/svg" xmlns:xlink="http://www.w3.org/1999/xlink" width="36" height="36" viewBox="0 0 36 36">
<path fill="#444" d="M18 0.795c-9.502 0-17.205 7.704-17.205 17.205s7.703 17.205 17.205 17.205 17.205-7.703 17.205-17.205c0-9.501-7.703-17.205-17.205-17.205zM18 31.534c-7.475 0-13.534-6.059-13.534-13.534s6.059-13.534 13.534-13.534c7.475 0 13.534 6.059 13.534 13.534s-6.059 13.534-13.534 13.534z"></path>
<path fill="#444" d="M18 7.219c-5.946 0-10.782 4.836-10.782 10.781s4.836 10.782 10.782 10.782c5.945 0 10.782-4.837 10.782-10.782s-4.837-10.781-10.782-10.781zM23.854 23.771c-0.363 0.421-0.875 0.636-1.39 0.636-0.425 0-0.851-0.146-1.197-0.445l-5.216-4.525c-0.404-0.348-0.609-0.856-0.609-1.389v-6.165c0-1.014 0.846-1.835 1.86-1.835s1.86 0.822 1.86 1.835v5.325l4.553 3.976c0.768 0.663 0.802 1.821 0.139 2.588z"></path>
</svg>
