<?xml version="1.0" encoding="utf-8"?>
<!-- Generated by IcoMoon.io -->
<!DOCTYPE svg PUBLIC "-//W3C//DTD SVG 1.1//EN" "http://www.w3.org/Graphics/SVG/1.1/DTD/svg11.dtd">
<svg version="1.1" xmlns="http://www.w3.org/2000/svg" xmlns:xlink="http://www.w3.org/1999/xlink" width="36" height="36" viewBox="0 0 36 36">
<path fill="#444" d="M18 0.795c-9.502 0-17.205 7.704-17.205 17.205s7.703 17.205 17.205 17.205 17.205-7.703 17.205-17.205c0-9.501-7.703-17.205-17.205-17.205zM18 31.534c-7.476 0-13.534-6.059-13.534-13.534s6.058-13.534 13.534-13.534c7.474 0 13.534 6.059 13.534 13.534s-6.060 13.534-13.534 13.534z"></path>
<path fill="#444" d="M24.656 23.492c-0.436 0.506-1.050 0.763-1.668 0.763-0.511 0-1.022-0.175-1.439-0.533l-6.283-3.843c-0.482-0.418-0.753-1.028-0.753-1.667v-7.398c0-1.216 0.877-2.202 2.093-2.202s2.093 0.985 2.093 2.202v6.39l5.629 3.183c0.921 0.794 1.125 2.185 0.33 3.106z"></path>
</svg>
