<?xml version="1.0" encoding="utf-8"?>
<!-- Generated by IcoMoon.io -->
<!DOCTYPE svg PUBLIC "-//W3C//DTD SVG 1.1//EN" "http://www.w3.org/Graphics/SVG/1.1/DTD/svg11.dtd">
<svg version="1.1" xmlns="http://www.w3.org/2000/svg" xmlns:xlink="http://www.w3.org/1999/xlink" width="36" height="36" viewBox="0 0 36 36">
<path fill="#444" d="M30.595 16.493c0.172-0.646 0.265-1.325 0.265-2.025 0-4.414-3.669-7.994-8.195-7.994-3.404 0-6.319 2.023-7.557 4.905-1.064-1.22-2.65-1.996-4.418-1.996-3.207 0-5.803 2.534-5.803 5.661 0 0.536 0.081 1.056 0.226 1.549-2.621 0.936-4.485 3.387-4.485 6.265 0 3.681 3.058 6.669 6.837 6.669h21.069c3.781 0 6.841-2.988 6.841-6.669 0-2.986-2.008-5.512-4.779-6.365z"></path>
</svg>
