<?xml version="1.0" encoding="utf-8"?>
<!-- Generated by IcoMoon.io -->
<!DOCTYPE svg PUBLIC "-//W3C//DTD SVG 1.1//EN" "http://www.w3.org/Graphics/SVG/1.1/DTD/svg11.dtd">
<svg version="1.1" xmlns="http://www.w3.org/2000/svg" xmlns:xlink="http://www.w3.org/1999/xlink" width="36" height="36" viewBox="0 0 36 36">
<path fill="#444" d="M30.174 10.722l-0.781-0.122-0.136-0.777c-0.528-2.933-3.071-5.063-6.052-5.063-1.018 0-1.987 0.239-2.884 0.718l-0.779 0.412-0.579-0.666c-1.41-1.63-3.457-2.564-5.609-2.564-4.032 0-7.289 3.152-7.419 7.184l-0.025 0.812-0.783 0.216c-2.649 0.74-4.498 3.177-4.498 5.922 0 3.139 2.354 5.768 5.471 6.114l0.363 0.041h4.181c0-0.008-0.002-0.008-0.002-0.012v-3.457c0-0.571-0.468-1.029-1.039-1.012l-0.513 0.012c-0.571 0.018-0.783-0.363-0.474-0.843l3.929-6.075c0.309-0.482 0.818-0.482 1.13 0l3.929 6.075c0.309 0.48 0.097 0.86-0.474 0.843l-0.32-0.008c-0.571-0.016-1.039 0.437-1.039 1.008v3.457c0 0.004 0 0.004 0 0.012h4.381v2.111c0 0.571-0.47 1.024-1.041 1.008l-0.32-0.008c-0.569-0.018-0.783 0.363-0.472 0.843l3.931 6.077c0.309 0.478 0.818 0.478 1.13-0.004l3.929-6.073c0.309-0.48 0.095-0.862-0.476-0.845l-0.513 0.012c-0.573 0.016-1.039-0.439-1.039-1.010v-2.111h3.941c3.393 0 6.153-2.762 6.153-6.155 0-3.049-2.187-5.601-5.199-6.073z"></path>
</svg>
