<?xml version="1.0" encoding="utf-8"?>
<!-- Generated by IcoMoon.io -->
<!DOCTYPE svg PUBLIC "-//W3C//DTD SVG 1.1//EN" "http://www.w3.org/Graphics/SVG/1.1/DTD/svg11.dtd">
<svg version="1.1" xmlns="http://www.w3.org/2000/svg" xmlns:xlink="http://www.w3.org/1999/xlink" width="36" height="36" viewBox="0 0 36 36">
<path fill="#444" d="M19.081 8.62h5.091l-6.917-6.363 0.021 4.582c0 0.996 0.807 1.781 1.805 1.781z"></path>
<path fill="#444" d="M33.77 32.79l-6.451-11.179c-0.25-0.434-0.688-0.725-1.177-0.804-0.086-0.015-0.176-0.026-0.262-0.026-0.594 0-1.144 0.321-1.439 0.83l-6.505 11.267c-0.297 0.514-0.297 1.153 0 1.663 0.293 0.514 0.847 0.832 1.441 0.832h13.011c0.916 0 1.661-0.746 1.661-1.663 0-0.329-0.095-0.643-0.279-0.919zM24.994 25.087v0c0-0.471 0.381-0.856 0.854-0.856 0.054 0 0.103 0.007 0.153 0.017 0.047 0.009 0.095 0.022 0.14 0.039 0.327 0.121 0.563 0.434 0.563 0.8v5.223c0 0.473-0.383 0.854-0.856 0.854-0.2 0-0.381-0.071-0.525-0.187-0.049-0.037-0.093-0.080-0.131-0.127-0.004-0.004-0.007-0.007-0.011-0.011-0.032-0.041-0.062-0.086-0.086-0.135-0.004-0.011-0.011-0.019-0.015-0.030-0.022-0.041-0.037-0.090-0.050-0.138-0.006-0.011-0.009-0.026-0.013-0.039-0.015-0.058-0.022-0.121-0.022-0.187v-5.223zM25.848 33.741c-0.518 0-0.94-0.42-0.94-0.94s0.422-0.942 0.94-0.942c0.521 0 0.942 0.422 0.942 0.942s-0.42 0.94-0.942 0.94z"></path>
<path fill="#444" d="M15.829 31.661l3.545-6.141h-5.193c-0.52 0-0.944-0.424-0.944-0.946 0-0.52 0.424-0.94 0.944-0.94h6.283l1.474-2.558c-0.114 0.049-0.237 0.075-0.368 0.075h-7.389c-0.52 0-0.944-0.422-0.944-0.942 0-0.523 0.424-0.944 0.944-0.944h7.389c0.493 0 0.89 0.378 0.934 0.86 0.759-1.103 2.022-1.777 3.375-1.777 0.086 0 0.176 0.004 0.263 0.011v-7.834h-7.062c-1.996 0-3.614-1.617-3.614-3.611v-6.287h-10.372c-1.736 0-3.143 1.407-3.143 3.143v25.095c0 1.734 1.407 3.141 3.143 3.141h10.563c0.054-0.118 0.105-0.234 0.172-0.346zM14.181 14.898h7.389c0.521 0 0.942 0.422 0.942 0.942s-0.42 0.942-0.942 0.942h-7.389c-0.52 0-0.944-0.422-0.944-0.942s0.424-0.942 0.944-0.942zM9.016 24.616v0.886c0 0.439-0.348 0.796-0.785 0.796-0.441 0-0.785-0.357-0.785-0.796v-0.83h-1.050c-0.441 0-0.796-0.348-0.796-0.787s0.355-0.785 0.796-0.785h1.91c1.362 0 1.742-0.192 1.742-0.936 0-0.74-0.419-0.953-1.495-1.086-2.187-0.275-3.028-0.944-3.028-2.558 0-1.073 0.662-2.643 2.863-2.751v-0.852c0-0.439 0.344-0.796 0.785-0.796s0.785 0.357 0.785 0.796v0.957h0.68c0.441 0 0.796 0.348 0.796 0.789 0 0.437-0.355 0.785-0.796 0.785h-1.936v-0.097c-1.256 0.002-1.463 0.576-1.463 1.181 0 0.731 0.596 0.826 1.624 0.959 1.923 0.249 2.936 0.847 2.936 2.652-0 1.297-0.585 2.308-2.783 2.474z"></path>
</svg>
