<?xml version="1.0" encoding="utf-8"?>
<!-- Generated by IcoMoon.io -->
<!DOCTYPE svg PUBLIC "-//W3C//DTD SVG 1.1//EN" "http://www.w3.org/Graphics/SVG/1.1/DTD/svg11.dtd">
<svg version="1.1" xmlns="http://www.w3.org/2000/svg" xmlns:xlink="http://www.w3.org/1999/xlink" width="36" height="36" viewBox="0 0 36 36">
<path fill="#444" d="M22.993 11.021c0-2.789-2.213-5.058-4.934-5.058s-4.936 2.269-4.936 5.058c0 2.789 2.215 5.057 4.936 5.057s4.934-2.269 4.934-5.057z"></path>
<path fill="#444" d="M23.836 17.608l-1.691-0.449c-1.096 0.967-2.521 1.555-4.081 1.558-1.56-0.003-2.984-0.591-4.084-1.558l-1.691 0.449c-1.803 0.503-2.392 1.261-2.245 2.247l1.347 8.626c0.199 1.344 1.007 2.306 2.248 2.306h8.85c1.242 0 2.048-0.963 2.246-2.306l1.347-8.596c0.148-0.986-0.442-1.775-2.246-2.278z"></path>
<path fill="#444" d="M29.627 12.692c1.966 0 3.564-1.638 3.564-3.652s-1.599-3.652-3.564-3.652c-1.965 0-3.564 1.639-3.564 3.652s1.599 3.652 3.564 3.652z"></path>
<path fill="#444" d="M33.8 14.155l-1.221-0.324c-0.793 0.697-1.822 1.123-2.948 1.125-1.126-0.002-2.155-0.427-2.948-1.125l-1.222 0.324c-1.302 0.364-1.728 0.911-1.622 1.622l0.022 0.129 1.622 0.431c2.979 0.83 3.383 2.358 3.195 3.604l-0.555 3.407h4.703c0.897 0 1.48-0.533 1.623-1.502l0.973-6.127c0.106-0.711-0.32-1.199-1.622-1.563z"></path>
<path fill="#444" d="M6.373 12.692c-1.965 0-3.564-1.638-3.564-3.652s1.599-3.652 3.564-3.652c1.965 0 3.564 1.639 3.564 3.652s-1.599 3.652-3.564 3.652z"></path>
<path fill="#444" d="M2.2 14.155l1.222-0.324c0.793 0.697 1.822 1.123 2.948 1.125 1.126-0.002 2.155-0.427 2.948-1.125l1.221 0.324c1.302 0.364 1.728 0.911 1.623 1.622l-0.020 0.129-1.622 0.431c-2.979 0.83-3.383 2.358-3.196 3.604l0.555 3.407h-4.703c-0.897 0-1.479-0.533-1.622-1.502l-0.973-6.127c-0.106-0.711 0.319-1.199 1.622-1.563z"></path>
</svg>
