<?xml version="1.0" encoding="utf-8"?>
<!-- Generated by IcoMoon.io -->
<!DOCTYPE svg PUBLIC "-//W3C//DTD SVG 1.1//EN" "http://www.w3.org/Graphics/SVG/1.1/DTD/svg11.dtd">
<svg version="1.1" xmlns="http://www.w3.org/2000/svg" xmlns:xlink="http://www.w3.org/1999/xlink" width="36" height="36" viewBox="0 0 36 36">
<path fill="#444" d="M35.112 15.944c-0.223-0.113-0.354-0.010-0.671 0.076l-12.75 4.748c-0.186 0.072-0.611 0.184-0.888 0.184-0.283 0-0.556-0.052-0.814-0.144l-1.794-0.67 1.108 3.883c0.664 2.327-0.691 4.801-3.023 5.467l-1.169 0.37h17.441c1.621 0 2.886-1.438 2.886-3.117v-10.226c0-0.244-0.11-0.464-0.325-0.571z"></path>
<path fill="#444" d="M34.017 9.863h-18.8l2.296 7.969c1.361 0.51 2.307 0.825 2.307 0.825 0.318 0.094 0.663 0.21 0.98 0.217 0.318-0.007 0.662-0.152 0.979-0.246 0 0 11.954-4.493 12.010-4.514 1.576-0.59 1.647-0.517 1.647-1.626 0-0.287 0-1.261 0-1.261 0-0.84-0.609-1.363-1.42-1.363z"></path>
<path fill="#444" d="M7.794 29.569l7.857-2.24c1.126-0.322 1.787-1.505 1.467-2.63l-4.518-15.837c-0.32-1.124-1.505-1.782-2.632-1.46l-5.109 1.456-0.435-1.523c-0.214-0.752-1.001-1.188-1.755-0.973s-1.192 1-0.978 1.753l0.435 1.523-0.015 0.004c-1.128 0.322-1.787 1.505-1.467 2.63l4.517 15.837c0.319 1.124 1.505 1.78 2.633 1.459zM8.614 27.075c-0.754 0.215-1.541-0.222-1.757-0.977s0.222-1.541 0.977-1.757c0.754-0.215 1.54 0.222 1.757 0.978 0.216 0.754-0.222 1.541-0.977 1.756zM7.25 22.291c-0.755 0.215-1.542-0.222-1.757-0.976-0.215-0.756 0.223-1.541 0.976-1.757 0.756-0.215 1.541 0.222 1.757 0.977 0.214 0.754-0.223 1.541-0.976 1.756zM13.699 25.624c-0.755 0.215-1.541-0.222-1.757-0.978-0.215-0.754 0.223-1.541 0.977-1.756s1.541 0.221 1.756 0.977c0.216 0.755-0.221 1.542-0.977 1.757zM12.334 20.841c-0.756 0.215-1.541-0.222-1.756-0.977-0.216-0.755 0.221-1.54 0.976-1.756s1.541 0.222 1.756 0.977c0.216 0.754-0.223 1.54-0.977 1.756zM3.533 14.501c-0.321-1.124 0.339-2.307 1.467-2.629l3.735-1.066c1.128-0.322 2.312 0.336 2.632 1.46l0.374 1.311c0.321 1.124-0.339 2.307-1.467 2.629l-3.735 1.065c-1.127 0.322-2.312-0.335-2.633-1.46l-0.373-1.31z"></path>
</svg>
