<?xml version="1.0" encoding="utf-8"?>
<!-- Generated by IcoMoon.io -->
<!DOCTYPE svg PUBLIC "-//W3C//DTD SVG 1.1//EN" "http://www.w3.org/Graphics/SVG/1.1/DTD/svg11.dtd">
<svg version="1.1" xmlns="http://www.w3.org/2000/svg" xmlns:xlink="http://www.w3.org/1999/xlink" width="36" height="36" viewBox="0 0 36 36">
<path fill="#444" d="M7.277 19.261c-0.84 4.428 1.404 8.885 5.458 10.835 0.782 0.38 1.616 0.652 2.477 0.817 5.402 1.024 10.627-2.535 11.654-7.935 0.838-4.426-1.404-8.884-5.46-10.841-0.784-0.376-1.616-0.65-2.479-0.813-5.4-1.024-10.624 2.533-11.65 7.937zM18.508 13.543c0.667 0.126 1.313 0.338 1.916 0.63 3.138 1.511 4.873 4.962 4.225 8.385-0.795 4.178-4.839 6.932-9.019 6.135-0.665-0.126-1.313-0.334-1.918-0.625-3.135-1.511-4.867-4.962-4.221-8.387 0.797-4.178 4.836-6.93 9.016-6.137z"></path>
<path fill="#444" d="M2.88 32.086c-0.66 0.448-1.558 0.272-2.006-0.388-0.097-0.144-0.163-0.299-0.204-0.458-0.14-0.57 0.076-1.197 0.594-1.548l5.185-3.493 1.618 2.392-5.187 3.495z"></path>
<path fill="#444" d="M18.312 14.565c-0.411-0.076-0.832-0.116-1.245-0.116-0.318 0-0.627 0.027-0.933 0.070v2.401h-4.24c-0.679 0.836-1.166 1.839-1.381 2.954-0.297 1.585-0.004 3.171 0.743 4.504h11.628c0.347-0.615 0.601-1.29 0.741-2.015 0.454-2.394-0.44-4.797-2.229-6.325v0.553c0 0.124-0.105 0.231-0.237 0.231h-2.213c-0.13 0-0.237-0.107-0.237-0.231v-1.936c-0.13-0.033-0.262-0.062-0.396-0.091zM18.946 18.865h2.213c0.132 0 0.237 0.103 0.237 0.229v2.803c0 0.128-0.105 0.231-0.237 0.231h-2.213c-0.13 0-0.237-0.103-0.237-0.231v-2.803c0-0.126 0.107-0.229 0.237-0.229z"></path>
<path fill="#444" d="M34.248 22.128h-0.018v-16.415c0-0.514-0.423-0.937-0.939-0.937h-6.634c-0.514 0-0.937-0.248-0.937-0.555 0-0.303-0.421-0.555-0.937-0.555h-4.679c-0.516 0-0.937 0.252-0.937 0.555 0 0.307-0.421 0.555-0.937 0.555h-1.156c-0.514 0-0.937 0.423-0.937 0.937v4.434c0.31-0.025 0.617-0.039 0.933-0.039 0.545 0 1.096 0.043 1.643 0.124v-1.752c0-0.124 0.107-0.231 0.235-0.231h2.213c0.132 0 0.237 0.107 0.237 0.231v2.518c0.155 0.066 0.308 0.128 0.46 0.202 1.234 0.594 2.316 1.4 3.216 2.355h1.216c0.13 0 0.235 0.105 0.235 0.229v1.699c1.342 2.256 1.881 4.977 1.364 7.689-0.078 0.413-0.18 0.813-0.304 1.205h6.663c0.403 0 0.751-0.215 0.952-0.53 0.107-0.173 0.173-0.374 0.173-0.594-0-0.619-0.506-1.125-1.125-1.125zM26.523 11.285c0 0.126-0.105 0.231-0.235 0.231h-2.215c-0.13 0-0.233-0.105-0.233-0.231v-2.805c0-0.124 0.103-0.231 0.233-0.231h2.215c0.13 0 0.235 0.107 0.235 0.231v2.805zM31.653 21.897c0 0.128-0.107 0.231-0.235 0.231h-2.213c-0.132 0-0.237-0.103-0.237-0.231v-2.801c0-0.13 0.105-0.231 0.237-0.231h2.213c0.128 0 0.235 0.101 0.235 0.231v2.801zM31.653 16.592c0 0.126-0.107 0.229-0.235 0.229h-2.213c-0.132 0-0.237-0.103-0.237-0.229v-2.807c0-0.124 0.105-0.229 0.237-0.229h2.213c0.128 0 0.235 0.105 0.235 0.229v2.807zM31.653 11.285c0 0.126-0.107 0.231-0.235 0.231h-2.213c-0.132 0-0.237-0.105-0.237-0.231v-2.805c0-0.124 0.105-0.231 0.237-0.231h2.213c0.128 0 0.235 0.107 0.235 0.231v2.805z"></path>
</svg>
