<?xml version="1.0" encoding="utf-8"?>
<!-- Generated by IcoMoon.io -->
<!DOCTYPE svg PUBLIC "-//W3C//DTD SVG 1.1//EN" "http://www.w3.org/Graphics/SVG/1.1/DTD/svg11.dtd">
<svg version="1.1" xmlns="http://www.w3.org/2000/svg" xmlns:xlink="http://www.w3.org/1999/xlink" width="36" height="36" viewBox="0 0 36 36">
<path fill="#444" d="M26.831 11.189c0-0.957-0.776-1.731-1.733-1.731h-13.851c-0.957 0-1.733 0.774-1.733 1.731v13.854c0 0.957 0.776 1.733 1.733 1.733h13.851c0.957 0 1.733-0.776 1.733-1.733v-13.854z"></path>
<path fill="#444" d="M34.333 16.383c0.576 0 1.040-0.464 1.040-1.036 0-0.575-0.464-1.040-1.040-1.040h-2.306v-3.465h2.306c0.576 0 1.040-0.462 1.040-1.038 0-0.573-0.464-1.040-1.040-1.040h-2.306v-1.155c0-1.904-1.733-3.346-3.639-3.346h-1.211v-2.597c0-0.573-0.466-1.040-1.040-1.040s-1.037 0.466-1.037 1.040v2.597h-3.463v-2.597c0-0.573-0.466-1.040-1.040-1.040s-1.040 0.466-1.040 1.040v2.597h-3.115v-2.597c0-0.573-0.468-1.040-1.040-1.040-0.576 0-1.040 0.466-1.040 1.040v2.597h-3.463v-2.597c0-0.573-0.466-1.040-1.040-1.040s-1.038 0.466-1.038 1.040v2.597h-1.213c-1.904 0-3.29 1.442-3.29 3.346v1.155h-2.653c-0.576 0-1.040 0.466-1.040 1.040 0 0.576 0.464 1.038 1.040 1.038h2.653v3.465h-2.653c-0.576 0-1.040 0.464-1.040 1.040 0 0.571 0.464 1.036 1.040 1.036h2.653v3.465h-2.653c-0.576 0-1.040 0.464-1.040 1.040 0 0.573 0.464 1.040 1.040 1.040h2.653v3.115h-2.653c-0.576-0-1.040 0.466-1.040 1.040s0.464 1.040 1.040 1.040h2.653v1.269c0 1.904 1.386 3.579 3.29 3.579h1.213v2.364c0 0.574 0.464 1.040 1.038 1.040s1.040-0.466 1.040-1.040v-2.364h3.463v2.364c0 0.574 0.464 1.040 1.040 1.040 0.571 0 1.040-0.466 1.040-1.040v-2.364h3.115v2.364c0 0.574 0.466 1.040 1.040 1.040s1.040-0.466 1.040-1.040v-2.364h3.463v2.364c0 0.574 0.464 1.040 1.037 1.040s1.040-0.466 1.040-1.040v-2.364h1.211c1.906 0 3.639-1.675 3.639-3.579v-1.269h2.306c0.576 0 1.040-0.466 1.040-1.040s-0.464-1.040-1.040-1.040h-2.306v-3.115h2.306c0.576 0 1.040-0.466 1.040-1.040 0-0.576-0.464-1.040-1.040-1.040h-2.306v-3.465h2.306zM29.948 28.506c0 0.765-0.621 1.386-1.386 1.386h-20.778c-0.765 0-1.384-0.621-1.384-1.386v-20.78c0-0.765 0.619-1.384 1.384-1.384h20.778c0.765 0 1.386 0.619 1.386 1.384v20.78z"></path>
</svg>
