<?xml version="1.0" encoding="utf-8"?>
<!-- Generated by IcoMoon.io -->
<!DOCTYPE svg PUBLIC "-//W3C//DTD SVG 1.1//EN" "http://www.w3.org/Graphics/SVG/1.1/DTD/svg11.dtd">
<svg version="1.1" xmlns="http://www.w3.org/2000/svg" xmlns:xlink="http://www.w3.org/1999/xlink" width="36" height="36" viewBox="0 0 36 36">
<path fill="#444" d="M28.866 3.452l3.682 3.682-13.425 13.425-3.682-3.682 13.425-13.425z"></path>
<path fill="#444" d="M14.444 17.872l-3.954 7.638 7.638-3.954z"></path>
<path fill="#444" d="M35.028 2.665l-1.693-1.693c-0.549-0.547-1.443-0.547-1.991 0l-1.483 1.483 3.683 3.684 1.484-1.483c0.547-0.547 0.547-1.443 0-1.991z"></path>
<path fill="#444" d="M27.532 29.393c0 1.279-1.046 2.325-2.325 2.325h-18.6c-1.278 0-2.325-1.046-2.325-2.325v-18.6c0-1.279 1.047-2.325 2.325-2.325h13.297l3.72-3.72h-17.017c-3.333 0-6.045 2.712-6.045 6.045v18.6c0 3.333 2.712 6.045 6.045 6.045h18.6c3.333 0 6.045-2.712 6.045-6.045v-17.016l-3.72 3.72v13.297z"></path>
</svg>
