<?xml version="1.0" encoding="utf-8"?>
<!-- Generated by IcoMoon.io -->
<!DOCTYPE svg PUBLIC "-//W3C//DTD SVG 1.1//EN" "http://www.w3.org/Graphics/SVG/1.1/DTD/svg11.dtd">
<svg version="1.1" xmlns="http://www.w3.org/2000/svg" xmlns:xlink="http://www.w3.org/1999/xlink" width="36" height="36" viewBox="0 0 36 36">
<path fill="#444" d="M20.627 16.645c0.746 1.455 0.174 3.233-1.281 3.985-1.455 0.74-3.232 0.178-3.978-1.279-0.742-1.453-0.172-3.237 1.276-3.985 1.449-0.738 3.237-0.174 3.983 1.278z"></path>
<path fill="#444" d="M7.246 31.543c-0.439 0-0.885-0.17-1.223-0.506-3.481-3.483-5.396-8.114-5.396-13.038 0-4.925 1.915-9.555 5.4-13.038 0.673-0.673 1.77-0.673 2.441 0 0.678 0.675 0.678 1.77 0 2.443-2.828 2.83-4.389 6.591-4.389 10.595s1.558 7.762 4.389 10.593c0.675 0.673 0.675 1.77 0 2.445-0.336 0.336-0.781 0.506-1.222 0.506z"></path>
<path fill="#444" d="M28.75 31.543c-0.439 0-0.883-0.17-1.22-0.506-0.675-0.675-0.675-1.772 0-2.445 2.828-2.826 4.387-6.589 4.387-10.593s-1.558-7.764-4.389-10.595c-0.676-0.673-0.676-1.768 0-2.443 0.675-0.673 1.77-0.673 2.445 0 3.481 3.483 5.4 8.112 5.4 13.038 0 4.927-1.919 9.557-5.4 13.038-0.336 0.336-0.779 0.506-1.223 0.506z"></path>
<path fill="#444" d="M12.414 25.443c-0.477 0-0.951-0.182-1.314-0.545-1.842-1.842-2.86-4.291-2.86-6.898s1.017-5.058 2.86-6.9c0.725-0.725 1.904-0.725 2.632 0 0.725 0.725 0.725 1.906-0.004 2.632-1.135 1.14-1.765 2.654-1.765 4.268 0 1.612 0.63 3.129 1.77 4.268 0.725 0.725 0.725 1.904-0.004 2.63-0.361 0.363-0.837 0.545-1.314 0.545z"></path>
<path fill="#444" d="M23.584 25.443c-0.474 0-0.951-0.182-1.316-0.545-0.725-0.725-0.729-1.904 0-2.63 1.14-1.14 1.768-2.656 1.768-4.268 0-1.614-0.628-3.129-1.768-4.268-0.729-0.725-0.729-1.902-0.002-2.63 0.725-0.727 1.904-0.727 2.63-0.002 1.844 1.842 2.859 4.289 2.859 6.9 0 2.607-1.015 5.056-2.855 6.898-0.365 0.363-0.841 0.545-1.316 0.545z"></path>
</svg>
