<?xml version="1.0" encoding="utf-8"?>
<!-- Generated by IcoMoon.io -->
<!DOCTYPE svg PUBLIC "-//W3C//DTD SVG 1.1//EN" "http://www.w3.org/Graphics/SVG/1.1/DTD/svg11.dtd">
<svg version="1.1" xmlns="http://www.w3.org/2000/svg" xmlns:xlink="http://www.w3.org/1999/xlink" width="36" height="36" viewBox="0 0 36 36">
<path fill="#444" d="M33.208 11.441c1.231 0 2.229-0.997 2.229-2.23v-1.479c0-1.229-0.999-2.228-2.229-2.228-0.108 0-0.214 0.010-0.317 0.026v5.885c0.104 0.015 0.21 0.025 0.317 0.025z"></path>
<path fill="#444" d="M33.208 18.739c1.231 0 2.229-0.998 2.229-2.229v-1.479c0-1.232-0.999-2.229-2.229-2.229-0.108 0-0.214 0.010-0.317 0.025v5.885c0.104 0.016 0.21 0.026 0.317 0.026z"></path>
<path fill="#444" d="M33.208 26.279c1.231 0 2.229-0.998 2.229-2.229v-1.478c0-1.232-0.999-2.229-2.229-2.229-0.108 0-0.214 0.010-0.317 0.025v5.885c0.104 0.015 0.21 0.026 0.317 0.026z"></path>
<path fill="#444" d="M29.427 1.756h-27.022c-1.017 0-1.842 1.090-1.842 2.434v27.617c0 1.346 0.825 2.436 1.842 2.436h27.022c1.019 0 1.843-1.090 1.843-2.436v-27.618c0-1.344-0.825-2.434-1.843-2.434zM15.853 8.275c2.206 0 4.002 1.84 4.002 4.102s-1.796 4.102-4.002 4.102c-2.208 0-4.004-1.841-4.004-4.102s1.796-4.102 4.004-4.102zM22.361 18.494l-1.093 6.949c-0.161 1.089-0.816 1.821-1.823 1.821h-7.178c-1.006 0-1.661-0.732-1.821-1.821l-1.094-6.949c-0.119-0.8 0.359-1.414 1.822-1.823l1.371-0.362c0.891 0.782 2.047 1.26 3.311 1.262 1.266-0.003 2.42-0.48 3.311-1.262l1.371 0.362c1.463 0.409 1.942 1.024 1.823 1.823z"></path>
</svg>
