<?xml version="1.0" encoding="utf-8"?>
<!-- Generated by IcoMoon.io -->
<!DOCTYPE svg PUBLIC "-//W3C//DTD SVG 1.1//EN" "http://www.w3.org/Graphics/SVG/1.1/DTD/svg11.dtd">
<svg version="1.1" xmlns="http://www.w3.org/2000/svg" xmlns:xlink="http://www.w3.org/1999/xlink" width="36" height="36" viewBox="0 0 36 36">
<path fill="#444" d="M29.185 23.734c-0.655-1.608-1.654-0.856-2.313 0.131-1.373 2.060-2.625 2.203-4.019 0.041-1.008-1.554-2.074-1.304-3.027 0.19-0.587 0.924-1.168 1.398-1.753 1.425-0.016 0-0.029 0.011-0.043 0.011-0.016 0-0.029-0.011-0.043-0.011-0.585-0.027-1.168-0.501-1.755-1.425-0.953-1.493-2.020-1.744-3.025-0.19-1.396 2.162-2.647 2.020-4.021-0.041-0.66-0.987-1.656-1.739-2.313-0.131-0.495 1.215-0.395 2.831 0.063 4.349l0.924 3.838c0.379 1.807 1.141 3.452 2.546 3.452h15.25c1.401 0 2.083-1.667 2.539-3.452l0.929-3.833c0.456-1.52 0.56-3.138 0.061-4.353z"></path>
<path fill="#444" d="M27.263 15.247c-2.006-0.011-4.014-0.002-6.022 0.002-0.931 0-1.866-0.002-2.801 0-0.933-0.002-1.868 0-2.803 0-2.004-0.004-4.012-0.013-6.020-0.002-3.544 0.025-5.345 0.431-4.997 5.376 0.106 1.475 0.865 2.379 1.999 1.105 1.168-1.319 2.198-0.811 3.074 0.535 1.039 1.597 2.058 1.886 3.142 0.178 1.303-2.047 2.514-1.825 3.777 0.102 0.018 0.023 0.032 0.039 0.045 0.061l0.016 0.043c0.411 0.657 0.834 0.951 1.247 0.983 0.036 0.005 0.075 0.007 0.111 0.009 0.034-0.002 0.072-0.005 0.108-0.009 0.416-0.032 0.836-0.325 1.247-0.983l0.016-0.043c0.013-0.023 0.029-0.039 0.045-0.061 1.263-1.927 2.476-2.148 3.775-0.102 1.087 1.708 2.105 1.419 3.147-0.178 0.877-1.346 1.904-1.855 3.072-0.535 1.132 1.274 1.81 0.275 1.913-1.2 0.35-4.945-0.544-5.257-4.091-5.281z"></path>
<path fill="#444" d="M19.564 12.259c0 0.779-0.501 1.412-1.123 1.412-0.619 0-1.12-0.632-1.12-1.412v-4.233c0-0.779 0.501-1.41 1.12-1.41 0.621 0 1.123 0.63 1.123 1.41v4.233z"></path>
<path fill="#444" d="M19.973 3.476c-0.007 1.26-0.806 2.166-1.645 2.069-0.809-0.095-1.563-1.197-1.396-2.13 0.167-0.928 0.664-1.724 1.172-2.503 0.246-0.375 0.459-0.379 0.691-0.011 0.535 0.861 1.111 1.708 1.177 2.575z"></path>
</svg>
