<?xml version="1.0" encoding="utf-8"?>
<!-- Generated by IcoMoon.io -->
<!DOCTYPE svg PUBLIC "-//W3C//DTD SVG 1.1//EN" "http://www.w3.org/Graphics/SVG/1.1/DTD/svg11.dtd">
<svg version="1.1" xmlns="http://www.w3.org/2000/svg" xmlns:xlink="http://www.w3.org/1999/xlink" width="36" height="36" viewBox="0 0 36 36">
<path fill="#444" d="M34.446 16.215c0-1.902-1.554-3.458-3.456-3.458h-6.975v-8.675c0-1.9-1.552-3.454-3.454-3.454h-15.552c-1.902 0-3.456 1.554-3.456 3.454v22.464c0 1.902 1.554 3.456 3.456 3.456h10.423v1.916c0 1.9 1.554 3.456 3.456 3.456h12.096c1.902 0 3.454-1.556 3.454-3.456v-2.006c0-0.94-0.38-1.795-0.995-2.418 0.619-0.625 1.003-1.484 1.003-2.43v-2.002c0-0.942-0.382-1.797-0.997-2.422 0.615-0.625 0.997-1.48 0.997-2.422v-2.002zM4.226 11.207v-6.174c0-0.853 0.697-1.548 1.548-1.548h14.181c0.853 0 1.55 0.695 1.55 1.548v6.174c0 0.853-0.697 1.55-1.55 1.55h-14.181c-0.851 0-1.548-0.697-1.548-1.55zM8.815 27.114c0 0.259-0.208 0.467-0.467 0.467h-1.871c-0.259 0-0.467-0.208-0.467-0.467v-1.871c0-0.259 0.208-0.469 0.467-0.469h1.871c0.259 0 0.467 0.21 0.467 0.469v1.871zM8.815 22.557c0 0.257-0.208 0.467-0.467 0.467h-1.871c-0.259 0-0.467-0.21-0.467-0.467v-1.869c0-0.259 0.208-0.471 0.467-0.471h1.871c0.259 0 0.467 0.212 0.467 0.471v1.869zM8.815 17.999c0 0.259-0.208 0.467-0.467 0.467h-1.871c-0.259 0-0.467-0.208-0.467-0.467v-1.871c0-0.259 0.208-0.469 0.467-0.469h1.871c0.259 0 0.467 0.21 0.467 0.469v1.871zM14.425 27.114c0 0.259-0.208 0.467-0.467 0.467h-1.873c-0.255 0-0.465-0.208-0.465-0.467v-1.871c0-0.259 0.21-0.469 0.465-0.469h1.873c0.259 0 0.467 0.21 0.467 0.469v1.871zM14.425 22.557c0 0.257-0.208 0.467-0.467 0.467h-1.873c-0.255 0-0.465-0.21-0.465-0.467v-1.869c0-0.259 0.21-0.471 0.465-0.471h1.873c0.259 0 0.467 0.212 0.467 0.471v1.869zM14.425 17.999c0 0.259-0.208 0.467-0.467 0.467h-1.873c-0.255 0-0.465-0.208-0.465-0.467v-1.871c0-0.259 0.21-0.469 0.465-0.469h1.873c0.259 0 0.467 0.21 0.467 0.469v1.871zM32.366 31.917c0 0.748-0.633 1.382-1.381 1.382h-12.096c-0.75 0-1.384-0.633-1.384-1.382v-2.006c0-0.748 0.633-1.382 1.384-1.382h12.096c0.748 0 1.381 0.633 1.381 1.382v2.006zM32.374 25.063c0 0.75-0.635 1.384-1.384 1.384h-12.096c-0.748 0-1.382-0.633-1.382-1.384v-2.002c0-0.748 0.633-1.382 1.382-1.382h12.096c0.748 0 1.384 0.633 1.384 1.382v2.002zM32.374 18.217c0 0.75-0.635 1.384-1.384 1.384h-12.096c-0.748 0-1.382-0.633-1.382-1.384v-2.002c0-0.75 0.633-1.386 1.382-1.386h12.096c0.748 0 1.384 0.635 1.384 1.386v2.002z"></path>
</svg>
