<?xml version="1.0" encoding="utf-8"?>
<!-- Generated by IcoMoon.io -->
<!DOCTYPE svg PUBLIC "-//W3C//DTD SVG 1.1//EN" "http://www.w3.org/Graphics/SVG/1.1/DTD/svg11.dtd">
<svg version="1.1" xmlns="http://www.w3.org/2000/svg" xmlns:xlink="http://www.w3.org/1999/xlink" width="36" height="36" viewBox="0 0 36 36">
<path fill="#444" d="M35.438 9.306c0 0.875-0.612 1.587-1.368 1.587h-32.137c-0.758 0-1.371-0.712-1.371-1.587v-2.777c0-0.876 0.613-1.585 1.371-1.585h32.137c0.756 0 1.368 0.71 1.368 1.585v2.777z"></path>
<path fill="#444" d="M14.645 19.388c0 0.876-0.612 1.586-1.368 1.586h-11.344c-0.758 0-1.371-0.71-1.371-1.586v-2.776c0-0.879 0.613-1.587 1.371-1.587h11.344c0.756 0 1.368 0.708 1.368 1.587v2.776z"></path>
<path fill="#444" d="M17.512 29.467c0 0.878-0.611 1.589-1.368 1.589h-14.212c-0.758 0-1.371-0.711-1.371-1.589v-2.775c0-0.875 0.613-1.585 1.371-1.585h14.212c0.756 0 1.368 0.711 1.368 1.585v2.775z"></path>
</svg>
