<?xml version="1.0" encoding="utf-8"?>
<!-- Generated by IcoMoon.io -->
<!DOCTYPE svg PUBLIC "-//W3C//DTD SVG 1.1//EN" "http://www.w3.org/Graphics/SVG/1.1/DTD/svg11.dtd">
<svg version="1.1" xmlns="http://www.w3.org/2000/svg" xmlns:xlink="http://www.w3.org/1999/xlink" width="36" height="36" viewBox="0 0 36 36">
<path fill="#ee3135" d="M17.915 16.608c0.094 0.196 0.29 0.313 0.493 0.317h1.829l-0.001 5.702c0.042 0.53 0.485 0.948 1.025 0.948h1.54c0.538 0 0.982-0.419 1.023-0.948l-0.001-5.702h1.827c0.204-0.004 0.399-0.121 0.494-0.317 0.104-0.218 0.054-0.472-0.106-0.634h0.004l-3.223-3.223c-0.434-0.435-1.138-0.435-1.575 0l-3.225 3.223h0.004c-0.161 0.162-0.21 0.416-0.106 0.634z"></path>
<path fill="#ee3135" d="M17.945 19.391c-0.094-0.197-0.29-0.312-0.495-0.316h-1.827v-5.704c-0.042-0.527-0.486-0.946-1.023-0.946h-1.541c-0.537 0-0.982 0.419-1.023 0.945v5.705h-1.824c-0.206 0.004-0.4 0.119-0.493 0.316-0.106 0.219-0.057 0.471 0.105 0.634h-0.005l3.224 3.224c0.434 0.436 1.139 0.436 1.574 0l3.224-3.224c0.16-0.163 0.211-0.415 0.105-0.634z"></path>
<path fill="#ee3235" d="M18.003 35.437c-0.034 0-0.068 0-0.102 0-9.616-0.057-17.392-7.923-17.338-17.539 0.008-1.431 1.171-2.586 2.602-2.586h0.015c1.437 0.007 2.597 1.179 2.587 2.618-0.038 6.744 5.418 12.262 12.163 12.302 0.025 0 0.048 0 0.073 0 3.239 0 6.29-1.253 8.597-3.533 2.324-2.297 3.614-5.361 3.631-8.627 0.039-6.745-5.416-12.265-12.161-12.305-1.437-0.007-2.595-1.178-2.586-2.618 0.008-1.432 1.171-2.586 2.602-2.586h0.015c9.614 0.056 17.391 7.923 17.336 17.536-0.025 4.658-1.865 9.026-5.177 12.301-3.288 3.252-7.638 5.037-12.256 5.037z"></path>
</svg>
