<?xml version="1.0" encoding="utf-8"?>
<!-- Generated by IcoMoon.io -->
<!DOCTYPE svg PUBLIC "-//W3C//DTD SVG 1.1//EN" "http://www.w3.org/Graphics/SVG/1.1/DTD/svg11.dtd">
<svg version="1.1" xmlns="http://www.w3.org/2000/svg" xmlns:xlink="http://www.w3.org/1999/xlink" width="36" height="36" viewBox="0 0 36 36">
<path fill="#444" d="M31.842 0.628h-27.799c-1.918 0-3.414 2.16-3.414 4.078v27.795c0 1.92 1.496 2.871 3.414 2.871h27.799c1.918 0 3.53-1.248 3.53-3.166v-27.797c0-1.92-1.612-3.78-3.53-3.78zM8.577 11.225c0-0.382 0.31-0.697 0.694-0.697h11.355c0.385 0 0.697 0.314 0.697 0.697v2.517c0 0.384-0.312 0.694-0.697 0.694h-11.355c-0.385 0-0.694-0.31-0.694-0.694v-2.517zM15.764 26.251c0 0.384-0.312 0.694-0.694 0.694h-5.797c-0.385 0-0.694-0.31-0.694-0.694v-2.517c0-0.384 0.31-0.697 0.694-0.697h5.797c0.382 0 0.694 0.312 0.694 0.697v2.517zM26.187 19.997c0 0.384-0.31 0.694-0.694 0.694h-16.22c-0.385 0-0.694-0.31-0.694-0.694v-2.517c0-0.384 0.31-0.697 0.694-0.697h16.22c0.385 0 0.694 0.312 0.694 0.697v2.517z"></path>
</svg>
