<?xml version="1.0" encoding="utf-8"?>
<!-- Generated by IcoMoon.io -->
<!DOCTYPE svg PUBLIC "-//W3C//DTD SVG 1.1//EN" "http://www.w3.org/Graphics/SVG/1.1/DTD/svg11.dtd">
<svg version="1.1" xmlns="http://www.w3.org/2000/svg" xmlns:xlink="http://www.w3.org/1999/xlink" width="36" height="36" viewBox="0 0 36 36">
<path fill="#444" d="M29.855 4.747h-6.628l-0.963-3.533c-0.13-0.347-0.462-0.652-0.831-0.652h-6.863c-0.37 0-0.702 0.305-0.832 0.652l-0.962 3.533h-6.629c-0.915 0-1.656 0.48-1.656 1.395s0.742 1.395 1.656 1.395h23.71c0.915 0 1.656-0.48 1.656-1.395s-0.742-1.395-1.656-1.395zM14.673 4.747l0.512-2.79h5.631l0.512 2.79h-6.654z"></path>
<path fill="#444" d="M5.911 33.674c0 0.978 1.034 1.763 2.012 1.763h20.153c0.98 0 1.317-0.77 1.317-1.748v-22.897h-23.715v22.897l0.233-0.015zM23.347 15.314c0-0.722 0.654-1.307 1.395-1.307s1.395 0.585 1.395 1.307v15.266c0 0.722-0.654 1.307-1.395 1.307s-1.395-0.585-1.395-1.307v-15.266zM16.372 15.314c0-0.722 0.654-1.307 1.395-1.307s1.395 0.585 1.395 1.307v15.266c0 0.722-0.655 1.307-1.395 1.307s-1.395-0.585-1.395-1.307v-15.266zM9.397 15.314c0-0.722 0.421-1.307 1.162-1.307s1.162 0.585 1.162 1.307v15.266c0 0.722-0.421 1.307-1.162 1.307s-1.162-0.586-1.162-1.307v-15.266z"></path>
</svg>
