<?xml version="1.0" encoding="utf-8"?>
<!-- Generated by IcoMoon.io -->
<!DOCTYPE svg PUBLIC "-//W3C//DTD SVG 1.1//EN" "http://www.w3.org/Graphics/SVG/1.1/DTD/svg11.dtd">
<svg version="1.1" xmlns="http://www.w3.org/2000/svg" xmlns:xlink="http://www.w3.org/1999/xlink" width="36" height="36" viewBox="0 0 36 36">
<path fill="#444" d="M34.973 25.069v-5.274l-2.291-7.825c-0.186-0.783-1.078-1.642-1.773-1.642h-7.561v-3.462c0-0.924-0.091-1.653-1.016-1.653h-19.413c-0.924 0-1.892 0.729-1.892 1.653v18.22c0 0.158-0.477 0.539-0.477 0.944 0 0.554 0.558 1.038 1.113 1.038h3.092c0.225-2.325 2.308-4.415 4.839-4.415 2.529 0 4.612 2.090 4.839 4.415h7.18c0.226-2.325 2.309-4.415 4.839-4.415s4.613 2.090 4.84 4.415h3.090c0.555 0 1.104-0.484 1.104-1.038 0-0.418-0.049-0.809-0.514-0.96zM25.672 18.233v-6.045h4.848l1.812 6.045h-6.66z"></path>
<path fill="#444" d="M13.066 27.446c0 1.917-1.554 3.472-3.472 3.472s-3.474-1.555-3.474-3.472c0-1.918 1.556-3.474 3.474-3.474s3.472 1.556 3.472 3.474z"></path>
<path fill="#444" d="M29.925 27.446c0 1.918-1.555 3.473-3.473 3.473s-3.473-1.555-3.473-3.473c0-1.918 1.555-3.473 3.473-3.473s3.473 1.555 3.473 3.473z"></path>
</svg>
