<?xml version="1.0" encoding="utf-8"?>
<!-- Generated by IcoMoon.io -->
<!DOCTYPE svg PUBLIC "-//W3C//DTD SVG 1.1//EN" "http://www.w3.org/Graphics/SVG/1.1/DTD/svg11.dtd">
<svg version="1.1" xmlns="http://www.w3.org/2000/svg" xmlns:xlink="http://www.w3.org/1999/xlink" width="36" height="36" viewBox="0 0 36 36">
<path fill="#444" d="M29.189 0.595h-22.378c-0.997 0-1.809 0.8-1.809 1.799v30.050c0 0.847 0.588 1.557 1.379 1.751 3.443 0.769 7.404 1.21 11.618 1.21 4.217 0 8.172-0.441 11.624-1.21 0.786-0.194 1.374-0.904 1.374-1.751v-30.050c0-0.999-0.814-1.799-1.808-1.799zM20.647 31.919h-5.289c-0.342 0-0.621-0.277-0.621-0.619 0-0.344 0.279-0.621 0.621-0.621h5.289c0.342 0 0.621 0.277 0.621 0.621 0 0.342-0.279 0.619-0.621 0.619zM29.247 28.436h-22.491v-26.043c0-0.030 0.027-0.049 0.056-0.049h22.378c0.032 0 0.057 0.023 0.057 0.049v26.043z"></path>
<path fill="#444" d="M18.024 17.535c0.883 0 1.692 0.331 2.302 0.88l1.3-1.325c-0.947-0.878-2.214-1.411-3.602-1.411-1.415 0-2.695 0.551-3.648 1.452l1.299 1.325c0.616-0.571 1.439-0.922 2.349-0.922z"></path>
<path fill="#444" d="M18.024 14.218c1.789 0 3.41 0.695 4.624 1.823l1.24-1.267c-1.53-1.446-3.594-2.327-5.863-2.327-2.293 0-4.374 0.9-5.911 2.365l1.24 1.271c1.217-1.154 2.86-1.866 4.67-1.866z"></path>
<path fill="#444" d="M18.022 10.878c2.698 0 5.149 1.057 6.962 2.776l1.204-1.232c-2.126-2.023-5-3.264-8.166-3.264-3.186 0-6.080 1.258-8.206 3.307l1.2 1.231c1.818-1.746 4.287-2.819 7.006-2.819z"></path>
<path fill="#444" d="M19.538 20.255c0 0.846-0.688 1.538-1.538 1.538s-1.538-0.692-1.538-1.538c0-0.851 0.688-1.538 1.538-1.538s1.538 0.688 1.538 1.538z"></path>
</svg>
