<?xml version="1.0" encoding="utf-8"?>
<!-- Generated by IcoMoon.io -->
<!DOCTYPE svg PUBLIC "-//W3C//DTD SVG 1.1//EN" "http://www.w3.org/Graphics/SVG/1.1/DTD/svg11.dtd">
<svg version="1.1" xmlns="http://www.w3.org/2000/svg" xmlns:xlink="http://www.w3.org/1999/xlink" width="36" height="36" viewBox="0 0 36 36">
<path fill="#444" d="M10.933 3.051c0 1.686-1.367 3.052-3.051 3.052s-3.053-1.366-3.053-3.052 1.368-3.051 3.053-3.051 3.051 1.365 3.051 3.051z"></path>
<path fill="#444" d="M21.024 3.051c0 1.686-1.367 3.052-3.051 3.052s-3.051-1.366-3.051-3.052 1.367-3.051 3.051-3.051 3.051 1.365 3.051 3.051z"></path>
<path fill="#444" d="M31.116 3.051c0 1.686-1.367 3.052-3.051 3.052s-3.051-1.366-3.051-3.052 1.367-3.051 3.051-3.051c1.685 0 3.051 1.365 3.051 3.051z"></path>
<path fill="#444" d="M10.987 12.919c0 1.685-1.367 3.051-3.051 3.051-1.686 0-3.053-1.367-3.053-3.051 0-1.686 1.367-3.052 3.053-3.052 1.685 0 3.051 1.366 3.051 3.052z"></path>
<path fill="#444" d="M21.080 12.919c0 1.685-1.368 3.051-3.053 3.051-1.686 0-3.051-1.367-3.051-3.051 0-1.686 1.365-3.052 3.051-3.052 1.685 0 3.053 1.366 3.053 3.052z"></path>
<path fill="#444" d="M31.171 12.919c0 1.685-1.367 3.051-3.051 3.051-1.687 0-3.051-1.367-3.051-3.051 0-1.686 1.364-3.052 3.051-3.052 1.685 0 3.051 1.366 3.051 3.052z"></path>
<path fill="#444" d="M10.933 22.786c0 1.686-1.367 3.051-3.051 3.051s-3.053-1.365-3.053-3.051c0-1.685 1.368-3.051 3.053-3.051s3.051 1.367 3.051 3.051z"></path>
<path fill="#444" d="M21.024 22.786c0 1.686-1.367 3.051-3.051 3.051s-3.051-1.365-3.051-3.051c0-1.685 1.367-3.051 3.051-3.051s3.051 1.367 3.051 3.051z"></path>
<path fill="#444" d="M31.116 22.786c0 1.686-1.367 3.051-3.051 3.051s-3.051-1.365-3.051-3.051c0-1.685 1.367-3.051 3.051-3.051s3.051 1.367 3.051 3.051z"></path>
<path fill="#444" d="M21.024 32.948c0 1.686-1.367 3.053-3.051 3.053s-3.051-1.367-3.051-3.053 1.367-3.051 3.051-3.051 3.051 1.365 3.051 3.051z"></path>
</svg>
