<?xml version="1.0" encoding="utf-8"?>
<!-- Generated by IcoMoon.io -->
<!DOCTYPE svg PUBLIC "-//W3C//DTD SVG 1.1//EN" "http://www.w3.org/Graphics/SVG/1.1/DTD/svg11.dtd">
<svg version="1.1" xmlns="http://www.w3.org/2000/svg" xmlns:xlink="http://www.w3.org/1999/xlink" width="36" height="36" viewBox="0 0 36 36">
<path fill="#444" d="M35.268 14.894l-8.13-10.619c-0.094-0.124-0.242-0.198-0.401-0.198h-17.477c-0.157 0-0.304 0.074-0.401 0.198l-8.13 10.619c-0.154 0.203-0.134 0.493 0.053 0.672l16.867 16.213c0.097 0.094 0.221 0.143 0.35 0.143 0.127 0 0.253-0.048 0.35-0.143l16.867-16.213c0.187-0.18 0.207-0.47 0.051-0.672zM6.412 13.992c-0.044-0.081-0.044-0.18 0-0.26l4.216-7.326c0.046-0.076 0.122-0.124 0.207-0.129 0.007-0.002 0.011-0.002 0.018-0.002 0.081 0 0.159 0.037 0.207 0.104l5.622 7.324c0.060 0.081 0.069 0.187 0.025 0.276-0.044 0.087-0.131 0.143-0.233 0.143h-9.836c-0.092 0-0.18-0.048-0.228-0.129zM17.171 28.151c-0.055 0.034-0.115 0.051-0.18 0.051-0.097 0-0.193-0.044-0.26-0.122l-9.668-11.378c-0.087-0.104-0.106-0.249-0.051-0.371s0.18-0.2 0.313-0.2h5.213c0.143 0 0.269 0.087 0.322 0.219l4.455 11.381c0.062 0.156 0 0.334-0.145 0.421zM28.937 16.699l-9.555 11.309c-0.069 0.083-0.166 0.124-0.263 0.124-0.064 0-0.129-0.018-0.184-0.053-0.147-0.092-0.203-0.276-0.134-0.435l5.038-11.309c0.055-0.124 0.18-0.205 0.318-0.205h4.517c0.134 0 0.256 0.078 0.313 0.2 0.055 0.12 0.034 0.265-0.051 0.368zM29.586 13.992c-0.046 0.081-0.134 0.129-0.226 0.129h-9.836c-0.101 0-0.193-0.055-0.235-0.143-0.046-0.090-0.032-0.196 0.028-0.276l5.622-7.324c0.048-0.067 0.127-0.104 0.207-0.104 0.005 0 0.011 0 0.016 0.002 0.088 0.005 0.163 0.053 0.21 0.129l4.213 7.326c0.046 0.081 0.046 0.18 0 0.26z"></path>
</svg>
