<?xml version="1.0" encoding="utf-8"?>
<!-- Generated by IcoMoon.io -->
<!DOCTYPE svg PUBLIC "-//W3C//DTD SVG 1.1//EN" "http://www.w3.org/Graphics/SVG/1.1/DTD/svg11.dtd">
<svg version="1.1" xmlns="http://www.w3.org/2000/svg" xmlns:xlink="http://www.w3.org/1999/xlink" width="36" height="36" viewBox="0 0 36 36">
<path fill="#444" d="M33.624 1.515h-13.98c-0.966 0-1.747 0.783-1.747 1.749v9.919l5.808 5.81h9.919c0.966 0 1.749-0.783 1.749-1.749v-13.98c0-0.966-0.783-1.749-1.749-1.749zM25.93 13.922c-0.821 0.819-2.147 0.819-2.967 0-0.819-0.818-0.819-2.147 0-2.965 0.82-0.819 2.147-0.821 2.967 0 0.818 0.818 0.818 2.147 0 2.965zM31.003 8.85c-0.818 0.818-2.147 0.818-2.965 0s-0.818-2.147 0-2.967c0.819-0.819 2.147-0.819 2.965 0 0.821 0.821 0.821 2.149 0 2.967z"></path>
<path fill="#444" d="M23.382 21.616l-9.884-9.884c-0.342-0.342-0.79-0.514-1.237-0.514s-0.893 0.172-1.235 0.514l-9.886 9.884c-0.684 0.684-0.684 1.79 0 2.472l9.886 9.886c0.342 0.342 0.787 0.512 1.235 0.512s0.895-0.17 1.237-0.512l9.884-9.886c0.684-0.682 0.684-1.788 0-2.472zM9.151 24.154c-0.816 0.816-2.147 0.818-2.965 0s-0.818-2.147 0-2.965c0.819-0.821 2.149-0.821 2.965 0 0.819 0.819 0.821 2.147 0 2.965zM10.597 16.778c0.816-0.821 2.147-0.821 2.963 0 0.821 0.816 0.821 2.144 0 2.963-0.816 0.818-2.142 0.818-2.963 0-0.819-0.819-0.819-2.145 0-2.963zM13.925 28.928c-0.816 0.818-2.147 0.818-2.965 0s-0.818-2.147 0-2.965c0.819-0.821 2.149-0.821 2.965 0 0.821 0.819 0.821 2.147 0 2.965zM18.338 24.517c-0.821 0.819-2.147 0.819-2.967 0-0.819-0.818-0.819-2.147 0-2.965 0.821-0.82 2.147-0.82 2.967 0 0.818 0.819 0.818 2.147 0 2.965z"></path>
</svg>
