<?xml version="1.0" encoding="utf-8"?>
<!-- Generated by IcoMoon.io -->
<!DOCTYPE svg PUBLIC "-//W3C//DTD SVG 1.1//EN" "http://www.w3.org/Graphics/SVG/1.1/DTD/svg11.dtd">
<svg version="1.1" xmlns="http://www.w3.org/2000/svg" xmlns:xlink="http://www.w3.org/1999/xlink" width="36" height="36" viewBox="0 0 36 36">
<path fill="#444" d="M23.905 3.757h-11.814v20.151h11.814v-20.151zM18.469 17.271c-0.504 0.258-1.124 0.060-1.385-0.444-0.256-0.504-0.062-1.126 0.442-1.385 0.508-0.26 1.124-0.062 1.389 0.444 0.256 0.506 0.060 1.124-0.446 1.385zM20.397 14.872c-0.25 0.252-0.663 0.252-0.913 0-0.399-0.397-0.924-0.614-1.484-0.614-0.564 0-1.089 0.217-1.486 0.614-0.252 0.252-0.661 0.252-0.914 0.002-0.252-0.254-0.252-0.663 0-0.916 0.639-0.641 1.492-0.994 2.4-0.994 0.903 0 1.757 0.351 2.398 0.994 0.126 0.126 0.188 0.289 0.188 0.455s-0.062 0.331-0.188 0.459zM22.533 13.043c-0.236 0.234-0.616 0.234-0.849 0-0.986-0.982-2.292-1.527-3.683-1.527-1.393 0-2.701 0.546-3.685 1.527-0.232 0.234-0.612 0.234-0.847 0s-0.236-0.614 0-0.85c1.211-1.211 2.819-1.877 4.532-1.877s3.321 0.666 4.533 1.877c0.116 0.116 0.174 0.273 0.174 0.424-0 0.155-0.058 0.308-0.174 0.426z"></path>
<path fill="#444" d="M25.294 0.627h-14.592c-0.955 0-1.736 0.783-1.736 1.738v22.931c0 0.957 0.781 1.738 1.736 1.738h6.254v6.252h-3.125c-0.579 0-1.046 0.467-1.046 1.042 0 0.577 0.467 1.044 1.046 1.044h8.337c0.575 0 1.042-0.467 1.042-1.044 0-0.575-0.467-1.042-1.042-1.042h-3.129v-6.252h6.254c0.959 0 1.74-0.781 1.74-1.738v-22.931c0-0.955-0.781-1.738-1.74-1.738zM24.947 24.95h-13.879l-0.019-22.237h13.897v22.237z"></path>
</svg>
