<?xml version="1.0" encoding="utf-8"?>
<!-- Generated by IcoMoon.io -->
<!DOCTYPE svg PUBLIC "-//W3C//DTD SVG 1.1//EN" "http://www.w3.org/Graphics/SVG/1.1/DTD/svg11.dtd">
<svg version="1.1" xmlns="http://www.w3.org/2000/svg" xmlns:xlink="http://www.w3.org/1999/xlink" width="36" height="36" viewBox="0 0 36 36">
<path fill="#444" d="M18 0.795c-9.502 0-17.205 7.703-17.205 17.205s7.703 17.205 17.205 17.205 17.205-7.702 17.205-17.205c0-9.502-7.703-17.205-17.205-17.205zM17.303 12.713v1.734c0 1.349-0.93 2.491-1.86 2.916v14.355h-2.325v-14.355c-1.395-0.425-1.86-1.568-1.86-2.916v-6.739c0-0.211 0.049-0.635 0.261-0.635h0.613c0.211 0 0.521 0.425 0.521 0.635v4.945h0.93v-4.949c0-0.208 0.132-0.631 0.339-0.631h0.623c0.208 0 0.433 0.423 0.433 0.631v4.949h0.93v-4.939c0-0.214 0.219-0.641 0.432-0.641h0.603c0.215 0 0.36 0.427 0.36 0.641v4.999zM24.413 21.023h-2.461v10.695h-1.86v-24.645h2.256c0.379 0 0.688 0.484 0.688 0.864l2.065 12.392c0 0.379-0.308 0.694-0.688 0.694z"></path>
</svg>
