<?xml version="1.0" encoding="utf-8"?>
<!-- Generated by IcoMoon.io -->
<!DOCTYPE svg PUBLIC "-//W3C//DTD SVG 1.1//EN" "http://www.w3.org/Graphics/SVG/1.1/DTD/svg11.dtd">
<svg version="1.1" xmlns="http://www.w3.org/2000/svg" xmlns:xlink="http://www.w3.org/1999/xlink" width="36" height="36" viewBox="0 0 36 36">
<path fill="#444" d="M35.202 31.413c0-0.103-0.058-0.15-0.174-0.15h-0.192v0.505h0.085v-0.205h0.051l0.145 0.205h0.101l-0.145-0.206c0.070-0.009 0.129-0.048 0.129-0.149zM34.923 31.486v-0.143h0.080c0.056 0 0.114 0.013 0.114 0.071 0 0.067-0.063 0.072-0.133 0.072h-0.060z"></path>
<path fill="#444" d="M35 31.094c-0.238 0-0.433 0.195-0.433 0.432 0 0.241 0.196 0.434 0.433 0.434 0.241 0 0.434-0.194 0.434-0.434-0-0.238-0.194-0.432-0.434-0.432zM35 31.875c-0.195 0-0.338-0.144-0.338-0.347s0.144-0.346 0.338-0.346c0.197 0 0.34 0.144 0.34 0.346s-0.144 0.347-0.34 0.347z"></path>
<path fill="#444" d="M4.63 26.082c-0.429-0.43-1.042-0.622-1.718-0.622h-2.349v6.509h2.349c0.676 0 1.289-0.193 1.718-0.624 0.731-0.73 0.658-1.68 0.658-2.659s0.073-1.873-0.658-2.604zM3.743 30.432c-0.219 0.265-0.512 0.402-0.95 0.402h-0.96v-4.241h0.96c0.439 0 0.731 0.137 0.95 0.402 0.238 0.293 0.274 0.705 0.274 1.691s-0.036 1.453-0.274 1.746z"></path>
<path fill="#444" d="M6.463 25.463h1.27v6.505h-1.27v-6.505z"></path>
<path fill="#444" d="M13.673 27.454c0-1.088-0.785-1.992-2.11-1.992h-2.549v6.505h1.27v-2.596h0.914l1.271 2.596h1.471l-1.453-2.806c0.63-0.228 1.187-0.794 1.187-1.708zM11.48 28.312h-1.196v-1.717h1.196c0.558 0 0.923 0.357 0.923 0.859s-0.366 0.858-0.923 0.858z"></path>
<path fill="#444" d="M14.756 31.969h4.285v-1.135h-3.015v-1.58h2.567v-1.133h-2.567v-1.525h3.015v-1.133h-4.285z"></path>
<path fill="#444" d="M22.155 26.541c0.612 0 0.959 0.366 1.096 0.922h1.288c-0.219-1.324-1.141-2.055-2.394-2.055-0.693 0-1.278 0.238-1.753 0.713-0.285 0.282-0.458 0.602-0.53 0.977-0.074 0.365-0.111 0.905-0.111 1.617s0.037 1.252 0.111 1.617c0.073 0.365 0.245 0.695 0.53 0.978 0.474 0.474 1.059 0.712 1.753 0.712 1.243 0 2.175-0.731 2.394-2.055h-1.288c-0.137 0.556-0.484 0.922-1.096 0.922-0.347 0-0.622-0.111-0.814-0.337-0.264-0.284-0.318-0.575-0.318-1.838 0-1.26 0.054-1.552 0.318-1.836 0.192-0.229 0.467-0.337 0.814-0.337z"></path>
<path fill="#444" d="M24.886 26.595h1.698v5.374h1.271v-5.374h1.699v-1.133h-4.668z"></path>
<path fill="#444" d="M34.107 25.463l-1.306 4.238-1.307-4.238h-1.314l2.146 6.506h0.951l2.155-6.506z"></path>
<path fill="#444" d="M33.84 3.978h-4.859c3.234 3.36 3.897 7.578 1.539 11.245-2.667 3.848-10.132 7.346-19.11 8.373h22.672c0.843 0 1.355-0.544 1.355-1.267 0 0 0-16.887 0-17.185 0-0.424-0.3-1.167-1.597-1.167z"></path>
<path fill="#444" d="M1.871 23.597h3.083c13.050-0.643 19.453-5.081 19.794-9.584 0.012-0.16 0.019-0.322 0.016-0.483-0.094-4.478-5.919-9.595-17.646-9.533h-5.178c-0.828 0-1.361 0.606-1.361 1.428v16.807c-0 0.515 0.397 1.366 1.293 1.366z"></path>
</svg>
