<?xml version="1.0" encoding="utf-8"?>
<!-- Generated by IcoMoon.io -->
<!DOCTYPE svg PUBLIC "-//W3C//DTD SVG 1.1//EN" "http://www.w3.org/Graphics/SVG/1.1/DTD/svg11.dtd">
<svg version="1.1" xmlns="http://www.w3.org/2000/svg" xmlns:xlink="http://www.w3.org/1999/xlink" width="36" height="36" viewBox="0 0 36 36">
<path fill="#444" d="M17.754 25.45l-0.493 2.418c-0.116 0.566-0.437 0.616-0.719 0.112l-1.034-1.851c-0.094-0.168-0.326-0.287-0.516-0.266l-2.107 0.237c-0.574 0.065-0.72-0.225-0.326-0.649l1.441-1.555c0.131-0.139 0.173-0.395 0.094-0.572l-0.878-1.928c-0.239-0.524-0.008-0.755 0.516-0.511l1.921 0.89c0.175 0.079 0.43 0.039 0.574-0.091l1.562-1.427c0.428-0.391 0.72-0.241 0.649 0.333l-0.254 2.102c-0.023 0.191 0.094 0.422 0.262 0.518l1.845 1.044c0.501 0.287 0.451 0.607-0.118 0.719l-2.419 0.476zM22.537 13.063c0 0.738 0.599 1.335 1.335 1.335 0.711 0 1.214-0.243 0.973 0.231-0.832 1.649-2.841 2.308-4.49 1.476-1.643-0.83-2.304-2.84-1.472-4.49 0.129-0.254 0.289-0.487 0.47-0.69 0.254-0.291 0.512-0.786 0.512-1.171v-2.106c0-0.383-0.31-0.742-0.692-0.782-0.961-0.096-1.938-0.096-2.92 0.008-0.574 0.058-1.248 0.564-1.508 1.079l-9.1 18.013c-0.26 0.514-0.266 1.354 0.025 1.853 2.861 4.879 8.347 7.651 13.972 7.062 0.576-0.062 1.248-0.568 1.508-1.084l9.1-18.011c0.26-0.516 0.268-1.356-0.025-1.855-1.244-2.117-2.984-3.837-5.016-5.057v-6.912c0-0.736-0.599-1.335-1.337-1.335-0.736 0-1.335 0.599-1.335 1.335v11.1zM23.76 34.563c-0.26 0.514-0.004 0.892 0.564 0.795 1.992-0.341 3.924-1.096 5.66-2.273 0.32-0.216 0.566-0.718 0.566-1.102v-9.118c0-0.963-0.351-1.048-0.786-0.187l-6.004 11.886z"></path>
</svg>
