<?xml version="1.0" encoding="utf-8"?>
<!-- Generated by IcoMoon.io -->
<!DOCTYPE svg PUBLIC "-//W3C//DTD SVG 1.1//EN" "http://www.w3.org/Graphics/SVG/1.1/DTD/svg11.dtd">
<svg version="1.1" xmlns="http://www.w3.org/2000/svg" xmlns:xlink="http://www.w3.org/1999/xlink" width="36" height="36" viewBox="0 0 36 36">
<path fill="#444" d="M18 0.795c-9.503 0-17.205 7.702-17.205 17.205 0 9.501 7.702 17.205 17.205 17.205s17.205-7.704 17.205-17.205c0-9.503-7.702-17.205-17.205-17.205zM26.521 19.945l-6.72 7.812c-0.991 1.145-2.612 1.168-3.603 0.024l-6.72-7.848c-0.991-1.145-0.562-2.165 0.952-2.165h3.618v-7.677c0-1.513 1.030-3.018 2.544-3.018h2.752c1.514 0 2.609 1.505 2.609 3.018v7.677h3.616c1.514 0 1.943 1.031 0.952 2.177z"></path>
</svg>
