<?xml version="1.0" encoding="utf-8"?>
<!-- Generated by IcoMoon.io -->
<!DOCTYPE svg PUBLIC "-//W3C//DTD SVG 1.1//EN" "http://www.w3.org/Graphics/SVG/1.1/DTD/svg11.dtd">
<svg version="1.1" xmlns="http://www.w3.org/2000/svg" xmlns:xlink="http://www.w3.org/1999/xlink" width="36" height="36" viewBox="0 0 36 36">
<path fill="#444" d="M29.822 31.877h-23.644c-0.968 0-1.757 0.791-1.757 1.765 0 0.972 0.789 1.763 1.757 1.763h23.644c0.968 0 1.757-0.791 1.757-1.763 0-0.974-0.789-1.765-1.757-1.765z"></path>
<path fill="#444" d="M29.727 13.067h-5.584v-9.243h-0.013c-0.143-1.801-1.657-3.229-3.491-3.229h-5.26c-1.834 0-3.35 1.429-3.491 3.229h-0.013v9.243h-5.598c-1.931 0-2.392 1.036-1.028 2.401l10.273 10.233c1.362 1.362 3.597 1.344 4.959-0.019l10.271-10.204c1.364-1.364 0.903-2.411-1.026-2.411z"></path>
</svg>
