<?xml version="1.0" encoding="utf-8"?>
<!-- Generated by IcoMoon.io -->
<!DOCTYPE svg PUBLIC "-//W3C//DTD SVG 1.1//EN" "http://www.w3.org/Graphics/SVG/1.1/DTD/svg11.dtd">
<svg version="1.1" xmlns="http://www.w3.org/2000/svg" xmlns:xlink="http://www.w3.org/1999/xlink" width="36" height="36" viewBox="0 0 36 36">
<path fill="#444" d="M26.835 0.563h-17.67c-1.535 0-2.69 1.251-2.567 2.781l2.345 29.313c0.122 1.53 1.477 2.782 3.012 2.782h12.090c1.534 0 2.89-1.251 3.013-2.782l2.345-29.313c0.122-1.529-1.033-2.781-2.567-2.781zM13.117 7.282c0-1.444 1.079-2.017 2.395-1.275l6.841 3.861c1.315 0.743 1.316 1.958 0.001 2.701l-6.842 3.861c-1.316 0.743-2.395 0.169-2.395-1.274v-7.875zM16.372 28.303c0 1.027-0.833 1.86-1.86 1.86s-1.86-0.833-1.86-1.86v-5.115c0-1.027 0.833-1.86 1.86-1.86s1.86 0.833 1.86 1.86v5.115zM22.883 28.303c0 1.027-0.833 1.86-1.86 1.86s-1.86-0.833-1.86-1.86v-5.115c0-1.027 0.833-1.86 1.86-1.86s1.86 0.833 1.86 1.86v5.115z"></path>
</svg>
