<?xml version="1.0" encoding="utf-8"?>
<!-- Generated by IcoMoon.io -->
<!DOCTYPE svg PUBLIC "-//W3C//DTD SVG 1.1//EN" "http://www.w3.org/Graphics/SVG/1.1/DTD/svg11.dtd">
<svg version="1.1" xmlns="http://www.w3.org/2000/svg" xmlns:xlink="http://www.w3.org/1999/xlink" width="36" height="36" viewBox="0 0 36 36">
<path fill="#444" d="M30.291 27.251l-0.115-0.031c-2.075 2.269-4.753 3.962-7.775 4.802-0.434 0.952-1.394 1.616-2.504 1.616h-3.791c-1.11 0-2.070-0.664-2.504-1.616-3.025-0.84-5.703-2.532-7.778-4.802l-0.115 0.031c-3.842 1.072-5.095 2.685-4.784 4.784l0.528 3.354h33.093l0.528-3.354c0.317-2.098-0.939-3.711-4.784-4.784z"></path>
<path fill="#444" d="M15.454 26.14c0.209-0.054 0.426-0.079 0.651-0.079h3.791c0.225 0 0.444 0.025 0.653 0.079 4.541-1.166 7.916-5.389 7.916-10.402 0-5.915-4.694-10.726-10.463-10.726-5.772 0-10.469 4.812-10.469 10.726 0 5.013 3.375 9.236 7.921 10.402z"></path>
<path fill="#444" d="M33.515 9.686c-0.008 0-0.018-0.003-0.026-0.003h-1.588c-0.013 0-0.023 0.003-0.031 0.003-0.013 0-0.023 0.003-0.033 0.003-2.328-5.335-7.653-9.077-13.835-9.077-6.185 0-11.513 3.742-13.838 9.077-0.013 0-0.023-0.003-0.031-0.003h-1.646c-0.891 0.015-1.608 0.738-1.608 1.631v8.843c0 0.855 0.661 1.547 1.496 1.621h1.815c2.009 4.541 6.195 7.916 11.227 8.789v0.312c0 0.38 0.309 0.689 0.692 0.689h3.786c0.383 0 0.689-0.309 0.689-0.689v-0.312c5.034-0.873 9.218-4.248 11.227-8.789h1.82c0.835-0.074 1.491-0.766 1.491-1.621v-8.843c0-0.893-0.715-1.616-1.606-1.631zM20.504 28.497c-0.115-0.219-0.342-0.37-0.61-0.37h-3.786c-0.268 0-0.495 0.151-0.61 0.37-6.001-1.167-10.535-6.448-10.535-12.794 0-7.199 5.838-13.034 13.039-13.034 7.199 0 13.036 5.835 13.036 13.034 0 6.346-4.534 11.627-10.535 12.794z"></path>
</svg>
