<?xml version="1.0" encoding="utf-8"?>
<!-- Generated by IcoMoon.io -->
<!DOCTYPE svg PUBLIC "-//W3C//DTD SVG 1.1//EN" "http://www.w3.org/Graphics/SVG/1.1/DTD/svg11.dtd">
<svg version="1.1" xmlns="http://www.w3.org/2000/svg" xmlns:xlink="http://www.w3.org/1999/xlink" width="36" height="36" viewBox="0 0 36 36">
<path fill="#444" d="M25.2 9.23c-0.564-0.376-1.032-0.672-1.041-0.66-0.008 0.012-0.473-0.29-1.032-0.672l-2.056-1.401c-0.559-0.382-1.326-0.233-1.7 0.331l-12.16 18.261c-0.376 0.563-0.221 1.332 0.343 1.708l2.072 1.378c0.564 0.373 1.027 0.682 1.025 0.684-0.001 0 0.46 0.309 1.024 0.684l1.040 0.694c0.564 0.376 1.333 0.221 1.709-0.343l12.159-18.262c0.376-0.564 0.222-1.333-0.342-1.708l-1.041-0.693z"></path>
<path fill="#444" d="M5.84 35.812c-0.591 0.331-1.002 0.052-0.912-0.619l0.899-6.731c0.088-0.671 0.625-0.912 1.188-0.537l4.868 3.241c0.563 0.376 0.541 0.953-0.051 1.284l-5.992 3.361z"></path>
<path fill="#444" d="M28.635 8.549c-0.376 0.564-1.145 0.719-1.709 0.342l-5.161-3.436c-0.563-0.376-0.717-1.144-0.344-1.708l2.165-3.248c0.374-0.564 1.144-0.717 1.708-0.343l5.161 3.436c0.563 0.376 0.717 1.145 0.343 1.709l-2.163 3.248z"></path>
</svg>
