<?xml version="1.0" encoding="utf-8"?>
<!-- Generated by IcoMoon.io -->
<!DOCTYPE svg PUBLIC "-//W3C//DTD SVG 1.1//EN" "http://www.w3.org/Graphics/SVG/1.1/DTD/svg11.dtd">
<svg version="1.1" xmlns="http://www.w3.org/2000/svg" xmlns:xlink="http://www.w3.org/1999/xlink" width="36" height="36" viewBox="0 0 36 36">
<path fill="#444" d="M28.428 17.716l-10.304 3.956c-0.041 0.016-0.081 0.024-0.122 0.024-0.043 0-0.085-0.008-0.124-0.024l-10.304-3.956v7.168h0.010c-0.006 0.067-0.010 0.136-0.010 0.203 0 2.798 4.668 5.062 10.428 5.062 5.758 0 10.426-2.264 10.426-5.062 0-0.067-0.006-0.136-0.010-0.203h0.010v-7.168z"></path>
<path fill="#444" d="M35.149 12.064l-17.034-6.192c-0.036-0.014-0.077-0.020-0.116-0.020s-0.079 0.006-0.116 0.020l-17.032 6.192c-0.132 0.047-0.221 0.174-0.225 0.317 0 0.142 0.085 0.272 0.219 0.321l0.964 0.369v5.196h-0.54c-0.266 0-0.481 0.217-0.481 0.481v7.212c0 0.266 0.215 0.481 0.481 0.481h3.122c0.268 0 0.483-0.215 0.483-0.481v-7.212c0-0.264-0.215-0.481-0.483-0.481h-0.538v-4.411l14.023 5.386c0.039 0.012 0.079 0.020 0.122 0.020s0.083-0.008 0.124-0.020l17.030-6.541c0.132-0.049 0.221-0.179 0.219-0.321s-0.091-0.27-0.223-0.316z"></path>
</svg>
