<?xml version="1.0" encoding="utf-8"?>
<!-- Generated by IcoMoon.io -->
<!DOCTYPE svg PUBLIC "-//W3C//DTD SVG 1.1//EN" "http://www.w3.org/Graphics/SVG/1.1/DTD/svg11.dtd">
<svg version="1.1" xmlns="http://www.w3.org/2000/svg" xmlns:xlink="http://www.w3.org/1999/xlink" width="36" height="36" viewBox="0 0 36 36">
<path fill="#444" d="M28.928 6.716h-26.647c-0.815 0-1.481 0.65-1.481 1.451v1.203c0 1.058 0.099 0.984 1.684 1.547 0.058 0.018 12.132 4.299 12.132 4.299 0.319 0.091 0.667 0.219 0.988 0.225 0.321-0.006 0.667-0.135 0.986-0.225 0 0 12.073-4.281 12.13-4.299 1.587-0.563 1.684-0.489 1.684-1.547v-1.203c0-0.801-0.661-1.451-1.478-1.451z"></path>
<path fill="#444" d="M34.763 22.261h-0.597v-1.734c0-1.842-1.565-3.344-3.488-3.344-0.56 0-1.087 0.131-1.559 0.356-0.262 0.127-0.504 0.281-0.721 0.462h-0.002c-0.103 0.084-0.198 0.177-0.288 0.272-0.012 0.012-0.023 0.024-0.035 0.034-0.548 0.592-0.885 1.368-0.885 2.22v1.734h-0.64c-0.012 0-0.025 0.004-0.041 0.004-0.119 0.008-0.226 0.048-0.317 0.116 0 0 0 0.002-0.004 0.002-0.025 0.021-0.054 0.044-0.078 0.069-0.004 0.004-0.008 0.011-0.012 0.015-0.021 0.023-0.039 0.046-0.056 0.071-0.006 0.011-0.012 0.022-0.018 0.034-0.012 0.021-0.025 0.042-0.033 0.066-0.010 0.019-0.014 0.039-0.021 0.061-0.004 0.014-0.010 0.032-0.014 0.048-0.008 0.038-0.010 0.078-0.010 0.118v5.811c0 0.334 0.274 0.608 0.605 0.608h8.216c0.336 0 0.609-0.274 0.609-0.608v-5.811c0-0.334-0.274-0.605-0.609-0.605zM32.762 22.261h-4.168v-1.734c0-0.063 0.004-0.129 0.010-0.189 0.002-0.028 0.008-0.053 0.010-0.076 0.008-0.035 0.012-0.071 0.021-0.107 0.004-0.032 0.016-0.066 0.025-0.097 0.006-0.028 0.012-0.052 0.021-0.078 0.012-0.038 0.025-0.074 0.041-0.11 0.004-0.018 0.012-0.037 0.021-0.057 0.016-0.040 0.035-0.080 0.058-0.118 0.004-0.012 0.012-0.027 0.016-0.039 0.025-0.042 0.049-0.082 0.074-0.125 0.008-0.008 0.012-0.015 0.016-0.024 0.029-0.044 0.060-0.087 0.091-0.127 0.004-0.004 0.008-0.008 0.008-0.010 0.037-0.044 0.074-0.087 0.113-0.129 0.381-0.403 0.937-0.66 1.559-0.66 1.149 0 2.084 0.873 2.084 1.946v1.734z"></path>
<path fill="#444" d="M24.482 22.060c0-0.334 0.338-0.603 0.673-0.603h0.71v-1.736c0-1.153 0.556-2.173 1.487-2.775 0.751-0.592 1.684-0.957 2.722-0.957h0.284v-3.072c0-0.232-0.2-0.441-0.414-0.541-0.226-0.109-0.401-0.010-0.723 0.072l-12.875 4.529c-0.185 0.067-0.626 0.175-0.906 0.175-0.284 0-0.566-0.050-0.826-0.137l-12.942-4.567c-0.319-0.082-0.465-0.181-0.688-0.072-0.218 0.101-0.358 0.31-0.358 0.542v10.047c0 1.603 1.328 3.332 2.961 3.332h20.894v-4.236z"></path>
</svg>
