<?xml version="1.0" encoding="utf-8"?>
<!-- Generated by IcoMoon.io -->
<!DOCTYPE svg PUBLIC "-//W3C//DTD SVG 1.1//EN" "http://www.w3.org/Graphics/SVG/1.1/DTD/svg11.dtd">
<svg version="1.1" xmlns="http://www.w3.org/2000/svg" xmlns:xlink="http://www.w3.org/1999/xlink" width="36" height="36" viewBox="0 0 36 36">
<path fill="#444" d="M35.002 14.196c-0.262-0.129-0.436-0.010-0.813 0.087l-15.146 5.434c-0.22 0.084-0.729 0.209-1.057 0.209-0.335 0-0.663-0.059-0.966-0.164l-15.24-5.479c-0.377-0.098-0.551-0.216-0.813-0.087-0.255 0.122-0.418 0.373-0.418 0.652v11.701c0 1.922 1.566 3.386 3.491 3.386h27.897c1.925 0 3.488-1.468 3.488-3.386v-11.697c-0.017-0.279-0.167-0.534-0.422-0.656z"></path>
<path fill="#444" d="M33.673 7.151h-31.387c-0.963 0-1.744 0.687-1.744 1.646 0 0 0 1.113 0 1.444 0 1.269 0.115 1.179 1.984 1.855 0.066 0.024 14.288 5.158 14.288 5.158 0.377 0.108 0.785 0.262 1.165 0.272 0.377-0.007 0.785-0.164 1.161-0.272 0 0 14.226-5.134 14.288-5.158 1.873-0.677 1.988-0.586 1.988-1.855 0-0.328 0-1.444 0-1.444 0.003-0.959-0.781-1.646-1.744-1.646z"></path>
</svg>
