<?xml version="1.0" encoding="utf-8"?>
<!-- Generated by IcoMoon.io -->
<!DOCTYPE svg PUBLIC "-//W3C//DTD SVG 1.1//EN" "http://www.w3.org/Graphics/SVG/1.1/DTD/svg11.dtd">
<svg version="1.1" xmlns="http://www.w3.org/2000/svg" xmlns:xlink="http://www.w3.org/1999/xlink" width="36" height="36" viewBox="0 0 36 36">
<path fill="#444" d="M4.565 8.743h26.868v15.295h-26.868v-15.295z"></path>
<path fill="#444" d="M32.717 4.97h-29.433c-1.502 0-2.721 1.218-2.721 2.724v17.393c0 1.505 1.218 2.725 2.721 2.725h12.642v1.746h-7.393c-0.394 0-0.712 0.329-0.712 0.738 0 0.405 0.318 0.736 0.712 0.736h18.933c0.395 0 0.712-0.331 0.712-0.736 0-0.409-0.317-0.738-0.712-0.738h-7.597v-1.746h12.847c1.505 0 2.721-1.222 2.721-2.725v-17.393c0-1.505-1.218-2.724-2.721-2.724zM33.805 25.087c0 0.602-0.487 1.090-1.088 1.090h-29.433c-0.601 0-1.088-0.488-1.088-1.090v-17.393c0-0.6 0.487-1.091 1.088-1.091h29.433c0.603 0 1.088 0.49 1.088 1.091v17.393z"></path>
</svg>
