<?xml version="1.0" encoding="utf-8"?>
<!-- Generated by IcoMoon.io -->
<!DOCTYPE svg PUBLIC "-//W3C//DTD SVG 1.1//EN" "http://www.w3.org/Graphics/SVG/1.1/DTD/svg11.dtd">
<svg version="1.1" xmlns="http://www.w3.org/2000/svg" xmlns:xlink="http://www.w3.org/1999/xlink" width="36" height="36" viewBox="0 0 36 36">
<path fill="#444" d="M18 35.205c-9.501 0-17.205-7.703-17.205-17.205 0-9.503 7.704-17.205 17.205-17.205s17.205 7.703 17.205 17.205c0 9.501-7.703 17.205-17.205 17.205zM28.547 11.935c-0.793-0.624-1.941-0.488-2.566 0.305l-7.923 10.053-8.605-10.108c-0.652-0.768-1.806-0.861-2.574-0.206-0.767 0.654-0.86 1.806-0.205 2.574l11.494 13.504 10.683-13.556c0.263-0.335 0.391-0.735 0.391-1.129 0-0.542-0.239-1.076-0.695-1.436z"></path>
</svg>
