<?xml version="1.0" encoding="utf-8"?>
<!-- Generated by IcoMoon.io -->
<!DOCTYPE svg PUBLIC "-//W3C//DTD SVG 1.1//EN" "http://www.w3.org/Graphics/SVG/1.1/DTD/svg11.dtd">
<svg version="1.1" xmlns="http://www.w3.org/2000/svg" xmlns:xlink="http://www.w3.org/1999/xlink" width="36" height="36" viewBox="0 0 36 36">
<path fill="#444" d="M14.673 1.889c-0.243 0.689-0.055 1.426 0.421 1.918l4.327 4.327-7.689 7.685c-1.147 1.349-1.090 3.394 0.183 4.666l3.648 3.648c1.272 1.273 3.314 1.332 4.661 0.181l7.688-7.689 4.321 4.322c0.491 0.475 1.229 0.664 1.919 0.421 0.763-0.269 1.242-0.983 1.247-1.748l0.009 0.006 0.001-15.259c0.001-2.060-1.666-3.728-3.727-3.728l-15.26 0.004c-0.764 0.004-1.48 0.481-1.749 1.246z"></path>
<path fill="#444" d="M35.418 26.73v0c-0.171-0.954-1.026-1.683-2.025-1.683-1.105 0-2.015 0.901-2.042 2.010l0.001 2.95c-0.035 0.672-0.568 1.222-1.214 1.277l-24.155 0.001c-0.702-0.017-1.283-0.566-1.333-1.259l-0.004-23.999c0.019-0.694 0.56-1.257 1.229-1.308l3.381 0.013c0.982-0.148 1.754-1.033 1.754-2.057 0-1.022-0.763-1.9-1.745-2.046l-4.958 0.002c-0.997 0-1.936 0.39-2.646 1.101-0.71 0.709-1.099 1.648-1.099 2.645v27.244c0 2.066 1.682 3.746 3.747 3.746h27.382c2.065 0 3.746-1.68 3.746-3.746v-4.553l-0.019-0.34z"></path>
</svg>
