<?xml version="1.0" encoding="utf-8"?>
<!-- Generated by IcoMoon.io -->
<!DOCTYPE svg PUBLIC "-//W3C//DTD SVG 1.1//EN" "http://www.w3.org/Graphics/SVG/1.1/DTD/svg11.dtd">
<svg version="1.1" xmlns="http://www.w3.org/2000/svg" xmlns:xlink="http://www.w3.org/1999/xlink" width="36" height="36" viewBox="0 0 36 36">
<path fill="#444" d="M33.228 4.147l-10.359-1.995c-1.698-0.324-2.376 0.675-1.594 2.216l1.464 2.816c-7.131 4.523-7.959 9.509-7.959 9.509-1.406 5.207 2.002 10.962 3.088 12.619 0.199 0.303 0.217 0.254 0.217 0.254 0.041-0.006 0.002-0.089-0.047-0.241-4.037-12.146 8.3-14.921 8.389-14.941l1.295 2.55c0.783 1.544 2.052 1.537 2.825-0.010l4.371-9.372c0.274-0.549 0.518-1.094 0.518-1.584v-0.003c0-0.892-1.111-1.606-2.209-1.816z"></path>
<path fill="#444" d="M21.488 18.908v9.344c0 1.068-0.615 2.443-1.494 2.443h-14.599c-0.879 0-1.623-1.375-1.623-2.443v-13.905c0-1.068 0.743-1.368 1.623-1.368h8.881c0.665-0.977 1.214-2.127 2.817-3.209h-11.698c-2.687 0-4.831 1.698-4.831 4.577v13.905c0 2.879 2.144 5.651 4.831 5.651h14.599c2.688 0 4.703-2.772 4.703-5.651v-11.086c-0.907 0.36-2.068 0.92-3.208 1.742z"></path>
</svg>
