<?xml version="1.0" encoding="utf-8"?>
<!-- Generated by IcoMoon.io -->
<!DOCTYPE svg PUBLIC "-//W3C//DTD SVG 1.1//EN" "http://www.w3.org/Graphics/SVG/1.1/DTD/svg11.dtd">
<svg version="1.1" xmlns="http://www.w3.org/2000/svg" xmlns:xlink="http://www.w3.org/1999/xlink" width="36" height="36" viewBox="0 0 36 36">
<path fill="#444" d="M34.701 16.486c-5.234-6.226-10.849-9.382-16.671-9.382-8.973 0-15.404 7.599-16.889 9.523-0.295 0.291-0.485 0.654-0.55 1.053-0.014 0.083-0.025 0.165-0.025 0.252-0.015 0.241 0.018 0.489 0.097 0.712 0.122 0.345 0.341 0.647 0.633 0.87 5.241 6.228 10.849 9.384 16.673 9.384 8.974 0 15.402-7.6 16.89-9.528 0.295-0.287 0.489-0.654 0.554-1.064 0.015-0.076 0.022-0.158 0.022-0.234 0.014-0.241-0.014-0.482-0.093-0.708-0.122-0.352-0.345-0.654-0.64-0.877zM17.968 25.266c-4.472 0-8.919-2.459-13.229-7.314 2.020-2.358 6.96-7.219 13.29-7.219 4.47 0 8.921 2.459 13.234 7.312-2.027 2.358-6.96 7.22-13.295 7.22z"></path>
<path fill="#444" d="M17.999 12.355c-3.074 0-5.568 2.527-5.568 5.644 0 3.122 2.495 5.646 5.568 5.646 3.075 0 5.57-2.524 5.57-5.646-0-3.117-2.495-5.644-5.57-5.644z"></path>
</svg>
