<?xml version="1.0" encoding="utf-8"?>
<!-- Generated by IcoMoon.io -->
<!DOCTYPE svg PUBLIC "-//W3C//DTD SVG 1.1//EN" "http://www.w3.org/Graphics/SVG/1.1/DTD/svg11.dtd">
<svg version="1.1" xmlns="http://www.w3.org/2000/svg" xmlns:xlink="http://www.w3.org/1999/xlink" width="36" height="36" viewBox="0 0 36 36">
<path fill="#444" d="M20.455 0.595c-3.4 0-6.167 2.837-6.167 6.321s2.767 6.318 6.167 6.318c3.4 0 6.167-2.834 6.167-6.318s-2.767-6.321-6.167-6.321z"></path>
<path fill="#444" d="M28.809 16.1c-0.292-1.584-1.256-2.805-2.805-2.805h-0.489c-1.382 1.143-3.144 1.828-5.060 1.828s-3.678-0.685-5.063-1.828h-0.486c-1.55 0-2.556 1.129-2.807 2.805l-1.14 7.619c3.509 0.075 6.327 2.934 6.327 6.454h10.404c1.549 0 2.805-1.256 2.805-2.807l-1.685-11.265z"></path>
<path fill="#444" d="M10.736 24.945c-2.887 0-5.23 2.341-5.23 5.23 0 2.887 2.344 5.23 5.23 5.23 2.889 0 5.232-2.343 5.232-5.23 0-2.889-2.344-5.23-5.232-5.23zM12.123 30.153h-0.907v3.23h-1.344v-3.23h-0.636v-1.14h0.636v-0.74c0-0.527 0.253-1.355 1.355-1.355l0.998 0.005v1.108h-0.724c-0.118 0-0.285 0.057-0.285 0.31v0.672h1.025l-0.118 1.14z"></path>
</svg>
