<?xml version="1.0" encoding="utf-8"?>
<!-- Generated by IcoMoon.io -->
<!DOCTYPE svg PUBLIC "-//W3C//DTD SVG 1.1//EN" "http://www.w3.org/Graphics/SVG/1.1/DTD/svg11.dtd">
<svg version="1.1" xmlns="http://www.w3.org/2000/svg" xmlns:xlink="http://www.w3.org/1999/xlink" width="36" height="36" viewBox="0 0 36 36">
<path fill="#444" d="M18.001 35.372c-1.213 0-2.349-0.469-3.203-1.323l-12.845-12.845c-1.766-1.766-1.766-4.643 0-6.409l12.845-12.845c0.854-0.852 1.99-1.323 3.203-1.323s2.35 0.471 3.204 1.323l12.845 12.845c0.854 0.854 1.323 1.992 1.323 3.205 0 1.21-0.469 2.35-1.323 3.204l-12.845 12.845c-0.854 0.854-1.99 1.323-3.204 1.323zM18.001 2.719c-0.653 0-1.267 0.253-1.723 0.709l-12.847 12.847c-0.949 0.949-0.949 2.5 0 3.449l12.847 12.845c0.456 0.46 1.070 0.709 1.723 0.709s1.268-0.249 1.728-0.709l12.845-12.845c0.456-0.456 0.709-1.069 0.709-1.724s-0.253-1.269-0.709-1.725l-12.845-12.847c-0.46-0.456-1.075-0.709-1.728-0.709z"></path>
<path fill="#444" d="M22.983 10.205c-1.567 0-2.84 1.306-2.84 2.911 0 1.603 1.273 2.909 2.84 2.909s2.84-1.306 2.84-2.909c0-1.605-1.273-2.911-2.84-2.911z"></path>
<path fill="#444" d="M12.117 10.106c-1.619 0-2.938 1.35-2.938 3.010 0 1.659 1.318 3.008 2.938 3.008s2.938-1.35 2.938-3.008c0-1.661-1.318-3.010-2.938-3.010z"></path>
<path fill="#444" d="M17.393 13.896c-1.173 0-2.129 0.979-2.129 2.183s0.956 2.183 2.129 2.183c1.173 0 2.128-0.979 2.128-2.183s-0.955-2.183-2.128-2.183z"></path>
<path fill="#444" d="M26.831 17.262c-0.137-0.73-0.593-1.066-1.294-1.294l-0.423-0.095c-0.589 0.473-1.327 0.759-2.131 0.759-0.8 0-1.534-0.282-2.123-0.75l-0.431 0.087c-0.108 0.021-0.207 0.050-0.299 0.079 0 0.008 0 0.021 0 0.029 0 0.603-0.191 1.161-0.51 1.617 0.721 0.166 1.261 0.809 1.261 1.575v5.046h5.432c0.713 0 1.294-0.576 1.294-1.294l-0.775-5.758z"></path>
<path fill="#444" d="M14.656 16.079c0-0.079 0.004-0.16 0.012-0.236-0.046-0.031-0.089-0.060-0.133-0.091-0.632 0.607-1.482 0.981-2.419 0.981-0.875 0-1.677-0.328-2.297-0.867l-0.933 0.303c-1.076 0.299-1.426 0.75-1.339 1.335l0.802 5.456c0.118 0.8 0.597 1.335 1.337 1.335h4.219v-5.021c0-0.77 0.539-1.415 1.263-1.579-0.321-0.456-0.512-1.012-0.512-1.615z"></path>
<path fill="#444" d="M19.264 18.262h-0.17c-0.47 0.379-1.058 0.605-1.699 0.605-0.645 0-1.234-0.226-1.702-0.605h-0.17c-0.558 0-1.008 0.452-1.008 1.011v5.224c0 0.56 0.45 1.012 1.008 1.012h3.741c0.556 0 1.008-0.452 1.008-1.012v-5.224c0-0.559-0.452-1.011-1.008-1.011z"></path>
</svg>
