<?xml version="1.0" encoding="utf-8"?>
<!-- Generated by IcoMoon.io -->
<!DOCTYPE svg PUBLIC "-//W3C//DTD SVG 1.1//EN" "http://www.w3.org/Graphics/SVG/1.1/DTD/svg11.dtd">
<svg version="1.1" xmlns="http://www.w3.org/2000/svg" xmlns:xlink="http://www.w3.org/1999/xlink" width="36" height="36" viewBox="0 0 36 36">
<path fill="#444" d="M27.37 4.839c-2.71 0-4.917 2.261-4.917 5.037 0 2.781 2.207 5.039 4.917 5.039s4.915-2.259 4.915-5.039c0-2.777-2.205-5.037-4.915-5.037z"></path>
<path fill="#444" d="M8.558 4.667c-2.804 0-5.087 2.337-5.087 5.209 0 2.876 2.283 5.213 5.087 5.213s5.087-2.337 5.087-5.213c0-2.872-2.284-5.209-5.087-5.209z"></path>
<path fill="#444" d="M17.694 11.229c-2.035 0-3.688 1.697-3.688 3.777 0 2.084 1.654 3.779 3.688 3.779 2.031 0 3.686-1.695 3.686-3.779 0-2.080-1.656-3.777-3.686-3.777z"></path>
<path fill="#444" d="M34.030 17.058c-0.232-1.264-1.024-1.844-2.238-2.24l-0.733-0.166c-1.015 0.818-2.296 1.314-3.688 1.314-1.386 0-2.656-0.487-3.672-1.299l-0.75 0.151c-0.186 0.039-0.361 0.085-0.522 0.135 0.004 0.018 0.006 0.037 0.006 0.054 0 1.044-0.332 2.008-0.885 2.799 1.247 0.284 2.18 1.399 2.18 2.729v8.732h9.407c1.237 0 2.238-1.003 2.238-2.238l-1.343-9.97z"></path>
<path fill="#444" d="M12.953 15.007c0-0.137 0.008-0.273 0.021-0.41-0.075-0.052-0.151-0.099-0.226-0.155-1.1 1.051-2.569 1.701-4.192 1.701-1.517 0-2.901-0.57-3.972-1.504l-1.618 0.522c-1.861 0.52-2.466 1.301-2.317 2.316l1.384 9.442c0.207 1.384 1.036 2.315 2.315 2.315h7.308v-8.698c0-1.33 0.937-2.445 2.18-2.729-0.553-0.792-0.883-1.755-0.883-2.799z"></path>
<path fill="#444" d="M20.928 18.786h-0.292c-0.808 0.655-1.832 1.053-2.944 1.053s-2.134-0.398-2.942-1.053h-0.292c-0.966 0-1.749 0.783-1.749 1.749v9.049c0 0.965 0.783 1.749 1.749 1.749h6.471c0.966 0 1.747-0.783 1.747-1.749v-9.049c-0-0.966-0.781-1.749-1.747-1.749z"></path>
</svg>
