<?xml version="1.0" encoding="utf-8"?>
<!-- Generated by IcoMoon.io -->
<!DOCTYPE svg PUBLIC "-//W3C//DTD SVG 1.1//EN" "http://www.w3.org/Graphics/SVG/1.1/DTD/svg11.dtd">
<svg version="1.1" xmlns="http://www.w3.org/2000/svg" xmlns:xlink="http://www.w3.org/1999/xlink" width="36" height="36" viewBox="0 0 36 36">
<path fill="#444" d="M27.189 27.948c-0.024-0.096-0.057-0.191-0.096-0.282-0.006-0.017-0.013-0.031-0.022-0.048-0.042-0.088-0.094-0.179-0.151-0.263-0.007-0.009-0.015-0.018-0.024-0.031-0.063-0.088-0.134-0.171-0.215-0.25v0c-0.085-0.079-0.177-0.155-0.276-0.223-0.002-0.002-0.006-0.004-0.009-0.006-0.096-0.068-0.199-0.125-0.309-0.18-0.009-0.004-0.015-0.009-0.024-0.013-0.112-0.050-0.223-0.094-0.341-0.134-0.009 0-0.017-0.004-0.026-0.009-0.125-0.035-0.25-0.063-0.379-0.083-0.048-0.009-0.092-0.013-0.14-0.017-0.098-0.011-0.197-0.017-0.3-0.017h-21.898c-0.096 0-0.193 0.004-0.285 0.013-0.009 0.004-0.017 0.004-0.024 0.004-0.090 0.009-0.177 0.022-0.265 0.042-0.015 0.004-0.031 0.007-0.046 0.011-0.37 0.081-0.705 0.236-0.978 0.442-0.004 0.004-0.009 0.004-0.013 0.009-0.088 0.066-0.169 0.138-0.241 0.214-0.004 0.007-0.011 0.013-0.020 0.020-0.14 0.151-0.254 0.322-0.335 0.501-0.007 0.017-0.013 0.031-0.020 0.044-0.037 0.088-0.066 0.177-0.085 0.269-0.004 0.015-0.007 0.033-0.009 0.050-0.020 0.096-0.033 0.193-0.033 0.293s0.013 0.197 0.033 0.293c0.002 0.015 0.004 0.033 0.009 0.048 0.020 0.092 0.048 0.182 0.085 0.269 0.007 0.015 0.013 0.028 0.020 0.042 0.081 0.184 0.195 0.355 0.335 0.503 0.009 0.007 0.015 0.013 0.020 0.020 0.072 0.077 0.153 0.149 0.241 0.216 0.004 0 0.009 0.005 0.013 0.009 0.274 0.206 0.608 0.359 0.978 0.442 0.199 0.044 0.405 0.070 0.619 0.070h21.898c0.151 0 0.296-0.013 0.44-0.035 0.129-0.022 0.256-0.050 0.379-0.085 0.009-0.005 0.017-0.007 0.024-0.009 0.12-0.037 0.232-0.081 0.344-0.134 0.009-0.004 0.015-0.009 0.024-0.013 0.11-0.053 0.212-0.112 0.309-0.179 0.002-0.002 0.004-0.002 0.007-0.005 0.101-0.070 0.193-0.144 0.278-0.225v0c0.081-0.079 0.151-0.162 0.217-0.25 0.007-0.009 0.015-0.020 0.022-0.031 0.057-0.083 0.11-0.171 0.151-0.263 0.009-0.015 0.015-0.033 0.022-0.046 0.039-0.092 0.072-0.184 0.096-0.285 0.002-0.013 0.004-0.026 0.007-0.039 0.022-0.103 0.035-0.208 0.035-0.315 0-0.109-0.013-0.214-0.035-0.317-0.002-0.013-0.004-0.026-0.007-0.039z"></path>
<path fill="#444" d="M24.383 25.302c0.129-0.508 0.203-1.029 0.203-1.552 0-4.57-4.861-8.288-10.838-8.288s-10.84 3.718-10.84 8.288c0 0.536 0.092 1.053 0.243 1.552h21.232z"></path>
<path fill="#444" d="M24.878 31.306h-21.895c-0.182 0-0.359-0.015-0.532-0.042 0.407 2.438 2.202 4.274 4.355 4.274h14.067c2.147 0 3.935-1.823 4.353-4.248-0.114 0.011-0.232 0.015-0.348 0.015z"></path>
<path fill="#444" d="M25.865 23.75c0 0.527-0.063 1.055-0.175 1.576 1.709 0.173 3.042 1.44 3.042 2.979 0 1.655-1.543 3.001-3.443 3.001h-1.033c0.385 0.435 0.941 0.724 1.539 0.724h5.603c1.018 0 1.933-0.832 2.038-1.843l1.928-19.287c0.101-1.015-0.65-1.847-1.67-1.847h-10.317c-1.020 0-1.766 0.832-1.661 1.847l0.657 6.233c2.154 1.696 3.493 4.034 3.493 6.616z"></path>
<path fill="#444" d="M33.635 7.968l0.731-6.286c0.070-0.6-0.361-1.143-0.961-1.213-0.591-0.070-1.14 0.359-1.213 0.961l-0.759 6.538h2.202z"></path>
</svg>
