<?xml version="1.0" encoding="utf-8"?>
<!-- Generated by IcoMoon.io -->
<!DOCTYPE svg PUBLIC "-//W3C//DTD SVG 1.1//EN" "http://www.w3.org/Graphics/SVG/1.1/DTD/svg11.dtd">
<svg version="1.1" xmlns="http://www.w3.org/2000/svg" xmlns:xlink="http://www.w3.org/1999/xlink" width="36" height="36" viewBox="0 0 36 36">
<path fill="#444" d="M35.438 12.769c0-5.26-4.263-9.523-9.523-9.523-3.297 0-6.204 1.677-7.915 4.225-1.709-2.548-4.616-4.225-7.912-4.225-5.261 0-9.525 4.264-9.525 9.523 0 1.315 0.267 2.567 0.749 3.707 0.204 0.483 0.451 0.943 0.73 1.381 3.596 7.499 15.959 14.897 15.959 14.897s12.364-7.398 15.96-14.897c0.279-0.439 0.525-0.898 0.729-1.381 0.483-1.14 0.749-2.392 0.749-3.707z"></path>
</svg>
