<?xml version="1.0" encoding="utf-8"?>
<!-- Generated by IcoMoon.io -->
<!DOCTYPE svg PUBLIC "-//W3C//DTD SVG 1.1//EN" "http://www.w3.org/Graphics/SVG/1.1/DTD/svg11.dtd">
<svg version="1.1" xmlns="http://www.w3.org/2000/svg" xmlns:xlink="http://www.w3.org/1999/xlink" width="36" height="36" viewBox="0 0 36 36">
<path fill="#444" d="M8.966 31.552c-1.921 0-3.475-1.556-3.475-3.475v-21.542h-0.348c-1.919 0-3.475 1.556-3.475 3.473v21.892c0 1.919 1.556 3.473 3.475 3.473h19.806c1.919 0 3.473-1.554 3.473-3.473v-0.348h-19.456z"></path>
<path fill="#444" d="M26.541 9.577h5.636l-7.63-7.074-0.004 5.079c0 1.1 0.895 1.995 1.998 1.995z"></path>
<path fill="#444" d="M26.541 11.574c-2.209 0-3.995-1.79-3.995-3.995v-6.931l-0.025-0.021h-11.47c-1.919 0-3.475 1.556-3.475 3.475v21.888c0 1.921 1.556 3.477 3.475 3.477h19.804c1.919 0 3.477-1.556 3.477-3.477v-14.416h-7.791zM28.625 23.943h-15.469c-0.574 0-1.040-0.466-1.040-1.044 0-0.574 0.466-1.040 1.040-1.040h15.469c0.576 0 1.044 0.466 1.044 1.040 0 0.578-0.468 1.044-1.044 1.044zM28.625 18.632h-15.469c-0.574 0-1.040-0.466-1.040-1.042s0.466-1.042 1.040-1.042h15.469c0.576 0 1.044 0.466 1.044 1.042s-0.468 1.042-1.044 1.042z"></path>
</svg>
