<?xml version="1.0" encoding="utf-8"?>
<!-- Generated by IcoMoon.io -->
<!DOCTYPE svg PUBLIC "-//W3C//DTD SVG 1.1//EN" "http://www.w3.org/Graphics/SVG/1.1/DTD/svg11.dtd">
<svg version="1.1" xmlns="http://www.w3.org/2000/svg" xmlns:xlink="http://www.w3.org/1999/xlink" width="36" height="36" viewBox="0 0 36 36">
<path fill="#444" d="M0.627 33.709c0 0.385 0.311 0.694 0.694 0.694h33.359c0.381 0 0.692-0.309 0.692-0.694v-0.696c0-0.383-0.311-0.692-0.692-0.692h-33.359c-0.383 0-0.694 0.309-0.694 0.692v0.696z"></path>
<path fill="#444" d="M24.95 30.016c0 0.311 0.249 0.557 0.557 0.557h8.614c0.307 0 0.557-0.247 0.557-0.557v-14.374c0-0.309-0.251-0.559-0.557-0.559h-8.614c-0.309 0-0.557 0.251-0.557 0.559v14.374z"></path>
<path fill="#444" d="M13.135 29.979c0 0.329 0.269 0.597 0.597 0.597h8.537c0.327 0 0.597-0.267 0.597-0.597v-16.453c0-0.329-0.269-0.599-0.597-0.599h-8.537c-0.327 0-0.597 0.269-0.597 0.599v16.453z"></path>
<path fill="#444" d="M1.324 30.080c0 0.274 0.222 0.495 0.495 0.495h8.736c0.274 0 0.495-0.222 0.495-0.495v-11.206c0-0.273-0.222-0.497-0.495-0.497h-8.736c-0.273 0-0.495 0.224-0.495 0.497v11.206z"></path>
<path fill="#444" d="M2.293 15.449c0.34 0 0.68-0.108 0.966-0.334l10.1-7.932 12.922 4.774c0.609 0.228 1.293 0.050 1.72-0.439l2.431-2.789 2.348 2.047 1.799-9.18-8.852 3.032 2.348 2.045-1.722 1.977-12.727-4.704c-0.508-0.189-1.082-0.099-1.508 0.236l-10.787 8.475c-0.68 0.53-0.796 1.515-0.265 2.192 0.311 0.394 0.771 0.599 1.231 0.599z"></path>
</svg>
