<?xml version="1.0" encoding="utf-8"?>
<!-- Generated by IcoMoon.io -->
<!DOCTYPE svg PUBLIC "-//W3C//DTD SVG 1.1//EN" "http://www.w3.org/Graphics/SVG/1.1/DTD/svg11.dtd">
<svg version="1.1" xmlns="http://www.w3.org/2000/svg" xmlns:xlink="http://www.w3.org/1999/xlink" width="36" height="36" viewBox="0 0 36 36">
<path fill="#444" d="M8.386 35.438c-4.331 0-7.841-3.507-7.841-7.834v-19.208c0-4.326 3.511-7.834 7.841-7.834h19.228c4.331 0 7.841 3.507 7.841 7.834v19.208c0 4.326-3.511 7.834-7.841 7.834h-19.228zM10.64 20.584l-0.042 6.92h0.712v-7.852h-0.953l-2.659 5.706-2.659-5.706h-0.953v7.852h0.712l-0.042-6.92 2.649 5.716h0.586l2.649-5.716zM16.765 24.887c0-1.602-0.398-2.722-2.199-2.722-1.79 0-2.199 1.12-2.199 2.722s0.408 2.722 2.199 2.722c1.801 0 2.199-1.12 2.199-2.722zM16.032 24.887c0 1.183-0.105 2.073-1.466 2.073-1.382 0-1.466-0.89-1.466-2.073s0.084-2.073 1.466-2.073c1.361 0 1.466 0.89 1.466 2.073zM19.916 22.165c-0.482 0-1.016 0.136-1.466 0.429v-2.942h-0.733v7.852h0.408l0.157-0.429c0.544 0.345 1.068 0.534 1.633 0.534 1.686 0 2.146-1.214 2.146-2.722s-0.461-2.722-2.146-2.722zM19.016 22.919c0.241-0.073 0.524-0.105 0.9-0.105 1.256 0 1.413 1.037 1.413 2.073s-0.157 2.073-1.413 2.073c-0.68 0-1.057-0.115-1.466-0.335v-3.476c0.157-0.084 0.345-0.157 0.565-0.23zM22.963 20.333c0 0.325 0.251 0.576 0.576 0.576s0.576-0.251 0.576-0.576c0-0.324-0.251-0.576-0.576-0.576s-0.576 0.251-0.576 0.576zM24.334 27.609v-0.597c-0.324 0-0.44-0.105-0.44-0.471v-4.272h-0.712v4.188c0 0.838 0.398 1.152 1.152 1.152zM26.543 27.609v-0.597c-0.324 0-0.44-0.105-0.44-0.471v-6.889h-0.712v6.805c0 0.837 0.398 1.152 1.152 1.152zM27.328 24.887c0 1.508 0.429 2.722 2.199 2.722 0.513 0 1.141-0.052 1.727-0.314v-0.628c-0.513 0.22-0.974 0.293-1.727 0.293-1.183 0-1.424-0.827-1.466-1.738h3.455v-0.335c0-1.508-0.209-2.722-1.989-2.722-1.769 0-2.199 1.214-2.199 2.722zM29.527 22.814c1.204 0 1.256 0.88 1.256 1.811h-2.722c0.031-0.942 0.251-1.811 1.466-1.811zM4.095 17.842h2.628v-3.717h3.441v-2.12h-3.441v-1.801h3.659v-2.149h-6.287v9.786zM13.902 17.842v-6.837h-2.573v6.837h2.573zM12.622 10.28c0.796 0 1.308-0.54 1.308-1.208-0.014-0.711-0.512-1.223-1.308-1.223s-1.308 0.512-1.308 1.223c0 0.668 0.498 1.208 1.293 1.208h0.014zM19.467 18.002c3.006 0 4.893-2.004 4.893-5.155 0-2.614-1.597-4.951-4.748-4.951-3.006 0-4.864 2.265-4.864 5.111 0 2.715 1.67 4.995 4.704 4.995h0.015zM19.554 15.926c-1.264 0-2.047-1.22-2.033-2.977 0-1.699 0.769-2.977 2.033-2.977 1.278 0 2.033 1.278 2.033 2.962 0 1.772-0.74 2.991-2.004 2.991h-0.029zM24.854 17.392c0.552 0.291 1.699 0.595 2.875 0.595 2.861 0 4.167-1.437 4.167-3.122 0-1.365-0.784-2.294-2.541-2.948-1.234-0.465-1.757-0.654-1.757-1.147 0-0.436 0.435-0.726 1.234-0.726 0.973 0 1.7 0.276 2.12 0.465l0.552-2.105c-0.638-0.276-1.481-0.494-2.642-0.494-2.468 0-3.935 1.336-3.935 3.064 0 1.452 1.104 2.352 2.759 2.948 1.103 0.378 1.539 0.639 1.539 1.118 0 0.494-0.436 0.799-1.336 0.799-0.987 0-1.946-0.305-2.542-0.61l-0.493 2.163z"></path>
</svg>
