<?xml version="1.0" encoding="utf-8"?>
<!-- Generated by IcoMoon.io -->
<!DOCTYPE svg PUBLIC "-//W3C//DTD SVG 1.1//EN" "http://www.w3.org/Graphics/SVG/1.1/DTD/svg11.dtd">
<svg version="1.1" xmlns="http://www.w3.org/2000/svg" xmlns:xlink="http://www.w3.org/1999/xlink" width="36" height="36" viewBox="0 0 36 36">
<path fill="#444" d="M35.438 32.444c0 1.646-1.347 2.993-2.993 2.993h-28.888c-1.646 0-2.993-1.347-2.993-2.993v-28.888c0-1.646 1.347-2.993 2.993-2.993h28.888c1.646 0 2.993 1.347 2.993 2.993v28.888zM10.649 20.572l-0.042 6.914h0.711v-7.844h-0.952l-2.657 5.7-2.657-5.7h-0.952v7.845h0.711l-0.042-6.914 2.646 5.711h0.586l2.646-5.711zM16.767 24.871c0-1.6-0.397-2.719-2.196-2.719-1.789 0-2.197 1.119-2.197 2.719s0.408 2.719 2.197 2.719c1.799 0 2.196-1.119 2.196-2.719zM16.035 24.871c0 1.182-0.105 2.071-1.464 2.071-1.381 0-1.464-0.889-1.464-2.071s0.084-2.071 1.464-2.071c1.36 0 1.464 0.889 1.464 2.071zM19.916 22.151c-0.481 0-1.015 0.136-1.464 0.429v-2.939h-0.732v7.845h0.408l0.157-0.429c0.544 0.345 1.067 0.533 1.632 0.533 1.684 0 2.144-1.213 2.144-2.719s-0.46-2.719-2.144-2.719zM19.016 22.904c0.241-0.073 0.523-0.105 0.9-0.105 1.255 0 1.412 1.035 1.412 2.071s-0.157 2.071-1.412 2.071c-0.68 0-1.056-0.115-1.464-0.335v-3.473c0.157-0.084 0.345-0.157 0.565-0.23zM22.959 20.321c0 0.324 0.251 0.575 0.575 0.575s0.575-0.251 0.575-0.575c0-0.324-0.251-0.575-0.575-0.575s-0.575 0.251-0.575 0.575zM24.329 27.59v-0.596c-0.324 0-0.439-0.105-0.439-0.471v-4.267h-0.711v4.184c0 0.837 0.397 1.151 1.151 1.151zM26.536 27.59v-0.596c-0.324 0-0.439-0.105-0.439-0.471v-6.882h-0.711v6.799c0 0.837 0.397 1.151 1.151 1.151zM27.321 24.871c0 1.506 0.429 2.719 2.196 2.719 0.513 0 1.14-0.052 1.726-0.314v-0.628c-0.513 0.22-0.973 0.293-1.726 0.293-1.182 0-1.423-0.826-1.464-1.736h3.452v-0.335c0-1.506-0.209-2.719-1.987-2.719-1.768 0-2.196 1.213-2.196 2.72zM29.517 22.8c1.203 0 1.255 0.879 1.255 1.809h-2.719c0.031-0.941 0.251-1.809 1.464-1.809zM19.471 17.992c3.003 0 4.889-2.002 4.889-5.15 0-2.611-1.596-4.946-4.744-4.946-3.003 0-4.86 2.263-4.86 5.106 0 2.713 1.668 4.99 4.7 4.99h0.015zM19.558 15.917c-1.262 0-2.045-1.218-2.031-2.974 0-1.697 0.768-2.974 2.031-2.974 1.277 0 2.031 1.276 2.031 2.959 0 1.77-0.739 2.988-2.002 2.988h-0.029zM4.113 17.832h2.626v-3.713h3.438v-2.118h-3.438v-1.799h3.655v-2.147h-6.281v9.777zM13.911 17.832v-6.83h-2.571v6.83h2.571zM12.632 10.277c0.796 0 1.307-0.54 1.307-1.207-0.014-0.71-0.511-1.221-1.307-1.221s-1.306 0.511-1.306 1.221c0 0.668 0.497 1.207 1.292 1.207h0.014zM24.852 17.382c0.551 0.29 1.697 0.595 2.872 0.595 2.858 0 4.163-1.436 4.163-3.119 0-1.364-0.783-2.292-2.538-2.945-1.233-0.464-1.756-0.653-1.756-1.146 0-0.435 0.435-0.726 1.233-0.726 0.972 0 1.698 0.276 2.118 0.464l0.551-2.103c-0.638-0.276-1.479-0.493-2.64-0.493-2.466 0-3.931 1.335-3.931 3.061 0 1.451 1.103 2.35 2.756 2.945 1.102 0.377 1.538 0.638 1.538 1.117 0 0.493-0.436 0.798-1.334 0.798-0.986 0-1.944-0.305-2.539-0.609l-0.493 2.161z"></path>
</svg>
