<?xml version="1.0" encoding="utf-8"?>
<!-- Generated by IcoMoon.io -->
<!DOCTYPE svg PUBLIC "-//W3C//DTD SVG 1.1//EN" "http://www.w3.org/Graphics/SVG/1.1/DTD/svg11.dtd">
<svg version="1.1" xmlns="http://www.w3.org/2000/svg" xmlns:xlink="http://www.w3.org/1999/xlink" width="36" height="36" viewBox="0 0 36 36">
<path fill="#444" d="M15.223 28.787c-1.046-1.598-1.88-3.904-1.299-6.608 1.014-4.724 3.783-7.493 3.791-7.499 0.008 0.006 2.774 2.774 3.791 7.499 0.621 2.897-0.378 5.332-1.521 6.934 3.855-0.425 9.919-5.825 8.959-12.146-0.834-5.511-4.263-6.898-4.263-6.898s0.693 2.737-0.431 3.96c-1.035 1.124-2.341 1.088-2.341 1.088 1.231-1.233 2.003-5.549 0-9.247-2.005-3.7-6.166-5.242-6.166-5.242 1.041 2.659 0.463 4.779 0.463 4.779-1.931 5.125-7.053 6.781-8.893 11.929-0.941 2.631 0.002 5.897 2.496 8.647 1.346 1.483 3.275 2.362 5.415 2.804z"></path>
<path fill="#444" d="M26.81 31.081h-17.619c-0.405 0-0.73 0.327-0.73 0.73v2.833c0 0.403 0.326 0.728 0.73 0.728h17.619c0.403 0 0.73-0.326 0.73-0.728v-2.833c-0-0.403-0.327-0.73-0.73-0.73z"></path>
</svg>
