<?xml version="1.0" encoding="utf-8"?>
<!-- Generated by IcoMoon.io -->
<!DOCTYPE svg PUBLIC "-//W3C//DTD SVG 1.1//EN" "http://www.w3.org/Graphics/SVG/1.1/DTD/svg11.dtd">
<svg version="1.1" xmlns="http://www.w3.org/2000/svg" xmlns:xlink="http://www.w3.org/1999/xlink" width="36" height="36" viewBox="0 0 36 36">
<path fill="#444" d="M25.453 19.025c-0.555-3.664-2.835-4.586-2.835-4.586s0.46 1.819-0.288 2.634c-0.644 0.701-1.449 0.723-1.547 0.723h-0.010c0.581-0.582 1.005-2.202 0.726-3.973-0.113-0.72-0.342-1.466-0.726-2.177-1.333-2.46-4.101-3.486-4.101-3.486 0.202 0.516 0.311 1 0.365 1.428 0.133 1.041-0.057 1.75-0.057 1.75-1.281 3.409-4.69 4.51-5.913 7.933-0.625 1.751 0.003 3.921 1.659 5.75 0.896 0.987 2.179 1.57 3.602 1.865-0.696-1.063-1.251-2.594-0.863-4.395 0.674-3.14 2.516-4.98 2.52-4.985h0.001c0.004 0.005 1.845 1.845 2.52 4.985 0.413 1.927-0.251 3.547-1.012 4.612 2.564-0.283 6.597-3.872 5.96-8.077z"></path>
<path fill="#444" d="M34.058 24.352h-8.111c-0.182 0.298-0.379 0.591-0.599 0.876-1.517 1.976-3.739 3.388-5.663 3.602h-0.010l-3.42-0.185-0.279-0.057c-1.928-0.399-3.455-1.206-4.538-2.4-0.531-0.586-0.975-1.202-1.331-1.836h-8.166c-0.761 0-1.379 0.619-1.379 1.379v5.865c0 0.763 0.619 1.379 1.379 1.379h32.116c0.762 0 1.379-0.616 1.379-1.379v-5.865c-0-0.761-0.617-1.379-1.379-1.379z"></path>
<path fill="#444" d="M9.431 18.685c0.753-2.106 2.155-3.464 3.39-4.663 0.175-0.168 0.343-0.334 0.509-0.498h-11.388c-0.761 0-1.379 0.618-1.379 1.379v5.866c0 0.762 0.619 1.378 1.379 1.378h7.314c-0.264-1.185-0.217-2.37 0.175-3.462z"></path>
<path fill="#444" d="M34.058 13.524h-9.653c0.993 0.79 2.33 2.356 2.766 5.24 0.171 1.121 0.085 2.268-0.239 3.383h7.126c0.762 0 1.379-0.616 1.379-1.379v-5.865c0-0.762-0.617-1.379-1.379-1.379z"></path>
<path fill="#444" d="M34.058 3.024h-32.116c-0.761 0-1.379 0.618-1.379 1.379v5.865c0 0.763 0.619 1.38 1.379 1.38h12.957c0.157-0.257 0.297-0.526 0.414-0.818 0.035-0.208 0.135-1.032-0.259-2.037l-0.496-1.271-0.291-0.577 0.004-0.001c-0.132-0.246-0.257-0.604-0.237-0.762 0.019-0.16 0.085-0.313 0.207-0.436 0.108-0.107 0.241-0.175 0.379-0.201 0.1-0.019 0.319 0.050 0.554 0.148l0.003-0.004 0.873 0.386 1.229 0.455c0.138 0.052 3.399 1.287 5.024 4.288 0.147 0.273 0.276 0.551 0.388 0.831h11.369c0.762 0 1.379-0.617 1.379-1.38v-5.865c-0-0.761-0.617-1.379-1.379-1.379z"></path>
</svg>
