<?xml version="1.0" encoding="utf-8"?>
<!-- Generator: Adobe Illustrator 19.1.0, SVG Export Plug-In . SVG Version: 6.00 Build 0)  -->
<svg version="1.1" id="Layer_1" xmlns="http://www.w3.org/2000/svg" xmlns:xlink="http://www.w3.org/1999/xlink" x="0px" y="0px"
	 viewBox="-961 -219 1000 1000" style="enable-background:new -961 -219 1000 1000;" xml:space="preserve">
<style type="text/css">
	.st0{fill:#444444;}
</style>
<g>
	<path class="st0" d="M-503.6,281L-58.1-73.6c11-8.7,24.1-12.9,37.1-12.9c17.8,0,35.4,7.8,47.2,22.9c20.5,26,16,63.8-10,84.3
		L-314.3,281h0L16.1,541.4c26,20.5,30.5,58.2,10,84.3c-11.8,15-29.4,22.9-47.2,22.9c-13,0-26.1-4.2-37.1-12.9L-503.6,281L-503.6,281
		z"/>
	<path class="st0" d="M-961,281l445.4-354.6c11-8.7,24.1-12.9,37.1-12.9c17.8,0,35.4,7.8,47.2,22.9c20.5,26,16,63.8-10,84.3
		L-771.7,281h0l330.4,260.4c26,20.5,30.5,58.2,10,84.3c-11.8,15-29.4,22.9-47.2,22.9c-13,0-26.1-4.2-37.1-12.9L-961,281L-961,281z"
		/>
</g>
</svg>
