<?xml version="1.0" encoding="utf-8"?>
<!-- Generated by IcoMoon.io -->
<!DOCTYPE svg PUBLIC "-//W3C//DTD SVG 1.1//EN" "http://www.w3.org/Graphics/SVG/1.1/DTD/svg11.dtd">
<svg version="1.1" xmlns="http://www.w3.org/2000/svg" xmlns:xlink="http://www.w3.org/1999/xlink" width="36" height="36" viewBox="0 0 36 36">
<path fill="#444" d="M5.572 16.636c-0.334-0.907-1.342-1.372-2.259-1.043s-1.388 1.333-1.054 2.24l3.789 10.326c0.334 0.907 1.345 1.374 2.261 1.045 0.914-0.332 1.386-1.333 1.054-2.24l-3.792-10.328z"></path>
<path fill="#444" d="M3.069 22.365c-0.237-0.645-0.958-0.981-1.612-0.746-0.654 0.237-0.99 0.953-0.755 1.602l0.663 1.8c0.239 0.651 0.962 0.985 1.616 0.748 0.652-0.233 0.99-0.951 0.751-1.6l-0.663-1.805z"></path>
<path fill="#444" d="M24.973 7.008c-0.336-0.921-1.368-1.4-2.298-1.059l-0.886 0.318c-0.932 0.336-1.416 1.358-1.073 2.282l2.093 5.703-10.922 3.942-2.095-5.703c-0.336-0.923-1.368-1.4-2.298-1.061l-0.889 0.318c-0.93 0.336-1.411 1.358-1.073 2.282l5.493 14.96c0.338 0.923 1.367 1.4 2.3 1.066l0.886-0.322c0.935-0.336 1.411-1.356 1.075-2.282l-1.849-5.035 10.92-3.939 1.849 5.035c0.336 0.921 1.368 1.4 2.298 1.061l0.889-0.32c0.932-0.336 1.414-1.358 1.073-2.279l-5.493-14.965z"></path>
<path fill="#444" d="M29.951 7.839c-0.332-0.907-1.345-1.374-2.259-1.043-0.916 0.327-1.388 1.331-1.052 2.238l3.787 10.328c0.334 0.907 1.344 1.377 2.259 1.045 0.916-0.332 1.388-1.335 1.057-2.242l-3.792-10.326z"></path>
<path fill="#444" d="M35.297 12.78l-0.663-1.807c-0.24-0.645-0.962-0.981-1.616-0.744-0.651 0.235-0.985 0.951-0.748 1.598l0.661 1.807c0.237 0.647 0.958 0.981 1.614 0.744 0.652-0.237 0.99-0.951 0.753-1.598z"></path>
</svg>
