<?xml version="1.0" encoding="utf-8"?>
<!-- Generated by IcoMoon.io -->
<!DOCTYPE svg PUBLIC "-//W3C//DTD SVG 1.1//EN" "http://www.w3.org/Graphics/SVG/1.1/DTD/svg11.dtd">
<svg version="1.1" xmlns="http://www.w3.org/2000/svg" xmlns:xlink="http://www.w3.org/1999/xlink" width="36" height="36" viewBox="0 0 36 36">
<path fill="#444" d="M4.874 13.886c-2.346 0-4.247 1.901-4.247 4.247 0 2.348 1.901 4.249 4.247 4.249 2.348 0 4.251-1.901 4.251-4.249 0-2.346-1.903-4.247-4.251-4.247z"></path>
<path fill="#444" d="M35.159 31.395l-6.916-13.772c0-0.019 0.002-0.031 0.002-0.046l-0.846-1.718c-1.087-2.132-1.429-3.187-3.187-3.187h-7.508l5.688-7.789c0.65-0.889 0.457-2.14-0.434-2.79s-2.14-0.457-2.79 0.436l-8.094 11.074c-0.578 0.575-0.935 1.373-0.935 2.256v14.996c0 1.105 0.895 1.999 1.997 1.999 1.103 0 1.997-0.893 1.997-1.999v-10.413h7.164l-5.476 10.957c-0.494 0.985-0.091 2.186 0.893 2.678 0.287 0.145 0.59 0.214 0.891 0.214 0.733 0 1.438-0.405 1.789-1.105l6.083-12.17 6.112 12.173c0.353 0.698 1.055 1.103 1.789 1.103 0.299 0 0.605-0.071 0.893-0.214 0.987-0.494 1.386-1.695 0.889-2.682z"></path>
</svg>
