<?xml version="1.0" encoding="utf-8"?>
<!-- Generated by IcoMoon.io -->
<!DOCTYPE svg PUBLIC "-//W3C//DTD SVG 1.1//EN" "http://www.w3.org/Graphics/SVG/1.1/DTD/svg11.dtd">
<svg version="1.1" xmlns="http://www.w3.org/2000/svg" xmlns:xlink="http://www.w3.org/1999/xlink" width="36" height="36" viewBox="0 0 36 36">
<path fill="#444" d="M31.11 7.617h-10.274v-2.448c0-0.573-0.468-1.044-1.044-1.044h-11.774v-2.454c0-0.573-0.468-1.042-1.040-1.042h-2.085c-0.572 0-1.044 0.469-1.044 1.042v32.659c0 0.573 0.472 1.044 1.044 1.044h2.085c0.572 0 1.040-0.471 1.040-1.044v-11.093h5.777v2.449c0 0.573 0.468 1.041 1.040 1.041h16.274c0.572 0 1.040-0.468 1.040-1.041v-17.026c0-0.573-0.468-1.042-1.040-1.042z"></path>
</svg>
