<?xml version="1.0" encoding="utf-8"?>
<!-- Generated by IcoMoon.io -->
<!DOCTYPE svg PUBLIC "-//W3C//DTD SVG 1.1//EN" "http://www.w3.org/Graphics/SVG/1.1/DTD/svg11.dtd">
<svg version="1.1" xmlns="http://www.w3.org/2000/svg" xmlns:xlink="http://www.w3.org/1999/xlink" width="36" height="36" viewBox="0 0 36 36">
<path fill="#444" d="M34.876 20.556v-4.269l-1.679-6.014c0 0-0.138-0.491-0.17-0.57-0.054-0.136-0.129-0.274-0.219-0.405-0.278-0.4-0.688-0.719-1.059-0.719h-5.583v-2.749c0-0.749-0.606-1.355-1.355-1.355h-15.706c-0.746 0-1.353 0.606-1.353 1.355v1.668h12.382c1.577 0 2.864 1.283 2.864 2.86v1.703h4.376v-2.129h4.061l1.464 4.772h-2.194l1.228 4.407 0.204 0.724 0.548 1.975v0.305h1.875c0.448 0 0.812-0.362 0.812-0.81 0-0.337-0.206-0.627-0.496-0.749z"></path>
<path fill="#444" d="M25.356 25.499c-1.663 0-3.013 1.351-3.013 3.014 0 0.007 0.002 0.018 0.002 0.025 0.014 1.652 1.357 2.986 3.011 2.986 1.656 0 2.998-1.333 3.013-2.986 0-0.007 0.002-0.018 0.002-0.025-0-1.663-1.348-3.014-3.014-3.014z"></path>
<path fill="#444" d="M7.169 25.499c-1.665 0-3.014 1.351-3.014 3.014 0 0.007 0.004 0.018 0.004 0.025 0.014 1.652 1.355 2.986 3.011 2.986s2.996-1.333 3.011-2.986c0-0.007 0.002-0.018 0.002-0.025 0-1.663-1.35-3.014-3.013-3.014z"></path>
<path fill="#444" d="M31.331 26.743v-4.746c0 0-2.022-7.24-2.054-7.326-0.063-0.154-0.147-0.308-0.247-0.452-0.306-0.444-0.763-0.801-1.176-0.801h-6.213v-3.057c0-0.833-0.676-1.507-1.507-1.507h-17.473c-0.832 0-1.507 0.674-1.507 1.507v16.396c-0.31 0.143-0.525 0.453-0.525 0.819 0 0.5 0.405 0.903 0.903 0.903h1.724c0.016-2.143 1.765-3.884 3.914-3.884s3.896 1.74 3.914 3.884h10.359c0.018-2.143 1.767-3.884 3.916-3.884 2.147 0 3.894 1.74 3.914 3.884h1.708c0.5 0 0.903-0.403 0.903-0.903 0-0.375-0.228-0.695-0.552-0.833zM15.019 15.001v0l-4.773 4.772-1.022-1.023-1.704-1.703v-0.004c-0.283-0.28-0.283-0.738 0-1.022 0.281-0.283 0.738-0.283 1.022 0 0 0 0 0.002 0.002 0.002l1.703 1.703 3.751-3.751c0.281-0.283 0.74-0.283 1.022 0 0.283 0.283 0.283 0.742 0 1.025zM22.983 20.234v-5.308h4.52l1.629 5.308h-6.149z"></path>
</svg>
