<?xml version="1.0" encoding="utf-8"?>
<!-- Generated by IcoMoon.io -->
<!DOCTYPE svg PUBLIC "-//W3C//DTD SVG 1.1//EN" "http://www.w3.org/Graphics/SVG/1.1/DTD/svg11.dtd">
<svg version="1.1" xmlns="http://www.w3.org/2000/svg" xmlns:xlink="http://www.w3.org/1999/xlink" width="36" height="36" viewBox="0 0 36 36">
<path fill="#444" d="M34.874 20.556v-4.269l-0.45-1.613-0.181-0.652-1.048-3.749-0.043-0.161-0.050-0.179c-0.018-0.075-0.043-0.151-0.075-0.229-0.056-0.136-0.131-0.274-0.221-0.405-0.276-0.4-0.686-0.719-1.059-0.719h-5.582v-2.749c0-0.749-0.606-1.355-1.353-1.355h-15.706c-0.746 0-1.353 0.606-1.353 1.355v1.668h12.382c1.577 0 2.862 1.283 2.862 2.86v1.702h4.376v-2.129h4.061l0.056 0.179 0.301 0.984 0.755 2.455 0.125 0.405 0.125 0.414 0.104 0.335h-2.193l0.014 0.052 0.050 0.181 1.163 4.174 0.204 0.724 0.498 1.796 0.050 0.179v0.305h1.873c0.448 0 0.814-0.362 0.814-0.81-0-0.337-0.206-0.627-0.498-0.749z"></path>
<path fill="#444" d="M25.357 25.499c-1.663 0-3.013 1.351-3.013 3.014 0 0.009 0.002 0.018 0.002 0.025 0.014 1.652 1.357 2.986 3.011 2.986 1.656 0 2.996-1.333 3.013-2.986 0-0.007 0.002-0.016 0.002-0.025-0-1.663-1.349-3.014-3.014-3.014z"></path>
<path fill="#444" d="M7.169 25.499c-1.663 0-3.013 1.351-3.013 3.014 0 0.009 0.002 0.018 0.002 0.025 0.014 1.652 1.357 2.986 3.011 2.986 1.656 0 2.998-1.333 3.013-2.986 0-0.007 0.002-0.016 0.002-0.025-0-1.663-1.351-3.014-3.014-3.014z"></path>
<path fill="#444" d="M31.331 26.743v-4.747l-0.5-1.794-0.204-0.728-1.213-4.351-0.056-0.197c-0.020-0.086-0.048-0.168-0.082-0.254-0.061-0.154-0.147-0.308-0.247-0.452-0.306-0.444-0.762-0.801-1.176-0.801h-6.211v-3.059c0-0.832-0.676-1.505-1.507-1.505h-17.475c-0.832 0-1.504 0.674-1.504 1.505v16.398c-0.314 0.143-0.529 0.453-0.529 0.819 0 0.5 0.405 0.903 0.903 0.903h1.724c0.018-2.143 1.765-3.883 3.914-3.883s3.898 1.74 3.914 3.883h10.36c0.016-2.143 1.765-3.883 3.914-3.883s3.896 1.74 3.914 3.883h1.71c0.498 0 0.903-0.403 0.903-0.903-0-0.375-0.23-0.695-0.552-0.833zM17.136 17.653c0 0.409-0.335 0.742-0.742 0.742h-2.373v2.375c0 0.407-0.333 0.74-0.742 0.74h-1.186c-0.409 0-0.742-0.333-0.742-0.74v-2.375h-2.373c-0.409 0-0.744-0.333-0.744-0.742v-1.186c0-0.409 0.335-0.742 0.744-0.742h2.373v-2.373c0-0.409 0.333-0.742 0.742-0.742h1.186c0.409 0 0.742 0.333 0.742 0.742v2.373h2.373c0.407 0 0.742 0.333 0.742 0.742v1.186zM27.475 20.234h-4.491v-5.308h4.52l0.061 0.197 0.335 1.097 0.839 2.729 0.138 0.452 0.142 0.459 0.115 0.375h-1.658z"></path>
</svg>
