<?xml version="1.0" encoding="utf-8"?>
<!-- Generated by IcoMoon.io -->
<!DOCTYPE svg PUBLIC "-//W3C//DTD SVG 1.1//EN" "http://www.w3.org/Graphics/SVG/1.1/DTD/svg11.dtd">
<svg version="1.1" xmlns="http://www.w3.org/2000/svg" xmlns:xlink="http://www.w3.org/1999/xlink" width="36" height="36" viewBox="0 0 36 36">
<path fill="#444" d="M17.75 35.437c1.024 0 1.861-0.743 1.861-1.649l-0.62-6.050c0-0.908-0.217-1.649-1.241-1.649-1.023 0-1.239 0.742-1.239 1.649l-0.62 6.050c0 0.907 0.837 1.649 1.859 1.649z"></path>
<path fill="#444" d="M24.921 25.964c-2.014 1.094-3.348 2.951-3.843 5.019 2.003 0.711 4.287 0.602 6.301-0.492s3.349-2.952 3.844-5.018c-2.002-0.711-4.288-0.603-6.302 0.491z"></path>
<path fill="#444" d="M30.087 11.118c-0.008-2.963-2.417-5.358-5.379-5.35-0.669 0.002-1.308 0.126-1.897 0.351 0.003-0.068 0.005-0.136 0.005-0.205-0.008-2.963-2.418-5.359-5.379-5.351-2.963 0.007-5.359 2.416-5.353 5.379 0.001 0.099 0.005 0.197 0.010 0.294-0.61-0.238-1.271-0.369-1.966-0.367-2.962 0.008-5.357 2.416-5.35 5.379 0.007 2.489 1.705 4.575 4.003 5.176-0.755 0.928-1.207 2.112-1.204 3.401 0.007 2.963 2.416 5.357 5.379 5.351 1.907-0.006 3.579-1.006 4.526-2.509 0.962 1.463 2.617 2.427 4.498 2.422 2.963-0.009 5.359-2.417 5.351-5.38-0.003-1.289-0.46-2.47-1.221-3.394 2.295-0.613 3.983-2.709 3.977-5.197zM18.058 21.076c-0.211 0-0.419-0.025-0.625-0.062-0.206 0.037-0.414 0.062-0.625 0.062-3.268 0-5.961-4.462-6.344-10.222 0.91 0.101 2.495 0.498 3.926 1.695 0.792-2.746 3.039-4.753 3.039-4.753s2.25 2.010 3.041 4.759c1.432-1.203 3.021-1.6 3.933-1.701-0.384 5.759-3.077 10.221-6.344 10.221z"></path>
</svg>
