<?xml version="1.0" encoding="utf-8"?>
<!-- Generated by IcoMoon.io -->
<!DOCTYPE svg PUBLIC "-//W3C//DTD SVG 1.1//EN" "http://www.w3.org/Graphics/SVG/1.1/DTD/svg11.dtd">
<svg version="1.1" xmlns="http://www.w3.org/2000/svg" xmlns:xlink="http://www.w3.org/1999/xlink" width="36" height="36" viewBox="0 0 36 36">
<path fill="#444" d="M35.438 8.002c0-1.541-1.249-2.79-2.79-2.79h-29.295c-1.541 0-2.79 1.249-2.79 2.79v20.46c0 1.541 1.249 2.79 2.79 2.79h29.295c1.541 0 2.79-1.249 2.79-2.79v-20.46zM32.648 14.048h-12.816c-0.636 0-1.388-0.616-1.674-1.185l-0.509-1.025c-0.285-0.569-1.037-1.045-1.673-1.045h-12.622v-2.002c0-0.636 0.97-0.788 1.606-0.788h26.976c0.636 0 0.714 0.152 0.714 0.788v5.257z"></path>
</svg>
