<?xml version="1.0" encoding="utf-8"?>
<!-- Generated by IcoMoon.io -->
<!DOCTYPE svg PUBLIC "-//W3C//DTD SVG 1.1//EN" "http://www.w3.org/Graphics/SVG/1.1/DTD/svg11.dtd">
<svg version="1.1" xmlns="http://www.w3.org/2000/svg" xmlns:xlink="http://www.w3.org/1999/xlink" width="36" height="36" viewBox="0 0 36 36">
<path fill="#444" d="M35.188 24.138c-0.203-0.303-0.546-0.488-0.911-0.488h-7.926l0.027-8.196h4.776c0.606 0 1.094-0.49 1.094-1.096 0-0.602-0.488-1.094-1.094-1.094 0 0-2.87 0-2.902 0-0.241 0-2.59-0.102-3.605 0.206-1.847 0.56-9.562 3.804-9.562 11.278 0 0.604 0.492 1.094 1.098 1.094h7.97l-0.033 7.961c0 0.293 0.116 0.571 0.322 0.776 0.203 0.207 0.484 0.324 0.776 0.324 6.59 0 9.886-9.294 10.072-9.738 0.139-0.338 0.102-0.722-0.102-1.027zM24.161 23.65h-6.814c0.309-2.401 1.671-4.456 4.049-6.125 0.814-0.569 1.698-1.071 2.789-1.54l-0.025 7.665zM31.091 28.995c-1.272 1.793-3.163 3.379-4.776 3.572l0.025-6.724h6.206c-0.179 1.054-0.587 1.932-1.455 3.153z"></path>
<path fill="#444" d="M25.753 11.401h4.792c-1.833-6.374-7.7-10.305-14.663-10.305-8.424 0-15.255 6.83-15.255 15.255 0 0.172 1.096 10.639 1.096 10.639 0 1.287 1.042 2.329 2.331 2.329h2.314c1.75 1.399 3.128 2.522 4.921 2.85 0.884 0.16 3.53 0.075 4.79 0.071 1.88-0.004 3.908-0.008 3.908-1.194 0-1.085-6.65-3.418-6.633-7.16 0.033-7.679 8.223-12.484 12.399-12.484zM8.257 24.823c-1.588 0-2.874-1.289-2.874-2.877 0-1.586 1.287-2.877 2.874-2.877 1.59 0 2.874 1.291 2.874 2.877 0 1.588-1.285 2.877-2.874 2.877z"></path>
</svg>
