<?xml version="1.0" encoding="utf-8"?>
<!-- Generated by IcoMoon.io -->
<!DOCTYPE svg PUBLIC "-//W3C//DTD SVG 1.1//EN" "http://www.w3.org/Graphics/SVG/1.1/DTD/svg11.dtd">
<svg version="1.1" xmlns="http://www.w3.org/2000/svg" xmlns:xlink="http://www.w3.org/1999/xlink" width="36" height="36" viewBox="0 0 36 36">
<path fill="#444" d="M0.281 0.281v35.437h35.437v-35.437h-35.437zM26.969 14.626l-9.961 9.876c-0.361 0.305-0.797 0.475-1.258 0.496-0.032 0.004-0.064 0.004-0.099 0.004-0.507 0-1.003-0.184-1.389-0.521l-0.021-0.021-0.124-0.128-5.089-5.114c-0.241-0.245-0.418-0.535-0.521-0.868-0.071-0.227-0.103-0.457-0.099-0.691 0.004-0.198 0.039-0.397 0.099-0.588 0.103-0.33 0.276-0.617 0.521-0.861 0.4-0.4 0.936-0.624 1.503-0.624s1.102 0.22 1.503 0.624l3.608 3.639 8.324-8.229c0.4-0.4 0.932-0.62 1.503-0.62 0.567 0 1.102 0.22 1.503 0.624 0.829 0.826 0.829 2.172 0 3.002z"></path>
</svg>
