<?xml version="1.0" encoding="utf-8"?>
<!-- Generated by IcoMoon.io -->
<!DOCTYPE svg PUBLIC "-//W3C//DTD SVG 1.1//EN" "http://www.w3.org/Graphics/SVG/1.1/DTD/svg11.dtd">
<svg version="1.1" xmlns="http://www.w3.org/2000/svg" xmlns:xlink="http://www.w3.org/1999/xlink" width="36" height="36" viewBox="0 0 36 36">
<path fill="#444" d="M0.57 32.431c0.053 0.472 0.021 0.423 0.021 0.423 0.054 0.013 0.207-0.105 0.239-0.312 2.478-16.521 18.898-12.466 18.898-12.436v3.734c0 2.258 1.292 3.002 3.103 1.654l10.767-8.158c0.64-0.478 1.475-1.066 1.475-1.688v0c0 0 0-0.001 0-0.001 0.465-1.135-0.125-2.379-1.28-3.271l-11.122-8.529c-1.787-1.379-2.944-0.661-2.944 1.596v4.125c-10.695 1.052-15.208 6.355-15.208 6.355-4.714 5.231-4.234 13.938-3.95 16.508z"></path>
</svg>
