<?xml version="1.0" encoding="utf-8"?>
<!-- Generated by IcoMoon.io -->
<!DOCTYPE svg PUBLIC "-//W3C//DTD SVG 1.1//EN" "http://www.w3.org/Graphics/SVG/1.1/DTD/svg11.dtd">
<svg version="1.1" xmlns="http://www.w3.org/2000/svg" xmlns:xlink="http://www.w3.org/1999/xlink" width="36" height="36" viewBox="0 0 36 36">
<path fill="#444" d="M27.060 4.507c-1.153-1.224-3.465-2.578-6.017-1.648-2.553 0.931-2.633 2.618-3.438 3.409-0.849 0.836-4.2 1.901-4.2 1.901s-3.251 1.336-4.439 1.242c-1.124-0.088-2.271-1.329-4.825-0.398-2.552 0.929-3.452 3.453-3.548 5.13-0.319 5.519 1.877 18.961 6.342 19.303 0 0 1.633 0.187 3.178-2.102 1.050-1.558 2.685-5.142 4.298-6.202 1.483-0.974 4.025-1.881 4.419-2.019 0.389-0.148 2.963-1.101 4.724-1.308 1.917-0.226 5.473 1.467 7.28 1.983 2.655 0.76 3.787-0.432 3.787-0.432 3.198-3.135-3.766-14.84-7.561-18.859zM12.186 17.922l-1.806 0.647 0.647 1.807c0.163 0.453-0.073 0.952-0.526 1.115-0.097 0.034-0.196 0.051-0.294 0.051-0.358 0-0.693-0.223-0.822-0.578l-0.646-1.806-1.807 0.646c-0.097 0.035-0.196 0.052-0.294 0.052-0.357 0-0.693-0.222-0.821-0.578-0.162-0.454 0.074-0.952 0.528-1.116l1.806-0.646-0.648-1.806c-0.161-0.453 0.074-0.952 0.527-1.115 0.454-0.161 0.952 0.073 1.114 0.527l0.648 1.806 1.806-0.648c0.453-0.162 0.951 0.074 1.114 0.528s-0.073 0.953-0.526 1.115zM17.77 12.521c-0.264-0.723 0.109-1.525 0.833-1.787 0.724-0.263 1.524 0.108 1.788 0.833s-0.11 1.525-0.834 1.787c-0.725 0.265-1.524-0.109-1.787-0.833zM21.093 17.572c-0.724 0.264-1.523-0.109-1.788-0.833s0.11-1.525 0.833-1.787c0.724-0.264 1.526 0.109 1.788 0.832 0.262 0.724-0.11 1.525-0.833 1.788zM22.149 10.927c-0.263-0.724 0.11-1.525 0.834-1.787s1.524 0.108 1.788 0.833c0.263 0.724-0.111 1.525-0.834 1.787-0.724 0.264-1.524-0.11-1.788-0.833zM25.472 15.978c-0.724 0.263-1.522-0.109-1.787-0.833s0.109-1.525 0.832-1.787c0.724-0.264 1.525 0.108 1.788 0.833 0.263 0.723-0.109 1.525-0.834 1.787z"></path>
</svg>
