<?xml version="1.0" encoding="utf-8"?>
<!-- Generated by IcoMoon.io -->
<!DOCTYPE svg PUBLIC "-//W3C//DTD SVG 1.1//EN" "http://www.w3.org/Graphics/SVG/1.1/DTD/svg11.dtd">
<svg version="1.1" xmlns="http://www.w3.org/2000/svg" xmlns:xlink="http://www.w3.org/1999/xlink" width="36" height="36" viewBox="0 0 36 36">
<path fill="#444" d="M33.293 30.098c-0.308-4.484 0.149-13.871-2.676-20.408-0.41-0.954-0.9-1.831-1.467-2.632-2.442-3.872-6.643-6.43-11.423-6.43-3.795 0-7.226 1.614-9.704 4.22-1.54 1.393-2.665 3.249-3.427 5.581-2.055 6.272-1.641 15.494-1.889 19.589-0.124 2.051-0.023 2.082-0.023 2.082 0.099 0.66 0.822 0.811 0.89 0.894 0.973-0.923 2.427-1.734 3.961-1.585 1.978 0.192 3.839 1.091 4.534 3.408 0.215 0.548 1.066 0.768 1.304 0.304 0.743-2.229 2.316-3.222 4.555-3.222 2.127 0 3.893 1.126 4.799 2.974 0.197 0.445 0.942 0.544 1.306-0.046 0.863-1.968 2.765-3.342 4.977-3.342 1.296 0 2.483 0.474 3.421 1.256 0.364-0.236 0.59-0.515 0.59-0.515 0.445-0.671 0.342-1.113 0.273-2.128zM13.373 15.474c-1.604 0-2.903-1.302-2.903-2.904 0-1.604 1.3-2.903 2.903-2.903 1.606 0 2.903 1.299 2.903 2.903 0 1.602-1.298 2.904-2.903 2.904zM21.818 15.474c-1.602 0-2.903-1.302-2.903-2.904 0-1.604 1.302-2.903 2.903-2.903 1.604 0 2.903 1.299 2.903 2.903 0 1.602-1.3 2.904-2.903 2.904z"></path>
</svg>
