<?xml version="1.0" encoding="utf-8"?>
<!-- Generated by IcoMoon.io -->
<!DOCTYPE svg PUBLIC "-//W3C//DTD SVG 1.1//EN" "http://www.w3.org/Graphics/SVG/1.1/DTD/svg11.dtd">
<svg version="1.1" xmlns="http://www.w3.org/2000/svg" xmlns:xlink="http://www.w3.org/1999/xlink" width="36" height="36" viewBox="0 0 36 36">
<path fill="#444" d="M34.561 14.051c-0.025-2.783-0.777-3.495-3.629-3.502-1.866-0.004-3.733-0.002-5.689-0.002 1.018-1.386 2.008-2.503 2.722-3.779 0.943-1.678 1.659-3.518 0.162-5.286-0.984-1.164-3.402-1.182-5.428 0.217-1.743 1.206-3.222 2.794-4.87 4.26-1.252-2.024-2.999-3.885-5.525-4.822-1.502-0.556-3.102-0.904-4.343 0.405-1.177 1.238-0.959 2.853-0.263 4.206 0.84 1.641 1.981 3.126 3.064 4.783-2.037 0-4.138-0.045-6.236 0.015-1.378 0.039-2.897 0.38-2.997 1.987-0.191 3.064-0.056 6.148-0.056 9.247h15.138c0-2.896 0.052-5.697-0.025-8.493-0.034-1.192 0.741-1.616 1.553-1.616 0.822 0 1.313 0.627 1.283 1.66-0.086 2.75-0.029 5.507-0.029 8.417v-0h15.17c0-2.651 0.023-5.174-0.002-7.695zM10.082 3.8c2.438-0.352 5.466 2.499 5.82 5.612-2.819-0.357-5.189-2.688-5.82-5.612zM19.975 9.297c0.979-3.051 2.783-4.973 5.752-5.833 0.401 2.635-2.65 5.769-5.752 5.833z"></path>
<path fill="#444" d="M34.547 33.319c-0.020 1.229-0.891 1.96-1.999 1.979-4.336 0.080-8.674 0.034-13.047 0.034v-11.109h15.062c-0 3.156 0.032 6.128-0.016 9.097z"></path>
<path fill="#444" d="M1.437 24.222h15.062v11.109c-4.372 0-8.711 0.046-13.047-0.034-1.108-0.019-1.979-0.75-1.999-1.979-0.047-2.968-0.016-5.94-0.016-9.097z"></path>
</svg>
