<?xml version="1.0" encoding="utf-8"?>
<!-- Generated by IcoMoon.io -->
<!DOCTYPE svg PUBLIC "-//W3C//DTD SVG 1.1//EN" "http://www.w3.org/Graphics/SVG/1.1/DTD/svg11.dtd">
<svg version="1.1" xmlns="http://www.w3.org/2000/svg" xmlns:xlink="http://www.w3.org/1999/xlink" width="36" height="36" viewBox="0 0 36 36">
<path fill="#444" d="M19.424 19.948c-0.127-0.101-0.247-0.196-0.365-0.293-0.019 0.097-0.037 0.194-0.058 0.287 0.081 0.033 0.162 0.063 0.243 0.097 0.060-0.032 0.118-0.060 0.18-0.092z"></path>
<path fill="#444" d="M34.063 15.746c-0.522 0-1.044 0.152-1.273 0.229-0.459 0.155-4.214 1.797-4.214 1.797l-11.872-4.687-0.97 0.413c0 0-0.374 0.159-0.21 0.492 0.176 0.367 7.416 6.105 7.416 6.105s0.346 0.333-0.233 0.58c-0.714 0.305-2.294 1.099-2.804 1.354-0.071 0.037-0.414 0.224-0.543 0.249-0.012 0.004-0.026 0.004-0.039 0.004-0.129 0-0.303-0.099-0.462-0.16-0.652-0.263-1.7-0.677-2.389-0.908-0.203-0.067-0.686-0.189-0.817-0.222-0.028-0.007-0.058-0.011-0.086-0.011-0.143 0-0.293 0.072-0.293 0.072l-0.848 0.792 3.163 1.948-0.702 3.842 1.157-0.056c0 0 0.226-0.086 0.307-0.233 0.067-0.116 0.316-0.548 0.407-0.741 0.312-0.656 0.742-1.7 1.007-2.35 0.071-0.175 0.127-0.393 0.233-0.469 0.109-0.076 0.481-0.192 0.557-0.22 0.54-0.187 2.208-0.774 2.92-1.076 0.116-0.049 0.212-0.069 0.286-0.069 0.293 0 0.293 0.305 0.293 0.305s-0.896 9.194-0.755 9.575c0.067 0.183 0.201 0.226 0.314 0.226 0.102 0 0.187-0.035 0.187-0.035l0.97-0.411 4.872-11.802c0 0 3.788-1.562 4.214-1.783 0.428-0.22 1.867-1.077 1.437-2.097-0.215-0.506-0.719-0.653-1.231-0.653z"></path>
<path fill="#444" d="M15.058 26.097c-0.215 0.15-0.437 0.296-0.67 0.432v-2.231h0.065l-1.113-0.689-2.253-1.388h-2.601c-0.605-1.352-0.963-2.931-1.074-4.741h4.898v3.504l0.698-0.652 1.083-1.016 0.296-0.141v-1.694h1.978c-2.423-1.996-2.543-2.238-2.709-2.576-0.296-0.607-0.333-1.282-0.102-1.901 0.196-0.525 0.529-0.873 0.832-1.1v-1.241h4.070c0.132 0.33 0.247 0.67 0.351 1.024l2.328 0.919c-0.125-0.679-0.287-1.33-0.492-1.943h2.296c0.575 0.966 1.001 2.028 1.262 3.153l1.95 0.771c-0.836-6.272-6.203-11.11-12.705-11.11-7.080 0-12.821 5.74-12.821 12.819 0 7.081 5.741 12.821 12.821 12.821 0.358 0 0.714-0.019 1.067-0.048l0.332-1.804 0.212-1.166zM21.344 8.588h-1.606c-0.476-0.859-1.051-1.64-1.732-2.345 1.257 0.57 2.386 1.37 3.338 2.345zM14.388 5.983c1.199 0.734 2.164 1.592 2.915 2.604h-2.915v-2.604zM12.311 15.404h-4.92c0.063-1.823 0.356-3.393 0.899-4.743h4.020v4.743zM12.311 6.013v2.574h-2.864c0.741-1 1.688-1.846 2.864-2.574zM8.622 6.364c-0.631 0.675-1.166 1.416-1.613 2.224h-1.456c0.883-0.906 1.92-1.661 3.070-2.224zM3.956 10.661h2.142c-0.467 1.409-0.725 2.987-0.785 4.743h-2.867c0.137-1.723 0.67-3.333 1.509-4.743zM4.14 22.221c-0.894-1.4-1.481-3.010-1.668-4.741h2.862c0.097 1.753 0.404 3.333 0.915 4.741h-2.109zM5.854 24.298h1.368c0.42 0.711 0.912 1.367 1.474 1.961-1.051-0.504-2.008-1.169-2.842-1.961zM12.311 26.499c-1.014-0.599-1.866-1.333-2.564-2.201h2.564v2.201z"></path>
<path fill="#444" d="M21.531 25.423c-0.157 0.381-0.337 0.809-0.513 1.215 0.215-0.157 0.423-0.319 0.628-0.49 0.025-0.254 0.049-0.515 0.074-0.792-0.060 0.021-0.123 0.044-0.189 0.067z"></path>
</svg>
