<?xml version="1.0" encoding="utf-8"?>
<!-- Generated by IcoMoon.io -->
<!DOCTYPE svg PUBLIC "-//W3C//DTD SVG 1.1//EN" "http://www.w3.org/Graphics/SVG/1.1/DTD/svg11.dtd">
<svg version="1.1" xmlns="http://www.w3.org/2000/svg" xmlns:xlink="http://www.w3.org/1999/xlink" width="36" height="36" viewBox="0 0 36 36">
<path fill="#444" d="M17.661 13.652c-0.254-1.936-1.516-3.523-2.989-3.567-1.475-0.044-2.461 1.438-2.205 3.374 0.254 1.934 1.653 3.286 3.128 3.33 1.473 0.043 2.321-1.2 2.066-3.136z"></path>
<path fill="#444" d="M18 0.611c-9.603 0-17.389 7.785-17.389 17.389s7.786 17.389 17.389 17.389c9.605 0 17.389-7.786 17.389-17.389s-7.784-17.389-17.389-17.389zM15.027 27.744c-3.174 0-5.854-1.292-5.854-3.358 0-2.097 2.224-4.283 5.4-4.283 0.345 0 0.664-0.009 0.993-0.009-0.436-0.422-0.788-0.788-0.788-1.425 0-0.379 0.121-0.742 0.29-1.067-0.171 0.013-0.348 0.023-0.53 0.023-2.608 0-4.128-1.833-4.128-4.133 0-2.249 2.313-4.295 5.087-4.295 1.431 0 5.467 0 5.467 0l-1.223 1.282h-1.435c1.013 0.581 1.551 1.775 1.551 3.091 0 1.207-0.67 2.183-1.614 2.923-0.923 0.72-1.099 1.022-1.099 1.635 0 0.523 1.102 1.302 1.608 1.683 1.765 1.324 2.124 2.157 2.124 3.813 0 2.067-2.227 4.122-5.85 4.122zM26.933 17.869h-2.522v2.522h-1.262v-2.522h-2.521v-1.262h2.521v-2.521h1.262v2.521h2.522v1.262z"></path>
<path fill="#444" d="M16.713 20.976c-0.435-0.14-0.909-0.223-1.42-0.228-2.194-0.024-4.056 1.388-4.056 3.023 0 1.671 1.584 3.059 3.782 3.059 3.084 0 4.159-1.304 4.159-2.973 0-0.201-0.023-0.398-0.068-0.589-0.243-0.946-1.204-1.464-2.396-2.292z"></path>
</svg>
