<?xml version="1.0" encoding="utf-8"?>
<!-- Generated by IcoMoon.io -->
<!DOCTYPE svg PUBLIC "-//W3C//DTD SVG 1.1//EN" "http://www.w3.org/Graphics/SVG/1.1/DTD/svg11.dtd">
<svg version="1.1" xmlns="http://www.w3.org/2000/svg" xmlns:xlink="http://www.w3.org/1999/xlink" width="36" height="36" viewBox="0 0 36 36">
<path fill="#444" d="M33.241 35.373h-30.48c-1.169 0-2.116-0.953-2.116-2.126 0-1.177 0.947-2.128 2.116-2.128h30.48c1.169 0 2.118 0.951 2.118 2.128 0 1.173-0.949 2.126-2.118 2.126z"></path>
<path fill="#444" d="M6.229 28.39c-1.169 0-2.118-0.951-2.118-2.126v-8.218c0-1.173 0.949-2.126 2.118-2.126s2.118 0.953 2.118 2.126v8.218c0 1.175-0.949 2.126-2.118 2.126z"></path>
<path fill="#444" d="M14.089 28.39c-1.169 0-2.118-0.951-2.118-2.126v-8.218c0-1.173 0.949-2.126 2.118-2.126s2.118 0.953 2.118 2.126v8.218c0 1.175-0.949 2.126-2.118 2.126z"></path>
<path fill="#444" d="M21.95 28.39c-1.171 0-2.118-0.951-2.118-2.126v-8.218c0-1.173 0.947-2.126 2.118-2.126 1.169 0 2.118 0.953 2.118 2.126v8.218c0 1.175-0.949 2.126-2.118 2.126z"></path>
<path fill="#444" d="M29.81 28.39c-1.169 0-2.118-0.951-2.118-2.126v-8.218c0-1.173 0.949-2.126 2.118-2.126s2.118 0.953 2.118 2.126v8.218c0 1.175-0.949 2.126-2.118 2.126z"></path>
<path fill="#444" d="M33.606 13.191c0.516 0 0.988-0.46 1.361-0.988 0.557-0.79 0.518-2.124 0.019-2.756-0.3-0.377-0.663-0.758-1.055-0.999l-14.071-7.344c-1.028-0.636-2.692-0.636-3.715 0l-14.076 7.344c-0.39 0.24-0.752 0.621-1.053 0.999-0.501 0.632-0.541 1.967 0.019 2.756 0.373 0.528 0.845 0.988 1.361 0.988h31.21z"></path>
</svg>
