<?xml version="1.0" encoding="utf-8"?>
<!-- Generated by IcoMoon.io -->
<!DOCTYPE svg PUBLIC "-//W3C//DTD SVG 1.1//EN" "http://www.w3.org/Graphics/SVG/1.1/DTD/svg11.dtd">
<svg version="1.1" xmlns="http://www.w3.org/2000/svg" xmlns:xlink="http://www.w3.org/1999/xlink" width="36" height="36" viewBox="0 0 36 36">
<path fill="#444" d="M19.033 0.608c-0.341-0.028-0.684-0.045-1.033-0.045-0.071 0-0.14 0.005-0.21 0.006-0.154 0.001-0.308 0.004-0.461 0.011-6.885 0.349-12.358 6.041-12.358 13.015 0 0.668 0.055 1.323 0.152 1.964 0.001 0.006 0.003 0.012 0.003 0.019 0.032 0.205 0.069 0.411 0.11 0.611 0.003 0.015 0.004 0.028 0.007 0.040 0.041 0.203 0.089 0.405 0.138 0.604 0.003 0.007 0.004 0.015 0.007 0.023 0.209 0.814 0.491 1.599 0.846 2.346 1.781 4.197 11.766 16.236 11.766 16.236s9.987-12.038 11.765-16.236c0.81-1.701 1.265-3.6 1.265-5.606 0-6.85-5.283-12.459-11.997-12.988zM17.999 19.663c-3.356 0-6.075-2.719-6.075-6.074 0-3.356 2.719-6.075 6.075-6.075 3.353 0 6.074 2.719 6.074 6.075 0 3.354-2.721 6.074-6.074 6.074z"></path>
</svg>
