<?xml version="1.0" encoding="utf-8"?>
<!-- Generated by IcoMoon.io -->
<!DOCTYPE svg PUBLIC "-//W3C//DTD SVG 1.1//EN" "http://www.w3.org/Graphics/SVG/1.1/DTD/svg11.dtd">
<svg version="1.1" xmlns="http://www.w3.org/2000/svg" xmlns:xlink="http://www.w3.org/1999/xlink" width="36" height="36" viewBox="0 0 36 36">
<path fill="#444" d="M10.82 13.897c0 1.134-0.919 2.052-2.052 2.052h-6.154c-1.133 0-2.051-0.918-2.051-2.052v-6.154c0-1.132 0.919-2.051 2.051-2.051h6.154c1.133 0 2.052 0.92 2.052 2.051v6.154z"></path>
<path fill="#444" d="M23.129 13.897c0 1.134-0.919 2.052-2.052 2.052h-6.154c-1.133 0-2.052-0.918-2.052-2.052v-6.154c0-1.132 0.919-2.051 2.052-2.051h6.154c1.133 0 2.052 0.92 2.052 2.051v6.154z"></path>
<path fill="#444" d="M35.438 13.897c0 1.134-0.919 2.052-2.052 2.052h-6.154c-1.133 0-2.052-0.918-2.052-2.052v-6.154c0-1.132 0.919-2.051 2.052-2.051h6.154c1.133 0 2.052 0.92 2.052 2.051v6.154z"></path>
<path fill="#444" d="M10.82 28.257c0 1.134-0.919 2.051-2.052 2.051h-6.154c-1.133 0-2.051-0.918-2.051-2.051v-6.155c0-1.132 0.919-2.051 2.051-2.051h6.154c1.133 0 2.052 0.92 2.052 2.051v6.155z"></path>
<path fill="#444" d="M23.129 28.257c0 1.134-0.919 2.051-2.052 2.051h-6.154c-1.133 0-2.052-0.918-2.052-2.051v-6.155c0-1.132 0.919-2.051 2.052-2.051h6.154c1.133 0 2.052 0.92 2.052 2.051v6.155z"></path>
<path fill="#444" d="M35.438 28.257c0 1.134-0.919 2.051-2.052 2.051h-6.154c-1.133 0-2.052-0.918-2.052-2.051v-6.155c0-1.132 0.919-2.051 2.052-2.051h6.154c1.133 0 2.052 0.92 2.052 2.051v6.155z"></path>
</svg>
