<?xml version="1.0" encoding="utf-8"?>
<!-- Generated by IcoMoon.io -->
<!DOCTYPE svg PUBLIC "-//W3C//DTD SVG 1.1//EN" "http://www.w3.org/Graphics/SVG/1.1/DTD/svg11.dtd">
<svg version="1.1" xmlns="http://www.w3.org/2000/svg" xmlns:xlink="http://www.w3.org/1999/xlink" width="36" height="36" viewBox="0 0 36 36">
<path fill="#444" d="M29.446 6.514c0 0-6.458-7.231-14.219-3.783-0.552 0.245-0.892 0.596-0.784 0.726s0.679 0.049 1.276-0.041l0.887-0.133c0.598-0.090 0.635 0.149 0.082 0.395l-0.515 0.228c-0.553 0.245-0.896 0.573-0.766 0.733 0.13 0.158 0.668 0.246 1.264 0.141 4.414-0.779 8.293 2.282 6.478 4.504l-5.971 5.825-0.013-0.013c-0.202 0.189-0.423 0.347-0.66 0.475-0.395 0.213-1.123 0.619-1.575 1.020l-13.639 12.158c-0.902 0.804-0.932 2.141-0.067 2.986l1.902 1.854c0.866 0.844 2.237 0.813 3.064-0.070l12.422-13.265c0.414-0.441 0.83-1.189 1.069-1.607 0.141-0.246 0.317-0.478 0.532-0.688 0.059-0.051 0.114-0.102 0.172-0.148l6.399-6.246c0.825 0.003 1.704 0.25 2.332 0.865 0.368 0.361 0.629 0.788 0.781 1.243 0.191 0.574 0.505 1.42 0.938 1.843l0.328 0.321c0.432 0.423 1.134 0.423 1.567 0l2.349-2.294c0.432-0.423 0.432-1.108 0-1.531l-0.271-0.264c-0.432-0.423-1.284-0.714-1.868-0.871-0.517-0.141-1.006-0.409-1.411-0.804-0.4-0.391-0.671-0.857-0.816-1.352-0.171-0.58-0.377-1.335-0.693-1.645l-0.574-0.562z"></path>
</svg>
