<?xml version="1.0" encoding="utf-8"?>
<!-- Generated by IcoMoon.io -->
<!DOCTYPE svg PUBLIC "-//W3C//DTD SVG 1.1//EN" "http://www.w3.org/Graphics/SVG/1.1/DTD/svg11.dtd">
<svg version="1.1" xmlns="http://www.w3.org/2000/svg" xmlns:xlink="http://www.w3.org/1999/xlink" width="36" height="36" viewBox="0 0 36 36">
<path fill="#444" d="M16.878 26.116c-0.203-0.222-0.456-0.369-0.727-0.458-0.172-0.056-0.35-0.093-0.53-0.093-0.385 0-0.766 0.133-1.083 0.393-0.023 0.021-0.048 0.035-0.072 0.054l-0.383 0.35c0.103-0.155 0.176-0.323 0.224-0.497 0.145-0.543 0.021-1.145-0.389-1.59-0.336-0.366-0.795-0.553-1.257-0.553-0.412 0-0.826 0.149-1.154 0.449l-0.074 0.070c0.416-0.638 0.373-1.499-0.166-2.086-0.336-0.366-0.797-0.551-1.257-0.551-0.414 0-0.826 0.147-1.154 0.449l-2.036 1.868c-0.694 0.636-0.741 1.715-0.104 2.411 0.336 0.366 0.799 0.553 1.259 0.553 0.412 0 0.826-0.149 1.152-0.451l0.075-0.070c-0.418 0.64-0.371 1.499 0.166 2.088 0.336 0.366 0.797 0.551 1.257 0.551 0.414 0 0.826-0.149 1.152-0.449l0.383-0.35c-0.42 0.638-0.375 1.501 0.164 2.088 0.336 0.366 0.799 0.553 1.259 0.553 0.412 0 0.826-0.149 1.153-0.451l2.036-1.866c0.075-0.070 0.139-0.145 0.197-0.222 0.47-0.611 0.47-1.468-0.014-2.083-0.027-0.037-0.050-0.074-0.079-0.108z"></path>
<path fill="#444" d="M27.261 21.492c-0.654-0.263-1.122-0.632-1.425-0.932-0.176-0.174-0.296-0.329-0.366-0.425l-0.864-1.131-0.478-0.627-0.035-0.041-0.019-0.031-1.443-1.889-2.792-3.639-0.491-0.628c-0.155-0.257-0.53-0.393-0.847-0.226l-5.221 2.717c-0.027 0.014-0.048 0.029-0.074 0.046-0.071 0.035-0.143 0.068-0.218 0.102-0.267 0.122-0.538 0.242-0.793 0.342-0.338 0.131-0.646 0.236-0.868 0.271-0.124 0.017-0.257 0.027-0.394 0.027-0.704 0-1.39-0.257-1.651-0.367l-0.22-0.093-0.184-0.153c-0.325-0.269-0.594-0.59-0.795-0.955-0.377-0.686-0.499-1.495-0.338-2.278 0.014-0.062 0.033-0.124 0.048-0.184-0.516 0.099-0.967 0.161-1.311 0.161-1.897 0-3.753-0.847-3.753-0.847-1.139-0.518-2.075 0.081-2.077 1.332l-0.023 9.442c-0.002 1.251 1.011 2.148 2.253 1.994l2.007-0.249c0.128-0.015 0.267-0.027 0.408-0.035 0.126-0.168 0.269-0.327 0.427-0.476l2.036-1.868c0.617-0.565 1.415-0.876 2.253-0.876 0.93 0.002 1.825 0.393 2.454 1.081 0.294 0.319 0.516 0.685 0.661 1.073 0.762 0.106 1.468 0.474 1.994 1.044 0.211 0.234 0.387 0.491 0.524 0.766 0.69 0.004 1.359 0.224 1.914 0.621 0.186 0.133 0.36 0.286 0.516 0.458 0.189 0.203 0.342 0.425 0.468 0.659 0.675 1.24 0.501 2.806-0.491 3.865l0.451 0.512c0.698 0.799 1.912 0.882 2.715 0.184 0.797-0.7 0.88-1.912 0.182-2.713l-0.845-0.967c0.023-0.085 0.095-0.168 0.178-0.201l0.899 1.031c0.7 0.801 1.916 0.884 2.715 0.186 0.801-0.7 0.882-1.914 0.186-2.713l-0.642-0.735c0-0.153 0.193-0.35 0.35-0.244 0 0 0-0.002 0.002 0l0.522 0.597c0.698 0.801 1.914 0.882 2.713 0.182 0.801-0.698 0.938-1.969 0.238-2.769 0 0-0.075-0.091-0.195-0.199-0.162-0.139-0.259-0.203-0.259-0.203z"></path>
<path fill="#444" d="M33.712 7.421c-0.172 0-0.356 0.023-0.541 0.074 0 0-3.46 0.911-4.355 0.911-0.019 0-0.037 0-0.054-0.002-0.799-0.041-1.653-0.594-2.187-1.093-0.101-0.093-0.205-0.184-0.315-0.273-0.029-0.025-0.060-0.050-0.093-0.077-0.085-0.070-0.17-0.135-0.259-0.201-0.029-0.021-0.060-0.046-0.089-0.066-0.114-0.085-0.232-0.166-0.352-0.246-0.025-0.015-0.050-0.029-0.074-0.046-0.099-0.062-0.201-0.124-0.304-0.186-0.039-0.021-0.077-0.043-0.114-0.066-0.106-0.058-0.213-0.116-0.321-0.172-0.025-0.014-0.048-0.025-0.072-0.037-0.132-0.066-0.263-0.128-0.396-0.186-0.035-0.015-0.072-0.031-0.106-0.044-0.103-0.043-0.209-0.085-0.315-0.124-0.037-0.016-0.077-0.031-0.116-0.044-0.139-0.050-0.277-0.095-0.414-0.135-0.006-0.002-0.010-0.002-0.017-0.004-0.132-0.039-0.267-0.074-0.4-0.102-0.041-0.008-0.081-0.015-0.122-0.025-0.108-0.021-0.217-0.043-0.325-0.058-0.035-0.006-0.070-0.010-0.102-0.015-0.139-0.017-0.277-0.031-0.414-0.041-0.027-0.002-0.054-0.002-0.081-0.002-0.066-0.004-0.133-0.006-0.199-0.006-0.035 0-0.068 0.002-0.104 0.002-0.093 0.002-0.184 0.008-0.275 0.015-0.068 0.006-0.135 0.010-0.201 0.017-0.093 0.010-0.184 0.027-0.277 0.043-0.062 0.014-0.122 0.023-0.184 0.037-0.099 0.023-0.197 0.054-0.292 0.087-0.050 0.016-0.103 0.027-0.153 0.046-0.143 0.054-0.286 0.116-0.424 0.19-2.092 1.112-9.489 4.991-9.489 4.991-0.070 0.041-0.131 0.091-0.195 0.139-0.338 0.255-0.563 0.615-0.646 1.013-0.079 0.385-0.033 0.797 0.17 1.166 0.106 0.195 0.28 0.394 0.408 0.487s0.603 0.286 1.021 0.242c0.050 0 0.099-0.004 0.139-0.010 0.309-0.050 1.452-0.557 2.549-1.131l1.232-0.646c0.043-0.025 0.085-0.050 0.13-0.075l2.91-1.524c0.565-0.296 1.224-0.302 1.756-0.048 0.277 0.149 0.381 0.246 0.509 0.379 0.021 0.019 0.039 0.039 0.058 0.060 0.358 0.371 3.707 4.622 3.707 4.622l0.437 0.574 2.417 3.164c0 0 0.671 1.046 2.338 1.046 0.238 0 0.493-0.023 0.77-0.070 2.235-0.387 3.229-0.516 3.229-0.516 1.242-0.162 2.259-1.321 2.259-2.574v-7.693c0-1.060-0.71-1.767-1.661-1.767z"></path>
</svg>
