<?xml version="1.0" encoding="utf-8"?>
<!-- Generated by IcoMoon.io -->
<!DOCTYPE svg PUBLIC "-//W3C//DTD SVG 1.1//EN" "http://www.w3.org/Graphics/SVG/1.1/DTD/svg11.dtd">
<svg version="1.1" xmlns="http://www.w3.org/2000/svg" xmlns:xlink="http://www.w3.org/1999/xlink" width="36" height="36" viewBox="0 0 36 36">
<path fill="#444" d="M32.15 24.132l-9.562 9.478-0.019-0.020c-1.124 1.1-2.653 1.783-4.338 1.783h-8.833c-3.419 0-6.217-2.802-6.217-6.226v-19.76c0-1.238 1.002-2.244 2.239-2.244s2.243 1.007 2.243 2.244v6.822c0 0.307 0.248 0.557 0.555 0.557s0.555-0.249 0.555-0.557h0.004v-11.47c0-1.24 1.002-2.245 2.239-2.245s2.241 1.005 2.241 2.245v9.6c0 0.307 0.248 0.558 0.557 0.558 0.304 0 0.555-0.25 0.555-0.558v-11.468c0-1.24 1.004-2.243 2.241-2.243 1.235 0 2.241 1.004 2.241 2.243v11.468c0 0.307 0.248 0.558 0.555 0.558s0.557-0.25 0.557-0.558v-9.6c0-1.24 1.004-2.245 2.241-2.245s2.241 1.005 2.241 2.245v20.711l4.555-4.516c0.882-0.869 2.301-0.861 3.171 0.023 0.867 0.88 0.859 2.301-0.023 3.175z"></path>
</svg>
