<?xml version="1.0" encoding="utf-8"?>
<!-- Generated by IcoMoon.io -->
<!DOCTYPE svg PUBLIC "-//W3C//DTD SVG 1.1//EN" "http://www.w3.org/Graphics/SVG/1.1/DTD/svg11.dtd">
<svg version="1.1" xmlns="http://www.w3.org/2000/svg" xmlns:xlink="http://www.w3.org/1999/xlink" width="36" height="36" viewBox="0 0 36 36">
<path fill="#444" d="M7.731 30.721l0.85-4.287c-2.11-0.045-3.165-0.885-3.165-2.521 0-0.764 0.263-1.385 0.792-1.867 0.526-0.482 1.304-0.721 2.325-0.721h1.080l1.304-6.67h-2.383c-0.993 0-1.762-0.249-2.302-0.745-0.543-0.496-0.814-1.104-0.814-1.823 0-0.762 0.263-1.377 0.792-1.845 0.526-0.464 1.304-0.698 2.325-0.698h3.415l1.078-5.25c0.168-0.885 0.354-1.58 0.562-2.084 0.207-0.505 0.489-0.887 0.848-1.146s0.831-0.39 1.409-0.39c0.81 0 1.428 0.213 1.857 0.64 0.429 0.429 0.64 0.978 0.64 1.651 0 0.153-0.128 0.925-0.387 2.316l-0.85 4.263h5.019l1.1-5.25c0.153-0.793 0.298-1.434 0.435-1.924 0.139-0.488 0.387-0.899 0.746-1.237 0.359-0.336 0.883-0.505 1.571-0.505 0.794 0 1.409 0.207 1.842 0.62 0.435 0.411 0.655 0.97 0.655 1.671 0 0.323-0.019 0.635-0.058 0.941-0.037 0.306-0.087 0.6-0.147 0.883-0.062 0.282-0.102 0.462-0.116 0.539l-0.848 4.308c2.184 0.047 3.279 0.893 3.279 2.545 0 0.764-0.261 1.375-0.781 1.833-0.518 0.459-1.291 0.688-2.313 0.688h-1.169l-1.376 6.67h2.545c1.022 0 1.795 0.244 2.313 0.734 0.52 0.488 0.781 1.108 0.781 1.855 0 0.749-0.257 1.356-0.769 1.824-0.514 0.464-1.289 0.697-2.325 0.697h-3.529l-1.078 5.274c-0.17 0.838-0.319 1.487-0.448 1.946-0.131 0.46-0.379 0.859-0.746 1.203-0.367 0.346-0.893 0.515-1.581 0.515-0.763 0-1.366-0.213-1.809-0.64s-0.667-0.984-0.667-1.672c0-0.628 0.108-1.407 0.323-2.339l0.846-4.287h-5.063l-1.078 5.274c-0.276 1.296-0.562 2.232-0.86 2.805-0.296 0.573-0.935 0.859-1.913 0.859-0.779 0-1.391-0.213-1.834-0.64s-0.665-0.984-0.665-1.672c0-0.352 0.043-0.745 0.126-1.182 0.085-0.434 0.157-0.821 0.218-1.156zM21.14 14.655h-5.065l-1.353 6.67h5.113l1.306-6.67z"></path>
</svg>
