<?xml version="1.0" encoding="utf-8"?>
<!-- Generated by IcoMoon.io -->
<!DOCTYPE svg PUBLIC "-//W3C//DTD SVG 1.1//EN" "http://www.w3.org/Graphics/SVG/1.1/DTD/svg11.dtd">
<svg version="1.1" xmlns="http://www.w3.org/2000/svg" xmlns:xlink="http://www.w3.org/1999/xlink" width="36" height="36" viewBox="0 0 36 36">
<path fill="#444" d="M30.219 12.28c-2.232 0-4.082 1.579-5.273 4.929-0.925 2.502-1.808 3.464-3.427 3.464-0.975 0-1.826-0.612-2.32-2.803-0.852-4.774-2.679-5.471-4.901-5.471-2.232 0-4.082 1.579-5.273 4.929-0.925 2.502-1.809 3.464-3.427 3.464-1.543 0-2.775-1.533-2.775-8.421h-2.502c0 8.852 2.31 11.694 5.584 11.694 2.772 0 4.39-1.656 5.623-4.89 0.924-2.427 1.618-3.543 3.157-3.543 0.87 0 1.578 0.147 2.038 2.554l0.003-0.001c0.84 4.25 2.715 5.761 5.102 5.761 2.772 0 4.389-1.656 5.622-4.89 0.925-2.427 1.617-3.544 3.156-3.544 1.325 0 2.44 1.038 2.536 8.417h2.54c-0.139-9.339-2.546-11.651-5.462-11.651z"></path>
<path fill="#444" d="M30.219 0c-2.232 0-4.082 1.579-5.273 4.929-0.925 2.502-1.808 3.464-3.427 3.464-0.975 0-1.826-0.612-2.32-2.803-0.852-4.774-2.679-5.471-4.902-5.471-2.232 0-4.082 1.579-5.273 4.929-0.925 2.502-1.809 3.464-3.427 3.464-1.543 0-2.775-1.533-2.775-8.421h-2.502c0 8.852 2.31 11.694 5.584 11.694 2.772 0 4.39-1.656 5.623-4.89 0.924-2.428 1.618-3.544 3.157-3.544 0.87 0 1.578 0.147 2.038 2.554l0.003-0.001c0.84 4.25 2.715 5.761 5.102 5.761 2.772 0 4.389-1.656 5.622-4.89 0.925-2.427 1.617-3.543 3.156-3.543 1.325 0 2.44 1.038 2.536 8.417h2.54c-0.138-9.339-2.546-11.651-5.462-11.651z"></path>
<path fill="#444" d="M30.219 24.214c-2.232 0-4.082 1.579-5.273 4.929-0.925 2.502-1.808 3.465-3.427 3.465-0.975 0-1.826-0.613-2.32-2.803-0.852-4.774-2.679-5.471-4.901-5.471-2.232 0-4.082 1.579-5.273 4.929-0.925 2.502-1.809 3.464-3.427 3.464-1.543 0-2.775-1.533-2.775-8.42h-2.502c0 8.852 2.31 11.694 5.584 11.694 2.772 0 4.39-1.655 5.623-4.89 0.924-2.427 1.618-3.543 3.157-3.543 0.87 0 1.578 0.147 2.038 2.554l0.003-0.001c0.84 4.25 2.715 5.761 5.102 5.761 2.772 0 4.389-1.657 5.622-4.89 0.925-2.427 1.617-3.544 3.156-3.544 1.325 0 2.44 1.039 2.536 8.417h2.54c-0.138-9.339-2.546-11.651-5.462-11.651z"></path>
</svg>
