<?xml version="1.0" encoding="utf-8"?>
<!-- Generated by IcoMoon.io -->
<!DOCTYPE svg PUBLIC "-//W3C//DTD SVG 1.1//EN" "http://www.w3.org/Graphics/SVG/1.1/DTD/svg11.dtd">
<svg version="1.1" xmlns="http://www.w3.org/2000/svg" xmlns:xlink="http://www.w3.org/1999/xlink" width="36" height="36" viewBox="0 0 36 36">
<path fill="#444" d="M24.319 15.631l-1.137 0.12-0.987 4.806c0 0 0.942 0 1.343 0 0.567 0 3.182-0.477 3.279-2.886 0.068-1.707-2.023-2.040-2.498-2.040z"></path>
<path fill="#444" d="M35.426 10.653l-24.577-0.007c-6.133 0-10.255 3.259-10.287 8.59l0.012 6.088 24.577 0.007c6.133 0 10.255-3.259 10.287-8.59l-0.012-6.089zM16.386 21.952h-3.209l0.688-3.255h-4.026l-0.711 3.255h-3.211l1.761-7.905h3.211l-0.68 3.255h4.026l0.68-3.255h3.209l-1.738 7.905zM23.747 22.138c-2.796 0-5.136 0.096-5.136 0.096l1.727-8.186c3.516 0 5.091 0 5.456 0 0.904 0 4.478 0.325 4.46 3.338-0.018 3.009-3.713 4.752-6.507 4.752z"></path>
</svg>
