<?xml version="1.0" encoding="utf-8"?>
<!-- Generated by IcoMoon.io -->
<!DOCTYPE svg PUBLIC "-//W3C//DTD SVG 1.1//EN" "http://www.w3.org/Graphics/SVG/1.1/DTD/svg11.dtd">
<svg version="1.1" xmlns="http://www.w3.org/2000/svg" xmlns:xlink="http://www.w3.org/1999/xlink" width="36" height="36" viewBox="0 0 36 36">
<path fill="#444" d="M1.987 17.739l12.142 0.016 1.033-3.314c0.139-0.447 0.559-0.754 1.025-0.735 0.468 0.012 0.871 0.333 0.987 0.787l1.508 5.889 2.112-8.837c0.11-0.459 0.513-0.789 0.985-0.803 0.471-0.029 0.895 0.287 1.034 0.739l2.233 7.291 0.219-0.433c0.178-0.354 0.539-0.572 0.935-0.572h7.798c0.259-0.465 0.496-0.859 0.688-1.317 0.483-1.14 0.75-2.394 0.75-3.709 0-5.259-4.263-9.525-9.522-9.525-3.302 0-6.206 1.677-7.917 4.225-1.708-2.548-4.614-4.225-7.912-4.225-5.26 0-9.524 4.264-9.524 9.524 0 1.315 0.266 2.567 0.749 3.707 0.19 0.452 0.421 0.882 0.676 1.294z"></path>
<path fill="#444" d="M26.847 20.093l-1.102 2.074c-0.191 0.382-0.597 0.549-1.023 0.513s-0.787-0.357-0.912-0.766l-1.874-6.131-2.202 9.151c-0.112 0.468-0.528 0.739-1.009 0.739-0.004 0-0.007 0-0.007 0-0.48 0-0.897-0.268-1.016-0.731l-1.641-6.383-0.165 0.664c-0.137 0.438-0.541 0.87-0.999 0.87h-0.001l-11.695-0.138c4.551 6.759 14.795 12.952 14.795 12.952s10.23-6.304 14.786-12.814h-5.937z"></path>
</svg>
