<?xml version="1.0" encoding="utf-8"?>
<!-- Generated by IcoMoon.io -->
<!DOCTYPE svg PUBLIC "-//W3C//DTD SVG 1.1//EN" "http://www.w3.org/Graphics/SVG/1.1/DTD/svg11.dtd">
<svg version="1.1" xmlns="http://www.w3.org/2000/svg" xmlns:xlink="http://www.w3.org/1999/xlink" width="36" height="36" viewBox="0 0 36 36">
<path fill="#444" d="M35.373 20.317c0 1.591-1.303 2.895-2.895 2.895h-9.267v9.264c0 1.591-1.301 2.897-2.895 2.897h-4.631c-1.595 0-2.897-1.305-2.897-2.897v-9.264h-9.266c-1.593 0-2.895-1.303-2.895-2.895v-4.635c0-1.591 1.301-2.893 2.895-2.893h9.266v-9.266c0-1.593 1.301-2.895 2.897-2.895h4.631c1.593 0 2.895 1.301 2.895 2.895v9.266h9.267c1.591 0 2.895 1.301 2.895 2.893v4.635z"></path>
</svg>
