<?xml version="1.0" encoding="utf-8"?>
<!-- Generated by IcoMoon.io -->
<!DOCTYPE svg PUBLIC "-//W3C//DTD SVG 1.1//EN" "http://www.w3.org/Graphics/SVG/1.1/DTD/svg11.dtd">
<svg version="1.1" xmlns="http://www.w3.org/2000/svg" xmlns:xlink="http://www.w3.org/1999/xlink" width="36" height="36" viewBox="0 0 36 36">
<path fill="#444" d="M30.014 3.43c-4.223 5.038-8.737 18.278-15.306 21.453-0.741-0.336-1.091-0.677-1.437-0.628-7.437 1.038-12.976 1.462-12.628 3.994 0.127 0.949 1.232 1.704 3.085 2.372 0.656 0.249 1.434 0.483 2.316 0.707 0.794 0.21 1.66 0.412 2.595 0.613 1.86 0.4 3.647 0.629 5.196 0.7 1.909 0.113 3.488 0.009 4.416-0.269 1.361-0.417 2.714-1.6 3.617-3.628 1.586-3.573 2.988-9.101 6.156-10.179 4.642-1.575 3.14 12.863 3.14 12.863h1.722c0 0 0.060-6.198 0.292-9.145 0.237-3.035 0.776-6.097 1.922-10.508 1.609-6.212-4.467-9.087-5.088-8.344z"></path>
</svg>
