<?xml version="1.0" encoding="utf-8"?>
<!-- Generated by IcoMoon.io -->
<!DOCTYPE svg PUBLIC "-//W3C//DTD SVG 1.1//EN" "http://www.w3.org/Graphics/SVG/1.1/DTD/svg11.dtd">
<svg version="1.1" xmlns="http://www.w3.org/2000/svg" xmlns:xlink="http://www.w3.org/1999/xlink" width="36" height="36" viewBox="0 0 36 36">
<path fill="#444" d="M35.176 16.434l-4.476-3.63v-8.558c0-0.577-0.473-1.051-1.052-1.051h-3.505c-0.578 0-1.051 0.474-1.051 1.051v4.004l-5.621-4.559c-0.408-0.33-0.942-0.496-1.478-0.496-0.534 0-1.068 0.166-1.476 0.496l-15.686 12.729c-0.165 0.17-0.268 0.402-0.268 0.656 0 0.262 0.105 0.499 0.276 0.67 0.172 0.171 0.408 0.277 0.669 0.277h3.793v13.028c0 0.966 0.79 1.754 1.754 1.754h21.893c0.964 0 1.754-0.788 1.754-1.754v-13.028h3.872c0.229-0.021 0.436-0.116 0.589-0.27 0.171-0.171 0.276-0.407 0.276-0.667-0-0.254-0.1-0.482-0.262-0.653zM24.488 24.742c-0.103 0.562-0.2 1.029-0.2 1.029-0.821 2.381-3.79 1.379-3.79 1.379-7.465-2.27-8.536-8.986-8.536-8.986-0.297-2.796 2.011-3.096 2.011-3.096l0.703-0.097c0.51-0.002 0.655 0.376 0.655 0.376l0.925 2.576 0.043 0.144c0.143 0.413-0.111 0.611-0.111 0.611-0.46 0.515-0.843 0.824-0.843 0.824-0.356 0.345-0.176 0.604-0.176 0.604 2.044 3.404 4.292 4.125 4.292 4.125 0.348 0.126 0.478-0.038 0.478-0.038l0.221-0.288c0.513-0.606 1.013-1.013 1.013-1.013 0.328-0.317 0.716-0.023 0.716-0.023l2.295 1.316c0.387 0.258 0.304 0.556 0.304 0.556z"></path>
</svg>
