<?xml version="1.0" encoding="utf-8"?>
<!-- Generated by IcoMoon.io -->
<!DOCTYPE svg PUBLIC "-//W3C//DTD SVG 1.1//EN" "http://www.w3.org/Graphics/SVG/1.1/DTD/svg11.dtd">
<svg version="1.1" xmlns="http://www.w3.org/2000/svg" xmlns:xlink="http://www.w3.org/1999/xlink" width="36" height="36" viewBox="0 0 36 36">
<path fill="#444" d="M34.68 11.251l-14.215-6.195c-0.458-0.166-2.075-0.774-2.617-0.774-0.414 0-2.411 0.786-2.792 0.939l-13.735 6.029c-0.717 0.408-0.838 1.025-0.717 1.54 0.169 0.561 0.702 0.791 1.358 0.791h2.218l-0.002 16.116c0 0.448 0.179 1.174 0.453 1.488 0.272 0.306 0.598 0.468 1.063 0.537l-0.016-0.006h0.301c0 0 3.678 0 8.377 0h14.667c0.047 0 0.978 0 0.978 0 0.541 0 0.985-0.405 1.316-0.779 0.275-0.316 0.401-0.891 0.401-1.338 0 0 0-11.833 0-16.018h2.32c0.658 0 1.191-0.231 1.359-0.791 0.12-0.515-0-1.132-0.717-1.54zM17.997 12.22c1.924 0 3.488 1.596 3.488 3.557s-1.565 3.558-3.488 3.558c-1.925 0-3.49-1.596-3.49-3.558s1.565-3.557 3.49-3.557zM23.671 21.082l-0.954 6.146c-0.14 0.943-0.71 1.7-1.588 1.7h-6.258c-0.877 0-1.448-0.757-1.588-1.7l-0.954-6.086c-0.105-0.693 0.312-1.257 1.587-1.61l1.196-0.331c0.777 0.678 1.785 1.084 2.887 1.088 1.102-0.004 2.11-0.42 2.886-1.099l1.195 0.313c1.276 0.354 1.694 0.884 1.589 1.578z"></path>
</svg>
