<?xml version="1.0" encoding="utf-8"?>
<!-- Generated by IcoMoon.io -->
<!DOCTYPE svg PUBLIC "-//W3C//DTD SVG 1.1//EN" "http://www.w3.org/Graphics/SVG/1.1/DTD/svg11.dtd">
<svg version="1.1" xmlns="http://www.w3.org/2000/svg" xmlns:xlink="http://www.w3.org/1999/xlink" width="36" height="36" viewBox="0 0 36 36">
<path fill="#444" d="M26.757 31.492l-0.423-9.227c-0.065-1.401-0.872-2.633-2.023-3.316v8.56c0 2.459-2.002 4.461-4.461 4.461h-3.956c-2.459 0-4.461-2.002-4.461-4.461v-8.395c-1.013 0.706-1.707 1.856-1.765 3.151l-0.425 9.227c-0.096 2.136 1.573 3.881 3.709 3.881h10.098c2.136 0 3.805-1.744 3.707-3.881z"></path>
<path fill="#444" d="M21.978 4.765c-1.055-0.67-2.496-1.085-4.092-1.085-0.714 0-1.399 0.083-2.031 0.235v-2.585c0-0.387-0.314-0.704-0.704-0.704-0.387 0-0.704 0.316-0.704 0.704v3.074c-0.312 0.147-0.6 0.314-0.861 0.497-0.002 0.002-0.004 0.004-0.008 0.006-0.591 0.398-0.955 1.018-0.955 1.91v11.464h-0.023v9.225c0 1.82 1.476 3.296 3.296 3.296h3.954c1.503 0 2.77-1.007 3.166-2.382 0.1-0.311 0.154-0.642 0.154-0.985v-20.618c0-1.007-0.465-1.665-1.192-2.052zM15.821 26.369c0 0.339-0.268 0.616-0.599 0.616h-0.915c-0.329 0-0.597-0.276-0.597-0.616v-0.536c0-0.339 0.268-0.616 0.597-0.616h0.915c0.331 0 0.599 0.276 0.599 0.616v0.536zM15.821 23.634c0 0.341-0.268 0.616-0.599 0.616h-0.915c-0.329 0-0.597-0.274-0.597-0.616v-0.534c0-0.341 0.268-0.618 0.597-0.618h0.915c0.331 0 0.599 0.277 0.599 0.618v0.534zM15.821 20.9c0 0.341-0.268 0.62-0.597 0.62h-0.915c-0.331 0-0.599-0.279-0.599-0.62v-0.532c0-0.343 0.268-0.62 0.599-0.62h0.915c0.329 0 0.597 0.277 0.597 0.62v0.532zM19.031 26.326c0 0.341-0.268 0.618-0.599 0.618h-0.915c-0.331 0-0.599-0.277-0.599-0.618v-0.534c0-0.341 0.268-0.616 0.599-0.616h0.915c0.331 0 0.599 0.274 0.599 0.616v0.534zM19.031 23.605c0 0.341-0.268 0.618-0.599 0.618h-0.915c-0.331 0-0.599-0.277-0.599-0.618v-0.534c0-0.341 0.268-0.618 0.599-0.618h0.915c0.331 0 0.599 0.276 0.599 0.618v0.534zM19.031 20.887c0 0.339-0.268 0.616-0.599 0.616h-0.915c-0.331 0-0.599-0.276-0.599-0.616v-0.536c0-0.339 0.268-0.616 0.599-0.616h0.915c0.331 0 0.599 0.276 0.599 0.616v0.536zM19.086 18.164c0 0.344-0.268 0.62-0.597 0.62h-0.917c-0.329 0-0.597-0.276-0.597-0.62v-0.532c0-0.343 0.268-0.62 0.597-0.62h0.917c0.329 0 0.597 0.277 0.597 0.62v0.532zM22.083 26.326c0 0.341-0.268 0.618-0.599 0.618h-0.915c-0.331 0-0.599-0.277-0.599-0.618v-0.534c0-0.341 0.268-0.616 0.599-0.616h0.915c0.331 0 0.599 0.274 0.599 0.616v0.534zM22.083 23.605c0 0.341-0.268 0.616-0.599 0.616h-0.915c-0.331 0-0.599-0.274-0.599-0.616v-0.532c0-0.343 0.268-0.62 0.599-0.62h0.915c0.331 0 0.599 0.276 0.599 0.62v0.532zM22.083 20.887c0 0.339-0.268 0.616-0.599 0.616h-0.915c-0.331 0-0.599-0.276-0.599-0.616v-0.536c0-0.339 0.268-0.616 0.599-0.616h0.915c0.331 0 0.599 0.276 0.599 0.616v0.536zM22.185 14.089c0 0.764-0.626 1.391-1.393 1.391h-5.797c-0.762 0-1.389-0.626-1.389-1.391v-5.566c0-0.762 0.626-1.391 1.389-1.391h5.797c0.766 0 1.393 0.628 1.393 1.391v5.566z"></path>
</svg>
