<?xml version="1.0" encoding="utf-8"?>
<!-- Generated by IcoMoon.io -->
<!DOCTYPE svg PUBLIC "-//W3C//DTD SVG 1.1//EN" "http://www.w3.org/Graphics/SVG/1.1/DTD/svg11.dtd">
<svg version="1.1" xmlns="http://www.w3.org/2000/svg" xmlns:xlink="http://www.w3.org/1999/xlink" width="36" height="36" viewBox="0 0 36 36">
<path fill="#444" d="M35.174 16.434l-4.476-3.632v-8.557c0-0.578-0.472-1.051-1.051-1.051h-3.506c-0.578 0-1.051 0.473-1.051 1.051v4.005l-5.621-4.561c-0.406-0.33-0.942-0.495-1.476-0.495s-1.069 0.165-1.477 0.495l-15.685 12.729c-0.165 0.171-0.268 0.402-0.268 0.659 0 0.26 0.105 0.499 0.277 0.669s0.408 0.276 0.668 0.276h3.792v13.030c0 0.963 0.79 1.754 1.753 1.754h7.908v-7.86h6.077v7.86h7.907c0.963 0 1.753-0.791 1.753-1.754v-13.030h3.872c0.23-0.018 0.436-0.115 0.589-0.269 0.171-0.17 0.279-0.407 0.279-0.669 0-0.253-0.103-0.48-0.264-0.65z"></path>
</svg>
