<?xml version="1.0" encoding="utf-8"?>
<!-- Generated by IcoMoon.io -->
<!DOCTYPE svg PUBLIC "-//W3C//DTD SVG 1.1//EN" "http://www.w3.org/Graphics/SVG/1.1/DTD/svg11.dtd">
<svg version="1.1" xmlns="http://www.w3.org/2000/svg" xmlns:xlink="http://www.w3.org/1999/xlink" width="36" height="36" viewBox="0 0 36 36">
<path fill="#444" d="M35.176 16.435l-4.477-3.632v-8.557c0-0.578-0.473-1.051-1.051-1.051h-3.506c-0.579 0-1.052 0.473-1.052 1.051v4.005l-5.618-4.56c-0.408-0.331-0.944-0.496-1.478-0.496s-1.068 0.165-1.476 0.496l-15.687 12.728c-0.165 0.171-0.268 0.403-0.268 0.659 0 0.26 0.106 0.497 0.277 0.668 0.172 0.171 0.407 0.276 0.668 0.276h3.792v13.030c0 0.964 0.788 1.753 1.753 1.753h21.893c0.964 0 1.753-0.788 1.753-1.753v-13.030h3.873c0.229-0.020 0.435-0.115 0.588-0.269 0.171-0.17 0.277-0.408 0.277-0.667 0-0.254-0.1-0.483-0.262-0.651zM11.756 27.054c0 0.29-0.237 0.526-0.527 0.526h-0.84c-0.288 0-0.526-0.236-0.526-0.526v-1.056c0-0.291 0.237-0.528 0.526-0.528h0.84c0.29 0 0.527 0.237 0.527 0.528v1.056zM15.075 27.054c0 0.29-0.236 0.526-0.526 0.526h-0.838c-0.288 0-0.527-0.236-0.527-0.526v-3.167c0-0.29 0.238-0.527 0.527-0.527h0.838c0.29 0 0.526 0.237 0.526 0.527v3.167zM18.395 27.054c0 0.29-0.237 0.526-0.526 0.526h-0.84c-0.29 0-0.526-0.236-0.526-0.526v-5.277c0-0.29 0.236-0.527 0.526-0.527h0.84c0.288 0 0.526 0.237 0.526 0.527v5.277zM21.715 27.054c0 0.29-0.237 0.526-0.526 0.526h-0.84c-0.288 0-0.526-0.236-0.526-0.526v-7.388c0-0.29 0.237-0.526 0.526-0.526h0.84c0.288 0 0.526 0.236 0.526 0.526v7.388zM25.034 27.054c0 0.29-0.236 0.526-0.526 0.526h-0.84c-0.288 0-0.526-0.236-0.526-0.526v-9.499c0-0.288 0.237-0.526 0.526-0.526h0.84c0.29 0 0.526 0.237 0.526 0.526v9.499z"></path>
</svg>
