<?xml version="1.0" encoding="utf-8"?>
<!-- Generated by IcoMoon.io -->
<!DOCTYPE svg PUBLIC "-//W3C//DTD SVG 1.1//EN" "http://www.w3.org/Graphics/SVG/1.1/DTD/svg11.dtd">
<svg version="1.1" xmlns="http://www.w3.org/2000/svg" xmlns:xlink="http://www.w3.org/1999/xlink" width="36" height="36" viewBox="0 0 36 36">
<path fill="#444" d="M35.176 16.435l-4.475-3.631v-8.558c0-0.578-0.473-1.051-1.054-1.051h-3.505c-0.578 0-1.051 0.473-1.051 1.051v4.004l-5.621-4.559c-0.408-0.33-0.942-0.496-1.476-0.496s-1.069 0.166-1.477 0.496l-15.688 12.73c-0.164 0.17-0.266 0.402-0.266 0.659 0 0.259 0.105 0.496 0.276 0.667s0.408 0.276 0.669 0.276h3.791v13.032c0 0.963 0.79 1.752 1.754 1.752h21.894c0.963 0 1.754-0.788 1.754-1.752v-13.032h3.872c0.229-0.020 0.435-0.115 0.588-0.269 0.171-0.17 0.276-0.406 0.276-0.667 0-0.254-0.1-0.482-0.262-0.651zM17.915 27.351h-0.271c-0.62-0.139-1.076-0.555-1.076-1.263 0-1.002 0.999-1.527 1.755-1.135 0.2 0.103 0.411 0.328 0.53 0.551 0.443 0.836-0.178 1.773-0.939 1.847zM21.214 24.245c-0.275 0.28-0.721 0.28-0.992 0-1.374-1.429-3.595-1.429-4.969 0-0.271 0.28-0.719 0.28-0.992 0-0.271-0.291-0.271-0.749 0-1.039 1.918-1.991 5.036-1.991 6.954 0 0.271 0.29 0.271 0.748 0 1.039zM23.198 22.18c-0.274 0.28-0.719 0.28-0.994 0-2.468-2.564-6.466-2.564-8.935 0-0.274 0.28-0.72 0.28-0.991 0-0.277-0.287-0.277-0.747 0-1.038 3.013-3.131 7.906-3.131 10.92 0 0.276 0.291 0.276 0.75 0 1.038zM25.185 20.11c-0.276 0.284-0.717 0.284-0.994 0-3.565-3.703-9.343-3.703-12.908 0-0.276 0.284-0.719 0.284-0.994 0-0.275-0.281-0.275-0.744 0-1.029 4.113-4.28 10.783-4.28 14.896 0 0.275 0.285 0.275 0.748 0 1.029z"></path>
</svg>
