<?xml version="1.0" encoding="utf-8"?>
<!-- Generated by IcoMoon.io -->
<!DOCTYPE svg PUBLIC "-//W3C//DTD SVG 1.1//EN" "http://www.w3.org/Graphics/SVG/1.1/DTD/svg11.dtd">
<svg version="1.1" xmlns="http://www.w3.org/2000/svg" xmlns:xlink="http://www.w3.org/1999/xlink" width="36" height="36" viewBox="0 0 36 36">
<path fill="#444" d="M21.258 31.565l8.697 0.008c0.539 0 1.024-0.236 1.353-0.613 0.273-0.311 0.441-0.725 0.441-1.173v-16.245h2.228c0.657 0 1.187-0.131 1.355-0.692 0.12-0.514 0-1.032-0.713-1.442l-14.163-6.206c-0.456-0.166-2.068-0.775-2.607-0.775-0.414 0-2.404 0.79-2.781 0.943l-13.687 6.038c-0.713 0.41-0.835 0.928-0.713 1.442 0.168 0.562 0.698 0.692 1.351 0.692h2.211l-0.002 16.245c0 0.448 0.168 0.862 0.441 1.173 0.271 0.311 0.644 0.518 1.063 0.589l15.525 0.017z"></path>
</svg>
