<?xml version="1.0" encoding="utf-8"?>
<!-- Generated by IcoMoon.io -->
<!DOCTYPE svg PUBLIC "-//W3C//DTD SVG 1.1//EN" "http://www.w3.org/Graphics/SVG/1.1/DTD/svg11.dtd">
<svg version="1.1" xmlns="http://www.w3.org/2000/svg" xmlns:xlink="http://www.w3.org/1999/xlink" width="36" height="36" viewBox="0 0 36 36">
<path fill="#444" d="M31.997 25.208h-3.999v2.028c0 2.885-2.053 4.947-4.937 4.947h-10.027c-2.885 0-5.031-2.063-5.031-4.947v-2.028h-3.906c-1.439 0-2.604 1.139-2.604 2.577v5.231c0 1.441 1.166 2.421 2.604 2.421h27.9c1.438 0 2.511-0.981 2.511-2.421v-5.231c0-1.439-1.073-2.577-2.511-2.577z"></path>
<path fill="#444" d="M13.033 29.857h10.027c1.438 0 2.612-1.183 2.612-2.622v-20.266c0-1.439-1.174-2.687-2.612-2.687h-6.688v-1.878c0-0.963-0.664-1.744-1.628-1.744s-1.628 0.781-1.628 1.744v1.878h-0.084c-1.439 0-2.706 1.248-2.706 2.687v20.266c0 1.439 1.267 2.622 2.706 2.622zM14.841 27.176c-0.963 0-1.743-0.783-1.743-1.749s0.78-1.748 1.743-1.748 1.744 0.783 1.744 1.748c0 0.966-0.781 1.749-1.744 1.749zM14.841 21.056c-0.963 0-1.743-0.783-1.743-1.749s0.78-1.748 1.743-1.748 1.744 0.782 1.744 1.748c0 0.966-0.781 1.749-1.744 1.749zM21.33 27.176c-0.963 0-1.744-0.783-1.744-1.749s0.782-1.748 1.744-1.748 1.743 0.783 1.743 1.748-0.781 1.749-1.743 1.749zM21.33 21.056c-0.963 0-1.744-0.783-1.744-1.749s0.782-1.748 1.744-1.748 1.743 0.782 1.743 1.748c0 0.966-0.781 1.749-1.743 1.749zM22.883 12.417c0 1.415-1.153 2.561-2.575 2.561h-4.616c-1.422 0-2.575-1.146-2.575-2.561v-1.853c0-1.415 1.153-2.561 2.575-2.561h4.616c1.422 0 2.575 1.146 2.575 2.561v1.853z"></path>
</svg>
