<?xml version="1.0" encoding="utf-8"?>
<!-- Generated by IcoMoon.io -->
<!DOCTYPE svg PUBLIC "-//W3C//DTD SVG 1.1//EN" "http://www.w3.org/Graphics/SVG/1.1/DTD/svg11.dtd">
<svg version="1.1" xmlns="http://www.w3.org/2000/svg" xmlns:xlink="http://www.w3.org/1999/xlink" width="36" height="36" viewBox="0 0 36 36">
<path fill="#444" d="M17.109 29.183v-0.077c0.004-0.381-0.303-0.754-0.678-0.829l-2.808-0.839c-0.352-0.149-0.8-0.002-0.995 0.327l-0.228 0.385c-0.004 0-0.006 0-0.010-0.002l-2.493 4.227c0.002 0.002 0.002 0.006 0.004 0.010l-0.108 0.184c-0.184 0.313-0.077 0.68 0.236 0.848 0.006 0.014 0.010 0.031 0.014 0.048 1.952 1.003 4.113 1.649 6.407 1.854 0.017-0.014 0.033-0.027 0.050-0.039 0.278-0.008 0.495-0.201 0.543-0.481 0.004 0 0.006-0.002 0.010-0.004v-0.102l0.013-1.287 0.041-4.225z"></path>
<path fill="#444" d="M25.524 32.934l-0.11-0.193c0.002-0.002 0.004-0.006 0.006-0.008l-2.799-4.959c-0.021 0.019-0.046 0.033-0.075 0.048-0.12-0.089-0.265-0.143-0.412-0.164-0.008-0.025-0.021-0.050-0.025-0.077-0.058 0.027-0.12 0.050-0.182 0.075-0.050 0.006-0.104 0.019-0.151 0.035l-2.922 0.667c-0.058 0.006-0.114 0.025-0.166 0.044-0.012 0.002-0.025 0.002-0.037 0.004 0.002 0.004 0 0.008 0 0.012-0.284 0.122-0.493 0.412-0.495 0.723l-0.033 3.299-0.021 2.267v0.012c-0.002 0.243 0.118 0.439 0.307 0.541 0.012 0.041 0.021 0.081 0.019 0.126 2.453-0.062 4.774-0.632 6.875-1.604 0.002-0.017 0.002-0.029 0.002-0.044 0.29-0.162 0.392-0.504 0.22-0.806z"></path>
<path fill="#444" d="M8.292 22.706c0.060-0.095 0.104-0.201 0.124-0.313 0.021-0.031 0.043-0.060 0.077-0.079-0.025-0.056-0.045-0.112-0.072-0.17-0.006-0.058-0.019-0.114-0.037-0.17l-0.719-2.775c-0.060-0.381-0.421-0.692-0.804-0.696l-0.216-0.002c0-0.006 0-0.012 0-0.023l-5.582-0.050c-0.019 0.025-0.035 0.052-0.056 0.081-0.197 0.091-0.323 0.284-0.325 0.518-0.019 0.031-0.037 0.058-0.054 0.091 0.149 2.277 0.729 4.436 1.672 6.392 0.014 0 0.031-0.002 0.048 0 0 0.002 0.004 0.002 0.006 0.002 0.166 0.278 0.506 0.371 0.806 0.203l4.863-2.748c0.043-0.025 0.087-0.056 0.126-0.091l0.137-0.077c-0.004-0.033-0-0.062 0.006-0.095z"></path>
<path fill="#444" d="M8.161 13.058c0-0.015-0.002-0.027 0-0.039l-4.704-2.773c-0.004 0.004-0.008 0.008-0.012 0.012l-0.213-0.124c-0.302-0.178-0.649-0.081-0.814 0.207-0.025 0-0.048-0.002-0.072-0.002-0.92 1.884-1.507 3.96-1.691 6.15 0.027 0.029 0.052 0.058 0.077 0.085l-0.035 0.135c-0.060 0.379 0.207 0.692 0.589 0.696l5.574 0.052c0.385 0.004 0.748-0.302 0.81-0.68l0.731-2.799c0.118-0.315 0.012-0.7-0.238-0.92z"></path>
<path fill="#444" d="M25.646 2.411c-0.002-0.029-0.002-0.056-0.008-0.085-1.921-0.939-4.041-1.533-6.283-1.705-0.027 0.039-0.066 0.072-0.116 0.095l-0.124-0.031c-0.348-0.052-0.638 0.17-0.688 0.501-0.002-0.002-0.006-0.002-0.008-0.002v0.089c0 0.002 0 0.004 0 0.004l-0.054 5.576c-0.004 0.383 0.305 0.744 0.684 0.798l2.99 0.758c0.359 0.137 0.81-0.023 1.005-0.352l2.841-4.813c0.184-0.313 0.074-0.674-0.238-0.833z"></path>
<path fill="#444" d="M17.343 4.338l0.029-3.052c0.002-0.354-0.259-0.605-0.597-0.595-0.010-0.025-0.021-0.054-0.031-0.079-2.352 0.17-4.571 0.798-6.571 1.805 0.006 0.025 0.010 0.050 0.015 0.075-0.274 0.174-0.365 0.518-0.197 0.816l2.746 4.861c0.186 0.332 0.632 0.485 0.986 0.34l2.903-0.823c0.377-0.066 0.69-0.435 0.694-0.816l0.002-0.224 0.021-2.308z"></path>
<path fill="#444" d="M35.298 16.949c0.025-0.019 0.048-0.037 0.075-0.054-0.143-2.321-0.736-4.513-1.699-6.5h-0.073c-0.168-0.284-0.51-0.383-0.812-0.213l-0.203 0.114c-0.004-0.004-0.010-0.006-0.014-0.013l-4.47 2.524c0.004 0.004 0.004 0.012 0.006 0.019l-0.182 0.102c-0.334 0.189-0.493 0.636-0.359 0.995l0.775 3.048c0.056 0.381 0.417 0.694 0.798 0.696l5.578 0.054c0.383 0.004 0.653-0.305 0.601-0.684l-0.021-0.087z"></path>
<path fill="#444" d="M11.562 26.166l-1.993-2.078c-0.236-0.303-0.702-0.394-1.036-0.207l-0.106 0.062c-0.002-0.006-0.006-0.012-0.008-0.017l-4.633 2.615c0 0.006 0 0.014 0 0.021l-0.116 0.066c-0.334 0.189-0.417 0.593-0.182 0.895l0.029 0.029c-0.004 0.025-0.008 0.048-0.012 0.070 1.216 1.821 2.76 3.402 4.557 4.652 0.002-0.014 0.010-0.027 0.015-0.043 0.288 0.184 0.644 0.106 0.825-0.201l2.839-4.812c0.197-0.332 0.118-0.804-0.176-1.053z"></path>
<path fill="#444" d="M32.039 27.132c0.002-0.006 0.002-0.017 0.004-0.023l-4.733-2.789c-0.006 0.002-0.017 0.002-0.025 0.004l-0.081-0.050c-0.273-0.16-0.642-0.13-0.905 0.048-0.002-0.002-0.004-0.002-0.004-0.002-0.004 0.004-0.008 0.008-0.012 0.012-0.048 0.033-0.093 0.072-0.135 0.118l-2.238 2.099c-0.037 0.029-0.075 0.064-0.106 0.099-0.008 0.004-0.012 0.010-0.023 0.014v0.012c-0.199 0.249-0.242 0.618-0.083 0.901l2.743 4.857c0.133 0.234 0.373 0.342 0.609 0.307 0.029 0.019 0.056 0.041 0.083 0.060 1.979-1.223 3.688-2.828 5.035-4.716-0.002-0.023-0.006-0.043-0.008-0.066l0.010-0.010c0.24-0.29 0.176-0.678-0.133-0.876z"></path>
<path fill="#444" d="M11.84 8.706l-0.033-0.060c0.002-0.002 0.004-0.006 0.006-0.008l-2.553-4.521c-0.006-0.006-0.014-0.008-0.021-0.014l-0.149-0.263c-0.189-0.334-0.589-0.41-0.885-0.17l-0.041 0.039c-0.035-0.008-0.070-0.017-0.108-0.027-1.776 1.241-3.311 2.801-4.521 4.6 0.017 0.019 0.023 0.046 0.035 0.066-0.215 0.298-0.139 0.69 0.182 0.879l4.809 2.837c0.332 0.195 0.796 0.108 1.034-0.193l2.051-2.109c0.294-0.247 0.381-0.721 0.193-1.055z"></path>
<path fill="#444" d="M32.416 9.16c0.147-0.153 0.201-0.361 0.143-0.56 0-0.004 0-0.008 0-0.012-0.010-0.052-0.006-0.106 0.004-0.155-1.312-2-3.025-3.711-5.025-5.025-0.052 0.019-0.104 0.039-0.153 0.062-0.23-0.033-0.46 0.070-0.595 0.296l-0.039 0.070c-0.006 0.002-0.014 0.006-0.021 0.008l-2.681 4.548c0.002 0.004 0.002 0.008 0.002 0.015l-0.097 0.166c-0.195 0.332-0.11 0.798 0.189 1.038l2.219 2.211c0.24 0.296 0.711 0.385 1.044 0.197l4.867-2.748c0.046-0.025 0.085-0.054 0.12-0.089l0.019-0.008c0.002-0.006 0.002-0.010 0.004-0.015z"></path>
<path fill="#444" d="M35.36 19.314c-0.025 0-0.045-0.010-0.068-0.015-0.021-0.282-0.23-0.495-0.524-0.526-0.004-0.010-0.008-0.017-0.008-0.027l-5.008-0.048c0 0.006-0.004 0.015-0.004 0.021l-0.624-0.004c-0.273-0.004-0.539 0.151-0.694 0.377-0.015 0.002-0.031 0.004-0.046 0.006-0.004 0.031-0.010 0.064-0.014 0.095-0.031 0.062-0.058 0.128-0.070 0.199l-0.874 2.998c-0.147 0.352 0 0.802 0.332 0.995l4.805 2.839c0.259 0.151 0.555 0.104 0.744-0.097h0.081c1.092-2.060 1.788-4.364 1.975-6.813z"></path>
<path fill="#444" d="M27.148 18c0 5.052-4.097 9.146-9.148 9.146s-9.146-4.095-9.146-9.146 4.094-9.146 9.146-9.146c5.052 0 9.148 4.095 9.148 9.146z"></path>
</svg>
