<?xml version="1.0" encoding="utf-8"?>
<!-- Generated by IcoMoon.io -->
<!DOCTYPE svg PUBLIC "-//W3C//DTD SVG 1.1//EN" "http://www.w3.org/Graphics/SVG/1.1/DTD/svg11.dtd">
<svg version="1.1" xmlns="http://www.w3.org/2000/svg" xmlns:xlink="http://www.w3.org/1999/xlink" width="36" height="36" viewBox="0 0 36 36">
<path fill="#444" d="M30.317 20.569c-0.94-6.748-4.8-8.446-4.8-8.446s0.78 3.349-0.487 4.85c-1.162 1.375-2.635 1.33-2.635 1.33 1.387-1.509 2.256-6.794 0-11.324-2.255-4.528-6.938-6.417-6.938-6.417 1.171 3.256 0.52 5.851 0.52 5.851-2.169 6.276-7.935 8.304-10.007 14.606-1.058 3.224 0.003 7.221 2.809 10.588 1.514 1.818 3.685 2.894 6.092 3.434-1.174-1.956-2.070-4.777-1.415-8.092 1.142-5.786 4.31-9.183 4.31-9.191v0.009h-0.089c0.007 0 3.123 3.397 4.265 9.182 0.7 3.547-0.426 6.53-1.713 8.492 4.339-0.523 11.166-7.132 10.087-14.873z"></path>
</svg>
