<?xml version="1.0" encoding="utf-8"?>
<!-- Generated by IcoMoon.io -->
<!DOCTYPE svg PUBLIC "-//W3C//DTD SVG 1.1//EN" "http://www.w3.org/Graphics/SVG/1.1/DTD/svg11.dtd">
<svg version="1.1" xmlns="http://www.w3.org/2000/svg" xmlns:xlink="http://www.w3.org/1999/xlink" width="36" height="36" viewBox="0 0 36 36">
<path fill="#444" d="M34.401 4.939c0.010-0.168 0.003-0.335-0.024-0.501-0.082-0.508-0.333-0.99-0.748-1.355-0.266-0.234-0.571-0.392-0.888-0.481-0.068-0.018-0.137-0.033-0.205-0.049-0.291-0.069-0.582-0.14-0.873-0.204-4.608-1.024-9.259-1.711-13.993-1.701-0.004-0.028-0.005-0.057-0.006-0.084-1.989 0.139-3.986 0.222-5.968 0.43-2.722 0.285-5.405 0.81-8.062 1.475-0.198 0.025-0.394 0.076-0.583 0.15-0.353 0.142-0.675 0.373-0.931 0.689-0.288 0.353-0.452 0.766-0.503 1.187-0.005 0.122-0.008 0.244-0.013 0.368-0.131 3.709 0.214 7.372 1.179 10.973 1.371 5.128 3.837 9.662 7.41 13.591 1.859 2.044 3.943 3.818 6.208 5.38 0.184 0.175 0.397 0.321 0.632 0.427 0.282 0.127 0.592 0.202 0.92 0.205 0.409 0.005 0.794-0.098 1.129-0.282 0.125-0.082 0.247-0.168 0.37-0.251 1.885-1.287 3.653-2.722 5.271-4.343 3.396-3.406 5.942-7.36 7.596-11.88 1.051-2.87 1.679-5.832 1.953-8.872 0.146-1.623 0.181-3.246 0.131-4.87zM17.998 7.044c2.26 0 4.097 1.882 4.097 4.196s-1.837 4.196-4.097 4.196c-2.255 0-4.093-1.882-4.093-4.196s1.838-4.196 4.093-4.196zM24.659 17.498l-1.119 7.107c-0.164 1.115-0.835 1.863-1.864 1.863h-7.345c-1.028 0-1.697-0.748-1.863-1.863l-1.119-7.107c-0.121-0.818 0.368-1.447 1.864-1.864l1.403-0.373c0.912 0.801 2.094 1.29 3.386 1.294 1.295-0.004 2.477-0.493 3.389-1.294l1.403 0.373c1.497 0.417 1.988 1.047 1.864 1.864z"></path>
</svg>
