<?xml version="1.0" encoding="utf-8"?>
<!-- Generated by IcoMoon.io -->
<!DOCTYPE svg PUBLIC "-//W3C//DTD SVG 1.1//EN" "http://www.w3.org/Graphics/SVG/1.1/DTD/svg11.dtd">
<svg version="1.1" xmlns="http://www.w3.org/2000/svg" xmlns:xlink="http://www.w3.org/1999/xlink" width="36" height="36" viewBox="0 0 36 36">
<path fill="#444" d="M32.648 3.353h-29.295c-1.535 0-2.79 1.479-2.79 3.014v1.702c0.822-0.477 1.773-0.531 2.79-0.531h29.295c1.016 0 1.967 0.054 2.79 0.531v-1.702c0-1.534-1.256-3.014-2.79-3.014z"></path>
<path fill="#444" d="M32.648 10.328h-29.295c-1.535 0-2.79 1.032-2.79 2.566v16.74c0 1.535 1.255 3.014 2.79 3.014h29.295c1.534 0 2.79-1.479 2.79-3.013v-16.74c0-1.535-1.256-2.567-2.79-2.567zM17.767 25.914c0 1.534-1.256 3.013-2.79 3.013h-7.905c-1.535 0-2.79-1.479-2.79-3.013v-9.3c0-1.535 1.255-2.567 2.79-2.567h7.905c1.534 0 2.79 1.032 2.79 2.566v9.3zM30.717 26.603h-8.292c-1.028 0-1.86-0.833-1.86-1.86s0.832-1.86 1.86-1.86h8.292c1.027 0 1.86 0.833 1.86 1.86s-0.833 1.86-1.86 1.86zM30.717 20.093h-8.292c-1.028 0-1.86-0.833-1.86-1.86s0.832-1.86 1.86-1.86h8.292c1.027 0 1.86 0.833 1.86 1.86s-0.833 1.86-1.86 1.86z"></path>
<path fill="#444" d="M11.044 20.103c1.164 0 2.109-0.969 2.109-2.161s-0.945-2.161-2.109-2.161c-1.162 0-2.108 0.97-2.108 2.161s0.946 2.161 2.108 2.161z"></path>
<path fill="#444" d="M13.513 21.361l-0.722-0.192c-0.469 0.413-1.079 0.664-1.745 0.666-0.666-0.002-1.275-0.253-1.745-0.666l-0.723 0.192c-0.77 0.214-1.022 0.538-0.96 0.959l0.576 3.724c0.085 0.574 0.43 1.023 0.96 1.023h3.782c0.531 0 0.875-0.449 0.96-1.023l0.575-3.692c0.064-0.422-0.188-0.777-0.959-0.991z"></path>
</svg>
