<?xml version="1.0" encoding="utf-8"?>
<!-- Generated by IcoMoon.io -->
<!DOCTYPE svg PUBLIC "-//W3C//DTD SVG 1.1//EN" "http://www.w3.org/Graphics/SVG/1.1/DTD/svg11.dtd">
<svg version="1.1" xmlns="http://www.w3.org/2000/svg" xmlns:xlink="http://www.w3.org/1999/xlink" width="36" height="36" viewBox="0 0 36 36">
<path fill="#444" d="M19.728 18.226l10.428-1.399c1.115-0.149 1.378-0.924 0.581-1.72l-1.872-1.873 4.81-4.809c0.796-0.796 0.796-2.098 0-2.894l-3.010-3.009c-0.796-0.796-2.099-0.796-2.894 0l-4.811 4.81-1.87-1.872c-0.796-0.796-1.569-0.534-1.72 0.581l-1.398 10.428c-0.15 1.116 0.641 1.906 1.756 1.756z"></path>
<path fill="#444" d="M34.571 26.384l-6.371-3.654c0 0-1.081-0.812-1.986 0.065 0 0-1.39 1.129-2.817 2.813l-0.615 0.802c0 0-0.359 0.455-1.328 0.104 0 0-6.24-2.001-11.917-11.452 0 0-0.497-0.717 0.488-1.677 0 0 1.067-0.857 2.343-2.288 0 0 0.705-0.552 0.309-1.694l-0.117-0.405-2.57-7.152c0 0-0.405-1.051-1.822-1.044l-1.947 0.266c0 0-6.406 0.832-5.585 8.6 0 0 2.976 18.643 23.704 24.948 0 0 8.243 2.778 10.521-3.833 0 0 0.271-1.289 0.558-2.856 0 0 0.228-0.825-0.846-1.544z"></path>
</svg>
