<?xml version="1.0" encoding="utf-8"?>
<!-- Generated by IcoMoon.io -->
<!DOCTYPE svg PUBLIC "-//W3C//DTD SVG 1.1//EN" "http://www.w3.org/Graphics/SVG/1.1/DTD/svg11.dtd">
<svg version="1.1" xmlns="http://www.w3.org/2000/svg" xmlns:xlink="http://www.w3.org/1999/xlink" width="36" height="36" viewBox="0 0 36 36">
<path fill="#444" d="M18 0.795c-9.502 0-17.205 7.703-17.205 17.205s7.703 17.205 17.205 17.205 17.205-7.703 17.205-17.205c0-9.502-7.703-17.205-17.205-17.205zM18.012 6.484c1.297 0 2.348 1.050 2.348 2.346s-1.050 2.348-2.348 2.348c-1.295 0-2.345-1.051-2.345-2.348s1.050-2.346 2.345-2.346zM23.306 27.067h-9.693c-0.755 0-1.613-0.578-1.613-1.332s0.652-1.331 1.117-1.331v-0.127h3.255v-7.905h-1.86v-0.12c-1.395 0-1.343-0.813-1.343-1.568s0.634-1.568 1.389-1.568h4.318c0.753 0 1.285 0.81 1.288 1.561l-0.071 0.207v9.391h2.79v0.127c1.395 0 1.577 0.577 1.577 1.332 0 0.754-0.401 1.331-1.154 1.331z"></path>
</svg>
