<?xml version="1.0" encoding="utf-8"?>
<!-- Generated by IcoMoon.io -->
<!DOCTYPE svg PUBLIC "-//W3C//DTD SVG 1.1//EN" "http://www.w3.org/Graphics/SVG/1.1/DTD/svg11.dtd">
<svg version="1.1" xmlns="http://www.w3.org/2000/svg" xmlns:xlink="http://www.w3.org/1999/xlink" width="36" height="36" viewBox="0 0 36 36">
<path fill="#444" d="M9.212 24.963c-0.502 0.441-0.502 1.163 0 1.603l6.812 5.856v-3.043h8.909c0.67 0 1.218-0.547 1.218-1.218v-4.795c0-0.669-0.548-1.217-1.218-1.217h-8.909v-3.086l-6.812 5.899z"></path>
<path fill="#444" d="M26.583 11.037c0.502-0.441 0.502-1.163 0-1.603l-6.81-5.856v3.041h-8.909c-0.672 0-1.22 0.548-1.22 1.219v4.796c0 0.669 0.548 1.217 1.22 1.217h8.909v3.086l6.81-5.899z"></path>
<path fill="#444" d="M7.261 10.256c0 1.832-1.486 3.318-3.317 3.318-1.833 0-3.317-1.486-3.317-3.318s1.484-3.317 3.317-3.317c1.831-0 3.317 1.485 3.317 3.317z"></path>
<path fill="#444" d="M35.373 25.742c0 1.832-1.484 3.318-3.317 3.318-1.831 0-3.317-1.486-3.317-3.318s1.486-3.317 3.317-3.317c1.833 0 3.317 1.485 3.317 3.317z"></path>
</svg>
