<?xml version="1.0" encoding="utf-8"?>
<!-- Generated by IcoMoon.io -->
<!DOCTYPE svg PUBLIC "-//W3C//DTD SVG 1.1//EN" "http://www.w3.org/Graphics/SVG/1.1/DTD/svg11.dtd">
<svg version="1.1" xmlns="http://www.w3.org/2000/svg" xmlns:xlink="http://www.w3.org/1999/xlink" width="36" height="36" viewBox="0 0 36 36">
<path fill="#444" d="M13.748 12.93c-0.042-0.027-0.081-0.056-0.119-0.086-0.193-0.155-0.347-0.355-0.448-0.583-0.016-0.037-0.031-0.073-0.045-0.112-0.439 0-0.885 0-1.331 0-0.865 0-0.87-0.003-1.218 0.806-0.373 0.867-0.599 1.768-0.64 2.734 1.137 0 2.243 0 3.317 0 0.164-0.936 0.324-1.847 0.485-2.76z"></path>
<path fill="#444" d="M14.197 21.056c-0.846-0.008-1.69-0.006-2.618-0.006 1.205 1.503 2.652 2.467 4.37 2.9-0.518-0.904-1.048-1.835-1.584-2.762-0.035-0.059-0.111-0.132-0.168-0.133z"></path>
<path fill="#444" d="M13.884 20.158c-0.211-1.204-0.414-2.368-0.616-3.527-1.090 0-2.205 0-3.328 0 0.080 1.201 0.386 2.305 0.953 3.332 0.048 0.088 0.178 0.184 0.271 0.187 0.917 0.014 1.834 0.008 2.719 0.008z"></path>
<path fill="#444" d="M16.639 21.208c-0.025-0.044-0.048-0.090-0.069-0.136-0.423 0-0.848 0-1.288 0 0.56 1.192 1.276 2.212 2.265 3.109 0-0.773 0-1.511 0-2.25-0.032-0.010-0.064-0.020-0.096-0.032-0.344-0.129-0.631-0.376-0.812-0.691z"></path>
<path fill="#444" d="M17.544 12.15c-0.49 0-0.97-0.002-1.447 0-0.015 0.038-0.029 0.075-0.046 0.112-0.236 0.526-0.75 0.896-1.354 0.926-0.027 0.002-0.053 0.004-0.081 0.004-0.003 0-0.007-0.001-0.011-0.001-0.063 0.238-0.123 0.478-0.168 0.72-0.11 0.582-0.159 1.175-0.236 1.772 1.16 0 2.243 0 3.342 0-0-1.174-0-2.327-0-3.534z"></path>
<path fill="#444" d="M15.023 20.148c0.477 0.007 0.953 0.008 1.432 0.008 0.004-0.019 0.007-0.038 0.010-0.057 0.112-0.524 0.485-0.951 0.976-1.139 0.032-0.012 0.065-0.023 0.098-0.032 0-0.774 0-1.539 0-2.311-1.104 0-2.188 0-3.31 0 0.049 1.18 0.249 2.289 0.621 3.365 0.025 0.070 0.113 0.166 0.172 0.167z"></path>
<path fill="#444" d="M15.74 10.519c0.172 0.175 0.303 0.39 0.378 0.629 0.009 0.027 0.016 0.055 0.023 0.082 0.475 0 0.939 0 1.401 0 0-1.033 0-2.037 0-3.101-0.766 0.697-1.369 1.469-1.86 2.334 0.019 0.018 0.039 0.036 0.058 0.056z"></path>
<path fill="#444" d="M18.471 8.129c0 1.077 0 2.090 0 3.105 0.749 0 1.479 0 2.252 0-0.55-1.191-1.273-2.202-2.252-3.105z"></path>
<path fill="#444" d="M13.087 11.258c0.006-0.026 0.013-0.052 0.020-0.077 0.19-0.656 0.794-1.135 1.51-1.135 0.065 0 0.129 0.005 0.192 0.013 0.034 0.004 0.067 0.010 0.101 0.017 0.078-0.146 0.159-0.289 0.244-0.43 0.269-0.441 0.588-0.851 0.921-1.325-1.837 0.467-3.283 1.43-4.5 2.936 0.529 0 1.027 0.002 1.513 0.001z"></path>
<path fill="#444" d="M19.975 8.366c0 0.011-0.004 0.025 0.001 0.031 0.659 0.841 1.235 1.734 1.666 2.715 0.029 0.065 0.128 0.138 0.195 0.138 0.836 0.009 1.67 0.006 2.562 0.006-0.891-1.335-3.042-2.724-4.424-2.891z"></path>
<path fill="#444" d="M22.696 12.149c-0.209 0-0.416 0-0.573 0 0.148 0.842 0.291 1.66 0.432 2.472 0.047 0.010 0.093 0.023 0.137 0.037 0.449 0.147 0.809 0.491 0.978 0.929 0.013 0.033 0.023 0.065 0.033 0.099 0.777 0 1.563 0 2.363 0-0.075-1.226-0.395-2.357-0.989-3.405-0.043-0.077-0.202-0.124-0.309-0.126-0.691-0.011-1.382-0.006-2.073-0.006z"></path>
<path fill="#444" d="M34.401 4.94c0.010-0.168 0.004-0.336-0.023-0.503-0.082-0.507-0.333-0.989-0.749-1.354-0.265-0.233-0.569-0.392-0.888-0.482-0.068-0.016-0.137-0.032-0.205-0.048-0.29-0.070-0.582-0.14-0.873-0.205-4.609-1.024-9.259-1.71-13.995-1.7-0.002-0.029-0.003-0.057-0.005-0.085-1.989 0.139-3.985 0.222-5.968 0.43-2.724 0.285-5.407 0.811-8.062 1.476-0.199 0.025-0.395 0.074-0.583 0.149-0.353 0.142-0.675 0.372-0.932 0.689-0.287 0.353-0.451 0.766-0.501 1.187-0.005 0.123-0.009 0.245-0.014 0.368-0.132 3.709 0.215 7.372 1.178 10.974 1.372 5.127 3.839 9.661 7.41 13.589 1.859 2.046 3.944 3.819 6.206 5.381 0.185 0.175 0.398 0.321 0.634 0.427 0.281 0.127 0.592 0.201 0.92 0.205 0.41 0.005 0.794-0.098 1.13-0.281 0.123-0.083 0.246-0.167 0.369-0.251 1.885-1.287 3.652-2.721 5.27-4.344 3.397-3.407 5.942-7.361 7.596-11.881 1.051-2.869 1.68-5.832 1.954-8.872 0.146-1.622 0.18-3.244 0.13-4.869zM17.979 25.089c-4.949-0.005-8.937-4.014-8.932-8.978 0.006-4.913 4.032-8.898 8.982-8.893 4.964 0.005 8.946 4.023 8.934 9.012-0.013 4.887-4.046 8.864-8.983 8.859z"></path>
<path fill="#444" d="M20.74 15.582c0.157-0.406 0.478-0.729 0.882-0.89 0.024-0.009 0.048-0.016 0.070-0.024-0.111-0.88-0.341-1.95-0.542-2.365-0.031-0.066-0.124-0.146-0.188-0.147-0.825-0.010-1.65-0.007-2.497-0.007 0 1.21 0 2.363 0 3.532 0.753 0 1.497 0 2.239 0 0.011-0.034 0.021-0.067 0.035-0.1z"></path>
<path fill="#444" d="M23.67 16.72c-0.17 0.44-0.531 0.785-0.983 0.931-0.038 0.012-0.079 0.023-0.118 0.032-0.029 0.238-0.062 0.472-0.103 0.706-0.101 0.576-0.253 1.144-0.395 1.768 0.722 0 1.423 0 2.125 0 0.875 0 0.875 0.001 1.221-0.8 0.376-0.868 0.597-1.77 0.646-2.736-0.795 0-1.58 0-2.36 0-0.010 0.034-0.021 0.066-0.034 0.099z"></path>
<path fill="#444" d="M20.736 16.718c-0.013-0.032-0.023-0.065-0.033-0.098-0.756 0-1.493 0-2.236 0 0 0.772 0 1.536 0 2.307 0.033 0.010 0.066 0.020 0.097 0.032 0.494 0.188 0.867 0.616 0.978 1.142 0.004 0.018 0.007 0.037 0.011 0.056 0.471 0 0.939-0.001 1.408-0.009 0.072-0.001 0.18-0.124 0.205-0.209 0.148-0.51 0.307-1.021 0.404-1.541 0.048-0.251 0.084-0.505 0.116-0.76-0.023-0.008-0.046-0.016-0.068-0.024-0.405-0.162-0.726-0.488-0.882-0.895z"></path>
<path fill="#444" d="M19.438 21.073c-0.021 0.046-0.044 0.092-0.069 0.135-0.181 0.315-0.467 0.561-0.811 0.69-0.032 0.012-0.063 0.022-0.097 0.032 0 0.738 0 1.478 0 2.257 0.989-0.923 1.725-1.93 2.255-3.114-0.44 0-0.862 0-1.278 0z"></path>
<path fill="#444" d="M22.392 21.036c-0.511-0.040-0.756 0.127-0.987 0.598-0.395 0.808-0.917 1.553-1.366 2.293 1.228-0.090 3.69-1.689 4.331-2.879-0.685 0-1.334 0.038-1.977-0.013z"></path>
</svg>
