<?xml version="1.0" encoding="utf-8"?>
<!-- Generated by IcoMoon.io -->
<!DOCTYPE svg PUBLIC "-//W3C//DTD SVG 1.1//EN" "http://www.w3.org/Graphics/SVG/1.1/DTD/svg11.dtd">
<svg version="1.1" xmlns="http://www.w3.org/2000/svg" xmlns:xlink="http://www.w3.org/1999/xlink" width="36" height="36" viewBox="0 0 36 36">
<path fill="#444" d="M31.898 0.627h-27.796c-1.916 0-3.475 1.555-3.475 3.474v27.798c0 1.919 1.558 3.475 3.475 3.475h27.796c1.921 0 3.475-1.555 3.475-3.475v-27.798c0-1.918-1.554-3.474-3.475-3.474zM7.767 26.231c-0.486 0-0.88-0.392-0.88-0.877s0.393-0.88 0.88-0.88c0.482 0 0.875 0.394 0.875 0.88s-0.393 0.877-0.875 0.877zM7.767 23.289c-0.486 0-0.88-0.392-0.88-0.877s0.393-0.878 0.88-0.878c0.482 0 0.875 0.392 0.875 0.878s-0.393 0.877-0.875 0.877zM7.767 20.349c-0.486 0-0.88-0.394-0.88-0.88s0.393-0.878 0.88-0.878c0.482 0 0.875 0.392 0.875 0.878s-0.393 0.88-0.875 0.88zM7.767 17.406c-0.486 0-0.88-0.391-0.88-0.876s0.393-0.88 0.88-0.88c0.482 0 0.875 0.394 0.875 0.88s-0.393 0.876-0.875 0.876zM7.767 14.465c-0.486 0-0.88-0.392-0.88-0.877s0.393-0.878 0.88-0.878c0.482 0 0.875 0.392 0.875 0.878s-0.393 0.877-0.875 0.877zM7.767 11.523c-0.486 0-0.88-0.392-0.88-0.877s0.393-0.878 0.88-0.878c0.482 0 0.875 0.392 0.875 0.878s-0.393 0.877-0.875 0.877zM10.735 29.173c-0.486 0-0.88-0.392-0.88-0.878s0.393-0.88 0.88-0.88c0.484 0 0.877 0.394 0.877 0.88s-0.393 0.878-0.877 0.878zM10.735 26.231c-0.486 0-0.88-0.392-0.88-0.877s0.393-0.88 0.88-0.88c0.484 0 0.877 0.394 0.877 0.88s-0.393 0.877-0.877 0.877zM10.735 23.289c-0.486 0-0.88-0.392-0.88-0.877s0.393-0.878 0.88-0.878c0.484 0 0.877 0.392 0.877 0.878s-0.393 0.877-0.877 0.877zM10.735 20.349c-0.486 0-0.88-0.394-0.88-0.88s0.393-0.878 0.88-0.878c0.484 0 0.877 0.392 0.877 0.878s-0.393 0.88-0.877 0.88zM10.735 17.406c-0.486 0-0.88-0.391-0.88-0.876s0.393-0.88 0.88-0.88c0.484 0 0.877 0.394 0.877 0.88s-0.393 0.876-0.877 0.876zM10.735 14.465c-0.486 0-0.88-0.392-0.88-0.877s0.393-0.878 0.88-0.878c0.484 0 0.877 0.392 0.877 0.878s-0.393 0.877-0.877 0.877zM10.735 11.523c-0.486 0-0.88-0.392-0.88-0.877s0.393-0.878 0.88-0.878c0.484 0 0.877 0.392 0.877 0.878s-0.393 0.877-0.877 0.877zM10.735 8.581c-0.486 0-0.88-0.392-0.88-0.878s0.393-0.877 0.88-0.877c0.484 0 0.877 0.392 0.877 0.877s-0.393 0.878-0.877 0.878zM13.659 29.173c-0.482 0-0.877-0.392-0.877-0.878s0.395-0.88 0.877-0.88c0.486 0 0.88 0.394 0.88 0.88s-0.393 0.878-0.88 0.878zM13.659 26.231c-0.482 0-0.877-0.392-0.877-0.877s0.395-0.88 0.877-0.88c0.486 0 0.88 0.394 0.88 0.88s-0.393 0.877-0.88 0.877zM13.659 23.289c-0.482 0-0.877-0.392-0.877-0.877s0.395-0.878 0.877-0.878c0.486 0 0.88 0.392 0.88 0.878s-0.393 0.877-0.88 0.877zM13.659 20.349c-0.482 0-0.877-0.394-0.877-0.88s0.395-0.878 0.877-0.878c0.486 0 0.88 0.392 0.88 0.878s-0.393 0.88-0.88 0.88zM13.659 17.406c-0.482 0-0.877-0.391-0.877-0.876s0.395-0.88 0.877-0.88c0.486 0 0.88 0.394 0.88 0.88s-0.393 0.876-0.88 0.876zM13.659 14.465c-0.482 0-0.877-0.392-0.877-0.877s0.395-0.878 0.877-0.878c0.486 0 0.88 0.392 0.88 0.878s-0.393 0.877-0.88 0.877zM13.659 11.523c-0.482 0-0.877-0.392-0.877-0.877s0.395-0.878 0.877-0.878c0.486 0 0.88 0.392 0.88 0.878s-0.393 0.877-0.88 0.877zM13.659 8.581c-0.482 0-0.877-0.392-0.877-0.878s0.395-0.877 0.877-0.877c0.486 0 0.88 0.392 0.88 0.877s-0.393 0.878-0.88 0.878zM16.585 29.173c-0.482 0-0.878-0.392-0.878-0.878s0.395-0.88 0.878-0.88c0.486 0 0.879 0.394 0.879 0.88s-0.393 0.878-0.879 0.878zM16.585 26.231c-0.482 0-0.878-0.392-0.878-0.877s0.395-0.88 0.878-0.88c0.486 0 0.879 0.394 0.879 0.88s-0.393 0.877-0.879 0.877zM16.585 23.289c-0.482 0-0.878-0.392-0.878-0.877s0.395-0.878 0.878-0.878c0.486 0 0.879 0.392 0.879 0.878s-0.393 0.877-0.879 0.877zM16.585 20.349c-0.482 0-0.878-0.394-0.878-0.88s0.395-0.878 0.878-0.878c0.486 0 0.879 0.392 0.879 0.878s-0.393 0.88-0.879 0.88zM16.585 17.406c-0.482 0-0.878-0.391-0.878-0.876s0.395-0.88 0.878-0.88c0.486 0 0.879 0.394 0.879 0.88s-0.393 0.876-0.879 0.876zM16.585 14.465c-0.482 0-0.878-0.392-0.878-0.877s0.395-0.878 0.878-0.878c0.486 0 0.879 0.392 0.879 0.878s-0.393 0.877-0.879 0.877zM16.585 11.523c-0.482 0-0.878-0.392-0.878-0.877s0.395-0.878 0.878-0.878c0.486 0 0.879 0.392 0.879 0.878s-0.393 0.877-0.879 0.877zM16.585 8.581c-0.482 0-0.878-0.392-0.878-0.878s0.395-0.877 0.878-0.877c0.486 0 0.879 0.392 0.879 0.877s-0.393 0.878-0.879 0.878zM19.514 29.173c-0.486 0-0.878-0.392-0.878-0.878s0.391-0.88 0.878-0.88c0.484 0 0.879 0.394 0.879 0.88s-0.395 0.878-0.879 0.878zM19.514 26.231c-0.486 0-0.878-0.392-0.878-0.877s0.391-0.88 0.878-0.88c0.484 0 0.879 0.394 0.879 0.88s-0.395 0.877-0.879 0.877zM19.514 23.289c-0.486 0-0.878-0.392-0.878-0.877s0.391-0.878 0.878-0.878c0.484 0 0.879 0.392 0.879 0.878s-0.395 0.877-0.879 0.877zM19.514 20.349c-0.486 0-0.878-0.394-0.878-0.88s0.391-0.878 0.878-0.878c0.484 0 0.879 0.392 0.879 0.878s-0.395 0.88-0.879 0.88zM19.514 17.406c-0.486 0-0.878-0.391-0.878-0.876s0.391-0.88 0.878-0.88c0.484 0 0.879 0.394 0.879 0.88s-0.395 0.876-0.879 0.876zM19.514 14.465c-0.486 0-0.878-0.392-0.878-0.877s0.391-0.878 0.878-0.878c0.484 0 0.879 0.392 0.879 0.878s-0.395 0.877-0.879 0.877zM19.514 11.523c-0.486 0-0.878-0.392-0.878-0.877s0.391-0.878 0.878-0.878c0.484 0 0.879 0.392 0.879 0.878s-0.395 0.877-0.879 0.877zM19.514 8.581c-0.486 0-0.878-0.392-0.878-0.878s0.391-0.877 0.878-0.877c0.484 0 0.879 0.392 0.879 0.877s-0.395 0.878-0.879 0.878zM22.442 29.173c-0.486 0-0.879-0.392-0.879-0.878s0.393-0.88 0.879-0.88c0.482 0 0.878 0.394 0.878 0.88s-0.395 0.878-0.878 0.878zM22.442 26.231c-0.486 0-0.879-0.392-0.879-0.877s0.393-0.88 0.879-0.88c0.482 0 0.878 0.394 0.878 0.88s-0.395 0.877-0.878 0.877zM22.442 23.289c-0.486 0-0.879-0.392-0.879-0.877s0.393-0.878 0.879-0.878c0.482 0 0.878 0.392 0.878 0.878s-0.395 0.877-0.878 0.877zM22.442 20.349c-0.486 0-0.879-0.394-0.879-0.88s0.393-0.878 0.879-0.878c0.482 0 0.878 0.392 0.878 0.878s-0.395 0.88-0.878 0.88zM22.442 17.406c-0.486 0-0.879-0.391-0.879-0.876s0.393-0.88 0.879-0.88c0.482 0 0.878 0.394 0.878 0.88s-0.395 0.876-0.878 0.876zM22.442 14.465c-0.486 0-0.879-0.392-0.879-0.877s0.393-0.878 0.879-0.878c0.482 0 0.878 0.392 0.878 0.878s-0.395 0.877-0.878 0.877zM22.442 11.523c-0.486 0-0.879-0.392-0.879-0.877s0.393-0.878 0.879-0.878c0.482 0 0.878 0.392 0.878 0.878s-0.395 0.877-0.878 0.877zM22.442 8.581c-0.486 0-0.879-0.392-0.879-0.878s0.393-0.877 0.879-0.877c0.482 0 0.878 0.392 0.878 0.877s-0.395 0.878-0.878 0.878zM25.366 29.173c-0.484 0-0.877-0.392-0.877-0.878s0.393-0.88 0.877-0.88c0.484 0 0.879 0.394 0.879 0.88s-0.395 0.878-0.879 0.878zM25.366 26.231c-0.484 0-0.877-0.392-0.877-0.877s0.393-0.88 0.877-0.88c0.484 0 0.879 0.394 0.879 0.88s-0.395 0.877-0.879 0.877zM25.366 23.289c-0.484 0-0.877-0.392-0.877-0.877s0.393-0.878 0.877-0.878c0.484 0 0.879 0.392 0.879 0.878s-0.395 0.877-0.879 0.877zM25.366 20.349c-0.484 0-0.877-0.394-0.877-0.88s0.393-0.878 0.877-0.878c0.484 0 0.879 0.392 0.879 0.878s-0.395 0.88-0.879 0.88zM25.366 17.406c-0.484 0-0.877-0.391-0.877-0.876s0.393-0.88 0.877-0.88c0.484 0 0.879 0.394 0.879 0.88s-0.395 0.876-0.879 0.876zM25.366 14.465c-0.484 0-0.877-0.392-0.877-0.877s0.393-0.878 0.877-0.878c0.484 0 0.879 0.392 0.879 0.878s-0.395 0.877-0.879 0.877zM25.366 11.523c-0.484 0-0.877-0.392-0.877-0.877s0.393-0.878 0.877-0.878c0.484 0 0.879 0.392 0.879 0.878s-0.395 0.877-0.879 0.877zM25.366 8.581c-0.484 0-0.877-0.392-0.877-0.878s0.393-0.877 0.877-0.877c0.484 0 0.879 0.392 0.879 0.877s-0.395 0.878-0.879 0.878zM28.235 26.231c-0.484 0-0.877-0.392-0.877-0.877s0.393-0.88 0.877-0.88c0.486 0 0.88 0.394 0.88 0.88s-0.393 0.877-0.88 0.877zM28.235 23.289c-0.484 0-0.877-0.392-0.877-0.877s0.393-0.878 0.877-0.878c0.486 0 0.88 0.392 0.88 0.878s-0.393 0.877-0.88 0.877zM28.235 20.349c-0.484 0-0.877-0.394-0.877-0.88s0.393-0.878 0.877-0.878c0.486 0 0.88 0.392 0.88 0.878s-0.393 0.88-0.88 0.88zM28.235 17.406c-0.484 0-0.877-0.391-0.877-0.876s0.393-0.88 0.877-0.88c0.486 0 0.88 0.394 0.88 0.88s-0.393 0.876-0.88 0.876zM28.235 14.465c-0.484 0-0.877-0.392-0.877-0.877s0.393-0.878 0.877-0.878c0.486 0 0.88 0.392 0.88 0.878s-0.393 0.877-0.88 0.877zM28.235 11.523c-0.484 0-0.877-0.392-0.877-0.877s0.393-0.878 0.877-0.878c0.486 0 0.88 0.392 0.88 0.878s-0.393 0.877-0.88 0.877z"></path>
</svg>
