<?xml version="1.0" encoding="utf-8"?>
<!-- Generated by IcoMoon.io -->
<!DOCTYPE svg PUBLIC "-//W3C//DTD SVG 1.1//EN" "http://www.w3.org/Graphics/SVG/1.1/DTD/svg11.dtd">
<svg version="1.1" xmlns="http://www.w3.org/2000/svg" xmlns:xlink="http://www.w3.org/1999/xlink" width="36" height="36" viewBox="0 0 36 36">
<path fill="#444" d="M18.049 0.606c-9.64-0.010-17.476 7.748-17.486 17.312-0.011 9.662 7.754 17.467 17.388 17.476 9.612 0.010 17.463-7.731 17.487-17.245 0.024-9.713-7.727-17.534-17.388-17.543zM31.769 10.461c1.157 2.041 1.779 4.24 1.924 6.628-1.557 0-3.087 0-4.599 0-0.020-0.064-0.040-0.128-0.064-0.191-0.33-0.855-1.030-1.523-1.904-1.809-0.087-0.029-0.176-0.052-0.267-0.073-0.276-1.58-0.555-3.173-0.841-4.811 0.306 0 0.71 0 1.114 0 1.345 0 2.691-0.011 4.036 0.011 0.207 0.003 0.515 0.094 0.6 0.245zM21.835 2.842c2.691 0.326 6.878 3.028 8.612 5.627-1.734 0-3.36 0.006-4.986-0.012-0.131-0.001-0.325-0.144-0.38-0.269-0.839-1.912-1.96-3.647-3.244-5.285-0.010-0.013-0.002-0.041-0.002-0.061zM18.907 2.379c1.906 1.759 3.314 3.727 4.385 6.046-1.506 0-2.925 0-4.385 0 0-1.976 0-3.949 0-6.046zM18.899 10.207c1.647 0 3.253-0.007 4.858 0.013 0.126 0.001 0.305 0.158 0.368 0.287 0.392 0.807 0.839 2.889 1.054 4.602-0.045 0.015-0.091 0.029-0.135 0.047-0.787 0.313-1.413 0.943-1.721 1.733-0.025 0.064-0.045 0.128-0.065 0.193-1.444 0-2.893 0-4.358 0 0-2.276 0-4.52 0-6.875zM21.017 25.794c-0.007-0.037-0.014-0.073-0.021-0.11-0.217-1.023-0.944-1.855-1.904-2.222-0.062-0.024-0.125-0.043-0.189-0.063 0-1.499 0-2.987 0-4.49 1.444 0 2.879 0 4.352 0 0.020 0.064 0.040 0.128 0.064 0.19 0.306 0.793 0.93 1.427 1.718 1.743 0.043 0.017 0.088 0.031 0.132 0.046-0.063 0.497-0.133 0.991-0.225 1.48-0.191 1.014-0.499 2.008-0.787 3-0.049 0.166-0.26 0.404-0.401 0.407-0.91 0.015-1.822 0.018-2.739 0.018zM15.005 25.681c-0.008 0.036-0.014 0.074-0.021 0.11-0.93-0-1.859-0.002-2.786-0.015-0.117-0.002-0.29-0.188-0.337-0.324-0.724-2.095-1.114-4.253-1.209-6.551 2.185 0 4.294 0 6.443 0 0 1.502 0 2.992 0 4.498-0.064 0.020-0.128 0.039-0.19 0.063-0.957 0.367-1.683 1.197-1.9 2.218zM17.103 17.088c-2.14 0-4.248 0-6.507 0 0.149-1.162 0.246-2.316 0.459-3.449 0.089-0.471 0.203-0.938 0.329-1.403 0.007 0 0.014 0.001 0.022 0.001 0.052 0 0.103-0.005 0.155-0.008 1.177-0.059 2.179-0.781 2.638-1.802 0.033-0.072 0.061-0.145 0.088-0.22 0.929-0.003 1.864-0 2.816-0 0 2.349 0 4.594 0 6.881zM17.102 2.379c0 2.072 0 4.026 0 6.037-0.9 0-1.804 0-2.729 0-0.013-0.053-0.027-0.107-0.044-0.159-0.146-0.467-0.401-0.885-0.736-1.226-0.037-0.038-0.076-0.072-0.115-0.108 0.956-1.685 2.131-3.187 3.623-4.544zM14.241 2.754c-0.646 0.922-1.266 1.722-1.791 2.579-0.167 0.273-0.323 0.553-0.475 0.836-0.065-0.012-0.13-0.025-0.196-0.032-0.122-0.015-0.246-0.025-0.373-0.025-1.395 0-2.57 0.934-2.94 2.21-0.015 0.049-0.027 0.1-0.038 0.15-0.946 0.002-1.917-0.001-2.945-0.001 2.368-2.932 5.184-4.806 8.759-5.716zM3.561 11.775c0.677-1.575 0.688-1.57 2.371-1.57 0.868 0 1.736 0 2.592 0 0.026 0.073 0.055 0.146 0.086 0.216 0.199 0.444 0.499 0.833 0.873 1.135 0.074 0.060 0.152 0.116 0.232 0.169-0.312 1.776-0.622 3.549-0.942 5.372-2.091 0-4.245 0-6.457 0 0.080-1.88 0.521-3.635 1.245-5.322zM4.157 25.416c-1.105-1.999-1.698-4.148-1.855-6.486 2.187 0 4.356 0 6.478 0 0.394 2.256 0.789 4.521 1.199 6.865-1.722 0-3.507 0.010-5.293-0.015-0.182-0.004-0.434-0.192-0.529-0.363zM5.493 27.533c1.806 0 3.45-0.005 5.095 0.011 0.112 0.001 0.261 0.143 0.327 0.258 1.044 1.804 2.077 3.615 3.085 5.376-3.343-0.843-6.16-2.719-8.506-5.645zM12.7 27.575c0.857 0 1.684 0 2.508 0 0.041 0.090 0.084 0.179 0.133 0.264 0.351 0.614 0.909 1.094 1.58 1.346 0.061 0.023 0.124 0.042 0.187 0.062 0 1.438 0 2.876 0 4.38-1.923-1.746-3.318-3.731-4.409-6.052zM18.891 33.64c0-1.516 0-2.956 0-4.393 0.063-0.020 0.126-0.039 0.187-0.062 0.67-0.252 1.227-0.73 1.579-1.344 0.049-0.085 0.093-0.174 0.133-0.264 0.811 0 1.633 0 2.488 0-1.030 2.306-2.463 4.265-4.387 6.062zM21.959 33.133c0.876-1.44 1.893-2.891 2.663-4.463 0.45-0.918 0.925-1.243 1.921-1.165 1.251 0.098 2.515 0.024 3.849 0.024-1.248 2.316-6.042 5.431-8.433 5.604zM32.43 24.238c-0.673 1.558-0.675 1.557-2.378 1.557-1.367 0-2.733 0-4.137 0 0.276-1.214 0.572-2.32 0.769-3.442 0.079-0.455 0.143-0.912 0.199-1.375 0.078-0.019 0.156-0.040 0.231-0.064 0.879-0.283 1.583-0.954 1.915-1.81 0.024-0.063 0.044-0.127 0.065-0.192 1.519 0 3.044 0 4.595 0-0.098 1.879-0.528 3.636-1.259 5.325z"></path>
</svg>
