<?xml version="1.0" encoding="utf-8"?>
<!-- Generated by IcoMoon.io -->
<!DOCTYPE svg PUBLIC "-//W3C//DTD SVG 1.1//EN" "http://www.w3.org/Graphics/SVG/1.1/DTD/svg11.dtd">
<svg version="1.1" xmlns="http://www.w3.org/2000/svg" xmlns:xlink="http://www.w3.org/1999/xlink" width="36" height="36" viewBox="0 0 36 36">
<path fill="#444" d="M25.952 16.318c0.535 1.269 0.839 2.61 0.924 4.037h-3.651c-0.015-0.051-0.033-0.103-0.052-0.152-0.261-0.679-0.817-1.209-1.512-1.437-0.070-0.022-0.14-0.039-0.212-0.057-0.218-1.255-0.44-2.52-0.667-3.821h0.015c-0.282-0.411-0.468-0.891-0.537-1.406-0.093-0.035-0.189-0.118-0.223-0.195-0.666-1.519-1.558-2.897-2.577-4.197-0.009-0.011-0.001-0.033-0.001-0.050 0.809 0.099 1.789 0.467 2.77 1v-1.509c-1.756-0.811-3.71-1.265-5.777-1.267-7.657-0.008-13.881 6.155-13.889 13.751-0.008 7.675 6.158 13.872 13.81 13.88 7.634 0.008 13.871-6.141 13.889-13.697 0.004-1.718-0.301-3.361-0.858-4.878h-1.451zM8.533 20.354c0.118-0.922 0.194-1.84 0.364-2.739 0.071-0.374 0.161-0.746 0.26-1.114 0.006 0 0.011 0.001 0.018 0.001 0.041 0 0.082-0.004 0.123-0.008 0.935-0.046 1.732-0.619 2.095-1.431 0.027-0.057 0.050-0.115 0.071-0.174 0.737-0.003 1.481 0 2.237 0v5.465h-5.168zM13.694 21.794v3.573c-0.051 0.016-0.101 0.032-0.151 0.050-0.76 0.293-1.337 0.952-1.51 1.762-0.006 0.029-0.011 0.058-0.016 0.088-0.74 0-1.476-0.001-2.213-0.011-0.094-0.001-0.231-0.15-0.268-0.258-0.576-1.663-0.884-3.377-0.96-5.203h5.118zM13.699 8.671v4.796h-2.168c-0.010-0.043-0.022-0.085-0.034-0.127-0.115-0.372-0.32-0.703-0.585-0.974-0.029-0.029-0.061-0.057-0.090-0.085 0.759-1.337 1.693-2.531 2.878-3.61zM11.427 8.968c-0.514 0.733-1.006 1.369-1.422 2.049-0.133 0.217-0.258 0.439-0.378 0.665-0.051-0.011-0.103-0.020-0.156-0.027-0.096-0.013-0.195-0.020-0.296-0.020-1.108 0-2.041 0.741-2.336 1.756-0.010 0.039-0.020 0.080-0.029 0.118-0.752 0.003-1.523 0-2.341 0 1.882-2.329 4.12-3.818 6.958-4.541zM2.944 16.134c0.537-1.25 0.546-1.247 1.883-1.247h2.059c0.020 0.058 0.043 0.117 0.067 0.173 0.159 0.351 0.397 0.661 0.694 0.902 0.058 0.046 0.119 0.091 0.184 0.133-0.247 1.411-0.495 2.819-0.747 4.267h-5.129c0.063-1.493 0.415-2.886 0.99-4.227zM3.417 26.969c-0.877-1.587-1.35-3.295-1.473-5.152h5.145c0.313 1.793 0.625 3.591 0.952 5.452-1.368 0-2.785 0.010-4.203-0.011-0.145-0.004-0.345-0.153-0.42-0.288zM4.479 28.65c1.434 0 2.739-0.004 4.046 0.009 0.089 0 0.207 0.113 0.259 0.204 0.83 1.432 1.651 2.871 2.451 4.271-2.655-0.67-4.892-2.159-6.756-4.484zM13.704 33.489c-1.526-1.385-2.635-2.961-3.502-4.805h1.992c0.033 0.070 0.067 0.141 0.107 0.208 0.279 0.49 0.722 0.87 1.255 1.070 0.049 0.019 0.099 0.034 0.148 0.049v3.478zM15.133 8.671c1.514 1.398 2.631 2.961 3.483 4.803h-3.483v-4.803zM15.126 14.889c1.308 0 2.583-0.005 3.86 0.010 0.099 0.001 0.241 0.124 0.29 0.227 0.311 0.641 0.666 2.295 0.837 3.655-0.035 0.013-0.072 0.023-0.108 0.037-0.624 0.25-1.122 0.75-1.366 1.378-0.019 0.050-0.034 0.101-0.052 0.154h-3.461v-5.461zM20.106 23.373c-0.051 0.395-0.105 0.787-0.179 1.174-0.152 0.806-0.396 1.596-0.625 2.384-0.038 0.133-0.206 0.321-0.317 0.322-0.723 0.013-1.449 0.015-2.177 0.015-0.005-0.029-0.010-0.058-0.016-0.086-0.171-0.813-0.75-1.474-1.511-1.766-0.049-0.019-0.1-0.034-0.151-0.051v-3.565h3.456c0.016 0.051 0.033 0.101 0.052 0.151 0.242 0.631 0.738 1.134 1.364 1.385 0.034 0.013 0.070 0.024 0.105 0.037zM15.119 33.5v-3.489c0.051-0.015 0.101-0.030 0.15-0.049 0.532-0.199 0.974-0.58 1.253-1.067 0.039-0.067 0.074-0.138 0.107-0.208h1.977c-0.82 1.83-1.958 3.386-3.486 4.814zM17.556 33.098c0.697-1.144 1.505-2.296 2.115-3.545 0.357-0.73 0.736-0.988 1.525-0.925 0.995 0.077 1.998 0.018 3.058 0.018-0.99 1.84-4.8 4.315-6.698 4.452zM25.874 26.034c-0.535 1.237-0.537 1.237-1.889 1.237h-3.285c0.218-0.964 0.454-1.843 0.612-2.735 0.062-0.362 0.113-0.723 0.156-1.091 0.063-0.014 0.126-0.032 0.185-0.051 0.698-0.225 1.256-0.757 1.52-1.439 0.019-0.049 0.037-0.1 0.052-0.151h3.648c-0.076 1.492-0.417 2.888-0.999 4.23z"></path>
<path fill="#444" d="M33.227 1.107h-9.729c-1.22 0-2.21 0.99-2.21 2.21v9.729c0 1.222 0.99 2.211 2.21 2.211h9.729c1.222 0 2.21-0.99 2.21-2.211v-9.729c0-1.221-0.988-2.21-2.21-2.21zM32.458 8.015c-0.095 0.2-0.293 0.318-0.502 0.322h-1.857l0.001 3.303c-0.042 0.537-0.494 0.963-1.040 0.963h-1.568c-0.547 0-0.997-0.426-1.040-0.963v-3.303h-1.857c-0.208-0.004-0.407-0.122-0.504-0.322-0.107-0.221-0.056-0.478 0.108-0.643h-0.004l3.282-3.278c0.442-0.444 1.157-0.443 1.6 0l3.275 3.278c0.164 0.165 0.214 0.423 0.108 0.643z"></path>
</svg>
