<?xml version="1.0" encoding="utf-8"?>
<!-- Generated by IcoMoon.io -->
<!DOCTYPE svg PUBLIC "-//W3C//DTD SVG 1.1//EN" "http://www.w3.org/Graphics/SVG/1.1/DTD/svg11.dtd">
<svg version="1.1" xmlns="http://www.w3.org/2000/svg" xmlns:xlink="http://www.w3.org/1999/xlink" width="36" height="36" viewBox="0 0 36 36">
<path fill="#444" d="M14.384 10.409c-0.092-0.005-0.183-0.002-0.272 0.005-0.012 0.002-0.022 0.002-0.032 0.003-0.061 0.007-0.12 0.017-0.178 0.030-0.125 0.021-0.247 0.053-0.365 0.095l-9.583 2.315c-0.981 0.079-1.829 0.529-2.438 1.393-1.919 2.72-0.744 8.468 2.622 12.839 3.142 4.081 7.083 5.516 9.155 3.476-0.001 0.005-0.002 0.017-0.002 0.017l7.775-8.161c1.231-1.29 0.16-5.858-1.606-8.481-1.463-2.174-3.482-3.511-5.075-3.532zM12.146 28.097c-1.256 1.781-4.328 0.558-6.861-2.73s-3.566-7.398-2.311-9.178c1.257-1.781 4.328-0.558 6.86 2.73s3.567 7.397 2.311 9.178z"></path>
<path fill="#444" d="M34.875 7.085c-0.815-1.798-2.279-2.893-3.301-2.487l-0.003-0.009-12.8 5.531c0.845 0.513 1.688 1.322 2.383 2.355 1.218 1.81 2.072 3.959 2.215 6l11.302-7.326c0.887-0.571 0.991-2.33 0.205-4.064z"></path>
</svg>
