<?xml version="1.0" encoding="utf-8"?>
<!-- Generated by IcoMoon.io -->
<!DOCTYPE svg PUBLIC "-//W3C//DTD SVG 1.1//EN" "http://www.w3.org/Graphics/SVG/1.1/DTD/svg11.dtd">
<svg version="1.1" xmlns="http://www.w3.org/2000/svg" xmlns:xlink="http://www.w3.org/1999/xlink" width="36" height="36" viewBox="0 0 36 36">
<path fill="#444" d="M13.341 22.71c1.012 0 1.834-0.82 1.834-1.834 0-1.010-0.822-1.829-1.834-1.829s-1.832 0.82-1.832 1.829c0 1.014 0.82 1.834 1.832 1.834z"></path>
<path fill="#444" d="M18.005 29.862c1.291 0 2.608-0.211 3.893-0.66 6.178-2.146 9.454-8.924 7.299-15.101-1.701-4.892-6.304-7.964-11.213-7.964-1.291 0-2.603 0.211-3.891 0.66-6.175 2.15-9.454 8.93-7.301 15.11 1.703 4.884 6.304 7.955 11.213 7.955zM14.694 8.522c1.068-0.369 2.173-0.559 3.291-0.559 2.229 0 4.329 0.743 6.033 2.020-0.238-0.037-0.478-0.062-0.724-0.062-2.519 0-4.561 2.045-4.561 4.561s2.043 4.559 4.561 4.559c2.15 0 3.951-1.492 4.429-3.496 0.582 2.281 0.346 4.671-0.695 6.821-1.167 2.419-3.202 4.23-5.731 5.11-1.066 0.375-2.173 0.561-3.291 0.561-4.272 0-8.084-2.707-9.487-6.73-1.819-5.228 0.952-10.965 6.176-12.786z"></path>
<path fill="#444" d="M18.009 35.37c1.939 0 3.858-0.323 5.699-0.967 4.373-1.521 7.897-4.663 9.919-8.843s2.295-8.893 0.772-13.268c-2.43-6.976-9.027-11.662-16.42-11.662-1.937 0-3.853 0.325-5.697 0.966-9.040 3.15-13.835 13.071-10.691 22.115 2.432 6.974 9.029 11.658 16.418 11.658zM13.287 4.473c1.552-0.54 3.137-0.795 4.694-0.795 5.929 0 11.486 3.709 13.543 9.613 2.599 7.461-1.362 15.642-8.816 18.235-1.552 0.542-3.137 0.799-4.698 0.799-5.925 0-11.482-3.711-13.543-9.613-2.591-7.457 1.362-15.64 8.82-18.239z"></path>
</svg>
