<?xml version="1.0" encoding="utf-8"?>
<!-- Generated by IcoMoon.io -->
<!DOCTYPE svg PUBLIC "-//W3C//DTD SVG 1.1//EN" "http://www.w3.org/Graphics/SVG/1.1/DTD/svg11.dtd">
<svg version="1.1" xmlns="http://www.w3.org/2000/svg" xmlns:xlink="http://www.w3.org/1999/xlink" width="36" height="36" viewBox="0 0 36 36">
<path fill="#444" d="M27.944 5.506c-1.645-2.868-4.889-4.879-10.416-4.879h-8.437c-1.348 0-2.436 1.095-2.436 2.438v29.866c0 1.346 1.088 2.441 2.436 2.441s2.436-1.095 2.436-2.441v-11.001h6.001c8.796 0 11.818-5.086 11.818-10.674 0-2.060-0.42-4.057-1.402-5.751zM17.665 17.352h-6.139v-12.142h6.139c0.928 0 1.684 0.123 2.372 0.297 3.352 0.84 4.083 3.47 4.083 5.751 0 2.75-1.007 6.095-6.456 6.095z"></path>
</svg>
