<?xml version="1.0" encoding="utf-8"?>
<!-- Generated by IcoMoon.io -->
<!DOCTYPE svg PUBLIC "-//W3C//DTD SVG 1.1//EN" "http://www.w3.org/Graphics/SVG/1.1/DTD/svg11.dtd">
<svg version="1.1" xmlns="http://www.w3.org/2000/svg" xmlns:xlink="http://www.w3.org/1999/xlink" width="36" height="36" viewBox="0 0 36 36">
<path fill="#444" d="M18.651 6.355c-5.325 0-8.318 4.499-8.318 10.773v0.732c0 6.346 1.972 11.81 7.343 11.81 0.043 0 11.377 0.028 11.377 0.028 1.631 0 2.949 1.223 2.949 2.852 0 1.628-1.238 2.823-2.869 2.823 0 0-10.928-0.015-11.046-0.015-10.247 0-14.090-8.051-14.090-17.499v-0.721c0-9.386 3.903-16.511 14.099-16.511 0.099 0 10.919 0.025 10.919 0.025 1.629 0 2.947 1.225 2.947 2.851 0 1.628-1.318 2.852-2.947 2.852h-10.365z"></path>
</svg>
