<?xml version="1.0" encoding="utf-8"?>
<!-- Generated by IcoMoon.io -->
<!DOCTYPE svg PUBLIC "-//W3C//DTD SVG 1.1//EN" "http://www.w3.org/Graphics/SVG/1.1/DTD/svg11.dtd">
<svg version="1.1" xmlns="http://www.w3.org/2000/svg" xmlns:xlink="http://www.w3.org/1999/xlink" width="36" height="36" viewBox="0 0 36 36">
<path fill="#444" d="M16.574 35.354v0.019h-7.463c-1.724 0-3.117-1.397-3.117-3.119 0-1.718 1.393-3.112 3.117-3.112l7.38-0.004c0.029 0 0.056 0.004 0.085 0.004 5.325 0 6.867-0.669 6.867-3.566s-1.589-3.644-5.793-4.158c-8.551-1.074-11.726-3.692-11.726-9.998 0-4.344 2.053-10.792 12.425-10.792 0.029 0 0.058 0.002 0.091 0.002v0.016h7.252c1.722 0 3.113 1.397 3.113 3.115 0 1.72-1.391 3.113-3.113 3.113h-7.374v-0.031c-4.828 0.010-5.855 2.246-5.855 4.624 0 2.85 2.198 3.224 6.211 3.739 7.523 0.979 11.401 3.315 11.401 10.37 0 5.538-3.086 9.758-13.502 9.778z"></path>
</svg>
