<?xml version="1.0" encoding="utf-8"?>
<!-- Generated by IcoMoon.io -->
<!DOCTYPE svg PUBLIC "-//W3C//DTD SVG 1.1//EN" "http://www.w3.org/Graphics/SVG/1.1/DTD/svg11.dtd">
<svg version="1.1" xmlns="http://www.w3.org/2000/svg" xmlns:xlink="http://www.w3.org/1999/xlink" width="36" height="36" viewBox="0 0 36 36">
<path fill="#444" d="M19.744 11.417c-3.636 0-6.583 2.946-6.583 6.583s2.947 6.583 6.583 6.583c3.635 0 6.583-2.947 6.583-6.583s-2.948-6.583-6.583-6.583zM19.744 20.398c-1.324 0-2.398-1.073-2.398-2.398s1.074-2.398 2.398-2.398 2.398 1.073 2.398 2.398c0 1.325-1.073 2.398-2.398 2.398z"></path>
<path fill="#444" d="M19.628 2.307v-1.744h-16.941c-1.169 0-2.124 0.956-2.124 2.125v30.626c0 1.168 0.956 2.124 2.124 2.124h16.941v-1.743c8.835 0 15.694-7.026 15.694-15.694s-6.859-15.694-15.694-15.694zM19.628 30.904v-4.215c-4.65 0-8.688-3.888-8.688-8.689 0-4.799 4.038-8.689 8.688-8.689v-4.215c7.44 0 12.904 5.777 12.904 12.904s-5.464 12.904-12.904 12.904z"></path>
</svg>
