<?xml version="1.0" encoding="utf-8"?>
<!-- Generated by IcoMoon.io -->
<!DOCTYPE svg PUBLIC "-//W3C//DTD SVG 1.1//EN" "http://www.w3.org/Graphics/SVG/1.1/DTD/svg11.dtd">
<svg version="1.1" xmlns="http://www.w3.org/2000/svg" xmlns:xlink="http://www.w3.org/1999/xlink" width="36" height="36" viewBox="0 0 36 36">
<path fill="#444" d="M18 0.627c-5.495 0-9.951 4.435-9.951 9.901 0 3.613 3.331 6.972 3.331 6.972 0.834 0.841 1.516 1.817 1.516 3.003v0.14c0 1.186 0.966 2.156 2.152 2.156h5.909c1.183 0 2.152-0.97 2.152-2.156v-0.14c0-1.186 0.682-2.162 1.514-3.003 0 0 3.329-3.358 3.329-6.972 0-5.466-4.454-9.901-9.951-9.901zM17.655 4.699c-1.437 0-2.727 0.579-3.666 1.518-0.941 0.939-1.516 2.229-1.516 3.661 0 0.433-0.351 0.786-0.784 0.786s-0.784-0.353-0.784-0.786c0-3.724 3.019-6.744 6.75-6.744 0.431 0 0.78 0.347 0.78 0.78s-0.347 0.784-0.78 0.784z"></path>
<path fill="#444" d="M23.056 25.553c0 0.642-0.56 1.163-1.251 1.163h-7.609c-0.69 0-1.25-0.521-1.25-1.163 0-0.646 0.56-1.165 1.25-1.165h7.609c0.69 0 1.251 0.519 1.251 1.165z"></path>
<path fill="#444" d="M23.056 29.367c0 0.642-0.56 1.165-1.251 1.165h-7.609c-0.69 0-1.25-0.523-1.25-1.165s0.56-1.165 1.25-1.165h7.609c0.69-0 1.251 0.523 1.251 1.165z"></path>
<path fill="#444" d="M14.054 32.006h7.892c0 0-0.374 3.367-3.956 3.367-3.578 0-3.935-3.367-3.935-3.367z"></path>
</svg>
