<?xml version="1.0" encoding="utf-8"?>
<!-- Generated by IcoMoon.io -->
<!DOCTYPE svg PUBLIC "-//W3C//DTD SVG 1.1//EN" "http://www.w3.org/Graphics/SVG/1.1/DTD/svg11.dtd">
<svg version="1.1" xmlns="http://www.w3.org/2000/svg" xmlns:xlink="http://www.w3.org/1999/xlink" width="36" height="36" viewBox="0 0 36 36">
<path fill="#444" d="M28.194 7.248l-0.647-0.1-0.115-0.646c-0.435-2.432-2.546-4.198-5.016-4.198-0.841 0-1.647 0.202-2.387 0.596l-0.647 0.344-0.479-0.554c-1.172-1.35-2.867-2.128-4.65-2.128-3.343 0-6.041 2.616-6.148 5.957l-0.021 0.671-0.651 0.183c-2.194 0.613-3.726 2.632-3.726 4.907 0 2.603 1.95 4.782 4.534 5.067l0.302 0.033h18.859c2.812 0 5.102-2.287 5.102-5.1 0-2.525-1.814-4.642-4.31-5.033z"></path>
<path fill="#444" d="M19.011 24.158c-0.28 0.245-0.205 0.443 0.167 0.443h1.716c0.372 0 0.54 0.272 0.372 0.605l-2.461 4.883c-0.167 0.331-0.075 0.403 0.205 0.158l8.162-7.136c0.281-0.245 0.205-0.445-0.167-0.445h-1.716c-0.372 0-0.539-0.272-0.372-0.603l0.818-1.624h-2.471l-4.254 3.719z"></path>
<path fill="#444" d="M3.936 25.925c-0.428 0.374-0.313 0.678 0.254 0.678h2.619c0.568 0 0.823 0.415 0.568 0.923l-3.754 7.448c-0.255 0.506-0.115 0.615 0.313 0.241l12.452-10.886c0.428-0.373 0.313-0.678-0.255-0.678h-2.618c-0.567 0-0.821-0.415-0.567-0.921l1.154-2.29h-3.891l-6.275 5.485z"></path>
</svg>
