<?xml version="1.0" encoding="utf-8"?>
<!-- Generated by IcoMoon.io -->
<!DOCTYPE svg PUBLIC "-//W3C//DTD SVG 1.1//EN" "http://www.w3.org/Graphics/SVG/1.1/DTD/svg11.dtd">
<svg version="1.1" xmlns="http://www.w3.org/2000/svg" xmlns:xlink="http://www.w3.org/1999/xlink" width="36" height="36" viewBox="0 0 36 36">
<path fill="#444" d="M13.72 27.106l-3.169 3.17c-0.514 0.513-1.351 0.513-1.866 0l-2.961-2.961c-0.514-0.514-0.514-1.352 0.001-1.868l10.545-10.542c0.513-0.516 1.351-0.516 1.865-0.001l2.382 2.383 3.377-3.38-2.382-2.382c-0.265-0.265-0.551-0.495-0.849-0.701-0.075-0.051-0.15-0.102-0.229-0.15-0.077-0.048-0.157-0.094-0.236-0.14-0.086-0.048-0.173-0.097-0.26-0.142-0.070-0.034-0.138-0.063-0.207-0.094-0.101-0.046-0.201-0.093-0.304-0.134-0.031-0.012-0.065-0.021-0.097-0.032-0.271-0.101-0.548-0.184-0.831-0.245-0.022-0.005-0.042-0.011-0.066-0.016-0.113-0.024-0.229-0.038-0.343-0.056-0.068-0.010-0.137-0.022-0.204-0.030-0.104-0.011-0.207-0.017-0.312-0.024-0.081-0.006-0.163-0.011-0.242-0.012-0.099-0.003-0.198-0.001-0.297 0.001-1.505 0.041-3 0.629-4.145 1.777l-10.545 10.545c-2.377 2.376-2.377 6.244 0.001 8.62l2.96 2.962c1.15 1.151 2.681 1.784 4.311 1.784 1.631 0 3.162-0.634 4.312-1.784l5.008-5.006c-1.824 0.087-3.671-0.426-5.217-1.541z"></path>
<path fill="#444" d="M30.693 2.347c-1.151-1.152-2.682-1.784-4.311-1.784-1.631 0-3.162 0.632-4.313 1.783l-5.267 5.269c1.823-0.088 3.669 0.426 5.215 1.541l3.432-3.431c0.25-0.248 0.58-0.386 0.933-0.386 0.352 0 0.685 0.138 0.932 0.385l2.961 2.961c0.514 0.514 0.514 1.352 0 1.868l-10.807 10.806c-0.247 0.249-0.58 0.386-0.932 0.386-0.353-0.001-0.685-0.138-0.933-0.386l-2.381-2.382-3.379 3.379 2.38 2.381c2.378 2.378 6.247 2.378 8.624 0l10.807-10.806c2.377-2.378 2.377-6.247 0-8.622l-2.961-2.96z"></path>
</svg>
