<?xml version="1.0" encoding="utf-8"?>
<!-- Generated by IcoMoon.io -->
<!DOCTYPE svg PUBLIC "-//W3C//DTD SVG 1.1//EN" "http://www.w3.org/Graphics/SVG/1.1/DTD/svg11.dtd">
<svg version="1.1" xmlns="http://www.w3.org/2000/svg" xmlns:xlink="http://www.w3.org/1999/xlink" width="36" height="36" viewBox="0 0 36 36">
<path fill="#444" d="M35.438 18.672c0 1.561-1.030 3.281-2.592 3.281h-29.22c-1.561 0-3.063-1.719-3.063-3.281v-1.414c0-1.561 1.502-2.746 3.063-2.746h29.22c1.562 0 2.592 1.185 2.592 2.746v1.414z"></path>
<path fill="#444" d="M26.603 26.213c0 0.52-0.305 1.32-0.826 1.32h-9.897c-0.52 0-1.367-0.8-1.367-1.32v-0.943c0-0.52 0.846-0.528 1.367-0.528h9.897c0.521 0 0.826 0.008 0.826 0.528v0.943z"></path>
<path fill="#444" d="M11.723 26.213c0 0.52-0.035 1.32-0.556 1.32h-6.598c-0.52 0-1.216-0.8-1.216-1.32v-0.943c0-0.52 0.696-0.528 1.216-0.528h6.598c0.521 0 0.556 0.008 0.556 0.528v0.943z"></path>
<path fill="#444" d="M33.112 26.213c0 0.52-0.218 1.32-0.738 1.32h-1.885c-0.52 0-1.096-0.8-1.096-1.32v-0.943c0-0.52 0.576-0.528 1.096-0.528h1.885c0.521 0 0.738 0.008 0.738 0.528v0.943z"></path>
<path fill="#444" d="M33.112 31.868c0 0.52-0.218 1.244-0.738 1.244h-9.897c-0.52 0-0.99-0.724-0.99-1.244v-0.943c0-0.52 0.47-0.603 0.99-0.603h9.897c0.521 0 0.738 0.083 0.738 0.603v0.943z"></path>
<path fill="#444" d="M11.723 31.868c0 0.52-0.035 1.244-0.556 1.244h-6.598c-0.52 0-1.216-0.724-1.216-1.244v-0.943c0-0.52 0.696-0.603 1.216-0.603h6.598c0.521 0 0.556 0.083 0.556 0.603v0.943z"></path>
<path fill="#444" d="M18.698 31.868c0 0.52-0.412 1.244-0.933 1.244h-1.885c-0.52 0-1.367-0.724-1.367-1.244v-0.943c0-0.52 0.846-0.603 1.367-0.603h1.885c0.521 0 0.933 0.083 0.933 0.603v0.943z"></path>
<path fill="#444" d="M3.353 9.718c0-0.52 0.696-0.785 1.216-0.785h9.897c0.521 0 0.512 0.265 0.512 0.785v0.943c0 0.52 0.009 1.062-0.512 1.062h-9.897c-0.52 0-1.216-0.542-1.216-1.062v-0.943z"></path>
<path fill="#444" d="M24.742 9.718c0-0.52 0.513-0.785 1.034-0.785h6.598c0.521 0 0.738 0.265 0.738 0.785v0.943c0 0.52-0.218 1.062-0.738 1.062h-6.598c-0.52 0-1.034-0.542-1.034-1.062v-0.943z"></path>
<path fill="#444" d="M17.767 9.718c0-0.52 0.89-0.785 1.411-0.785h1.885c0.521 0 0.889 0.265 0.889 0.785v0.943c0 0.52-0.368 1.062-0.889 1.062h-1.885c-0.52 0-1.411-0.542-1.411-1.062v-0.943z"></path>
<path fill="#444" d="M21.488 4.063c0-0.52 0.47-0.71 0.99-0.71h9.897c0.521 0 0.738 0.19 0.738 0.71v0.943c0 0.52-0.218 1.137-0.738 1.137h-9.897c-0.52 0-0.99-0.617-0.99-1.137v-0.943z"></path>
<path fill="#444" d="M18.698 5.2c0 0.521-0.584 0.943-1.304 0.943h-6.227c-0.72 0-1.304-0.422-1.304-0.943v-0.905c0-0.521 0.584-0.943 1.304-0.943h6.227c0.72 0 1.304 0.422 1.304 0.943v0.905z"></path>
<path fill="#444" d="M3.353 4.063c0-0.52 0.696-0.71 1.216-0.71h1.885c0.521 0 0.619 0.19 0.619 0.71v0.943c0 0.52-0.098 1.137-0.619 1.137h-1.885c-0.52 0-1.216-0.617-1.216-1.137v-0.943z"></path>
</svg>
