<?xml version="1.0" encoding="utf-8"?>
<!-- Generated by IcoMoon.io -->
<!DOCTYPE svg PUBLIC "-//W3C//DTD SVG 1.1//EN" "http://www.w3.org/Graphics/SVG/1.1/DTD/svg11.dtd">
<svg version="1.1" xmlns="http://www.w3.org/2000/svg" xmlns:xlink="http://www.w3.org/1999/xlink" width="36" height="36" viewBox="0 0 36 36">
<path fill="#444" d="M31.097 2.024h-26.193c-2.515 0-4.574 2.059-4.574 4.578v15.852c0 2.519 2.059 4.578 4.574 4.578h14.165l7.677 6.948-0.994-6.683 5.345-0.265c2.515 0 4.574-2.059 4.574-4.578v-15.852c0-2.519-2.059-4.578-4.574-4.578zM10.808 19.068h-6.223v-9.021h2.062v7.252h4.16v1.769zM14.292 19.068h-2.073v-9.021h2.073v9.021zM20.639 19.068h-2.172l-2.982-9.025h2.147l1.334 4.341c0.304 0.994 0.619 2.657 0.619 2.657h0.025c0 0 0.315-1.663 0.605-2.657l1.323-4.341h2.087l-2.986 9.025zM31.666 19.068h-6.853v-9.021h6.768v1.723h-4.705v1.797h4.075v1.638h-4.075v2.098h4.79v1.765z"></path>
</svg>
