<?xml version="1.0" encoding="utf-8"?>
<!-- Generated by IcoMoon.io -->
<!DOCTYPE svg PUBLIC "-//W3C//DTD SVG 1.1//EN" "http://www.w3.org/Graphics/SVG/1.1/DTD/svg11.dtd">
<svg version="1.1" xmlns="http://www.w3.org/2000/svg" xmlns:xlink="http://www.w3.org/1999/xlink" width="36" height="36" viewBox="0 0 36 36">
<path fill="#444" d="M8.315 15.545c0-2.154-0.142-4.186 0.029-6.191 0.4-4.693 4.293-8.482 8.828-8.77 4.977-0.317 9.314 2.794 10.287 7.602 0.359 1.779 0.233 3.657 0.314 5.491 0.026 0.589 0.003 1.182 0.003 1.868 0.839 0 1.608-0.006 2.378 0.001 0.994 0.011 1.382 0.383 1.382 1.35 0.004 5.73 0.004 11.459 0 17.188 0 1.002-0.356 1.352-1.353 1.352-8.114 0.002-16.228 0.002-24.342 0.001-1.038-0.001-1.38-0.346-1.38-1.405-0.002-5.678-0.002-11.355 0-17.033 0-1.082 0.363-1.445 1.439-1.452 0.745-0.006 1.491-0.002 2.414-0.002zM12.27 15.443c3.87 0 7.816 0 11.806 0 0-2.325 0.061-3.647-0.013-5.453-0.118-2.883-2.538-5.346-5.334-5.548-3.118-0.226-5.991 1.685-6.403 4.643-0.29 2.074-0.056 4.033-0.056 6.358z"></path>
</svg>
