<?xml version="1.0" encoding="utf-8"?>
<!-- Generated by IcoMoon.io -->
<!DOCTYPE svg PUBLIC "-//W3C//DTD SVG 1.1//EN" "http://www.w3.org/Graphics/SVG/1.1/DTD/svg11.dtd">
<svg version="1.1" xmlns="http://www.w3.org/2000/svg" xmlns:xlink="http://www.w3.org/1999/xlink" width="36" height="36" viewBox="0 0 36 36">
<path fill="#444" d="M29.72 15.208h-1.7v-4.977c0-5.296-4.469-9.603-9.962-9.603-5.491 0-9.958 4.307-9.958 9.603v4.977h-1.821c-0.956 0-1.738 0.78-1.738 1.738v16.687c0 0.956 0.782 1.74 1.738 1.74h23.441c0.958 0 1.74-0.784 1.74-1.74v-16.687c0-0.958-0.782-1.738-1.74-1.738zM19.152 30.504v1.002c0 0.5-0.394 0.904-0.892 0.904-0.502 0-0.896-0.404-0.896-0.904v-0.941h-1.19c-0.5 0-0.902-0.392-0.902-0.892s0.402-0.892 0.902-0.892h2.169c1.549 0 1.98-0.222 1.98-1.064s-0.479-1.085-1.698-1.234c-2.484-0.313-3.438-1.072-3.438-2.905 0-1.219 0.751-3.003 3.252-3.123v-0.97c0-0.498 0.39-0.902 0.892-0.902 0.498 0 0.892 0.404 0.892 0.902v1.091h0.769c0.502 0 0.906 0.392 0.906 0.892s-0.404 0.892-0.906 0.892l-2.196 0.041c-1.431 0.002-1.663 0.502-1.663 1.19 0 0.829 0.676 0.939 1.846 1.087 2.184 0.286 3.332 0.966 3.332 3.015 0 1.472-0.662 2.621-3.158 2.812zM24.004 15.208h-11.891v-4.977c0-3.082 2.667-5.587 5.943-5.587 3.279 0 5.947 2.505 5.947 5.587v4.977z"></path>
</svg>
