<?xml version="1.0" encoding="utf-8"?>
<!-- Generated by IcoMoon.io -->
<!DOCTYPE svg PUBLIC "-//W3C//DTD SVG 1.1//EN" "http://www.w3.org/Graphics/SVG/1.1/DTD/svg11.dtd">
<svg version="1.1" xmlns="http://www.w3.org/2000/svg" xmlns:xlink="http://www.w3.org/1999/xlink" width="36" height="36" viewBox="0 0 36 36">
<path fill="#444" d="M29.152 6.706h-21.931c0.039 0.004 0.083 0.014 0.122 0.023-0.162-0.012-0.327-0.023-0.493-0.023-3.434 0-6.22 2.785-6.223 6.22v15.29c0 0.593 0.483 1.078 1.075 1.078h32.594c0.595 0 1.075-0.485 1.075-1.078v-15.288c0-3.436-2.787-6.222-6.22-6.222zM10.924 27.141h-8.143v-14.215c0-2.244 1.826-4.072 4.070-4.072 2.246 0 4.074 1.828 4.074 4.074v14.213zM31.11 22.477c0 0.79-0.642 1.434-1.434 1.434s-1.434-0.645-1.434-1.434v-3.518h-10.622c-0.792 0-1.434-0.645-1.434-1.434 0-0.792 0.642-1.436 1.434-1.436h12.056c0.792 0 1.434 0.644 1.434 1.436v4.952z"></path>
</svg>
