<?xml version="1.0" encoding="utf-8"?>
<!-- Generated by IcoMoon.io -->
<!DOCTYPE svg PUBLIC "-//W3C//DTD SVG 1.1//EN" "http://www.w3.org/Graphics/SVG/1.1/DTD/svg11.dtd">
<svg version="1.1" xmlns="http://www.w3.org/2000/svg" xmlns:xlink="http://www.w3.org/1999/xlink" width="36" height="36" viewBox="0 0 36 36">
<path fill="#444" d="M34.237 15.611l-8.048 4.009v-3.307c0-0.696-0.51-1.013-1.136-0.702l-8.048 4.009v-3.307c0-0.696-0.506-1.003-1.121-0.68l-8.066 4.231-0.547-11.684c-0.031-0.696-0.622-1.264-1.322-1.264h-2.843c-0.696 0-1.293 0.568-1.322 1.264l-1.156 25.927c-0.031 0.696 0.514 1.264 1.21 1.264h32.268c0.694 0 1.266-0.57 1.266-1.266v-17.793c0-0.696-0.51-1.013-1.135-0.702z"></path>
<path fill="#444" d="M4.549 5.613c2.922-7.919 10.070-1.013 13.762-4.847 0.211-0.22 0.338-0.176 0.286 0.12-0.663 3.75-4.764 3.811-7.938 3.624-2.020-0.12-4.109 0.193-5.899 1.164-0.066 0.037-0.331 0.261-0.211-0.062z"></path>
</svg>
