<?xml version="1.0" encoding="utf-8"?>
<!-- Generated by IcoMoon.io -->
<!DOCTYPE svg PUBLIC "-//W3C//DTD SVG 1.1//EN" "http://www.w3.org/Graphics/SVG/1.1/DTD/svg11.dtd">
<svg version="1.1" xmlns="http://www.w3.org/2000/svg" xmlns:xlink="http://www.w3.org/1999/xlink" width="36" height="36" viewBox="0 0 36 36">
<path fill="#444" d="M12.968 31.821v3.552h16.962c1.616 0 2.806-1.082 2.806-2.701v-4.849h-15.584c-0.499 1.799-2.026 3.5-4.184 3.998z"></path>
<path fill="#444" d="M10.812 21.084v-14.825h-4.285c-1.616 0-3.265 1.396-3.265 3.012v16.396h3.153c0.345-2.517 1.88-4.238 4.397-4.583z"></path>
<path fill="#444" d="M26.121 20.923l-1.644 2-1.636-2c-0.932-1.123-5.595-6.815-6.667-9.282-0.583-1.235-0.87-2.598-0.87-3.966 0-0.469 0.041-1.059 0.107-1.419h-2.444v14.943c2.156 0.544 3.983 2.311 4.3 4.467h15.47v-14.021c-1.080 2.469-5.685 8.156-6.617 9.278z"></path>
<path fill="#444" d="M5.062 35.070c0.444 0.21 0.945 0.302 1.464 0.302h4.285v-3.436c-0.718-0.107-1.318-0.377-1.927-0.746l-3.822 3.88z"></path>
<path fill="#444" d="M6.529 27.823h-3.265v4.851c0 0.302 0.141 0.585 0.234 0.849l3.848-3.811c-0.392-0.546-0.643-1.17-0.817-1.888z"></path>
<path fill="#444" d="M15.174 26.511c0-1.837-1.494-3.333-3.335-3.333-1.837 0-3.331 1.496-3.331 3.333s1.494 3.331 3.331 3.331c1.841-0 3.335-1.494 3.335-3.331z"></path>
<path fill="#444" d="M18.059 10.754c0.962 2.272 6.418 8.703 6.418 8.703s5.453-6.371 6.418-8.885h-0.002c0.441-0.72 0.686-1.858 0.686-2.945 0-0.185-0.011-0.343-0.026-0.519-0.274-3.644-3.314-6.48-7.031-6.48-3.415 0-6.264 2.394-6.915 5.629h-0.004c-0.088 0.36-0.322 0.978-0.322 1.447v0.015c0 1.087 0.339 2.116 0.778 3.035zM24.522 3.375c2.039 0 3.764 1.295 4.427 3.104 0.105 0.36 0.186 0.649 0.232 0.937 0.002 0.019 0.006 0.036 0.009 0.056 0.009 0.053 0.017 0.109 0.021 0.165 0.015 0.146 0.024 0.296 0.024 0.444-0.004 2.598-2.112 4.711-4.712 4.711s-4.705-2.116-4.709-4.714c0-0.148 0.009-0.3 0.021-0.448 0.004-0.047 0.013-0.094 0.019-0.139 0.002-0.028 0.009-0.058 0.013-0.088 0.049-0.283 0.129-0.568 0.234-0.926 0.658-1.809 2.386-3.102 4.422-3.102z"></path>
</svg>
