<?xml version="1.0" encoding="utf-8"?>
<!-- Generated by IcoMoon.io -->
<!DOCTYPE svg PUBLIC "-//W3C//DTD SVG 1.1//EN" "http://www.w3.org/Graphics/SVG/1.1/DTD/svg11.dtd">
<svg version="1.1" xmlns="http://www.w3.org/2000/svg" xmlns:xlink="http://www.w3.org/1999/xlink" width="36" height="36" viewBox="0 0 36 36">
<path fill="#444" d="M32.809 0.568l-10.766 0.002c-0.539 0.002-1.044 0.339-1.234 0.879-0.172 0.486-0.039 1.006 0.298 1.353l3.051 3.052-3.612 3.612c-0.010 0.007-0.020 0.016-0.031 0.025l-14.664 14.663-3.048-3.048c-0.346-0.336-0.866-0.468-1.353-0.297-0.539 0.19-0.876 0.693-0.88 1.234l-0.006-0.004-0.002 10.762c0 1.454 1.176 2.631 2.629 2.631l10.766-0.004c0.54-0.002 1.044-0.339 1.235-0.878 0.171-0.488 0.039-1.006-0.297-1.354l-3.053-3.052 12.855-12.854c0.010-0.007 0.018-0.014 0.027-0.021l5.424-5.423 3.048 3.048c0.347 0.335 0.868 0.467 1.354 0.295 0.539-0.188 0.877-0.693 0.879-1.232l0.006 0.004 0.001-10.764c0-1.454-1.176-2.63-2.628-2.63z"></path>
</svg>
