<?xml version="1.0" encoding="utf-8"?>
<!-- Generated by IcoMoon.io -->
<!DOCTYPE svg PUBLIC "-//W3C//DTD SVG 1.1//EN" "http://www.w3.org/Graphics/SVG/1.1/DTD/svg11.dtd">
<svg version="1.1" xmlns="http://www.w3.org/2000/svg" xmlns:xlink="http://www.w3.org/1999/xlink" width="36" height="36" viewBox="0 0 36 36">
<path fill="#444" d="M6.11 5.176l-1.757 0.359c-2.437 0.491-4.084 2.486-3.657 4.434l0.329 1.502 1.604-0.329 3.481-5.966zM28.509 0.627l-5.599 1.14-3.487 5.961 5.603-1.133 3.483-5.968zM34.293 3.147c-0.16-0.748-0.609-1.38-1.237-1.852l-2.431 4.161 3.997-0.808-0.329-1.5zM17.307 2.905l-5.599 1.133-3.481 5.966 5.601-1.135 3.479-5.964zM31.323 11.695l4.049 4.453v-4.453h-4.049zM25.602 11.695h-5.725l4.528 4.973h-5.721l-4.528-4.973h-5.721l4.523 4.973h-5.721l-4.526-4.973h-1.674v19.312c0 2.402 2.039 4.366 4.53 4.366h25.278c2.493 0 4.528-1.964 4.528-4.366v-14.339h-5.242l-4.528-4.973z"></path>
</svg>
