<?xml version="1.0" encoding="utf-8"?>
<!-- Generated by IcoMoon.io -->
<!DOCTYPE svg PUBLIC "-//W3C//DTD SVG 1.1//EN" "http://www.w3.org/Graphics/SVG/1.1/DTD/svg11.dtd">
<svg version="1.1" xmlns="http://www.w3.org/2000/svg" xmlns:xlink="http://www.w3.org/1999/xlink" width="36" height="36" viewBox="0 0 36 36">
<path fill="#444" d="M24.732 15.584c0-0.758-0.257-1.515-1.759-1.515h-2.045v3.032h2.158c1.312 0 1.645-0.772 1.645-1.517z"></path>
<path fill="#444" d="M23.089 18.531h-2.16v3.398h2.127c1.687 0 2.020-0.855 2.020-1.684 0-1.184-0.53-1.714-1.987-1.714z"></path>
<path fill="#444" d="M26.302 0.628h-19.568c-3.371 0.004-6.107 2.705-6.107 6.057v22.567c0 3.344 2.736 6.119 6.107 6.119h22.474c3.369 0 6.165-2.775 6.165-6.119v-19.552l-9.070-9.072zM16.986 22.887c-0.813 0.375-1.914 0.66-3.384 0.66-3.261 0-4.288-2.504-4.288-5.546 0-3.046 1.026-5.544 4.288-5.544 1.442 0 2.452 0.312 3.129 0.639v1.515c-1.289-0.526-2.088-0.726-3.129-0.726-2.047 0-2.746 1.803-2.746 4.116 0 2.311 0.699 4.114 2.746 4.114 0.623 0 1.411-0.070 1.883-0.215v-2.999h-2.103v-1.43h3.603v5.416zM23.002 23.361h-3.59v-10.719h3.501c2.574 0 3.435 1.329 3.435 2.943 0 0.803-0.362 1.614-1.047 2.131 0.96 0.472 1.384 1.486 1.384 2.527-0 1.732-0.94 3.118-3.683 3.118z"></path>
</svg>
