<?xml version="1.0" encoding="utf-8"?>
<!-- Generated by IcoMoon.io -->
<!DOCTYPE svg PUBLIC "-//W3C//DTD SVG 1.1//EN" "http://www.w3.org/Graphics/SVG/1.1/DTD/svg11.dtd">
<svg version="1.1" xmlns="http://www.w3.org/2000/svg" xmlns:xlink="http://www.w3.org/1999/xlink" width="36" height="36" viewBox="0 0 36 36">
<path fill="#444" d="M33.544 16.132c0.17-0.484 0.038-1.001-0.296-1.345l-3.037-3.040 4.653-4.65c0.805-0.947 0.765-2.382-0.13-3.275l-2.562-2.561c-0.892-0.893-2.325-0.936-3.271-0.129l-4.652 4.652-3.034-3.034c-0.345-0.333-0.862-0.464-1.348-0.294-0.535 0.187-0.872 0.69-0.875 1.226l-0.006-0.004-0.001 10.712c0 1.447 1.17 2.617 2.616 2.617l10.714-0.002c0.538-0.002 1.040-0.338 1.229-0.875z"></path>
<path fill="#444" d="M2.457 19.868c-0.17 0.484-0.039 1.001 0.295 1.347l3.038 3.038-4.653 4.65c-0.807 0.947-0.766 2.381 0.128 3.276l2.562 2.561c0.892 0.893 2.327 0.935 3.272 0.126l4.652-4.652 3.035 3.034c0.345 0.335 0.863 0.467 1.346 0.297 0.535-0.189 0.871-0.69 0.876-1.228l0.006 0.004 0.001-10.712c0-1.446-1.171-2.617-2.618-2.617l-10.714 0.001c-0.537 0.004-1.038 0.339-1.227 0.876z"></path>
</svg>
