<?xml version="1.0" encoding="utf-8"?>
<!-- Generated by IcoMoon.io -->
<!DOCTYPE svg PUBLIC "-//W3C//DTD SVG 1.1//EN" "http://www.w3.org/Graphics/SVG/1.1/DTD/svg11.dtd">
<svg version="1.1" xmlns="http://www.w3.org/2000/svg" xmlns:xlink="http://www.w3.org/1999/xlink" width="36" height="36" viewBox="0 0 36 36">
<path fill="#444" d="M17.247 15.655l4.396-4.395-4.395-4.395c-0.831-0.83-0.831-2.182 0-3.012s2.182-0.831 3.012 0l4.396 4.395 4.395-4.396c0.83-0.83 2.18-0.83 3.012 0 0.83 0.83 0.83 2.183 0 3.012l-4.396 4.396 4.395 4.394c0.832 0.831 0.832 2.183 0.001 3.013s-2.182 0.831-3.013-0.002l-4.394-4.394-4.396 4.396c-0.83 0.831-2.182 0.831-3.012 0-0.833-0.831-0.831-2.181-0.001-3.013z"></path>
<path fill="#444" d="M34.572 26.384l-6.372-3.654c0 0-1.080-0.812-1.986 0.066 0 0-1.39 1.129-2.817 2.813l-0.617 0.801c0 0-0.359 0.455-1.327 0.105 0 0-6.239-2.001-11.916-11.452 0 0-0.496-0.717 0.488-1.677 0 0 1.067-0.857 2.343-2.287 0 0 0.706-0.552 0.309-1.694l-0.117-0.405-2.57-7.153c0 0-0.405-1.051-1.822-1.044l-1.947 0.266c0 0-6.406 0.832-5.585 8.6 0 0 2.976 18.644 23.705 24.949 0 0 8.243 2.779 10.522-3.833 0 0 0.269-1.289 0.555-2.856 0.001 0 0.23-0.826-0.844-1.545z"></path>
</svg>
