<?xml version="1.0" encoding="utf-8"?>
<!-- Generated by IcoMoon.io -->
<!DOCTYPE svg PUBLIC "-//W3C//DTD SVG 1.1//EN" "http://www.w3.org/Graphics/SVG/1.1/DTD/svg11.dtd">
<svg version="1.1" xmlns="http://www.w3.org/2000/svg" xmlns:xlink="http://www.w3.org/1999/xlink" width="36" height="36" viewBox="0 0 36 36">
<path fill="#444" d="M31.498 16.847c0.641 0 1.153 0.517 1.153 1.153 0 0.639-0.513 1.153-1.153 1.153-0.639 0-1.153-0.515-1.153-1.153 0-0.637 0.515-1.153 1.153-1.153z"></path>
<path fill="#444" d="M0.628 8.145v19.709c0 1.31 1.062 2.373 2.373 2.373h29.998c1.31 0 2.373-1.062 2.373-2.373v-19.709c0-1.31-1.062-2.373-2.373-2.373h-29.998c-1.31 0-2.373 1.062-2.373 2.373zM32.999 7.67c0.26 0 0.473 0.215 0.473 0.477v19.707c0 0.26-0.213 0.475-0.473 0.475h-29.998c-0.26 0-0.473-0.215-0.473-0.477v-19.707c0-0.26 0.213-0.475 0.473-0.475h29.998z"></path>
<path fill="#444" d="M28.783 25.955v-15.908c0-0.029-0.004-0.054-0.008-0.079-0.002-0.006-0.002-0.014-0.002-0.021-0.010-0.043-0.027-0.085-0.047-0.122-0.079-0.153-0.236-0.256-0.417-0.256v0h-23.355c-0.258 0-0.471 0.215-0.471 0.477v15.908c0 0.027 0.004 0.054 0.008 0.076 0 0.006 0 0.012 0 0.019 0.012 0.050 0.031 0.093 0.054 0.134 0.081 0.145 0.232 0.246 0.409 0.246h23.355c0.26 0 0.475-0.213 0.475-0.475zM22.179 17.465l-2.78 2.019 1.062 3.268c0.355 1.098-0.116 1.443-1.050 0.761l-2.78-2.017-2.78 2.017c-0.934 0.682-1.41 0.337-1.050-0.761l1.062-3.268-2.782-2.019c-0.934-0.68-0.752-1.236 0.403-1.236h3.433l1.064-3.266c0.355-1.102 0.94-1.102 1.296 0l1.062 3.266h3.435c1.157 0 1.335 0.556 0.403 1.236z"></path>
</svg>
