<?xml version="1.0" encoding="utf-8"?>
<!-- Generated by IcoMoon.io -->
<!DOCTYPE svg PUBLIC "-//W3C//DTD SVG 1.1//EN" "http://www.w3.org/Graphics/SVG/1.1/DTD/svg11.dtd">
<svg version="1.1" xmlns="http://www.w3.org/2000/svg" xmlns:xlink="http://www.w3.org/1999/xlink" width="36" height="36" viewBox="0 0 36 36">
<path fill="#444" d="M25.707 35.438h-15.413c-1.758 0-3.187-1.46-3.187-3.254v-28.355c0-1.798 1.439-3.262 3.209-3.262l15.391-0.004c1.758 0 3.186 1.459 3.186 3.253v28.369c0 1.793-1.428 3.253-3.186 3.253zM10.316 2.461c-0.711 0-1.312 0.627-1.312 1.368v28.356c0 0.748 0.578 1.358 1.291 1.358h15.412c0.713 0 1.293-0.61 1.293-1.358v-28.37c0-0.749-0.58-1.358-1.293-1.358l-15.391 0.004z"></path>
<path fill="#444" d="M12.183 4.428c-0.72 0-1.326 0.62-1.326 1.355v21.623c0 0.741 0.585 1.345 1.305 1.345h11.676c0.721 0 1.307-0.602 1.307-1.345v-21.637c0-0.74-0.586-1.344-1.307-1.344l-11.655 0.003z"></path>
<path fill="#444" d="M18 29.986c0.583 0 1.055 0.487 1.055 1.088 0 0.599-0.472 1.086-1.055 1.086s-1.055-0.487-1.055-1.086c0-0.601 0.472-1.088 1.055-1.088z"></path>
</svg>
