<?xml version="1.0" encoding="utf-8"?>
<!-- Generated by IcoMoon.io -->
<!DOCTYPE svg PUBLIC "-//W3C//DTD SVG 1.1//EN" "http://www.w3.org/Graphics/SVG/1.1/DTD/svg11.dtd">
<svg version="1.1" xmlns="http://www.w3.org/2000/svg" xmlns:xlink="http://www.w3.org/1999/xlink" width="36" height="36" viewBox="0 0 36 36">
<path fill="#444" d="M25.63 35.373h-15.265c-1.796 0-3.257-1.49-3.257-3.323v-28.081c0-1.84 1.469-3.336 3.28-3.336l15.242-0.004c1.798 0 3.262 1.492 3.262 3.326v28.096c0 1.833-1.463 3.323-3.262 3.323zM10.388 2.716c-0.648 0-1.198 0.573-1.198 1.252v28.081c0 0.683 0.528 1.242 1.175 1.242h15.265c0.648 0 1.175-0.559 1.175-1.242v-28.096c0-0.683-0.528-1.242-1.175-1.242l-15.242 0.004z"></path>
<path fill="#444" d="M19.041 30.948c0 0.594-0.464 1.076-1.043 1.076-0.575 0-1.045-0.482-1.045-1.076s0.47-1.076 1.045-1.076c0.579 0 1.043 0.482 1.043 1.076z"></path>
<path fill="#444" d="M23.78 4.557l-11.544 0.004c-0.712 0-1.314 0.613-1.314 1.341v21.413c0 0.735 0.577 1.331 1.293 1.331h11.565c0.714 0 1.296-0.596 1.296-1.331v-21.43c-0-0.733-0.582-1.329-1.296-1.329zM20.798 17.059c0.271 0.271 0.271 0.714 0 0.983-0.135 0.137-0.313 0.203-0.49 0.203s-0.356-0.066-0.493-0.203l-1.817-1.817-1.817 1.817c-0.135 0.137-0.315 0.203-0.493 0.203-0.176 0-0.354-0.066-0.488-0.203-0.273-0.269-0.273-0.712 0-0.983l1.815-1.815-1.815-1.819c-0.273-0.271-0.273-0.71 0-0.981 0.269-0.271 0.712-0.271 0.981 0l1.817 1.815 1.817-1.815c0.271-0.271 0.712-0.271 0.983 0s0.271 0.71 0 0.981l-1.815 1.819 1.815 1.815z"></path>
</svg>
