<?xml version="1.0" encoding="utf-8"?>
<!-- Generated by IcoMoon.io -->
<!DOCTYPE svg PUBLIC "-//W3C//DTD SVG 1.1//EN" "http://www.w3.org/Graphics/SVG/1.1/DTD/svg11.dtd">
<svg version="1.1" xmlns="http://www.w3.org/2000/svg" xmlns:xlink="http://www.w3.org/1999/xlink" width="36" height="36" viewBox="0 0 36 36">
<path fill="#444" d="M25.908 36h-15.817c-1.862 0-3.376-1.547-3.376-3.446v-29.096c0-1.905 1.525-3.455 3.4-3.455l15.791-0.004c1.864 0 3.38 1.546 3.38 3.445v29.109c-0 1.899-1.516 3.446-3.378 3.446zM10.114 2.164c-0.671 0-1.24 0.594-1.24 1.294v29.096c0 0.709 0.545 1.286 1.216 1.286h15.817c0.671 0 1.216-0.577 1.216-1.286v-29.109c0-0.709-0.545-1.285-1.216-1.285l-15.794 0.004z"></path>
<path fill="#444" d="M19.081 31.414c0 0.617-0.484 1.116-1.081 1.116-0.599 0-1.085-0.498-1.085-1.116 0-0.615 0.486-1.114 1.085-1.114 0.596 0 1.081 0.5 1.081 1.114z"></path>
<path fill="#444" d="M23.992 4.069l-11.961 0.005c-0.739 0-1.361 0.635-1.361 1.389v22.188c0 0.761 0.602 1.379 1.339 1.379h11.983c0.736 0 1.338-0.618 1.338-1.379v-22.203c0-0.759-0.602-1.379-1.338-1.379zM21.913 22.558h-7.825c-0.529 0-0.958-0.442-0.958-0.986s0.429-0.985 0.958-0.985h7.825c0.528 0 0.957 0.44 0.957 0.985s-0.429 0.986-0.957 0.986zM21.913 17.536h-7.825c-0.529 0-0.958-0.442-0.958-0.985 0-0.545 0.429-0.986 0.958-0.986h7.825c0.528 0 0.957 0.442 0.957 0.986 0 0.543-0.429 0.985-0.957 0.985zM21.913 12.514h-7.825c-0.529 0-0.958-0.442-0.958-0.986 0-0.543 0.429-0.985 0.958-0.985h7.825c0.528 0 0.957 0.442 0.957 0.985 0 0.545-0.429 0.986-0.957 0.986z"></path>
</svg>
