<?xml version="1.0" encoding="utf-8"?>
<!-- Generated by IcoMoon.io -->
<!DOCTYPE svg PUBLIC "-//W3C//DTD SVG 1.1//EN" "http://www.w3.org/Graphics/SVG/1.1/DTD/svg11.dtd">
<svg version="1.1" xmlns="http://www.w3.org/2000/svg" xmlns:xlink="http://www.w3.org/1999/xlink" width="36" height="36" viewBox="0 0 36 36">
<path fill="#444" d="M28.116 24.739c-1.85 0-3.348 1.5-3.348 3.348 0 0.010 0 0.021 0 0.033 0.018 1.833 1.509 3.317 3.348 3.317s3.331-1.484 3.348-3.317c0-0.012 0-0.023 0-0.033 0-1.848-1.498-3.348-3.348-3.348z"></path>
<path fill="#444" d="M7.902 24.739c-1.85 0-3.348 1.5-3.348 3.348 0 0.010 0 0.021 0 0.033 0.016 1.833 1.509 3.317 3.348 3.317 1.837 0 3.329-1.484 3.348-3.317 0-0.012 0-0.023 0-0.033 0-1.848-1.5-3.348-3.348-3.348z"></path>
<path fill="#444" d="M34.756 26.122v-5.276c0 0-2.244-8.050-2.282-8.143-0.070-0.172-0.163-0.343-0.277-0.502-0.339-0.494-0.845-0.891-1.306-0.891l3.216-0.004c0.922 0 1.461-0.721 1.199-1.604l-1.054-3.534c-0.263-0.882-1.232-1.606-2.153-1.606h-29.208c-0.924 0-1.676 0.75-1.676 1.676v19.898c-0.345 0.159-0.587 0.506-0.587 0.911 0 0.556 0.451 1.004 1.006 1.004h1.916c0.021-2.383 1.963-4.317 4.352-4.317 2.387 0 4.33 1.934 4.35 4.317h11.513c0.019-2.383 1.963-4.317 4.35-4.317 2.389 0 4.332 1.934 4.35 4.317h1.899c0.554 0 1.004-0.448 1.004-1.004 0-0.415-0.25-0.773-0.614-0.926zM9.086 20.484c-0.159 0.157-0.364 0.238-0.57 0.238-0.205 0-0.413-0.081-0.57-0.238-1.622-1.622-2.519-3.784-2.519-6.082 0-2.3 0.897-4.458 2.519-6.084 0.316-0.314 0.827-0.312 1.141 0 0.316 0.316 0.316 0.827 0 1.141-1.321 1.321-2.048 3.077-2.048 4.943s0.728 3.621 2.048 4.943c0.316 0.314 0.316 0.825 0 1.139zM11.542 16.394c0.341 0.339 0.339 0.889 0 1.228-0.17 0.169-0.391 0.254-0.614 0.254-0.221 0-0.444-0.085-0.614-0.254-0.858-0.86-1.333-2.005-1.333-3.22s0.475-2.36 1.333-3.22c0.339-0.339 0.889-0.339 1.228 0 0.341 0.341 0.341 0.889 0 1.23-0.531 0.531-0.823 1.238-0.823 1.99s0.291 1.461 0.823 1.992zM14.164 15.63c-0.68 0.345-1.509 0.083-1.858-0.597-0.345-0.678-0.081-1.511 0.597-1.86 0.674-0.345 1.511-0.081 1.858 0.597 0.347 0.68 0.081 1.509-0.597 1.86zM16.14 17.876c-0.221 0-0.444-0.085-0.614-0.254-0.337-0.339-0.341-0.889 0-1.228 0.531-0.531 0.827-1.24 0.827-1.992s-0.296-1.459-0.827-1.99c-0.341-0.339-0.341-0.889-0.002-1.228 0.341-0.341 0.889-0.341 1.228-0.002 0.864 0.86 1.335 2.005 1.335 3.22s-0.471 2.358-1.333 3.22c-0.169 0.169-0.391 0.254-0.614 0.254zM19.122 20.484c-0.159 0.157-0.364 0.238-0.568 0.238-0.209 0-0.413-0.081-0.572-0.238-0.314-0.314-0.314-0.825 0-1.139 1.318-1.321 2.046-3.077 2.046-4.943s-0.728-3.623-2.048-4.943c-0.312-0.314-0.312-0.825 0-1.141 0.318-0.314 0.829-0.314 1.141 0 1.624 1.627 2.521 3.784 2.521 6.084 0 2.298-0.897 4.46-2.519 6.082zM25.479 18.887v-5.9h5.024l1.81 5.9h-6.834z"></path>
</svg>
