<?xml version="1.0" encoding="utf-8"?>
<!-- Generated by IcoMoon.io -->
<!DOCTYPE svg PUBLIC "-//W3C//DTD SVG 1.1//EN" "http://www.w3.org/Graphics/SVG/1.1/DTD/svg11.dtd">
<svg version="1.1" xmlns="http://www.w3.org/2000/svg" xmlns:xlink="http://www.w3.org/1999/xlink" width="36" height="36" viewBox="0 0 36 36">
<path fill="#444" d="M31.497 16.847c0.641 0 1.153 0.517 1.153 1.153 0 0.639-0.513 1.153-1.153 1.153-0.639 0-1.153-0.515-1.153-1.153 0-0.637 0.515-1.153 1.153-1.153z"></path>
<path fill="#444" d="M0.627 8.145v19.709c0 1.31 1.062 2.373 2.373 2.373h29.998c1.31 0 2.375-1.062 2.375-2.373v-19.709c0-1.31-1.062-2.373-2.375-2.373h-29.996c-1.31 0-2.375 1.062-2.375 2.373zM32.998 7.67c0.262 0 0.473 0.215 0.473 0.475v19.709c0 0.26-0.211 0.475-0.473 0.475h-29.996c-0.263 0-0.475-0.215-0.475-0.475v-19.709c0-0.26 0.213-0.475 0.475-0.475h29.996z"></path>
<path fill="#444" d="M28.782 25.957v-15.912c0-0.027-0.006-0.052-0.010-0.079 0-0.006 0-0.012-0.002-0.019-0.008-0.041-0.025-0.085-0.045-0.122-0.079-0.151-0.236-0.256-0.417-0.256h-23.353c-0.26 0-0.473 0.213-0.473 0.475v15.912c0 0.025 0.004 0.050 0.008 0.074 0 0.006 0 0.015 0.002 0.021 0.010 0.045 0.029 0.091 0.052 0.132 0.081 0.147 0.234 0.246 0.411 0.246h23.353c0.262-0 0.475-0.215 0.475-0.473zM22.825 18.831c0 0.566-0.465 1.031-1.033 1.031h-3.303v3.303c0 0.568-0.463 1.035-1.033 1.035h-1.651c-0.566 0-1.031-0.467-1.031-1.035v-3.303h-3.305c-0.566 0-1.031-0.465-1.031-1.031v-1.651c0-0.568 0.465-1.035 1.031-1.035h3.305v-3.301c0-0.57 0.465-1.033 1.031-1.033h1.651c0.57 0 1.033 0.463 1.033 1.033v3.301h3.303c0.568 0 1.033 0.467 1.033 1.035v1.651z"></path>
</svg>
