<?xml version="1.0" encoding="utf-8"?>
<!-- Generated by IcoMoon.io -->
<!DOCTYPE svg PUBLIC "-//W3C//DTD SVG 1.1//EN" "http://www.w3.org/Graphics/SVG/1.1/DTD/svg11.dtd">
<svg version="1.1" xmlns="http://www.w3.org/2000/svg" xmlns:xlink="http://www.w3.org/1999/xlink" width="36" height="36" viewBox="0 0 36 36">
<path fill="#444" d="M18 29.623c-0.732 0-1.319 0.589-1.319 1.321s0.587 1.319 1.319 1.319c0.73 0 1.319-0.587 1.319-1.319s-0.589-1.321-1.319-1.321z"></path>
<path fill="#444" d="M26.689 0.627h-17.374c-1.5 0-2.716 1.215-2.716 2.716v29.314c0 1.501 1.215 2.716 2.716 2.716h17.374c1.496 0 2.712-1.213 2.712-2.714v-29.316c0-1.498-1.215-2.716-2.712-2.716zM27.23 32.657c0 0.302-0.244 0.546-0.541 0.546h-17.374c-0.3 0-0.546-0.244-0.546-0.546v-29.314c0-0.298 0.246-0.541 0.546-0.541h17.374c0.298 0 0.541 0.244 0.541 0.541v29.314z"></path>
<path fill="#444" d="M24.515 5.034h-13.029c-0.029 0-0.060 0.004-0.087 0.010-0.008 0-0.016 0-0.021 0.002-0.056 0.012-0.107 0.033-0.153 0.060-0.167 0.091-0.281 0.267-0.281 0.469v21.72c0 0.296 0.244 0.541 0.541 0.541h13.029c0.031 0 0.062-0.006 0.087-0.010 0.008-0.002 0.017 0 0.023-0.002 0.052-0.010 0.099-0.031 0.143-0.054 0.174-0.091 0.291-0.269 0.291-0.475v-21.72c0-0.298-0.244-0.542-0.544-0.542zM18.339 22.011v1.116c0 0.558-0.455 1.009-1.011 1.009s-1.007-0.451-1.007-1.009v-1.077h-1.199c-0.556 0-1.005-0.453-1.005-1.009s0.448-1.009 1.005-1.009h2.418c1.722 0 2.22-0.215 2.22-1.153 0-0.934-0.513-1.178-1.873-1.343-2.768-0.349-3.795-1.197-3.795-3.237 0-1.356 0.628-3.342 3.691-3.478v-1.077c0-0.558 0.451-1.009 1.009-1.009 0.556 0 1.007 0.451 1.007 1.009v1.071h0.688c0.558 0 1.009 0.453 1.009 1.009s-0.451 1.009-1.009 1.009h-2.385v-0.010c-1.563 0.002-1.893 0.725-1.893 1.494 0 0.922 0.711 1.042 2.009 1.209 2.435 0.316 3.687 1.071 3.687 3.354 0 1.641-0.843 2.92-3.567 3.131z"></path>
</svg>
