<?xml version="1.0" encoding="utf-8"?>
<!-- Generated by IcoMoon.io -->
<!DOCTYPE svg PUBLIC "-//W3C//DTD SVG 1.1//EN" "http://www.w3.org/Graphics/SVG/1.1/DTD/svg11.dtd">
<svg version="1.1" xmlns="http://www.w3.org/2000/svg" xmlns:xlink="http://www.w3.org/1999/xlink" width="36" height="36" viewBox="0 0 36 36">
<path fill="#444" d="M18.301 17.716c-2.355 0-4.273-1.917-4.273-4.271v-4.603h-4.873c-0.263 0-0.476 0.214-0.476 0.475v18.991c0 0.261 0.213 0.473 0.476 0.473h11.391c0.265 0 0.476-0.212 0.476-0.473v-10.591h-2.72z"></path>
<path fill="#444" d="M28.744 0.627h-10.443c-1.312 0-2.374 1.062-2.374 2.374v10.445c0 1.309 1.062 2.373 2.374 2.373h10.443c1.312 0 2.376-1.064 2.376-2.373v-10.445c-0-1.312-1.064-2.374-2.376-2.374zM27.523 8.97h-3.249v3.251c0 0.413-0.339 0.748-0.753 0.748-0.41 0-0.745-0.335-0.745-0.748v-3.251h-3.253c-0.414 0-0.746-0.336-0.746-0.75 0-0.411 0.332-0.746 0.746-0.746h3.253v-3.25c0-0.414 0.335-0.746 0.745-0.746 0.414 0 0.753 0.332 0.753 0.746v3.25h3.249c0.41 0 0.745 0.335 0.745 0.746 0 0.414-0.335 0.75-0.745 0.75z"></path>
<path fill="#444" d="M22.921 17.716v15.28c0 0.263-0.215 0.475-0.476 0.475h-15.19c-0.263 0-0.476-0.212-0.476-0.475v-25.634c0-0.263 0.213-0.475 0.476-0.475h6.773v-1.899h-6.773c-1.31 0-2.374 1.062-2.374 2.374v25.634c0 1.312 1.064 2.376 2.374 2.376h15.19c1.312 0 2.376-1.064 2.376-2.376v-15.28h-1.9z"></path>
<path fill="#444" d="M15.681 31.087c0 0.465-0.377 0.839-0.84 0.839s-0.842-0.375-0.842-0.839c0-0.464 0.379-0.839 0.842-0.839s0.84 0.376 0.84 0.839z"></path>
</svg>
