<?xml version="1.0" encoding="utf-8"?>
<!-- Generated by IcoMoon.io -->
<!DOCTYPE svg PUBLIC "-//W3C//DTD SVG 1.1//EN" "http://www.w3.org/Graphics/SVG/1.1/DTD/svg11.dtd">
<svg version="1.1" xmlns="http://www.w3.org/2000/svg" xmlns:xlink="http://www.w3.org/1999/xlink" width="36" height="36" viewBox="0 0 36 36">
<path fill="#444" d="M31.5 16.848c0.638 0 1.154 0.514 1.154 1.152s-0.516 1.151-1.154 1.151c-0.64 0-1.154-0.513-1.154-1.151s0.514-1.152 1.154-1.152z"></path>
<path fill="#444" d="M0.627 8.145v19.709c0 1.31 1.063 2.375 2.373 2.375h29.998c1.312 0 2.375-1.065 2.375-2.375v-19.709c0-1.31-1.063-2.375-2.371-2.375h-30c-1.312 0-2.375 1.065-2.375 2.375zM32.998 7.671c0.263 0 0.477 0.213 0.477 0.474v19.709c0 0.261-0.213 0.477-0.477 0.477h-29.996c-0.263 0-0.477-0.216-0.477-0.477v-19.709c0-0.261 0.213-0.474 0.477-0.474h29.996z"></path>
<path fill="#444" d="M28.781 25.956v-15.913c0-0.025-0.004-0.050-0.008-0.075 0-0.008 0-0.012-0.002-0.021-0.008-0.044-0.025-0.083-0.045-0.122-0.079-0.151-0.236-0.257-0.417-0.257h-23.355c-0.261 0-0.472 0.214-0.472 0.475v15.913c0 0.025 0.004 0.050 0.008 0.075 0 0.008 0 0.012 0 0.021 0.008 0.045 0.029 0.091 0.052 0.133 0.081 0.145 0.236 0.249 0.412 0.249h23.355c0.261 0 0.472-0.215 0.472-0.477zM21.473 20.212c-2.238 2.325-4.219 2.971-4.843 3.212-0.622-0.24-2.605-0.887-4.843-3.212-3.438-3.563-1.281-7.738 1.678-8.076 2.107-0.24 3.154 1.208 3.164 1.225 0.014-0.017 1.057-1.465 3.168-1.225 2.957 0.338 5.11 4.513 1.674 8.076z"></path>
</svg>
