<?xml version="1.0" encoding="utf-8"?>
<!-- Generated by IcoMoon.io -->
<!DOCTYPE svg PUBLIC "-//W3C//DTD SVG 1.1//EN" "http://www.w3.org/Graphics/SVG/1.1/DTD/svg11.dtd">
<svg version="1.1" xmlns="http://www.w3.org/2000/svg" xmlns:xlink="http://www.w3.org/1999/xlink" width="36" height="36" viewBox="0 0 36 36">
<path fill="#444" d="M28.116 24.74c-1.848 0-3.348 1.498-3.348 3.348 0 0.010 0 0.021 0 0.033 0.019 1.833 1.511 3.317 3.348 3.317 1.839 0 3.332-1.484 3.348-3.317 0-0.012 0-0.023 0-0.033 0-1.85-1.496-3.348-3.348-3.348z"></path>
<path fill="#444" d="M7.899 24.74c-1.848 0-3.348 1.498-3.348 3.348 0 0.010 0 0.021 0 0.033 0.017 1.833 1.509 3.317 3.348 3.317s3.332-1.484 3.348-3.317c0-0.012 0-0.023 0-0.033 0-1.85-1.496-3.348-3.348-3.348z"></path>
<path fill="#444" d="M2.889 4.562c-0.926 0-1.676 0.75-1.676 1.674v19.901c-0.345 0.159-0.585 0.506-0.585 0.911 0 0.556 0.451 1.004 1.005 1.004h1.914c0.023-2.383 1.966-4.318 4.353-4.318 2.389 0 4.332 1.935 4.353 4.318h11.514c0.019-2.383 1.963-4.318 4.351-4.318 2.389 0 4.332 1.935 4.353 4.318h1.897c0.558 0 1.004-0.448 1.004-1.004 0-0.415-0.252-0.773-0.612-0.926v-5.276c0 0-2.247-8.048-2.286-8.143-0.068-0.169-0.161-0.341-0.273-0.502-0.343-0.496-0.847-0.891-1.31-0.891l3.22-0.002c0.922 0 1.459-0.723 1.195-1.606l-1.052-3.534c-0.262-0.882-1.232-1.606-2.152-1.606h-29.212zM13.57 17.576l-0.438 1.283h-1.827l0.504-1.385c-0.477-0.054-0.942-0.143-1.188-0.26v-1.645c0.606 0.258 1.941 0.391 2.693 0.391 1.021 0 1.591-0.234 1.591-0.74 0-0.322-0.661-0.44-1.422-0.517-1.866-0.167-2.98-0.426-2.98-1.903 0-1.422 1.035-2.292 2.902-2.356l0.451-1.296h1.827l-0.533 1.387c0.415 0.052 0.831 0.143 1.153 0.285v1.591c-0.738-0.285-1.901-0.362-2.654-0.362-0.947 0-1.488 0.246-1.488 0.659 0 0.324 0.699 0.351 1.476 0.417 1.889 0.165 2.951 0.502 2.951 2.081 0 1.346-1.035 2.292-3.017 2.369zM25.479 18.887v-5.901h5.027l1.808 5.901h-6.835z"></path>
</svg>
