<?xml version="1.0" encoding="utf-8"?>
<!-- Generated by IcoMoon.io -->
<!DOCTYPE svg PUBLIC "-//W3C//DTD SVG 1.1//EN" "http://www.w3.org/Graphics/SVG/1.1/DTD/svg11.dtd">
<svg version="1.1" xmlns="http://www.w3.org/2000/svg" xmlns:xlink="http://www.w3.org/1999/xlink" width="36" height="36" viewBox="0 0 36 36">
<path fill="#444" d="M30.106 27.902c-1.248 0-2.259 1.011-2.259 2.259 0 0.006 0.002 0.015 0.002 0.021 0.010 1.238 1.017 2.236 2.257 2.236s2.247-0.998 2.257-2.236c0-0.008 0-0.015 0-0.021 0-1.248-1.011-2.259-2.257-2.259z"></path>
<path fill="#444" d="M8.793 27.902c-1.248 0-2.259 1.011-2.259 2.259 0 0.006 0.002 0.015 0.002 0.021 0.012 1.238 1.017 2.236 2.257 2.236s2.247-0.998 2.257-2.236c0-0.006 0-0.015 0-0.021 0-1.248-1.011-2.259-2.257-2.259z"></path>
<path fill="#444" d="M34.736 28.33l-0.012-16.687-0.004-6.322c0-0.961-0.775-1.738-1.736-1.738h-25.407l-6.947 3.822v6.254c0.971-0.002 1.848-0.401 2.478-1.046 0.287 0.296 0.63 0.533 1.011 0.711v15.026c-0.36 0.165-0.612 0.525-0.612 0.942 0 0.577 0.469 1.044 1.046 1.044h0.951c-0.004-0.037-0.008-0.074-0.010-0.11l-0.002-0.023v-0.043c0-1.817 1.482-3.299 3.303-3.299 1.819 0 3.301 1.482 3.301 3.299 0 0.019 0 0.037-0.002 0.052 0 0.041-0.006 0.083-0.008 0.124h14.73c-0.002-0.037-0.006-0.074-0.006-0.11l-0.002-0.023v-0.043c0-1.817 1.478-3.299 3.301-3.299 1.819 0 3.301 1.482 3.301 3.299 0 0.017 0 0.033 0 0.047-0.002 0.043-0.006 0.085-0.010 0.128h0.932c0.577 0 1.044-0.467 1.044-1.044 0-0.432-0.262-0.802-0.637-0.961zM6.226 20.245v-6.649c0.715-0.132 1.358-0.484 1.848-0.982 0.628 0.643 1.509 1.044 2.48 1.044s1.852-0.401 2.482-1.044c0.63 0.643 1.511 1.044 2.482 1.044s1.85-0.401 2.48-1.044c0.632 0.643 1.511 1.044 2.482 1.044s1.85-0.401 2.482-1.046c0.632 0.645 1.509 1.046 2.484 1.046 0.967 0 1.848-0.401 2.48-1.044 0.63 0.643 1.509 1.044 2.482 1.044 0.486 0 0.949-0.101 1.37-0.281 0.32-0.141 0.62-0.327 0.88-0.552v7.42h-26.435z"></path>
</svg>
