<?xml version="1.0" encoding="utf-8"?>
<!-- Generated by IcoMoon.io -->
<!DOCTYPE svg PUBLIC "-//W3C//DTD SVG 1.1//EN" "http://www.w3.org/Graphics/SVG/1.1/DTD/svg11.dtd">
<svg version="1.1" xmlns="http://www.w3.org/2000/svg" xmlns:xlink="http://www.w3.org/1999/xlink" width="36" height="36" viewBox="0 0 36 36">
<path fill="#444" d="M28.118 24.738c-1.848 0-3.348 1.5-3.348 3.348 0 0.012 0 0.023 0 0.031 0.017 1.838 1.509 3.322 3.348 3.322s3.33-1.484 3.348-3.322c0-0.008 0-0.019 0-0.031 0-1.848-1.5-3.348-3.348-3.348z"></path>
<path fill="#444" d="M7.898 24.738c-1.848 0-3.348 1.5-3.348 3.348 0 0.012 0.004 0.023 0.004 0.031 0.012 1.838 1.504 3.322 3.344 3.322s3.332-1.484 3.348-3.322c0-0.008 0-0.019 0-0.031 0-1.848-1.5-3.348-3.348-3.348z"></path>
<path fill="#444" d="M34.759 26.123v-5.278c0 0-2.447-8.483-2.559-8.645-0.342-0.495-0.846-0.889-1.31-0.889l3.22-0.006c0.92 0 1.459-0.721 1.196-1.604l-1.055-3.535c-0.263-0.883-1.231-1.606-2.151-1.606h-29.212c-0.924 0-1.674 0.75-1.674 1.674v19.902c-0.344 0.16-0.587 0.508-0.587 0.91 0 0.555 0.45 1.007 1.005 1.007h1.917c0.019-2.383 1.962-4.318 4.349-4.318 2.389 0 4.333 1.935 4.351 4.318h11.517c0.017-2.383 1.96-4.318 4.351-4.318 2.387 0 4.331 1.935 4.351 4.318h1.898c0.555 0 1.005-0.452 1.005-1.007 0-0.414-0.253-0.771-0.613-0.924zM25.48 18.887v-5.901h5.025l1.809 5.901h-6.834z"></path>
</svg>
