<?xml version="1.0" encoding="utf-8"?>
<!-- Generated by IcoMoon.io -->
<!DOCTYPE svg PUBLIC "-//W3C//DTD SVG 1.1//EN" "http://www.w3.org/Graphics/SVG/1.1/DTD/svg11.dtd">
<svg version="1.1" xmlns="http://www.w3.org/2000/svg" xmlns:xlink="http://www.w3.org/1999/xlink" width="36" height="36" viewBox="0 0 36 36">
<path fill="#444" d="M12.407 16.114c3.941 0 7.149-3.287 7.149-7.326s-3.207-7.326-7.149-7.326c-3.941 0-7.149 3.287-7.149 7.326s3.208 7.326 7.149 7.326z"></path>
<path fill="#444" d="M12.411 18.064c-2.258-0.007-4.321-0.859-5.912-2.258l-0.36 0.096c-0.080 0.41-0.121 0.834-0.121 1.264 0 2.759 4.344 5.477 6.385 6.486 2.043-1.011 6.39-3.729 6.39-6.486 0-0.433-0.043-0.859-0.123-1.267l-0.346-0.093c-1.59 1.399-3.652 2.251-5.914 2.258z"></path>
<path fill="#444" d="M20.774 16.458l-0.504-0.132c0.027 0.276 0.045 0.554 0.045 0.841 0 4.347-6.871 7.677-7.545 7.998-1.321 0.797-4.718 3.228-5.032 5.126-0.071 0.415 0.023 0.756 0.296 1.078 0.248 0.301 0.563 0.447 0.991 0.467 1.474 0.082 3.652-1.337 5.272-2.617-0.162-0.333-0.26-0.702-0.26-1.096 0-1.396 1.134-2.531 2.533-2.531s2.533 1.134 2.533 2.531c0 1.399-1.134 2.533-2.533 2.533-0.446 0-0.859-0.123-1.223-0.326-1.661 1.333-4.169 3.030-6.217 3.030-0.061 0-0.121 0-0.18-0.005-0.843-0.043-1.563-0.392-2.080-1.007-0.556-0.661-0.775-1.458-0.631-2.308 0.362-2.185 3.069-4.358 4.661-5.467-2.141-1.189-6.401-3.98-6.401-7.406 0-0.285 0.014-0.563 0.041-0.838l-0.49 0.13c-2.613 0.729-3.465 1.827-3.253 3.255l1.952 12.406c0.287 1.943 1.456 3.253 3.253 3.253h12.819c1.8 0 2.968-1.31 3.255-3.253l1.952-12.406c0.214-1.428-0.64-2.526-3.255-3.255z"></path>
<path fill="#444" d="M16.571 29.388c0.699 0 1.267-0.565 1.267-1.267 0-0.699-0.567-1.267-1.267-1.267s-1.267 0.567-1.267 1.267c0 0.702 0.567 1.267 1.267 1.267z"></path>
<path fill="#444" d="M34.338 13.136c-0.494 0-0.893-0.401-0.893-0.895 0-5.417-4.408-9.828-9.828-9.828-0.494 0-0.893-0.399-0.893-0.893 0-0.492 0.399-0.893 0.893-0.893 6.406 0 11.616 5.21 11.616 11.614 0 0.494-0.403 0.895-0.895 0.895z"></path>
<path fill="#444" d="M30.764 13.136c-0.492 0-0.893-0.401-0.893-0.895 0-3.447-2.804-6.253-6.253-6.253-0.492 0-0.893-0.399-0.893-0.893 0-0.492 0.401-0.893 0.893-0.893 4.433 0 8.042 3.608 8.042 8.039-0 0.494-0.401 0.895-0.895 0.895z"></path>
<path fill="#444" d="M27.192 13.136c-0.494 0-0.893-0.401-0.893-0.895 0-1.478-1.205-2.679-2.681-2.679-0.494 0-0.893-0.399-0.893-0.893 0-0.492 0.399-0.895 0.893-0.895 2.463 0 4.467 2.005 4.467 4.467 0 0.494-0.401 0.895-0.893 0.895z"></path>
</svg>
