<?xml version="1.0" encoding="utf-8"?>
<!-- Generated by IcoMoon.io -->
<!DOCTYPE svg PUBLIC "-//W3C//DTD SVG 1.1//EN" "http://www.w3.org/Graphics/SVG/1.1/DTD/svg11.dtd">
<svg version="1.1" xmlns="http://www.w3.org/2000/svg" xmlns:xlink="http://www.w3.org/1999/xlink" width="36" height="36" viewBox="0 0 36 36">
<path fill="#444" d="M22.178 4.477c0 2.298-1.863 4.16-4.16 4.16s-4.16-1.863-4.16-4.16c0-2.298 1.863-4.16 4.16-4.16s4.16 1.863 4.16 4.16z"></path>
<path fill="#444" d="M22.178 17.996c0 2.298-1.863 4.16-4.16 4.16s-4.16-1.863-4.16-4.16c0-2.298 1.863-4.16 4.16-4.16s4.16 1.863 4.16 4.16z"></path>
<path fill="#444" d="M22.178 31.594c0 2.298-1.863 4.16-4.16 4.16s-4.16-1.863-4.16-4.16c0-2.298 1.863-4.16 4.16-4.16s4.16 1.863 4.16 4.16z"></path>
</svg>
