<?xml version="1.0" encoding="utf-8"?>
<!-- Generated by IcoMoon.io -->
<!DOCTYPE svg PUBLIC "-//W3C//DTD SVG 1.1//EN" "http://www.w3.org/Graphics/SVG/1.1/DTD/svg11.dtd">
<svg version="1.1" xmlns="http://www.w3.org/2000/svg" xmlns:xlink="http://www.w3.org/1999/xlink" width="36" height="36" viewBox="0 0 36 36">
<path fill="#444" d="M36.018 18.036c0 2.334-1.892 4.226-4.226 4.226s-4.226-1.892-4.226-4.226c0-2.334 1.892-4.226 4.226-4.226s4.226 1.892 4.226 4.226z"></path>
<path fill="#444" d="M22.284 18.036c0 2.334-1.892 4.226-4.226 4.226s-4.226-1.892-4.226-4.226c0-2.334 1.892-4.226 4.226-4.226s4.226 1.892 4.226 4.226z"></path>
<path fill="#444" d="M8.471 18.036c0 2.334-1.892 4.226-4.226 4.226s-4.226-1.892-4.226-4.226c0-2.334 1.892-4.226 4.226-4.226s4.226 1.892 4.226 4.226z"></path>
</svg>
