<?xml version="1.0" encoding="utf-8"?>
<!-- Generated by IcoMoon.io -->
<!DOCTYPE svg PUBLIC "-//W3C//DTD SVG 1.1//EN" "http://www.w3.org/Graphics/SVG/1.1/DTD/svg11.dtd">
<svg version="1.1" xmlns="http://www.w3.org/2000/svg" xmlns:xlink="http://www.w3.org/1999/xlink" width="36" height="36" viewBox="0 0 36 36">
<path fill="#444" d="M24.651 12.073c-3.493-1.967-7.931-0.969-10.234 2.344l6.125 3.98 4.109-6.324z"></path>
<path fill="#444" d="M27.506 22.917c2.087-3.451 1.196-7.911-2.024-10.304l-4.105 6.326 6.129 3.978z"></path>
<path fill="#444" d="M13.863 15.246l-5.232 8.050c-2.353 3.621-1.322 8.462 2.299 10.815 3.618 2.35 8.46 1.321 10.81-2.297l5.232-8.054-13.108-8.514z"></path>
<path fill="#444" d="M26.321 11.42l-0.92-0.596c3.514-5.413 1.089-8.138-0.67-9.281l0.598-0.917c3.576 2.322 3.938 6.257 0.993 10.793z"></path>
</svg>
