<?xml version="1.0" encoding="utf-8"?>
<!-- Generated by IcoMoon.io -->
<!DOCTYPE svg PUBLIC "-//W3C//DTD SVG 1.1//EN" "http://www.w3.org/Graphics/SVG/1.1/DTD/svg11.dtd">
<svg version="1.1" xmlns="http://www.w3.org/2000/svg" xmlns:xlink="http://www.w3.org/1999/xlink" width="36" height="36" viewBox="0 0 36 36">
<path fill="#444" d="M28.136 23.891c-1.852 0-3.355 1.502-3.355 3.356 0 0.010 0.001 0.020 0.001 0.029 0.017 1.839 1.511 3.326 3.354 3.326s3.337-1.487 3.355-3.326c0-0.009 0.001-0.020 0.001-0.029 0-1.853-1.502-3.356-3.356-3.356z"></path>
<path fill="#444" d="M7.881 23.891c-1.854 0-3.355 1.502-3.355 3.356 0 0.010 0.001 0.020 0.001 0.029 0.016 1.839 1.51 3.326 3.354 3.326s3.338-1.487 3.354-3.326c0-0.009 0.001-0.020 0.001-0.029 0-1.853-1.503-3.356-3.355-3.356z"></path>
<path fill="#444" d="M34.789 25.275v-5.287l-0.783-2.807-1.297-4.647-0.055-0.2-0.063-0.221c-0.021-0.093-0.053-0.188-0.092-0.282-0.069-0.172-0.163-0.343-0.274-0.503-0.343-0.496-0.85-0.892-1.312-0.892h-6.918v-3.406c0-0.927-0.751-1.678-1.678-1.678h-19.46c-0.925 0-1.677 0.751-1.677 1.678v18.261c-0.347 0.159-0.587 0.506-0.587 0.912 0 0.556 0.451 1.007 1.007 1.007h1.919c0.019-2.388 1.967-4.326 4.36-4.326s4.34 1.938 4.36 4.326h11.536c0.020-2.388 1.967-4.326 4.36-4.326s4.339 1.938 4.36 4.326h1.902c0.556 0 1.007-0.45 1.007-1.007 0-0.417-0.254-0.774-0.616-0.927zM16.624 12.196h-0.001l-5.315 5.317-3.038-3.039c-0.315-0.314-0.316-0.824 0-1.139s0.825-0.314 1.139 0c0 0.001 0 0.001 0.001 0.002l1.898 1.898 4.176-4.178c0.315-0.314 0.825-0.314 1.139 0 0.314 0.315 0.314 0.825 0 1.139zM30.495 18.026h-5v-5.913h5.032l0.068 0.22 0.374 1.22 0.934 3.041 0.154 0.504 0.157 0.511 0.128 0.416h-1.846z"></path>
</svg>
