<?xml version="1.0" encoding="utf-8"?>
<!-- Generated by IcoMoon.io -->
<!DOCTYPE svg PUBLIC "-//W3C//DTD SVG 1.1//EN" "http://www.w3.org/Graphics/SVG/1.1/DTD/svg11.dtd">
<svg version="1.1" xmlns="http://www.w3.org/2000/svg" xmlns:xlink="http://www.w3.org/1999/xlink" width="36" height="36" viewBox="0 0 36 36">
<path fill="#444" d="M32.935 6.607h-29.317c-1.517 0-3.056 0.881-3.056 2.398v17.407c0 1.518 1.538 2.979 3.056 2.979h29.317c1.519 0 2.503-1.461 2.503-2.979v-17.407c0-1.518-0.984-2.398-2.503-2.398zM5.212 26.603h-2.325v-2.79h2.325v2.79zM5.212 21.488h-2.325v-2.325h2.325v2.325zM5.212 16.372h-2.325v-2.325h2.325v2.325zM5.212 12.187h-2.325v-2.79h2.325v2.79zM24.337 18.469l-8.469 5.122c-0.137 0.083-0.293 0.125-0.447 0.125-0.146 0-0.314-0.037-0.446-0.111-0.272-0.153-0.462-0.442-0.462-0.754v-10.252c0-0.312 0.189-0.6 0.462-0.753s0.618-0.148 0.885 0.014l8.474 5.128c0.259 0.158 0.418 0.438 0.418 0.742 0 0.302-0.154 0.583-0.414 0.74zM33.112 26.603h-2.79v-2.79h2.79v2.79zM33.112 21.488h-2.79v-2.325h2.79v2.325zM33.112 16.372h-2.79v-2.325h2.79v2.325zM33.112 12.187h-2.79v-2.79h2.79v2.79z"></path>
</svg>
