<?xml version="1.0" encoding="utf-8"?>
<!-- Generated by IcoMoon.io -->
<!DOCTYPE svg PUBLIC "-//W3C//DTD SVG 1.1//EN" "http://www.w3.org/Graphics/SVG/1.1/DTD/svg11.dtd">
<svg version="1.1" xmlns="http://www.w3.org/2000/svg" xmlns:xlink="http://www.w3.org/1999/xlink" width="36" height="36" viewBox="0 0 36 36">
<path fill="#444" d="M35.151 20.479c-0.162-0.037-0.282 0.008-0.497 0.195l-1.921 1.618h-2.48v-2.486c0-0.508-0.385-0.918-0.862-0.918h-26.084c-0.479 0-0.864 0.41-0.864 0.918v11.912c0 0.506 0.385 0.918 0.864 0.918h26.084c0.477 0 0.862-0.412 0.862-0.918v-2.542h2.29l2.12 1.682c0.189 0.174 0.327 0.224 0.489 0.187 0.178-0.052 0.222-0.211 0.222-0.412v-9.742c0-0.197-0.043-0.361-0.222-0.41z"></path>
<path fill="#444" d="M7.859 3.364c-3.993 0-7.231 3.104-7.231 6.929s3.238 6.925 7.231 6.925c3.995 0 7.231-3.1 7.231-6.925s-3.236-6.929-7.231-6.929zM7.859 13.173c-1.658 0-3.004-1.291-3.004-2.88 0-1.591 1.347-2.88 3.004-2.88 1.66 0 3.004 1.289 3.004 2.88 0 1.589-1.345 2.88-3.004 2.88z"></path>
<path fill="#444" d="M25.011 3.364c-3.995 0-7.231 3.104-7.231 6.929s3.236 6.925 7.231 6.925c3.993 0 7.231-3.1 7.231-6.925s-3.239-6.929-7.231-6.929zM25.011 13.173c-1.66 0-3.006-1.291-3.006-2.88 0-1.591 1.347-2.88 3.006-2.88 1.658 0 3.004 1.289 3.004 2.88 0 1.589-1.347 2.88-3.004 2.88z"></path>
</svg>
