<?xml version="1.0" encoding="utf-8"?>
<!-- Generated by IcoMoon.io -->
<!DOCTYPE svg PUBLIC "-//W3C//DTD SVG 1.1//EN" "http://www.w3.org/Graphics/SVG/1.1/DTD/svg11.dtd">
<svg version="1.1" xmlns="http://www.w3.org/2000/svg" xmlns:xlink="http://www.w3.org/1999/xlink" width="36" height="36" viewBox="0 0 36 36">
<path fill="#444" d="M35.084 14.674c-0.598-1.364-2.057-2.217-3.953-2.339 0.265-1.183 0.436-2.324 0.5-3.368h-31.005c0.362 5.855 4.052 14.772 9.222 17.035 0 0 2.092 1.17 6.586 1.018 5.209-0.183 5.98-1.018 5.98-1.018 1.501-0.657 2.877-1.876 4.082-3.417 0.119 0.006 0.239 0.009 0.361 0.009 1.233 0 2.54-0.292 3.789-0.837 3.548-1.562 5.497-4.673 4.437-7.082zM29.794 19.811c-0.596 0.263-1.203 0.449-1.798 0.555 1.076-1.831 1.951-3.892 2.576-5.925 0.028-0 0.057-0.001 0.085-0.001 1.239 0 2.192 0.416 2.486 1.089 0.491 1.112-0.766 3.144-3.348 4.282z"></path>
</svg>
