<?xml version="1.0" encoding="utf-8"?>
<!-- Generated by IcoMoon.io -->
<!DOCTYPE svg PUBLIC "-//W3C//DTD SVG 1.1//EN" "http://www.w3.org/Graphics/SVG/1.1/DTD/svg11.dtd">
<svg version="1.1" xmlns="http://www.w3.org/2000/svg" xmlns:xlink="http://www.w3.org/1999/xlink" width="36" height="36" viewBox="0 0 36 36">
<path fill="#444" d="M35.437 5.831v-3.094c0-1.192-0.967-2.16-2.158-2.16h-18.702c-1.192 0-2.158 0.968-2.158 2.16v17.149l-0.062 4.228c-1.082-0.184-2.445-0.344-3.013-0.344-0.575 0-1.163 0.058-1.748 0.172-4.404 0.844-7.033 3.388-7.033 6.804 0 2.928 1.975 4.676 5.286 4.676 0.681 0 1.413-0.074 2.174-0.22 2.926-0.561 5.523-2.538 6.551-4.782l0.030 0.059 0.085-0.329c0.16-0.399 0.268-0.805 0.32-1.209l0.142-0.548c0.784-2.707 0.793-5.448 0.789-8.332v-8.203c0-0.532 0.431-0.964 0.962-0.964h14.051c0.533 0 0.964 0.432 0.964 0.964v8.028l-0.063 4.228c-1.081-0.184-2.444-0.344-3.013-0.344-0.574 0-1.162 0.058-1.747 0.172-4.404 0.844-7.033 3.388-7.033 6.804 0 2.928 1.975 4.676 5.285 4.676 0.681 0 1.413-0.074 2.173-0.22 2.926-0.561 5.524-2.538 6.552-4.782l0.031 0.059 0.085-0.329c0.16-0.399 0.269-0.805 0.321-1.209l0.141-0.548c0.784-2.707 0.794-5.448 0.789-8.332v-14.231zM31.916 6.991c0 0.501-0.385 0.909-0.876 0.954h-14.227c-0.49-0.045-0.875-0.453-0.875-0.954v-2.5c0-0.532 0.431-0.963 0.962-0.963h14.051c0.533 0 0.964 0.431 0.964 0.963v2.5z"></path>
</svg>
