<?xml version="1.0" encoding="utf-8"?>
<!-- Generated by IcoMoon.io -->
<!DOCTYPE svg PUBLIC "-//W3C//DTD SVG 1.1//EN" "http://www.w3.org/Graphics/SVG/1.1/DTD/svg11.dtd">
<svg version="1.1" xmlns="http://www.w3.org/2000/svg" xmlns:xlink="http://www.w3.org/1999/xlink" width="36" height="36" viewBox="0 0 36 36">
<path fill="#444" d="M19.473 19.614c-1.262 0-2.031 1.276-2.031 2.974-0.015 1.755 0.768 2.974 2.031 2.974h0.029c1.263 0 2.002-1.219 2.002-2.988 0-1.683-0.754-2.959-2.031-2.959z"></path>
<path fill="#444" d="M27.633 0.563h-19.228c-4.331 0-7.842 3.507-7.842 7.834v19.208c0 4.326 3.511 7.834 7.842 7.834h19.228c4.331 0 7.841-3.507 7.841-7.834v-19.208c0-4.327-3.511-7.834-7.841-7.834zM19.831 8.364l1.502 2.697 1.501-2.697h1.391l-2.306 3.757v2.604h-1.171v-2.604l-2.307-3.757h1.391zM10.309 19.846h-3.656v1.799h3.438v2.118h-3.438v3.713h-2.626v-9.777h6.281v2.147zM13.826 27.477h-2.571v-6.831h2.571v6.831zM12.547 19.922h-0.014c-0.795 0-1.292-0.54-1.292-1.207 0-0.71 0.511-1.222 1.306-1.222s1.293 0.512 1.307 1.222c0 0.668-0.511 1.207-1.307 1.207zM12.655 10.662l0.042 4.063h-1.153v-6.361h1.289l1.671 3.893 1.671-3.893h1.289v6.361h-1.153l0.042-4.088-1.425 3.282h-0.849l-1.424-3.257zM19.386 27.636h-0.015c-3.032 0-4.7-2.278-4.7-4.99 0-2.843 1.857-5.106 4.86-5.106 3.148 0 4.744 2.335 4.744 4.946-0 3.148-1.886 5.15-4.889 5.15zM27.639 27.622c-1.175 0-2.321-0.304-2.872-0.595l0.493-2.161c0.595 0.304 1.553 0.609 2.539 0.609 0.899 0 1.334-0.305 1.334-0.798 0-0.479-0.435-0.74-1.537-1.117-1.654-0.595-2.757-1.494-2.757-2.945 0-1.726 1.465-3.061 3.931-3.061 1.161 0 2.003 0.217 2.64 0.493l-0.551 2.103c-0.42-0.188-1.146-0.464-2.118-0.464-0.798 0-1.233 0.29-1.233 0.726 0 0.493 0.522 0.682 1.756 1.146 1.756 0.653 2.538 1.581 2.538 2.945 0 1.683-1.305 3.119-4.163 3.119z"></path>
</svg>
