<?xml version="1.0" encoding="utf-8"?>
<!-- Generated by IcoMoon.io -->
<!DOCTYPE svg PUBLIC "-//W3C//DTD SVG 1.1//EN" "http://www.w3.org/Graphics/SVG/1.1/DTD/svg11.dtd">
<svg version="1.1" xmlns="http://www.w3.org/2000/svg" xmlns:xlink="http://www.w3.org/1999/xlink" width="36" height="36" viewBox="0 0 36 36">
<path fill="#444" d="M19.585 19.226c-0.96 0-1.674 0.716-1.941 1.863-0.076 0.323-0.115 0.68-0.115 1.065-0.009 1.028 0.269 1.884 0.783 2.402 0.344 0.347 0.784 0.533 1.274 0.533h0.026c1.234 0 2.031-1.157 2.031-2.945 0-0.603-0.099-1.14-0.28-1.581-0.341-0.834-0.973-1.337-1.777-1.337z"></path>
<path fill="#444" d="M35.438 3.556c0-1.653-1.34-2.993-2.993-2.993h-28.889c-1.653 0-2.993 1.34-2.993 2.993v28.888c0 1.653 1.34 2.993 2.993 2.993h28.889c1.653 0 2.993-1.34 2.993-2.993v-28.888zM10.944 19.411h-3.374v2.044h3.179v1.59h-3.179v3.439h-2.076v-8.694h5.45v1.622zM14.188 22.048v4.436h-2.011v-5.969h2.011v1.534zM13.201 19.476h-0.013c-0.598 0-1.015-0.378-1.015-0.928 0-0.568 0.413-0.946 1.028-0.946 0.613 0 1.017 0.368 1.028 0.947 0 0.548-0.422 0.927-1.028 0.927zM14.184 13.799l-1.415-3.23 0.042 4.041h-1.153v-6.326h1.288l1.66 3.868 1.66-3.868h1.264v6.326h-1.129l0.042-4.066-1.415 3.255h-0.843zM19.504 26.646h-0.013c-1.272 0-2.34-0.454-3.088-1.307-0.695-0.793-1.077-1.905-1.077-3.13 0-0.175 0.008-0.347 0.023-0.515 0.214-2.395 1.918-4.026 4.29-4.026 1.308 0 2.397 0.456 3.148 1.319 0.389 0.447 0.678 0.995 0.855 1.607 0.133 0.459 0.203 0.956 0.203 1.469-0 2.826-1.663 4.583-4.34 4.583zM21.974 12.022v2.587h-1.168v-2.587l-2.29-3.739h1.382l1.492 2.679 1.491-2.679h1.382l-2.288 3.739zM30.796 24.111c-0.090 1.25-1.086 2.516-3.662 2.516-0.95 0-1.913-0.227-2.448-0.469l0.374-1.64c0.412 0.183 1.238 0.484 2.222 0.484 1.275 0 1.413-0.641 1.413-0.917 0-0.573-0.497-0.844-1.54-1.201-1.431-0.515-2.218-1.22-2.392-2.145-0.024-0.131-0.037-0.268-0.037-0.408 0-1.585 1.388-2.65 3.454-2.65 0.844 0 1.575 0.125 2.227 0.382l-0.417 1.591c-0.604-0.243-1.206-0.362-1.837-0.362-0.973 0-1.319 0.44-1.319 0.851 0 0.573 0.528 0.771 1.686 1.207l0.055 0.021c1.541 0.573 2.229 1.36 2.229 2.553 0 0.063-0.002 0.125-0.007 0.188z"></path>
</svg>
