<?xml version="1.0" encoding="utf-8"?>
<!-- Generated by IcoMoon.io -->
<!DOCTYPE svg PUBLIC "-//W3C//DTD SVG 1.1//EN" "http://www.w3.org/Graphics/SVG/1.1/DTD/svg11.dtd">
<svg version="1.1" xmlns="http://www.w3.org/2000/svg" xmlns:xlink="http://www.w3.org/1999/xlink" width="36" height="36" viewBox="0 0 36 36">
<path fill="#444" d="M33.694 4.283h-31.387c-0.963 0-1.744 0.315-1.744 1.279v24.412c0 0.963 0.78 2.209 1.744 2.209h31.387c0.962 0 1.744-1.245 1.744-2.209v-24.412c0-0.963-0.782-1.279-1.744-1.279zM6.143 28.927h-2.79v-3.255h2.79v3.255zM6.143 22.418h-2.79v-2.79h2.79v2.79zM6.143 16.372h-2.79v-3.255h2.79v3.255zM6.143 10.328h-2.79v-3.255h2.79v3.255zM24.898 17.137c-0.085 0.2-0.185 0.39-0.3 0.571-1.487 3.099-6.597 6.158-6.597 6.158s-5.11-3.058-6.597-6.158c-0.115-0.181-0.217-0.371-0.302-0.571-0.199-0.471-0.309-0.988-0.309-1.532 0-2.174 1.762-3.937 3.936-3.937 1.364 0 2.565 0.693 3.271 1.747 0.707-1.053 1.908-1.747 3.271-1.747 2.174 0 3.936 1.762 3.936 3.937 0 0.544-0.111 1.061-0.31 1.532zM32.648 28.927h-2.79v-3.255h2.79v3.255zM32.648 22.418h-2.79v-2.79h2.79v2.79zM32.648 16.372h-2.79v-3.255h2.79v3.255zM32.648 10.328h-2.79v-3.255h2.79v3.255z"></path>
</svg>
