<?xml version="1.0" encoding="utf-8"?>
<!-- Generated by IcoMoon.io -->
<!DOCTYPE svg PUBLIC "-//W3C//DTD SVG 1.1//EN" "http://www.w3.org/Graphics/SVG/1.1/DTD/svg11.dtd">
<svg version="1.1" xmlns="http://www.w3.org/2000/svg" xmlns:xlink="http://www.w3.org/1999/xlink" width="36" height="36" viewBox="0 0 36 36">
<path fill="#444" d="M35.405 6.309c0 1.139-0.39 1.674-1.351 1.674h-32.108c-0.961 0-1.351-0.535-1.351-1.674v-2.842c0-1.139 0.39-1.673 1.351-1.673h32.108c0.962 0 1.351 0.534 1.351 1.673v2.842z"></path>
<path fill="#444" d="M35.405 19.42c0 1.139-0.39 1.674-1.351 1.674h-32.108c-0.961 0-1.351-0.535-1.351-1.674v-2.842c0-1.139 0.39-1.673 1.351-1.673h32.108c0.962 0 1.351 0.534 1.351 1.673v2.842z"></path>
<path fill="#444" d="M35.405 32.532c0 1.139-0.39 1.674-1.351 1.674h-32.108c-0.961 0-1.351-0.535-1.351-1.674v-2.842c0-1.139 0.39-1.673 1.351-1.673h32.108c0.962 0 1.351 0.534 1.351 1.673v2.842z"></path>
</svg>
