<?xml version="1.0" encoding="utf-8"?>
<!-- Generated by IcoMoon.io -->
<!DOCTYPE svg PUBLIC "-//W3C//DTD SVG 1.1//EN" "http://www.w3.org/Graphics/SVG/1.1/DTD/svg11.dtd">
<svg version="1.1" xmlns="http://www.w3.org/2000/svg" xmlns:xlink="http://www.w3.org/1999/xlink" width="36" height="36" viewBox="0 0 36 36">
<path fill="#444" d="M17.994 15.634c4.046 0 7.337-3.373 7.337-7.519s-3.291-7.52-7.337-7.52-7.338 3.373-7.338 7.52c0 4.146 3.292 7.519 7.338 7.519z"></path>
<path fill="#444" d="M26.583 15.988l-2.513-0.669c-1.632 1.437-3.751 2.313-6.070 2.318-2.318-0.005-4.437-0.881-6.071-2.318l-2.513 0.669c-2.681 0.747-3.558 1.875-3.34 3.34l2.004 12.738c0.295 1.996 1.495 3.339 3.34 3.339h13.159c1.847 0 3.046-1.343 3.341-3.339l2.003-12.738c0.22-1.466-0.657-2.593-3.34-3.34zM25.227 22.639h-0.001l-9.197 9.199-5.256-5.257c-0.544-0.543-0.545-1.427 0-1.971s1.427-0.545 1.971 0c0 0.001 0.001 0.001 0.001 0.001l3.284 3.285 7.226-7.227c0.545-0.545 1.427-0.545 1.971 0s0.544 1.427 0 1.971z"></path>
</svg>
