<?xml version="1.0" encoding="utf-8"?>
<!-- Generated by IcoMoon.io -->
<!DOCTYPE svg PUBLIC "-//W3C//DTD SVG 1.1//EN" "http://www.w3.org/Graphics/SVG/1.1/DTD/svg11.dtd">
<svg version="1.1" xmlns="http://www.w3.org/2000/svg" xmlns:xlink="http://www.w3.org/1999/xlink" width="36" height="36" viewBox="0 0 36 36">
<path fill="#444" d="M31.738 20.42l3.7-2.419-3.7-2.423 2.646-3.542-4.303-1.010 1.277-4.234-4.39 0.523-0.249-4.415-3.949 1.992-1.742-4.064-3.029 3.22-3.028-3.22-1.741 4.064-3.948-1.992-0.249 4.415-4.389-0.523 1.277 4.234-4.305 1.010 2.648 3.542-3.7 2.423 3.7 2.419-2.648 3.545 4.305 1.013-1.277 4.23 4.389-0.522 0.249 4.416 3.948-1.996 1.741 4.065 3.028-3.222 3.029 3.222 1.742-4.065 3.949 1.996 0.249-4.416 4.39 0.522-1.277-4.23 4.303-1.013-2.646-3.545zM13.511 21.541l-1.372-0.004-2.237-4.537-0.028 0.005-0.014 4.524-1.372-0.004 0.020-7.099 1.373 0.004 2.236 4.541 0.029-0.005 0.013-4.529 1.373 0.004-0.022 7.1zM19.115 15.532l-2.587-0.006-0.004 1.813 2.166 0.006-0.004 1.073-2.166-0.006-0.005 2.063 2.592 0.007-0.001 1.073-3.968-0.012 0.021-7.099 3.957 0.011-0.002 1.077zM26.103 21.573l-1.275-0.004-1.024-4.402-0.029 0.001-1.045 4.395-1.275-0.003-1.377-7.104 1.406 0.004 0.714 4.508 0.029 0.005 1.031-4.508 1.079 0.003 1.010 4.504 0.029-0.004 0.739-4.494 1.397 0.003-1.408 7.097z"></path>
</svg>
