<?xml version="1.0" encoding="utf-8"?>
<!-- Generated by IcoMoon.io -->
<!DOCTYPE svg PUBLIC "-//W3C//DTD SVG 1.1//EN" "http://www.w3.org/Graphics/SVG/1.1/DTD/svg11.dtd">
<svg version="1.1" xmlns="http://www.w3.org/2000/svg" xmlns:xlink="http://www.w3.org/1999/xlink" width="36" height="36" viewBox="0 0 36 36">
<path fill="#444" d="M30.286 5.718c-3.396-3.396-7.84-5.091-12.288-5.091-4.444 0-8.892 1.695-12.282 5.091-6.785 6.782-6.785 17.784 0 24.566 3.39 3.392 7.838 5.089 12.282 5.089 4.448 0 8.892-1.697 12.288-5.089 6.782-6.782 6.782-17.784 0-24.566zM23.687 30.68c-1.799 0.81-3.705 1.222-5.664 1.222-5.412 0-10.349-3.188-12.573-8.117-1.518-3.357-1.635-7.101-0.333-10.549 1.299-3.444 3.865-6.174 7.224-7.69 0.881-0.4 1.803-0.7 2.761-0.904-3.492 4.4-4.304 10.468-1.958 15.668 2.336 5.177 7.401 8.602 13.048 8.892-0.785 0.583-1.622 1.079-2.505 1.478zM24.363 23.514l-2.268-1.649-2.27 1.649 0.868-2.666-2.272-1.649h2.805l0.868-2.668 0.866 2.668h2.803l-2.266 1.649 0.864 2.666zM25.065 12.573l-1.966 1.428 0.75-2.311-1.962-1.427h2.428l0.75-2.309 0.75 2.309h2.43l-1.964 1.427 0.748 2.311-1.964-1.428z"></path>
</svg>
