<?xml version="1.0" encoding="utf-8"?>
<!-- Generated by IcoMoon.io -->
<!DOCTYPE svg PUBLIC "-//W3C//DTD SVG 1.1//EN" "http://www.w3.org/Graphics/SVG/1.1/DTD/svg11.dtd">
<svg version="1.1" xmlns="http://www.w3.org/2000/svg" xmlns:xlink="http://www.w3.org/1999/xlink" width="36" height="36" viewBox="0 0 36 36">
<path fill="#444" d="M31.738 20.42l3.7-2.419-3.7-2.423 2.646-3.542-4.303-1.010 1.277-4.234-4.39 0.523-0.249-4.415-3.949 1.992-1.742-4.064-3.028 3.22-3.028-3.22-1.742 4.064-3.948-1.992-0.25 4.415-4.388-0.523 1.277 4.234-4.305 1.010 2.648 3.542-3.701 2.423 3.701 2.419-2.648 3.545 4.305 1.013-1.277 4.23 4.388-0.522 0.25 4.416 3.948-1.996 1.742 4.065 3.028-3.222 3.028 3.222 1.742-4.065 3.949 1.996 0.249-4.416 4.39 0.522-1.277-4.23 4.303-1.013-2.646-3.545zM16.111 9.931c0-0.995 0.821-1.801 1.835-1.801s1.836 0.807 1.836 1.801v9.625c0 0.994-0.823 1.801-1.836 1.801s-1.835-0.807-1.835-1.801v-9.625zM17.945 27.871c-1.267 0-2.294-1.027-2.294-2.294s1.028-2.294 2.294-2.294c1.267 0 2.295 1.027 2.295 2.294s-1.028 2.294-2.295 2.294z"></path>
</svg>
