<?xml version="1.0" encoding="utf-8"?>
<!-- Generated by IcoMoon.io -->
<!DOCTYPE svg PUBLIC "-//W3C//DTD SVG 1.1//EN" "http://www.w3.org/Graphics/SVG/1.1/DTD/svg11.dtd">
<svg version="1.1" xmlns="http://www.w3.org/2000/svg" xmlns:xlink="http://www.w3.org/1999/xlink" width="36" height="36" viewBox="0 0 36 36">
<path fill="#444" d="M33.694 4.050h-31.387c-0.963 0-1.744 0.78-1.744 1.744v24.413c0 0.963 0.78 1.744 1.744 1.744h31.387c0.962 0 1.744-0.78 1.744-1.744v-24.412c0-0.963-0.782-1.744-1.744-1.744zM6.304 28.865h-3.139v-3.138h3.139v3.138zM6.304 22.639h-3.139v-3.139h3.139v3.139zM6.304 16.413h-3.139v-3.139h3.139v3.139zM6.304 10.229h-3.139v-3.139h3.139v3.139zM25.062 16.641l-3.083 2.765c-0.243 0.218-0.385 0.656-0.317 0.976l0.873 4.112c0.067 0.32-0.109 0.447-0.39 0.283l-3.601-2.077c-0.281-0.164-0.744-0.163-1.026 0l-3.623 2.099c-0.282 0.163-0.454 0.036-0.383-0.281l0.923-4.117c0.070-0.318-0.073-0.753-0.318-0.968l-3.175-2.762c-0.246-0.214-0.182-0.417 0.144-0.451l4.17-0.434c0.324-0.034 0.696-0.306 0.825-0.604l1.669-3.826c0.131-0.299 0.345-0.3 0.478-0.002l1.727 3.851c0.133 0.297 0.508 0.565 0.832 0.596l4.125 0.391c0.325 0.031 0.392 0.234 0.15 0.452zM32.834 28.924h-3.139v-3.139h3.139v3.139zM32.834 22.639h-3.139v-3.139h3.139v3.139zM32.834 16.413h-3.139v-3.139h3.139v3.139zM32.834 10.186h-3.139v-3.139h3.139v3.139z"></path>
</svg>
