<?xml version="1.0" encoding="utf-8"?>
<!-- Generated by IcoMoon.io -->
<!DOCTYPE svg PUBLIC "-//W3C//DTD SVG 1.1//EN" "http://www.w3.org/Graphics/SVG/1.1/DTD/svg11.dtd">
<svg version="1.1" xmlns="http://www.w3.org/2000/svg" xmlns:xlink="http://www.w3.org/1999/xlink" width="36" height="36" viewBox="0 0 36 36">
<path fill="#444" d="M6.33 13.911c0-3.72-0.010-9.75-0.010-9.75s-0.079-1.913 1.295-2.396c1.666-0.568 2.669-0.64 4.406-0.848 2.518-0.302 5.048-0.321 7.578-0.267 0.479 0.010 0.953 0.072 1.428 0.068 0.377-0.004 0.495 0.128 0.493 0.508-0.012 1.562 0.002 3.123 0.014 4.685 0.019 2.4 0.039 4.799 0.075 7.203 0.004 0.321-0.102 0.53-0.354 0.727-1.277 0.997-2.536 2.016-3.813 3.013-0.307 0.242-0.448 0.508-0.443 0.918 0.039 3.152 0.054 6.306 0.079 9.458 0 0.549-0.004 0.574-0.551 0.539-2.976-0.182-5.935-0.458-8.792-1.376-0.027-0.008-0.058-0.013-0.085-0.023-1.198-0.4-1.268-0.495-1.268-1.743 0-3.575 0-7.145 0-10.717h-0.050z"></path>
<path fill="#444" d="M26.414 1.397c1.011 0.164 1.131 0.176 1.985 0.603 1.115 0.553 0.966 2.433 0.966 2.433s0.043 2.644 0.066 4.843c0.052 5.51 0.099 11.018 0.17 16.528 0.008 0.446-0.149 0.709-0.539 0.804-1.287 0.313-2.565 0.731-3.875 0.866-2.18 0.224-4.381 0.257-6.573 0.383-0.431 0.025-0.533-0.145-0.535-0.547-0.006-3.052-0.027-6.103-0.058-9.155 0-0.317 0.091-0.53 0.348-0.731 2.534-1.991 5.056-4.001 7.593-5.989 0.381-0.296 0.543-0.613 0.535-1.096-0.041-2.719-0.058-5.44-0.083-8.156 0-0.24 0-0.483 0-0.785z"></path>
<path fill="#444" d="M6.435 27.055c7.665 2.178 15.345 2.391 23.144 0.634 0.017 0.361 0.058 1.239 0.058 1.239l0.044 3.328c0 0 0.002 1.795-1.225 2.145-1.167 0.41-2.068 0.572-3.51 0.705-2.153 0.197-4.327 0.282-6.49 0.265-3.332-0.027-6.262-0.329-9.499-1.144-0.63-0.16-0.841-0.271-1.461-0.466-1.283-0.41-1.088-2.13-1.088-2.13l-0.021-4.368c0 0 0.043-0.189 0.048-0.207z"></path>
<path fill="#444" d="M22.652 12.63c-0.010-0.222-0.023-0.377-0.027-0.533-0.025-3.539-0.050-7.079-0.075-10.618-0.004-0.624-0.002-0.634 0.597-0.574 0.601 0.062 1.2 0.149 1.805 0.214 0.273 0.031 0.392 0.141 0.392 0.439 0.017 2.874 0.050 5.748 0.064 8.624 0.002 0.164-0.068 0.385-0.189 0.485-0.767 0.636-1.554 1.247-2.337 1.865-0.041 0.035-0.099 0.046-0.23 0.097z"></path>
</svg>
