<?xml version="1.0" encoding="utf-8"?>
<!-- Generated by IcoMoon.io -->
<!DOCTYPE svg PUBLIC "-//W3C//DTD SVG 1.1//EN" "http://www.w3.org/Graphics/SVG/1.1/DTD/svg11.dtd">
<svg version="1.1" xmlns="http://www.w3.org/2000/svg" xmlns:xlink="http://www.w3.org/1999/xlink" width="36" height="36" viewBox="0 0 36 36">
<path fill="#444" d="M28.55 16.338c-2.403-0.306-3.714-0.53-3.714-2.233 0-1.426 0.612-2.762 3.502-2.768l4.412 0.002c1.030 0 1.862-0.816 1.862-1.846s-0.832-1.866-1.862-1.866c0 0-4.375-0.010-4.395-0.010-6.202 0-7.43 3.857-7.43 6.457 0 3.775 1.899 5.341 7.014 5.982 2.517 0.308 3.467 0.755 3.467 2.49 0 1.732-0.926 2.129-4.11 2.129h-0.051v0.002h-4.416c-1.030 0-1.862 0.834-1.862 1.862s0.832 1.866 1.862 1.866h4.465v-0.012c6.229-0.012 8.079-2.537 8.079-5.847 0-4.224-2.321-5.621-6.822-6.209z"></path>
<path fill="#444" d="M11.247 11.355c2.772 0 3.785 2.939 3.785 6.741 0.065 3.318-0.744 6.484-3.847 6.549h-2.945c-3.1-0.065-3.908-3.231-3.843-6.549 0-3.804 1.012-6.743 3.783-6.741h3.065zM11.247 7.588h-3.065c-2.735 0-5.034 1.472-6.304 4.038-0.824 1.658-1.242 3.822-1.246 6.433-0.171 9.455 5.721 10.314 7.532 10.351l0.039 0.002 3.065-0.002c1.809-0.037 7.701-0.895 7.53-10.351-0.016-9.714-5.78-10.471-7.55-10.471z"></path>
</svg>
