<?xml version="1.0" encoding="utf-8"?>
<!-- Generated by IcoMoon.io -->
<!DOCTYPE svg PUBLIC "-//W3C//DTD SVG 1.1//EN" "http://www.w3.org/Graphics/SVG/1.1/DTD/svg11.dtd">
<svg version="1.1" xmlns="http://www.w3.org/2000/svg" xmlns:xlink="http://www.w3.org/1999/xlink" width="36" height="36" viewBox="0 0 36 36">
<path fill="#444" d="M31.568 2.878l-10.428 1.399c-1.115 0.15-1.376 0.924-0.581 1.719l1.873 1.872-4.81 4.81c-0.796 0.796-0.796 2.098 0 2.894l3.009 3.009c0.796 0.797 2.099 0.795 2.894 0l4.81-4.809 1.871 1.872c0.796 0.796 1.57 0.534 1.719-0.581l1.399-10.428c0.15-1.115-0.641-1.906-1.756-1.756z"></path>
<path fill="#444" d="M34.572 26.144l-6.373-3.654c0 0-1.080-0.812-1.986 0.066 0 0-1.39 1.129-2.817 2.813l-0.615 0.801c0 0-0.359 0.455-1.328 0.104 0 0-6.24-2.001-11.917-11.452 0 0-0.497-0.717 0.487-1.677 0 0 1.067-0.857 2.344-2.287 0 0 0.704-0.552 0.308-1.694l-0.117-0.405-2.57-7.152c0 0-0.405-1.051-1.822-1.044l-1.947 0.266c0 0-6.407 0.831-5.585 8.6 0 0 2.977 18.643 23.704 24.948 0 0 8.243 2.778 10.522-3.833 0 0 0.27-1.289 0.556-2.856 0 0 0.228-0.825-0.845-1.544z"></path>
</svg>
