<?xml version="1.0" encoding="utf-8"?>
<!-- Generated by IcoMoon.io -->
<!DOCTYPE svg PUBLIC "-//W3C//DTD SVG 1.1//EN" "http://www.w3.org/Graphics/SVG/1.1/DTD/svg11.dtd">
<svg version="1.1" xmlns="http://www.w3.org/2000/svg" xmlns:xlink="http://www.w3.org/1999/xlink" width="36" height="36" viewBox="0 0 36 36">
<path fill="#444" d="M13.657 9.822c-0.487 0.616-0.38 1.511 0.237 1.998l7.833 6.173-7.876 6.705c-0.597 0.509-0.67 1.407-0.16 2.005 0.509 0.599 1.407 0.671 2.006 0.161l10.519-8.955-10.561-8.323c-0.261-0.205-0.572-0.306-0.88-0.306-0.422 0-0.837 0.186-1.118 0.543z"></path>
<path fill="#444" d="M18 35.404c-9.598 0-17.405-7.808-17.405-17.405 0-9.596 7.808-17.404 17.405-17.404s17.405 7.808 17.405 17.404c0 9.597-7.808 17.405-17.405 17.405zM18 3.583c-7.95 0-14.418 6.468-14.418 14.417 0 7.95 6.467 14.418 14.418 14.418s14.418-6.468 14.418-14.418c0-7.949-6.468-14.417-14.418-14.417z"></path>
</svg>
