<?xml version="1.0" encoding="utf-8"?>
<!-- Generated by IcoMoon.io -->
<!DOCTYPE svg PUBLIC "-//W3C//DTD SVG 1.1//EN" "http://www.w3.org/Graphics/SVG/1.1/DTD/svg11.dtd">
<svg version="1.1" xmlns="http://www.w3.org/2000/svg" xmlns:xlink="http://www.w3.org/1999/xlink" width="36" height="36" viewBox="0 0 36 36">
<path fill="#444" d="M0.795 18c0-9.501 7.703-17.205 17.205-17.205s17.205 7.704 17.205 17.205c0 9.502-7.703 17.205-17.205 17.205s-17.205-7.704-17.205-17.205zM23.418 28.546c0.624-0.792 0.488-1.94-0.304-2.564l-10.055-7.924 10.109-8.606c0.768-0.653 0.86-1.807 0.206-2.573s-1.806-0.861-2.574-0.206l-13.503 11.496 13.555 10.682c0.336 0.264 0.735 0.392 1.13 0.392 0.541 0 1.075-0.238 1.436-0.696z"></path>
</svg>
