<?xml version="1.0" encoding="utf-8"?>
<!-- Generated by IcoMoon.io -->
<!DOCTYPE svg PUBLIC "-//W3C//DTD SVG 1.1//EN" "http://www.w3.org/Graphics/SVG/1.1/DTD/svg11.dtd">
<svg version="1.1" xmlns="http://www.w3.org/2000/svg" xmlns:xlink="http://www.w3.org/1999/xlink" width="36" height="36" viewBox="0 0 36 36">
<path fill="#444" d="M18 0.795c9.501 0 17.205 7.703 17.205 17.205s-7.704 17.205-17.205 17.205c-9.502 0-17.205-7.703-17.205-17.205s7.704-17.205 17.205-17.205zM7.454 23.418c0.792 0.624 1.94 0.488 2.564-0.304l7.924-10.055 8.606 10.109c0.653 0.768 1.807 0.86 2.573 0.206s0.861-1.806 0.206-2.574l-11.496-13.503-10.682 13.555c-0.264 0.336-0.392 0.735-0.392 1.13-0 0.541 0.238 1.075 0.696 1.436z"></path>
</svg>
