<?xml version="1.0" encoding="utf-8"?>
<!-- Generated by IcoMoon.io -->
<!DOCTYPE svg PUBLIC "-//W3C//DTD SVG 1.1//EN" "http://www.w3.org/Graphics/SVG/1.1/DTD/svg11.dtd">
<svg version="1.1" xmlns="http://www.w3.org/2000/svg" xmlns:xlink="http://www.w3.org/1999/xlink" width="36" height="36" viewBox="0 0 36 36">
<path fill="#444" d="M26.178 13.657c-0.616-0.487-1.511-0.38-1.998 0.237l-6.173 7.833-6.705-7.876c-0.509-0.597-1.407-0.67-2.005-0.16-0.599 0.509-0.671 1.407-0.161 2.006l8.955 10.519 8.323-10.561c0.205-0.261 0.306-0.572 0.306-0.88 0-0.422-0.186-0.837-0.543-1.118z"></path>
<path fill="#444" d="M0.596 18c0-9.598 7.808-17.405 17.405-17.405 9.596 0 17.404 7.808 17.404 17.405s-7.808 17.405-17.404 17.405c-9.597 0-17.405-7.808-17.405-17.405zM32.417 18c0-7.95-6.468-14.418-14.417-14.418-7.95 0-14.418 6.467-14.418 14.418s6.468 14.418 14.418 14.418c7.949 0 14.417-6.468 14.417-14.418z"></path>
</svg>
