<?xml version="1.0" encoding="utf-8"?>
<!-- Generated by IcoMoon.io -->
<!DOCTYPE svg PUBLIC "-//W3C//DTD SVG 1.1//EN" "http://www.w3.org/Graphics/SVG/1.1/DTD/svg11.dtd">
<svg version="1.1" xmlns="http://www.w3.org/2000/svg" xmlns:xlink="http://www.w3.org/1999/xlink" width="36" height="36" viewBox="0 0 36 36">
<path fill="#444" d="M2.211 11.968c0.053 0.021 11.414 4.132 11.414 4.132 0.304 0.084 0.63 0.209 0.93 0.215 0.304-0.006 0.628-0.132 0.93-0.215 0 0 11.361-4.111 11.415-4.132 1.492-0.54 1.584-0.467 1.584-1.484v-1.155c0-0.769-0.623-1.393-1.393-1.393h-25.072c-0.771 0-1.393 0.623-1.393 1.393v1.155c0 1.017 0.092 0.945 1.584 1.484z"></path>
<path fill="#444" d="M35.167 26.771c-0.064-0.067-0.749-0.798-1.854-1.719 0.414-1.492 0.209-4.148-3.067-5.809-0.794-0.402-1.534-0.683-2.28-0.851-0.006 0-0.010-0.002-0.013-0.003-0.164-0.034-0.328-0.066-0.49-0.091-0.018-0.002-0.034-0.005-0.053-0.008-0.149-0.021-0.299-0.039-0.45-0.051-0.029-0.002-0.058-0.006-0.087-0.008-0.175-0.011-0.353-0.019-0.532-0.019-1.377 0-2.89 0.366-4.851 1.104-0.551 0.207-1.142 0.445-1.778 0.715l-1.799 0.782 1.863 0.662c0.011 0.002 1.435 0.538 4.267 3.997 0.116 0.143 0.235 0.276 0.357 0.406 0.024 0.026 0.048 0.050 0.071 0.076 1.261 1.316 2.786 2.013 4.349 2.013 0.641 0 1.288-0.119 1.928-0.358 0.724-0.273 1.356-0.694 1.807-1.174 0.909 0.782 1.471 1.375 1.483 1.388 0.149 0.162 0.355 0.244 0.564 0.244 0.090 0 0.185-0.016 0.273-0.048 0.090-0.034 0.178-0.085 0.252-0.159 0.31-0.289 0.329-0.774 0.040-1.086z"></path>
<path fill="#444" d="M19.283 22.728l-1.822-0.647c-0.521-0.186-0.877-0.672-0.895-1.224s0.304-1.060 0.811-1.282l1.807-0.784c0.644-0.275 1.261-0.524 1.833-0.737 2.19-0.824 3.831-1.19 5.324-1.19 0.731 0 1.433 0.087 2.145 0.267v-3.239c-0.011-0.223-0.128-0.424-0.333-0.522-0.21-0.104-0.347-0.010-0.649 0.069l-12.1 4.349c-0.177 0.066-0.585 0.17-0.845 0.17-0.27 0-0.53-0.050-0.774-0.132l-12.175-4.387c-0.3-0.079-0.439-0.173-0.647-0.069-0.202 0.098-0.321 0.299-0.334 0.522v9.647c0 1.539 1.247 2.787 2.786 2.787h19.586c-2.308-2.819-3.565-3.52-3.717-3.597z"></path>
</svg>
