<?xml version="1.0" encoding="utf-8"?>
<!-- Generated by IcoMoon.io -->
<!DOCTYPE svg PUBLIC "-//W3C//DTD SVG 1.1//EN" "http://www.w3.org/Graphics/SVG/1.1/DTD/svg11.dtd">
<svg version="1.1" xmlns="http://www.w3.org/2000/svg" xmlns:xlink="http://www.w3.org/1999/xlink" width="36" height="36" viewBox="0 0 36 36">
<path fill="#444" d="M19.87 8.916c-3.915 0-7.26 2.416-8.642 5.835 0.806 0.367 1.462 0.945 1.888 1.715 0.763 1.376 0.652 3.041-0.303 4.571l-1.086 1.736c1.594 2.855 4.641 4.788 8.143 4.788 5.149 0 9.323-4.174 9.323-9.323s-4.174-9.323-9.323-9.323zM19.666 17.305c0.082 0.012 0.166 0.024 0.255 0.035 2.538 0.319 3.499 1.096 3.499 2.97 0 1.246-0.381 2.766-2.781 3.192v0.99c0 0.51-0.448 0.925-0.96 0.925-0.51 0-0.96-0.415-0.96-0.925v-0.972h-1.22c-0.513 0-0.924-0.471-0.924-0.983 0-0.51 0.415-0.966 0.927-0.966l2.25-0.050c1.458-0.003 1.706-0.517 1.706-1.222 0-0.638-0.385-0.861-1.090-0.996-0.082-0.012-0.139-0.026-0.229-0.037-2.54-0.319-3.395-1.096-3.395-2.97 0-1.246 0.534-2.767 2.934-3.193v-0.99c0-0.511 0.448-0.924 0.96-0.924s0.96 0.414 0.96 0.924v0.846h0.91c0.512 0 0.925 0.535 0.925 1.045s-0.412 1.017-0.925 1.017l-2.248 0.056c-1.458 0.003-1.697 0.52-1.697 1.225-0.001 0.639 0.395 0.866 1.102 1.002z"></path>
<path fill="#444" d="M19.82 2.038c-8.432 0-15.33 6.602-15.899 14.762h-1.98c-1.557 0-2.156 1.152-1.331 2.474l3.374 5.433c0.826 1.321 2.176 1.341 3.001 0.020l3.374-5.461c0.825-1.321 0.226-2.465-1.331-2.465h-1.314c0.561-6.24 5.772-10.978 12.103-10.978 6.701 0 12.155 5.489 12.155 12.192 0 6.701-5.452 12.173-12.155 12.173-4.018 0-7.583-1.951-9.799-4.964l-0.633 1.018c-0.516 0.825-1.189 1.446-1.954 1.839 2.923 3.604 7.383 5.91 12.385 5.91 8.803 0 15.94-7.173 15.94-15.976s-7.137-15.976-15.939-15.976z"></path>
</svg>
