<?xml version="1.0" encoding="utf-8"?>
<!-- Generated by IcoMoon.io -->
<!DOCTYPE svg PUBLIC "-//W3C//DTD SVG 1.1//EN" "http://www.w3.org/Graphics/SVG/1.1/DTD/svg11.dtd">
<svg version="1.1" xmlns="http://www.w3.org/2000/svg" xmlns:xlink="http://www.w3.org/1999/xlink" width="36" height="36" viewBox="0 0 36 36">
<path fill="#444" d="M18 0.795c-9.503 0-17.205 7.703-17.205 17.205s7.702 17.205 17.205 17.205 17.205-7.703 17.205-17.205-7.702-17.205-17.205-17.205zM17.496 16.165c0.135 0.020 0.272 0.040 0.42 0.058 4.181 0.525 5.327 1.804 5.327 4.889 0 2.051-1.29 4.554-5.010 5.258v1.628c0 0.841-0.553 1.523-1.395 1.523s-1.395-0.682-1.395-1.523v-1.86h-1.511c-0.843 0-1.521-0.646-1.521-1.488 0-0.84 0.681-1.51 1.525-1.51l3.703-0.058c2.402-0.005 2.802-0.838 2.802-1.999 0-1.052-0.642-1.411-1.803-1.634-0.136-0.020-0.249-0.037-0.396-0.055-4.181-0.525-6.127-1.804-6.127-4.889 0-2.050 0.538-4.553 4.258-5.256v-1.629c0-0.841 0.552-1.523 1.395-1.523s1.395 0.683 1.395 1.523v1.313h3.015c0.843 0 1.522 0.92 1.522 1.761 0 0.84-0.679 1.676-1.522 1.676l-3.7 0.111c-2.402 0.005-2.797 0.865-2.797 2.026 0.001 1.052 0.654 1.435 1.816 1.658z"></path>
</svg>
