<?xml version="1.0" encoding="utf-8"?>
<!-- Generated by IcoMoon.io -->
<!DOCTYPE svg PUBLIC "-//W3C//DTD SVG 1.1//EN" "http://www.w3.org/Graphics/SVG/1.1/DTD/svg11.dtd">
<svg version="1.1" xmlns="http://www.w3.org/2000/svg" xmlns:xlink="http://www.w3.org/1999/xlink" width="36" height="36" viewBox="0 0 36 36">
<path fill="#444" d="M33.877 27.547l-2.514-0.003c0.701-0.553 1.146-1.409 1.146-2.37v-16.828c0-1.667-1.34-3.005-3.006-3.005h-23.002c-1.667 0-3.008 1.337-3.008 3.005v16.828c0 0.94 0.425 1.771 1.099 2.324l-2.465-0.012c-0.862 0-1.562 0.707-1.563 1.57-0.001 0.863 0.699 1.562 1.561 1.562l31.751 0.042c0.863 0 1.561-0.69 1.563-1.554 0.001-0.863-0.697-1.556-1.561-1.559zM5.306 16.92v-8.575c0-0.666 0.528-1.191 1.194-1.191h23.002c0.664 0 1.193 0.525 1.193 1.191v16.828c0 0.666-0.529 1.196-1.193 1.196h-23.002c-0.666 0-1.194-0.53-1.194-1.196v-8.254z"></path>
<path fill="#444" d="M27.991 9.025h-19.982c-0.5 0-0.905 0.404-0.905 0.906v13.81c0 0.5 0.404 0.906 0.905 0.906h19.982c0.499 0 0.905-0.406 0.905-0.906v-13.81c0-0.501-0.406-0.906-0.905-0.906zM15.022 16.814c-0.135 0.136-0.313 0.203-0.489 0.203s-0.354-0.067-0.489-0.203l-3.021-3.024-1.22 1.217-1.247-4.658 4.658 1.25-1.217 1.215 3.024 3.024c0.269 0.271 0.269 0.707 0 0.976z"></path>
</svg>
