<?xml version="1.0" encoding="utf-8"?>
<!-- Generated by IcoMoon.io -->
<!DOCTYPE svg PUBLIC "-//W3C//DTD SVG 1.1//EN" "http://www.w3.org/Graphics/SVG/1.1/DTD/svg11.dtd">
<svg version="1.1" xmlns="http://www.w3.org/2000/svg" xmlns:xlink="http://www.w3.org/1999/xlink" width="36" height="36" viewBox="0 0 36 36">
<path fill="#444" d="M33.876 27.547l-2.512-0.002c0.702-0.552 1.154-1.408 1.154-2.37v-16.829c0-1.666-1.352-3.018-3.017-3.018h-23.002c-1.668 0-3.018 1.352-3.018 3.018v16.829c0 0.94 0.43 1.779 1.105 2.333l-2.461-0.004c-0.863 0-1.562 0.698-1.563 1.561s0.698 1.563 1.562 1.565l31.75 0.044c0.862 0 1.562-0.698 1.563-1.561 0.001-0.862-0.697-1.563-1.561-1.566zM5.293 16.92v-8.575c0-0.666 0.541-1.207 1.207-1.207h23.002c0.664 0 1.207 0.541 1.207 1.207v16.829c0 0.666-0.543 1.207-1.207 1.207h-23.002c-0.666 0-1.207-0.541-1.207-1.207v-8.254z"></path>
<path fill="#444" d="M27.991 9.024h-19.981c-0.502 0-0.907 0.405-0.907 0.906v13.81c0 0.5 0.405 0.905 0.907 0.905h19.981c0.5 0 0.906-0.405 0.906-0.905v-13.81c0-0.501-0.406-0.906-0.906-0.906zM21.043 17.314c-0.46 1.085-3.044 4.198-3.044 4.198s-2.581-3.113-3.042-4.198c-0.092-0.193-0.165-0.397-0.22-0.607 0-0.001 0-0.004 0-0.006-0.013-0.051-0.026-0.103-0.036-0.155-0.001-0.004-0.001-0.007-0.002-0.010-0.010-0.053-0.020-0.105-0.029-0.159 0-0.001 0-0.002 0-0.004-0.025-0.168-0.039-0.337-0.039-0.508 0-1.805 1.415-3.278 3.196-3.367 0.040-0.002 0.079-0.002 0.119-0.004 0.019 0 0.036-0.001 0.054-0.001 0.091 0 0.179 0.005 0.268 0.011 1.737 0.137 3.102 1.588 3.102 3.361-0 0.519-0.116 1.009-0.326 1.45z"></path>
<path fill="#444" d="M18 14.291c-0.867 0-1.571 0.703-1.571 1.571 0 0.867 0.703 1.571 1.571 1.571s1.571-0.704 1.571-1.571c0-0.868-0.703-1.571-1.571-1.571z"></path>
</svg>
