<?xml version="1.0" encoding="utf-8"?>
<!-- Generated by IcoMoon.io -->
<!DOCTYPE svg PUBLIC "-//W3C//DTD SVG 1.1//EN" "http://www.w3.org/Graphics/SVG/1.1/DTD/svg11.dtd">
<svg version="1.1" xmlns="http://www.w3.org/2000/svg" xmlns:xlink="http://www.w3.org/1999/xlink" width="36" height="36" viewBox="0 0 36 36">
<path fill="#444" d="M33.877 27.548l-2.515-0.004c0.701-0.553 1.146-1.409 1.146-2.371v-16.828c0-1.667-1.341-3.004-3.008-3.004h-23.001c-1.667 0-3.008 1.337-3.008 3.004v16.828c0 0.94 0.425 1.771 1.099 2.325l-2.465-0.012c-0.863 0-1.563 0.708-1.564 1.569-0.001 0.863 0.698 1.563 1.561 1.563l31.751 0.041c0.862 0 1.562-0.691 1.563-1.554s-0.698-1.557-1.561-1.558zM5.306 16.919v-8.575c0-0.666 0.528-1.191 1.194-1.191h23.001c0.665 0 1.194 0.525 1.194 1.191v16.828c0 0.666-0.529 1.197-1.194 1.197h-23.001c-0.666 0-1.194-0.531-1.194-1.197v-8.254z"></path>
<path fill="#444" d="M27.99 9.024h-19.981c-0.501 0-0.905 0.406-0.905 0.906v13.811c0 0.499 0.404 0.905 0.905 0.905h19.981c0.5 0 0.906-0.406 0.906-0.905v-13.811c0-0.5-0.406-0.906-0.906-0.906zM23.107 17.072c-0.045 0.044-0.105 0.073-0.173 0.077h-1.136v3.82c0 0.283-0.231 0.515-0.512 0.515h-2.32v-2.306h-1.781v2.306h-2.319c-0.282 0-0.515-0.231-0.515-0.515v-3.821h-1.112c-0.076 0-0.145-0.031-0.196-0.082-0.050-0.050-0.081-0.117-0.081-0.194s0.030-0.144 0.078-0.194l4.599-3.732c0.12-0.097 0.276-0.145 0.434-0.145 0.156 0 0.312 0.048 0.433 0.145l1.648 1.338v-1.175c0-0.17 0.138-0.309 0.308-0.309h1.027c0.171 0 0.309 0.139 0.309 0.309v2.508l1.313 1.066c0.047 0.050 0.076 0.116 0.076 0.191s-0.030 0.145-0.080 0.196z"></path>
</svg>
