<?xml version="1.0" encoding="utf-8"?>
<!-- Generated by IcoMoon.io -->
<!DOCTYPE svg PUBLIC "-//W3C//DTD SVG 1.1//EN" "http://www.w3.org/Graphics/SVG/1.1/DTD/svg11.dtd">
<svg version="1.1" xmlns="http://www.w3.org/2000/svg" xmlns:xlink="http://www.w3.org/1999/xlink" width="36" height="36" viewBox="0 0 36 36">
<path fill="#444" d="M33.877 27.547l-2.514-0.003c0.701-0.553 1.146-1.409 1.146-2.37v-16.828c0-1.667-1.34-3.005-3.006-3.005h-23.002c-1.667 0-3.008 1.337-3.008 3.005v16.828c0 0.94 0.425 1.771 1.099 2.324l-2.465-0.012c-0.862 0-1.562 0.707-1.563 1.57-0.001 0.863 0.699 1.562 1.561 1.562l31.751 0.042c0.863 0 1.561-0.69 1.563-1.554 0.001-0.863-0.697-1.556-1.561-1.559zM5.306 16.92v-8.575c0-0.666 0.528-1.191 1.194-1.191h23.002c0.664 0 1.193 0.525 1.193 1.191v16.828c0 0.666-0.529 1.196-1.193 1.196h-23.002c-0.666 0-1.194-0.53-1.194-1.196v-8.254z"></path>
<path fill="#444" d="M18.185 13.397c-0.792-0.057-1.521 0.432-1.625 1.183-0.074 0.528-0.015 1.072-0.015 1.618h2.996c0-0.47 0.016-0.93-0.002-1.39-0.030-0.731-0.644-1.36-1.354-1.411z"></path>
<path fill="#444" d="M27.991 9.025h-19.982c-0.5 0-0.905 0.404-0.905 0.906v13.81c0 0.5 0.404 0.906 0.905 0.906h19.982c0.499 0 0.905-0.406 0.905-0.906v-13.81c0-0.501-0.406-0.906-0.905-0.906zM21.435 20.916c0 0.254-0.091 0.344-0.344 0.344-2.060 0-4.117 0-6.177 0-0.263 0-0.35-0.087-0.35-0.356-0.001-1.441-0.001-2.882 0-4.323 0-0.274 0.092-0.366 0.364-0.368 0.19-0.002 0.378 0 0.614 0 0-0.547-0.038-1.063 0.006-1.572 0.102-1.192 1.090-2.153 2.24-2.226 1.264-0.080 2.364 0.71 2.612 1.93 0.091 0.45 0.058 0.928 0.079 1.393 0.007 0.15 0 0.3 0 0.475 0.214 0 0.408-0.002 0.604 0 0.252 0.002 0.351 0.097 0.351 0.342 0.001 1.456 0.001 2.909 0 4.362z"></path>
</svg>
