<?xml version="1.0" encoding="utf-8"?>
<!-- Generated by IcoMoon.io -->
<!DOCTYPE svg PUBLIC "-//W3C//DTD SVG 1.1//EN" "http://www.w3.org/Graphics/SVG/1.1/DTD/svg11.dtd">
<svg version="1.1" xmlns="http://www.w3.org/2000/svg" xmlns:xlink="http://www.w3.org/1999/xlink" width="36" height="36" viewBox="0 0 36 36">
<path fill="#444" d="M33.876 27.547l-2.512-0.004c0.701-0.553 1.145-1.409 1.145-2.37v-16.828c0-1.669-1.34-3.005-3.007-3.005h-23.001c-1.668 0-3.008 1.336-3.008 3.005v16.828c0 0.939 0.424 1.77 1.098 2.324l-2.464-0.012c-0.863 0-1.563 0.707-1.564 1.57-0.001 0.862 0.698 1.56 1.561 1.562l31.75 0.042c0.863 0 1.562-0.692 1.565-1.554 0-0.863-0.699-1.558-1.562-1.559zM5.306 16.919v-8.573c0-0.666 0.528-1.191 1.195-1.191h23.001c0.665 0 1.194 0.525 1.194 1.191v16.828c0 0.665-0.529 1.196-1.194 1.196h-23.001c-0.666 0-1.195-0.532-1.195-1.196v-8.255z"></path>
<path fill="#444" d="M27.99 9.023h-5.151v4.479h-1.707v-4.479h-2.278v10.173h-1.709v-10.173h-2.277v2.486h-1.709v-2.486h-5.151c-0.5 0-0.905 0.406-0.905 0.907v13.81c0 0.5 0.405 0.906 0.905 0.906h5.151v-9.72h1.709v9.72h2.277v-2.033h1.709v2.033h2.278v-7.727h1.707v7.727h5.151c0.501 0 0.906-0.406 0.906-0.906v-13.81c-0-0.501-0.404-0.907-0.906-0.907zM14.868 14.072h-1.709c-0.471 0-0.854-0.383-0.854-0.855 0-0.471 0.383-0.854 0.854-0.854h1.709c0.472 0 0.854 0.383 0.854 0.854 0 0.472-0.383 0.855-0.854 0.855zM18.854 21.759h-1.709c-0.471 0-0.853-0.383-0.853-0.855 0-0.471 0.382-0.852 0.853-0.852h1.709c0.471 0 0.854 0.381 0.854 0.852 0 0.472-0.383 0.855-0.854 0.855zM22.839 16.064h-1.707c-0.472 0-0.855-0.381-0.855-0.854 0-0.471 0.383-0.854 0.855-0.854h1.707c0.472 0 0.855 0.383 0.855 0.854-0 0.472-0.383 0.854-0.855 0.854z"></path>
</svg>
