<?xml version="1.0" encoding="utf-8"?>
<!-- Generated by IcoMoon.io -->
<!DOCTYPE svg PUBLIC "-//W3C//DTD SVG 1.1//EN" "http://www.w3.org/Graphics/SVG/1.1/DTD/svg11.dtd">
<svg version="1.1" xmlns="http://www.w3.org/2000/svg" xmlns:xlink="http://www.w3.org/1999/xlink" width="36" height="36" viewBox="0 0 36 36">
<path fill="#444" d="M33.877 27.548l-2.516-0.004c0.702-0.553 1.147-1.409 1.147-2.371v-16.828c0-1.667-1.34-3.004-3.007-3.004h-23.001c-1.668 0-3.008 1.337-3.008 3.004v16.828c0 0.94 0.425 1.771 1.099 2.325l-2.465-0.012c-0.863 0-1.563 0.708-1.564 1.569-0.001 0.863 0.698 1.563 1.561 1.563l31.75 0.041c0.863 0 1.561-0.691 1.563-1.554 0.001-0.863-0.698-1.557-1.561-1.558zM5.306 16.919v-8.575c0-0.666 0.529-1.191 1.195-1.191h23.001c0.665 0 1.194 0.525 1.194 1.191v16.828c0 0.666-0.529 1.197-1.194 1.197h-23.001c-0.666 0-1.195-0.531-1.195-1.197v-8.254z"></path>
<path fill="#444" d="M19.195 20.272h-2.805c1.474 1.405 3.294 2.449 5.318 2.99-0.954-0.731-1.807-1.752-2.513-2.99z"></path>
<path fill="#444" d="M24.583 11.029v-2.004h-6.807c-0.074 0.651-0.123 1.321-0.133 2.004h6.94z"></path>
<path fill="#444" d="M23.203 20.272h-3.311c0.993 1.632 2.255 2.815 3.669 3.335 0.337 0.038 0.678 0.057 1.020 0.067v-2.059c-0.696-0.11-1.248-0.653-1.379-1.343z"></path>
<path fill="#444" d="M24.583 11.65h-6.94c0.044 3.047 0.754 5.848 1.899 8.003h3.662c0.129-0.693 0.682-1.232 1.379-1.343v-6.66z"></path>
<path fill="#444" d="M12.56 11.65c0.077 3.076 1.281 5.879 3.219 8.003h3.081c-1.115-2.205-1.793-4.993-1.836-8.003h-4.464z"></path>
<path fill="#444" d="M25.202 18.325c0.656 0.14 1.17 0.666 1.295 1.33h2.401v-8.004h-3.695v6.675z"></path>
<path fill="#444" d="M27.992 9.024h-2.79v2.005h3.695v-1.1c0-0.501-0.406-0.906-0.905-0.906z"></path>
<path fill="#444" d="M25.202 21.601v2.073c0.345-0.008 0.685-0.030 1.020-0.065 0.978-0.36 1.881-1.044 2.675-1.967v-1.371h-2.401c-0.124 0.662-0.639 1.188-1.295 1.33z"></path>
<path fill="#444" d="M10.899 11.34c0-0.79 0.072-1.562 0.2-2.317h-3.089c-0.501 0-0.905 0.404-0.905 0.906v13.81c0 0.5 0.404 0.906 0.905 0.906h12.564c-5.607-1.824-9.675-7.096-9.675-13.305z"></path>
<path fill="#444" d="M17.023 11.029c0.010-0.682 0.058-1.35 0.131-2.004h-4.375c-0.125 0.65-0.203 1.32-0.22 2.004h4.464z"></path>
</svg>
