<?xml version="1.0" encoding="utf-8"?>
<!-- Generated by IcoMoon.io -->
<!DOCTYPE svg PUBLIC "-//W3C//DTD SVG 1.1//EN" "http://www.w3.org/Graphics/SVG/1.1/DTD/svg11.dtd">
<svg version="1.1" xmlns="http://www.w3.org/2000/svg" xmlns:xlink="http://www.w3.org/1999/xlink" width="36" height="36" viewBox="0 0 36 36">
<path fill="#444" d="M33.876 27.548l-2.514-0.003c0.701-0.552 1.146-1.409 1.146-2.37v-16.828c0-1.668-1.341-3.005-3.006-3.005h-23.003c-1.668 0-3.007 1.338-3.007 3.005v16.828c0 0.94 0.425 1.789 1.099 2.342l-2.465 0.005c-0.863 0-1.562 0.689-1.564 1.553s0.698 1.553 1.562 1.555l31.749 0.032c0.863 0 1.562-0.691 1.563-1.553 0.001-0.864-0.697-1.558-1.561-1.559zM5.306 16.92v-8.574c0-0.667 0.528-1.227 1.194-1.227h23.003c0.664 0 1.193 0.559 1.193 1.227v16.828c0 0.665-0.529 1.196-1.192 1.196h-23.003c-0.666 0-1.194-0.531-1.194-1.196v-8.254z"></path>
<path fill="#444" d="M27.992 9.024h-19.983c-0.5 0-0.905 0.404-0.905 0.906v13.81c0 0.5 0.405 0.905 0.905 0.905h19.983c0.5 0 0.905-0.405 0.905-0.905v-13.81c0-0.502-0.405-0.906-0.905-0.906zM24.268 21.008c-0.908 0.005-3.162 0.032-5.54 0.048l2.903-5.31c0.18-0.329 0.059-0.743-0.271-0.923s-0.743-0.060-0.923 0.271l-3.265 5.971c-2.34 0.009-4.543 0.001-5.437-0.056-0.484-0.032-0.624-0.682-0.624-0.683 0-3.805 3.085-6.89 6.89-6.89 3.804 0 6.888 3.085 6.888 6.89-0 0.001-0.141 0.681-0.621 0.683z"></path>
</svg>
