<?xml version="1.0" encoding="utf-8"?>
<!-- Generated by IcoMoon.io -->
<!DOCTYPE svg PUBLIC "-//W3C//DTD SVG 1.1//EN" "http://www.w3.org/Graphics/SVG/1.1/DTD/svg11.dtd">
<svg version="1.1" xmlns="http://www.w3.org/2000/svg" xmlns:xlink="http://www.w3.org/1999/xlink" width="36" height="36" viewBox="0 0 36 36">
<path fill="#444" d="M33.876 27.548l-2.514-0.004c0.701-0.552 1.146-1.409 1.146-2.37v-16.828c0-1.668-1.341-3.005-3.006-3.005h-23.003c-1.668 0-3.007 1.338-3.007 3.005v16.828c0 0.94 0.425 1.789 1.099 2.342l-2.465 0.005c-0.863 0-1.562 0.689-1.564 1.553s0.698 1.553 1.562 1.555l31.749 0.032c0.863 0 1.562-0.691 1.563-1.553 0.001-0.864-0.697-1.558-1.561-1.559zM30.694 19.515v5.659c0 0.665-0.529 1.196-1.192 1.196h-23.003c-0.666 0-1.194-0.531-1.194-1.196v-16.828c0-0.667 0.528-1.227 1.194-1.227h23.003c0.664 0 1.193 0.559 1.193 1.227v11.17z"></path>
<path fill="#444" d="M28.135 9.009h-20.261c-0.464 0-0.839 0.376-0.839 0.839v13.972c0 0.464 0.375 0.839 0.839 0.839h5.916c-0.010-0.048-0.019-0.097-0.026-0.147l-0.86-5.466c-0.094-0.629 0.282-1.114 1.433-1.434l1.079-0.287c0.701 0.617 1.61 0.992 2.605 0.994 0.996-0.002 1.904-0.377 2.605-0.994l1.079 0.287c1.152 0.32 1.527 0.805 1.433 1.434l-0.859 5.466c-0.008 0.050-0.017 0.099-0.027 0.147h5.883c0.461 0 0.837-0.374 0.837-0.839v-13.972c0-0.463-0.376-0.839-0.837-0.839zM18.018 17.46c-1.737 0-3.149-1.448-3.149-3.227s1.412-3.228 3.149-3.228c1.736 0 3.148 1.448 3.148 3.228s-1.412 3.227-3.148 3.227z"></path>
</svg>
