<?xml version="1.0" encoding="utf-8"?>
<!-- Generated by IcoMoon.io -->
<!DOCTYPE svg PUBLIC "-//W3C//DTD SVG 1.1//EN" "http://www.w3.org/Graphics/SVG/1.1/DTD/svg11.dtd">
<svg version="1.1" xmlns="http://www.w3.org/2000/svg" xmlns:xlink="http://www.w3.org/1999/xlink" width="36" height="36" viewBox="0 0 36 36">
<path fill="#444" d="M34.389 27.854l-2.593-0.003c0.725-0.571 1.192-1.453 1.192-2.447v-17.373c0-1.72-1.395-3.115-3.115-3.115h-23.744c-1.721 0-3.115 1.395-3.115 3.115v17.373c0 0.971 0.444 1.836 1.141 2.408l-2.54-0.004c-0.891-0-1.613 0.72-1.614 1.611-0.001 0.892 0.72 1.615 1.612 1.616l32.774 0.045c0.89 0 1.613-0.721 1.614-1.611s-0.721-1.615-1.611-1.616zM4.883 16.884v-8.852c0-0.687 0.559-1.246 1.246-1.246h23.744c0.686 0 1.246 0.559 1.246 1.246v17.373c0 0.687-0.56 1.246-1.246 1.246h-23.744c-0.688 0-1.246-0.559-1.246-1.246v-8.521z"></path>
<path fill="#444" d="M16.549 14.47c-0.058-0.005-0.116-0.008-0.176-0.008-0.973 0-1.76 0.787-1.76 1.76 0 0.911 0.693 1.661 1.579 1.751 0.058 0.006 0.117 0.009 0.177 0.009 0.972 0 1.76-0.789 1.76-1.76 0-0.911-0.693-1.66-1.58-1.752z"></path>
<path fill="#444" d="M22.547 19.663c-0.026-0.003-0.054-0.004-0.081-0.004-0.454 0-0.823 0.369-0.823 0.822 0 0.427 0.324 0.777 0.737 0.819 0.027 0.003 0.056 0.004 0.083 0.004 0.454 0 0.821-0.367 0.821-0.823 0-0.426-0.322-0.775-0.737-0.818z"></path>
<path fill="#444" d="M28.314 8.734h-20.627c-0.516 0-0.935 0.418-0.935 0.934v14.256c0 0.515 0.418 0.935 0.935 0.935h20.627c0.516 0 0.935-0.42 0.935-0.935v-14.256c-0-0.516-0.418-0.934-0.935-0.934zM19.806 19.149l-0.506 0.505c-0.1 0.099-0.273 0.111-0.384 0.026l-0.252-0.19v0.003l-0.525-0.399c-0.3 0.185-0.634 0.324-0.988 0.408l-0.132 0.964c-0.019 0.138-0.148 0.253-0.289 0.253h-0.718c-0.14 0-0.272-0.115-0.29-0.253l-0.132-0.964c-0.353-0.084-0.687-0.222-0.987-0.409l-0.773 0.588c-0.057 0.042-0.128 0.062-0.198 0.056-0.070-0.004-0.14-0.031-0.189-0.081l-0.506-0.506c-0.1-0.099-0.111-0.272-0.026-0.384l0.588-0.774c-0.186-0.301-0.325-0.634-0.409-0.989l-0.964-0.132c-0.138-0.019-0.254-0.15-0.254-0.289v-0.716c0-0.14 0.116-0.27 0.254-0.29l0.964-0.131c0.085-0.356 0.223-0.688 0.409-0.99l-0.588-0.774c-0.085-0.112-0.074-0.285 0.025-0.384l0.507-0.506c0.098-0.1 0.272-0.11 0.383-0.026l0.251 0.19v-0.001l0.526 0.399c0.3-0.186 0.633-0.325 0.987-0.409l0.132-0.963c0.018-0.14 0.15-0.253 0.29-0.253h0.718c0.141 0 0.27 0.114 0.289 0.253l0.132 0.963c0.353 0.084 0.686 0.222 0.988 0.409l0.772-0.588c0.056-0.042 0.128-0.061 0.198-0.056 0.071 0.004 0.138 0.032 0.19 0.082l0.505 0.506c0.099 0.099 0.111 0.272 0.025 0.384l-0.587 0.774c0.185 0.301 0.325 0.634 0.409 0.99l0.964 0.131c0.138 0.020 0.252 0.15 0.252 0.29v0.716c0 0.14-0.114 0.272-0.252 0.289l-0.964 0.132c-0.084 0.355-0.224 0.688-0.409 0.989l0.587 0.774c0.086 0.113 0.074 0.286-0.024 0.385zM24.566 20.648c0 0.066-0.053 0.126-0.118 0.134l-0.45 0.063c-0.040 0.166-0.105 0.322-0.192 0.463l0.274 0.361c0.040 0.053 0.035 0.133-0.011 0.18l-0.237 0.237c-0.047 0.047-0.127 0.052-0.179 0.011l-0.118-0.089v0.001l-0.245-0.186c-0.141 0.087-0.298 0.152-0.462 0.191l-0.063 0.449c-0.009 0.066-0.070 0.119-0.136 0.119h-0.335c-0.066 0-0.126-0.054-0.135-0.119l-0.062-0.451c-0.164-0.039-0.321-0.104-0.462-0.19l-0.361 0.274c-0.026 0.020-0.059 0.028-0.092 0.026-0.033-0.003-0.065-0.014-0.088-0.037l-0.236-0.237c-0.047-0.047-0.052-0.128-0.012-0.18l0.273-0.361c-0.087-0.141-0.151-0.298-0.19-0.463l-0.45-0.063c-0.065-0.008-0.118-0.068-0.118-0.134v-0.334c0-0.066 0.053-0.127 0.118-0.136l0.45-0.061c0.039-0.167 0.104-0.322 0.19-0.463l-0.273-0.361c-0.040-0.053-0.035-0.133 0.012-0.179l0.236-0.236c0.045-0.047 0.127-0.053 0.178-0.013l0.118 0.090v-0.001l0.246 0.186c0.141-0.087 0.298-0.152 0.462-0.192l0.062-0.449c0.009-0.065 0.069-0.119 0.135-0.119h0.335c0.066 0 0.127 0.054 0.136 0.119l0.063 0.449c0.164 0.040 0.32 0.105 0.462 0.192l0.361-0.275c0.026-0.019 0.059-0.028 0.092-0.026 0.032 0.001 0.064 0.015 0.088 0.039l0.236 0.236c0.047 0.046 0.053 0.126 0.013 0.179l-0.274 0.361c0.087 0.141 0.152 0.296 0.192 0.463l0.45 0.061c0.064 0.009 0.118 0.070 0.118 0.136v0.334z"></path>
</svg>
