<?xml version="1.0" encoding="utf-8"?>
<!-- Generated by IcoMoon.io -->
<!DOCTYPE svg PUBLIC "-//W3C//DTD SVG 1.1//EN" "http://www.w3.org/Graphics/SVG/1.1/DTD/svg11.dtd">
<svg version="1.1" xmlns="http://www.w3.org/2000/svg" xmlns:xlink="http://www.w3.org/1999/xlink" width="36" height="36" viewBox="0 0 36 36">
<path fill="#444" d="M33.877 27.547l-2.514-0.003c0.701-0.553 1.146-1.409 1.146-2.37v-16.828c0-1.667-1.34-3.005-3.007-3.005h-23.001c-1.668 0-3.008 1.337-3.008 3.005v16.828c0 0.94 0.425 1.788 1.099 2.342l-2.465 0.005c-0.863 0-1.563 0.69-1.564 1.552s0.698 1.553 1.561 1.553l31.75 0.033c0.863 0 1.561-0.692 1.563-1.554 0.001-0.863-0.698-1.557-1.561-1.559zM5.306 16.92v-8.575c0-0.666 0.529-1.191 1.195-1.191h23.001c0.665 0 1.194 0.525 1.194 1.191v16.828c0 0.665-0.529 1.196-1.194 1.196h-23.001c-0.666 0-1.195-0.532-1.195-1.196v-8.254z"></path>
<path fill="#444" d="M28.897 23.74c0 0.5-0.406 0.905-0.905 0.905h-19.983c-0.5 0-0.905-0.404-0.905-0.905v-13.809c0-0.501 0.406-0.906 0.905-0.906h19.983c0.5 0 0.905 0.404 0.905 0.906v13.809z"></path>
</svg>
