<?xml version="1.0" encoding="utf-8"?>
<!-- Generated by IcoMoon.io -->
<!DOCTYPE svg PUBLIC "-//W3C//DTD SVG 1.1//EN" "http://www.w3.org/Graphics/SVG/1.1/DTD/svg11.dtd">
<svg version="1.1" xmlns="http://www.w3.org/2000/svg" xmlns:xlink="http://www.w3.org/1999/xlink" width="36" height="36" viewBox="0 0 36 36">
<path fill="#444" d="M31.003 18.103l-5.757 5.761 5.134 5.134c0.406 0.406 0.406 1.061 0 1.467-0.202 0.202-0.468 0.303-0.731 0.303-0.266 0-0.532-0.101-0.733-0.303l-5.137-5.138-5.695 5.695c1.663 2.6 4.572 4.322 7.887 4.322 5.167 0 9.356-4.187 9.356-9.354 0-3.315-1.724-6.224-4.325-7.887z"></path>
<path fill="#444" d="M33.266 2.735c-1.405-1.405-3.247-2.108-5.089-2.108s-3.684 0.703-5.089 2.108l-20.352 20.352c-2.81 2.81-2.81 7.368 0 10.178 1.405 1.405 3.247 2.108 5.087 2.108 1.842 0 3.684-0.703 5.089-2.108l20.354-20.352c2.808-2.81 2.808-7.368 0-10.178zM31.23 10.875l-10.176 10.178-4.071-4.071-10.176 10.178c-0.56 0.56-0.56 1.471 0 2.034s0.56 1.475 0 2.036c-0.282 0.28-0.651 0.422-1.020 0.422s-0.736-0.142-1.016-0.422c-1.022-1.022-1.419-2.425-1.205-3.75 0-0.002 0-0.004 0.002-0.008 0.014-0.093 0.033-0.185 0.056-0.278 0.006-0.029 0.014-0.058 0.021-0.086 0.021-0.082 0.043-0.165 0.070-0.247 0.012-0.039 0.027-0.078 0.041-0.117 0.039-0.107 0.078-0.21 0.126-0.315 0.031-0.072 0.062-0.144 0.101-0.216 0.023-0.049 0.049-0.097 0.078-0.144 0.037-0.066 0.078-0.134 0.119-0.2 0.025-0.045 0.056-0.087 0.084-0.13 0.051-0.072 0.101-0.142 0.157-0.212 0.027-0.033 0.051-0.070 0.080-0.103 0.084-0.101 0.175-0.202 0.27-0.297l20.352-20.354c0.843-0.843 1.947-1.261 3.053-1.261s2.211 0.418 3.053 1.261c1.683 1.683 1.683 4.421 0 6.105z"></path>
</svg>
