<?xml version="1.0" encoding="utf-8"?>
<!-- Generated by IcoMoon.io -->
<!DOCTYPE svg PUBLIC "-//W3C//DTD SVG 1.1//EN" "http://www.w3.org/Graphics/SVG/1.1/DTD/svg11.dtd">
<svg version="1.1" xmlns="http://www.w3.org/2000/svg" xmlns:xlink="http://www.w3.org/1999/xlink" width="36" height="36" viewBox="0 0 36 36">
<path fill="#444" d="M14.756 28.88c0-0.555-0.439-1.005-0.979-1.005-0.537 0-0.976 0.45-0.976 1.005s0.439 1.007 0.976 1.007c0.541 0 0.979-0.452 0.979-1.007z"></path>
<path fill="#444" d="M31.486 25.832h-0.804v-2.354c0-2.505-2.113-4.546-4.711-4.546-0.758 0-1.47 0.178-2.106 0.485-0.353 0.171-0.679 0.382-0.973 0.626v0.003c-0.138 0.114-0.27 0.239-0.392 0.369-0.016 0.015-0.030 0.030-0.043 0.046-0.742 0.803-1.2 1.858-1.2 3.016v2.354h-0.86c-0.020 0-0.040 0.005-0.059 0.005-0.158 0.011-0.303 0.069-0.425 0.158-0.003 0.002-0.003 0.002-0.003 0.002-0.040 0.030-0.076 0.061-0.109 0.096-0.007 0.007-0.010 0.013-0.016 0.020-0.026 0.031-0.053 0.063-0.076 0.097-0.010 0.015-0.016 0.031-0.026 0.046-0.016 0.030-0.033 0.058-0.046 0.087-0.010 0.026-0.016 0.056-0.023 0.082-0.007 0.023-0.017 0.044-0.023 0.068-0.010 0.053-0.016 0.107-0.016 0.16v7.897c0 0.452 0.372 0.823 0.824 0.823h11.089c0.455 0 0.824-0.371 0.824-0.823v-7.897c0-0.452-0.369-0.821-0.824-0.821zM28.783 25.832h-5.624v-2.354c0-0.089 0.003-0.175 0.013-0.26 0.003-0.035 0.010-0.069 0.013-0.102 0.010-0.049 0.016-0.097 0.026-0.145 0.010-0.046 0.023-0.089 0.033-0.132 0.010-0.036 0.020-0.073 0.030-0.106 0.016-0.053 0.033-0.102 0.053-0.152 0.010-0.025 0.020-0.051 0.030-0.076 0.023-0.056 0.049-0.107 0.076-0.162 0.010-0.016 0.017-0.036 0.026-0.053 0.033-0.056 0.066-0.114 0.102-0.168 0.007-0.011 0.013-0.021 0.020-0.033 0.040-0.058 0.079-0.115 0.122-0.171 0.007-0.007 0.010-0.010 0.013-0.015 0.049-0.061 0.096-0.117 0.148-0.173 0.514-0.551 1.266-0.897 2.106-0.897 1.549 0 2.812 1.183 2.812 2.644v2.354z"></path>
<path fill="#444" d="M5.447 29.91v-26.258c0-0.687 0.557-1.266 1.216-1.266l14.252-0.003c0.659 0 1.197 0.564 1.197 1.258v14.908c0.524-0.392 1.118-0.705 1.754-0.925v-13.984c-0-1.661-1.322-3.013-2.95-3.013l-14.252 0.003c-1.638 0-2.973 1.355-2.973 3.021v26.258c0 1.66 1.325 3.011 2.95 3.011h11.276v-1.755h-11.276c-0.658 0-1.193-0.564-1.193-1.256z"></path>
<path fill="#444" d="M19.599 23.477c0-1.086 0.29-2.105 0.794-2.995v-15.034c0-0.686-0.541-1.244-1.21-1.244l-10.794 0.003c-0.666 0-1.228 0.572-1.228 1.254v20.021c0 0.689 0.542 1.246 1.208 1.246h9.545v-0.076c0-1.088 0.705-2.014 1.684-2.349v-0.827z"></path>
</svg>
