<?xml version="1.0" encoding="utf-8"?>
<!-- Generated by IcoMoon.io -->
<!DOCTYPE svg PUBLIC "-//W3C//DTD SVG 1.1//EN" "http://www.w3.org/Graphics/SVG/1.1/DTD/svg11.dtd">
<svg version="1.1" xmlns="http://www.w3.org/2000/svg" xmlns:xlink="http://www.w3.org/1999/xlink" width="36" height="36" viewBox="0 0 36 36">
<path fill="#444" d="M19.32 30.943c0 0.73-0.591 1.319-1.321 1.319-0.728 0-1.319-0.589-1.319-1.319 0-0.732 0.591-1.321 1.319-1.321 0.73 0 1.321 0.589 1.321 1.321z"></path>
<path fill="#444" d="M26.688 0.627h-17.374c-1.498 0-2.716 1.215-2.716 2.714v29.318c0 1.498 1.217 2.714 2.716 2.714h17.374c1.499 0 2.714-1.213 2.714-2.712v-29.318c0-1.498-1.215-2.716-2.714-2.716zM27.229 32.659c0 0.3-0.244 0.544-0.541 0.544h-17.374c-0.298 0-0.541-0.244-0.541-0.544v-29.316c0-0.3 0.244-0.541 0.541-0.541h17.374c0.298 0 0.541 0.242 0.541 0.541v29.316z"></path>
<path fill="#444" d="M24.516 5.034h-13.029c-0.031 0-0.060 0.006-0.089 0.010-0.006 0.002-0.014 0.002-0.021 0.004-0.056 0.010-0.105 0.031-0.153 0.058-0.167 0.091-0.281 0.267-0.281 0.471v21.718c0 0.298 0.244 0.539 0.544 0.539h13.029c0.029 0 0.060-0.004 0.087-0.008 0.006 0 0.014 0 0.021-0.002 0.052-0.010 0.099-0.029 0.145-0.054 0.172-0.091 0.289-0.269 0.289-0.475v-21.718c-0-0.3-0.244-0.544-0.542-0.544zM12.817 10.972c2.86-2.972 7.507-2.972 10.365 0 0.262 0.277 0.262 0.711 0 0.984-0.258 0.267-0.68 0.267-0.942 0-2.34-2.433-6.136-2.433-8.48 0-0.26 0.267-0.684 0.267-0.942 0-0.26-0.273-0.26-0.707 0-0.984zM15.641 13.915c-0.254 0.269-0.678 0.269-0.938 0-0.258-0.273-0.258-0.709 0-0.986 1.817-1.885 4.776-1.885 6.597 0 0.258 0.277 0.258 0.713 0 0.986-0.258 0.269-0.686 0.269-0.94 0-1.306-1.354-3.414-1.354-4.718 0zM18.125 16.866h-0.258c-0.589-0.134-1.021-0.529-1.021-1.199 0-0.953 0.947-1.449 1.666-1.077 0.19 0.095 0.391 0.31 0.504 0.521 0.422 0.794-0.169 1.682-0.891 1.755z"></path>
</svg>
