<?xml version="1.0" encoding="utf-8"?>
<!-- Generated by IcoMoon.io -->
<!DOCTYPE svg PUBLIC "-//W3C//DTD SVG 1.1//EN" "http://www.w3.org/Graphics/SVG/1.1/DTD/svg11.dtd">
<svg version="1.1" xmlns="http://www.w3.org/2000/svg" xmlns:xlink="http://www.w3.org/1999/xlink" width="36" height="36" viewBox="0 0 36 36">
<path fill="#444" d="M18.31 17.709c-2.357 0-4.275-1.918-4.275-4.274v-4.604h-4.878c-0.261 0-0.477 0.213-0.477 0.476v18.999c0 0.259 0.216 0.472 0.477 0.472h11.398c0.261 0 0.477-0.212 0.477-0.472v-10.597h-2.722z"></path>
<path fill="#444" d="M22.931 17.709v15.288c0 0.263-0.216 0.476-0.477 0.476h-15.196c-0.263 0-0.477-0.213-0.477-0.476v-25.648c0-0.263 0.214-0.473 0.477-0.473h6.779v-1.9h-6.779c-1.312 0-2.376 1.061-2.376 2.373v25.648c0 1.312 1.063 2.376 2.376 2.376h15.196c1.314 0 2.376-1.063 2.376-2.376v-15.288h-1.899z"></path>
<path fill="#444" d="M15.688 31.085c0 0.464-0.377 0.841-0.842 0.841-0.462 0-0.838-0.376-0.838-0.841 0-0.463 0.375-0.841 0.838-0.841 0.464-0 0.842 0.377 0.842 0.841z"></path>
<path fill="#444" d="M28.748 0.627h-10.428c-1.31 0-2.368 1.059-2.368 2.369v10.428c0 1.307 1.057 2.369 2.368 2.369h10.428c1.308 0 2.37-1.061 2.37-2.369v-10.428c0-1.309-1.061-2.369-2.37-2.369zM27.438 8.617h-1.397v3.095c0 0.686-0.56 1.246-1.244 1.246h-2.525c-0.684 0-1.246-0.56-1.246-1.246v-3.095h-1.395c-0.684 0-0.871-0.416-0.41-0.926l3.479-3.849c0.46-0.507 1.211-0.507 1.673 0l3.477 3.849c0.46 0.51 0.276 0.926-0.41 0.926z"></path>
</svg>
