<?xml version="1.0" encoding="utf-8"?>
<!-- Generated by IcoMoon.io -->
<!DOCTYPE svg PUBLIC "-//W3C//DTD SVG 1.1//EN" "http://www.w3.org/Graphics/SVG/1.1/DTD/svg11.dtd">
<svg version="1.1" xmlns="http://www.w3.org/2000/svg" xmlns:xlink="http://www.w3.org/1999/xlink" width="36" height="36" viewBox="0 0 36 36">
<path fill="#444" d="M2.989 7.764c0-0.949 0.77-1.72 1.72-1.72h25.779v-0.625c0-0.95-0.77-1.72-1.719-1.72h-26.486c-0.95 0-1.72 0.77-1.72 1.72v20.295c0 0.95 0.77 1.719 1.72 1.719h0.706v-19.67z"></path>
<path fill="#444" d="M33.717 8.567h-26.485c-0.95 0-1.72 0.771-1.72 1.72v20.294c0 0.95 0.77 1.719 1.72 1.719h26.486c0.95 0 1.72-0.769 1.72-1.719v-20.294c0-0.949-0.769-1.72-1.72-1.72zM17.857 13.184c1.19 0 2.153 0.963 2.153 2.153s-0.963 2.154-2.153 2.154c-1.189 0-2.153-0.964-2.153-2.154s0.964-2.153 2.153-2.153zM15.753 28.223l0.006-0.009-6.539 0.009 6.477-9.538 3.297 4.763 4.903-7.22 8.284 11.97-16.429 0.025z"></path>
</svg>
