<?xml version="1.0" encoding="utf-8"?>
<!-- Generated by IcoMoon.io -->
<!DOCTYPE svg PUBLIC "-//W3C//DTD SVG 1.1//EN" "http://www.w3.org/Graphics/SVG/1.1/DTD/svg11.dtd">
<svg version="1.1" xmlns="http://www.w3.org/2000/svg" xmlns:xlink="http://www.w3.org/1999/xlink" width="36" height="36" viewBox="0 0 36 36">
<path fill="#444" d="M31.898 4.175h-27.796c-1.919 0-3.475 1.557-3.475 3.477v15.635c0 1.919 1.555 3.475 3.475 3.475h2.035v5.063l13.966-5.063h11.795c1.919 0 3.475-1.555 3.475-3.475v-15.635c0-1.919-1.555-3.477-3.475-3.477zM15.191 7.58c1.175 0 2.13 0.952 2.13 2.127 0 1.173-0.954 2.126-2.13 2.126-1.173 0-2.128-0.952-2.128-2.126 0-1.175 0.954-2.127 2.128-2.127zM13.113 22.434l0.008-0.010-6.459 0.010 6.397-9.42 3.256 4.704 4.842-7.131 8.182 11.822-16.226 0.025z"></path>
</svg>
