<?xml version="1.0" encoding="utf-8"?>
<!-- Generated by IcoMoon.io -->
<!DOCTYPE svg PUBLIC "-//W3C//DTD SVG 1.1//EN" "http://www.w3.org/Graphics/SVG/1.1/DTD/svg11.dtd">
<svg version="1.1" xmlns="http://www.w3.org/2000/svg" xmlns:xlink="http://www.w3.org/1999/xlink" width="36" height="36" viewBox="0 0 36 36">
<path fill="#444" d="M19.919 0.628c1.465 0.112 2.898 0.417 4.26 0.893l-4.26 4.258v-5.151zM1.205 22.925c-2.404-8.956 2.914-18.164 11.876-20.563 1.021-0.275 2.046-0.446 3.067-0.525v16.212l-11.471 11.463c-1.591-1.85-2.801-4.076-3.472-6.587zM31.29 28.060c-2.183 3.195-5.477 5.657-9.516 6.736-5.56 1.49-11.215 0.006-15.282-3.472l11.149-11.14 13.65 7.877zM26.4 2.484c0.686 0.358 1.348 0.763 1.976 1.209l-8.458 8.453v-3.185l6.482-6.478zM30.129 5.124c0.546 0.513 1.062 1.062 1.54 1.647l-10.555 10.547-1.195-0.686v-1.302l10.21-10.206zM32.987 8.635c0.415 0.682 0.787 1.401 1.106 2.152l-8.896 8.892-2.065-1.195 9.855-9.849zM34.899 13.164c0.234 0.903 0.391 1.811 0.473 2.712l-6.136 6.132-2.017-1.166 7.68-7.678zM35.354 19.077c-0.198 1.945-0.74 3.822-1.571 5.554l-2.528-1.457 4.099-4.097z"></path>
</svg>
