<?xml version="1.0" encoding="utf-8"?>
<!-- Generated by IcoMoon.io -->
<!DOCTYPE svg PUBLIC "-//W3C//DTD SVG 1.1//EN" "http://www.w3.org/Graphics/SVG/1.1/DTD/svg11.dtd">
<svg version="1.1" xmlns="http://www.w3.org/2000/svg" xmlns:xlink="http://www.w3.org/1999/xlink" width="36" height="36" viewBox="0 0 36 36">
<path fill="#444" d="M18 0c-9.942 0-18 8.059-18 18s8.058 18 18 18c9.942 0 18-8.058 18-18s-8.058-18-18-18zM20.461 27.070c-1.698 0-3.291-0.918-3.836-1.96 0 0-0.915 3.621-1.107 4.32-0.332 1.209-0.804 2.257-1.58 3.363-1.79 2.245-1.853-0.678-1.853-0.678-0.043-1.097-0.007-2.412 0.272-3.607 0.302-1.273 2.021-8.555 2.021-8.555s-0.5-1.004-0.5-2.486c0-2.325 1.349-4.064 3.028-4.064 1.427 0 2.118 1.073 2.118 2.356 0 1.439-0.918 3.586-1.387 5.573-0.392 1.667 0.834 3.027 2.478 3.027 2.974 0 4.979-3.824 4.979-8.349 0-3.442-2.316-6.020-6.533-6.020-4.765 0-7.733 3.553-7.733 7.52 0 1.37 0.403 2.332 1.037 3.079 0.288 0.344 0.33 0.483 0.225 0.876-0.076 0.29-0.247 0.985-0.321 1.26-0.104 0.397-0.427 0.541-0.785 0.394-2.191-0.896-3.218-3.3-3.218-5.999 0-4.462 3.764-9.811 11.224-9.811 5.997 0 9.943 4.339 9.943 8.996 0 6.161-3.426 10.763-8.472 10.763z"></path>
</svg>
