<?xml version="1.0" encoding="utf-8"?>
<!-- Generated by IcoMoon.io -->
<!DOCTYPE svg PUBLIC "-//W3C//DTD SVG 1.1//EN" "http://www.w3.org/Graphics/SVG/1.1/DTD/svg11.dtd">
<svg version="1.1" xmlns="http://www.w3.org/2000/svg" xmlns:xlink="http://www.w3.org/1999/xlink" width="36" height="36" viewBox="0 0 36 36">
<path fill="#444" d="M31.501 0.627h-19.359c-2.139 0-3.874 1.732-3.874 3.871v1.689h17.674c2.135 0 3.871 1.732 3.871 3.871v17.67h1.687c2.139 0 3.871-1.734 3.871-3.871v-19.359c0-2.139-1.732-3.871-3.871-3.871z"></path>
<path fill="#444" d="M23.858 8.271h-19.359c-2.141 0-3.871 1.732-3.871 3.871v19.359c0 2.137 1.73 3.871 3.871 3.871h19.359c2.137 0 3.874-1.734 3.874-3.871v-19.359c0-2.139-1.736-3.871-3.874-3.871zM6.582 15.914c0-0.382 0.314-0.694 0.699-0.694h9.727c0.385 0 0.694 0.312 0.694 0.694v2.086c0 0.382-0.31 0.695-0.694 0.695h-9.727c-0.385 0-0.699-0.312-0.699-0.695v-2.086zM12.837 29.118c0 0.384-0.31 0.697-0.694 0.697h-4.861c-0.385 0-0.699-0.312-0.699-0.697v-2.086c0-0.382 0.314-0.692 0.699-0.692h4.861c0.384 0 0.694 0.31 0.694 0.692v2.086zM22.568 23.56c0 0.382-0.31 0.694-0.695 0.694h-14.592c-0.385 0-0.699-0.312-0.699-0.694v-2.086c0-0.385 0.314-0.695 0.699-0.695h14.592c0.385 0 0.695 0.31 0.695 0.695v2.086z"></path>
</svg>
