<?xml version="1.0" encoding="utf-8"?>
<!-- Generated by IcoMoon.io -->
<!DOCTYPE svg PUBLIC "-//W3C//DTD SVG 1.1//EN" "http://www.w3.org/Graphics/SVG/1.1/DTD/svg11.dtd">
<svg version="1.1" xmlns="http://www.w3.org/2000/svg" xmlns:xlink="http://www.w3.org/1999/xlink" width="36" height="36" viewBox="0 0 36 36">
<path fill="#444" d="M1.921 21.514c0 0-0.128-0.639 1.604-1.849 0.167-0.118 0.412-0.427 0.407-0.653-0.004-0.323-0.569-0.666-0.569-0.666l-2.801-1.946 1.408-1.32c0 0 0.361-0.172 0.631-0.101 0.219 0.057 1.023 0.258 1.36 0.37 1.147 0.385 2.893 1.076 3.982 1.51 0.29 0.115 0.615 0.306 0.831 0.263s0.787-0.353 0.907-0.416c0.847-0.425 3.478-1.747 4.663-2.253 0.963-0.409 0.39-0.967 0.39-0.967s-12.055-9.556-12.349-10.164c-0.271-0.555 0.35-0.819 0.35-0.819l1.612-0.688 19.774 7.805c0 0 6.251-2.735 7.010-2.993 0.761-0.255 3.449-0.993 4.173 0.705 0.719 1.699-1.681 3.123-2.392 3.491-0.713 0.368-7.021 2.969-7.021 2.969l-8.109 19.649-1.614 0.685c0 0-0.622 0.264-0.833-0.318-0.233-0.634 1.259-15.943 1.259-15.943s-0.005-0.8-0.967-0.392c-1.187 0.502-3.966 1.478-4.86 1.792-0.129 0.044-0.75 0.24-0.929 0.364-0.18 0.126-0.27 0.492-0.388 0.783-0.442 1.083-1.158 2.819-1.677 3.913-0.153 0.321-0.564 1.040-0.677 1.236-0.137 0.243-0.512 0.383-0.512 0.383l-1.928 0.098 0.545-3.367c0 0 0.145-0.645-0.085-0.872-0.16-0.16-0.552-0.2-0.752-0.16-2.073 0.407-2.444-0.129-2.444-0.129z"></path>
</svg>
