<?xml version="1.0" encoding="utf-8"?>
<!-- Generated by IcoMoon.io -->
<!DOCTYPE svg PUBLIC "-//W3C//DTD SVG 1.1//EN" "http://www.w3.org/Graphics/SVG/1.1/DTD/svg11.dtd">
<svg version="1.1" xmlns="http://www.w3.org/2000/svg" xmlns:xlink="http://www.w3.org/1999/xlink" width="36" height="36" viewBox="0 0 36 36">
<path fill="#444" d="M18 0.595c-9.613 0-17.405 7.793-17.405 17.405s7.793 17.405 17.405 17.405c9.612 0 17.405-7.793 17.405-17.405s-7.793-17.405-17.405-17.405zM28.568 18.26c0 1.157-0.941 2.028-2.099 2.028h-6.085v6.038c0 1.157-0.872 2.097-2.027 2.097-1.157 0-2.028-0.94-2.028-2.097v-6.038h-6.287c-1.156 0-2.097-0.871-2.097-2.028 0-1.156 0.941-2.028 2.097-2.028h6.287v-6.336c0-1.156 0.871-2.097 2.028-2.097 1.156 0 2.028 0.941 2.028 2.097v6.336h6.085c1.158 0 2.099 0.872 2.099 2.028z"></path>
</svg>
