<?xml version="1.0" encoding="utf-8"?>
<!-- Generated by IcoMoon.io -->
<!DOCTYPE svg PUBLIC "-//W3C//DTD SVG 1.1//EN" "http://www.w3.org/Graphics/SVG/1.1/DTD/svg11.dtd">
<svg version="1.1" xmlns="http://www.w3.org/2000/svg" xmlns:xlink="http://www.w3.org/1999/xlink" width="36" height="36" viewBox="0 0 36 36">
<path fill="#444" d="M31.851 14.414h-10.266v-10.267c0-1.979-1.605-3.584-3.586-3.584-1.98 0-3.585 1.605-3.585 3.584v10.267h-10.266c-1.979 0-3.585 1.607-3.585 3.585 0 1.981 1.605 3.586 3.586 3.586l10.264 0.001 0.001 10.266c0 1.98 1.605 3.585 3.586 3.585 1.979 0 3.585-1.606 3.585-3.585v-10.267h10.267c1.981-0.001 3.585-1.606 3.585-3.586 0-1.979-1.605-3.585-3.587-3.585z"></path>
</svg>
