<?xml version="1.0" encoding="utf-8"?>
<!-- Generated by IcoMoon.io -->
<!DOCTYPE svg PUBLIC "-//W3C//DTD SVG 1.1//EN" "http://www.w3.org/Graphics/SVG/1.1/DTD/svg11.dtd">
<svg version="1.1" xmlns="http://www.w3.org/2000/svg" xmlns:xlink="http://www.w3.org/1999/xlink" width="36" height="36" viewBox="0 0 36 36">
<path fill="#444" d="M17.999 35.373c-8.688 0-15.754-7.068-15.754-15.756 0-5.897 3.23-11.245 8.433-13.962 0.961-0.501 2.147-0.128 2.646 0.831 0.499 0.962 0.126 2.147-0.831 2.644-3.904 2.037-6.33 6.055-6.33 10.487 0 6.527 5.309 11.836 11.836 11.836 6.525 0 11.834-5.309 11.834-11.836 0-4.447-2.431-8.469-6.345-10.495-0.959-0.5-1.334-1.683-0.837-2.644s1.683-1.337 2.644-0.837c5.218 2.704 8.46 8.061 8.46 13.976-0 8.688-7.068 15.756-15.756 15.756z"></path>
<path fill="#444" d="M18.146 0.665l-0.278-0.037c-0.982 0-1.799 0.806-1.799 1.799v11.95c0 0.995 0.816 1.815 1.799 1.815l0.278 0.035c0.982 0 1.782-0.821 1.782-1.813v-11.954c0-0.988-0.8-1.794-1.782-1.794z"></path>
</svg>
