<?xml version="1.0" encoding="utf-8"?>
<!-- Generated by IcoMoon.io -->
<!DOCTYPE svg PUBLIC "-//W3C//DTD SVG 1.1//EN" "http://www.w3.org/Graphics/SVG/1.1/DTD/svg11.dtd">
<svg version="1.1" xmlns="http://www.w3.org/2000/svg" xmlns:xlink="http://www.w3.org/1999/xlink" width="36" height="36" viewBox="0 0 36 36">
<path fill="#444" d="M17.994 15.531c4.010 0 7.271-3.343 7.271-7.452s-3.261-7.452-7.271-7.452c-4.012 0-7.275 3.343-7.275 7.452s3.263 7.452 7.275 7.452z"></path>
<path fill="#444" d="M26.508 15.879l-2.492-0.662c-1.619 1.424-3.718 2.292-6.018 2.296-2.296-0.004-4.395-0.872-6.016-2.296l-2.489 0.662c-2.658 0.741-3.526 1.856-3.31 3.31l1.985 12.748c0.294 1.979 1.481 3.436 3.308 3.436h13.044c1.831 0 3.020-1.457 3.312-3.436l1.983-12.684c0.22-1.455-0.65-2.634-3.308-3.374zM14.801 32.622l2.862-6.563h-3.249l3.053-5.866h4.028l-2.426 3.837 3.689-0.123-7.958 8.715z"></path>
</svg>
