<?xml version="1.0" encoding="utf-8"?>
<!-- Generated by IcoMoon.io -->
<!DOCTYPE svg PUBLIC "-//W3C//DTD SVG 1.1//EN" "http://www.w3.org/Graphics/SVG/1.1/DTD/svg11.dtd">
<svg version="1.1" xmlns="http://www.w3.org/2000/svg" xmlns:xlink="http://www.w3.org/1999/xlink" width="36" height="36" viewBox="0 0 36 36">
<path fill="#444" d="M18.001 29.622c-7.251 0-13.149-5.898-13.149-13.147 0-4.923 2.699-9.387 7.040-11.651 0.803-0.42 1.788-0.11 2.206 0.691 0.418 0.803 0.108 1.79-0.693 2.208-3.257 1.699-5.281 5.053-5.281 8.751 0 5.445 4.431 9.875 9.877 9.875s9.877-4.431 9.877-9.875c0-3.711-2.030-7.067-5.296-8.762-0.801-0.412-1.117-1.403-0.699-2.204 0.416-0.801 1.403-1.113 2.204-0.7 4.354 2.258 7.061 6.728 7.061 11.665-0 7.249-5.898 13.147-13.147 13.147z"></path>
<path fill="#444" d="M18.123 0.659l-0.232-0.031c-0.822 0-1.502 0.673-1.502 1.498v9.974c0 0.832 0.681 1.517 1.502 1.517l0.232 0.029c0.82 0 1.488-0.685 1.488-1.513v-9.977c0-0.826-0.668-1.498-1.488-1.498z"></path>
<path fill="#444" d="M28.977 33.885l0.029-0.232c0-0.821-0.67-1.5-1.496-1.5h-18.972c-0.832 0-1.517 0.679-1.517 1.5l-0.029 0.232c0 0.819 0.685 1.488 1.513 1.488h18.972c0.83 0 1.5-0.668 1.5-1.488z"></path>
</svg>
