<?xml version="1.0" encoding="utf-8"?>
<!-- Generated by IcoMoon.io -->
<!DOCTYPE svg PUBLIC "-//W3C//DTD SVG 1.1//EN" "http://www.w3.org/Graphics/SVG/1.1/DTD/svg11.dtd">
<svg version="1.1" xmlns="http://www.w3.org/2000/svg" xmlns:xlink="http://www.w3.org/1999/xlink" width="36" height="36" viewBox="0 0 36 36">
<path fill="#444" d="M21.609 14.977h-12.358c-0.586 0-1.061-0.344-1.061-0.93s0.475-0.93 1.061-0.93h12.358c0.587 0 1.062 0.344 1.062 0.93s-0.476 0.93-1.062 0.93z"></path>
<path fill="#444" d="M17.566 11.258h-8.315c-0.586 0-1.061-0.345-1.061-0.93s0.475-0.93 1.061-0.93h8.315c0.585 0 1.061 0.344 1.061 0.93s-0.475 0.93-1.061 0.93z"></path>
<path fill="#444" d="M32.138 17.767h0.044v-5.51l-9.002-8.44h-14.812c-1.952 0-3.621 1.721-3.621 3.673v10.277h-0.886c-1.953 0-3.299 1.791-3.299 3.743v7.069c0 1.952 1.347 3.602 3.299 3.602h28.277c1.953 0 3.299-1.65 3.299-3.602v-7.069c-0-1.952-1.347-3.743-3.3-3.743zM24.277 7.45l4.359 3.808h-2.432c-0.975 0-1.927-0.671-1.927-1.645v-2.163zM6.607 7.491c0-0.974 0.787-1.349 1.761-1.349h14.049v3.469c0 1.952 1.835 3.506 3.787 3.506h3.653v4.65h-23.25v-10.277zM25.812 25.972c-0.586 0-1.061-0.476-1.061-1.060 0-0.586 0.475-1.061 1.061-1.061s1.061 0.475 1.061 1.061c-0 0.584-0.475 1.060-1.061 1.060zM30.519 25.972c-0.586 0-1.061-0.476-1.061-1.060 0-0.586 0.475-1.061 1.061-1.061 0.585 0 1.059 0.475 1.059 1.061 0 0.584-0.475 1.060-1.059 1.060z"></path>
</svg>
