<?xml version="1.0" encoding="utf-8"?>
<!-- Generated by IcoMoon.io -->
<!DOCTYPE svg PUBLIC "-//W3C//DTD SVG 1.1//EN" "http://www.w3.org/Graphics/SVG/1.1/DTD/svg11.dtd">
<svg version="1.1" xmlns="http://www.w3.org/2000/svg" xmlns:xlink="http://www.w3.org/1999/xlink" width="36" height="36" viewBox="0 0 36 36">
<path fill="#444" d="M17.992 15.917c4.131 0 7.491-3.443 7.491-7.679 0-4.231-3.36-7.676-7.491-7.676-4.13 0-7.491 3.445-7.491 7.677 0 4.235 3.363 7.678 7.491 7.678z"></path>
<path fill="#444" d="M26.762 17.079l-2.564-0.683c-1.667 1.468-3.83 2.36-6.198 2.367-2.365-0.007-4.53-0.901-6.197-2.367l-2.566 0.683c-2.738 0.763-3.634 1.912-3.409 3.409l2.047 12.273c0.302 2.036 1.526 2.677 3.41 2.677h13.434c1.887 0 3.109-0.64 3.411-2.677l2.045-12.639c0.225-1.495-0.671-2.28-3.411-3.042z"></path>
</svg>
