<?xml version="1.0" encoding="utf-8"?>
<!-- Generated by IcoMoon.io -->
<!DOCTYPE svg PUBLIC "-//W3C//DTD SVG 1.1//EN" "http://www.w3.org/Graphics/SVG/1.1/DTD/svg11.dtd">
<svg version="1.1" xmlns="http://www.w3.org/2000/svg" xmlns:xlink="http://www.w3.org/1999/xlink" width="36" height="36" viewBox="0 0 36 36">
<path fill="#444" d="M34.401 4.939c0.009-0.168 0.004-0.336-0.024-0.503-0.081-0.508-0.333-0.99-0.749-1.354-0.265-0.234-0.568-0.393-0.887-0.482-0.068-0.016-0.137-0.032-0.205-0.048-0.291-0.069-0.582-0.14-0.873-0.204-4.609-1.025-9.259-1.711-13.995-1.701 0-0.028-0.003-0.057-0.005-0.084-1.989 0.137-3.984 0.221-5.967 0.428-2.722 0.286-5.407 0.811-8.062 1.476-0.198 0.025-0.396 0.074-0.583 0.15-0.351 0.142-0.674 0.372-0.932 0.688-0.286 0.353-0.45 0.767-0.5 1.188-0.005 0.122-0.009 0.244-0.013 0.368-0.134 3.709 0.214 7.372 1.178 10.973 1.371 5.127 3.838 9.662 7.41 13.59 1.859 2.046 3.944 3.819 6.207 5.38 0.185 0.175 0.398 0.321 0.634 0.428 0.281 0.126 0.592 0.2 0.921 0.205 0.408 0.004 0.792-0.1 1.129-0.283 0.123-0.082 0.246-0.166 0.369-0.249 1.886-1.287 3.653-2.722 5.271-4.345 3.397-3.407 5.941-7.36 7.595-11.88 1.052-2.87 1.68-5.832 1.954-8.872 0.146-1.621 0.182-3.245 0.131-4.869zM21.225 18.198l2 6.123-5.243-3.831-5.246 3.8 2.005-6.088-5.246-3.731h6.484l2.003-6.166 2.005 6.166h6.482l-5.244 3.727z"></path>
</svg>
