<?xml version="1.0" encoding="utf-8"?>
<!-- Generated by IcoMoon.io -->
<!DOCTYPE svg PUBLIC "-//W3C//DTD SVG 1.1//EN" "http://www.w3.org/Graphics/SVG/1.1/DTD/svg11.dtd">
<svg version="1.1" xmlns="http://www.w3.org/2000/svg" xmlns:xlink="http://www.w3.org/1999/xlink" width="36" height="36" viewBox="0 0 36 36">
<path fill="#444" d="M34.401 4.94c0.010-0.168 0.004-0.336-0.023-0.503-0.082-0.507-0.333-0.989-0.749-1.354-0.265-0.233-0.569-0.392-0.888-0.482-0.068-0.016-0.137-0.032-0.205-0.048-0.29-0.070-0.582-0.14-0.873-0.205-4.609-1.024-9.259-1.71-13.995-1.7-0.002-0.029-0.003-0.057-0.005-0.085-0.008 0.001-0.016 0.001-0.024 0.002v0.077c-0.062-0.006-0.231 0.018-0.232-0.005-1.989 0.139-3.729 0.149-5.712 0.357-2.724 0.285-5.407 0.811-8.062 1.476-0.199 0.025-0.395 0.074-0.583 0.149-0.353 0.143-0.675 0.372-0.932 0.688-0.287 0.353-0.451 0.766-0.501 1.187-0.005 0.123-0.009 0.245-0.014 0.368-0.132 3.709 0.215 7.372 1.178 10.974 1.372 5.127 3.839 9.661 7.41 13.59 1.859 2.045 3.944 3.819 6.206 5.381 0.185 0.175 0.398 0.321 0.634 0.427 0.189 0.085 0.395 0.136 0.607 0.168v0c0.103 0.016 0.205 0.035 0.313 0.037 0.41 0.005 0.794-0.098 1.13-0.281 0.123-0.083 0.246-0.167 0.369-0.251 1.885-1.287 3.652-2.721 5.27-4.344 3.397-3.407 5.942-7.361 7.596-11.881 1.051-2.869 1.68-5.832 1.954-8.872 0.146-1.622 0.18-3.244 0.13-4.869zM17.618 33.039c-2.24-1.546-4.149-3.201-5.837-5.058-3.317-3.648-5.647-7.921-6.925-12.701-0.876-3.273-1.238-6.656-1.107-10.343l0.009-0.229c0.007-0.023 0.018-0.038 0.026-0.048 0.014-0.017 0.034-0.037 0.071-0.052l0.13-0.016 0.171-0.041c2.815-0.706 5.354-1.171 7.764-1.423 1.324-0.139 2.698-0.223 4.028-0.304 0.142-0.009 0.283-0.017 0.425-0.026l1.267-0.003v30.26l-0.021-0.015z"></path>
</svg>
