<?xml version="1.0" encoding="utf-8"?>
<!-- Generated by IcoMoon.io -->
<!DOCTYPE svg PUBLIC "-//W3C//DTD SVG 1.1//EN" "http://www.w3.org/Graphics/SVG/1.1/DTD/svg11.dtd">
<svg version="1.1" xmlns="http://www.w3.org/2000/svg" xmlns:xlink="http://www.w3.org/1999/xlink" width="36" height="36" viewBox="0 0 36 36">
<path fill="#444" d="M7.102 9.706c0-1.381 0.445-2.779 1.331-4.195s2.177-2.591 3.878-3.52 3.685-1.395 5.95-1.395c2.106 0 3.969 0.391 5.582 1.166 1.609 0.777 2.854 1.836 3.735 3.171 0.882 1.337 1.32 2.789 1.32 4.36 0 1.235-0.251 2.317-0.754 3.246-0.501 0.93-1.097 1.732-1.786 2.407-0.692 0.677-1.93 1.815-3.717 3.414-0.495 0.449-0.89 0.844-1.187 1.187-0.299 0.343-0.52 0.652-0.666 0.936s-0.259 0.568-0.338 0.85c-0.079 0.284-0.196 0.781-0.359 1.494-0.276 1.513-1.139 2.267-2.591 2.267-0.758 0-1.393-0.249-1.91-0.742s-0.773-1.229-0.773-2.2c0-1.222 0.188-2.277 0.568-3.171 0.376-0.894 0.877-1.678 1.504-2.354 0.623-0.675 1.465-1.477 2.526-2.409 0.93-0.813 1.602-1.427 2.016-1.841s0.763-0.875 1.049-1.385c0.28-0.508 0.422-1.059 0.422-1.657 0-1.162-0.432-2.143-1.295-2.942-0.865-0.798-1.98-1.199-3.347-1.199-1.598 0-2.774 0.403-3.531 1.212-0.754 0.806-1.393 1.993-1.916 3.56-0.495 1.644-1.433 2.465-2.814 2.465-0.813 0-1.5-0.286-2.058-0.863-0.56-0.573-0.84-1.193-0.84-1.862zM17.738 35.405c-0.886 0-1.659-0.286-2.321-0.861-0.662-0.572-0.992-1.377-0.992-2.409 0-0.915 0.318-1.686 0.961-2.31 0.637-0.625 1.421-0.936 2.352-0.936 0.915 0 1.686 0.311 2.311 0.936s0.936 1.396 0.936 2.31c0 1.018-0.326 1.818-0.982 2.398-0.652 0.581-1.408 0.871-2.265 0.871z"></path>
</svg>
