<?xml version="1.0" encoding="utf-8"?>
<!-- Generated by IcoMoon.io -->
<!DOCTYPE svg PUBLIC "-//W3C//DTD SVG 1.1//EN" "http://www.w3.org/Graphics/SVG/1.1/DTD/svg11.dtd">
<svg version="1.1" xmlns="http://www.w3.org/2000/svg" xmlns:xlink="http://www.w3.org/1999/xlink" width="36" height="36" viewBox="0 0 36 36">
<path fill="#444" d="M26.127 22.534l-1.377 3.837h2.737l-1.332-3.837z"></path>
<path fill="#444" d="M33.332 14.861h-10.45v3.526c0 2.634-1.995 4.845-4.63 4.845h-2.345v9.011c0 1.327 1.104 2.498 2.431 2.498h14.994c1.327 0 2.106-1.171 2.106-2.498v-14.993c0-1.327-0.779-2.389-2.106-2.389zM29.87 30.645c-0.499 0-0.915-0.327-1.063-0.776l-0.006 0.152-0.704-1.907h-3.953l-0.725 1.907-0.007-0.074c-0.136 0.448-0.547 0.737-1.039 0.737-0.603 0-1.091-0.506-1.091-1.11 0-0.128 0.026-0.258 0.065-0.371l-0.004-0.011 3.621-9.58 0.009 0.002c0.207-0.452 0.661-0.594 1.192-0.594 0.579 0 1.065 0.375 1.241 1.072h0.007l3.488 9.154c0.006 0.010 0.007-0.066 0.011-0.056l0.007-0.023v-0.021c0.047 0.124 0.075 0.246 0.075 0.383 0 0.622-0.504 1.115-1.125 1.115z"></path>
<path fill="#444" d="M10.796 6.96c-0.95 0-1.678 0.295-2.225 0.902-0.548 0.609-0.826 1.581-0.826 2.891 0 1.094 0.268 1.97 0.799 2.604 0.524 0.626 1.281 0.931 2.316 0.931 0.25 0 0.489-0.019 0.707-0.054 0.008-0.002 0.014-0.003 0.021-0.004l-0.144-0.114 0.006-0.007c-0.17-0.155-0.279-0.377-0.279-0.626 0-0.469 0.384-0.852 0.857-0.852 0.181 0 0.349 0.058 0.489 0.155v-0.001l0.107 0.090c0.002 0.002 0.006 0.005 0.008 0.007l0.395 0.329c0.26-0.359 0.445-0.752 0.549-1.176 0.135-0.546 0.204-1.072 0.204-1.568 0-1.066-0.273-1.932-0.811-2.57-0.528-0.631-1.242-0.938-2.173-0.938z"></path>
<path fill="#444" d="M18.252 1.259h-14.992c-1.327 0-2.698 0.807-2.698 2.133v14.992c0 1.327 1.371 2.406 2.698 2.406h14.992c1.327 0 2.19-1.078 2.19-2.406v-14.992c0-1.326-0.863-2.133-2.19-2.133zM15.293 14.984c0.024 0.016 0.045 0.034 0.067 0.051l0.049 0.038v0.001c0.168 0.156 0.277 0.376 0.277 0.624 0 0.471-0.383 0.853-0.857 0.853-0.244 0-0.462-0.103-0.619-0.267l-1.020-0.772c-0.325 0.165-0.674 0.302-1.041 0.408-0.443 0.128-0.932 0.193-1.453 0.193-1.583 0-2.845-0.539-3.751-1.606-0.797-1.032-1.195-2.322-1.195-3.844 0-1.383 0.345-2.587 1.025-3.578 0.888-1.295 2.214-1.951 3.94-1.951 1.797 0 3.153 0.605 4.028 1.795 0.674 0.918 1.016 2.1 1.016 3.512 0 0.654-0.080 1.293-0.237 1.898-0.213 0.816-0.557 1.501-1.024 2.039l0.794 0.605z"></path>
</svg>
