<?xml version="1.0" encoding="utf-8"?>
<!-- Generated by IcoMoon.io -->
<!DOCTYPE svg PUBLIC "-//W3C//DTD SVG 1.1//EN" "http://www.w3.org/Graphics/SVG/1.1/DTD/svg11.dtd">
<svg version="1.1" xmlns="http://www.w3.org/2000/svg" xmlns:xlink="http://www.w3.org/1999/xlink" width="36" height="36" viewBox="0 0 36 36">
<path fill="#444" d="M30.285 5.716c-3.393-3.393-7.839-5.088-12.287-5.088-4.446 0-8.891 1.695-12.282 5.088-6.786 6.784-6.786 17.786 0 24.57 3.391 3.39 7.837 5.087 12.282 5.087 4.448 0 8.894-1.697 12.286-5.087 6.784-6.784 6.784-17.786 0-24.57zM19.646 31.474c-0.536 0.476-1.168 0.718-1.871 0.718-0.728 0-1.371-0.238-1.915-0.71-0.548-0.475-0.827-1.148-0.827-1.997 0-0.755 0.268-1.4 0.795-1.914s1.18-0.776 1.946-0.776c0.752 0 1.396 0.262 1.913 0.776 0.515 0.516 0.777 1.16 0.777 1.914-0 0.835-0.274 1.506-0.818 1.988zM25.99 14.39c-0.396 0.731-0.873 1.373-1.417 1.907-0.536 0.525-1.507 1.417-2.884 2.648-0.375 0.34-0.678 0.645-0.906 0.904-0.218 0.252-0.385 0.487-0.49 0.69-0.107 0.21-0.19 0.421-0.249 0.626-0.061 0.217-0.153 0.603-0.276 1.147-0.228 1.254-0.963 1.894-2.181 1.894-0.628 0-1.166-0.209-1.597-0.624-0.433-0.413-0.653-1.031-0.653-1.833 0-0.964 0.153-1.813 0.452-2.524 0.299-0.705 0.701-1.337 1.199-1.873 0.483-0.523 1.147-1.155 1.97-1.877 0.716-0.626 1.237-1.102 1.553-1.419 0.31-0.307 0.571-0.656 0.781-1.033 0.205-0.364 0.308-0.767 0.308-1.198 0-0.855-0.31-1.56-0.948-2.15-0.632-0.585-1.465-0.881-2.472-0.881-1.181 0-2.058 0.296-2.606 0.881-0.565 0.602-1.053 1.509-1.446 2.696-0.406 1.342-1.195 2.028-2.346 2.028-0.676 0-1.256-0.243-1.72-0.72-0.463-0.476-0.699-1.004-0.699-1.567 0-1.098 0.354-2.221 1.057-3.342 0.699-1.119 1.731-2.055 3.071-2.789 1.335-0.731 2.914-1.101 4.691-1.101 1.651 0 3.129 0.311 4.398 0.921 1.273 0.613 2.271 1.46 2.966 2.517 0.697 1.060 1.049 2.228 1.049 3.473 0 0.982-0.201 1.857-0.601 2.599z"></path>
</svg>
