<?xml version="1.0" encoding="utf-8"?>
<!-- Generated by IcoMoon.io -->
<!DOCTYPE svg PUBLIC "-//W3C//DTD SVG 1.1//EN" "http://www.w3.org/Graphics/SVG/1.1/DTD/svg11.dtd">
<svg version="1.1" xmlns="http://www.w3.org/2000/svg" xmlns:xlink="http://www.w3.org/1999/xlink" width="36" height="36" viewBox="0 0 36 36">
<path fill="#444" d="M35.438 16.436c0-7.635-7.807-13.823-17.436-13.823-9.631-0-17.439 6.188-17.439 13.823s7.808 13.823 17.439 13.823c1.307 0 2.58-0.118 3.805-0.335l8.61 3.435c0.001 0.001 0.002 0.001 0.004 0.002l0.010 0.004 0.001-0.001c0.028 0.009 0.056 0.017 0.085 0.019 0.009 0 0.017 0.004 0.026 0.004 0.090 0 0.18-0.033 0.248-0.103 0.056-0.056 0.083-0.128 0.092-0.202 0.002-0.017 0-0.035 0-0.055h0.002l-0.002-0.018c-0.001-0.017-0.005-0.035-0.009-0.052l-0.106-0.657-0.847-5.779c3.394-2.523 5.516-6.107 5.516-10.085zM18.908 23.931c-0.296 0.263-0.639 0.396-1.026 0.396-0.403 0-0.753-0.13-1.053-0.391s-0.449-0.624-0.449-1.093c0-0.414 0.145-0.762 0.434-1.047 0.29-0.282 0.645-0.425 1.067-0.425 0.415 0 0.763 0.142 1.047 0.425 0.284 0.285 0.425 0.633 0.425 1.047 0 0.462-0.149 0.825-0.445 1.088zM22.6 13.959c-0.228 0.421-0.498 0.785-0.81 1.092s-0.874 0.823-1.685 1.547c-0.224 0.204-0.403 0.383-0.538 0.538-0.136 0.156-0.235 0.297-0.302 0.425-0.066 0.129-0.117 0.257-0.153 0.386-0.035 0.129-0.089 0.354-0.162 0.677-0.127 0.685-0.518 1.028-1.176 1.028-0.344 0-0.632-0.112-0.865-0.337-0.235-0.223-0.352-0.555-0.352-0.997 0-0.554 0.086-1.033 0.258-1.438 0.17-0.404 0.398-0.761 0.682-1.067 0.284-0.305 0.663-0.669 1.145-1.092 0.421-0.369 0.727-0.647 0.915-0.834 0.186-0.189 0.344-0.398 0.473-0.628 0.129-0.231 0.195-0.482 0.195-0.752 0-0.527-0.197-0.972-0.59-1.334-0.391-0.363-0.898-0.543-1.516-0.543-0.724 0-1.257 0.181-1.602 0.548-0.341 0.366-0.632 0.904-0.869 1.616-0.225 0.745-0.649 1.116-1.274 1.116-0.369 0-0.68-0.129-0.933-0.389-0.254-0.26-0.381-0.543-0.381-0.846 0-0.626 0.202-1.26 0.601-1.902 0.403-0.643 0.989-1.174 1.761-1.595 0.77-0.422 1.67-0.632 2.697-0.632 0.956 0 1.799 0.175 2.53 0.528s1.296 0.832 1.694 1.438c0.399 0.605 0.599 1.263 0.599 1.975 0 0.561-0.113 1.051-0.341 1.472z"></path>
</svg>
