<?xml version="1.0" encoding="utf-8"?>
<!-- Generated by IcoMoon.io -->
<!DOCTYPE svg PUBLIC "-//W3C//DTD SVG 1.1//EN" "http://www.w3.org/Graphics/SVG/1.1/DTD/svg11.dtd">
<svg version="1.1" xmlns="http://www.w3.org/2000/svg" xmlns:xlink="http://www.w3.org/1999/xlink" width="36" height="36" viewBox="0 0 36 36">
<path fill="#444" d="M6.122 17.001l-1.321 0.98 0.505 1.564c0.17 0.523-0.054 0.691-0.5 0.368l-1.322-0.957-1.321 0.961c-0.445 0.323-0.67 0.16-0.5-0.362l0.505-1.553-1.322-1.001c-0.445-0.323-0.359-0.628 0.191-0.628h1.634l0.505-1.513c0.17-0.523 0.448-0.544 0.618-0.020l0.505 1.533h1.633c0.55 0 0.636 0.305 0.191 0.628z"></path>
<path fill="#444" d="M13.331 17.001l-1.321 0.98 0.505 1.564c0.17 0.523-0.054 0.691-0.5 0.368l-1.322-0.957-1.321 0.961c-0.445 0.323-0.67 0.16-0.5-0.362l0.505-1.553-1.322-1.001c-0.445-0.323-0.359-0.628 0.191-0.628h1.634l0.505-1.513c0.17-0.523 0.448-0.544 0.618-0.020l0.505 1.533h1.633c0.549 0 0.636 0.305 0.191 0.628z"></path>
<path fill="#444" d="M20.541 17.001l-1.322 0.98 0.505 1.564c0.169 0.523-0.054 0.691-0.499 0.368l-1.322-0.957-1.321 0.961c-0.445 0.323-0.67 0.16-0.5-0.362l0.505-1.553-1.322-1.001c-0.445-0.323-0.359-0.628 0.191-0.628h1.634l0.505-1.513c0.17-0.523 0.448-0.544 0.618-0.020l0.504 1.533h1.634c0.549 0 0.635 0.305 0.191 0.628z"></path>
<path fill="#444" d="M26.81 20.278c-0.14 0-0.306-0.068-0.492-0.203l-1.207-0.877-1.208 0.877c-0.346 0.252-0.64 0.259-0.785 0.059-0.102-0.14-0.106-0.355-0.014-0.64l0.461-1.419-1.207-0.877c-0.37-0.269-0.393-0.436-0.348-0.576s0.196-0.25 0.654-0.25h1.492l0.46-1.475c0.142-0.436 0.347-0.555 0.495-0.555s0.352 0.134 0.494 0.57l0.462 1.461h1.492c0.457 0 0.608 0.11 0.653 0.25s0.022 0.335-0.348 0.604l-1.207 0.863 0.461 1.411c0.093 0.286 0.087 0.498-0.014 0.638-0.067 0.093-0.172 0.14-0.294 0.14zM26.81 19.891v0.193l0.004-0.195c-0.001 0.001-0.003 0.002-0.004 0.002zM22.382 16.79c0.015 0.009 0.056 0.032 0.206 0.141l1.436 1.019-0.549 1.678c-0.071 0.22-0.040 0.285-0.040 0.286-0.008-0.018 0.071-0.028 0.24-0.15l1.436-1.045 1.436 1.043c0.152 0.11 0.232 0.126 0.256 0.128-0.008-0.016 0.001-0.097-0.056-0.274l-0.549-1.688 1.436-0.964c0.15-0.108 0.19-0.125 0.201-0.125-0.001 0-0.002 0-0.002 0-0.021 0-0.097 0-0.276 0h-1.775l-0.548-1.782c-0.058-0.177-0.112-0.285-0.132-0.302-0.003 0.017-0.058 0.149-0.116 0.325l-0.547 1.759h-1.775c-0.186 0-0.26-0.061-0.283-0.048z"></path>
<path fill="#444" d="M34.019 20.278c-0.14 0-0.306-0.068-0.492-0.203l-1.208-0.877-1.207 0.877c-0.346 0.252-0.64 0.259-0.785 0.059-0.102-0.14-0.106-0.355-0.014-0.64l0.461-1.419-1.207-0.877c-0.37-0.269-0.393-0.436-0.348-0.576s0.196-0.25 0.654-0.25h1.492l0.46-1.475c0.142-0.436 0.347-0.555 0.494-0.555s0.353 0.134 0.494 0.57l0.462 1.461h1.492c0.457 0 0.608 0.11 0.653 0.25s0.022 0.335-0.348 0.604l-1.207 0.863 0.461 1.411c0.093 0.286 0.087 0.498-0.014 0.638-0.067 0.093-0.172 0.14-0.294 0.14zM34.019 19.891v0.193l0.004-0.195c-0.001 0.001-0.003 0.002-0.004 0.002zM29.591 16.79c0.015 0.009 0.056 0.032 0.206 0.141l1.436 1.019-0.549 1.678c-0.071 0.22-0.040 0.285-0.040 0.286-0.009-0.018 0.071-0.028 0.24-0.15l1.436-1.045 1.436 1.043c0.152 0.11 0.232 0.126 0.256 0.128-0.008-0.016 0.001-0.097-0.056-0.274l-0.549-1.688 1.436-0.964c0.149-0.108 0.19-0.125 0.201-0.125-0.001 0-0.002 0-0.002 0-0.021 0-0.096 0-0.275 0h-1.775l-0.548-1.782c-0.058-0.177-0.112-0.285-0.132-0.302-0.004 0.017-0.058 0.149-0.116 0.325l-0.547 1.759h-1.775c-0.186 0-0.26-0.061-0.283-0.048z"></path>
</svg>
