<?xml version="1.0" encoding="utf-8"?>
<!-- Generated by IcoMoon.io -->
<!DOCTYPE svg PUBLIC "-//W3C//DTD SVG 1.1//EN" "http://www.w3.org/Graphics/SVG/1.1/DTD/svg11.dtd">
<svg version="1.1" xmlns="http://www.w3.org/2000/svg" xmlns:xlink="http://www.w3.org/1999/xlink" width="36" height="36" viewBox="0 0 36 36">
<path fill="#444" d="M23.757 0.593c0.714 0.164 1.404 0.405 1.948 0.912 0.361 0.338 0.718 0.712 0.968 1.138 0.61 1.030 1.827 3.314 1.885 3.416 0.793-0.415 1.582-0.827 2.433-1.271-0.054 0.125-2.741 4.595-4.065 6.767-0.058 0.091-0.201 0.185-0.307 0.185-2.535-0.012-7.641-0.064-7.728-0.085 0.745-0.482 1.449-0.939 2.163-1.397-0.029-0.069-2.016-3.685-3.127-5.619-0.444-0.77-2.134-3.224-4.099-4.045h9.929z"></path>
<path fill="#444" d="M29.668 24.092c1.277-0.017 2.523-0.509 3.654-1.15 0.411-0.26 0.801-0.542 1.231-0.855-0.042 0.083-3.264 5.658-4.738 8.232-0.806 1.507-2.070 2.267-3.768 2.273-1.073 0.006-3.033 0-3.175 0v2.815c-0.085-0.137-2.699-4.707-3.903-6.933-0.058-0.104-0.075-0.288-0.019-0.388 1.227-2.238 3.856-6.773 3.922-6.876v2.894c-0 0 4.657 0.019 6.796-0.012z"></path>
<path fill="#444" d="M16.199 24.109v8.492c-0.096 0-3.903 0.012-5.78 0-1.092-0.008-2.163-0.152-3.15-0.671-0.538-0.285-0.974-0.671-1.271-1.225-1.584-2.753-4.784-8.286-4.806-8.326 0.492 0.334 0.992 0.722 1.536 1.030 0.938 0.525 1.977 0.695 3.048 0.7 3.415 0.012 10.344-0.006 10.423 0z"></path>
<path fill="#444" d="M12.626 1.361c-0.733-0.058-1.512-0.008-1.995 0.297-0.206 0.124-0.345 0.262-0.444 0.415-1.246 1.867-3.486 5.897-3.546 5.994 2.519 1.491 4.842 2.868 7.329 4.34 0.042-0.075 3.044-5.267 3.654-6.341-0.575-1.229-1.458-2.298-2.3-3.114-0.748-0.727-1.636-1.507-2.697-1.59z"></path>
<path fill="#444" d="M12.958 19.483c-0.035-0.089-2.633-4.921-3.926-7.298-0.052-0.094-0.228-0.168-0.349-0.168-2.695 0.114-3.085 0.089-7.931 0.085 0.797 0.625 1.705 1.327 2.458 1.917-0.494 0.841-1.917 3.314-2.583 4.468 0.11 0.424 0.424 1.46 0.486 1.636 0.507 1.395 1.52 2.323 3.017 2.759 0.774 0.181 2.454 0.326 3.582 0.253 0.768-1.331 2.699-4.676 2.873-4.96 0.76 0.407 1.576 0.878 2.373 1.308z"></path>
<path fill="#444" d="M32.133 22.35c0.862-0.338 1.956-1.142 2.39-1.8 0.455-0.685 0.891-2.244 0.847-2.765-0.031-0.087-3.368-5.828-3.422-5.953-2.487 1.522-4.807 2.938-7.284 4.452 0.035 0.060 3.013 5.187 3.764 6.515 0.685 0.058 2.678 0.027 3.704-0.448z"></path>
</svg>
