<?xml version="1.0" encoding="utf-8"?>
<!-- Generated by IcoMoon.io -->
<!DOCTYPE svg PUBLIC "-//W3C//DTD SVG 1.1//EN" "http://www.w3.org/Graphics/SVG/1.1/DTD/svg11.dtd">
<svg version="1.1" xmlns="http://www.w3.org/2000/svg" xmlns:xlink="http://www.w3.org/1999/xlink" width="36" height="36" viewBox="0 0 36 36">
<path fill="#444" d="M32.322 17.7c-0.224-0.973-1.194-1.581-2.166-1.358-0.975 0.224-1.582 1.195-1.359 2.167 0.911 3.962-0.465 8.072-3.591 10.725-4.587 3.895-11.488 3.332-15.384-1.255s-3.794-11.489 0.794-15.384c1.794-1.525 3.896-2.397 5.756-2.573v5.795c0 0.294 0.678 0.37 0.941 0.169l9.778-7.29c0.263-0.201 0.379-0.53 0.114-0.731l-9.948-7.29c-0.264-0.201-0.884-0.124-0.884 0.17v5.556c-2.79 0.181-5.633 1.347-8.096 3.439-6.107 5.186-6.626 14.372-1.441 20.479 5.185 6.108 14.488 6.858 20.596 1.673 4.161-3.532 6.105-9.008 4.891-14.29z"></path>
</svg>
