<?xml version="1.0" encoding="utf-8"?>
<!-- Generated by IcoMoon.io -->
<!DOCTYPE svg PUBLIC "-//W3C//DTD SVG 1.1//EN" "http://www.w3.org/Graphics/SVG/1.1/DTD/svg11.dtd">
<svg version="1.1" xmlns="http://www.w3.org/2000/svg" xmlns:xlink="http://www.w3.org/1999/xlink" width="36" height="36" viewBox="0 0 36 36">
<path fill="#444" d="M18.741 23.809v0c0 0.454 0.358 0.821 0.813 0.821 0.452 0 0.809-0.367 0.809-0.821v-0.913c2.27-0.171 2.872-1.216 2.872-2.554 0-1.864-1.043-2.481-3.031-2.739-1.062-0.134-1.675-0.235-1.675-0.986 0-0.627 0.211-1.082 1.51-1.082l1.999-0.040c0.456 0 0.821-0.356 0.821-0.809 0-0.455-0.365-0.811-0.821-0.811h-0.702v-0.99c0-0.453-0.356-0.822-0.811-0.822s-0.809 0.369-0.809 0.822v0.881c-2.27 0.111-2.955 1.732-2.955 2.839 0 1.668 0.868 2.357 3.125 2.639 1.111 0.135 1.544 0.359 1.544 1.122 0 0.766-0.392 0.967-1.798 0.967h-1.973c-0.454 0-0.821 0.356-0.821 0.81 0 0.455 0.367 0.811 0.821 0.811h1.082v0.856z"></path>
<path fill="#444" d="M19.171 1.812c-8.29 0-15.254 6.324-16.111 14.501h-0.004c-0.043 0.296-0.081 0.593-0.1 0.892l-0.915-0.004c-0.593 0-1.073 0.267-1.28 0.711-0.316 0.682-0.011 1.269 0.233 1.521l3.087 3.091c0.158 0.188 0.602 0.638 1.19 0.638 0.585 0 1.028-0.45 1.186-0.638l3.064-3.064c0.313-0.284 0.518-0.856 0.273-1.496-0.183-0.478-0.661-0.777-1.331-0.759h-0.689c0.038-0.305 0.088-0.892 0.088-0.892 0.834-5.57 5.641-9.735 11.307-9.735 6.306 0 11.437 5.131 11.437 11.437 0 6.11-4.792 11.12-10.906 11.41-0.024 0-0.049 0.002-0.072 0.002h-0.132l-0.070 0.008c-0.013 0.002-0.032 0.011-0.049 0.024-0.574 0.102-1.011 0.599-1.011 1.203v2.283c0 0.602 0.435 1.103 1.005 1.205 0.019 0.021 0.041 0.038 0.070 0.038h0.71c0.435-0.026 0.881-0.071 1.325-0.136 7.921-1.135 13.895-8.026 13.895-16.037 0-8.933-7.269-16.203-16.203-16.203z"></path>
</svg>
