<?xml version="1.0" encoding="utf-8"?>
<!-- Generated by IcoMoon.io -->
<!DOCTYPE svg PUBLIC "-//W3C//DTD SVG 1.1//EN" "http://www.w3.org/Graphics/SVG/1.1/DTD/svg11.dtd">
<svg version="1.1" xmlns="http://www.w3.org/2000/svg" xmlns:xlink="http://www.w3.org/1999/xlink" width="36" height="36" viewBox="0 0 36 36">
<path fill="#444" d="M11.267 21.5c-0.412-1.916-1.826-10.853 5.546-19.004 0 0-16.14 4.498-12.248 21.080l-3.97 1.231c0 0 2.539 8.401 10.619 10.047 1.778 0.294 2.139-0.227 2.788-1.18 0.334-0.561 4.183-5.721 2.288-13.73l-5.024 1.556z"></path>
<path fill="#444" d="M24.732 14.501c0.412 1.914 1.826 10.852-5.545 19.003 0 0 16.14-4.498 12.247-21.080l3.971-1.229c0 0-2.539-8.403-10.619-10.047-1.779-0.295-2.139 0.226-2.789 1.18-0.333 0.561-4.183 5.72-2.288 13.728l5.024-1.555z"></path>
</svg>
