<?xml version="1.0" encoding="utf-8"?>
<!-- Generated by IcoMoon.io -->
<!DOCTYPE svg PUBLIC "-//W3C//DTD SVG 1.1//EN" "http://www.w3.org/Graphics/SVG/1.1/DTD/svg11.dtd">
<svg version="1.1" xmlns="http://www.w3.org/2000/svg" xmlns:xlink="http://www.w3.org/1999/xlink" width="36" height="36" viewBox="0 0 36 36">
<path fill="#444" d="M18.148 12.42l4.438-0.959-7.228-4.261 0.871 3.992c0.19 0.867 1.051 1.418 1.918 1.228z"></path>
<path fill="#444" d="M33.559 3.355c-0.763-2.209-3.277-3.341-5.615-2.531s-3.616 3.253-2.854 5.46c0.365 1.059 1.141 1.865 2.102 2.333l-1.933 6.837-0.617-2.8-6.147 1.339c-1.739 0.382-3.456-0.718-3.836-2.454l-1.183-5.462-0.017-0.013-9.035 1.984c-1.512 0.331-2.469 1.824-2.136 3.334l4.797 21.855c0.329 1.508 1.824 2.467 3.334 2.134l15.595-3.424c1.51-0.329 2.465-1.824 2.132-3.334l-1.952-8.903 3.012-10.641c0.495-0.002 1.004-0.081 1.502-0.252 2.339-0.807 3.616-3.253 2.854-5.462zM8.013 21.186c-0.135-0.577 0.224-1.153 0.801-1.29l11.605-2.794c0.577-0.135 1.156 0.224 1.29 0.803s-0.224 1.155-0.801 1.29l-11.605 2.794c-0.579 0.137-1.158-0.224-1.29-0.803zM9.141 26.039c-0.135-0.581 0.224-1.156 0.805-1.292l11.603-2.794c0.577-0.135 1.155 0.224 1.29 0.805 0.135 0.575-0.224 1.153-0.803 1.288l-11.603 2.794c-0.579 0.137-1.158-0.224-1.292-0.801zM23.166 28.897l-11.605 2.794c-0.577 0.135-1.156-0.224-1.29-0.803s0.226-1.155 0.803-1.288l11.603-2.796c0.581-0.135 1.158 0.224 1.292 0.803 0.135 0.577-0.224 1.153-0.803 1.29z"></path>
</svg>
