<?xml version="1.0" encoding="utf-8"?>
<!-- Generated by IcoMoon.io -->
<!DOCTYPE svg PUBLIC "-//W3C//DTD SVG 1.1//EN" "http://www.w3.org/Graphics/SVG/1.1/DTD/svg11.dtd">
<svg version="1.1" xmlns="http://www.w3.org/2000/svg" xmlns:xlink="http://www.w3.org/1999/xlink" width="36" height="36" viewBox="0 0 36 36">
<path fill="#444" d="M24.425 0.627h-12.849c-2.837 0-5.138 2.035-5.138 4.54v20.47c0 0.214 0.024 0.423 0.054 0.629 0.413 5.084 5.398 9.106 11.502 9.106 6.037 0 10.986-3.936 11.487-8.946 0.054-0.256 0.081-0.521 0.081-0.789v-20.47c-0-2.505-2.301-4.54-5.138-4.54zM16.455 5.097c0-0.253 0.231-0.455 0.516-0.455h2.053c0.285 0 0.514 0.201 0.514 0.455v1.817c0 0.251-0.229 0.455-0.514 0.455h-2.053c-0.285 0-0.516-0.204-0.516-0.455v-1.817zM16.455 10.365c0-0.251 0.231-0.455 0.516-0.455h2.053c0.285 0 0.514 0.204 0.514 0.455v1.817c0 0.251-0.229 0.455-0.514 0.455h-2.053c-0.285 0-0.516-0.204-0.516-0.455v-1.817zM16.455 15.63c0-0.248 0.231-0.452 0.516-0.452h2.053c0.285 0 0.514 0.204 0.514 0.452v1.819c0 0.251-0.229 0.455-0.514 0.455h-2.053c-0.285 0-0.516-0.204-0.516-0.455v-1.819zM13.375 17.449c0 0.251-0.234 0.455-0.516 0.455h-2.055c-0.285 0-0.514-0.204-0.514-0.455v-1.819c0-0.248 0.229-0.452 0.514-0.452h2.055c0.283 0 0.516 0.204 0.516 0.452v1.819zM13.375 12.181c0 0.251-0.234 0.455-0.516 0.455h-2.055c-0.285 0-0.514-0.204-0.514-0.455v-1.817c0-0.251 0.229-0.455 0.514-0.455h2.055c0.283 0 0.516 0.204 0.516 0.455v1.817zM13.375 6.913c0 0.251-0.234 0.455-0.516 0.455h-2.055c-0.285 0-0.514-0.204-0.514-0.455v-1.817c0-0.253 0.229-0.455 0.514-0.455h2.055c0.283 0 0.516 0.201 0.516 0.455v1.817zM21.037 26.813h-1.704v1.507c0 0.649-0.592 1.178-1.327 1.178h-0.002c-0.735 0-1.332-0.526-1.335-1.175v-1.509l-1.706 0.002c-0.735 0-1.33-0.526-1.332-1.178 0-0.651 0.597-1.18 1.332-1.18h1.704v-1.507c-0.002-0.649 0.595-1.178 1.33-1.178h0.003c0.735 0 1.33 0.526 1.33 1.175l0.003 1.507h1.706c0.735 0 1.33 0.526 1.33 1.178 0.002 0.649-0.592 1.178-1.33 1.18zM25.705 17.449c0 0.251-0.231 0.455-0.514 0.455h-2.055c-0.283 0-0.514-0.204-0.514-0.455v-1.819c0-0.248 0.231-0.452 0.514-0.452h2.055c0.283 0 0.514 0.204 0.514 0.452v1.819zM25.705 12.181c0 0.251-0.231 0.455-0.514 0.455h-2.055c-0.283 0-0.514-0.204-0.514-0.455v-1.817c0-0.251 0.231-0.455 0.514-0.455h2.055c0.283 0 0.514 0.204 0.514 0.455v1.817zM25.705 6.913c0 0.251-0.231 0.455-0.514 0.455h-2.055c-0.283 0-0.514-0.204-0.514-0.455v-1.817c0-0.253 0.231-0.455 0.514-0.455h2.055c0.283 0 0.514 0.201 0.514 0.455v1.817z"></path>
</svg>
