<?xml version="1.0" encoding="utf-8"?>
<!-- Generated by IcoMoon.io -->
<!DOCTYPE svg PUBLIC "-//W3C//DTD SVG 1.1//EN" "http://www.w3.org/Graphics/SVG/1.1/DTD/svg11.dtd">
<svg version="1.1" xmlns="http://www.w3.org/2000/svg" xmlns:xlink="http://www.w3.org/1999/xlink" width="36" height="36" viewBox="0 0 36 36">
<path fill="#444" d="M9.912 30.957c0.035 0 0.072-0.008 0.107-0.008h-0.216c0.037 0 0.074 0.008 0.109 0.008z"></path>
<path fill="#444" d="M10.025 30.947c0.033-0.002 0.066-0.004 0.095-0.010h-0.090c0 0.004 0 0.008-0.004 0.010z"></path>
<path fill="#444" d="M11.275 30.146l-0.089 0.148c0.033-0.047 0.062-0.099 0.089-0.148z"></path>
<path fill="#444" d="M10.025 30.949v0h-0.004z"></path>
<path fill="#444" d="M30.525 29.413l-1.797 1.742-22.891-13.697c-0.408-0.245-0.939-0.111-1.184 0.297l-0.622 1.038c-0.245 0.41-0.109 0.941 0.299 1.186l6.634 4.141-1.445 2.539-0.494 0.836h-4.254v-3.278c0-0.953-0.556-1.555-1.509-1.555h-2.634v12.777h2.634c0.953 0 1.509-0.947 1.509-1.901v-2.588h5.249c0.002 0 0.004 0 0.006 0 0.002-0.004 0.004-0.008 0.004-0.012h0.095c0.437-0.058 0.82-0.297 1.062-0.642l0.091-0.148 0.224-0.383 2.424-4.044 13.854 8.286c0.408 0.245 0.937 0.111 1.182-0.297l1.861-3.109c0.243-0.412 0.111-0.941-0.297-1.186z"></path>
<path fill="#444" d="M4.884 15.666l23.612 14.125 6.651-6.025c-0.095-0.091-0.196-0.173-0.309-0.239l-25.52-15.27c-0.818-0.49-1.878-0.222-2.368 0.595l-2.66 4.446c-0.49 0.815-0.222 1.876 0.595 2.368z"></path>
<path fill="#444" d="M34.953 27.032l-0.583-0.346-3.457 5.776 0.581 0.348c0.41 0.245 0.939 0.111 1.186-0.297l2.57-4.295c0.245-0.412 0.111-0.941-0.296-1.186z"></path>
<path fill="#444" d="M23.829 5.276c5.387 0 9.768 4.382 9.768 9.764 0 0.49 0.395 0.89 0.885 0.89s0.889-0.4 0.889-0.89c0-6.365-5.181-11.539-11.543-11.539-0.49 0-0.887 0.395-0.887 0.885s0.397 0.89 0.887 0.89z"></path>
<path fill="#444" d="M23.829 8.826c3.426 0 6.216 2.788 6.216 6.216 0 0.488 0.397 0.885 0.888 0.885s0.887-0.397 0.887-0.885c0-4.408-3.585-7.991-7.991-7.991-0.49 0-0.887 0.395-0.887 0.887 0 0.488 0.397 0.887 0.887 0.887z"></path>
<path fill="#444" d="M23.829 12.376c1.47 0 2.665 1.198 2.665 2.664 0 0.49 0.397 0.887 0.889 0.887 0.49 0 0.885-0.397 0.885-0.887 0-2.448-1.991-4.439-4.439-4.439-0.49 0-0.887 0.397-0.887 0.889-0 0.488 0.397 0.885 0.887 0.885z"></path>
</svg>
