<?xml version="1.0" encoding="utf-8"?>
<!-- Generated by IcoMoon.io -->
<!DOCTYPE svg PUBLIC "-//W3C//DTD SVG 1.1//EN" "http://www.w3.org/Graphics/SVG/1.1/DTD/svg11.dtd">
<svg version="1.1" xmlns="http://www.w3.org/2000/svg" xmlns:xlink="http://www.w3.org/1999/xlink" width="36" height="36" viewBox="0 0 36 36">
<path fill="#444" d="M24.809 6.746c-0.339-0.807-0.085-2.835-0.677-3.564-0.589-0.724-2.275-2.581-6.153-2.581s-5.52 1.857-6.112 2.581c-0.591 0.729-0.339 2.757-0.674 3.564-0.337 0.806-2.108 2.15-2.108 5.326 0 3.175 1.856 4.544 1.856 5.354 0 0.409 0.012 0.080 0.204 4.389 0.284 6.368 0.564 8.671 2.527 12.184 1.007 1.804 7.421 1.97 8.405 0.42 2.174-3.42 2.527-5.973 2.778-12.605 0.157-4.168 0.207-3.979 0.207-4.389 0-0.81 1.854-2.18 1.854-5.354-0-3.176-1.772-4.52-2.107-5.326zM17.902 6.266c1.326 0 2.543 0.451 3.516 1.2l-1.947 1.95c-0.46-0.277-0.994-0.436-1.569-0.436-0.573 0-1.108 0.16-1.568 0.436l-1.949-1.951c0.976-0.75 2.192-1.2 3.517-1.2zM19.807 12.040c0 1.052-0.854 1.905-1.905 1.905s-1.906-0.852-1.906-1.905c0-1.053 0.854-1.903 1.906-1.903s1.905 0.851 1.905 1.903zM12.126 12.040c0-1.324 0.451-2.538 1.198-3.51l1.95 1.949c-0.272 0.458-0.432 0.99-0.432 1.561 0 0.572 0.16 1.108 0.436 1.569l-1.95 1.949c-0.75-0.978-1.202-2.192-1.202-3.519zM15.545 29.593c-0.996 0-1.803-0.807-1.803-1.798 0-0.996 0.807-1.803 1.803-1.803s1.801 0.808 1.801 1.803c-0 0.99-0.805 1.798-1.801 1.798zM15.545 24.503c-0.996 0-1.803-0.806-1.803-1.802 0-0.993 0.807-1.799 1.803-1.799s1.801 0.806 1.801 1.799c-0 0.996-0.805 1.802-1.801 1.802zM17.902 17.816c-1.322 0-2.536-0.448-3.512-1.197l1.951-1.951c0.457 0.276 0.99 0.434 1.561 0.434s1.104-0.158 1.562-0.434l1.95 1.951c-0.974 0.75-2.19 1.197-3.513 1.197zM20.307 29.593c-0.996 0-1.802-0.807-1.802-1.798 0-0.996 0.806-1.803 1.802-1.803s1.803 0.808 1.803 1.803c0 0.99-0.807 1.798-1.803 1.798zM20.307 24.503c-0.996 0-1.802-0.806-1.802-1.802 0-0.993 0.806-1.799 1.802-1.799s1.803 0.806 1.803 1.799c0 0.996-0.807 1.802-1.803 1.802zM22.479 15.558l-1.952-1.949c0.277-0.461 0.437-0.997 0.437-1.569 0-0.57-0.159-1.103-0.432-1.561l1.95-1.949c0.745 0.973 1.194 2.189 1.194 3.51 0 1.327-0.448 2.541-1.197 3.519z"></path>
</svg>
