<?xml version="1.0" encoding="utf-8"?>
<!-- Generated by IcoMoon.io -->
<!DOCTYPE svg PUBLIC "-//W3C//DTD SVG 1.1//EN" "http://www.w3.org/Graphics/SVG/1.1/DTD/svg11.dtd">
<svg version="1.1" xmlns="http://www.w3.org/2000/svg" xmlns:xlink="http://www.w3.org/1999/xlink" width="36" height="36" viewBox="0 0 36 36">
<path fill="#444" d="M8.966 15.846c-0.013-1.398 0.569-2.725 1.757-3.644l0.534-0.485v-2.438c0-1.568-0.922-2.066-2.162-1.109l-7.623 5.924c-1.241 0.958-1.203 2.508 0.054 3.444l7.527 5.666c1.258 0.936 2.204 0.419 2.204-1.149v-2.18l-0.47-0.419c-1.205-0.897-1.81-2.212-1.822-3.611z"></path>
<path fill="#444" d="M32.663 16.558c0 0-2.805-3.683-10.245-4.414v-2.864c0-1.568-1.121-2.066-2.362-1.109l-7.817 5.924c-0.801 0.618-0.981 1.483-0.981 2.271 0 0.001 0 0.001 0 0.001v0c0 0.432 0.512 0.841 0.957 1.172l7.763 5.667c1.259 0.936 2.439 0.419 2.439-1.149v-2.594c0-0.020 11.087-2.837 12.807 8.638 0.022 0.144-0.031 0.225 0.007 0.216 0 0 0.057 0.034 0.094-0.293 0.197-1.785 0.609-7.832-2.663-11.465z"></path>
</svg>
