<?xml version="1.0" encoding="utf-8"?>
<!-- Generated by IcoMoon.io -->
<!DOCTYPE svg PUBLIC "-//W3C//DTD SVG 1.1//EN" "http://www.w3.org/Graphics/SVG/1.1/DTD/svg11.dtd">
<svg version="1.1" xmlns="http://www.w3.org/2000/svg" xmlns:xlink="http://www.w3.org/1999/xlink" width="36" height="36" viewBox="0 0 36 36">
<path fill="#444" d="M31.115 15.923c0 0-4.513-5.303-15.208-6.355v-4.125c0-2.257-1.157-2.976-2.944-1.596l-11.121 8.529c-1.155 0.891-1.745 2.136-1.28 3.271 0 0 0 0.001 0 0.001v0c0 0.622 0.834 1.21 1.475 1.688l10.767 8.158c1.811 1.348 3.103 0.604 3.103-1.654v-3.734c0-0.030 16.421-4.085 18.898 12.436 0.031 0.207 0.184 0.325 0.239 0.312 0 0-0.033 0.049 0.021-0.423 0.284-2.57 0.764-11.277-3.95-16.508z"></path>
</svg>
