<?xml version="1.0" encoding="utf-8"?>
<!-- Generated by IcoMoon.io -->
<!DOCTYPE svg PUBLIC "-//W3C//DTD SVG 1.1//EN" "http://www.w3.org/Graphics/SVG/1.1/DTD/svg11.dtd">
<svg version="1.1" xmlns="http://www.w3.org/2000/svg" xmlns:xlink="http://www.w3.org/1999/xlink" width="36" height="36" viewBox="0 0 36 36">
<path fill="#444" d="M34.298 11.198h-9.673c-0.592 0-1.072 0.483-1.072 1.075 0 0.594 0.481 1.075 1.072 1.075h0.891v16.472c0 2.179 1.767 3.945 3.946 3.945s3.948-1.767 3.948-3.945v-16.472h0.889c0.594 0 1.075-0.481 1.075-1.075-0-0.592-0.481-1.075-1.075-1.075zM27.851 25.169c0 0.295-0.241 0.538-0.538 0.538-0.295 0-0.536-0.243-0.536-0.538v-11.822h1.075v11.822z"></path>
<path fill="#444" d="M22.476 12.273c0-1.186 0.966-2.149 2.151-2.149h3.102l0.79-1.040c0.297-0.391 0.256-0.998-0.092-1.344l-1.773-1.775c-0.348-0.348-0.953-0.389-1.348-0.092l-2.711 2.066c-1.060-0.654-2.228-1.145-3.471-1.438l-0.459-3.38c-0.068-0.487-0.525-0.886-1.019-0.886h-2.506c-0.493 0-0.953 0.399-1.017 0.886l-0.461 3.38c-1.243 0.293-2.414 0.784-3.469 1.436l-2.715-2.064c-0.391-0.297-0.998-0.256-1.346 0.092l-1.773 1.775c-0.348 0.346-0.391 0.953-0.092 1.344l2.061 2.715c-0.651 1.057-1.141 2.228-1.435 3.469l-3.38 0.461c-0.487 0.066-0.887 0.523-0.887 1.015v2.51c0 0.491 0.4 0.948 0.887 1.015l3.38 0.461c0.295 1.245 0.784 2.414 1.438 3.471l-2.064 2.713c-0.299 0.391-0.256 0.998 0.092 1.348l1.773 1.771c0.348 0.348 0.955 0.391 1.346 0.092l2.715-2.061c1.055 0.654 2.226 1.141 3.469 1.436l0.461 3.377c0.064 0.489 0.523 0.889 1.017 0.889h2.506c0.493 0 0.951-0.399 1.019-0.889l0.459-3.377c1.243-0.295 2.412-0.782 3.471-1.436l1.846 1.404v-15.052c-1.098-0.094-1.965-1.019-1.965-2.143zM16.395 24.171c-3.409 0-6.174-2.762-6.174-6.171 0-3.407 2.764-6.174 6.174-6.174 3.407 0 6.169 2.766 6.169 6.174 0 3.409-2.762 6.171-6.169 6.171z"></path>
<path fill="#444" d="M33.514 8.684c0 0.824-0.686 1.493-1.529 1.493s-1.532-0.669-1.532-1.493c0-0.825 0.688-1.495 1.532-1.495s1.529 0.671 1.529 1.495z"></path>
<path fill="#444" d="M31.22 5.689c0 0.41-0.344 0.746-0.765 0.746-0.423 0-0.763-0.335-0.763-0.746 0-0.414 0.34-0.748 0.763-0.748 0.421 0 0.765 0.333 0.765 0.748z"></path>
<path fill="#444" d="M33.939 3.335c0 0.602-0.5 1.094-1.117 1.094-0.619 0-1.119-0.491-1.119-1.094s0.5-1.089 1.119-1.089c0.617 0 1.117 0.487 1.117 1.089z"></path>
</svg>
