<?xml version="1.0" encoding="utf-8"?>
<!-- Generated by IcoMoon.io -->
<!DOCTYPE svg PUBLIC "-//W3C//DTD SVG 1.1//EN" "http://www.w3.org/Graphics/SVG/1.1/DTD/svg11.dtd">
<svg version="1.1" xmlns="http://www.w3.org/2000/svg" xmlns:xlink="http://www.w3.org/1999/xlink" width="36" height="36" viewBox="0 0 36 36">
<path fill="#444" d="M33.204 0.628h-15.018c-0.597 0-1.427 0.343-1.849 0.767l-15.073 15.070c-0.849 0.846-0.849 2.221 0 3.072l15.202 15.2c0.849 0.846 2.223 0.846 3.072 0l15.070-15.070c0.422-0.424 0.765-1.252 0.765-1.853v-15.012c0-1.202-0.971-2.173-2.169-2.173zM24.516 14.145c-1.468 0-2.658-1.192-2.658-2.658 0-1.468 1.19-2.658 2.658-2.658 1.466 0 2.658 1.19 2.658 2.658 0 1.466-1.192 2.658-2.658 2.658z"></path>
</svg>
