<?xml version="1.0" encoding="utf-8"?>
<!-- Generated by IcoMoon.io -->
<!DOCTYPE svg PUBLIC "-//W3C//DTD SVG 1.1//EN" "http://www.w3.org/Graphics/SVG/1.1/DTD/svg11.dtd">
<svg version="1.1" xmlns="http://www.w3.org/2000/svg" xmlns:xlink="http://www.w3.org/1999/xlink" width="36" height="36" viewBox="0 0 36 36">
<path fill="#444" d="M20.923 18.689h-5.586l7.985-18.127 4.309 3.313z"></path>
<path fill="#444" d="M15.525 5.209h4.817l2.098-4.647h-8.896z"></path>
<path fill="#444" d="M12.679 0.563l-4.31 3.313 6.070 14.74 2.816-6.296z"></path>
<path fill="#444" d="M17.896 19.425c-4.422 0-8.006 3.585-8.006 8.006 0 4.424 3.584 8.007 8.006 8.007s8.006-3.583 8.006-8.007c-0-4.42-3.584-8.006-8.006-8.006zM21.435 32.386l-3.539-2.586-3.541 2.565 1.354-4.11-3.54-2.517h4.376l1.352-4.162 1.353 4.162h4.376l-3.54 2.514 1.351 4.134z"></path>
</svg>
