<?xml version="1.0" encoding="utf-8"?>
<!-- Generated by IcoMoon.io -->
<!DOCTYPE svg PUBLIC "-//W3C//DTD SVG 1.1//EN" "http://www.w3.org/Graphics/SVG/1.1/DTD/svg11.dtd">
<svg version="1.1" xmlns="http://www.w3.org/2000/svg" xmlns:xlink="http://www.w3.org/1999/xlink" width="36" height="36" viewBox="0 0 36 36">
<path fill="#444" d="M25.863 35.373h-15.721c-1.834 0-3.324-1.488-3.324-3.319v-28.090c0-1.836 1.5-3.33 3.344-3.33l15.7-0.006c1.83 0 3.32 1.49 3.32 3.323v28.102c0 1.832-1.49 3.319-3.32 3.319zM10.162 2.71c-0.688 0-1.266 0.576-1.266 1.254v28.090c0 0.688 0.557 1.245 1.245 1.245h15.721c0.684 0 1.245-0.557 1.245-1.245v-28.102c0-0.688-0.562-1.245-1.245-1.245l-15.7 0.004z"></path>
<path fill="#444" d="M19.039 30.913c0 0.572-0.462 1.038-1.038 1.038-0.572 0-1.038-0.466-1.038-1.038 0-0.576 0.466-1.040 1.038-1.040 0.576 0 1.038 0.464 1.038 1.040z"></path>
<path fill="#444" d="M24.037 4.208l-11.848 0.002c-0.731 0-1.312 0.613-1.312 1.343v21.417c0 0.738 0.416 1.633 1.148 1.633h11.913c0.733 0 1.533-0.895 1.533-1.633v-21.432c0-0.731-0.696-1.33-1.434-1.33zM23.734 10.841l-4.863 1.535v10.657c0 1.187-1.49 2.87-3.193 3.199-1.705 0.325-3.578-0.288-3.578-1.863s1.444-2.546 3.148-2.874c0.848-0.162 1.538-0.054 2.232 0.247v-12.23l6.256-1.989v3.317z"></path>
</svg>
