<?xml version="1.0" encoding="utf-8"?>
<!-- Generated by IcoMoon.io -->
<!DOCTYPE svg PUBLIC "-//W3C//DTD SVG 1.1//EN" "http://www.w3.org/Graphics/SVG/1.1/DTD/svg11.dtd">
<svg version="1.1" xmlns="http://www.w3.org/2000/svg" xmlns:xlink="http://www.w3.org/1999/xlink" width="36" height="36" viewBox="0 0 36 36">
<path fill="#444" d="M23.323 32.403h-2.284c1.724-1.082 2.892-3.168 2.893-5.564l0.008-19.855c0-3.51-2.499-6.355-5.584-6.355l-0.698-0.002c-3.085 0-5.586 2.843-5.593 6.351l-0.008 19.855c0 2.398 1.168 4.487 2.893 5.57h-2.273c-0.676 0-1.225 0.665-1.225 1.486 0 0.819 0.549 1.484 1.225 1.484h10.647c0.676 0 1.225-0.665 1.225-1.484 0-0.821-0.549-1.486-1.225-1.486zM18 5.167c0.506 0 0.916 0.412 0.916 0.918 0 0.508-0.41 0.916-0.916 0.916-0.508 0-0.916-0.408-0.916-0.916 0-0.506 0.408-0.918 0.916-0.918zM18 8.922c0.506 0 0.916 0.41 0.916 0.918 0 0.504-0.41 0.916-0.916 0.916-0.508 0-0.916-0.412-0.916-0.916 0-0.508 0.408-0.918 0.916-0.918zM18 12.677c0.506 0 0.916 0.408 0.916 0.916s-0.41 0.916-0.916 0.916c-0.508 0-0.916-0.408-0.916-0.916s0.408-0.916 0.916-0.916zM18 16.429c0.506 0 0.916 0.41 0.916 0.918 0 0.506-0.41 0.916-0.916 0.916-0.508 0-0.916-0.41-0.916-0.916 0-0.508 0.408-0.918 0.916-0.918zM18 21.199c2.207 0 4.001 1.797 4.001 4.003s-1.794 4.003-4.001 4.003-4.001-1.797-4.001-4.003c0-2.207 1.794-4.003 4.001-4.003z"></path>
<path fill="#444" d="M18 28.271c1.693 0 3.069-1.376 3.069-3.069 0-1.691-1.376-3.069-3.069-3.069s-3.071 1.378-3.071 3.069c0 1.693 1.378 3.069 3.071 3.069z"></path>
</svg>
