<?xml version="1.0" encoding="utf-8"?>
<!-- Generated by IcoMoon.io -->
<!DOCTYPE svg PUBLIC "-//W3C//DTD SVG 1.1//EN" "http://www.w3.org/Graphics/SVG/1.1/DTD/svg11.dtd">
<svg version="1.1" xmlns="http://www.w3.org/2000/svg" xmlns:xlink="http://www.w3.org/1999/xlink" width="36" height="36" viewBox="0 0 36 36">
<path fill="#444" d="M24.526 0.563c-0.83 0-1.179 0.393-1.179 0.877v7.493h-1.395v-0.323c0-3.014-2.349-5.257-5.362-5.257h-0.94c-3.013 0-5.323 2.243-5.323 5.257v19.635c0 2.082 1.033 3.938 2.75 4.868h-1.77c-0.67 0-1.212 0.505-1.212 1.162s0.543 1.162 1.212 1.162h9.605c0.67 0 1.213-0.505 1.213-1.162s-0.543-1.162-1.212-1.162h-1.75c1.717-0.93 2.789-2.785 2.789-4.868v-16.522h2.847c0.484 0 0.873-0.565 0.873-1.048v-9.235c0-0.484-0.332-0.877-1.146-0.877zM16.178 30.388c-1.283 0-2.325-1.041-2.325-2.325s1.042-2.325 2.325-2.325c1.284 0 2.326 1.041 2.326 2.325s-1.042 2.325-2.326 2.325z"></path>
</svg>
