<?xml version="1.0" encoding="utf-8"?>
<!-- Generated by IcoMoon.io -->
<!DOCTYPE svg PUBLIC "-//W3C//DTD SVG 1.1//EN" "http://www.w3.org/Graphics/SVG/1.1/DTD/svg11.dtd">
<svg version="1.1" xmlns="http://www.w3.org/2000/svg" xmlns:xlink="http://www.w3.org/1999/xlink" width="36" height="36" viewBox="0 0 36 36">
<path fill="#444" d="M17.993 15.639c4.041 0 7.323-3.367 7.323-7.508 0-4.136-3.283-7.504-7.323-7.504-4.038 0-7.323 3.367-7.323 7.504 0 4.14 3.285 7.508 7.323 7.508z"></path>
<path fill="#444" d="M26.567 15.991l-2.508-0.667c-1.631 1.435-3.745 2.31-6.060 2.314-2.314-0.004-4.429-0.879-6.060-2.314l-2.51 0.667c-2.675 0.747-3.552 1.871-3.334 3.334l2 12.714c0.297 1.996 1.493 3.334 3.334 3.334h13.137c1.845 0 3.043-1.338 3.336-3.334l2-12.714c0.221-1.463-0.656-2.586-3.336-3.334zM13.273 32.897c-0.17 0.166-0.389 0.251-0.607 0.251-0.221 0-0.439-0.085-0.607-0.251-1.726-1.728-2.68-4.026-2.68-6.468 0-2.446 0.953-4.743 2.68-6.47 0.338-0.333 0.879-0.333 1.215 0 0.333 0.335 0.333 0.879 0 1.212-1.406 1.403-2.179 3.272-2.179 5.257 0 1.983 0.773 3.85 2.179 5.257 0.333 0.331 0.333 0.875 0 1.21zM15.883 28.546c0.359 0.361 0.359 0.945 0 1.306-0.183 0.178-0.418 0.272-0.652 0.272-0.238 0-0.473-0.093-0.654-0.272-0.913-0.913-1.418-2.13-1.418-3.423 0-1.295 0.505-2.51 1.418-3.423 0.361-0.363 0.947-0.363 1.306 0 0.359 0.359 0.359 0.943 0 1.304-0.567 0.565-0.877 1.319-0.877 2.119-0 0.798 0.31 1.552 0.877 2.117zM18.669 27.733c-0.722 0.367-1.603 0.089-1.975-0.633-0.367-0.722-0.083-1.605 0.635-1.979 0.718-0.365 1.605-0.087 1.975 0.635 0.372 0.722 0.087 1.605-0.635 1.977zM20.771 30.124c-0.236 0-0.471-0.093-0.652-0.272-0.361-0.361-0.361-0.945 0-1.306 0.565-0.565 0.875-1.319 0.875-2.117 0-0.8-0.31-1.554-0.875-2.119-0.361-0.361-0.361-0.943-0.002-1.304 0.361-0.363 0.945-0.363 1.306 0 0.917 0.913 1.418 2.128 1.418 3.423 0 1.293-0.501 2.51-1.414 3.423-0.182 0.178-0.418 0.272-0.656 0.272zM23.941 32.897c-0.166 0.166-0.384 0.251-0.603 0.251-0.221 0-0.442-0.085-0.607-0.251-0.335-0.335-0.335-0.879 0-1.21 1.401-1.406 2.176-3.274 2.176-5.257 0-1.985-0.775-3.854-2.179-5.257-0.335-0.333-0.335-0.877 0-1.212 0.333-0.333 0.877-0.333 1.212 0 1.726 1.726 2.68 4.024 2.68 6.47 0 2.442-0.953 4.739-2.68 6.468z"></path>
</svg>
