<?xml version="1.0" encoding="utf-8"?>
<!-- Generated by IcoMoon.io -->
<!DOCTYPE svg PUBLIC "-//W3C//DTD SVG 1.1//EN" "http://www.w3.org/Graphics/SVG/1.1/DTD/svg11.dtd">
<svg version="1.1" xmlns="http://www.w3.org/2000/svg" xmlns:xlink="http://www.w3.org/1999/xlink" width="36" height="36" viewBox="0 0 36 36">
<path fill="#444" d="M28.249 20.69c0.406-0.41 1.067-0.41 1.473 0l5.651 5.649-5.651 5.651c-0.406 0.408-1.067 0.408-1.473 0-0.408-0.404-0.408-1.067 0-1.473l4.175-4.177-4.175-4.175c-0.408-0.408-0.408-1.067 0-1.473z"></path>
<path fill="#444" d="M25.791 27.567c-0.68-0.678-0.68-1.778 0-2.455 0.68-0.68 1.778-0.68 2.457 0 0.678 0.678 0.678 1.778 0 2.455-0.68 0.68-1.778 0.68-2.457 0z"></path>
<path fill="#444" d="M20.94 27.567c-0.678-0.678-0.678-1.778 0-2.455 0.68-0.68 1.782-0.68 2.457 0 0.68 0.678 0.68 1.778 0 2.455-0.675 0.68-1.778 0.68-2.457 0z"></path>
<path fill="#444" d="M29.055 6.945c-2.035-2.037-5.334-2.037-7.369 0l-14.741 14.741c-2.037 2.035-2.037 5.334 0 7.369 2.035 2.037 5.336 2.037 7.371 0l14.739-14.739c2.037-2.035 2.037-5.336 0-7.371zM20.211 20.211l-2.949-2.946-7.368 7.368c-0.408 0.408-0.408 1.067 0 1.475 0.406 0.408 0.406 1.067 0 1.473-0.408 0.408-1.069 0.408-1.475 0-0.74-0.74-1.028-1.757-0.872-2.714 0 0 0-0.004 0.002-0.008 0.010-0.066 0.023-0.133 0.039-0.199 0.004-0.023 0.012-0.044 0.017-0.066 0.014-0.058 0.031-0.116 0.048-0.178 0.010-0.025 0.021-0.056 0.033-0.083 0.027-0.077 0.056-0.153 0.089-0.23 0.023-0.052 0.046-0.104 0.073-0.155 0.019-0.035 0.037-0.070 0.058-0.106 0.027-0.048 0.056-0.097 0.085-0.143 0.021-0.033 0.041-0.064 0.062-0.095 0.035-0.052 0.075-0.104 0.112-0.151 0.021-0.027 0.039-0.052 0.060-0.077 0.060-0.075 0.126-0.145 0.195-0.216l14.741-14.741c1.218-1.218 3.203-1.218 4.424 0 1.216 1.218 1.216 3.204 0 4.422l-7.373 7.371z"></path>
<path fill="#444" d="M7.751 15.312c-0.404 0.408-1.067 0.408-1.473 0l-5.651-5.651 5.651-5.651c0.406-0.408 1.069-0.408 1.473 0 0.408 0.406 0.408 1.065 0 1.473l-4.175 4.177 4.175 4.177c0.408 0.406 0.408 1.065 0 1.473z"></path>
<path fill="#444" d="M10.209 8.433c0.68 0.678 0.68 1.778 0 2.458-0.676 0.678-1.778 0.678-2.458 0-0.677-0.68-0.677-1.78 0-2.458 0.68-0.677 1.782-0.677 2.458 0z"></path>
<path fill="#444" d="M15.060 8.433c0.675 0.678 0.675 1.778 0 2.458-0.678 0.678-1.778 0.678-2.457 0-0.68-0.68-0.68-1.78 0-2.458s1.78-0.677 2.457 0z"></path>
</svg>
