<?xml version="1.0" encoding="utf-8"?>
<!-- Generated by IcoMoon.io -->
<!DOCTYPE svg PUBLIC "-//W3C//DTD SVG 1.1//EN" "http://www.w3.org/Graphics/SVG/1.1/DTD/svg11.dtd">
<svg version="1.1" xmlns="http://www.w3.org/2000/svg" xmlns:xlink="http://www.w3.org/1999/xlink" width="36" height="36" viewBox="0 0 36 36">
<path fill="#444" d="M33.803 5.804c-1.054-1.068-2.458-1.656-3.954-1.656-1.191 0-2.32 0.378-3.266 1.070-2.737-2.185-6.188-3.493-9.944-3.493-8.879 0-16.076 7.286-16.076 16.275 0 8.988 7.198 16.275 16.076 16.275 8.88 0 16.076-7.287 16.076-16.275 0-0.97-0.088-1.916-0.249-2.839l1.336-1.354c2.18-2.205 2.181-5.797 0-8.004zM31.824 11.807l-13.215 13.381c-1.088 1.1-2.868 1.1-3.954 0l-6.708-6.79c-1.088-1.102-1.088-2.902 0-4.002s2.866-1.101 3.953 0l3.686 3.731c1.087 1.101 1.003 1.101 2.091 0l10.195-10.322c0.244-0.246 0.525-0.428 0.823-0.565v0 0c0.077-0.035 0.153-0.066 0.233-0.093 0.112-0.041 0.225-0.075 0.339-0.101 0.042-0.009 0.086-0.015 0.127-0.023 0.151-0.026 0.3-0.044 0.455-0.044 0.427 0 0.849 0.11 1.241 0.306 0.264 0.133 0.518 0.298 0.737 0.52 1.086 1.101 1.086 2.903-0.002 4.003z"></path>
</svg>
