<?xml version="1.0" encoding="utf-8"?>
<!-- Generated by IcoMoon.io -->
<!DOCTYPE svg PUBLIC "-//W3C//DTD SVG 1.1//EN" "http://www.w3.org/Graphics/SVG/1.1/DTD/svg11.dtd">
<svg version="1.1" xmlns="http://www.w3.org/2000/svg" xmlns:xlink="http://www.w3.org/1999/xlink" width="36" height="36" viewBox="0 0 36 36">
<path fill="#444" d="M34.665 19.208c-0.499-0.506-1.164-0.785-1.871-0.785-0.564 0-1.098 0.18-1.546 0.507-1.295-1.034-2.928-1.652-4.705-1.652-4.201 0-7.607 3.448-7.607 7.701s3.406 7.701 7.607 7.701c4.202 0 7.607-3.448 7.607-7.701 0-0.458-0.042-0.906-0.117-1.343l0.631-0.641c1.031-1.042 1.032-2.742 0.001-3.786zM33.728 22.049l-6.254 6.332c-0.514 0.52-1.357 0.52-1.871 0l-3.175-3.213c-0.513-0.521-0.513-1.374 0-1.894s1.357-0.521 1.871 0l1.744 1.767c0.514 0.52 0.475 0.52 0.989 0l4.824-4.885c0.115-0.116 0.248-0.203 0.39-0.267v0 0c0.036-0.016 0.073-0.031 0.11-0.045 0.053-0.019 0.106-0.035 0.16-0.048 0.020-0.004 0.041-0.007 0.061-0.010 0.071-0.012 0.143-0.022 0.215-0.022 0.203 0 0.402 0.053 0.587 0.145 0.126 0.063 0.244 0.141 0.349 0.246 0.513 0.521 0.513 1.375-0.001 1.895z"></path>
<path fill="#444" d="M26.484 15.098c2.329 0 4.303 0.822 6.163 2.189v-11.273c0-1.396-1.187-2.663-2.584-2.663h-26.79c-1.396 0-2.711 1.266-2.711 2.663v18.331c0 1.397 1.315 2.256 2.711 2.256h13.706c-0.146-0.465-0.215-1.225-0.215-1.936 0-5.36 4.36-9.568 9.719-9.568zM16.402 10.533l-0.461-1.256c-0.258-0.515-0.941-1.274-1.516-1.274h-11.072v-0.809c0-0.576 0.515-1.516 1.090-1.516h24.441c0.576 0 0.973 0.94 0.973 1.516v4.064h-11.939c-0.576 0-1.258-0.208-1.517-0.724z"></path>
</svg>
