<?xml version="1.0" encoding="utf-8"?>
<!-- Generated by IcoMoon.io -->
<!DOCTYPE svg PUBLIC "-//W3C//DTD SVG 1.1//EN" "http://www.w3.org/Graphics/SVG/1.1/DTD/svg11.dtd">
<svg version="1.1" xmlns="http://www.w3.org/2000/svg" xmlns:xlink="http://www.w3.org/1999/xlink" width="36" height="36" viewBox="0 0 36 36">
<path fill="#444" d="M19.686 7.238c-0.112-0.265-0.419-0.392-0.684-0.282l-1.105 0.458-1.821-1.133c-0.245-0.153-0.564-0.079-0.717 0.166s-0.079 0.566 0.166 0.719l1.513 0.941c-0.004 0.073 0.008 0.143 0.037 0.214 0.083 0.199 0.278 0.323 0.481 0.323 0.066 0 0.133-0.014 0.199-0.041l0.046-0.019 0.019 0.012c0.087 0.054 0.18 0.079 0.276 0.079 0.174 0 0.344-0.087 0.443-0.247 0.033-0.056 0.056-0.116 0.068-0.178l0.796-0.329c0.267-0.112 0.392-0.414 0.284-0.682z"></path>
<path fill="#444" d="M34.618 14.979l-10.213-4.476v-4.6h1.386c0.209 0 0.406-0.072 0.57-0.164 0.292-0.16 0.317-0.642 0.064-0.924-0.151-0.168-1.301-0.794-1.301-0.794l-6.254-2.982c-0.518-0.249-1.359-0.247-1.877 0.004l-6.142 2.978c0 0-1.125 0.622-1.277 0.792-0.253 0.284-0.224 0.767 0.064 0.926 0.166 0.091 0.363 0.164 0.574 0.164h1.376v4.571l-10.207 4.505c-0.713 0.408-0.833 0.926-0.713 1.442 0.17 0.56 0.7 0.692 1.353 0.692h2.211l-0.002 16.246c0 0.448 0.168 0.856 0.441 1.173 0.271 0.307 0.642 0.518 1.063 0.589v0.025h7.553v-6.596c0-0.572 0.468-1.040 1.044-1.040h7.337c0.574 0 1.042 0.468 1.042 1.040v6.596h7.246c0.537 0 1.022-0.238 1.349-0.613 0.276-0.317 0.443-0.725 0.443-1.173v-16.246h2.228c0.657 0 1.187-0.133 1.353-0.692 0.122-0.516 0-1.034-0.713-1.442zM13.288 20.765c0 0.574-0.468 1.042-1.040 1.042h-1.811c-0.572 0-1.044-0.468-1.044-1.042v-1.625c0-0.574 0.472-1.042 1.044-1.042h1.811c0.572 0 1.040 0.468 1.040 1.042v1.625zM19.947 20.765c0 0.574-0.468 1.042-1.044 1.042h-1.807c-0.574 0-1.044-0.468-1.044-1.042v-1.625c0-0.574 0.47-1.042 1.044-1.042h1.807c0.576 0 1.044 0.468 1.044 1.042v1.625zM17.85 11.195c-1.767 0-3.199-1.43-3.199-3.197 0-1.765 1.432-3.195 3.199-3.195 1.766 0 3.197 1.43 3.197 3.195 0 1.768-1.432 3.197-3.197 3.197zM26.607 20.765c0 0.574-0.468 1.042-1.042 1.042h-1.813c-0.572 0-1.040-0.468-1.040-1.042v-1.625c0-0.574 0.468-1.042 1.040-1.042h1.813c0.574 0 1.042 0.468 1.042 1.042v1.625z"></path>
</svg>
