<?xml version="1.0" encoding="utf-8"?>
<!-- Generated by IcoMoon.io -->
<!DOCTYPE svg PUBLIC "-//W3C//DTD SVG 1.1//EN" "http://www.w3.org/Graphics/SVG/1.1/DTD/svg11.dtd">
<svg version="1.1" xmlns="http://www.w3.org/2000/svg" xmlns:xlink="http://www.w3.org/1999/xlink" width="36" height="36" viewBox="0 0 36 36">
<path fill="#444" d="M34.865 5.555l-1.444-1.722c-0.868-1.033-2.41-1.17-3.442-0.303l-1.108 0.093-10.085 8.465-0.244 1.040c-1.032 0.867-1.167 2.408-0.301 3.442l0.006 0.006c-2.885 2.418-12.164 10.415-13.208 11.291-0.379 0.101-1.727 0.574-1.727 0.574l-2.749 3.27 1.115 1.329 3.697-2.14c0 0 0.699-1.247 0.865-1.601 1.044-0.877 10.561-8.592 13.443-11.014l0.004 0.007c0.869 1.033 2.409 1.169 3.443 0.301l1.068-0.056 10.085-8.465 0.282-1.075c1.033-0.868 1.169-2.411 0.3-3.442z"></path>
</svg>
