<?xml version="1.0" encoding="utf-8"?>
<!-- Generated by IcoMoon.io -->
<!DOCTYPE svg PUBLIC "-//W3C//DTD SVG 1.1//EN" "http://www.w3.org/Graphics/SVG/1.1/DTD/svg11.dtd">
<svg version="1.1" xmlns="http://www.w3.org/2000/svg" xmlns:xlink="http://www.w3.org/1999/xlink" width="36" height="36" viewBox="0 0 36 36">
<path fill="#444" d="M6.171 20.093c-0.124 0.465-0.088 1.25 0.177 1.586 0.282 0.335 0.705 0.528 1.411 0.528 1.11 0 2.378-0.254 2.591-1.277 0.052-0.229 0-0.418-0.106-0.578-0.546-0.81-6.504-1.408-7.897-2.905-0.565-0.599-0.583-1.497-0.424-2.22 0.581-2.785 3.419-3.972 8.514-3.972 5.411-0 6.716 1.398 6.239 4.188h-5.253c0.106-0.93-0.017-1.21-0.352-1.475-0.317-0.265-0.827-0.383-1.497-0.383-1.129 0-1.815 0.406-1.957 1.059-0.036 0.194-0.018 0.432 0.106 0.573 0.651 0.793 6.433 1.353 7.79 2.869 0.405 0.441 0.776 1.125 0.512 2.361-0.529 2.519-3.102 4.105-8.902 4.105-6.908 0-6.804-2.6-6.415-4.46h5.463z"></path>
<path fill="#444" d="M20.327 11.258h6.821c3.755 0 6.118 0.469 7.491 2.232 0.722 0.935 1.022 2.535 0.616 4.439-0.387 1.869-1.392 3.728-2.697 4.61-1.745 1.198-3.261 1.739-7.19 1.739h-7.737l2.696-13.020zM23.605 21.488h1.482c2.432 0 4.125-1.341 4.635-3.72 0.494-2.378-0.723-3.72-3.154-3.72h-1.481l-1.481 7.44z"></path>
</svg>
