<?xml version="1.0" encoding="utf-8"?>
<!-- Generated by IcoMoon.io -->
<!DOCTYPE svg PUBLIC "-//W3C//DTD SVG 1.1//EN" "http://www.w3.org/Graphics/SVG/1.1/DTD/svg11.dtd">
<svg version="1.1" xmlns="http://www.w3.org/2000/svg" xmlns:xlink="http://www.w3.org/1999/xlink" width="36" height="36" viewBox="0 0 36 36">
<path fill="#444" d="M32.315 23.636h-28.628c-0.591 0-1.073 0.48-1.073 1.073s0.482 1.073 1.073 1.073h28.628c0.591 0 1.071-0.48 1.071-1.073s-0.48-1.073-1.071-1.073z"></path>
<path fill="#444" d="M32.631 26.856c0.984 0 2.044 0.764 2.354 1.699l0.301 0.901c0.312 0.93-0.239 1.694-1.225 1.694h-32.205c-0.984 0-1.479-0.743-1.101-1.652l0.412-0.99c0.38-0.909 1.496-1.652 2.48-1.652h28.985z"></path>
<path fill="#444" d="M19.779 8.363c0-0.038 0.009-0.075 0.009-0.113 0-0.8-0.529-1.468-1.251-1.699v-0.63h0.359c0.295 0 0.533-0.237 0.533-0.533 0-0.299-0.239-0.538-0.533-0.538h-1.79c-0.297 0-0.538 0.239-0.538 0.538 0 0.297 0.241 0.533 0.538 0.533h0.359v0.63c-0.726 0.23-1.253 0.898-1.253 1.699 0 0.038 0.009 0.075 0.013 0.113-7.066 0.877-12.54 6.897-12.54 14.2h28.628c0-7.303-5.47-13.323-12.533-14.2z"></path>
</svg>
