<?xml version="1.0" encoding="utf-8"?>
<!-- Generated by IcoMoon.io -->
<!DOCTYPE svg PUBLIC "-//W3C//DTD SVG 1.1//EN" "http://www.w3.org/Graphics/SVG/1.1/DTD/svg11.dtd">
<svg version="1.1" xmlns="http://www.w3.org/2000/svg" xmlns:xlink="http://www.w3.org/1999/xlink" width="36" height="36" viewBox="0 0 36 36">
<path fill="#444" d="M35.040 10.284l-1.611-0.22c-0.142-0.598-0.371-1.162-0.685-1.671l0.997-1.306c0.144-0.19 0.126-0.479-0.042-0.648l-0.852-0.853c-0.167-0.168-0.458-0.187-0.647-0.044l-1.306 0.994c-0.512-0.315-1.073-0.55-1.672-0.693l-0.221-1.379c-0.031-0.235-0.252-0.181-0.489-0.181h-1.206c-0.238 0-0.458-0.054-0.491 0.181l-0.221 1.502c-0.6 0.143-1.159 0.317-1.669 0.63l-1.307-1.023c-0.188-0.143-0.48-0.14-0.648 0.028l-0.854 0.846c-0.167 0.168-0.187 0.455-0.043 0.644l0.992 1.304c-0.313 0.509-0.549 1.071-0.69 1.67l-1.507 0.22c-0.235 0.033-0.308 0.253-0.308 0.49v1.208c0 0.236 0.073 0.457 0.309 0.489l1.567 0.222c0.142 0.6 0.346 1.161 0.661 1.671l-1.007 1.306c-0.145 0.188-0.132 0.479 0.035 0.648l0.85 0.853c0.167 0.167 0.458 0.187 0.647 0.043l1.305-0.991c0.511 0.312 1.069 0.549 1.668 0.691l0.221 1.723c0.032 0.237 0.253 0.527 0.491 0.527h1.206c0.238 0 0.458-0.29 0.49-0.527l0.221-1.674c0.599-0.142 1.161-0.402 1.672-0.715l1.306 0.979c0.189 0.144 0.479 0.118 0.647-0.049l0.854-0.857c0.168-0.168 0.187-0.461 0.045-0.649l-0.993-1.307c0.313-0.51 0.55-1.071 0.691-1.671l1.597-0.223c0.234-0.031 0.397-0.252 0.397-0.488v-1.208c0-0.236-0.163-0.457-0.398-0.49zM27.907 14.348c-1.64 0-2.969-1.33-2.969-2.972 0-1.64 1.329-2.969 2.969-2.969s2.972 1.329 2.972 2.969c-0 1.642-1.33 2.972-2.972 2.972z"></path>
<path fill="#444" d="M21.368 20.308l-2.273-0.31c-0.2-0.841-0.527-1.629-0.969-2.343l1.396-1.833c0.201-0.265 0.173-0.673-0.061-0.908l-1.196-1.196c-0.234-0.236-0.644-0.263-0.908-0.063l-1.831 1.393c-0.715-0.442-1.502-0.772-2.343-0.971l-0.311-2.018c-0.046-0.329-0.354-0.338-0.686-0.338h-1.693c-0.332 0-0.641 0.009-0.687 0.338l-0.31 2.149c-0.84 0.199-1.629 0.464-2.343 0.904l-1.832-1.424c-0.263-0.2-0.672-0.19-0.908 0.045l-1.197 1.189c-0.234 0.235-0.262 0.639-0.061 0.903l1.391 1.831c-0.44 0.713-0.77 1.5-0.969 2.342l-2.348 0.309c-0.329 0.045-0.667 0.353-0.667 0.685v1.693c0 0.334 0.338 0.643 0.668 0.685l2.313 0.311c0.2 0.842 0.546 1.629 0.988 2.344l-1.384 1.831c-0.202 0.265-0.169 0.673 0.065 0.908l1.199 1.198c0.235 0.233 0.645 0.261 0.91 0.060l1.832-1.392c0.714 0.441 1.503 0.771 2.343 0.97l0.31 1.666c0.045 0.33 0.354 0.915 0.686 0.915h1.693c0.332 0 0.641-0.585 0.686-0.915l0.312-1.508c0.84-0.199 1.628-0.608 2.342-1.049l1.832 1.352c0.264 0.202 0.673 0.154 0.908-0.080l1.197-1.208c0.235-0.235 0.262-0.649 0.062-0.913l-1.394-1.834c0.442-0.714 0.772-1.503 0.973-2.345l2.265-0.312c0.329-0.042 0.584-0.351 0.584-0.685v-1.693c0-0.332-0.255-0.641-0.584-0.686zM11.34 26.006c-2.301 0-4.166-1.865-4.166-4.165s1.865-4.165 4.166-4.165c2.3 0 4.164 1.865 4.164 4.165s-1.864 4.165-4.164 4.165z"></path>
</svg>
