<?xml version="1.0" encoding="utf-8"?>
<!-- Generated by IcoMoon.io -->
<!DOCTYPE svg PUBLIC "-//W3C//DTD SVG 1.1//EN" "http://www.w3.org/Graphics/SVG/1.1/DTD/svg11.dtd">
<svg version="1.1" xmlns="http://www.w3.org/2000/svg" xmlns:xlink="http://www.w3.org/1999/xlink" width="36" height="36" viewBox="0 0 36 36">
<path fill="#444" d="M29.142 10.843c2.108 0 3.821-1.755 3.821-3.917 0-2.159-1.713-3.915-3.821-3.915-2.106 0-3.821 1.755-3.821 3.915-0 2.161 1.715 3.917 3.821 3.917z"></path>
<path fill="#444" d="M33.616 11.027l-1.307-0.346c-0.853 0.747-1.956 1.204-3.163 1.206-1.207-0.002-2.31-0.459-3.161-1.206l-1.309 0.346c-1.398 0.39-1.852 0.976-1.74 1.74l1.045 6.633c0.152 1.039 0.776 1.739 1.738 1.739h6.853c0.961 0 1.586-0.699 1.742-1.739l1.043-6.633c0.114-0.764-0.341-1.35-1.74-1.74z"></path>
<path fill="#444" d="M17.213 24.747c2.108 0 3.821-1.756 3.821-3.917 0-2.159-1.713-3.915-3.821-3.915-2.106 0-3.821 1.756-3.821 3.915-0 2.16 1.715 3.917 3.821 3.917z"></path>
<path fill="#444" d="M21.687 24.931l-1.307-0.348c-0.851 0.748-1.956 1.204-3.163 1.206-1.207-0.002-2.31-0.458-3.163-1.206l-1.307 0.348c-1.396 0.39-1.856 0.976-1.74 1.739l1.045 6.633c0.154 1.041 0.778 1.74 1.74 1.74h6.851c0.961 0 1.586-0.699 1.74-1.74l1.045-6.633c0.114-0.763-0.341-1.349-1.74-1.739z"></path>
<path fill="#444" d="M6.851 10.187c2.108 0 3.821-1.756 3.821-3.917 0-2.159-1.713-3.915-3.821-3.915s-3.823 1.756-3.823 3.915c0 2.16 1.715 3.917 3.823 3.917z"></path>
<path fill="#444" d="M11.324 10.372l-1.307-0.35c-0.849 0.75-1.954 1.204-3.163 1.208-1.207-0.004-2.31-0.458-3.159-1.208l-1.309 0.35c-1.398 0.389-1.854 0.976-1.742 1.739l1.045 6.631c0.154 1.043 0.78 1.741 1.74 1.741h6.853c0.963 0 1.584-0.698 1.742-1.741l1.043-6.631c0.114-0.763-0.343-1.35-1.742-1.739z"></path>
<path fill="#444" d="M9.684 29.745c-0.8-0.542-1.568-1.339-2.294-2.376l2.398-1.084-6.78-4.866-0.826 8.304 2.47-1.117c1.020 1.557 2.153 2.762 3.371 3.588 0.254 0.173 0.545 0.256 0.83 0.256 0.477 0 0.943-0.228 1.228-0.65 0.458-0.677 0.281-1.598-0.397-2.056z"></path>
<path fill="#444" d="M24.387 6.504l-6.237-5.547-0.548 2.659c-1.503-0.007-2.956 0.204-4.734 0.489-0.81 0.13-1.359 0.889-1.228 1.696 0.114 0.728 0.745 1.247 1.459 1.247 0.077 0 0.156-0.006 0.235-0.019 1.424-0.228 2.563-0.397 3.656-0.44l-0.524 2.544 7.921-2.628z"></path>
<path fill="#444" d="M31.876 22.22c-0.756-0.307-1.621 0.055-1.931 0.814-0.507 1.254-1.147 2.444-1.911 3.555l-1.797-1.898-2.377 8.001 8.116-1.94-1.868-1.972c1.046-1.431 1.914-2.985 2.583-4.631 0.308-0.757-0.058-1.622-0.816-1.929z"></path>
</svg>
