<?xml version="1.0" encoding="utf-8"?>
<!-- Generated by IcoMoon.io -->
<!DOCTYPE svg PUBLIC "-//W3C//DTD SVG 1.1//EN" "http://www.w3.org/Graphics/SVG/1.1/DTD/svg11.dtd">
<svg version="1.1" xmlns="http://www.w3.org/2000/svg" xmlns:xlink="http://www.w3.org/1999/xlink" width="36" height="36" viewBox="0 0 36 36">
<path fill="#444" d="M30.639 23.376c-2.32-1.153-5.004-0.755-6.881 0.792l-9.276-5.247c0.088-0.613 0.087-1.234-0.001-1.847l9.289-5.235c1.636 1.344 3.905 1.846 6.061 1.121 3.332-1.118 5.125-4.726 4.007-8.058-1.119-3.33-4.723-5.125-8.058-4.006-2.971 1-4.714 3.975-4.264 6.968l-9.277 5.229c-2.501-2.067-6.207-1.933-8.547 0.408-2.486 2.485-2.486 6.513 0 8.999 2.342 2.341 6.051 2.476 8.552 0.403l9.268 5.243c-0.392 2.652 0.928 5.366 3.46 6.625 3.147 1.563 6.966 0.28 8.531-2.867 1.564-3.147 0.283-6.965-2.864-8.53z"></path>
</svg>
