<?xml version="1.0" encoding="utf-8"?>
<!-- Generated by IcoMoon.io -->
<!DOCTYPE svg PUBLIC "-//W3C//DTD SVG 1.1//EN" "http://www.w3.org/Graphics/SVG/1.1/DTD/svg11.dtd">
<svg version="1.1" xmlns="http://www.w3.org/2000/svg" xmlns:xlink="http://www.w3.org/1999/xlink" width="36" height="36" viewBox="0 0 36 36">
<path fill="#444" d="M14.156 25.379c-1.821 0-3.304 1.485-3.304 3.304s1.482 3.303 3.304 3.303c1.826 0 3.307-1.484 3.307-3.303s-1.481-3.304-3.307-3.304z"></path>
<path fill="#444" d="M27.086 25.379c-1.826 0-3.307 1.485-3.307 3.305s1.482 3.304 3.307 3.304c1.822 0 3.305-1.484 3.305-3.304s-1.483-3.305-3.305-3.305z"></path>
<path fill="#444" d="M30.784 23.813h-19.074c-0.412 0-0.782-0.163-0.927-0.55l-6.479-17.12h-2.749c-0.548 0-0.992-0.383-0.992-0.93 0-0.548 0.445-0.93 0.992-0.93h3.435c0.414 0 0.784 0.164 0.929 0.55l6.478 17.12h18.388c0.548 0 0.991 0.381 0.991 0.931 0 0.547-0.443 0.929-0.991 0.929z"></path>
<path fill="#444" d="M33.936 6.143h-24.568c0 0 4.454 11.737 4.529 11.959 0.335 0.994 0.783 1.061 1.62 1.061h16.439c0 0 1.564-5.465 3.305-10.73 0.058-0.175 0.177-0.65 0.177-0.807 0-0.852-0.647-1.483-1.501-1.483z"></path>
</svg>
