<?xml version="1.0" encoding="utf-8"?>
<!-- Generated by IcoMoon.io -->
<!DOCTYPE svg PUBLIC "-//W3C//DTD SVG 1.1//EN" "http://www.w3.org/Graphics/SVG/1.1/DTD/svg11.dtd">
<svg version="1.1" xmlns="http://www.w3.org/2000/svg" xmlns:xlink="http://www.w3.org/1999/xlink" width="36" height="36" viewBox="0 0 36 36">
<path fill="#444" d="M5.436 31.569c0 0.443-0.362 0.808-0.808 0.808h-3.194c-0.443 0-0.808-0.366-0.808-0.808v-4.137c0-0.446 0.366-0.808 0.808-0.808h3.194c0.446 0 0.808 0.362 0.808 0.808v4.137z"></path>
<path fill="#444" d="M12.92 31.569c0 0.443-0.366 0.808-0.808 0.808h-3.194c-0.443 0-0.808-0.366-0.808-0.808v-9.886c0-0.449 0.366-0.808 0.808-0.808h3.194c0.443 0 0.808 0.359 0.808 0.808v9.886z"></path>
<path fill="#444" d="M20.405 31.569c0 0.443-0.366 0.808-0.808 0.808h-3.194c-0.443 0-0.808-0.366-0.808-0.808v-15.64c0-0.446 0.366-0.805 0.808-0.805h3.194c0.443 0 0.808 0.359 0.808 0.805v15.64z"></path>
<path fill="#444" d="M27.89 31.569c0 0.443-0.366 0.808-0.808 0.808h-3.194c-0.443 0-0.808-0.366-0.808-0.808v-21.389c0-0.446 0.366-0.808 0.808-0.808h3.194c0.443 0 0.808 0.362 0.808 0.808v21.389z"></path>
<path fill="#444" d="M35.374 31.569c0 0.443-0.366 0.808-0.808 0.808h-3.194c-0.446 0-0.808-0.366-0.808-0.808v-27.139c0-0.449 0.362-0.808 0.808-0.808h3.194c0.443 0 0.808 0.359 0.808 0.808v27.139z"></path>
</svg>
