<?xml version="1.0" encoding="utf-8"?>
<!-- Generated by IcoMoon.io -->
<!DOCTYPE svg PUBLIC "-//W3C//DTD SVG 1.1//EN" "http://www.w3.org/Graphics/SVG/1.1/DTD/svg11.dtd">
<svg version="1.1" xmlns="http://www.w3.org/2000/svg" xmlns:xlink="http://www.w3.org/1999/xlink" width="36" height="36" viewBox="0 0 36 36">
<path fill="#444" d="M19.97 34.156h-3.765c-0.336 0-0.609 0.276-0.609 0.609 0 0.336 0.273 0.607 0.609 0.607h3.765c0.336 0 0.609-0.271 0.609-0.607 0-0.334-0.274-0.609-0.609-0.609z"></path>
<path fill="#444" d="M21.128 28.597h-6.256c-0.576 0-1.042 0.468-1.042 1.042 0 0.578 0.466 1.042 1.042 1.042h6.256c0.576 0 1.040-0.464 1.040-1.042-0-0.574-0.464-1.042-1.040-1.042z"></path>
<path fill="#444" d="M20.432 31.378h-4.863c-0.576 0-1.044 0.466-1.044 1.040 0 0.578 0.468 1.044 1.044 1.044h4.863c0.578 0 1.042-0.466 1.042-1.044 0-0.574-0.464-1.040-1.042-1.040z"></path>
<path fill="#444" d="M24.949 10.53c-3.284 0-6.009 2.414-6.511 5.559h-0.868c-0.249-1.554-1.038-2.93-2.174-3.925l9.921-2.727c0.742-0.205 1.177-0.97 0.972-1.709-0.203-0.738-0.97-1.175-1.71-0.972l-13.897 3.821c-0.671 0.186-1.102 0.839-1.009 1.529 0.093 0.688 0.682 1.202 1.378 1.202 1.751 0 3.226 1.187 3.678 2.795-0.508 0.070-0.899 0.499-0.899 1.026h-1.736c-0.576 0-1.042 0.468-1.042 1.044 0 0.017 0.004 0.035 0.006 0.050h-0.006v5.164c0 1.388 2.779 3.125 2.779 3.995 0 0.288 0.234 0.522 0.522 0.522h7.296c0.288 0 0.522-0.234 0.522-0.522 0-0.87 2.779-2.607 2.779-3.995v-5.164h-0.004c0-0.014 0.004-0.033 0.004-0.050 0-0.576-0.466-1.044-1.042-1.044h-1.736c0-0.526-0.392-0.955-0.897-1.026 0.45-1.608 1.925-2.795 3.676-2.795 0.769 0 1.39-0.622 1.39-1.388-0-0.769-0.622-1.39-1.39-1.39z"></path>
<path fill="#444" d="M9.711 8.467c0.17 0.617 0.729 1.022 1.339 1.022 0.124 0 0.247-0.017 0.369-0.050l13.9-3.821c0.74-0.203 1.175-0.97 0.972-1.712-0.203-0.738-0.968-1.173-1.71-0.97l-13.897 3.823c-0.74 0.203-1.175 0.968-0.972 1.707z"></path>
<path fill="#444" d="M11.051 5.667c0.114 0 0.232-0.017 0.35-0.046l8.686-2.259c0.742-0.195 1.187-0.951 0.995-1.695s-0.951-1.187-1.693-0.997l-8.686 2.261c-0.746 0.193-1.192 0.949-0.999 1.695 0.164 0.624 0.729 1.040 1.347 1.040z"></path>
</svg>
