<?xml version="1.0" encoding="utf-8"?>
<!-- Generated by IcoMoon.io -->
<!DOCTYPE svg PUBLIC "-//W3C//DTD SVG 1.1//EN" "http://www.w3.org/Graphics/SVG/1.1/DTD/svg11.dtd">
<svg version="1.1" xmlns="http://www.w3.org/2000/svg" xmlns:xlink="http://www.w3.org/1999/xlink" width="36" height="36" viewBox="0 0 36 36">
<path fill="#444" d="M18 0.563c-9.632 0-17.438 7.807-17.438 17.438s7.806 17.438 17.438 17.438c9.63 0 17.438-7.807 17.438-17.438s-7.807-17.438-17.438-17.438zM23.239 9.573c1.643 0 2.973 1.332 2.973 2.973 0 1.644-1.33 2.974-2.973 2.974s-2.973-1.33-2.973-2.974c0-1.642 1.331-2.973 2.973-2.973zM13.507 9.573c1.642 0 2.974 1.332 2.974 2.973 0 1.644-1.333 2.974-2.974 2.974s-2.974-1.33-2.974-2.974c0-1.642 1.333-2.973 2.974-2.973zM18 28.948c-5.608 0-10.171-3.942-10.171-8.786 0-0.597 0.485-1.082 1.082-1.082s1.081 0.485 1.081 1.082c0 3.652 3.592 6.624 8.008 6.624s8.008-2.972 8.008-6.624c0-0.597 0.484-1.082 1.081-1.082s1.081 0.485 1.081 1.082c0 4.844-4.561 8.786-10.17 8.786z"></path>
</svg>
