<?xml version="1.0" encoding="utf-8"?>
<!-- Generated by IcoMoon.io -->
<!DOCTYPE svg PUBLIC "-//W3C//DTD SVG 1.1//EN" "http://www.w3.org/Graphics/SVG/1.1/DTD/svg11.dtd">
<svg version="1.1" xmlns="http://www.w3.org/2000/svg" xmlns:xlink="http://www.w3.org/1999/xlink" width="36" height="36" viewBox="0 0 36 36">
<path fill="#444" d="M35.438 22.572c0-0.577-0.467-1.046-1.044-1.046h-1.971l1.822-1.636c0.272-0.244 0.294-0.66 0.050-0.931-0.242-0.271-0.66-0.294-0.93-0.051l-2.917 2.618h-3.795c-0.065-0.253-0.11-0.505-0.222-0.737l5.892-4.952c0.439-0.372 0.495-1.031 0.123-1.472-0.369-0.442-1.028-0.5-1.47-0.126l-5.923 4.98c-0.403-0.284-0.836-0.489-1.324-0.617v-3.267l2.623-2.922c0.243-0.27 0.221-0.688-0.050-0.931-0.272-0.244-0.688-0.221-0.932 0.050l-1.642 1.829v-2.498c0-0.578-0.469-1.046-1.045-1.046s-1.046 0.468-1.046 1.046v2.583l-1.719-1.914c-0.244-0.271-0.66-0.294-0.93-0.050-0.272 0.243-0.294 0.66-0.051 0.931l2.7 3.007v3.181c-0.488 0.129-0.921 0.334-1.325 0.617l-5.923-4.98c-0.442-0.373-1.101-0.316-1.469 0.126-0.373 0.441-0.317 1.1 0.122 1.472l5.892 4.952c-0.112 0.232-0.157 0.484-0.221 0.737h-3.511l-2.916-2.618c-0.27-0.243-0.687-0.221-0.93 0.050-0.245 0.271-0.221 0.687 0.049 0.931l1.824 1.637h-2.257c-0.578 0-1.045 0.47-1.045 1.046s0.467 1.046 1.045 1.046h2.352l-1.919 1.721c-0.27 0.244-0.294 0.661-0.049 0.931 0.243 0.271 0.66 0.294 0.93 0.051l3.010-2.703h3.417c0.065 0.253 0.11 0.507 0.221 0.74l-5.887 4.95c-0.442 0.372-0.5 1.031-0.127 1.473 0.373 0.441 1.031 0.498 1.473 0.125l5.924-4.978c0.399 0.282 0.832 0.486 1.32 0.616v3.708l-2.7 3.007c-0.243 0.27-0.221 0.688 0.051 0.93 0.27 0.244 0.687 0.221 0.93-0.050l1.719-1.914v2.057c0 0.578 0.469 1.046 1.046 1.046s1.045-0.468 1.045-1.046v-1.972l1.642 1.829c0.244 0.271 0.66 0.294 0.932 0.050 0.27-0.242 0.293-0.66 0.050-0.93l-2.623-2.922v-3.792c0.488-0.129 0.921-0.334 1.319-0.616l5.924 4.978c0.441 0.373 1.1 0.317 1.473-0.125 0.373-0.443 0.315-1.101-0.127-1.473l-5.887-4.95c0.112-0.232 0.157-0.487 0.222-0.74h3.7l3.012 2.703c0.27 0.243 0.688 0.221 0.93-0.050 0.244-0.271 0.222-0.687-0.050-0.93l-1.918-1.723h2.067c0.578 0 1.044-0.469 1.044-1.046z"></path>
<path fill="#444" d="M13.673 7.228c0-0.296-0.239-0.537-0.536-0.537h-1.014l0.937-0.841c0.14-0.126 0.151-0.34 0.026-0.479s-0.34-0.151-0.479-0.026l-1.499 1.346h-1.95c-0.033-0.13-0.056-0.26-0.114-0.379l3.028-2.544c0.225-0.191 0.255-0.53 0.063-0.757-0.19-0.227-0.529-0.256-0.755-0.065l-3.045 2.559c-0.206-0.146-0.428-0.251-0.68-0.317v-1.679l1.349-1.502c0.124-0.139 0.112-0.353-0.026-0.478-0.14-0.125-0.354-0.114-0.479 0.026l-0.845 0.94v-1.284c0-0.297-0.241-0.537-0.537-0.537s-0.537 0.241-0.537 0.537v1.327l-0.883-0.984c-0.125-0.139-0.339-0.151-0.479-0.026-0.139 0.125-0.151 0.339-0.026 0.478l1.388 1.545v1.635c-0.252 0.066-0.474 0.171-0.68 0.317l-3.045-2.559c-0.227-0.191-0.565-0.162-0.755 0.065-0.191 0.227-0.162 0.565 0.063 0.757l3.028 2.544c-0.058 0.12-0.080 0.249-0.114 0.379h-1.804l-1.499-1.346c-0.139-0.125-0.354-0.113-0.479 0.026s-0.113 0.353 0.025 0.479l0.938 0.842h-1.161c-0.297 0-0.537 0.241-0.537 0.537s0.24 0.537 0.537 0.537h1.21l-0.987 0.885c-0.138 0.125-0.15 0.339-0.025 0.479s0.34 0.151 0.479 0.026l1.546-1.39h1.757c0.033 0.13 0.056 0.261 0.114 0.38l-3.026 2.544c-0.227 0.191-0.257 0.53-0.066 0.757s0.531 0.256 0.758 0.064l3.044-2.558c0.204 0.145 0.426 0.25 0.678 0.316v1.906l-1.388 1.545c-0.125 0.139-0.113 0.354 0.026 0.478 0.14 0.125 0.354 0.113 0.479-0.026l0.883-0.984v1.057c0 0.297 0.241 0.537 0.537 0.537s0.537-0.241 0.537-0.537v-1.014l0.845 0.94c0.125 0.139 0.339 0.151 0.479 0.026 0.138-0.125 0.15-0.339 0.026-0.478l-1.349-1.502v-1.949c0.252-0.066 0.474-0.171 0.678-0.316l3.044 2.558c0.227 0.192 0.566 0.162 0.758-0.064s0.161-0.566-0.066-0.757l-3.026-2.544c0.058-0.119 0.080-0.249 0.114-0.38h1.902l1.547 1.39c0.139 0.125 0.354 0.113 0.479-0.026s0.114-0.353-0.026-0.479l-0.986-0.885h1.063c0.297 0 0.536-0.241 0.536-0.537z"></path>
</svg>
