<?xml version="1.0" encoding="utf-8"?>
<!-- Generated by IcoMoon.io -->
<!DOCTYPE svg PUBLIC "-//W3C//DTD SVG 1.1//EN" "http://www.w3.org/Graphics/SVG/1.1/DTD/svg11.dtd">
<svg version="1.1" xmlns="http://www.w3.org/2000/svg" xmlns:xlink="http://www.w3.org/1999/xlink" width="36" height="36" viewBox="0 0 36 36">
<path fill="#444" d="M35.438 18c0-0.788-0.638-1.43-1.428-1.43h-2.695l2.491-2.237c0.372-0.333 0.401-0.902 0.068-1.272-0.331-0.371-0.902-0.402-1.271-0.070l-3.987 3.58h-5.189c-0.088-0.346-0.15-0.69-0.304-1.008l8.055-6.77c0.601-0.508 0.677-1.409 0.168-2.012-0.504-0.605-1.405-0.683-2.009-0.173l-8.097 6.808c-0.551-0.388-1.144-0.668-1.81-0.844v-4.466l3.586-3.994c0.332-0.37 0.302-0.94-0.068-1.272-0.372-0.333-0.941-0.302-1.274 0.068l-2.244 2.501v-3.415c0-0.791-0.642-1.43-1.428-1.43s-1.429 0.64-1.429 1.43v3.531l-2.349-2.617c-0.333-0.37-0.902-0.401-1.272-0.068-0.372 0.332-0.402 0.903-0.070 1.272l3.691 4.111v4.349c-0.668 0.176-1.259 0.456-1.811 0.844l-8.097-6.808c-0.604-0.51-1.506-0.432-2.009 0.173-0.51 0.603-0.433 1.504 0.167 2.012l8.055 6.77c-0.153 0.318-0.214 0.662-0.303 1.008h-4.799l-3.986-3.58c-0.37-0.332-0.94-0.302-1.272 0.069-0.334 0.37-0.303 0.939 0.067 1.273l2.494 2.238h-3.086c-0.79 0-1.428 0.642-1.428 1.43s0.639 1.43 1.428 1.43h3.215l-2.623 2.353c-0.37 0.333-0.401 0.903-0.067 1.273 0.332 0.371 0.902 0.401 1.272 0.070l4.115-3.696h4.671c0.088 0.346 0.15 0.694 0.303 1.011l-8.048 6.767c-0.604 0.508-0.683 1.409-0.173 2.014 0.509 0.603 1.41 0.681 2.013 0.17l8.099-6.805c0.546 0.386 1.137 0.665 1.805 0.842v5.068l-3.691 4.11c-0.332 0.37-0.302 0.941 0.070 1.272 0.37 0.333 0.939 0.303 1.272-0.068l2.349-2.617v2.812c0 0.791 0.642 1.43 1.429 1.43s1.428-0.64 1.428-1.43v-2.696l2.244 2.5c0.333 0.371 0.902 0.401 1.274 0.068 0.37-0.332 0.4-0.902 0.068-1.272l-3.586-3.995v-5.184c0.667-0.177 1.259-0.456 1.804-0.842l8.099 6.805c0.603 0.51 1.504 0.433 2.014-0.17 0.509-0.605 0.431-1.506-0.174-2.014l-8.048-6.767c0.154-0.318 0.215-0.665 0.304-1.011h5.058l4.118 3.696c0.369 0.332 0.941 0.302 1.271-0.069 0.333-0.371 0.304-0.939-0.068-1.272l-2.622-2.355h2.826c0.79 0 1.428-0.642 1.428-1.43z"></path>
</svg>
