<?xml version="1.0" encoding="utf-8"?>
<!-- Generated by IcoMoon.io -->
<!DOCTYPE svg PUBLIC "-//W3C//DTD SVG 1.1//EN" "http://www.w3.org/Graphics/SVG/1.1/DTD/svg11.dtd">
<svg version="1.1" xmlns="http://www.w3.org/2000/svg" xmlns:xlink="http://www.w3.org/1999/xlink" width="36" height="36" viewBox="0 0 36 36">
<path fill="#444" d="M18.001 0.562c4.813 0 9.173 1.954 12.329 5.109 3.155 3.156 5.107 7.516 5.107 12.329 0 4.814-1.953 9.174-5.107 12.33-3.156 3.156-7.516 5.109-12.329 5.109-4.814 0-9.175-1.952-12.331-5.109-3.155-3.156-5.107-7.516-5.107-12.33 0-4.813 1.952-9.173 5.107-12.329 3.156-3.155 7.517-5.109 12.331-5.109zM18.254 8.463l-5.582-1.957c-0.246-0.085-0.374-0.354-0.291-0.601 0.015-0.035 0.030-0.068 0.049-0.1l1.047-1.635 0.31-0.483c-2.424 0.712-4.593 2.025-6.334 3.765-0.569 0.57-1.093 1.185-1.565 1.841l0.464-0.152 1.844-0.607c0.248-0.080 0.513 0.055 0.594 0.303 0.012 0.035 0.018 0.072 0.021 0.108h0.002l0.249 2.947 0.25 2.946c0.009 0.117-0.023 0.226-0.086 0.315l-3.377 4.848c-0.148 0.214-0.443 0.266-0.657 0.118-0.043-0.029-0.079-0.064-0.108-0.103l-1.269-1.418-0.731-0.818c-0.002 0.074-0.002 0.147-0.002 0.219 0 3.494 1.201 6.707 3.216 9.251l0.036-1.117 0.062-1.94c0.007-0.26 0.225-0.464 0.485-0.457 0.038 0.002 0.073 0.007 0.107 0.016l5.709 1.546c0.117 0.032 0.21 0.103 0.272 0.197l3.396 4.826c0.151 0.213 0.099 0.508-0.114 0.658-0.036 0.026-0.075 0.044-0.114 0.060l-2.821 1.128c1.474 0.486 3.047 0.749 4.683 0.749 1.87 0 3.658-0.344 5.309-0.974l-0.473-0.169-1.826-0.658c-0.244-0.088-0.373-0.359-0.286-0.602 0.013-0.036 0.030-0.069 0.050-0.098h-0.001l3.233-4.955c0.063-0.096 0.154-0.162 0.257-0.192l5.652-1.747c0.249-0.077 0.513 0.063 0.59 0.312 0.011 0.036 0.017 0.072 0.019 0.107l0.131 1.937 0.001 0.019c1.407-2.25 2.23-4.902 2.258-7.743l-0.191 0.247-1.189 1.535c-0.16 0.205-0.456 0.243-0.661 0.084-0.030-0.022-0.056-0.049-0.079-0.077l-3.715-4.604c-0.078-0.095-0.111-0.212-0.103-0.325l0.041-2.934 0.041-2.958c0.004-0.26 0.216-0.469 0.477-0.466 0.038 0 0.075 0.005 0.109 0.015l2.464 0.62c-0.47-0.655-0.993-1.269-1.562-1.838-1.492-1.492-3.297-2.669-5.31-3.424l0.033 0.049 1.078 1.616c0.145 0.215 0.088 0.508-0.13 0.654-0.035 0.023-0.073 0.041-0.112 0.055l-5.53 2.056c-0.107 0.040-0.22 0.039-0.319 0.005h-0.003zM18.534 11.73c-0.16-0.123-0.389-0.13-0.562-0.006l-5.563 4.042c-0.162 0.118-0.237 0.328-0.173 0.529l1.063 3.27 1.054 3.241c0.052 0.204 0.238 0.355 0.457 0.355h6.879c0.198 0 0.383-0.128 0.447-0.326l1.064-3.27 1.058-3.258c0.068-0.192 0.006-0.415-0.168-0.541l-5.556-4.036z"></path>
</svg>
