<?xml version="1.0" encoding="utf-8"?>
<!-- Generated by IcoMoon.io -->
<!DOCTYPE svg PUBLIC "-//W3C//DTD SVG 1.1//EN" "http://www.w3.org/Graphics/SVG/1.1/DTD/svg11.dtd">
<svg version="1.1" xmlns="http://www.w3.org/2000/svg" xmlns:xlink="http://www.w3.org/1999/xlink" width="36" height="36" viewBox="0 0 36 36">
<path fill="#444" d="M11.569 10.349h-0.019c-1.834 0.019-3.727 2.525-5.033 6.606h10.135c-1.407-4.158-3.278-6.606-5.083-6.606z"></path>
<path fill="#444" d="M31.899 0.627h-27.797c-1.916 0-3.475 1.556-3.475 3.475v27.797c0 1.919 1.558 3.473 3.475 3.473h27.797c1.921 0 3.475-1.554 3.475-3.473v-27.797c0-1.919-1.554-3.475-3.475-3.475zM17.91 19.701l1.892-0.96c0.166 0.317 0.329 0.619 0.488 0.911l-1.875 0.989c-0.166-0.302-0.333-0.613-0.505-0.94zM18.941 21.576l1.85-1.031c0.178 0.308 0.352 0.6 0.522 0.878l-1.821 1.082c-0.182-0.294-0.364-0.604-0.55-0.929zM20.083 23.425l1.776-1.155c0.197 0.29 0.391 0.561 0.575 0.801l-1.697 1.26c-0.211-0.273-0.43-0.575-0.654-0.907zM21.486 25.215l1.561-1.422c0.224 0.236 0.439 0.432 0.64 0.581l-1.277 1.672c-0.306-0.228-0.611-0.499-0.923-0.832zM24.611 26.842c-0.317 0-0.637-0.048-0.948-0.145l0.635-1.995c0.178 0.056 0.339 0.064 0.515 0.027l0.433 2.049c-0.209 0.043-0.424 0.064-0.635 0.064zM26.588 26.204l-1.182-1.739c0.203-0.134 0.418-0.315 0.646-0.538l1.513 1.47c-0.329 0.329-0.65 0.592-0.977 0.807zM28.345 24.526l-1.672-1.296c0.188-0.234 0.385-0.499 0.588-0.786l1.755 1.182c-0.228 0.327-0.455 0.629-0.671 0.9zM29.624 22.711l-1.809-1.105c0.172-0.273 0.348-0.563 0.528-0.865l1.844 1.045c-0.19 0.325-0.381 0.633-0.563 0.925zM30.721 20.854l-1.867-1.006c0.161-0.292 0.327-0.592 0.497-0.905l1.883 0.973c-0.174 0.325-0.346 0.637-0.513 0.938zM33.23 18.068h-1.035c-0.157 0.313-0.313 0.613-0.464 0.909l-1.815-0.909h-11.095l-1.399 0.689c-0.114-0.222-0.232-0.455-0.348-0.689h-14.43c-0.306 0-0.559-0.248-0.559-0.555 0-0.308 0.252-0.557 0.559-0.557h1.544c1.643-5.586 4.309-8.806 7.339-8.835h0.043c4.021 0 6.354 5.422 7.424 8.835h14.235c0.306 0 0.555 0.248 0.555 0.557-0 0.306-0.248 0.555-0.555 0.555z"></path>
</svg>
