<?xml version="1.0" encoding="utf-8"?>
<!-- Generated by IcoMoon.io -->
<!DOCTYPE svg PUBLIC "-//W3C//DTD SVG 1.1//EN" "http://www.w3.org/Graphics/SVG/1.1/DTD/svg11.dtd">
<svg version="1.1" xmlns="http://www.w3.org/2000/svg" xmlns:xlink="http://www.w3.org/1999/xlink" width="36" height="36" viewBox="0 0 36 36">
<path fill="#444" d="M23.038 11.477l-1.796-1.422c-0.236 0.296-0.48 0.627-0.724 0.987l1.892 1.296c0.215-0.315 0.43-0.606 0.629-0.861z"></path>
<path fill="#444" d="M24.404 10.123l-1.271-1.908c-0.352 0.236-0.695 0.526-1.051 0.886l1.627 1.61c0.244-0.246 0.476-0.443 0.695-0.588z"></path>
<path fill="#444" d="M5.731 19.604l-2.036 1.049c0.184 0.36 0.366 0.704 0.542 1.035l2.020-1.087c-0.172-0.321-0.348-0.652-0.526-0.998z"></path>
<path fill="#444" d="M25.596 9.862l0.683-2.186c-0.335-0.108-0.679-0.159-1.018-0.159-0.228 0-0.459 0.023-0.683 0.068l0.464 2.246c0.19-0.039 0.364-0.027 0.555 0.031z"></path>
<path fill="#444" d="M21.813 13.254l-1.95-1.207c-0.195 0.317-0.401 0.656-0.604 1.012l1.983 1.149c0.195-0.335 0.385-0.654 0.571-0.954z"></path>
<path fill="#444" d="M29.371 14.416l1.991-1.128c-0.199-0.356-0.397-0.695-0.592-1.016l-1.962 1.186c0.182 0.302 0.373 0.623 0.563 0.958z"></path>
<path fill="#444" d="M30.434 16.396l2.036-1.049c-0.182-0.356-0.364-0.704-0.542-1.035l-2.020 1.086c0.174 0.321 0.348 0.652 0.526 0.998z"></path>
<path fill="#444" d="M26.945 10.86l1.676-1.561c-0.331-0.358-0.666-0.662-0.993-0.911l-1.374 1.834c0.215 0.163 0.451 0.377 0.691 0.637z"></path>
<path fill="#444" d="M28.22 12.528l1.912-1.267c-0.24-0.36-0.476-0.695-0.704-0.993l-1.83 1.385c0.199 0.259 0.41 0.557 0.621 0.875z"></path>
<path fill="#444" d="M7.945 23.472l-1.91 1.267c0.24 0.36 0.474 0.695 0.702 0.993l1.828-1.382c-0.199-0.261-0.408-0.559-0.619-0.878z"></path>
<path fill="#444" d="M14.355 22.744l1.948 1.211c0.197-0.321 0.401-0.656 0.606-1.016l-1.985-1.147c-0.192 0.335-0.383 0.65-0.569 0.952z"></path>
<path fill="#444" d="M13.128 24.523l1.799 1.42c0.234-0.294 0.476-0.625 0.722-0.985l-1.889-1.296c-0.219 0.315-0.431 0.604-0.631 0.861z"></path>
<path fill="#444" d="M11.762 25.877l1.271 1.908c0.356-0.236 0.697-0.526 1.053-0.886l-1.629-1.61c-0.242 0.244-0.476 0.443-0.695 0.588z"></path>
<path fill="#444" d="M6.797 21.584l-1.993 1.126c0.201 0.358 0.399 0.698 0.592 1.018l1.964-1.186c-0.184-0.302-0.373-0.623-0.563-0.958z"></path>
<path fill="#444" d="M9.222 25.14l-1.681 1.561c0.335 0.36 0.668 0.664 0.995 0.911l1.376-1.834c-0.219-0.164-0.451-0.377-0.691-0.637z"></path>
<path fill="#444" d="M10.572 26.138l-0.683 2.186c0.335 0.108 0.677 0.159 1.016 0.159 0.232 0 0.462-0.023 0.689-0.072l-0.47-2.241c-0.188 0.039-0.362 0.027-0.553-0.031z"></path>
<path fill="#444" d="M34.764 17.247h-1.341c-0.141-0.296-0.286-0.588-0.426-0.869l-1.734 0.869h-11.656c0.012-0.023 0.025-0.045 0.033-0.066l-0.597-0.306c-0.163-0.501-0.352-1.035-0.563-1.583l1.682 0.884c0.178-0.344 0.356-0.675 0.53-0.991l-2.008-1.103c-0.128 0.236-0.261 0.484-0.391 0.733-1.405-3.452-3.769-7.281-7.314-7.252-3.322 0.033-6.246 3.562-8.044 9.686h-1.695c-0.337 0-0.61 0.273-0.61 0.611s0.273 0.611 0.61 0.611h1.658l-0.238 0.116c0.174 0.356 0.344 0.704 0.511 1.037l2.051-1.024c-0.021-0.041-0.043-0.087-0.064-0.128h11.546c-0.058 0.116-0.116 0.238-0.176 0.352l0.695 0.354c0.192 0.565 0.387 1.099 0.588 1.598l-1.803-0.946c-0.182 0.344-0.358 0.673-0.532 0.989l2.009 1.103c0.147-0.267 0.296-0.548 0.447-0.834 2.412 5.934 5.119 7.289 7.077 7.297h0.025c3.187 0 6.010-3.427 8.171-9.913h1.56c0.335 0 0.609-0.273 0.609-0.611s-0.273-0.611-0.609-0.611zM5.483 17.247c1.432-4.474 3.508-7.223 5.517-7.241h0.023c1.976 0 4.025 2.68 5.571 7.241h-11.112zM25.029 25.939h-0.008c-1.834-0.008-3.849-2.784-5.464-7.471h11.068c-2.45 6.9-4.876 7.471-5.596 7.471z"></path>
</svg>
