<?xml version="1.0" encoding="utf-8"?>
<!-- Generated by IcoMoon.io -->
<!DOCTYPE svg PUBLIC "-//W3C//DTD SVG 1.1//EN" "http://www.w3.org/Graphics/SVG/1.1/DTD/svg11.dtd">
<svg version="1.1" xmlns="http://www.w3.org/2000/svg" xmlns:xlink="http://www.w3.org/1999/xlink" width="36" height="36" viewBox="0 0 36 36">
<path fill="#444" d="M17.999 0.595c-9.612 0-17.403 7.792-17.403 17.403 0 9.615 7.791 17.407 17.403 17.407 9.615 0 17.406-7.792 17.406-17.407 0-9.611-7.791-17.403-17.406-17.403zM4.472 17.998c0-7.458 6.067-13.527 13.526-13.527 3.001 0 5.77 0.996 8.017 2.654l-4.868 4.868v-2.414c0-1.469-1.19-2.659-2.661-2.659h-0.973c-1.47 0-2.659 1.19-2.659 2.659v8.707l-1.848 1.849c-0.115-0.4-0.181-0.821-0.181-1.257v-0.899c0-0.005 0.001-0.008 0.001-0.013v-0.528c0-0.502-0.406-0.907-0.908-0.907s-0.908 0.406-0.908 0.907v1.44c0 0.95 0.217 1.849 0.594 2.659l-4.479 4.479c-1.66-2.249-2.653-5.015-2.653-8.017zM17.999 31.528c-3.063 0-5.883-1.034-8.151-2.759l4.385-4.385c0.83 0.469 1.775 0.753 2.782 0.804v1.512h-3.132c-0.589 0-1.069 0.478-1.069 1.068s0.479 1.068 1.069 1.068h8.28c0.591 0 1.069-0.478 1.069-1.068s-0.478-1.068-1.069-1.068h-3.132v-1.513c3.317-0.192 5.961-2.944 5.961-6.308v-1.44c0-0.502-0.407-0.907-0.908-0.907s-0.908 0.406-0.908 0.907v0.528c0 0.008 0.002 0.016 0.002 0.025v0.887c0 2.488-2.024 4.512-4.513 4.512h-1.328c-0.622 0-1.215-0.126-1.755-0.355l1.372-1.373c0.18 0.040 0.367 0.062 0.56 0.062h0.973c1.471 0 2.661-1.191 2.661-2.659v-1.595l7.622-7.622c1.726 2.269 2.759 5.089 2.759 8.152 0 7.46-6.069 13.53-13.53 13.53z"></path>
</svg>
