<?xml version="1.0" encoding="utf-8"?>
<!-- Generated by IcoMoon.io -->
<!DOCTYPE svg PUBLIC "-//W3C//DTD SVG 1.1//EN" "http://www.w3.org/Graphics/SVG/1.1/DTD/svg11.dtd">
<svg version="1.1" xmlns="http://www.w3.org/2000/svg" xmlns:xlink="http://www.w3.org/1999/xlink" width="36" height="36" viewBox="0 0 36 36">
<path fill="#444" d="M27.835 9.65l0.611 0.828c0.169 0.228 0.483 0.271 0.702 0.096l2.515-2.033c0.218-0.176 0.259-0.505 0.089-0.733l-0.612-0.829c-0.168-0.228-0.483-0.271-0.701-0.093l-2.514 2.032c-0.219 0.176-0.259 0.505-0.090 0.733z"></path>
<path fill="#444" d="M25.369 7.283l0.796 0.634c0.051 0.040 0.106 0.066 0.164 0.083 0.021 0.007 0.041 0.007 0.062 0.011 0.026 0.004 0.051 0.013 0.077 0.013 0.010 0 0.018-0.006 0.028-0.007 0.049-0.003 0.094-0.016 0.14-0.033 0.021-0.008 0.043-0.011 0.062-0.022 0.063-0.034 0.122-0.080 0.168-0.143l1.926-2.643c0.166-0.23 0.125-0.558-0.095-0.734l-0.797-0.634c-0.050-0.041-0.107-0.067-0.166-0.085-0.017-0.005-0.033-0.006-0.051-0.009-0.029-0.005-0.057-0.014-0.086-0.014-0.010 0-0.020 0.007-0.030 0.007-0.047 0.003-0.091 0.016-0.135 0.033-0.022 0.008-0.044 0.012-0.065 0.023-0.063 0.034-0.121 0.080-0.167 0.144l-1.926 2.642c-0.168 0.232-0.125 0.559 0.094 0.735z"></path>
<path fill="#444" d="M22.402 5.661l0.925 0.42c0.062 0.026 0.126 0.061 0.19 0.061 0.001 0 0.002 0 0.004 0 0.004 0 0.007-0.024 0.010-0.024 0.054-0.002 0.108-0.026 0.159-0.046 0.016-0.007 0.031-0.020 0.046-0.028 0.038-0.020 0.073-0.047 0.105-0.076 0.014-0.012 0.027-0.024 0.040-0.038 0.040-0.045 0.076-0.096 0.1-0.156l1.207-3.073c0.105-0.268-0.019-0.572-0.273-0.682l-0.925-0.443c-0.063-0.027-0.128-0.084-0.191-0.084-0 0-0.001 0-0.002 0-0.010 0-0.018 0.048-0.029 0.048-0.048 0.003-0.096 0.035-0.141 0.053-0.018 0.007-0.033 0.027-0.051 0.036-0.037 0.019-0.071 0.048-0.102 0.077-0.014 0.012-0.027 0.026-0.040 0.040-0.040 0.045-0.076 0.097-0.1 0.158l-1.206 3.075c-0.105 0.268 0.018 0.573 0.273 0.683z"></path>
<path fill="#444" d="M19.134 4.899l0.992 0.133c0.023 0.003 0.044 0.004 0.066 0.004 0.026 0 0.048-0.010 0.074-0.014 0.027-0.005 0.054-0.007 0.081-0.016 0.033-0.012 0.063-0.030 0.094-0.049 0.022-0.014 0.046-0.025 0.067-0.042 0.029-0.026 0.051-0.057 0.074-0.089 0.014-0.020 0.032-0.036 0.044-0.058 0.030-0.057 0.052-0.12 0.060-0.189l0.405-3.295c0.037-0.287-0.158-0.549-0.433-0.585l-0.992-0.133c-0.021-0.003-0.044-0.005-0.065-0.005-0.025 0-0.047 0.010-0.071 0.013-0.029 0.005-0.058 0.007-0.085 0.016-0.032 0.011-0.059 0.029-0.087 0.046-0.025 0.015-0.051 0.027-0.073 0.046-0.027 0.023-0.046 0.053-0.068 0.081-0.017 0.022-0.036 0.040-0.049 0.065-0.030 0.057-0.052 0.119-0.060 0.187l-0.405 3.296c-0.036 0.288 0.159 0.55 0.432 0.585z"></path>
<path fill="#444" d="M15.79 5.047l0.992-0.139c0.274-0.039 0.466-0.302 0.429-0.59l-0.425-3.292c-0.038-0.287-0.289-0.487-0.565-0.449l-0.991 0.141c-0.273 0.039-0.465 0.301-0.429 0.588l0.426 3.292c0.036 0.287 0.289 0.489 0.563 0.449z"></path>
<path fill="#444" d="M11.941 5.814c0.024 0.060 0.060 0.11 0.1 0.155 0.013 0.015 0.028 0.026 0.042 0.039 0.030 0.027 0.063 0.049 0.098 0.067 0.019 0.010 0.037 0.020 0.056 0.027 0.041 0.015 0.085 0.023 0.129 0.027 0.077 0.006 0.154 0 0.23-0.033l0.923-0.403c0.256-0.112 0.377-0.418 0.27-0.686l-1.226-3.065c-0.024-0.060-0.060-0.111-0.101-0.155-0.012-0.013-0.024-0.023-0.037-0.035-0.033-0.029-0.068-0.054-0.107-0.073-0.015-0.008-0.029-0.016-0.045-0.022-0.052-0.020-0.106-0.097-0.162-0.098-0.002-0.001-0.005-0.066-0.008-0.066 0 0 0 0-0 0-0.065 0-0.129 0.077-0.194 0.105l-0.924 0.436c-0.255 0.113-0.374 0.433-0.267 0.7l1.225 3.081z"></path>
<path fill="#444" d="M9.066 7.879c0.171 0.227 0.485 0.271 0.703 0.094l0.793-0.64c0.218-0.177 0.259-0.505 0.089-0.735l-1.942-2.627c-0.17-0.231-0.483-0.271-0.703-0.095l-0.791 0.639c-0.219 0.178-0.259 0.506-0.089 0.736l1.94 2.629z"></path>
<path fill="#444" d="M6.802 10.649c0.22 0.176 0.534 0.132 0.701-0.097l0.606-0.833c0.168-0.23 0.126-0.559-0.095-0.734l-2.527-2.013c-0.219-0.176-0.533-0.132-0.701 0.099l-0.607 0.833c-0.168 0.23-0.126 0.559 0.095 0.734l2.527 2.012z"></path>
<path fill="#444" d="M2.362 12.678l2.939 1.262c0.256 0.109 0.549-0.018 0.654-0.286l0.38-0.968c0.104-0.267-0.018-0.572-0.274-0.683l-2.94-1.261c-0.255-0.109-0.548 0.020-0.652 0.286l-0.38 0.968c-0.105 0.268 0.017 0.574 0.273 0.682z"></path>
<path fill="#444" d="M1.512 17.101l3.152 0.422c0.274 0.038 0.526-0.165 0.56-0.452l0.128-1.039c0.034-0.286-0.159-0.549-0.433-0.586l-3.151-0.421c-0.275-0.037-0.525 0.164-0.56 0.452l-0.127 1.038c-0.035 0.287 0.159 0.549 0.431 0.585z"></path>
<path fill="#444" d="M5.367 20.568l-0.135-1.036c-0.009-0.070-0.031-0.133-0.063-0.19-0.009-0.017-0.023-0.029-0.034-0.045-0.026-0.037-0.052-0.073-0.086-0.102-0.017-0.014-0.038-0.023-0.056-0.034-0.034-0.022-0.068-0.043-0.106-0.055-0.023-0.008-0.047-0.010-0.072-0.014-0.027-0.005-0.053-0.015-0.080-0.015-0.022 0-0.044 0.002-0.066 0.005l-3.148 0.446c-0.273 0.039-0.466 0.302-0.431 0.589l0.136 1.036c0.009 0.069 0.031 0.132 0.062 0.188 0.011 0.020 0.027 0.034 0.040 0.052 0.026 0.034 0.050 0.067 0.081 0.094 0.018 0.015 0.040 0.025 0.059 0.038 0.033 0.021 0.066 0.040 0.103 0.053 0.023 0.007 0.046 0.009 0.069 0.014 0.027 0.005 0.053 0.015 0.081 0.015 0.023 0 0.046-0.002 0.068-0.006l3.149-0.444c0.273-0.039 0.465-0.302 0.429-0.589z"></path>
<path fill="#444" d="M6.369 23.91l-0.386-0.965c-0.024-0.061-0.060-0.111-0.1-0.156-0.012-0.013-0.026-0.025-0.039-0.036-0.033-0.030-0.069-0.054-0.107-0.074-0.014-0.007-0.027-0.014-0.042-0.020-0.055-0.021-0.113-0.036-0.172-0.036-0.065 0-0.131 0.014-0.194 0.042l-2.931 1.282c-0.255 0.112-0.375 0.417-0.27 0.684l0.387 0.965c0.024 0.060 0.060 0.11 0.1 0.155 0.013 0.014 0.027 0.026 0.041 0.038 0.032 0.028 0.065 0.051 0.102 0.070 0.017 0.009 0.032 0.128 0.049 0.135 0.053 0.020 0.107 0.145 0.164 0.145 0.001 0 0.003 0 0.004 0s0.001 0 0.002 0c0.064 0 0.128-0.124 0.192-0.153l2.931-1.336c0.256-0.111 0.378-0.472 0.269-0.739z"></path>
<path fill="#444" d="M8.166 26.864l-0.613-0.827c-0.168-0.23-0.483-0.272-0.701-0.094l-2.513 2.030c-0.22 0.177-0.26 0.505-0.092 0.734l0.612 0.828c0.169 0.229 0.484 0.271 0.702 0.094l2.513-2.032c0.219-0.176 0.26-0.505 0.092-0.734z"></path>
<path fill="#444" d="M29.197 25.864c-0.22-0.174-0.533-0.129-0.702 0.1l-0.607 0.832c-0.166 0.229-0.123 0.557 0.095 0.734l2.528 2.013c0.219 0.175 0.533 0.129 0.701-0.098l0.608-0.833c0.166-0.23 0.126-0.559-0.094-0.733l-2.528-2.016z"></path>
<path fill="#444" d="M33.638 23.838l-2.939-1.263c-0.256-0.108-0.549 0.018-0.655 0.286l-0.379 0.969c-0.105 0.267 0.017 0.573 0.272 0.683l2.939 1.261c0.256 0.109 0.549-0.018 0.654-0.285l0.38-0.968c0.104-0.269-0.017-0.574-0.273-0.683z"></path>
<path fill="#444" d="M34.487 19.414l-3.152-0.422c-0.275-0.038-0.525 0.165-0.561 0.452l-0.126 1.038c-0.035 0.286 0.158 0.549 0.433 0.586l3.15 0.423c0.274 0.037 0.525-0.166 0.56-0.453l0.128-1.037c0.033-0.286-0.158-0.549-0.432-0.586z"></path>
<path fill="#444" d="M30.632 15.947l0.134 1.036c0.038 0.286 0.289 0.488 0.565 0.45l3.147-0.445c0.274-0.039 0.466-0.302 0.43-0.589l-0.134-1.036c-0.038-0.287-0.289-0.487-0.564-0.448l-3.148 0.444c-0.275 0.039-0.466 0.302-0.43 0.59z"></path>
<path fill="#444" d="M29.63 12.606l0.388 0.966c0.106 0.266 0.399 0.393 0.654 0.281l2.931-1.282c0.255-0.112 0.374-0.418 0.269-0.685l-0.385-0.965c-0.108-0.266-0.4-0.393-0.655-0.281l-2.932 1.282c-0.255 0.112-0.374 0.418-0.269 0.684z"></path>
<path fill="#444" d="M17.999 21.972c1.833 0 3.317-1.554 3.317-3.468 0-0.108-0.006-0.217-0.015-0.324l4.704-4.427c0.744-0.703 0.81-1.9 0.145-2.675l-0.161-0.244c-0.668-0.775-1.825-0.844-2.57-0.142l-4.701 4.427c-0.232-0.053-0.471-0.083-0.718-0.083-1.831 0-3.316 1.552-3.316 3.469-0 1.913 1.485 3.467 3.316 3.467z"></path>
<path fill="#444" d="M17.999 32.82c-3.693 0-7.040-1.542-9.497-4.035l-1.927 1.686c2.923 3.062 6.959 4.967 11.425 4.967 4.514 0 8.591-1.94 11.521-5.060l-1.928-1.688c-2.465 2.55-5.851 4.13-9.593 4.13z"></path>
</svg>
