<?xml version="1.0" encoding="utf-8"?>
<!-- Generated by IcoMoon.io -->
<!DOCTYPE svg PUBLIC "-//W3C//DTD SVG 1.1//EN" "http://www.w3.org/Graphics/SVG/1.1/DTD/svg11.dtd">
<svg version="1.1" xmlns="http://www.w3.org/2000/svg" xmlns:xlink="http://www.w3.org/1999/xlink" width="36" height="36" viewBox="0 0 36 36">
<path fill="#444" d="M26.471 27.864l5.433 5.433 1.194-1.194-5.444-5.443c1.865-2.173 2.994-4.996 2.994-8.079 0-0.794-0.636-1.426-1.421-1.426s-1.419 0.632-1.419 1.426c0 2.299-0.815 4.41-2.171 6.062l-1.873-1.867c0.979-1.219 1.56-2.766 1.56-4.45v-10.603c0-3.934-3.188-7.124-7.116-7.124-3.929 0-7.113 3.19-7.113 7.124v2.392l-7.005-7.011-1.197 1.193 8.202 8.205v5.825c0 3.928 3.189 7.113 7.119 7.113 1.636 0 3.146-0.553 4.348-1.481l1.893 1.892c-1.678 1.438-3.857 2.308-6.236 2.308-5.289 0-9.587-4.294-9.587-9.576 0-0.794-0.635-1.426-1.42-1.426-0.788 0-1.413 0.632-1.413 1.426 0 6.375 4.808 11.635 11.016 12.345v1.652h-3.594c-0.782 0-1.422 0.619-1.422 1.412 0 0.777 0.64 1.412 1.422 1.412h10.001c0.785 0 1.419-0.636 1.419-1.412 0-0.794-0.634-1.412-1.419-1.412h-3.582v-1.652c2.616-0.299 4.968-1.405 6.831-3.062zM20.818 19.813l-2.669-2.651h3.406c0.735 0 1.333 0.59 1.333 1.328 0 0.732-0.599 1.323-1.333 1.323h-0.737zM14.887 6.491h6.667c0.735 0 1.333 0.587 1.333 1.325 0 0.744-0.599 1.325-1.333 1.325h-6.667c-0.738 0-1.337-0.582-1.337-1.325 0-0.738 0.599-1.325 1.337-1.325zM14.887 11.827h6.667c0.735 0 1.333 0.581 1.333 1.331 0 0.727-0.599 1.32-1.333 1.32h-6.075l-1.832-1.825c0.198-0.492 0.678-0.825 1.239-0.825zM14.887 19.813c-0.738 0-1.337-0.591-1.337-1.323 0-0.738 0.599-1.328 1.337-1.328h0.875l2.669 2.651h-3.543z"></path>
</svg>
