<?xml version="1.0" encoding="utf-8"?>
<!-- Generated by IcoMoon.io -->
<!DOCTYPE svg PUBLIC "-//W3C//DTD SVG 1.1//EN" "http://www.w3.org/Graphics/SVG/1.1/DTD/svg11.dtd">
<svg version="1.1" xmlns="http://www.w3.org/2000/svg" xmlns:xlink="http://www.w3.org/1999/xlink" width="36" height="36" viewBox="0 0 36 36">
<path fill="#444" d="M35.39 25.392c-0.745-9.604-9.136-16.784-18.739-16.039-9.137 0.707-16.077 8.337-16.088 17.347h14.47c0-0.794 0.315-1.515 0.825-2.049l0.157-0.15c0.526-0.476 1.221-0.768 1.987-0.768 1.639 0 2.967 1.329 2.967 2.966h14.469c-0.002-0.432-0.013-0.868-0.047-1.308zM6.904 24.475h-3.257c-0.447 0-0.809-0.363-0.809-0.81s0.361-0.809 0.809-0.809h3.257c0.446 0 0.809 0.362 0.809 0.809s-0.363 0.81-0.809 0.81zM11.465 18.761c-0.145 0.11-0.315 0.163-0.483 0.163-0.247 0-0.491-0.113-0.649-0.325l-1.949-2.608c-0.268-0.358-0.195-0.866 0.163-1.133s0.866-0.195 1.133 0.164l1.951 2.608c0.267 0.358 0.194 0.866-0.164 1.132zM18.020 16.259c-0.447-0.006-0.804-0.372-0.8-0.819l0.041-3.257c0.006-0.447 0.381-0.803 0.82-0.799 0.447 0.006 0.804 0.372 0.798 0.819l-0.040 3.256c-0.007 0.443-0.367 0.8-0.81 0.8h-0.010zM22.164 25.813c-0.4-1.878-2.043-3.297-4.022-3.363l7.903-7.614c0.614-0.592 1.588-0.573 2.178 0.041 0.519 0.537 0.568 1.353 0.159 1.945l-6.218 8.991zM32.209 24.475h-3.256c-0.447 0-0.809-0.363-0.809-0.81s0.362-0.809 0.809-0.809h3.256c0.448 0 0.811 0.362 0.811 0.809s-0.363 0.81-0.811 0.81z"></path>
</svg>
