<?xml version="1.0" encoding="utf-8"?>
<!-- Generated by IcoMoon.io -->
<!DOCTYPE svg PUBLIC "-//W3C//DTD SVG 1.1//EN" "http://www.w3.org/Graphics/SVG/1.1/DTD/svg11.dtd">
<svg version="1.1" xmlns="http://www.w3.org/2000/svg" xmlns:xlink="http://www.w3.org/1999/xlink" width="36" height="36" viewBox="0 0 36 36">
<path fill="#444" d="M12.559 8.998l-2.568-7.151c0 0-0.405-1.051-1.823-1.044l-1.947 0.266c0 0-6.408 0.83-5.585 8.598 0 0 2.976 18.644 23.704 24.949 0 0 8.242 2.779 10.521-3.832 0 0 0.27-1.291 0.557-2.856 0 0 0.228-0.826-0.846-1.547l-6.373-3.652c0 0-1.080-0.812-1.987 0.065 0 0-1.388 1.129-2.814 2.813l-0.616 0.801c0 0-0.358 0.454-1.328 0.104 0 0-6.238-2.002-11.915-11.453 0 0-0.498-0.718 0.487-1.677 0 0 1.068-0.856 2.343-2.287 0 0 0.706-0.552 0.308-1.695l-0.117-0.404z"></path>
<path fill="#444" d="M28.339 1.661c0-0.001 0-0.001 0-0.001 0.001-0.006 0.002-0.010 0.005-0.013-0.001-0.001-0.002-0.002-0.004-0.004 0-0.005 0.002-0.007 0.002-0.011-0.002-0.019-0.011-0.037-0.025-0.047-0.023-0.014-0.057-0.008-0.079 0.010-0.002 0.004-0.006 0.004-0.008 0.006l0.005-0.010c-0.606 0.736-1.193 1.469-1.776 2.205-2.239 2.732-4.488 5.472-6.77 8.255l-0.005 0.004c-0.005 0.002-0.005 0.008-0.008 0.012-0.025 0.025-0.035 0.070-0.016 0.099 0.008 0.014 0.026 0.025 0.048 0.030l4.433 0.004c0.105-0.002 0.21 0.035 0.289 0.113 0.098 0.098 0.125 0.232 0.098 0.357-0.002 0.014-0.010 0.027-0.013 0.042-0.006 0.019-0.011 0.039-0.020 0.060-0.787 2.282-1.574 4.556-2.35 6.804l0.010-0.016c0 0.002-0.002 0.005-0.002 0.006l-0.007 0.010c-0.002 0.004 0 0.008-0.002 0.012 0 0.007-0.002 0.012-0.005 0.018 0 0.001 0.002 0.002 0.002 0.004 0 0.005-0.002 0.007-0.002 0.012 0.002 0.018 0.010 0.036 0.025 0.045 0.023 0.014 0.057 0.008 0.078-0.011 0.002-0.001 0.007-0.002 0.010-0.005l-0.005 0.010c2.823-3.447 5.649-6.89 8.536-10.415l0.047-0.055c0.006-0.023 0.008-0.050-0.004-0.068-0.008-0.016-0.030-0.026-0.049-0.032h-4.395c0-0.001 0-0.001 0-0.001s-0.002 0-0.005 0.001c-0.037 0.006-0.074 0.006-0.11 0-0.082-0.012-0.162-0.041-0.223-0.105-0.1-0.099-0.128-0.24-0.097-0.369 0.002-0.010 0.002-0.020 0.006-0.032s0.008-0.023 0.011-0.035c0.782-2.263 1.551-4.496 2.321-6.725 0.008-0.026 0.018-0.051 0.027-0.078zM22.264 19.629l-0.004-0.004c0.001 0 0.002 0 0.002-0.001 0.004-0.002 0.006-0.006 0.010-0.008l-0.008 0.013z"></path>
</svg>
