<?xml version="1.0" encoding="utf-8"?>
<!-- Generated by IcoMoon.io -->
<!DOCTYPE svg PUBLIC "-//W3C//DTD SVG 1.1//EN" "http://www.w3.org/Graphics/SVG/1.1/DTD/svg11.dtd">
<svg version="1.1" xmlns="http://www.w3.org/2000/svg" xmlns:xlink="http://www.w3.org/1999/xlink" width="36" height="36" viewBox="0 0 36 36">
<path fill="#444" d="M0.531 9.428c0.851 0.384 1.776 0.592 2.738 0.592 1.776 0 3.447-0.694 4.703-1.947 1.258-1.256 1.947-2.927 1.947-4.703 0-0.962-0.208-1.889-0.592-2.738-1.847 0.213-3.658 0.936-5.205 2.201-2.093 1.718-3.304 4.102-3.591 6.594z"></path>
<path fill="#444" d="M20.012 7.55c-0.375-1.179-0.971-2.312-1.806-3.33-1.72-2.095-4.116-3.311-6.613-3.593 0.287 0.874 0.437 1.794 0.437 2.742 0 2.34-0.913 4.539-2.566 6.192-1.656 1.656-3.854 2.567-6.194 2.567-0.943 0-1.868-0.153-2.738-0.439 0.203 1.857 0.932 3.676 2.206 5.23 1.302 1.586 2.99 2.668 4.819 3.223 2.206-5.739 6.747-10.326 12.456-12.592z"></path>
<path fill="#444" d="M35.228 18.743c0.157-1.001 0.241-2.023 0.241-3.066 0-2.213-0.234-4.96-1.32-6.046-0.779-0.777-3.834-1.32-6.044-1.32-1.045 0-2.069 0.083-3.068 0.238l10.192 10.194z"></path>
<path fill="#444" d="M8.578 25.437c-0.111 0.842-0.176 1.702-0.176 2.571 0 2.215 0.139 5.272 1.045 6.322 0.886 1.034 3.982 1.043 6.185 1.043h0.136c0.872 0 1.729-0.062 2.571-0.173l-9.762-9.762z"></path>
<path fill="#444" d="M23.133 8.944c-7.036 1.829-12.537 7.45-14.204 14.551l11.355 11.353c7.098-1.665 12.719-7.168 14.551-14.201l-11.702-11.702zM26.382 19.116l-1.11 1.11 0.865 0.86c0.305 0.305 0.305 0.805 0 1.11-0.155 0.153-0.354 0.229-0.555 0.229-0.203 0-0.402-0.076-0.555-0.229l-0.86-0.862-1.248 1.246 0.86 0.862c0.31 0.308 0.31 0.802 0 1.108-0.15 0.155-0.351 0.231-0.55 0.231-0.201 0-0.402-0.076-0.557-0.231l-0.863-0.86-1.244 1.244 0.86 0.862c0.305 0.308 0.305 0.802 0 1.112-0.15 0.15-0.351 0.227-0.553 0.227s-0.402-0.076-0.553-0.227l-0.865-0.865-1.29 1.29c-0.155 0.155-0.356 0.234-0.555 0.234-0.201 0-0.402-0.079-0.555-0.234-0.308-0.305-0.308-0.8 0-1.105l1.295-1.295-0.865-0.86c-0.305-0.31-0.305-0.805 0-1.11 0.307-0.308 0.802-0.308 1.11 0l0.86 0.863 1.249-1.246-0.865-0.865c-0.305-0.305-0.305-0.8 0-1.105s0.805-0.305 1.11 0l0.86 0.86 1.249-1.244-0.865-0.862c-0.305-0.305-0.305-0.802 0-1.108s0.805-0.305 1.11 0l0.865 0.86 1.105-1.108c0.305-0.305 0.805-0.305 1.11 0s0.305 0.802-0 1.107z"></path>
</svg>
