<?xml version="1.0" encoding="utf-8"?>
<!-- Generated by IcoMoon.io -->
<!DOCTYPE svg PUBLIC "-//W3C//DTD SVG 1.1//EN" "http://www.w3.org/Graphics/SVG/1.1/DTD/svg11.dtd">
<svg version="1.1" xmlns="http://www.w3.org/2000/svg" xmlns:xlink="http://www.w3.org/1999/xlink" width="36" height="36" viewBox="0 0 36 36">
<path fill="#444" d="M31.737 20.418l3.7-2.418-3.7-2.423 2.646-3.542-4.297-1.010 1.271-4.235-4.389 0.523-0.249-4.416-3.95 1.993-1.74-4.063-3.029 3.219-3.029-3.219-1.743 4.063-3.946-1.993-0.251 4.416-4.387-0.523 1.275 4.235-4.304 1.010 2.653 3.542-3.706 2.423 3.706 2.418-2.653 3.546 4.304 1.013-1.275 4.228 4.387-0.521 0.251 4.416 3.946-1.996 1.743 4.067 3.029-3.224 3.029 3.224 1.74-4.067 3.95 1.996 0.249-4.416 4.389 0.521-1.271-4.228 4.297-1.013-2.646-3.546z"></path>
</svg>
