<?xml version="1.0" encoding="utf-8"?>
<!-- Generated by IcoMoon.io -->
<!DOCTYPE svg PUBLIC "-//W3C//DTD SVG 1.1//EN" "http://www.w3.org/Graphics/SVG/1.1/DTD/svg11.dtd">
<svg version="1.1" xmlns="http://www.w3.org/2000/svg" xmlns:xlink="http://www.w3.org/1999/xlink" width="36" height="36" viewBox="0 0 36 36">
<path fill="#444" d="M35.658 13.609c-0.047-0.142-0.142-0.283-0.283-0.425-0.425-0.378-1.275-0.614-2.549-0.614h-9.915l-3.069-9.443c-0.047-0.189-0.142-0.378-0.189-0.567-0.047-0.047-0.047-0.142-0.094-0.189-0.047-0.094-0.094-0.189-0.142-0.283-0.047-0.047-0.047-0.142-0.094-0.189-0.047-0.094-0.094-0.142-0.142-0.236-0.047-0.047-0.094-0.094-0.094-0.142-0.047-0.047-0.094-0.142-0.142-0.189s-0.094-0.094-0.094-0.142c-0.047-0.047-0.094-0.094-0.142-0.142s-0.094-0.047-0.094-0.094-0.094-0.094-0.142-0.094c-0.047 0-0.094-0.047-0.142-0.047s-0.094-0.047-0.142-0.047c-0.047 0-0.094 0-0.142 0s-0.094 0-0.142 0c-0.047 0-0.094 0-0.142 0s-0.094 0-0.142 0c-0.047 0-0.094 0.047-0.142 0.047s-0.094 0.047-0.094 0.047-0.094 0.047-0.142 0.094c-0.047 0.047-0.094 0.047-0.094 0.094-0.047 0.047-0.094 0.094-0.142 0.142s-0.094 0.094-0.094 0.142c-0.047 0.047-0.094 0.142-0.142 0.189s-0.047 0.094-0.094 0.142-0.094 0.142-0.142 0.236c-0.047 0.047-0.047 0.094-0.094 0.142-0.047 0.094-0.094 0.189-0.142 0.33-0.047 0.047-0.047 0.094-0.094 0.189-0.047 0.189-0.142 0.378-0.189 0.567l-3.069 9.443h-9.915c-3.352 0-3.871 1.558-1.18 3.494l8.026 5.76-3.069 9.395c-0.094 0.236-0.142 0.472-0.189 0.661 0 0.047-0.047 0.142-0.047 0.189-0.047 0.142-0.047 0.283-0.094 0.425 0 0.047 0 0.094 0 0.189 0 0.142 0 0.283 0 0.425 0 0.047 0 0.047 0 0.094 0 0.142 0.047 0.283 0.047 0.425 0 0.047 0 0.047 0.047 0.094 0.047 0.094 0.047 0.189 0.094 0.236 0 0.047 0.047 0.047 0.047 0.094 0.047 0.047 0.094 0.142 0.142 0.189 0 0 0.047 0.047 0.047 0.047 0.094 0.047 0.189 0.094 0.283 0.142 0 0 0.047 0 0.047 0 0.094 0 0.189 0.047 0.283 0.047 0.047 0 0.142 0 0.189 0 0 0 0.047 0 0.047 0 0.094 0 0.189-0.047 0.33-0.047 0.047 0 0.047 0 0.094 0 0.094-0.047 0.189-0.047 0.283-0.094 0.047 0 0.047 0 0.094-0.047 0.142-0.047 0.236-0.094 0.378-0.189 0 0 0.047-0.047 0.047-0.047 0.094-0.047 0.236-0.142 0.33-0.189 0.047 0 0.094-0.047 0.094-0.047 0.142-0.094 0.283-0.189 0.425-0.283l8.026-5.807 8.026 5.807c0.142 0.094 0.283 0.189 0.425 0.283 0.047 0.047 0.094 0.047 0.094 0.094 0.142 0.094 0.236 0.142 0.33 0.189 0 0 0.047 0.047 0.047 0.047 0.142 0.047 0.236 0.142 0.378 0.189 0.047 0 0.047 0 0.094 0.047 0.094 0.047 0.189 0.047 0.283 0.094 0.047 0 0.047 0 0.094 0 0.094 0.047 0.189 0.047 0.33 0.047 0 0 0.047 0 0.047 0 0.047 0 0.142 0 0.189 0 0.094 0 0.189 0 0.283-0.047 0 0 0.047 0 0.047 0 0.094-0.047 0.189-0.094 0.283-0.142 0 0 0.047-0.047 0.047-0.047 0.047-0.047 0.094-0.094 0.142-0.189 0-0.047 0.047-0.047 0.047-0.094 0.047-0.094 0.047-0.142 0.094-0.236 0-0.047 0-0.047 0.047-0.094 0.047-0.142 0.047-0.283 0.047-0.425 0-0.047 0-0.047 0-0.094 0-0.142 0-0.283 0-0.425 0-0.047 0-0.094 0-0.189 0-0.142-0.047-0.283-0.094-0.425 0-0.047-0.047-0.142-0.047-0.189-0.047-0.189-0.094-0.425-0.189-0.661l-3.069-9.395 8.026-5.807c0.189-0.142 0.33-0.236 0.472-0.378 0.85-0.708 1.275-1.369 1.275-1.889 0.094-0.047 0.094-0.142 0.047-0.189zM33.439 15.309l-8.026 5.807-0.567 0.425 0.236 0.661 3.069 9.395c0.472 1.416 0.283 1.889 0.236 1.983 0 0-0.047 0-0.047 0-0.142 0-0.661-0.047-1.747-0.85l-8.026-5.807-0.567-0.425-0.567 0.425-8.026 5.807c-1.039 0.755-1.605 0.803-1.747 0.803-0.047 0-0.047 0-0.047 0-0.047-0.094-0.236-0.567 0.236-1.983l3.069-9.395 0.236-0.661-0.567-0.425-8.026-5.76c-1.039-0.755-1.322-1.275-1.322-1.416 0.094-0.094 0.614-0.378 1.936-0.378h10.623l0.189-0.661 3.069-9.443c0.472-1.416 0.897-1.652 0.944-1.7 0.094 0.047 0.519 0.33 0.991 1.747l3.069 9.443 0.189 0.661h10.623c1.322 0 1.841 0.283 1.936 0.378-0.047 0.094-0.33 0.614-1.369 1.369z"></path>
</svg>
