<?xml version="1.0" encoding="utf-8"?>
<!-- Generated by IcoMoon.io -->
<!DOCTYPE svg PUBLIC "-//W3C//DTD SVG 1.1//EN" "http://www.w3.org/Graphics/SVG/1.1/DTD/svg11.dtd">
<svg version="1.1" xmlns="http://www.w3.org/2000/svg" xmlns:xlink="http://www.w3.org/1999/xlink" width="36" height="36" viewBox="0 0 36 36">
<path fill="#444" d="M31.5 0.628h-19.357c-2.138 0-3.87 1.732-3.87 3.872v1.687h17.67c2.134 0 3.87 1.732 3.87 3.87v17.672h1.687c2.138 0 3.873-1.734 3.873-3.872v-19.357c0-2.14-1.734-3.872-3.873-3.872z"></path>
<path fill="#444" d="M23.856 8.272h-19.357c-2.138 0-3.872 1.732-3.872 3.87v19.357c0 2.14 1.734 3.872 3.872 3.872h19.357c2.138 0 3.873-1.732 3.873-3.872v-19.357c0-2.138-1.734-3.87-3.873-3.87zM14.178 12.959c2.062 0 3.738 1.718 3.738 3.827 0 2.114-1.676 3.831-3.738 3.831-2.060 0-3.736-1.718-3.736-3.831 0-2.109 1.676-3.827 3.736-3.827zM20.251 22.498l-1.021 6.485c-0.149 1.017-0.763 1.701-1.701 1.701h-6.701c-0.939 0-1.552-0.684-1.701-1.701l-1.019-6.485c-0.112-0.746 0.336-1.322 1.699-1.701l1.28-0.342c0.833 0.731 1.91 1.177 3.091 1.181 1.181-0.004 2.258-0.45 3.091-1.181l1.281 0.342c1.365 0.379 1.813 0.955 1.701 1.701z"></path>
</svg>
