<?xml version="1.0" encoding="utf-8"?>
<!-- Generated by IcoMoon.io -->
<!DOCTYPE svg PUBLIC "-//W3C//DTD SVG 1.1//EN" "http://www.w3.org/Graphics/SVG/1.1/DTD/svg11.dtd">
<svg version="1.1" xmlns="http://www.w3.org/2000/svg" xmlns:xlink="http://www.w3.org/1999/xlink" width="36" height="36" viewBox="0 0 36 36">
<path fill="#444" d="M24.196 10.301c4.251 3.422 4.925 9.643 1.503 13.895-3.421 4.252-9.643 4.927-13.895 1.505-4.252-3.423-4.927-9.642-1.505-13.896 3.422-4.251 9.644-4.925 13.896-1.503z"></path>
<path fill="#444" d="M6.533 14.391c-0.439 0.545-1.196 0.775-1.889 0.513l-3.117-1.179c-0.861-0.327-1.295-1.288-0.969-2.149 0.326-0.86 1.287-1.295 2.147-0.97l3.118 1.18c0.863 0.326 1.296 1.288 0.972 2.149-0.066 0.169-0.154 0.321-0.261 0.456z"></path>
<path fill="#444" d="M24.068 6.393c-0.439 0.547-1.195 0.776-1.886 0.514-0.861-0.326-1.295-1.288-0.97-2.15l1.181-3.117c0.323-0.861 1.287-1.295 2.147-0.969 0.86 0.325 1.295 1.287 0.969 2.149l-1.177 3.118c-0.066 0.169-0.155 0.321-0.263 0.455z"></path>
<path fill="#444" d="M13.645 6.761c-0.16 0.197-0.367 0.361-0.612 0.473-0.838 0.379-1.826 0.006-2.205-0.834l-1.372-3.040c-0.378-0.839-0.006-1.824 0.834-2.202 0.839-0.38 1.826-0.006 2.205 0.832l1.371 3.040c0.266 0.591 0.16 1.258-0.221 1.731z"></path>
<path fill="#444" d="M6.9 24.817c-0.159 0.198-0.367 0.362-0.612 0.473l-3.040 1.37c-0.838 0.378-1.826 0.005-2.204-0.834s-0.006-1.826 0.834-2.205l3.039-1.37c0.838-0.379 1.826-0.006 2.204 0.833 0.266 0.594 0.16 1.259-0.221 1.733z"></path>
<path fill="#444" d="M34.738 12.135c-0.159 0.198-0.364 0.362-0.614 0.473l-3.039 1.37c-0.838 0.378-1.826 0.005-2.204-0.833-0.378-0.839-0.005-1.827 0.834-2.205l3.038-1.37c0.84-0.379 1.828-0.006 2.206 0.834 0.266 0.592 0.16 1.257-0.222 1.73z"></path>
<path fill="#444" d="M29.467 21.609c0.439-0.545 1.195-0.773 1.889-0.513l3.117 1.179c0.861 0.326 1.295 1.288 0.969 2.15-0.326 0.859-1.288 1.294-2.148 0.968l-3.12-1.177c-0.86-0.327-1.294-1.289-0.969-2.15 0.064-0.169 0.154-0.321 0.261-0.456z"></path>
<path fill="#444" d="M11.931 29.607c0.44-0.545 1.196-0.776 1.889-0.514 0.86 0.326 1.294 1.288 0.969 2.15l-1.18 3.117c-0.326 0.861-1.288 1.294-2.149 0.969-0.86-0.325-1.295-1.287-0.969-2.149l1.179-3.118c0.064-0.169 0.154-0.321 0.262-0.455z"></path>
<path fill="#444" d="M22.355 29.239c0.16-0.197 0.364-0.361 0.612-0.472 0.839-0.38 1.826-0.007 2.204 0.833l1.373 3.039c0.378 0.84 0.005 1.826-0.834 2.205-0.84 0.379-1.826 0.006-2.206-0.833l-1.372-3.040c-0.266-0.591-0.159-1.258 0.223-1.731z"></path>
</svg>
