<?xml version="1.0" encoding="utf-8"?>
<!-- Generated by IcoMoon.io -->
<!DOCTYPE svg PUBLIC "-//W3C//DTD SVG 1.1//EN" "http://www.w3.org/Graphics/SVG/1.1/DTD/svg11.dtd">
<svg version="1.1" xmlns="http://www.w3.org/2000/svg" xmlns:xlink="http://www.w3.org/1999/xlink" width="36" height="36" viewBox="0 0 36 36">
<path fill="#444" d="M25.936 18c0 1.648-0.506 3.182-1.37 4.452l4.658 4.658c0.616-0.757 1.163-1.57 1.618-2.442 2.851-1.757 4.596-4.1 4.596-6.668s-1.745-4.91-4.597-6.668c-0.495-0.95-1.096-1.835-1.781-2.647l-4.647 4.648c0.956 1.311 1.523 2.924 1.523 4.668zM31.605 13.056c1.773 1.412 2.809 3.114 2.809 4.944s-1.036 3.531-2.809 4.943c0.562-1.543 0.869-3.208 0.869-4.943s-0.307-3.401-0.869-4.944z"></path>
<path fill="#444" d="M13.548 11.434c1.27-0.864 2.803-1.37 4.452-1.37s3.182 0.506 4.452 1.37l4.658-4.658c-0.757-0.615-1.57-1.163-2.441-1.617-1.758-2.851-4.099-4.596-6.669-4.596s-4.911 1.744-6.669 4.597c-0.871 0.454-1.684 1.002-2.441 1.617l4.658 4.657zM18 1.586c1.83 0 3.532 1.036 4.944 2.81-1.543-0.563-3.208-0.87-4.944-0.87s-3.4 0.308-4.944 0.87c1.412-1.774 3.114-2.81 4.944-2.81z"></path>
<path fill="#444" d="M10.063 18c0-1.744 0.567-3.356 1.523-4.668l-4.648-4.647c-0.684 0.811-1.285 1.696-1.78 2.646-2.853 1.757-4.597 4.099-4.597 6.668s1.744 4.911 4.597 6.668c0.455 0.872 1.002 1.685 1.618 2.441l4.656-4.657c-0.864-1.27-1.37-2.803-1.37-4.452zM4.395 22.943c-1.773-1.411-2.81-3.113-2.81-4.943s1.037-3.532 2.811-4.944c-0.563 1.543-0.871 3.209-0.871 4.944s0.307 3.4 0.87 4.943z"></path>
<path fill="#444" d="M22.667 24.413c-1.31 0.956-2.923 1.523-4.667 1.523s-3.357-0.567-4.668-1.523l-4.647 4.647c0.812 0.685 1.697 1.285 2.646 1.78 1.758 2.853 4.1 4.597 6.669 4.597s4.911-1.745 6.669-4.597c0.95-0.495 1.835-1.095 2.646-1.78l-4.647-4.648zM18 34.414c-1.83 0-3.532-1.036-4.944-2.809 1.544 0.562 3.209 0.87 4.944 0.87s3.4-0.308 4.944-0.87c-1.412 1.773-3.114 2.809-4.944 2.809z"></path>
</svg>
