<?xml version="1.0" encoding="utf-8"?>
<!-- Generated by IcoMoon.io -->
<!DOCTYPE svg PUBLIC "-//W3C//DTD SVG 1.1//EN" "http://www.w3.org/Graphics/SVG/1.1/DTD/svg11.dtd">
<svg version="1.1" xmlns="http://www.w3.org/2000/svg" xmlns:xlink="http://www.w3.org/1999/xlink" width="36" height="36" viewBox="0 0 36 36">
<path fill="#444" d="M4.602 17.72h2.167v-7.396h-0.025c1.559-4.901 5.81-8.148 11.235-8.148 5.447 0 9.711 3.274 11.253 8.208v6.423c-0.65 1.465-2.278 4.211-5.736 5.6-0.41-0.569-1.078-0.941-1.833-0.941-1.25 0-2.263 1.013-2.263 2.262s1.013 2.262 2.263 2.262c1.162 0 2.118-0.877 2.244-2.005 3.844-1.493 5.808-4.477 6.677-6.265h0.816c1.036 0 1.877-0.841 1.877-1.878v-3.641c0-1.036-0.841-1.876-1.878-1.876h-0.514c-1.658-5.781-6.659-9.762-12.905-9.762-6.245 0-11.246 3.981-12.905 9.762h-0.473c-1.037 0-1.877 0.839-1.877 1.876v3.641c0 1.037 0.84 1.878 1.878 1.878z"></path>
<path fill="#444" d="M21.662 20.35c0.564 0 1.094 0.141 1.563 0.386 2.732-1.233 4.014-3.434 4.521-4.591v-5.746c-1.559-3.962-5.348-6.765-9.767-6.765-4.377 0-8.139 2.753-9.725 6.657v8.267c1.586 3.904 5.348 6.657 9.725 6.657 0.217 0 0.432-0.011 0.645-0.024-0.215-0.443-0.339-0.94-0.339-1.466 0-1.861 1.514-3.376 3.376-3.376z"></path>
<path fill="#444" d="M30.314 25.724l-3.605-0.961c-2.342 2.063-5.382 3.319-8.71 3.328-3.327-0.009-6.367-1.265-8.711-3.328l-3.607 0.961c-3.848 1.072-5.107 2.688-4.791 4.791l0.773 4.922h32.673l0.773-4.922c0.314-2.103-0.944-3.72-4.795-4.791z"></path>
</svg>
