<?xml version="1.0" encoding="utf-8"?>
<!-- Generated by IcoMoon.io -->
<!DOCTYPE svg PUBLIC "-//W3C//DTD SVG 1.1//EN" "http://www.w3.org/Graphics/SVG/1.1/DTD/svg11.dtd">
<svg version="1.1" xmlns="http://www.w3.org/2000/svg" xmlns:xlink="http://www.w3.org/1999/xlink" width="36" height="36" viewBox="0 0 36 36">
<path fill="#444" d="M14.879 17.426c0-1.632 1.329-2.959 2.959-2.959h1.758v-3.991c0-0.854-0.696-1.555-1.552-1.555h-8.239v-3.041l-8.694 7.531c-0.644 0.564-0.644 1.485 0 2.048l8.694 7.48v-2.99h5.074v-2.523z"></path>
<path fill="#444" d="M26.193 13.061l8.696 7.478c0.644 0.564 0.644 1.485 0 2.048l-8.696 7.533v-3.043h-8.237c-0.856 0-1.556-0.699-1.556-1.553v-7.921c0-0.855 0.7-1.554 1.556-1.554h8.237v-2.988z"></path>
</svg>
