<?xml version="1.0" encoding="utf-8"?>
<!-- Generated by IcoMoon.io -->
<!DOCTYPE svg PUBLIC "-//W3C//DTD SVG 1.1//EN" "http://www.w3.org/Graphics/SVG/1.1/DTD/svg11.dtd">
<svg version="1.1" xmlns="http://www.w3.org/2000/svg" xmlns:xlink="http://www.w3.org/1999/xlink" width="36" height="36" viewBox="0 0 36 36">
<path fill="#444" d="M17.998 17.037c1.647 0 2.986-1.374 2.986-3.060s-1.339-3.060-2.986-3.060-2.988 1.374-2.988 3.060 1.341 3.060 2.988 3.060z"></path>
<path fill="#444" d="M21.494 17.182l-1.024-0.274c-0.663 0.586-1.527 0.943-2.47 0.943s-1.807-0.356-2.47-0.943l-1.024 0.274c-1.094 0.305-1.451 0.765-1.359 1.361l0.814 5.182c0.122 0.812 0.609 1.361 1.361 1.361h5.356c0.752 0 1.239-0.549 1.357-1.361l0.816-5.182c0.091-0.597-0.265-1.057-1.359-1.361z"></path>
<path fill="#444" d="M32.959 2.604l-1.904 1.91-0.394 0.392-0.51 0.512-0.539-0.485c-3.235-2.901-7.402-4.499-11.736-4.499-8.309 0-15.545 5.899-17.209 14.028-0.104 0.504-0.004 1.017 0.28 1.448 0.286 0.429 0.717 0.721 1.223 0.825 0.133 0.027 0.261 0.041 0.39 0.041 0.907 0 1.703-0.649 1.886-1.542 1.297-6.343 6.946-10.945 13.431-10.945 3.266 0 6.436 1.175 8.927 3.311l0.626 0.539-0.584 0.58-2.076 2.080 9.569 2.126-1.378-10.323z"></path>
<path fill="#444" d="M34.929 18.228c-0.332-0.396-0.796-0.642-1.305-0.688-0.062-0.006-0.122-0.008-0.182-0.008-1.001 0-1.823 0.754-1.917 1.749-0.657 7.087-6.523 12.428-13.649 12.428-3.431 0-6.718-1.276-9.248-3.593l-0.588-0.539 0.566-0.566 2.4-2.404-9.569-2.126 1.378 10.321 1.904-1.908 0.079-0.075 0.522-0.522 0.539 0.508c3.266 3.067 7.534 4.76 12.018 4.76 9.13 0 16.647-6.848 17.488-15.928 0.045-0.512-0.108-1.013-0.435-1.409z"></path>
</svg>
