<?xml version="1.0" encoding="utf-8"?>
<!-- Generated by IcoMoon.io -->
<!DOCTYPE svg PUBLIC "-//W3C//DTD SVG 1.1//EN" "http://www.w3.org/Graphics/SVG/1.1/DTD/svg11.dtd">
<svg version="1.1" xmlns="http://www.w3.org/2000/svg" xmlns:xlink="http://www.w3.org/1999/xlink" width="36" height="36" viewBox="0 0 36 36">
<path fill="#444" d="M31.951 0.563h-27.901c-1.926 0-3.487 1.561-3.487 3.488v27.899c0 1.926 1.561 3.488 3.487 3.488h27.901c1.926 0 3.487-1.561 3.487-3.488v-27.899c0-1.926-1.56-3.488-3.487-3.488zM7.328 15.812c1.029-5.032 5.509-8.684 10.651-8.684 2.691 0 5.279 1.003 7.265 2.784l0.232-0.232 1.723-1.729 1.583 7.622-7.628-1.569 1.826-1.828c-1.386-1.187-3.157-1.854-5-1.854-3.631 0-6.796 2.578-7.523 6.129-0.155 0.756-0.821 1.277-1.562 1.277-0.106 0-0.215-0.011-0.321-0.033-0.866-0.176-1.423-1.020-1.246-1.883zM17.979 28.873c-2.791 0-5.434-1.061-7.44-2.947l-0.043 0.044-1.724 1.728-1.583-7.623 7.628 1.57-2.017 2.021c1.407 1.289 3.243 2.012 5.179 2.012 3.991 0 7.277-2.991 7.646-6.959 0.081-0.878 0.857-1.524 1.737-1.443 0.878 0.081 1.522 0.858 1.443 1.738-0.519 5.621-5.174 9.859-10.825 9.859z"></path>
</svg>
