<?xml version="1.0" encoding="utf-8"?>
<!-- Generated by IcoMoon.io -->
<!DOCTYPE svg PUBLIC "-//W3C//DTD SVG 1.1//EN" "http://www.w3.org/Graphics/SVG/1.1/DTD/svg11.dtd">
<svg version="1.1" xmlns="http://www.w3.org/2000/svg" xmlns:xlink="http://www.w3.org/1999/xlink" width="36" height="36" viewBox="0 0 36 36">
<path fill="#444" d="M30.503 16.396c3.684-3.685 3.684-9.679 0-13.363-0.284-0.283-0.744-0.283-1.028 0.001-0.284 0.283-0.284 0.745 0 1.027 3.118 3.118 3.118 8.191 0 11.307-0.284 0.284-0.284 0.744 0 1.030 0.284 0.281 0.744 0.281 1.028-0.001z"></path>
<path fill="#444" d="M27.811 14.339c2.549-2.551 2.552-6.702 0-9.252-0.284-0.283-0.744-0.281-1.028 0-0.285 0.284-0.284 0.746 0 1.029 1.985 1.983 1.985 5.213 0 7.196-0.285 0.283-0.285 0.742 0 1.026 0.284 0.285 0.744 0.284 1.028 0z"></path>
<path fill="#444" d="M25.117 12.284c1.418-1.415 1.418-3.722 0-5.139-0.284-0.284-0.744-0.284-1.027 0s-0.284 0.744 0 1.026c0.852 0.851 0.852 2.234 0 3.083-0.284 0.286-0.284 0.746 0 1.030s0.744 0.284 1.027 0z"></path>
<path fill="#444" d="M14.58 15.691c4.041 0 7.328-3.37 7.328-7.511s-3.287-7.512-7.328-7.512c-4.044 0-7.33 3.37-7.33 7.512s3.287 7.511 7.33 7.511z"></path>
<path fill="#444" d="M23.158 16.042l-2.511-0.668c-1.629 1.436-3.745 2.313-6.063 2.317-2.314-0.005-4.431-0.882-6.064-2.317l-2.511 0.668c-2.679 0.749-3.555 1.875-3.334 3.338l2 12.724c0.296 1.992 1.494 3.334 3.337 3.334h13.146c1.844 0 3.042-1.341 3.337-3.334l2.002-12.724c0.219-1.463-0.657-2.589-3.338-3.338z"></path>
</svg>
