<?xml version="1.0" encoding="utf-8"?>
<!-- Generated by IcoMoon.io -->
<!DOCTYPE svg PUBLIC "-//W3C//DTD SVG 1.1//EN" "http://www.w3.org/Graphics/SVG/1.1/DTD/svg11.dtd">
<svg version="1.1" xmlns="http://www.w3.org/2000/svg" xmlns:xlink="http://www.w3.org/1999/xlink" width="36" height="36" viewBox="0 0 36 36">
<path fill="#444" d="M20.135 15.285h-17.342c-1.195 0-2.166 0.971-2.166 2.168v9.753c0 1.197 0.971 2.168 2.166 2.168h1.271v3.159l8.713-3.159h7.358c1.195 0 2.168-0.971 2.168-2.168v-9.753c0-1.197-0.973-2.168-2.168-2.168zM12.306 24.758h-7.269c-0.455 0-0.827-0.371-0.827-0.829 0-0.455 0.371-0.829 0.827-0.829h7.269c0.455 0 0.827 0.373 0.827 0.829-0 0.458-0.371 0.829-0.827 0.829zM17.727 21.248h-12.69c-0.455 0-0.827-0.369-0.827-0.829 0-0.453 0.371-0.824 0.827-0.824h12.69c0.458 0 0.831 0.371 0.831 0.824 0 0.46-0.373 0.829-0.831 0.829z"></path>
<path fill="#444" d="M35.373 12.433c0-4.95-5.147-8.966-11.501-8.966-6.349 0-11.499 4.017-11.499 8.966 0 0.209 0.013 0.413 0.031 0.618h7.729c2.428 0 4.405 1.975 4.405 4.403v4.79l5.376 1.666v-3.843c3.274-1.577 5.458-4.405 5.458-7.633z"></path>
</svg>
