<?xml version="1.0" encoding="utf-8"?>
<!-- Generated by IcoMoon.io -->
<!DOCTYPE svg PUBLIC "-//W3C//DTD SVG 1.1//EN" "http://www.w3.org/Graphics/SVG/1.1/DTD/svg11.dtd">
<svg version="1.1" xmlns="http://www.w3.org/2000/svg" xmlns:xlink="http://www.w3.org/1999/xlink" width="36" height="36" viewBox="0 0 36 36">
<path fill="#444" d="M34.717 15.297h-3.046l-2.378-5.97c-0.288-0.693-0.733-1.637-2.040-2.009 0 0-2.481-0.742-6.357-1.021v-1.011c0-0.673-0.553-1.223-1.223-1.223h-3.344c-0.675 0-1.225 0.55-1.225 1.223v0.995c-4.278 0.266-6.844 1.037-6.844 1.037-1.184 0.447-1.562 0.824-2.042 2.009l-2.262 5.97h-2.713c-0.339 0-0.615 0.277-0.615 0.617v1.825c0 0.339 0.275 0.617 0.615 0.617h1.713l-1.018 7.268v5.633c0 0.377 0.304 0.681 0.683 0.681h4.362c0.377 0 0.683-0.304 0.683-0.681v-2.136h20.667v2.136c0 0.377 0.306 0.681 0.683 0.681h4.364c0.377 0 0.683-0.304 0.683-0.681v-5.298c0-0.039-0.006-0.079-0.010-0.114l0.010-0.569-1.368-6.92h2.022c0.362 0 0.656-0.296 0.656-0.656v-1.749c-0-0.36-0.294-0.654-0.656-0.654zM8.141 23.012c-1.264 0-2.293-1.026-2.293-2.291 0-1.269 1.028-2.291 2.293-2.291s2.291 1.022 2.291 2.291c0 1.264-1.026 2.291-2.291 2.291zM17.855 15.297h-11.061l2.034-5.116c0.236-0.563 0.321-0.61 0.557-0.679 0 0 3.489-1.022 8.47-1.041 0 0 0.048 0 0.072 0 0.023 0 0.072 0 0.072 0 4.981 0.019 8.468 1.041 8.468 1.041 0.234 0.068 0.321 0.116 0.559 0.679l2.034 5.116h-11.206zM28.906 23.169c-1.267 0-2.293-1.028-2.293-2.291 0-1.269 1.026-2.291 2.293-2.291s2.291 1.022 2.291 2.291c0 1.262-1.024 2.291-2.291 2.291z"></path>
</svg>
