<?xml version="1.0" encoding="utf-8"?>
<!-- Generated by IcoMoon.io -->
<!DOCTYPE svg PUBLIC "-//W3C//DTD SVG 1.1//EN" "http://www.w3.org/Graphics/SVG/1.1/DTD/svg11.dtd">
<svg version="1.1" xmlns="http://www.w3.org/2000/svg" xmlns:xlink="http://www.w3.org/1999/xlink" width="36" height="36" viewBox="0 0 36 36">
<path fill="#444" d="M18.247 16.548c2.907 0 5.272-2.426 5.272-5.405 0-2.98-2.365-5.403-5.272-5.403-2.909 0-5.274 2.423-5.274 5.403 0 2.979 2.365 5.405 5.274 5.405z"></path>
<path fill="#444" d="M24.421 16.801l-1.808-0.479c-1.175 1.032-2.694 1.663-4.361 1.666-1.669-0.003-3.19-0.634-4.366-1.666l-1.806 0.479c-1.926 0.54-2.557 1.348-2.397 2.401l1.438 9.214c0.215 1.436 1.075 2.461 2.401 2.461h9.458c1.326 0 2.188-1.025 2.401-2.461l1.438-9.182c0.158-1.054-0.471-1.892-2.399-2.432z"></path>
<path fill="#444" d="M29.229 12.928c2.099 0 3.807-1.751 3.807-3.903 0-2.149-1.708-3.901-3.807-3.901-2.101 0-3.808 1.752-3.808 3.901-0 2.152 1.707 3.903 3.808 3.903z"></path>
<path fill="#444" d="M33.687 13.112l-1.306-0.347c-0.847 0.744-1.946 1.2-3.15 1.202-1.202-0.002-2.3-0.458-3.149-1.202l-1.306 0.347c-1.393 0.388-1.844 0.972-1.732 1.734l0.020 0.137 1.734 0.459c3.184 0.887 3.616 2.642 3.414 3.974l-0.591 3.762h5.026c0.959 0 1.579-0.692 1.732-1.727l1.042-6.608c0.112-0.761-0.342-1.344-1.734-1.732z"></path>
<path fill="#444" d="M6.772 12.928c-2.099 0-3.807-1.751-3.807-3.903 0-2.149 1.708-3.901 3.807-3.901 2.101 0 3.808 1.752 3.808 3.901 0 2.152-1.707 3.903-3.808 3.903z"></path>
<path fill="#444" d="M2.312 13.112l1.306-0.347c0.847 0.744 1.947 1.2 3.151 1.202 1.202-0.002 2.3-0.458 3.149-1.202l1.306 0.347c1.392 0.388 1.844 0.972 1.732 1.734l-0.020 0.137-1.734 0.459c-3.184 0.887-3.615 2.642-3.414 3.974l0.591 3.762h-5.026c-0.959 0-1.579-0.692-1.732-1.727l-1.042-6.608c-0.113-0.761 0.342-1.344 1.733-1.732z"></path>
</svg>
