<?xml version="1.0" encoding="utf-8"?>
<!-- Generated by IcoMoon.io -->
<!DOCTYPE svg PUBLIC "-//W3C//DTD SVG 1.1//EN" "http://www.w3.org/Graphics/SVG/1.1/DTD/svg11.dtd">
<svg version="1.1" xmlns="http://www.w3.org/2000/svg" xmlns:xlink="http://www.w3.org/1999/xlink" width="36" height="36" viewBox="0 0 36 36">
<path fill="#444" d="M18.001 15.64c4.038 0 7.322-3.367 7.322-7.506s-3.284-7.506-7.322-7.506-7.326 3.367-7.326 7.506c0 4.139 3.289 7.506 7.326 7.506z"></path>
<path fill="#444" d="M26.567 15.994l-2.506-0.666c-1.631 1.434-3.746 2.308-6.062 2.312-2.314-0.004-4.427-0.878-6.060-2.312l-2.508 0.666c-2.676 0.745-3.551 1.871-3.334 3.334l2.001 12.713c0.294 1.991 1.494 3.332 3.334 3.332h13.133c1.844 0 3.042-1.341 3.336-3.332l2.001-12.713c0.217-1.463-0.658-2.589-3.336-3.334zM13.663 32.364c-0.648 0.64-1.693 0.633-2.339-0.008-0.646-0.648-0.65-1.693-0.008-2.343l3.771-3.773c0.008 0.010 0.017 0.023 0.029 0.035l1.469 1.469c-0.128 0.59-0.019 1.118 0.172 1.527l-3.094 3.092zM23.276 32.301c0 0-1.275 1.225-2.287 0.213-1.014-1.012-3.013-3.015-3.013-3.015s-0.849-0.848-0.259-2.001l-4.125-4.12-0.836-0.083-1.589-2.345 0.753-0.755 2.347 1.594 0.079 0.834 4.122 4.12c1.155-0.588 2.003 0.261 2.003 0.261s1.999 2.003 3.013 3.015c1.012 1.012-0.209 2.283-0.209 2.283zM23.705 24.919c-1.581 1.579-2.307 0.412-3.319 0.851-0.563-0.339-1.229-0.269-1.672-0.186 0 0-1.449-1.445-1.459-1.455l0.211-0.213c1.289-1.287-0.575-2.107 1.277-3.961s3.729-0.865 3.729-0.865-2.009 2.007-2.355 2.355l0.337 1.763 1.763 0.333c0.346-0.346 2.353-2.353 2.353-2.353s0.987 1.879-0.865 3.731z"></path>
<path fill="#444" d="M12.449 30.749c-0.273 0-0.493 0.223-0.495 0.499 0.002 0.275 0.221 0.499 0.495 0.499 0.275 0 0.495-0.223 0.495-0.499s-0.219-0.499-0.495-0.499z"></path>
</svg>
