<?xml version="1.0" encoding="utf-8"?>
<!-- Generated by IcoMoon.io -->
<!DOCTYPE svg PUBLIC "-//W3C//DTD SVG 1.1//EN" "http://www.w3.org/Graphics/SVG/1.1/DTD/svg11.dtd">
<svg version="1.1" xmlns="http://www.w3.org/2000/svg" xmlns:xlink="http://www.w3.org/1999/xlink" width="36" height="36" viewBox="0 0 36 36">
<path fill="#444" d="M21.109 2.738c0-1.653 1.107-2.111 2.162-2.111s2.156 0.457 2.156 2.111c0 1.639-1.101 2.111-2.156 2.111s-2.162-0.472-2.162-2.111zM22.307 2.738c0 0.72 0.368 0.981 0.964 0.981s0.964-0.261 0.964-0.981c0-0.72-0.368-0.979-0.964-0.979s-0.964 0.259-0.964 0.979z"></path>
<path fill="#444" d="M19.57 23.695v-22.312c0-0.42-0.435-0.581-0.853-0.581h-4.008c-0.418 0-0.697 0.161-0.697 0.581v22.312c-2.086 1.012-3.439 3.098-3.439 5.513 0 3.402 2.746 6.165 6.158 6.165 3.406 0 6.21-2.763 6.21-6.165 0-2.415-1.287-4.501-3.371-5.513zM15.147 2.887h1.386c0.288 0 0.519 0.232 0.519 0.522 0 0.288-0.232 0.519-0.519 0.519h-1.386c-0.288 0-0.521-0.232-0.521-0.519 0-0.29 0.234-0.522 0.521-0.522zM15.147 5.319h1.386c0.288 0 0.519 0.234 0.519 0.522s-0.232 0.521-0.519 0.521h-1.386c-0.288 0-0.521-0.234-0.521-0.521s0.234-0.522 0.521-0.522zM15.147 7.75h1.386c0.288 0 0.519 0.234 0.519 0.521s-0.232 0.522-0.519 0.522h-1.386c-0.288 0-0.521-0.234-0.521-0.522s0.234-0.521 0.521-0.521zM16.534 21.301h-1.386c-0.288 0-0.521-0.232-0.521-0.521 0-0.288 0.234-0.522 0.521-0.522h1.386c0.288 0 0.519 0.234 0.519 0.522-0 0.29-0.232 0.521-0.519 0.521zM16.534 18.869h-1.386c-0.288 0-0.521-0.234-0.521-0.522s0.234-0.522 0.521-0.522h1.386c0.288 0 0.519 0.234 0.519 0.522s-0.232 0.522-0.519 0.522zM16.534 16.436h-1.386c-0.288 0-0.521-0.23-0.521-0.522 0-0.286 0.234-0.521 0.521-0.521h1.386c0.288 0 0.519 0.236 0.519 0.521-0 0.292-0.232 0.522-0.519 0.522zM16.534 14.006h-1.386c-0.288 0-0.521-0.234-0.521-0.521 0-0.29 0.234-0.522 0.521-0.522h1.386c0.288 0 0.519 0.232 0.519 0.522-0 0.287-0.232 0.521-0.519 0.521zM17.672 11.225h-2.525c-0.288 0-0.521-0.232-0.521-0.522 0-0.288 0.234-0.522 0.521-0.522h2.525c0.29 0 0.521 0.234 0.521 0.522 0 0.29-0.232 0.522-0.521 0.522z"></path>
</svg>
