<?xml version="1.0" encoding="utf-8"?>
<!-- Generated by IcoMoon.io -->
<!DOCTYPE svg PUBLIC "-//W3C//DTD SVG 1.1//EN" "http://www.w3.org/Graphics/SVG/1.1/DTD/svg11.dtd">
<svg version="1.1" xmlns="http://www.w3.org/2000/svg" xmlns:xlink="http://www.w3.org/1999/xlink" width="36" height="36" viewBox="0 0 36 36">
<path fill="#444" d="M28.703 20.643c-0.873 0-1.575-0.708-1.575-1.577v-12.925c0-0.87 0.702-1.576 1.575-1.576h5.092c0.873 0 1.577 0.706 1.577 1.576v12.925c0 0.869-0.704 1.577-1.577 1.577h-5.092z"></path>
<path fill="#444" d="M0.627 19.716c0 1.406 1.14 2.546 2.546 2.546h11.249v9.311c0 1.403 1.137 2.544 2.544 2.544s2.549-1.141 2.549-2.544v-0.619c0-3.137 1.077-8.254 3.582-9.821v-0.003c1.005-0.666 1.668-1.807 1.668-3.1v-12.573c0-0.249-0.026-0.493-0.078-0.729-0.306-1.488-1.541-2.637-3.075-2.817-0.14-0.016-0.28-0.027-0.422-0.027h-12.819c-1.409 0-2.549 1.141-2.549 2.546 0 1.409 1.14 2.55 2.549 2.55h-1.736c-1.406 0-2.546 1.137-2.546 2.546 0 1.408 1.14 2.549 2.546 2.549h-2.484c-1.406 0-2.549 1.137-2.549 2.549 0 1.403 1.142 2.546 2.549 2.546h-0.979c-1.406 0-2.546 1.138-2.546 2.546z"></path>
</svg>
