<?xml version="1.0" encoding="utf-8"?>
<!-- Generated by IcoMoon.io -->
<!DOCTYPE svg PUBLIC "-//W3C//DTD SVG 1.1//EN" "http://www.w3.org/Graphics/SVG/1.1/DTD/svg11.dtd">
<svg version="1.1" xmlns="http://www.w3.org/2000/svg" xmlns:xlink="http://www.w3.org/1999/xlink" width="36" height="36" viewBox="0 0 36 36">
<path fill="#444" d="M7.297 15.359c0.873 0 1.577 0.708 1.577 1.577v12.924c0 0.87-0.704 1.576-1.577 1.576h-5.092c-0.873 0-1.577-0.706-1.577-1.576v-12.924c0-0.869 0.705-1.577 1.577-1.577h5.092z"></path>
<path fill="#444" d="M35.373 16.286c0-1.409-1.142-2.546-2.546-2.546h-11.248v-9.31c0-1.402-1.14-2.546-2.543-2.546-1.409 0-2.549 1.144-2.549 2.546v0.618c0 3.138-1.080 8.254-3.585 9.821v0.003c-1.005 0.666-1.668 1.804-1.668 3.1v12.569c0 0.251 0.026 0.496 0.078 0.732 0.308 1.488 1.544 2.637 3.074 2.814 0.14 0.018 13.24 0.029 13.24 0.029 1.409 0 2.549-1.14 2.549-2.546 0-1.408-1.14-2.549-2.549-2.549h1.733c1.406 0 2.546-1.141 2.546-2.549 0-1.406-1.14-2.546-2.546-2.546h2.489c1.404 0 2.549-1.141 2.549-2.549 0-1.406-1.145-2.546-2.549-2.546h0.979c1.404 0 2.546-1.138 2.546-2.546z"></path>
</svg>
