<?xml version="1.0" encoding="utf-8"?>
<!-- Generated by IcoMoon.io -->
<!DOCTYPE svg PUBLIC "-//W3C//DTD SVG 1.1//EN" "http://www.w3.org/Graphics/SVG/1.1/DTD/svg11.dtd">
<svg version="1.1" xmlns="http://www.w3.org/2000/svg" xmlns:xlink="http://www.w3.org/1999/xlink" width="36" height="36" viewBox="0 0 36 36">
<path fill="#444" d="M32.613 18c0-1.534 1.234-2.772 2.759-2.772v-4.11c0-1.43-1.158-2.593-2.582-2.593h-17.591c0 0.004 0.004 0.013 0.004 0.017 0 0.835-0.674 1.509-1.502 1.509-0.83 0-1.502-0.674-1.502-1.509 0-0.004 0.004-0.013 0.004-0.017h-8.997c-1.424 0-2.58 1.162-2.58 2.593v4.11c1.523 0 2.757 1.238 2.757 2.772 0 1.53-1.234 2.772-2.757 2.772v4.11c0 1.433 1.156 2.592 2.58 2.592h8.997c0-0.008-0.004-0.017-0.004-0.025 0-0.832 0.672-1.504 1.502-1.504 0.828 0 1.502 0.672 1.502 1.504 0 0.009-0.004 0.017-0.004 0.025h17.591c1.424 0 2.582-1.16 2.582-2.592v-4.11c-1.526 0-2.759-1.242-2.759-2.772zM13.702 24.233c-0.83 0-1.502-0.676-1.502-1.509 0-0.837 0.672-1.509 1.502-1.509 0.828 0 1.502 0.672 1.502 1.509 0 0.832-0.674 1.509-1.502 1.509zM13.702 19.504c-0.83 0-1.502-0.674-1.502-1.509s0.672-1.507 1.502-1.507c0.828 0 1.502 0.672 1.502 1.507s-0.674 1.509-1.502 1.509zM13.702 14.78c-0.83 0-1.502-0.676-1.502-1.511 0-0.832 0.672-1.507 1.502-1.507 0.828 0 1.502 0.674 1.502 1.507 0 0.835-0.674 1.511-1.502 1.511z"></path>
</svg>
