<?xml version="1.0" encoding="utf-8"?>
<!-- Generated by IcoMoon.io -->
<!DOCTYPE svg PUBLIC "-//W3C//DTD SVG 1.1//EN" "http://www.w3.org/Graphics/SVG/1.1/DTD/svg11.dtd">
<svg version="1.1" xmlns="http://www.w3.org/2000/svg" xmlns:xlink="http://www.w3.org/1999/xlink" width="36" height="36" viewBox="0 0 36 36">
<path fill="#444" d="M12.558 8.998l-2.568-7.15c0 0-0.405-1.051-1.822-1.044l-1.947 0.265c0 0-6.407 0.831-5.585 8.599 0 0 2.977 18.644 23.705 24.948 0 0 8.241 2.778 10.52-3.833 0 0 0.27-1.29 0.558-2.856 0 0 0.228-0.826-0.847-1.545l-6.371-3.653c0 0-1.081-0.812-1.987 0.066 0 0-1.39 1.129-2.816 2.813l-0.615 0.801c0 0-0.36 0.454-1.328 0.104 0 0-6.239-2.003-11.916-11.452 0 0-0.497-0.718 0.487-1.677 0 0 1.068-0.857 2.343-2.287 0 0 0.706-0.553 0.308-1.695l-0.117-0.404z"></path>
<path fill="#444" d="M21.422 10.535c0.094 0 0.18-0.017 0.258-0.045 0.078-0.031 0.146-0.074 0.198-0.125 0.056-0.053 0.098-0.115 0.128-0.19 0.031-0.075 0.045-0.154 0.045-0.242 0-0.119-0.025-0.225-0.079-0.319-0.054-0.096-0.127-0.17-0.225-0.225s-0.205-0.080-0.332-0.080c-0.19 0-0.343 0.059-0.456 0.174-0.117 0.117-0.174 0.27-0.174 0.455 0 0.17 0.060 0.313 0.178 0.425 0.118 0.115 0.274 0.172 0.459 0.172z"></path>
<path fill="#444" d="M21.802 11.214c-0.118-0.062-0.25-0.093-0.393-0.093-0.203 0-0.376 0.068-0.515 0.205-0.14 0.136-0.209 0.33-0.209 0.573 0 0.155 0.033 0.295 0.099 0.417 0.066 0.118 0.154 0.211 0.266 0.277 0.112 0.063 0.241 0.098 0.377 0.098s0.269-0.036 0.38-0.1c0.112-0.066 0.199-0.158 0.265-0.282 0.067-0.121 0.098-0.257 0.098-0.417 0-0.158-0.031-0.291-0.098-0.41-0.063-0.116-0.151-0.203-0.271-0.269z"></path>
<path fill="#444" d="M25.809 9.524c-0.104-0.119-0.251-0.179-0.434-0.179-0.264 0-0.45 0.135-0.554 0.401-0.103 0.268-0.155 0.684-0.155 1.241 0 0.381 0.023 0.695 0.066 0.933 0.044 0.241 0.119 0.426 0.225 0.548 0.105 0.124 0.246 0.186 0.425 0.186 0.184 0 0.33-0.065 0.432-0.192 0.105-0.128 0.179-0.315 0.222-0.554 0.041-0.236 0.063-0.555 0.063-0.945 0-0.371-0.023-0.677-0.068-0.906-0.043-0.238-0.115-0.411-0.222-0.533z"></path>
<path fill="#444" d="M29.762 9.524c-0.105-0.121-0.246-0.179-0.435-0.179-0.265 0-0.449 0.135-0.552 0.401-0.103 0.265-0.155 0.683-0.155 1.241 0 0.383 0.021 0.697 0.065 0.933 0.045 0.241 0.119 0.426 0.225 0.549 0.105 0.124 0.248 0.185 0.425 0.185 0.184 0 0.328-0.065 0.435-0.193 0.103-0.127 0.177-0.313 0.217-0.553 0.043-0.238 0.066-0.556 0.066-0.945 0-0.369-0.023-0.674-0.066-0.908-0.045-0.234-0.121-0.411-0.225-0.531z"></path>
<path fill="#444" d="M28.716 3.707l-6.571-0.056c-2.224-0.019-4.049 1.776-4.068 4.001l-0.055 6.57c-0.020 2.225 1.775 4.050 4 4.068l6.57 0.056c2.224 0.020 4.051-1.775 4.069-4l0.056-6.57c0.019-2.226-1.776-4.051-4.001-4.069zM22.823 12.614c-0.124 0.207-0.307 0.37-0.546 0.486-0.235 0.118-0.52 0.177-0.844 0.177-0.333 0-0.625-0.059-0.862-0.177-0.236-0.116-0.418-0.278-0.54-0.485-0.122-0.204-0.182-0.437-0.182-0.692 0-0.436 0.17-0.768 0.506-0.987l0.203-0.133-0.193-0.149c-0.244-0.19-0.368-0.449-0.368-0.768 0-0.202 0.055-0.395 0.165-0.572 0.11-0.18 0.275-0.325 0.486-0.432 0.214-0.106 0.466-0.16 0.75-0.16 0.24 0 0.453 0.031 0.633 0.093 0.184 0.063 0.337 0.152 0.456 0.26 0.121 0.109 0.211 0.235 0.271 0.374 0.060 0.14 0.088 0.289 0.088 0.443 0 0.197-0.051 0.377-0.154 0.533-0.055 0.084-0.124 0.16-0.21 0.228l-0.188 0.15 0.203 0.131c0.060 0.037 0.115 0.081 0.167 0.13 0.112 0.106 0.198 0.234 0.256 0.377 0.057 0.141 0.086 0.302 0.086 0.474-0 0.254-0.062 0.49-0.184 0.696zM26.877 11.878c-0.043 0.239-0.118 0.457-0.226 0.649-0.137 0.24-0.319 0.426-0.534 0.555-0.469 0.277-1.104 0.258-1.557-0.067-0.244-0.173-0.43-0.417-0.551-0.719-0.065-0.171-0.111-0.36-0.14-0.563-0.029-0.198-0.045-0.42-0.045-0.657 0-0.313 0.018-0.583 0.050-0.828 0.031-0.24 0.082-0.454 0.15-0.628 0.119-0.291 0.294-0.516 0.521-0.669 0.228-0.152 0.502-0.229 0.817-0.229 0.208 0 0.399 0.035 0.568 0.102 0.168 0.068 0.32 0.168 0.449 0.297 0.128 0.131 0.238 0.295 0.325 0.485 0.154 0.334 0.232 0.812 0.232 1.419 0 0.325-0.020 0.613-0.060 0.853zM30.829 11.878c-0.041 0.24-0.116 0.459-0.223 0.649-0.139 0.241-0.319 0.426-0.535 0.555-0.473 0.277-1.106 0.257-1.557-0.066-0.244-0.176-0.43-0.419-0.552-0.721-0.062-0.166-0.11-0.356-0.139-0.559-0.029-0.205-0.044-0.426-0.044-0.659 0-0.3 0.018-0.578 0.049-0.827 0.033-0.248 0.081-0.455 0.152-0.629 0.121-0.293 0.295-0.517 0.521-0.669 0.228-0.152 0.5-0.229 0.816-0.229 0.207 0 0.399 0.035 0.568 0.1 0.17 0.070 0.32 0.17 0.448 0.3 0.128 0.131 0.239 0.294 0.326 0.484 0.153 0.333 0.232 0.811 0.232 1.419-0 0.33-0.022 0.617-0.061 0.853z"></path>
</svg>
