<?xml version="1.0" encoding="utf-8"?>
<!-- Generated by IcoMoon.io -->
<!DOCTYPE svg PUBLIC "-//W3C//DTD SVG 1.1//EN" "http://www.w3.org/Graphics/SVG/1.1/DTD/svg11.dtd">
<svg version="1.1" xmlns="http://www.w3.org/2000/svg" xmlns:xlink="http://www.w3.org/1999/xlink" width="36" height="36" viewBox="0 0 36 36">
<path fill="#444" d="M19.185 19.768l-10.419-10.42-0.207-2.114-5.931-4.024-1.904 1.91 4.024 5.926 2.112 0.205 10.422 10.425c-1.487 2.914 0.657 5.059 0.657 5.059s5.059 5.064 7.62 7.623c2.562 2.564 5.778-0.533 5.778-0.533s3.095-3.216 0.536-5.775c-2.562-2.564-7.623-7.628-7.623-7.628s-2.144-2.143-5.064-0.652z"></path>
<path fill="#444" d="M15.303 22.3l-3.72-3.719c-0.027-0.027-0.046-0.056-0.073-0.086l-9.535 9.542c-1.616 1.643-1.611 4.283 0.027 5.915 1.63 1.632 4.269 1.638 5.915 0.022l7.819-7.817c-0.48-1.034-0.757-2.37-0.434-3.857zM4.841 32.417c-0.692 0-1.25-0.566-1.25-1.261s0.557-1.255 1.25-1.261c0.695 0.005 1.253 0.566 1.253 1.261s-0.558 1.261-1.253 1.261z"></path>
<path fill="#444" d="M34.611 6.6c0 0-5.075 5.075-5.953 5.953l-4.458-0.854-0.849-4.458c0.875-0.873 5.953-5.948 5.953-5.948s-4.752-2.5-9.433 2.185c-4.684 4.682 0.035 6.758-3.222 10.018l-0.541 0.539c0.027 0.024 3.696 3.677 3.696 3.677 1.12-0.205 2.804-0.385 4.226 0.474 2.556-1.107 4.393 1.846 8.396-2.155 4.684-4.684 2.185-9.43 2.185-9.43z"></path>
</svg>
