<?xml version="1.0" encoding="utf-8"?>
<!-- Generated by IcoMoon.io -->
<!DOCTYPE svg PUBLIC "-//W3C//DTD SVG 1.1//EN" "http://www.w3.org/Graphics/SVG/1.1/DTD/svg11.dtd">
<svg version="1.1" xmlns="http://www.w3.org/2000/svg" xmlns:xlink="http://www.w3.org/1999/xlink" width="36" height="36" viewBox="0 0 36 36">
<path fill="#444" d="M29.978 8.5l-0.768-0.119-0.137-0.767c-0.516-2.887-3.022-4.984-5.955-4.984-0.999 0-1.955 0.239-2.834 0.707l-0.768 0.409-0.568-0.658c-1.392-1.602-3.405-2.526-5.522-2.526-3.968 0-7.173 3.106-7.299 7.073l-0.024 0.797-0.773 0.217c-2.605 0.727-4.424 3.125-4.424 5.826 0 3.090 2.315 5.677 5.383 6.016l0.359 0.039h3.185c-0.026-0.137-0.043-0.275-0.043-0.415 0-3.269 4.148-4.038 4.148-4.038h15.074c0 0-4.253 1.668-5.133 4.452h5.161c3.339 0 6.058-2.716 6.058-6.055 0-2.998-2.155-5.511-5.118-5.975z"></path>
<path fill="#444" d="M15.528 35.438c0 0 4.14-6.236 2.529-8.514s-5.979-3.717-5.979-5.755c0-2.039 2.515-2.518 2.515-2.518h9.141c0 0-2.687 1.079-3.147 2.878s2.873 2.653 2.644 4.812c-0.23 2.158-7.704 9.098-7.704 9.098z"></path>
</svg>
