<?xml version="1.0" encoding="utf-8"?>
<!-- Generated by IcoMoon.io -->
<!DOCTYPE svg PUBLIC "-//W3C//DTD SVG 1.1//EN" "http://www.w3.org/Graphics/SVG/1.1/DTD/svg11.dtd">
<svg version="1.1" xmlns="http://www.w3.org/2000/svg" xmlns:xlink="http://www.w3.org/1999/xlink" width="36" height="36" viewBox="0 0 36 36">
<path fill="#444" d="M25.515 31.382h-6.286c-0.426 0-0.767 0.343-0.767 0.767v1.379c0 0.426 0.341 0.767 0.767 0.767h6.286c0.424 0 0.767-0.341 0.767-0.767v-1.379c0-0.424-0.343-0.767-0.767-0.767z"></path>
<path fill="#444" d="M27.39 21.982c-0.025-0.039-0.054-0.075-0.083-0.112-0.016-0.021-0.037-0.045-0.056-0.066s-0.056-0.058-0.087-0.083c-0.027-0.025-0.052-0.045-0.083-0.066-0.027-0.021-0.056-0.043-0.089-0.062-0.033-0.021-0.070-0.041-0.107-0.060-0.029-0.014-0.058-0.027-0.089-0.039-0.043-0.021-0.091-0.033-0.138-0.041-0.027-0.010-0.054-0.018-0.079-0.023-0.074-0.014-0.153-0.023-0.234-0.023-0.079 0-0.157 0.008-0.234 0.023-0.025 0.004-0.050 0.012-0.074 0.023-0.050 0.008-0.097 0.021-0.141 0.041-0.033 0.012-0.060 0.025-0.091 0.039-0.033 0.018-0.072 0.039-0.107 0.060-0.031 0.019-0.060 0.042-0.087 0.062-0.031 0.021-0.058 0.041-0.083 0.066-0.031 0.025-0.060 0.054-0.087 0.083-0.021 0.021-0.039 0.046-0.056 0.066-0.031 0.037-0.056 0.072-0.083 0.112-0.006 0.008-0.012 0.021-0.018 0.033-0.112 0.186-0.178 0.399-0.178 0.63v-0.841c0-0.686-0.554-1.24-1.24-1.24-0.684 0-1.24 0.554-1.24 1.24v-1.211c0-0.684-0.554-1.24-1.236-1.24-0.686 0-1.24 0.556-1.24 1.24v-5.762c0-0.682-0.554-1.238-1.24-1.238-0.682 0-1.236 0.556-1.236 1.238v10.758c0 0 0 0.002 0 0.010-0.004 0.029-0.016 0.24-0.025 0.558v0.006c-0.021 0.932 0.017 2.76 0.575 3.644 0.322 0.492 0.876 0.81 1.509 0.81h6.112c0.122 0 0.242-0.012 0.355-0.035 0.725-0.151 1.284-0.75 1.37-1.496 0.008-0.068 0.014-0.134 0.014-0.205v-6.236c0-0.231-0.068-0.444-0.178-0.63-0.006-0.012-0.014-0.025-0.018-0.033z"></path>
<path fill="#444" d="M28.771 5.884c-0.008-0.045-0.025-0.087-0.045-0.126-0.083-0.151-0.236-0.254-0.418-0.254h-23.356c-0.26 0-0.471 0.211-0.471 0.475v15.911c0 0.025 0.002 0.050 0.006 0.074 0.002 0.008 0.002 0.014 0.002 0.021 0.010 0.050 0.029 0.091 0.054 0.132 0.078 0.147 0.231 0.246 0.409 0.246h10.984v-7.532c0-1.643 1.337-2.976 2.976-2.976 1.643 0 2.976 1.333 2.976 2.976v2.825c0.775 0.132 1.451 0.562 1.897 1.17 0.027 0 0.058-0.002 0.083-0.002 0.819 0 1.563 0.333 2.1 0.868 0.124-0.019 0.25-0.027 0.38-0.027 1.005 0 1.893 0.504 2.431 1.271v-14.958c0-0.027-0.002-0.051-0.006-0.078-0.002-0.004-0-0.012-0.002-0.017z"></path>
<path fill="#444" d="M32.652 13.935c0-0.637-0.515-1.153-1.153-1.153-0.641 0-1.157 0.517-1.157 1.153s0.517 1.153 1.157 1.153c0.639 0 1.153-0.517 1.153-1.153z"></path>
<path fill="#444" d="M33 1.705h-30c-1.311 0-2.373 1.062-2.373 2.373v19.712c0 1.309 1.058 2.373 2.373 2.373v0h12.908c0.006-0.256 0.016-0.473 0.027-0.634v-1.265h-12.935c-0.265 0-0.475-0.213-0.475-0.473v-19.712c0-0.261 0.211-0.473 0.475-0.473h29.995c0.265 0 0.478 0.213 0.478 0.478v19.708c0 0.261-0.213 0.473-0.478 0.473h-3.673v1.899h3.673c1.315 0 2.377-1.064 2.377-2.373v-19.712c0-1.311-1.062-2.373-2.373-2.373z"></path>
</svg>
