<?xml version="1.0" encoding="utf-8"?>
<!-- Generated by IcoMoon.io -->
<!DOCTYPE svg PUBLIC "-//W3C//DTD SVG 1.1//EN" "http://www.w3.org/Graphics/SVG/1.1/DTD/svg11.dtd">
<svg version="1.1" xmlns="http://www.w3.org/2000/svg" xmlns:xlink="http://www.w3.org/1999/xlink" width="36" height="36" viewBox="0 0 36 36">
<path fill="#444" d="M24.332 2.712l8.956 8.956v12.665l-8.956 8.956h-12.665l-8.956-8.956v-12.665l8.956-8.956h12.665zM25.194 0.627h-14.391l-10.176 10.176v14.393l10.176 10.176h14.391l10.178-10.176v-14.393l-10.178-10.176z"></path>
<path fill="#444" d="M23.46 4.817h-10.92l-7.723 7.721v10.922l7.723 7.723h10.92l7.723-7.723v-10.922l-7.723-7.721zM28.186 21.543l-5.344 5.288-0.010-0.010c-0.63 0.613-1.484 0.997-2.426 0.997h-4.938c-1.908 0-3.473-1.564-3.473-3.477v-12.572c0-0.692 0.56-1.252 1.252-1.252s1.252 0.559 1.252 1.252v5.356c0 0.17 0.141 0.309 0.313 0.309s0.309-0.139 0.309-0.309v-6.401c0-0.69 0.564-1.252 1.252-1.252 0.696 0 1.256 0.562 1.256 1.252v5.358c0 0.168 0.137 0.309 0.311 0.309 0.17 0 0.311-0.141 0.311-0.309v-6.401c0-0.692 0.56-1.252 1.252-1.252s1.254 0.559 1.254 1.252v6.399l-0.002 0.002c0 0.168 0.141 0.309 0.311 0.309 0.174 0 0.313-0.141 0.313-0.309v-5.358c0-0.69 0.562-1.252 1.254-1.252 0.69 0 1.252 0.562 1.252 1.252v11.556l2.549-2.52c0.491-0.485 1.283-0.481 1.77 0.012 0.487 0.491 0.481 1.285-0.013 1.77z"></path>
</svg>
