<?xml version="1.0" encoding="utf-8"?>
<!-- Generated by IcoMoon.io -->
<!DOCTYPE svg PUBLIC "-//W3C//DTD SVG 1.1//EN" "http://www.w3.org/Graphics/SVG/1.1/DTD/svg11.dtd">
<svg version="1.1" xmlns="http://www.w3.org/2000/svg" xmlns:xlink="http://www.w3.org/1999/xlink" width="36" height="36" viewBox="0 0 36 36">
<path fill="#444" d="M22.858 0.563h-9.713c-1.678 0-3.043 1.367-3.043 3.044v28.789c0 1.677 1.365 3.042 3.043 3.042h9.713c1.678 0 3.042-1.365 3.042-3.042v-28.789c-0-1.677-1.364-3.044-3.042-3.044zM12.41 3.607c0-0.406 0.329-0.734 0.734-0.734h9.713c0.404 0 0.733 0.329 0.733 0.734v28.789c0 0.404-0.329 0.733-0.733 0.733h-9.713c-0.406 0-0.734-0.329-0.734-0.733v-28.789z"></path>
<path fill="#444" d="M18.009 23.673c-2.005 0-3.639 1.624-3.641 3.621-0.002 2.002 1.601 3.636 3.577 3.643h0.016c2.057 0 3.67-1.619 3.672-3.687 0.001-1.936-1.656-3.574-3.624-3.577zM17.962 30.519v0z"></path>
<path fill="#444" d="M18.009 5.094c-2.006 0-3.639 1.624-3.642 3.621-0.002 2.003 1.602 3.637 3.577 3.644h0.016c2.057 0 3.67-1.62 3.672-3.687 0-1.937-1.656-3.574-3.624-3.578zM17.946 10.611c-1.011-0.005-1.832-0.855-1.831-1.895 0.001-0.451 0.161-0.855 0.42-1.177 0.269-0.332 0.645-0.572 1.089-0.66 0.123-0.024 0.252-0.038 0.384-0.038h0.002c1.017 0.001 1.875 0.836 1.873 1.822 0 1.111-0.834 1.948-1.938 1.948z"></path>
<path fill="#444" d="M18.009 14.383c-2.006 0-3.639 1.625-3.642 3.622-0.002 2.002 1.602 3.636 3.577 3.643h0.016c2.057 0 3.67-1.62 3.672-3.688 0-1.936-1.656-3.573-3.624-3.577zM17.946 19.901c-1.011-0.006-1.832-0.855-1.831-1.895 0.001-0.451 0.161-0.855 0.42-1.177 0.269-0.331 0.645-0.572 1.089-0.66 0.123-0.026 0.252-0.038 0.384-0.038h0.002c1.017 0.002 1.875 0.837 1.873 1.822 0 1.11-0.834 1.948-1.938 1.948z"></path>
</svg>
