<?xml version="1.0" encoding="utf-8"?>
<!-- Generated by IcoMoon.io -->
<!DOCTYPE svg PUBLIC "-//W3C//DTD SVG 1.1//EN" "http://www.w3.org/Graphics/SVG/1.1/DTD/svg11.dtd">
<svg version="1.1" xmlns="http://www.w3.org/2000/svg" xmlns:xlink="http://www.w3.org/1999/xlink" width="36" height="36" viewBox="0 0 36 36">
<path fill="#444" d="M28.116 23.903c-1.85 0-3.347 1.5-3.347 3.349 0 0.008 0.002 0.019 0.002 0.029 0.015 1.837 1.508 3.32 3.345 3.32 1.841 0 3.333-1.483 3.349-3.32 0-0.010 0-0.021 0-0.029 0-1.85-1.5-3.349-3.349-3.349z"></path>
<path fill="#444" d="M7.899 23.903c-1.85 0-3.347 1.5-3.347 3.349 0 0.008 0.002 0.019 0.002 0.029 0.015 1.837 1.506 3.32 3.345 3.32s3.333-1.483 3.347-3.32c0-0.010 0.002-0.021 0.002-0.029 0-1.85-1.5-3.349-3.349-3.349z"></path>
<path fill="#444" d="M34.758 25.286v-5.278l-0.556-1.996-0.225-0.808-1.293-4.637-0.056-0.2-0.063-0.221c-0.021-0.092-0.052-0.187-0.092-0.279-0.071-0.175-0.162-0.346-0.273-0.504-0.344-0.496-0.848-0.891-1.31-0.891h-6.905v-3.399c0-0.925-0.75-1.675-1.675-1.675h-19.423c-0.925 0-1.675 0.75-1.675 1.675v18.226c-0.344 0.16-0.585 0.506-0.585 0.912 0 0.556 0.45 1.004 1.004 1.004h1.916c0.021-2.383 1.964-4.316 4.353-4.316 2.387 0 4.328 1.933 4.351 4.316h11.512c0.019-2.383 1.964-4.316 4.351-4.316 2.389 0 4.333 1.933 4.353 4.316h1.9c0.554 0 1.004-0.448 1.004-1.004-0-0.417-0.254-0.773-0.614-0.925zM16.626 12.23v0l-5.307 5.307-1.135-1.137-1.895-1.895c-0.313-0.312-0.315-0.825 0-1.137 0.317-0.312 0.823-0.312 1.137 0 0 0 0 0 0.002 0.002l1.891 1.893 4.17-4.17c0.315-0.312 0.823-0.312 1.137 0 0.312 0.315 0.312 0.825-0 1.137zM30.472 18.050h-4.993v-5.903h5.024l0.069 0.221 0.373 1.216 0.933 3.037 0.152 0.504 0.156 0.508 0.127 0.417h-1.841z"></path>
</svg>
