<?xml version="1.0" encoding="utf-8"?>
<!-- Generated by IcoMoon.io -->
<!DOCTYPE svg PUBLIC "-//W3C//DTD SVG 1.1//EN" "http://www.w3.org/Graphics/SVG/1.1/DTD/svg11.dtd">
<svg version="1.1" xmlns="http://www.w3.org/2000/svg" xmlns:xlink="http://www.w3.org/1999/xlink" width="36" height="36" viewBox="0 0 36 36">
<path fill="#444" d="M26.14 23.739c-1.717 0-3.11 1.39-3.11 3.108 0 0.007 0.004 0.017 0.004 0.026 0.015 1.705 1.398 3.080 3.106 3.080s3.091-1.375 3.106-3.080c0-0.009 0.002-0.018 0.002-0.026 0-1.717-1.392-3.108-3.108-3.108z"></path>
<path fill="#444" d="M7.375 23.739c-1.716 0-3.108 1.39-3.108 3.108 0 0.007 0.002 0.017 0.002 0.026 0.015 1.705 1.401 3.080 3.106 3.080 1.708 0 3.095-1.375 3.108-3.080 0-0.009 0.002-0.018 0.002-0.026 0-1.717-1.39-3.108-3.11-3.108z"></path>
<path fill="#444" d="M32.302 25.021v-4.897l-0.516-1.852-1.409-5.051-0.054-0.187-0.057-0.205c-0.020-0.087-0.048-0.174-0.085-0.261-0.063-0.159-0.15-0.318-0.253-0.466-0.318-0.46-0.786-0.826-1.215-0.826h-6.408v-3.158c0-0.856-0.695-1.551-1.553-1.551h-18.027c-0.858 0-1.555 0.695-1.555 1.551v16.918c-0.318 0.148-0.544 0.47-0.544 0.845 0 0.514 0.42 0.932 0.935 0.932h1.777c0.017-2.211 1.821-4.006 4.038-4.006 2.215 0 4.019 1.795 4.038 4.006h10.684c0.020-2.211 1.825-4.006 4.041-4.006 2.215 0 4.019 1.795 4.038 4.006h1.764c0.514 0 0.93-0.418 0.93-0.932 0-0.386-0.235-0.717-0.569-0.86zM23.692 18.306v-5.478h4.661l1.681 5.478h-6.341z"></path>
<path fill="#444" d="M29.647 6.047c-0.244 0-0.442 0.198-0.442 0.442 0 0.242 0.198 0.438 0.442 0.438 2.672 0 4.846 2.176 4.846 4.847 0 0.242 0.196 0.44 0.44 0.44s0.44-0.198 0.44-0.44c-0-3.158-2.568-5.727-5.726-5.727z"></path>
<path fill="#444" d="M29.647 7.811c-0.244 0-0.442 0.196-0.442 0.44s0.198 0.442 0.442 0.442c1.699 0 3.084 1.381 3.084 3.082 0 0.244 0.198 0.44 0.438 0.44 0.244 0 0.442-0.196 0.442-0.44-0-2.185-1.777-3.964-3.964-3.964z"></path>
<path fill="#444" d="M30.969 11.774c0 0.244 0.196 0.44 0.44 0.44 0.242 0 0.44-0.196 0.44-0.44 0-1.215-0.987-2.204-2.204-2.204-0.244 0-0.438 0.2-0.438 0.442s0.194 0.442 0.438 0.442c0.73 0 1.324 0.592 1.324 1.32z"></path>
</svg>
