<?xml version="1.0" encoding="utf-8"?>
<!-- Generated by IcoMoon.io -->
<!DOCTYPE svg PUBLIC "-//W3C//DTD SVG 1.1//EN" "http://www.w3.org/Graphics/SVG/1.1/DTD/svg11.dtd">
<svg version="1.1" xmlns="http://www.w3.org/2000/svg" xmlns:xlink="http://www.w3.org/1999/xlink" width="36" height="36" viewBox="0 0 36 36">
<path fill="#444" d="M25.672 29.393c0 0.771-0.624 1.395-1.395 1.395h-12.090c-0.771 0-1.395-0.624-1.395-1.395v0c0-0.771 0.624-1.395 1.395-1.395h12.090c0.771 0 1.395 0.624 1.395 1.395v0z"></path>
<path fill="#444" d="M0.563 5.678v19.53h34.875v-19.53h-34.875zM16.032 12.187h-3.38v7.587c0 0.677-0.717 1.228-1.395 1.228s-1.395-0.551-1.395-1.228v-7.587h-2.425c-0.677 0-1.227-0.485-1.227-1.162s0.55-1.162 1.227-1.162h8.594c0.678 0 1.228 0.485 1.228 1.162s-0.549 1.162-1.228 1.162zM30.908 11.494l-4.604 8.717c-0.159 0.3-0.399 0.521-0.669 0.654-0.008 0.004-0.012 0.010-0.020 0.014-0.011 0.007-0.026 0.009-0.037 0.014-0.037 0.016-0.074 0.030-0.111 0.044-0.053 0.018-0.106 0.033-0.161 0.045-0.026 0.005-0.050 0.007-0.076 0.011-0.048 0.006-0.097 0.010-0.146 0.010s-0.097-0.004-0.145-0.010c-0.026-0.004-0.051-0.007-0.075-0.011-0.054-0.011-0.108-0.027-0.161-0.045-0.038-0.013-0.074-0.028-0.112-0.044-0.012-0.006-0.025-0.009-0.037-0.014-0.007-0.004-0.013-0.010-0.020-0.014-0.27-0.133-0.511-0.354-0.669-0.654l-4.605-8.717c-0.363-0.688-0.167-1.504 0.436-1.823s1.387-0.020 1.751 0.668l3.638 6.888 3.639-6.888c0.363-0.688 1.147-0.987 1.75-0.668 0.602 0.319 0.797 1.135 0.434 1.823z"></path>
</svg>
