<?xml version="1.0" encoding="utf-8"?>
<!-- Generated by IcoMoon.io -->
<!DOCTYPE svg PUBLIC "-//W3C//DTD SVG 1.1//EN" "http://www.w3.org/Graphics/SVG/1.1/DTD/svg11.dtd">
<svg version="1.1" xmlns="http://www.w3.org/2000/svg" xmlns:xlink="http://www.w3.org/1999/xlink" width="36" height="36" viewBox="0 0 36 36">
<path fill="#444" d="M34.23 13.826h-7.212c-2.32 2.301-5.689 3.621-9.256 3.621-3.566 0-6.933-1.32-9.254-3.621h-6.736c-0.629 0-1.144 0.511-1.144 1.142v5.14c0 0.625 0.515 1.138 1.144 1.138h0.602c-0.019 0.062-0.031 0.126-0.031 0.19 0 0.406 0.372 0.737 0.83 0.737h1.291c0.455 0 0.83-0.331 0.83-0.737 0-0.064-0.014-0.128-0.033-0.19h26.219c0.039 0.488 0.447 0.873 0.942 0.873h0.952c0.501 0 0.906-0.389 0.946-0.882 0.586-0.046 1.053-0.534 1.053-1.13v-5.14c0-0.631-0.513-1.142-1.142-1.142zM7.343 18.019l-1.258 0.014 0.014 1.26c0.004 0.317-0.248 0.577-0.565 0.581-0.068 0-0.132-0.010-0.192-0.031-0.222-0.079-0.383-0.286-0.387-0.534l-0.017-1.262-1.258 0.017c-0.068 0-0.134-0.008-0.192-0.031-0.223-0.077-0.385-0.286-0.389-0.534-0.002-0.317 0.25-0.577 0.567-0.582l1.26-0.014-0.016-1.258c-0.004-0.317 0.25-0.577 0.565-0.581 0.317 0 0.577 0.25 0.579 0.567l0.017 1.258 1.258-0.015c0.319-0.004 0.577 0.246 0.58 0.565 0.006 0.317-0.248 0.575-0.565 0.579z"></path>
<path fill="#444" d="M25.11 13.954h-14.695c2.012 1.498 4.613 2.34 7.346 2.34 2.736 0 5.339-0.842 7.348-2.34z"></path>
</svg>
