<?xml version="1.0" encoding="utf-8"?>
<!-- Generated by IcoMoon.io -->
<!DOCTYPE svg PUBLIC "-//W3C//DTD SVG 1.1//EN" "http://www.w3.org/Graphics/SVG/1.1/DTD/svg11.dtd">
<svg version="1.1" xmlns="http://www.w3.org/2000/svg" xmlns:xlink="http://www.w3.org/1999/xlink" width="36" height="36" viewBox="0 0 36 36">
<path fill="#444" d="M24.277 27.765h-12.090c-0.771 0-1.395 0.624-1.395 1.395s0.624 1.395 1.395 1.395h12.090c0.771 0 1.395-0.624 1.395-1.395s-0.624-1.395-1.395-1.395z"></path>
<path fill="#444" d="M0.563 5.445v19.53h34.875v-19.53h-34.875zM10.345 19.395h-5.093l1.617-8.37h1.82l-1.315 6.975h3.274l-0.303 1.395zM13.822 19.395h-1.82l1.617-8.37h1.82l-1.617 8.37zM20.079 19.395h-2.111l-1.062-8.37h1.884l0.379 3.975c0.088 0.911 0.152 1.605 0.203 2.535h0.025c0.316-0.93 0.72-1.662 1.138-2.547l1.907-3.963h2.035l-4.397 8.37zM30.848 12.42h-3.211l-0.354 1.86h3.046l-0.303 1.395h-3.021l-0.391 2.325h3.399l-0.291 1.395h-5.232l1.618-8.37h5.043l-0.303 1.395z"></path>
</svg>
