<?xml version="1.0" encoding="utf-8"?>
<!-- Generated by IcoMoon.io -->
<!DOCTYPE svg PUBLIC "-//W3C//DTD SVG 1.1//EN" "http://www.w3.org/Graphics/SVG/1.1/DTD/svg11.dtd">
<svg version="1.1" xmlns="http://www.w3.org/2000/svg" xmlns:xlink="http://www.w3.org/1999/xlink" width="36" height="36" viewBox="0 0 36 36">
<path fill="#444" d="M29.336 16.041v10.267c0 0.677-0.543 1.224-1.211 1.224h-24.794c-0.664 0-1.206-0.547-1.206-1.224v-14.22c0-0.675 0.543-1.224 1.206-1.224h20.681v-1.343h-22.338c-0.578 0-1.047 0.484-1.047 1.085v17.607c0 0.596 0.469 1.081 1.047 1.081h12.345v0.74h-6.401c-0.345 0-0.619 0.287-0.619 0.639s0.274 0.639 0.619 0.639h16.395c0.341 0 0.617-0.287 0.617-0.639s-0.276-0.639-0.617-0.639h-6.579v-0.74h12.352c0.578 0 1.045-0.484 1.045-1.081v-12.173h-1.495z"></path>
<path fill="#444" d="M25.899 16.041c-1.040 0-1.881-0.827-1.881-1.85v-2.018h-20.632v14.051h24.686v-10.184h-2.173z"></path>
<path fill="#444" d="M33.744 4.687h-7.157c-0.901 0-1.628 0.726-1.628 1.625v7.161c0 0.897 0.727 1.623 1.628 1.623h7.157c0.901 0 1.628-0.726 1.628-1.623v-7.161c0-0.899-0.727-1.625-1.628-1.625zM30.309 12.255v0.473c0 0.235-0.193 0.426-0.428 0.426-0.233 0-0.426-0.191-0.426-0.426v-0.457h-0.504c-0.238 0-0.428-0.191-0.428-0.428 0-0.233 0.191-0.424 0.428-0.424h1.011v-0.002h0.007c0.733 0 0.944-0.090 0.944-0.487s-0.218-0.5-0.796-0.572c-1.17-0.146-1.603-0.504-1.603-1.368 0-0.576 0.262-1.417 1.561-1.475v-0.455c0-0.235 0.193-0.426 0.428-0.426s0.426 0.191 0.426 0.426v0.453h0.289c0.24 0 0.428 0.193 0.428 0.428 0 0.233-0.188 0.426-0.428 0.426h-1.007v-0.005c-0.664 0-0.803 0.307-0.803 0.635 0 0.39 0.3 0.439 0.852 0.511 1.029 0.132 1.561 0.455 1.561 1.421-0 0.693-0.357 1.235-1.511 1.325z"></path>
</svg>
