<?xml version="1.0" encoding="utf-8"?>
<!-- Generated by IcoMoon.io -->
<!DOCTYPE svg PUBLIC "-//W3C//DTD SVG 1.1//EN" "http://www.w3.org/Graphics/SVG/1.1/DTD/svg11.dtd">
<svg version="1.1" xmlns="http://www.w3.org/2000/svg" xmlns:xlink="http://www.w3.org/1999/xlink" width="36" height="36" viewBox="0 0 36 36">
<path fill="#444" d="M25.672 29.393c0 0.771-0.624 1.395-1.395 1.395h-12.090c-0.771 0-1.395-0.624-1.395-1.395v0c0-0.771 0.624-1.395 1.395-1.395h12.090c0.771 0 1.395 0.624 1.395 1.395v0z"></path>
<path fill="#444" d="M0.563 5.678v19.53h34.875v-19.53h-34.875zM16.012 7.714c1.109 0 2.008 0.898 2.008 2.007s-0.899 2.008-2.008 2.008c-1.109 0-2.008-0.899-2.008-2.008s0.899-2.007 2.008-2.007zM14.049 21.735l0.007-0.009-6.097 0.009 6.039-8.892 3.074 4.442 4.572-6.731 7.724 11.16-15.318 0.022z"></path>
</svg>
