<?xml version="1.0" encoding="utf-8"?>
<!-- Generated by IcoMoon.io -->
<!DOCTYPE svg PUBLIC "-//W3C//DTD SVG 1.1//EN" "http://www.w3.org/Graphics/SVG/1.1/DTD/svg11.dtd">
<svg version="1.1" xmlns="http://www.w3.org/2000/svg" xmlns:xlink="http://www.w3.org/1999/xlink" width="36" height="36" viewBox="0 0 36 36">
<path fill="#444" d="M29.341 16.046v10.266c0 0.677-0.542 1.226-1.208 1.226h-24.798c-0.668 0-1.211-0.549-1.211-1.226v-14.222c0-0.673 0.542-1.224 1.211-1.224h20.685v-1.341h-22.346c-0.578 0-1.046 0.484-1.046 1.082v17.61c0 0.598 0.468 1.082 1.046 1.082h12.347v0.74h-6.403c-0.342 0-0.616 0.286-0.616 0.641 0 0.351 0.274 0.634 0.616 0.634h16.397c0.342 0 0.619-0.283 0.619-0.634 0-0.356-0.277-0.641-0.619-0.641h-6.579v-0.74h12.352c0.58 0 1.048-0.484 1.048-1.082v-12.172h-1.496z"></path>
<path fill="#444" d="M25.901 16.046c-1.040 0-1.883-0.826-1.883-1.849v-2.023h-20.629v14.055h24.69v-10.183h-2.178z"></path>
<path fill="#444" d="M33.748 4.684h-7.164c-0.895 0-1.624 0.729-1.624 1.629v7.157c0 0.902 0.729 1.629 1.624 1.629h7.164c0.895 0 1.624-0.727 1.624-1.629v-7.157c0-0.9-0.729-1.629-1.624-1.629zM32.848 10.171h-0.958v2.128c0 0.468-0.385 0.855-0.857 0.855h-1.732c-0.47 0-0.857-0.387-0.857-0.855v-2.128h-0.958c-0.47 0-0.596-0.283-0.281-0.635l2.389-2.644c0.317-0.349 0.83-0.349 1.15 0l2.387 2.644c0.315 0.351 0.189 0.635-0.281 0.635z"></path>
</svg>
