<?xml version="1.0" encoding="utf-8"?>
<!-- Generated by IcoMoon.io -->
<!DOCTYPE svg PUBLIC "-//W3C//DTD SVG 1.1//EN" "http://www.w3.org/Graphics/SVG/1.1/DTD/svg11.dtd">
<svg version="1.1" xmlns="http://www.w3.org/2000/svg" xmlns:xlink="http://www.w3.org/1999/xlink" width="36" height="36" viewBox="0 0 36 36">
<path fill="#444" d="M18 0.611c-9.603 0-17.389 7.785-17.389 17.389s7.786 17.389 17.389 17.389c9.605 0 17.389-7.786 17.389-17.389s-7.784-17.389-17.389-17.389zM27.788 12.833c-0.297 0.325-0.627 0.624-0.982 0.885-0.167 0.118-0.221 0.254-0.217 0.453 0.050 1.979-0.405 3.85-1.318 5.593-1.69 3.232-4.301 5.307-7.899 6.031-2.976 0.601-5.818 0.173-8.463-1.373-0.097-0.054-0.188-0.116-0.339-0.212 0.446 0 0.819 0.003 1.189 0 1.688-0.014 3.205-0.557 4.584-1.507 0.057-0.039 0.155-0.067 0.12-0.158-0.024-0.070-0.115-0.041-0.175-0.048-1.629-0.224-2.766-1.092-3.415-2.598-0.091-0.217-0.067-0.237 0.158-0.222 0.469 0.033 0.939 0.060 1.401-0.085-0.5-0.175-0.983-0.374-1.396-0.696-1.006-0.783-1.608-1.79-1.669-3.086-0.014-0.271 0.021-0.289 0.273-0.167 0.448 0.216 0.919 0.323 1.421 0.352-0.284-0.274-0.573-0.531-0.818-0.835-0.961-1.199-1.135-3.035-0.407-4.393 0.089-0.168 0.149-0.178 0.272-0.034 0.714 0.851 1.542 1.577 2.47 2.185 1.622 1.062 3.398 1.693 5.333 1.877 0.458 0.043 0.466 0.041 0.432-0.42-0.084-1.093 0.143-2.102 0.842-2.966 0.797-0.986 1.828-1.528 3.11-1.579 1.169-0.046 2.161 0.357 3.019 1.128 0.125 0.114 0.235 0.138 0.394 0.099 0.735-0.178 1.436-0.437 2.103-0.795 0.064-0.035 0.147-0.128 0.216-0.056 0.058 0.061-0.014 0.153-0.046 0.226-0.274 0.652-0.676 1.211-1.233 1.65-0.083 0.065-0.163 0.133-0.237 0.225 0.721-0.044 1.396-0.29 2.124-0.559-0.259 0.438-0.552 0.764-0.846 1.086z"></path>
</svg>
