<?xml version="1.0" encoding="utf-8"?>
<!-- Generated by IcoMoon.io -->
<!DOCTYPE svg PUBLIC "-//W3C//DTD SVG 1.1//EN" "http://www.w3.org/Graphics/SVG/1.1/DTD/svg11.dtd">
<svg version="1.1" xmlns="http://www.w3.org/2000/svg" xmlns:xlink="http://www.w3.org/1999/xlink" width="36" height="36" viewBox="0 0 36 36">
<path fill="#444" d="M9.918 13.521c-0.431 0-0.768 0.188-1.060 0.594-0.321 0.433-0.479 1.008-0.479 1.701 0 0.716 0.146 1.293 0.433 1.705 0.254 0.369 0.604 0.541 1.097 0.541 0.439 0 0.797-0.085 1.097-0.262 0.262-0.154 0.466-0.342 0.621-0.583v-1.42c0-0.764-0.158-1.349-0.473-1.737-0.298-0.365-0.702-0.539-1.237-0.539z"></path>
<path fill="#444" d="M18.001 0.627c-9.61 0-17.423 7.794-17.423 17.373 0 9.577 7.813 17.373 17.423 17.373 9.606 0 17.421-7.796 17.421-17.373 0-9.578-7.815-17.373-17.421-17.373zM14.746 19.878c0 1.639-0.491 2.948-1.462 3.902-0.975 0.947-2.228 1.433-3.725 1.433-0.491 0-0.997-0.052-1.505-0.154-0.521-0.104-1.008-0.258-1.449-0.458l-0.346-0.152 0.546-2.597 0.529 0.237c0.362 0.158 0.712 0.275 1.041 0.337 0.337 0.071 0.733 0.104 1.185 0.104 0.619 0 1.102-0.208 1.485-0.641 0.358-0.408 0.554-0.999 0.581-1.762-0.119 0.081-0.244 0.154-0.371 0.216-0.468 0.233-0.993 0.354-1.551 0.354-1.37 0-2.47-0.446-3.265-1.333-0.777-0.873-1.17-2.066-1.17-3.552 0-1.424 0.437-2.622 1.301-3.557 0.877-0.943 1.993-1.424 3.313-1.424 1.437 0 2.62 0.481 3.519 1.43 0.893 0.939 1.345 2.255 1.345 3.913v3.702zM22.128 25.022h-3.119v-11.051h-2.774v-2.63l5.893-0.554v14.235zM27.615 25.022v-11.051h-2.769v-2.63l5.889-0.554v14.235h-3.119z"></path>
</svg>
