<?xml version="1.0" encoding="utf-8"?>
<!-- Generated by IcoMoon.io -->
<!DOCTYPE svg PUBLIC "-//W3C//DTD SVG 1.1//EN" "http://www.w3.org/Graphics/SVG/1.1/DTD/svg11.dtd">
<svg version="1.1" xmlns="http://www.w3.org/2000/svg" xmlns:xlink="http://www.w3.org/1999/xlink" width="36" height="36" viewBox="0 0 36 36">
<path fill="#444" d="M24.054 15.503h-11.763c0-2.149-0.233-4.286 0.055-6.353 0.411-2.947 3.273-4.871 6.379-4.643 2.787 0.201 5.197 2.667 5.316 5.538 0.030 0.742 0.038-0.089 0.036 0.657l3.644 0.004c-0.015-0.297 0.002-0.997-0.299-2.48-0.969-4.792-5.289-7.89-10.249-7.576-4.518 0.287-8.396 4.062-8.795 8.738-0.17 1.997-0.029 4.022-0.029 6.168-0.918 0-1.663-0.004-2.405 0.002-1.073 0.006-1.433 0.367-1.433 1.445-0.002 5.655-0.002 11.314 0 16.971 0 1.053 0.338 1.397 1.374 1.399 8.084 0.002 16.169 0.002 24.253-0.002 0.994 0 1.346-0.348 1.348-1.346 0.002-5.705 0.005-11.416-0.002-17.123 0-0.965-0.385-1.335-1.378-1.344-0.765-0.008-1.533-0.002-2.366-0.002z"></path>
</svg>
