<?xml version="1.0" encoding="utf-8"?>
<!-- Generated by IcoMoon.io -->
<!DOCTYPE svg PUBLIC "-//W3C//DTD SVG 1.1//EN" "http://www.w3.org/Graphics/SVG/1.1/DTD/svg11.dtd">
<svg version="1.1" xmlns="http://www.w3.org/2000/svg" xmlns:xlink="http://www.w3.org/1999/xlink" width="36" height="36" viewBox="0 0 36 36">
<path fill="#444" d="M18 35.205c9.503 0 17.205-7.702 17.205-17.205 0-9.501-7.703-17.205-17.205-17.205s-17.205 7.704-17.205 17.205c0 9.503 7.702 17.205 17.205 17.205zM9.477 16.056l6.72-7.812c0.991-1.144 2.612-1.169 3.603-0.024l6.719 7.849c0.993 1.145 0.563 2.164-0.95 2.164h-3.617v7.678c0 1.513-1.032 3.017-2.546 3.017h-2.753c-1.514 0-2.606-1.504-2.606-3.017v-7.678h-3.619c-1.514 0-1.943-1.031-0.952-2.176z"></path>
</svg>
