<?xml version="1.0" encoding="utf-8"?>
<!-- Generated by IcoMoon.io -->
<!DOCTYPE svg PUBLIC "-//W3C//DTD SVG 1.1//EN" "http://www.w3.org/Graphics/SVG/1.1/DTD/svg11.dtd">
<svg version="1.1" xmlns="http://www.w3.org/2000/svg" xmlns:xlink="http://www.w3.org/1999/xlink" width="36" height="36" viewBox="0 0 36 36">
<path fill="#444" d="M20.225 9.102c-0.169-0.036-0.362 0.006-0.546 0.019-7.807 0.283-15.39-2.149-15.462-2.174-0.239-0.080-0.503 0.006-0.654 0.212-3.401 4.691-3.372 7.824-2.284 11.087 0.941 2.826 3.598 4.235 5.182 5.081 0.199 0.104 0.379 0.201 0.535 0.29 0.823 0.463 1.65 0.518 2.202 0.518 0.283 0 0.556-0.017 0.81-0.034 0.3-0.019 0.577-0.040 0.789-0.011 0.3 0.061 1.157 1.017 1.798 2.003 0.159 0.243 0.472 0.334 0.736 0.212 0.114-0.053 0.503-0.203 0.795-0.203 0.055 0 0.085 0.004 0.091 0.004 0.226 0.093 0.926 0.897 1.783 2.394 0.114 0.199 0.328 0.33 0.558 0.309 0.231-0.023 0.569 0.066 0.984-0.406 0.171-0.292 0.899-1.096 1.489-1.498 0.317-0.216 0.601-0.406 0.787-0.548 0.231-0.171 0.641-0.269 1.157-0.269 0.489 0 0.666-0.006 1.189 0.15 0.298 0.091 0.981 0.049 1.087-0.239 0.091-0.148 0.842-0.8 1.878-0.857 1.231 0.011 1.682 0.175 2.056 0.489 0.372 0.309 1.244 2.942 2.274 3.355 0.165 0.063 0.328 0.097 0.487 0.097 0.362 0 0.69-0.169 0.922-0.482 0.385-0.516 0.453-1.369 0.296-1.893-0.112-0.374-0.393-0.909-0.751-1.588-0.233-0.436-0.493-0.929-0.706-1.39 0.506-2.246 2.599-3.484 2.623-3.507 0.173-0.15 0.501-0.74 0.4-1.407-0.002-0.013-0.381-1.265-0.381-2.151 0-0.702 0.988-2.57 2.2-4.169 1.248-1.641 0.776-2.915 0.522-3.6l-0.032-0.085c-0.163-0.448-0.569-0.728-1.062-0.728-0.635 0-0.965 0.702-1.57 1.398-0.167 0.192-0.44 0.436-0.878 0.725-0.398 0.262-0.643 0.506-1.104 1.117-0.63 0.844-2.363 2.912-2.748 2.331-0.628-0.918-1.248-1.904-1.324-2.189-0.262-0.958-1.633-1.087-2.456-1.161l-0.19-0.019c-0.135-0.015-0.279-0.021-0.421-0.025-1.447-0.29-1.034-0.755-3.063-1.159z"></path>
</svg>
