<?xml version="1.0" encoding="utf-8"?>
<!-- Generated by IcoMoon.io -->
<!DOCTYPE svg PUBLIC "-//W3C//DTD SVG 1.1//EN" "http://www.w3.org/Graphics/SVG/1.1/DTD/svg11.dtd">
<svg version="1.1" xmlns="http://www.w3.org/2000/svg" xmlns:xlink="http://www.w3.org/1999/xlink" width="36" height="36" viewBox="0 0 36 36">
<path fill="#444" d="M25.951 0.627h-15.905c-1.151 0-2.091 0.942-2.091 2.096v28.673c0 1.149 0.94 2.091 2.091 2.091h0.419v0.628c0 0.692 0.56 1.257 1.255 1.257h12.557c0.694 0 1.257-0.564 1.257-1.257v-0.628h0.417c1.153 0 2.096-0.942 2.096-2.091v-28.673c0-1.153-0.942-2.096-2.096-2.096zM25.533 4.186v5.233h-6.907v-6.279h5.861c0.574 0 1.046 0.471 1.046 1.046zM17.37 24.487h-6.905v-6.279h6.905v6.279zM10.465 10.676h6.905v6.279h-6.905v-6.279zM18.626 18.209h6.909v6.279h-6.909v-6.279zM18.626 10.676h6.909v6.279h-6.909v-6.279zM11.511 3.14h5.859v6.279h-6.905v-5.233c0-0.575 0.473-1.046 1.046-1.046zM24.487 30.977h-12.977c-0.572 0-1.046-0.473-1.046-1.046v-2.933h15.068v2.933c-0 0.573-0.471 1.046-1.046 1.046z"></path>
<path fill="#444" d="M16.646 28.195l-3.331-0.775c-0.068-0.012-0.136 0.027-0.153 0.091l-0.467 1.916c-0.016 0.066 0.025 0.134 0.093 0.149l3.336 0.775c0.068 0.014 0.134-0.029 0.151-0.095l0.467-1.912c0.014-0.066-0.029-0.135-0.095-0.149z"></path>
</svg>
