<?xml version="1.0" encoding="utf-8"?>
<!-- Generated by IcoMoon.io -->
<!DOCTYPE svg PUBLIC "-//W3C//DTD SVG 1.1//EN" "http://www.w3.org/Graphics/SVG/1.1/DTD/svg11.dtd">
<svg version="1.1" xmlns="http://www.w3.org/2000/svg" xmlns:xlink="http://www.w3.org/1999/xlink" width="36" height="36" viewBox="0 0 36 36">
<path fill="#444" d="M2.655 11.91c0-0.874 0.691-1.584 1.546-1.584h17.845v-0.509c0-0.874-0.692-1.584-1.546-1.584h-18.391c-0.854 0-1.546 0.71-1.546 1.584v12.18c0 0.873 0.692 1.582 1.546 1.582h0.547v-11.67z"></path>
<path fill="#444" d="M35.437 14.373c0 0 0.036-0.906-0.389-1.167-0.51-0.315-1.011-0.161-1.518 0.16l-4.676 2.589c-0.486 0.307-0.781 0.853-0.781 1.441v5.394c0 0.587 0.295 1.133 0.781 1.441l4.676 2.59c0.507 0.32 1.008 0.472 1.518 0.159 0.425-0.261 0.389-1.167 0.389-1.167v-11.438z"></path>
<path fill="#444" d="M24.685 12.419h-18.391c-0.855 0-1.546 0.71-1.546 1.584v12.18c0 0.874 0.691 1.582 1.546 1.582h18.391c0.854 0 1.546-0.709 1.546-1.582v-12.18c-0-0.874-0.692-1.584-1.546-1.584zM15.489 25.617c-3.050 0-5.524-2.474-5.524-5.524s2.474-5.525 5.524-5.525c3.051 0 5.524 2.474 5.524 5.525s-2.473 5.524-5.524 5.524z"></path>
<path fill="#444" d="M18.032 19.837l-3.679-2.455c-0.095-0.063-0.217-0.069-0.318-0.015s-0.163 0.158-0.163 0.272v4.906c0 0.114 0.063 0.219 0.163 0.273 0.046 0.024 0.096 0.037 0.146 0.037 0.060 0 0.12-0.018 0.172-0.053l3.679-2.452c0.085-0.057 0.137-0.153 0.137-0.256s-0.052-0.2-0.137-0.257z"></path>
</svg>
