<?xml version="1.0" encoding="utf-8"?>
<!-- Generated by IcoMoon.io -->
<!DOCTYPE svg PUBLIC "-//W3C//DTD SVG 1.1//EN" "http://www.w3.org/Graphics/SVG/1.1/DTD/svg11.dtd">
<svg version="1.1" xmlns="http://www.w3.org/2000/svg" xmlns:xlink="http://www.w3.org/1999/xlink" width="36" height="36" viewBox="0 0 36 36">
<path fill="#444" d="M27.758 10.383c-4.206 0-7.615 3.411-7.615 7.617 0 1.595 0.491 3.079 1.332 4.304h-6.95c0.843-1.225 1.335-2.708 1.335-4.304 0-4.206-3.409-7.617-7.617-7.617-4.204 0-7.615 3.411-7.615 7.617 0 4.204 3.411 7.617 7.615 7.617h19.515c4.206 0 7.615-3.413 7.615-7.617 0-4.206-3.409-7.617-7.615-7.617zM3.937 18c0-2.379 1.929-4.304 4.306-4.304 2.379 0 4.308 1.925 4.308 4.304s-1.929 4.304-4.308 4.304c-2.377 0-4.306-1.925-4.306-4.304zM27.758 22.304c-2.379 0-4.306-1.925-4.306-4.304s1.927-4.304 4.306-4.304c2.377 0 4.306 1.925 4.306 4.304s-1.929 4.304-4.306 4.304z"></path>
</svg>
