<?xml version="1.0" encoding="utf-8"?>
<!-- Generated by IcoMoon.io -->
<!DOCTYPE svg PUBLIC "-//W3C//DTD SVG 1.1//EN" "http://www.w3.org/Graphics/SVG/1.1/DTD/svg11.dtd">
<svg version="1.1" xmlns="http://www.w3.org/2000/svg" xmlns:xlink="http://www.w3.org/1999/xlink" width="36" height="36" viewBox="0 0 36 36">
<path fill="#444" d="M11.273 12.981c-1.426 0-2.585 1.16-2.585 2.583 0 1.428 1.159 2.588 2.585 2.588s2.587-1.161 2.587-2.588c0-1.423-1.162-2.583-2.587-2.583z"></path>
<path fill="#444" d="M24.894 13.119c-1.423 0-2.585 1.159-2.585 2.586 0 1.425 1.162 2.584 2.585 2.584 1.428 0 2.588-1.159 2.588-2.584 0-1.427-1.16-2.586-2.588-2.586z"></path>
<path fill="#444" d="M33.158 3.353h-30.314c-1.908 0-2.282 1.662-2.282 2.406v18.767c0 0.741 0.427 2.077 2.282 2.077h19.192l-0.223 5.716 6.611-5.716h4.733c1.933 0 2.279-1.336 2.279-2.077v-18.767c0-1.908-1.536-2.406-2.279-2.406zM24.859 20.557h-13.687c-2.729 0-4.95-2.171-4.95-4.9s2.221-4.925 4.95-4.925 4.947 2.154 4.947 4.884c0 0.987-0.292 2.15-0.794 2.615h5.382c-0.501-0.465-0.796-1.616-0.796-2.604 0-2.729 2.219-4.91 4.948-4.91 2.727 0 4.95 2.191 4.95 4.921 0 2.729-2.223 4.919-4.95 4.919z"></path>
</svg>
