<?xml version="1.0" encoding="utf-8"?>
<!-- Generated by IcoMoon.io -->
<!DOCTYPE svg PUBLIC "-//W3C//DTD SVG 1.1//EN" "http://www.w3.org/Graphics/SVG/1.1/DTD/svg11.dtd">
<svg version="1.1" xmlns="http://www.w3.org/2000/svg" xmlns:xlink="http://www.w3.org/1999/xlink" width="36" height="36" viewBox="0 0 36 36">
<path fill="#444" d="M35.438 34.811l-13.477-15.532c-0.654 0.417-2.181 0.709-3.962 0.709-1.486 0-2.795-0.204-3.567-0.513l-13.87 15.336h34.875z"></path>
<path fill="#444" d="M16.474 16.666c-0.575-0.878-1.033-2.146-0.714-3.632 0.558-2.597 2.080-4.119 2.084-4.122 0.004 0.003 1.525 1.525 2.084 4.122 0.341 1.592-0.208 2.931-0.836 3.811 2.118-0.234 5.451-3.202 4.924-6.676-0.458-3.029-2.343-3.792-2.343-3.792s0.381 1.504-0.237 2.177c-0.569 0.618-1.287 0.598-1.287 0.598 0.676-0.678 1.101-3.050 0-5.082-1.102-2.034-3.389-2.881-3.389-2.881 0.572 1.462 0.255 2.627 0.255 2.627-1.061 2.817-3.876 3.728-4.888 6.557-0.518 1.446 0.001 3.241 1.372 4.753 0.74 0.815 1.8 1.298 2.976 1.541z"></path>
</svg>
