<?xml version="1.0" encoding="utf-8"?>
<!-- Generated by IcoMoon.io -->
<!DOCTYPE svg PUBLIC "-//W3C//DTD SVG 1.1//EN" "http://www.w3.org/Graphics/SVG/1.1/DTD/svg11.dtd">
<svg version="1.1" xmlns="http://www.w3.org/2000/svg" xmlns:xlink="http://www.w3.org/1999/xlink" width="36" height="36" viewBox="0 0 36 36">
<path fill="#444" d="M5.678 13.336v-0.794c0-0.464-0.62-0.355-1.038-0.355h-3.777c-0.421 0-0.3-0.109-0.3 0.355v10.915c0 0.465-0.121 0.82 0.3 0.82h3.777c0.418 0 1.038-0.355 1.038-0.82v-0.792l11.114 9.891c0.384 0.385 0.976 0.577 1.441 0.577v-30.267c-0.465 0-1.057 0.192-1.441 0.578l-11.114 9.891z"></path>
<path fill="#444" d="M29.712 4.215c-0.715-0.714-1.869-0.714-2.584 0-0.713 0.713-0.713 1.87 0 2.584 2.992 2.993 4.64 6.971 4.64 11.201 0 4.233-1.648 8.209-4.638 11.2-0.713 0.715-0.713 1.872 0.002 2.585 0.355 0.357 0.823 0.535 1.289 0.535 0.47 0 0.937-0.179 1.295-0.536 3.68-3.683 5.708-8.577 5.708-13.784s-2.028-10.102-5.711-13.785z"></path>
<path fill="#444" d="M24.348 10.703c-0.771-0.767-2.016-0.767-2.783 0-0.767 0.769-0.767 2.015 0 2.783 1.208 1.207 1.873 2.809 1.873 4.515 0 1.703-0.665 3.307-1.873 4.513-0.767 0.77-0.765 2.016 0.002 2.783 0.386 0.383 0.888 0.575 1.39 0.575 0.505 0 1.009-0.192 1.394-0.577 1.947-1.949 3.019-4.542 3.019-7.294 0-2.755-1.072-5.347-3.022-7.297z"></path>
</svg>
