<?xml version="1.0" encoding="utf-8"?>
<!-- Generated by IcoMoon.io -->
<!DOCTYPE svg PUBLIC "-//W3C//DTD SVG 1.1//EN" "http://www.w3.org/Graphics/SVG/1.1/DTD/svg11.dtd">
<svg version="1.1" xmlns="http://www.w3.org/2000/svg" xmlns:xlink="http://www.w3.org/1999/xlink" width="36" height="36" viewBox="0 0 36 36">
<path fill="#444" d="M34.356 7.306h-32.712c-0.562 0-1.017 0.455-1.017 1.017v19.354c0 0.562 0.455 1.017 1.017 1.017h32.712c0.56 0 1.017-0.455 1.017-1.017v-19.354c0-0.562-0.457-1.017-1.017-1.017zM11.721 22.256v0.94c0 0.467-0.368 0.847-0.835 0.847-0.471 0-0.835-0.38-0.835-0.847v-0.881h-1.116c-0.469 0-0.849-0.366-0.849-0.835s0.38-0.837 0.849-0.837h2.031c1.445 0 1.853-0.206 1.853-0.994 0-0.786-0.449-1.017-1.593-1.156-2.326-0.293-3.218-1.002-3.218-2.72 0-1.14 0.703-2.809 3.042-2.925v-0.907c0-0.469 0.366-0.849 0.835-0.849s0.837 0.38 0.837 0.849v1.019h0.72c0.471 0 0.849 0.368 0.849 0.837s-0.378 0.835-0.849 0.835l-2.055 0.038c-1.336 0.002-1.558 0.469-1.558 1.116 0 0.776 0.637 0.881 1.728 1.019 2.047 0.267 3.123 0.901 3.123 2.822 0 1.378-0.62 2.454-2.959 2.631zM25.263 24.803c0 0.562-0.457 1.019-1.017 1.019h-0.362c-0.562 0-1.017-0.457-1.017-1.019v-13.602c0-0.562 0.455-1.017 1.017-1.017h0.362c0.56 0 1.017 0.455 1.017 1.017v13.602zM28.873 24.803c0 0.562-0.453 1.019-1.015 1.019h-0.36c-0.564 0-1.019-0.457-1.019-1.019v-13.602c0-0.562 0.455-1.017 1.019-1.017h0.36c0.562 0 1.015 0.455 1.015 1.017v13.602zM32.486 24.803c0 0.562-0.457 1.019-1.019 1.019h-0.36c-0.562 0-1.019-0.457-1.019-1.019v-13.602c0-0.562 0.457-1.017 1.019-1.017h0.36c0.562 0 1.019 0.455 1.019 1.017v13.602z"></path>
</svg>
