<?xml version="1.0" encoding="utf-8"?>
<!-- Generated by IcoMoon.io -->
<!DOCTYPE svg PUBLIC "-//W3C//DTD SVG 1.1//EN" "http://www.w3.org/Graphics/SVG/1.1/DTD/svg11.dtd">
<svg version="1.1" xmlns="http://www.w3.org/2000/svg" xmlns:xlink="http://www.w3.org/1999/xlink" width="36" height="36" viewBox="0 0 36 36">
<path fill="#444" d="M22.959 18.755c0-2.582-2.093-5.522-4.675-5.522s-4.675 2.941-4.675 5.522 2.093 5.522 4.675 5.522c2.581 0 4.675-2.941 4.675-5.522z"></path>
<path fill="#444" d="M18.688 7.733c-2.976 0-5.956 0.629-8.562 1.71l-2.362-2.363c-0.523-0.523-1.372-0.523-1.895 0s-0.523 1.372 0 1.895l1.731 1.731c-0.808 0.481-1.553 1.012-2.219 1.584-0.001-0.001-0.002-0.002-0.003-0.003l-2.527-2.526c-0.523-0.523-1.372-0.523-1.895 0s-0.523 1.372 0 1.895l2.527 2.527c0.021 0.021 0.046 0.036 0.067 0.055-1.019 1.379-1.611 2.908-1.611 4.519 0 6.087 8.391 11.022 16.75 11.022s16.75-4.935 16.75-11.022c0-6.088-8.391-11.023-16.75-11.023zM18.688 27.356c-6.891 0-14.328-3.939-14.328-8.601s7.436-8.602 14.328-8.602c6.891 0 14.329 3.939 14.329 8.602s-7.437 8.601-14.329 8.601z"></path>
</svg>
