<?xml version="1.0" encoding="utf-8"?>
<!-- Generated by IcoMoon.io -->
<!DOCTYPE svg PUBLIC "-//W3C//DTD SVG 1.1//EN" "http://www.w3.org/Graphics/SVG/1.1/DTD/svg11.dtd">
<svg version="1.1" xmlns="http://www.w3.org/2000/svg" xmlns:xlink="http://www.w3.org/1999/xlink" width="36" height="36" viewBox="0 0 36 36">
<path fill="#444" d="M30.452 25.164c-0.033-6.854-5.596-12.398-12.454-12.398-6.858-0.002-12.423 5.542-12.45 12.396h12.103v5.987c0 1.175-0.96 2.134-2.14 2.134-1.175 0-2.134-0.958-2.134-2.134 0-0.581-0.468-1.049-1.045-1.049s-1.043 0.468-1.043 1.047c-0.004 2.333 1.891 4.226 4.222 4.226 2.332 0.002 4.228-1.894 4.228-4.224v-5.987l10.714 0.002z"></path>
<path fill="#444" d="M18.844 0.627c0 0-3.773 4.985-3.773 7.072 0 2.082 1.689 3.769 3.771 3.769s3.771-1.685 3.771-3.769c0.004-2.084-3.769-7.072-3.769-7.072zM18.064 8.659c-0.689 0-1.246-0.557-1.246-1.246 0-0.693 1.246-2.353 1.246-2.353s1.254 1.662 1.254 2.355c0 0.687-0.559 1.244-1.254 1.244z"></path>
</svg>
