<?xml version="1.0" encoding="utf-8"?>
<!-- Generated by IcoMoon.io -->
<!DOCTYPE svg PUBLIC "-//W3C//DTD SVG 1.1//EN" "http://www.w3.org/Graphics/SVG/1.1/DTD/svg11.dtd">
<svg version="1.1" xmlns="http://www.w3.org/2000/svg" xmlns:xlink="http://www.w3.org/1999/xlink" width="36" height="36" viewBox="0 0 36 36">
<path fill="#444" d="M20.405 5.459c-0.478 0-0.922-0.304-1.080-0.784l-0.705-2.159c-0.195-0.597 0.13-1.237 0.726-1.433s1.238 0.13 1.433 0.726l0.706 2.159c0.195 0.596-0.13 1.237-0.726 1.433-0.118 0.039-0.237 0.057-0.354 0.057z"></path>
<path fill="#444" d="M32.142 11.352c-0.477 0-0.923-0.304-1.079-0.783-0.195-0.596 0.13-1.237 0.727-1.432l2.159-0.706c0.596-0.196 1.237 0.129 1.432 0.726s-0.129 1.238-0.726 1.433l-2.16 0.706c-0.116 0.038-0.235 0.056-0.352 0.056z"></path>
<path fill="#444" d="M27.493 5.976c-0.173 0-0.348-0.040-0.513-0.124-0.558-0.283-0.784-0.967-0.499-1.526l1.029-2.027c0.283-0.559 0.967-0.783 1.525-0.499 0.56 0.284 0.784 0.967 0.499 1.527l-1.027 2.026c-0.199 0.394-0.6 0.623-1.013 0.623z"></path>
<path fill="#444" d="M15.026 10.107c-0.173 0-0.348-0.040-0.513-0.124l-2.026-1.028c-0.558-0.284-0.782-0.967-0.498-1.526s0.968-0.784 1.527-0.499l2.025 1.028c0.559 0.284 0.784 0.967 0.5 1.527-0.201 0.395-0.599 0.622-1.015 0.622z"></path>
<path fill="#444" d="M33.651 19.47c-0.173 0-0.348-0.039-0.513-0.123l-2.025-1.028c-0.559-0.285-0.783-0.968-0.498-1.527 0.284-0.559 0.967-0.784 1.526-0.499l2.025 1.028c0.559 0.284 0.784 0.968 0.499 1.528-0.2 0.395-0.599 0.622-1.014 0.622z"></path>
<path fill="#444" d="M29.955 22.675l-0.776-0.121-0.139-0.774c-0.522-2.919-3.053-5.039-6.019-5.039-1.011 0-1.976 0.24-2.867 0.715l-0.776 0.412-0.574-0.664c-1.405-1.622-3.441-2.553-5.583-2.553-4.011 0-7.252 3.14-7.38 7.148l-0.026 0.808-0.779 0.218c-2.634 0.736-4.473 3.158-4.473 5.89 0 3.125 2.338 5.807 5.442 6.15l0.363 0.108h22.639c3.376 0 6.123-2.814 6.123-6.19 0-3.031-2.176-5.64-5.173-6.108z"></path>
<path fill="#444" d="M19.89 15.15c0.991-0.403 2.059-0.612 3.13-0.612 2.276 0 4.358 0.92 5.873 2.431 1.153-1.679 1.544-3.854 0.861-5.939-1.166-3.55-4.988-5.482-8.536-4.318-2.821 0.926-4.614 3.531-4.65 6.343 1.231 0.458 2.365 1.167 3.322 2.095z"></path>
</svg>
