<?xml version="1.0" encoding="utf-8"?>
<!-- Generated by IcoMoon.io -->
<!DOCTYPE svg PUBLIC "-//W3C//DTD SVG 1.1//EN" "http://www.w3.org/Graphics/SVG/1.1/DTD/svg11.dtd">
<svg version="1.1" xmlns="http://www.w3.org/2000/svg" xmlns:xlink="http://www.w3.org/1999/xlink" width="36" height="36" viewBox="0 0 36 36">
<path fill="#444" d="M33.005 17.945c-0.66-2.767-2.713-4.799-5.271-4.799h-4.549c0.67-0.997 1.062-2.198 1.062-3.485 0-3.46-2.817-6.275-6.275-6.275-3.462 0-6.277 2.815-6.277 6.275 0 1.287 0.391 2.488 1.062 3.485h-4.298c-2.56 0-4.611 2.032-5.269 4.799l-2.562 14.669h34.745l-2.368-14.669zM14.485 9.661c0-1.927 1.56-3.487 3.487-3.487 1.925 0 3.483 1.561 3.483 3.487s-1.558 3.485-3.483 3.485c-1.927 0-3.487-1.558-3.487-3.485z"></path>
</svg>
