<?xml version="1.0" encoding="utf-8"?>
<!-- Generated by IcoMoon.io -->
<!DOCTYPE svg PUBLIC "-//W3C//DTD SVG 1.1//EN" "http://www.w3.org/Graphics/SVG/1.1/DTD/svg11.dtd">
<svg version="1.1" xmlns="http://www.w3.org/2000/svg" xmlns:xlink="http://www.w3.org/1999/xlink" width="36" height="36" viewBox="0 0 36 36">
<path fill="#444" d="M26.184 20.031c-0.517 0-0.976 0.212-1.292 0.549-0.033 0.034-0.062 0.069-0.091 0.106-0.002 0.004-0.003 0.005-0.008 0.009-0.025 0.035-0.049 0.070-0.075 0.105-0.004 0.007-0.008 0.014-0.011 0.019-0.022 0.034-0.042 0.069-0.064 0.104-0.004 0.010-0.010 0.022-0.015 0.033-0.018 0.033-0.032 0.064-0.047 0.098-0.006 0.015-0.013 0.031-0.019 0.046-0.011 0.030-0.021 0.062-0.031 0.093-0.006 0.020-0.013 0.042-0.019 0.064-0.006 0.027-0.014 0.054-0.019 0.082s-0.011 0.059-0.016 0.088c-0.003 0.020-0.011 0.043-0.013 0.064-0.005 0.052-0.012 0.105-0.012 0.159v1.434h3.458v-1.434c0-0.896-0.772-1.621-1.726-1.621z"></path>
<path fill="#444" d="M31.759 0.563h-27.519c-1.9 0-3.678 1.779-3.678 3.679v27.518c0 1.9 1.778 3.678 3.678 3.678h27.519c1.899 0 3.678-1.778 3.678-3.678v-27.518c0-1.9-1.779-3.679-3.678-3.679zM18.239 27.387h-0.431c-0.983 0-1.706-0.915-1.706-2.029 0-1.586 1.582-2.446 2.785-1.828 0.318 0.158 0.65 0.553 0.84 0.906 0.702 1.316-0.282 2.951-1.488 2.951zM30.090 28.441c0 0.276-0.229 0.516-0.508 0.516h-6.822c-0.278 0-0.517-0.239-0.517-0.516v-4.842c0-0.032 0.008-0.066 0.017-0.098 0.003-0.014 0.010-0.027 0.015-0.041 0.004-0.017 0.010-0.035 0.016-0.051 0.009-0.018 0.020-0.036 0.029-0.054 0.006-0.008 0.009-0.019 0.016-0.027 0.014-0.022 0.030-0.040 0.047-0.060 0.005-0.004 0.007-0.008 0.010-0.012 0.019-0.022 0.042-0.040 0.068-0.058 0 0 0 0 0.001-0.001 0.075-0.055 0.164-0.094 0.262-0.102 0.012 0 0.024-0.008 0.036-0.008h0.529v-0.526c-0.436 0.287-1.019 0.237-1.393-0.15-2.178-2.258-5.7-2.258-7.878 0-0.429 0.445-1.14 0.445-1.57 0-0.432-0.458-0.431-1.182 0.001-1.643 3.033-3.136 7.96-3.143 11-0.021 0.127-0.352 0.326-0.673 0.579-0.944 0.009-0.009 0.024-0.018 0.033-0.029 0.075-0.079 0.159-0.156 0.246-0.226v-0.002c0.174-0.15 0.376-0.279 0.594-0.383 0.036-0.017 0.069-0.034 0.106-0.050-3.912-4.019-10.229-4.008-14.13 0.034-0.437 0.443-1.144 0.443-1.575 0-0.439-0.455-0.439-1.179-0-1.638 4.777-4.949 12.533-4.949 17.31 0 0.372 0.39 0.42 0.97 0.161 1.414 1.316 0.264 2.3 1.388 2.3 2.729v1.434h0.509c0.279 0 0.508 0.235 0.508 0.512v4.842zM29.763 15.878c-0.439 0.447-1.137 0.447-1.576 0-5.652-5.855-14.811-5.855-20.463 0-0.436 0.447-1.138 0.447-1.577 0-0.434-0.447-0.434-1.175 0-1.628 6.521-6.761 17.095-6.761 23.615 0 0.435 0.453 0.435 1.181 0 1.628z"></path>
</svg>
