<?xml version="1.0" encoding="utf-8"?>
<!-- Generated by IcoMoon.io -->
<!DOCTYPE svg PUBLIC "-//W3C//DTD SVG 1.1//EN" "http://www.w3.org/Graphics/SVG/1.1/DTD/svg11.dtd">
<svg version="1.1" xmlns="http://www.w3.org/2000/svg" xmlns:xlink="http://www.w3.org/1999/xlink" width="36" height="36" viewBox="0 0 36 36">
<path fill="#444" d="M31.759 0.563h-27.519c-1.9 0-3.678 1.779-3.678 3.679v27.518c0 1.9 1.778 3.678 3.678 3.678h27.519c1.899 0 3.678-1.778 3.678-3.678v-27.518c0-1.9-1.779-3.679-3.678-3.679zM18.28 27.532c-0.145 0-0.286 0-0.426 0-0.976 0-1.694-0.971-1.694-2.081 0-1.579 1.57-2.449 2.762-1.834 0.315 0.16 0.646 0.588 0.836 0.937 0.693 1.313-0.282 2.977-1.478 2.977zM23.467 22.456c-0.43 0.442-1.134 0.442-1.56 0-2.16-2.247-5.653-2.247-7.814 0-0.426 0.442-1.13 0.442-1.559 0-0.429-0.456-0.429-1.178 0-1.635 3.014-3.129 7.918-3.129 10.933 0 0.429 0.457 0.429 1.179 0 1.635zM26.588 19.207c-0.429 0.44-1.13 0.44-1.561 0-3.882-4.034-10.171-4.034-14.054 0-0.433 0.44-1.131 0.44-1.56 0-0.436-0.452-0.436-1.173 0-1.632 4.739-4.925 12.436-4.925 17.176 0 0.434 0.458 0.434 1.18-0 1.632zM29.715 15.955c-0.435 0.445-1.129 0.445-1.563 0-5.608-5.829-14.696-5.829-20.304 0-0.435 0.445-1.129 0.445-1.565 0-0.432-0.445-0.432-1.172 0-1.621 6.471-6.73 16.963-6.73 23.432 0 0.432 0.45 0.432 1.176 0 1.621z"></path>
</svg>
