<?xml version="1.0" encoding="utf-8"?>
<!-- Generated by IcoMoon.io -->
<!DOCTYPE svg PUBLIC "-//W3C//DTD SVG 1.1//EN" "http://www.w3.org/Graphics/SVG/1.1/DTD/svg11.dtd">
<svg version="1.1" xmlns="http://www.w3.org/2000/svg" xmlns:xlink="http://www.w3.org/1999/xlink" width="36" height="36" viewBox="0 0 36 36">
<path fill="#444" d="M19.337 24.442c-1.729-0.892-4.001 0.321-4.001 2.606 0 1.608 1.039 2.548 2.451 2.897h0.62c1.732-0.349 3.147-2.328 2.138-4.227-0.273-0.506-0.752-1.048-1.208-1.276z"></path>
<path fill="#444" d="M32.705 13.409c0.63 0.644 1.633 0.644 2.263 0 0.625-0.644 0.625-1.694 0-2.347-9.371-9.747-24.567-9.747-33.939 0-0.623 0.653-0.623 1.703 0 2.347 0.63 0.644 1.64 0.644 2.266 0 8.123-8.441 21.287-8.441 29.41 0z"></path>
<path fill="#444" d="M34.708 23.813h-0.711v-2.080c0-1.934-1.424-3.555-3.314-3.935 0.372-0.641 0.292-1.478-0.243-2.040-6.865-7.135-18.012-7.135-24.878 0-0.631 0.663-0.631 1.707 0 2.362 0.62 0.638 1.633 0.638 2.261 0 5.608-5.827 14.683-5.843 20.305-0.049-0.052 0.023-0.105 0.046-0.156 0.071-0.313 0.151-0.6 0.337-0.861 0.553v0.003c-0.122 0.101-0.239 0.212-0.347 0.326-0.014 0.014-0.027 0.027-0.040 0.041-0.363 0.393-0.648 0.854-0.831 1.361-4.369-4.501-11.45-4.491-15.809 0.030-0.621 0.664-0.622 1.708-0.001 2.368 0.619 0.642 1.64 0.642 2.257 0 3.13-3.255 8.192-3.255 11.321 0 0.539 0.559 1.365 0.631 2.004 0.217v0.771h-0.762c-0.018 0-0.034 0.005-0.052 0.005-0.141 0.011-0.268 0.061-0.376 0.14-0.002 0.001-0.002 0.001-0.002 0.001-0.036 0.026-0.069 0.053-0.097 0.085-0.004 0.006-0.007 0.012-0.014 0.017-0.025 0.029-0.047 0.056-0.068 0.087-0.009 0.012-0.014 0.028-0.023 0.041-0.014 0.026-0.027 0.051-0.041 0.077-0.009 0.024-0.016 0.050-0.020 0.074-0.007 0.020-0.014 0.038-0.018 0.059-0.012 0.047-0.016 0.095-0.016 0.142v6.981c0 0.4 0.327 0.727 0.727 0.727h9.804c0.401 0 0.73-0.327 0.73-0.727v-6.981c-0-0.4-0.328-0.726-0.73-0.726zM32.32 23.813h-4.973v-2.080c0-0.079 0.005-0.154 0.011-0.23 0.002-0.031 0.009-0.062 0.014-0.092 0.007-0.043 0.014-0.085 0.023-0.127 0.007-0.041 0.018-0.079 0.027-0.118 0.009-0.032 0.018-0.063 0.027-0.093 0.013-0.045 0.029-0.091 0.045-0.134 0.009-0.021 0.018-0.045 0.027-0.067 0.023-0.049 0.043-0.094 0.068-0.142 0.007-0.016 0.016-0.034 0.022-0.047 0.030-0.050 0.059-0.101 0.091-0.15 0.005-0.009 0.012-0.018 0.016-0.029 0.036-0.051 0.073-0.102 0.109-0.152 0.007-0.006 0.009-0.008 0.013-0.013 0.042-0.054 0.085-0.104 0.132-0.154 0.453-0.486 1.117-0.792 1.86-0.792 1.371 0 2.488 1.046 2.488 2.337v2.080z"></path>
</svg>
