<?xml version="1.0" encoding="utf-8"?>
<!-- Generated by IcoMoon.io -->
<!DOCTYPE svg PUBLIC "-//W3C//DTD SVG 1.1//EN" "http://www.w3.org/Graphics/SVG/1.1/DTD/svg11.dtd">
<svg version="1.1" xmlns="http://www.w3.org/2000/svg" xmlns:xlink="http://www.w3.org/1999/xlink" width="36" height="36" viewBox="0 0 36 36">
<path fill="#444" d="M34.401 4.939c0.009-0.168 0.004-0.336-0.024-0.503-0.081-0.508-0.333-0.99-0.75-1.354-0.265-0.234-0.568-0.393-0.887-0.482-0.068-0.016-0.137-0.032-0.205-0.048-0.291-0.069-0.582-0.14-0.873-0.204-4.609-1.025-9.259-1.711-13.995-1.701 0-0.028-0.003-0.057-0.005-0.084-1.989 0.137-3.984 0.22-5.967 0.428-2.722 0.286-5.407 0.811-8.062 1.476-0.198 0.025-0.396 0.074-0.583 0.15-0.351 0.142-0.674 0.372-0.932 0.688-0.286 0.353-0.45 0.767-0.5 1.188-0.005 0.122-0.009 0.244-0.013 0.368-0.134 3.709 0.214 7.372 1.178 10.973 1.371 5.127 3.838 9.662 7.41 13.59 1.859 2.046 3.944 3.819 6.207 5.38 0.185 0.175 0.398 0.321 0.634 0.428 0.281 0.126 0.592 0.2 0.921 0.205 0.408 0.004 0.792-0.099 1.129-0.283 0.123-0.082 0.246-0.166 0.369-0.249 1.886-1.287 3.653-2.722 5.271-4.345 3.397-3.407 5.941-7.36 7.595-11.88 1.052-2.87 1.68-5.832 1.954-8.872 0.146-1.621 0.181-3.245 0.131-4.869zM18.854 23.267c-0.918 0.469-2.042 0.112-2.513-0.804-0.465-0.914-0.11-2.042 0.806-2.509 0.918-0.471 2.038-0.11 2.513 0.806 0.465 0.916 0.111 2.036-0.806 2.507zM22.351 18.917c-0.457 0.459-1.199 0.459-1.658 0-0.719-0.717-1.674-1.114-2.691-1.114-1.021 0-1.972 0.397-2.691 1.116-0.459 0.457-1.199 0.457-1.658 0-0.463-0.457-0.463-1.199-0.004-1.66 1.164-1.162 2.708-1.8 4.353-1.8 1.641 0 3.189 0.637 4.349 1.798 0.232 0.229 0.343 0.529 0.343 0.831s-0.112 0.601-0.343 0.829zM26.22 15.601c-0.426 0.424-1.116 0.424-1.542 0-1.782-1.786-4.154-2.768-6.678-2.768s-4.896 0.982-6.68 2.77c-0.424 0.424-1.114 0.424-1.54 0-0.426-0.426-0.426-1.116 0-1.542 2.195-2.197 5.113-3.406 8.22-3.406s6.025 1.209 8.22 3.406c0.211 0.211 0.32 0.492 0.32 0.769 0 0.279-0.11 0.556-0.32 0.771z"></path>
</svg>
