<?xml version="1.0" encoding="utf-8"?>
<!-- Generated by IcoMoon.io -->
<!DOCTYPE svg PUBLIC "-//W3C//DTD SVG 1.1//EN" "http://www.w3.org/Graphics/SVG/1.1/DTD/svg11.dtd">
<svg version="1.1" xmlns="http://www.w3.org/2000/svg" xmlns:xlink="http://www.w3.org/1999/xlink" width="36" height="36" viewBox="0 0 36 36">
<path fill="#444" d="M31.191 14.025c0-7.285-5.905-13.2-13.192-13.2-7.285 0-13.191 5.902-13.191 13.187 0 2.398 0.641 4.641 1.76 6.579l11.431 14.653 11.48-14.687h-0.010c1.094-1.86 1.721-4.162 1.721-6.533zM19.769 24.278c-0.447 0.447-1.041 0.692-1.674 0.692-0.634 0-1.23-0.247-1.677-0.695s-0.694-1.044-0.694-1.676c0-0.633 0.247-1.229 0.696-1.676s1.043-0.692 1.674-0.692c0.633 0 1.23 0.246 1.677 0.696 0.448 0.448 0.694 1.043 0.693 1.676 0 0.633-0.247 1.228-0.696 1.675zM22.867 19.242c-0.215 0.112-0.465 0.173-0.716 0.173-0.58 0-1.107-0.315-1.376-0.821-0.431-0.804-1.73-1.306-2.651-1.306-0.952 0-2.252 0.505-2.684 1.317-0.266 0.509-0.795 0.827-1.378 0.827-0.246 0-0.493-0.059-0.712-0.172-0.374-0.192-0.649-0.517-0.775-0.914-0.124-0.393-0.086-0.811 0.108-1.176 0.97-1.834 3.333-2.974 5.428-2.974 2.089 0.002 4.445 1.134 5.414 2.954 0.119 0.216 0.182 0.462 0.182 0.721 0 0.582-0.323 1.107-0.842 1.37zM25.703 14.595c-0.21 0.113-0.445 0.171-0.68 0.171-0.531 0-1.017-0.292-1.268-0.76-0.932-1.739-3.652-2.82-5.62-2.82-1.989 0-4.716 1.092-5.643 2.849-0.25 0.474-0.737 0.768-1.274 0.768-0.231 0-0.462-0.057-0.667-0.165-0.701-0.371-0.97-1.242-0.605-1.944 1.428-2.704 5.13-4.383 8.186-4.383 3.038 0.002 6.729 1.664 8.16 4.337 0.111 0.202 0.17 0.433 0.17 0.68-0.002 0.531-0.293 1.016-0.759 1.267z"></path>
</svg>
