<?xml version="1.0" encoding="utf-8"?>
<!-- Generated by IcoMoon.io -->
<!DOCTYPE svg PUBLIC "-//W3C//DTD SVG 1.1//EN" "http://www.w3.org/Graphics/SVG/1.1/DTD/svg11.dtd">
<svg version="1.1" xmlns="http://www.w3.org/2000/svg" xmlns:xlink="http://www.w3.org/1999/xlink" width="36" height="36" viewBox="0 0 36 36">
<path fill="#444" d="M18.297 31.213c-0.21 0-0.415 0-0.617 0-1.413 0-2.453-1.406-2.453-3.014 0-2.287 2.274-3.548 4-2.656 0.456 0.231 0.937 0.852 1.21 1.357 1.005 1.901-0.408 4.312-2.14 4.312z"></path>
<path fill="#444" d="M25.917 23.86c-0.622 0.641-1.642 0.641-2.259 0-3.129-3.255-8.188-3.255-11.318 0-0.618 0.641-1.637 0.641-2.258 0-0.622-0.66-0.622-1.706 0-2.368 4.365-4.533 11.468-4.533 15.835 0 0.622 0.662 0.622 1.707 0 2.368z"></path>
<path fill="#444" d="M30.438 19.155c-0.621 0.638-1.636 0.638-2.261 0-5.622-5.842-14.731-5.842-20.355 0-0.628 0.638-1.639 0.638-2.259 0-0.631-0.654-0.631-1.699 0-2.363 6.863-7.133 18.010-7.133 24.876 0 0.627 0.664 0.627 1.709-0.001 2.363z"></path>
<path fill="#444" d="M34.969 14.446c-0.631 0.644-1.635 0.644-2.264 0-8.122-8.443-21.285-8.443-29.407 0-0.63 0.644-1.635 0.644-2.266 0-0.625-0.645-0.625-1.697 0-2.348 9.373-9.747 24.568-9.747 33.938 0 0.625 0.651 0.625 1.704-0 2.348z"></path>
</svg>
