<?xml version="1.0" encoding="utf-8"?>
<!-- Generated by IcoMoon.io -->
<!DOCTYPE svg PUBLIC "-//W3C//DTD SVG 1.1//EN" "http://www.w3.org/Graphics/SVG/1.1/DTD/svg11.dtd">
<svg version="1.1" xmlns="http://www.w3.org/2000/svg" xmlns:xlink="http://www.w3.org/1999/xlink" width="36" height="36" viewBox="0 0 36 36">
<path fill="#444" d="M31.9 0.628h-27.798c-1.918 0-3.475 1.554-3.475 3.475v27.796c0 1.919 1.556 3.473 3.475 3.473h27.798c1.916 0 3.473-1.554 3.473-3.473v-27.796c0-1.921-1.556-3.475-3.473-3.475zM23.674 21.257v3.334h-2.353v3.363c0 0.211-0.174 0.385-0.387 0.385h-1.347c-0.209 0-0.381-0.174-0.381-0.385v-3.363h-2.488v3.363c0 0.211-0.174 0.385-0.387 0.385h-1.349c-0.205 0-0.379-0.174-0.379-0.385v-3.363h-2.353v-3.382h0.014l-0.008-0.010c1.31-1.022 2.932-1.809 5.079-1.948 2.699-0.186 4.764 0.743 6.32 1.958h0.019v0.012c0.006 0.006 0.014 0.010 0.021 0.015l-0.021 0.020zM27.148 19.159c-0.236 0.279-0.571 0.42-0.911 0.42-0.273 0-0.546-0.091-0.77-0.284-2.088-1.773-4.745-2.75-7.49-2.75h-0.037c-2.697 0.010-5.319 0.968-7.38 2.694-0.507 0.424-1.258 0.358-1.683-0.147-0.422-0.505-0.356-1.258 0.147-1.68 2.492-2.086 5.652-3.241 8.907-3.253 3.326-0.008 6.55 1.167 9.079 3.317 0.503 0.428 0.563 1.182 0.137 1.683zM30.816 15.132c-0.236 0.271-0.567 0.412-0.902 0.412-0.277 0-0.555-0.097-0.782-0.294-3.092-2.684-7.051-4.162-11.149-4.162h-0.058c-3.996 0.014-7.877 1.44-10.925 4.017-0.501 0.422-1.254 0.362-1.681-0.143-0.424-0.503-0.362-1.254 0.141-1.68 3.475-2.937 7.897-4.565 12.456-4.58h0.066c4.675 0 9.187 1.685 12.715 4.747 0.499 0.433 0.551 1.184 0.118 1.683z"></path>
</svg>
