<?xml version="1.0" encoding="utf-8"?>
<!-- Generated by IcoMoon.io -->
<!DOCTYPE svg PUBLIC "-//W3C//DTD SVG 1.1//EN" "http://www.w3.org/Graphics/SVG/1.1/DTD/svg11.dtd">
<svg version="1.1" xmlns="http://www.w3.org/2000/svg" xmlns:xlink="http://www.w3.org/1999/xlink" width="36" height="36" viewBox="0 0 36 36">
<path fill="#444" d="M32.792 19.899c0.003-0.003 0.005-0.006 0.009-0.008-0.008-0.001-0.017-0.002-0.024-0.003 0.005 0.004 0.010 0.008 0.016 0.012z"></path>
<path fill="#444" d="M33.398 18.57c0.881-1.052 1.42-2.398 1.42-3.873 0-3.003-2.159-5.522-5.127-5.986l-0.77-0.119-0.138-0.768c-0.517-2.893-3.028-4.993-5.966-4.993-1.001 0-1.959 0.24-2.84 0.708l-0.77 0.409-0.569-0.659c-1.395-1.605-3.411-2.531-5.532-2.531-3.976 0-7.186 3.112-7.313 7.086l-0.024 0.799-0.774 0.217c-2.61 0.729-4.433 3.131-4.433 5.837 0 3.096 2.319 5.688 5.393 6.027l0.36 0.039h8.868c3.322-2.164 6.601-3.711 9.498-3.715 4.094-0.005 6.914 0.756 8.716 1.521z"></path>
<path fill="#444" d="M2.18 28.512c0 0 3.928 1.343 7.622 0.1 3.695-1.243 11.341-9.054 16.425-8.745 5.080 0.309 6.653 2.464 6.321 2.128-0.214-0.217-3.265-1.397-6.674-0.652s-8.82 8.343-14.052 8.606c-5.233 0.262-9.642-1.436-9.642-1.436z"></path>
<path fill="#444" d="M5.026 33.777c0 0 3.928 1.343 7.622 0.1 3.696-1.243 11.342-9.054 16.425-8.745 5.080 0.309 6.653 2.464 6.321 2.128-0.214-0.217-3.265-1.397-6.674-0.653s-8.82 8.343-14.053 8.606c-5.233 0.262-9.642-1.436-9.642-1.436z"></path>
</svg>
