<?xml version="1.0" encoding="utf-8"?>
<!-- Generated by IcoMoon.io -->
<!DOCTYPE svg PUBLIC "-//W3C//DTD SVG 1.1//EN" "http://www.w3.org/Graphics/SVG/1.1/DTD/svg11.dtd">
<svg version="1.1" xmlns="http://www.w3.org/2000/svg" xmlns:xlink="http://www.w3.org/1999/xlink" width="36" height="36" viewBox="0 0 36 36">
<path fill="#444" d="M13.631 14.808c0.344-0.231 0.288-0.42-0.128-0.42h-4.542c-0.414 0-0.754 0.34-0.754 0.756v2.054c0 0.416 0.166 0.756 0.365 0.756s0.649-0.191 0.991-0.424l4.068-2.722z"></path>
<path fill="#444" d="M18.598 19.613c-0.015-0.009-0.082-0.023-0.181-0.023-0.111 0-0.185 0.019-0.197 0.023l-2.301 1.119-0.622 13.584c-0.025 0.582 0.428 1.056 1.010 1.056h2.816c0.582 0 1.035-0.475 1.008-1.056l-0.653-14.305-0.88-0.399z"></path>
<path fill="#444" d="M29.742 20.324l-8.446-5.516c-0.323-0.212-0.609-0.701-0.634-1.088l-0.79-12.389c-0.025-0.386-0.361-0.703-0.752-0.703h-1.405c-0.389 0-0.725 0.317-0.75 0.703l-0.79 12.371c-0.025 0.386-0.307 0.88-0.63 1.094l-9.294 6.228c-0.319 0.214-0.424 0.666-0.231 1l0.701 1.222c0.139 0.235 0.401 0.374 0.666 0.374 0.109 0 0.218-0.025 0.321-0.076l10.046-4.88c0.181-0.088 0.422-0.13 0.662-0.13 0.225 0 0.445 0.038 0.615 0.116l9.25 4.208c0.099 0.044 0.204 0.067 0.309 0.067 0.273 0 0.546-0.143 0.685-0.384l0.703-1.22c0.193-0.336 0.088-0.783-0.237-0.996zM18.419 16.841c-0.567 0-1.025-0.458-1.025-1.025 0-0.563 0.458-1.021 1.025-1.021 0.565 0 1.025 0.458 1.025 1.021 0 0.567-0.46 1.025-1.025 1.025z"></path>
</svg>
