<?xml version="1.0" encoding="utf-8"?>
<!-- Generated by IcoMoon.io -->
<!DOCTYPE svg PUBLIC "-//W3C//DTD SVG 1.1//EN" "http://www.w3.org/Graphics/SVG/1.1/DTD/svg11.dtd">
<svg version="1.1" xmlns="http://www.w3.org/2000/svg" xmlns:xlink="http://www.w3.org/1999/xlink" width="36" height="36" viewBox="0 0 36 36">
<path fill="#444" d="M22.889 4.568c-0.271 0-0.491 0.22-0.491 0.491s0.22 0.493 0.491 0.493c0.817 0 1.477 0.661 1.477 1.477 0 0.273 0.222 0.491 0.493 0.491s0.491-0.218 0.491-0.491c0-1.357-1.102-2.462-2.462-2.462z"></path>
<path fill="#444" d="M21.65 6.535h-2.609c0.479 0 0.87-0.392 0.87-0.87v-2.083c0-0.479-0.392-0.87-0.87-0.87h-7.99c-0.479 0-0.868 0.392-0.868 0.87v2.082c0 0.479 0.39 0.87 0.868 0.87h-2.607c-0.955 0-1.736 0.781-1.736 1.739v8.338c0 0.953 0.781 1.736 1.736 1.736v16.156c0 0.479 0.392 0.868 0.868 0.868h11.467c0.477 0 0.87-0.39 0.87-0.868v-16.156c0.953 0 1.734-0.783 1.734-1.736v-8.338c0-0.957-0.781-1.738-1.734-1.738zM17.999 15.901h-1.736v0.694h-2.433v-0.694h-1.739v-1.39h5.908v1.39zM19.389 13.468h-8.686v-4.865h8.686v4.865z"></path>
<path fill="#444" d="M22.889 2.598c-0.271 0-0.491 0.222-0.491 0.491 0 0.274 0.22 0.495 0.491 0.495 1.902 0 3.448 1.544 3.448 3.446 0 0.271 0.22 0.493 0.493 0.493 0.271 0 0.493-0.222 0.493-0.493 0-2.445-1.989-4.432-4.434-4.432z"></path>
<path fill="#444" d="M22.889 0.627c-0.271 0-0.491 0.22-0.491 0.493 0 0.269 0.22 0.491 0.491 0.491 2.988 0 5.419 2.431 5.419 5.419 0 0.273 0.22 0.491 0.491 0.491s0.493-0.218 0.493-0.491c0-3.531-2.874-6.403-6.403-6.403z"></path>
</svg>
