<?xml version="1.0" encoding="utf-8"?>
<!-- Generated by IcoMoon.io -->
<!DOCTYPE svg PUBLIC "-//W3C//DTD SVG 1.1//EN" "http://www.w3.org/Graphics/SVG/1.1/DTD/svg11.dtd">
<svg version="1.1" xmlns="http://www.w3.org/2000/svg" xmlns:xlink="http://www.w3.org/1999/xlink" width="36" height="36" viewBox="0 0 36 36">
<path fill="#444" d="M12.202 16.043c3.919 0 7.106-3.27 7.106-7.285 0-4.017-3.188-7.283-7.106-7.283-3.921 0-7.109 3.266-7.109 7.283 0 4.015 3.188 7.285 7.109 7.285z"></path>
<path fill="#444" d="M20.524 16.384l-2.436-0.646c-1.584 1.391-3.632 2.241-5.878 2.246-2.25-0.005-4.299-0.855-5.885-2.246l-2.434 0.646c-2.596 0.726-3.447 1.817-3.231 3.236l1.939 12.419c0.289 1.934 1.448 3.316 3.236 3.316h12.749c1.787 0 2.949-1.382 3.236-3.316l1.939-12.377c0.213-1.421-0.635-2.551-3.234-3.277z"></path>
<path fill="#444" d="M27.004 11.164c2.828 0 5.131-2.36 5.131-5.262 0-2.897-2.303-5.257-5.131-5.257-2.832 0-5.133 2.361-5.133 5.257-0 2.901 2.301 5.262 5.133 5.262z"></path>
<path fill="#444" d="M33.013 11.411l-1.76-0.467c-1.141 1.004-2.624 1.618-4.246 1.62-1.62-0.002-3.101-0.616-4.244-1.62l-1.76 0.467c-1.877 0.522-2.486 1.311-2.335 2.338l0.028 0.186 2.337 0.619c4.29 1.196 4.872 3.561 4.602 5.356l-0.797 5.071h6.774c1.293 0 2.129-0.933 2.335-2.328l1.405-8.905c0.151-1.027-0.461-1.813-2.337-2.335z"></path>
</svg>
