<?xml version="1.0" encoding="utf-8"?>
<!-- Generated by IcoMoon.io -->
<!DOCTYPE svg PUBLIC "-//W3C//DTD SVG 1.1//EN" "http://www.w3.org/Graphics/SVG/1.1/DTD/svg11.dtd">
<svg version="1.1" xmlns="http://www.w3.org/2000/svg" xmlns:xlink="http://www.w3.org/1999/xlink" width="36" height="36" viewBox="0 0 36 36">
<path fill="#444" d="M19.31 8.84c0-4.016-3.189-7.285-7.107-7.285-3.923 0-7.112 3.269-7.112 7.285s3.189 7.283 7.112 7.283c3.918 0 7.107-3.267 7.107-7.283z"></path>
<path fill="#444" d="M20.522 16.464l-2.435-0.645c-1.582 1.392-3.632 2.24-5.879 2.245-2.247-0.005-4.298-0.853-5.884-2.245l-2.432 0.645c-2.597 0.727-3.447 1.82-3.232 3.239l1.939 12.337c0.288 1.934 1.447 3.235 3.237 3.235h12.747c1.788 0 2.949-1.301 3.237-3.235l1.939-12.337c0.215-1.42-0.633-2.512-3.235-3.239zM19.207 22.91v0l-8.911 8.911-1.907-1.911-3.184-3.182c-0.526-0.528-0.526-1.381 0-1.909 0.265-0.265 0.61-0.396 0.956-0.396s0.693 0.13 0.953 0.396c0 0 0.005 0 0.005 0.002l3.177 3.182 7.002-7.002c0.265-0.265 0.61-0.396 0.956-0.396s0.69 0.13 0.953 0.396c0.528 0.526 0.528 1.381 0 1.909z"></path>
<path fill="#444" d="M27.003 11.245c2.83 0 5.134-2.359 5.134-5.26s-2.304-5.26-5.134-5.26-5.132 2.359-5.132 5.26 2.302 5.26 5.132 5.26z"></path>
<path fill="#444" d="M33.015 11.492l-1.76-0.466c-1.143 1.004-2.624 1.618-4.245 1.621-1.623-0.002-3.104-0.617-4.245-1.621l-1.76 0.466c-1.877 0.524-2.489 1.312-2.336 2.336l0.028 0.187 2.336 0.62c4.293 1.196 4.874 3.571 4.604 5.361l-0.8 5.079h6.776c1.294 0 2.131-0.937 2.336-2.336l1.404-8.911c0.151-1.024-0.462-1.813-2.336-2.336z"></path>
</svg>
