<?xml version="1.0" encoding="utf-8"?>
<!-- Generated by IcoMoon.io -->
<!DOCTYPE svg PUBLIC "-//W3C//DTD SVG 1.1//EN" "http://www.w3.org/Graphics/SVG/1.1/DTD/svg11.dtd">
<svg version="1.1" xmlns="http://www.w3.org/2000/svg" xmlns:xlink="http://www.w3.org/1999/xlink" width="36" height="36" viewBox="0 0 36 36">
<path fill="#444" d="M15.608 21.412l6.081-3.412-6.081-3.412z"></path>
<path fill="#444" d="M18 0c-9.941 0-18 8.059-18 18s8.059 18 18 18 18-8.059 18-18c0-9.941-8.059-18-18-18zM29.983 24.198c0 1.060-0.795 1.919-1.776 1.919h-20.416c-0.981 0-1.775-0.859-1.775-1.919v-12.396c0-1.060 0.795-1.92 1.775-1.92h20.416c0.981 0 1.776 0.86 1.776 1.92v12.396z"></path>
</svg>
