<?xml version="1.0" encoding="utf-8"?>
<!-- Generated by IcoMoon.io -->
<!DOCTYPE svg PUBLIC "-//W3C//DTD SVG 1.1//EN" "http://www.w3.org/Graphics/SVG/1.1/DTD/svg11.dtd">
<svg version="1.1" xmlns="http://www.w3.org/2000/svg" xmlns:xlink="http://www.w3.org/1999/xlink" width="36" height="36" viewBox="0 0 36 36">
<path fill="#444" d="M18.578 13.783h-2.762v-2.762c0-0.612-0.499-1.111-1.11-1.111s-1.111 0.499-1.111 1.111v2.762h-2.762c-0.613 0-1.11 0.499-1.11 1.111s0.497 1.11 1.11 1.11h2.762v2.763c0 0.612 0.499 1.11 1.111 1.11s1.11-0.498 1.11-1.11v-2.763h2.762c0.613 0 1.11-0.497 1.11-1.11s-0.497-1.111-1.11-1.111z"></path>
<path fill="#444" d="M34.633 30.032l-8.014-8.016c3.284-5.473 2.449-12.542-2.119-17.108-2.649-2.649-6.171-4.107-9.916-4.107-3.746 0-7.268 1.458-9.916 4.107s-4.106 6.169-4.106 9.915c0 3.744 1.458 7.266 4.106 9.916 2.648 2.645 6.167 4.103 9.912 4.103 2.762 0 5.492-0.831 7.78-2.354l7.907 7.908c0.519 0.518 1.206 0.803 1.938 0.803h0.002c0.732 0 1.419-0.285 1.935-0.803l0.492-0.489c0.517-0.519 0.803-1.206 0.803-1.939 0-0.732-0.285-1.42-0.804-1.937zM20.419 20.657c-1.559 1.559-3.631 2.419-5.834 2.419-2.205 0-4.276-0.86-5.834-2.417-1.558-1.56-2.416-3.63-2.416-5.835s0.858-4.276 2.416-5.836c1.559-1.557 3.63-2.417 5.834-2.417s4.277 0.858 5.834 2.417c1.559 1.559 2.417 3.632 2.417 5.836s-0.859 4.275-2.417 5.834z"></path>
</svg>
