<?xml version="1.0" encoding="utf-8"?>
<!-- Generated by IcoMoon.io -->
<!DOCTYPE svg PUBLIC "-//W3C//DTD SVG 1.1//EN" "http://www.w3.org/Graphics/SVG/1.1/DTD/svg11.dtd">
<svg version="1.1" xmlns="http://www.w3.org/2000/svg" xmlns:xlink="http://www.w3.org/1999/xlink" width="36" height="36" viewBox="0 0 36 36">
<path fill="#444" d="M18.468 13.848h-7.746c-0.708 0-1.285 0.576-1.285 1.285s0.577 1.286 1.285 1.286h7.746c0.708 0 1.286-0.577 1.286-1.286s-0.577-1.285-1.286-1.285z"></path>
<path fill="#444" d="M34.633 30.031l-8.013-8.015c3.282-5.473 2.448-12.542-2.119-17.108-2.65-2.649-6.172-4.107-9.917-4.107s-7.266 1.458-9.914 4.107c-2.65 2.648-4.107 6.169-4.107 9.915 0 3.744 1.457 7.266 4.107 9.916 2.647 2.645 6.167 4.103 9.91 4.103 2.764 0 5.493-0.831 7.781-2.354l7.908 7.908c0.516 0.517 1.206 0.803 1.938 0.803h0.001c0.732 0 1.42-0.285 1.937-0.803l0.492-0.489c0.516-0.519 0.801-1.206 0.803-1.939 0-0.732-0.286-1.42-0.805-1.937zM20.418 20.657c-1.559 1.559-3.63 2.419-5.835 2.419s-4.274-0.86-5.834-2.417c-1.559-1.56-2.417-3.63-2.417-5.835s0.858-4.276 2.417-5.835c1.56-1.557 3.632-2.417 5.835-2.417s4.275 0.858 5.835 2.417c1.559 1.559 2.417 3.632 2.417 5.835s-0.86 4.275-2.419 5.834z"></path>
</svg>
